<?xml version="1.0" encoding="utf-8" standalone="no"?>
<!DOCTYPE svg PUBLIC "-//W3C//DTD SVG 1.1//EN"
  "http://www.w3.org/Graphics/SVG/1.1/DTD/svg11.dtd">
<svg height="288pt" version="1.1" viewBox="0 0 576 288" width="576pt" xmlns="http://www.w3.org/2000/svg" xmlns:xlink="http://www.w3.org/1999/xlink">
 <metadata>
  <rdf:RDF xmlns:cc="http://creativecommons.org/ns#" xmlns:dc="http://purl.org/dc/elements/1.1/" xmlns:rdf="http://www.w3.org/1999/02/22-rdf-syntax-ns#">
   <cc:Work>
    <dc:type rdf:resource="http://purl.org/dc/dcmitype/StillImage"/>
    <dc:date>2021-10-07T11:03:54.805557</dc:date>
    <dc:format>image/svg+xml</dc:format>
    <dc:creator>
     <cc:Agent>
      <dc:title>Matplotlib v3.4.2, https://matplotlib.org/</dc:title>
     </cc:Agent>
    </dc:creator>
   </cc:Work>
  </rdf:RDF>
 </metadata>
 <defs>
  <style type="text/css">*{stroke-linecap:butt;stroke-linejoin:round;}</style>
 </defs>
 <g id="figure_1">
  <g id="patch_1">
   <path d="M 0 288 
L 576 288 
L 576 0 
L 0 0 
z
" style="fill:#ffffff;"/>
  </g>
  <g id="axes_1">
   <g id="patch_2">
    <path d="M 40.82 240.66 
L 555.028586 240.66 
L 555.028586 12.96 
L 40.82 12.96 
z
" style="fill:#eaeaf2;"/>
   </g>
   <g id="matplotlib.axis_1">
    <g id="xtick_1">
     <g id="line2d_1">
      <path clip-path="url(#pe900ff31b4)" d="M 64.193118 240.66 
L 64.193118 12.96 
" style="fill:none;stroke:#ffffff;stroke-linecap:round;"/>
     </g>
     <g id="text_1">
      <!-- 0 -->
      <g style="fill:#262626;" transform="translate(61.134602 258.033594)scale(0.11 -0.11)">
       <defs>
        <path d="M 266 2259 
Q 266 3072 433 3567 
Q 600 4063 929 4331 
Q 1259 4600 1759 4600 
Q 2128 4600 2406 4451 
Q 2684 4303 2865 4023 
Q 3047 3744 3150 3342 
Q 3253 2941 3253 2259 
Q 3253 1453 3087 958 
Q 2922 463 2592 192 
Q 2263 -78 1759 -78 
Q 1097 -78 719 397 
Q 266 969 266 2259 
z
M 844 2259 
Q 844 1131 1108 757 
Q 1372 384 1759 384 
Q 2147 384 2411 759 
Q 2675 1134 2675 2259 
Q 2675 3391 2411 3762 
Q 2147 4134 1753 4134 
Q 1366 4134 1134 3806 
Q 844 3388 844 2259 
z
" id="ArialMT-30" transform="scale(0.015625)"/>
       </defs>
       <use xlink:href="#ArialMT-30"/>
      </g>
     </g>
    </g>
    <g id="xtick_2">
     <g id="line2d_2">
      <path clip-path="url(#pe900ff31b4)" d="M 125.379289 240.66 
L 125.379289 12.96 
" style="fill:none;stroke:#ffffff;stroke-linecap:round;"/>
     </g>
     <g id="text_2">
      <!-- 25 -->
      <g style="fill:#262626;" transform="translate(119.262258 258.033594)scale(0.11 -0.11)">
       <defs>
        <path d="M 3222 541 
L 3222 0 
L 194 0 
Q 188 203 259 391 
Q 375 700 629 1000 
Q 884 1300 1366 1694 
Q 2113 2306 2375 2664 
Q 2638 3022 2638 3341 
Q 2638 3675 2398 3904 
Q 2159 4134 1775 4134 
Q 1369 4134 1125 3890 
Q 881 3647 878 3216 
L 300 3275 
Q 359 3922 746 4261 
Q 1134 4600 1788 4600 
Q 2447 4600 2831 4234 
Q 3216 3869 3216 3328 
Q 3216 3053 3103 2787 
Q 2991 2522 2730 2228 
Q 2469 1934 1863 1422 
Q 1356 997 1212 845 
Q 1069 694 975 541 
L 3222 541 
z
" id="ArialMT-32" transform="scale(0.015625)"/>
        <path d="M 266 1200 
L 856 1250 
Q 922 819 1161 601 
Q 1400 384 1738 384 
Q 2144 384 2425 690 
Q 2706 997 2706 1503 
Q 2706 1984 2436 2262 
Q 2166 2541 1728 2541 
Q 1456 2541 1237 2417 
Q 1019 2294 894 2097 
L 366 2166 
L 809 4519 
L 3088 4519 
L 3088 3981 
L 1259 3981 
L 1013 2750 
Q 1425 3038 1878 3038 
Q 2478 3038 2890 2622 
Q 3303 2206 3303 1553 
Q 3303 931 2941 478 
Q 2500 -78 1738 -78 
Q 1113 -78 717 272 
Q 322 622 266 1200 
z
" id="ArialMT-35" transform="scale(0.015625)"/>
       </defs>
       <use xlink:href="#ArialMT-32"/>
       <use x="55.615234" xlink:href="#ArialMT-35"/>
      </g>
     </g>
    </g>
    <g id="xtick_3">
     <g id="line2d_3">
      <path clip-path="url(#pe900ff31b4)" d="M 186.565461 240.66 
L 186.565461 12.96 
" style="fill:none;stroke:#ffffff;stroke-linecap:round;"/>
     </g>
     <g id="text_3">
      <!-- 50 -->
      <g style="fill:#262626;" transform="translate(180.44843 258.033594)scale(0.11 -0.11)">
       <use xlink:href="#ArialMT-35"/>
       <use x="55.615234" xlink:href="#ArialMT-30"/>
      </g>
     </g>
    </g>
    <g id="xtick_4">
     <g id="line2d_4">
      <path clip-path="url(#pe900ff31b4)" d="M 247.751632 240.66 
L 247.751632 12.96 
" style="fill:none;stroke:#ffffff;stroke-linecap:round;"/>
     </g>
     <g id="text_4">
      <!-- 75 -->
      <g style="fill:#262626;" transform="translate(241.634601 258.033594)scale(0.11 -0.11)">
       <defs>
        <path d="M 303 3981 
L 303 4522 
L 3269 4522 
L 3269 4084 
Q 2831 3619 2401 2847 
Q 1972 2075 1738 1259 
Q 1569 684 1522 0 
L 944 0 
Q 953 541 1156 1306 
Q 1359 2072 1739 2783 
Q 2119 3494 2547 3981 
L 303 3981 
z
" id="ArialMT-37" transform="scale(0.015625)"/>
       </defs>
       <use xlink:href="#ArialMT-37"/>
       <use x="55.615234" xlink:href="#ArialMT-35"/>
      </g>
     </g>
    </g>
    <g id="xtick_5">
     <g id="line2d_5">
      <path clip-path="url(#pe900ff31b4)" d="M 308.937804 240.66 
L 308.937804 12.96 
" style="fill:none;stroke:#ffffff;stroke-linecap:round;"/>
     </g>
     <g id="text_5">
      <!-- 100 -->
      <g style="fill:#262626;" transform="translate(299.762257 258.033594)scale(0.11 -0.11)">
       <defs>
        <path d="M 2384 0 
L 1822 0 
L 1822 3584 
Q 1619 3391 1289 3197 
Q 959 3003 697 2906 
L 697 3450 
Q 1169 3672 1522 3987 
Q 1875 4303 2022 4600 
L 2384 4600 
L 2384 0 
z
" id="ArialMT-31" transform="scale(0.015625)"/>
       </defs>
       <use xlink:href="#ArialMT-31"/>
       <use x="55.615234" xlink:href="#ArialMT-30"/>
       <use x="111.230469" xlink:href="#ArialMT-30"/>
      </g>
     </g>
    </g>
    <g id="xtick_6">
     <g id="line2d_6">
      <path clip-path="url(#pe900ff31b4)" d="M 370.123976 240.66 
L 370.123976 12.96 
" style="fill:none;stroke:#ffffff;stroke-linecap:round;"/>
     </g>
     <g id="text_6">
      <!-- 125 -->
      <g style="fill:#262626;" transform="translate(360.948429 258.033594)scale(0.11 -0.11)">
       <use xlink:href="#ArialMT-31"/>
       <use x="55.615234" xlink:href="#ArialMT-32"/>
       <use x="111.230469" xlink:href="#ArialMT-35"/>
      </g>
     </g>
    </g>
    <g id="xtick_7">
     <g id="line2d_7">
      <path clip-path="url(#pe900ff31b4)" d="M 431.310147 240.66 
L 431.310147 12.96 
" style="fill:none;stroke:#ffffff;stroke-linecap:round;"/>
     </g>
     <g id="text_7">
      <!-- 150 -->
      <g style="fill:#262626;" transform="translate(422.1346 258.033594)scale(0.11 -0.11)">
       <use xlink:href="#ArialMT-31"/>
       <use x="55.615234" xlink:href="#ArialMT-35"/>
       <use x="111.230469" xlink:href="#ArialMT-30"/>
      </g>
     </g>
    </g>
    <g id="xtick_8">
     <g id="line2d_8">
      <path clip-path="url(#pe900ff31b4)" d="M 492.496319 240.66 
L 492.496319 12.96 
" style="fill:none;stroke:#ffffff;stroke-linecap:round;"/>
     </g>
     <g id="text_8">
      <!-- 175 -->
      <g style="fill:#262626;" transform="translate(483.320772 258.033594)scale(0.11 -0.11)">
       <use xlink:href="#ArialMT-31"/>
       <use x="55.615234" xlink:href="#ArialMT-37"/>
       <use x="111.230469" xlink:href="#ArialMT-35"/>
      </g>
     </g>
    </g>
    <g id="xtick_9">
     <g id="line2d_9">
      <path clip-path="url(#pe900ff31b4)" d="M 553.682491 240.66 
L 553.682491 12.96 
" style="fill:none;stroke:#ffffff;stroke-linecap:round;"/>
     </g>
     <g id="text_9">
      <!-- 200 -->
      <g style="fill:#262626;" transform="translate(544.506944 258.033594)scale(0.11 -0.11)">
       <use xlink:href="#ArialMT-32"/>
       <use x="55.615234" xlink:href="#ArialMT-30"/>
       <use x="111.230469" xlink:href="#ArialMT-30"/>
      </g>
     </g>
    </g>
    <g id="text_10">
     <!-- Number of cycles -->
     <g style="fill:#262626;" transform="translate(251.578981 272.955469)scale(0.12 -0.12)">
      <defs>
       <path d="M 488 0 
L 488 4581 
L 1109 4581 
L 3516 984 
L 3516 4581 
L 4097 4581 
L 4097 0 
L 3475 0 
L 1069 3600 
L 1069 0 
L 488 0 
z
" id="ArialMT-4e" transform="scale(0.015625)"/>
       <path d="M 2597 0 
L 2597 488 
Q 2209 -75 1544 -75 
Q 1250 -75 995 37 
Q 741 150 617 320 
Q 494 491 444 738 
Q 409 903 409 1263 
L 409 3319 
L 972 3319 
L 972 1478 
Q 972 1038 1006 884 
Q 1059 663 1231 536 
Q 1403 409 1656 409 
Q 1909 409 2131 539 
Q 2353 669 2445 892 
Q 2538 1116 2538 1541 
L 2538 3319 
L 3100 3319 
L 3100 0 
L 2597 0 
z
" id="ArialMT-75" transform="scale(0.015625)"/>
       <path d="M 422 0 
L 422 3319 
L 925 3319 
L 925 2853 
Q 1081 3097 1340 3245 
Q 1600 3394 1931 3394 
Q 2300 3394 2536 3241 
Q 2772 3088 2869 2813 
Q 3263 3394 3894 3394 
Q 4388 3394 4653 3120 
Q 4919 2847 4919 2278 
L 4919 0 
L 4359 0 
L 4359 2091 
Q 4359 2428 4304 2576 
Q 4250 2725 4106 2815 
Q 3963 2906 3769 2906 
Q 3419 2906 3187 2673 
Q 2956 2441 2956 1928 
L 2956 0 
L 2394 0 
L 2394 2156 
Q 2394 2531 2256 2718 
Q 2119 2906 1806 2906 
Q 1569 2906 1367 2781 
Q 1166 2656 1075 2415 
Q 984 2175 984 1722 
L 984 0 
L 422 0 
z
" id="ArialMT-6d" transform="scale(0.015625)"/>
       <path d="M 941 0 
L 419 0 
L 419 4581 
L 981 4581 
L 981 2947 
Q 1338 3394 1891 3394 
Q 2197 3394 2470 3270 
Q 2744 3147 2920 2923 
Q 3097 2700 3197 2384 
Q 3297 2069 3297 1709 
Q 3297 856 2875 390 
Q 2453 -75 1863 -75 
Q 1275 -75 941 416 
L 941 0 
z
M 934 1684 
Q 934 1088 1097 822 
Q 1363 388 1816 388 
Q 2184 388 2453 708 
Q 2722 1028 2722 1663 
Q 2722 2313 2464 2622 
Q 2206 2931 1841 2931 
Q 1472 2931 1203 2611 
Q 934 2291 934 1684 
z
" id="ArialMT-62" transform="scale(0.015625)"/>
       <path d="M 2694 1069 
L 3275 997 
Q 3138 488 2766 206 
Q 2394 -75 1816 -75 
Q 1088 -75 661 373 
Q 234 822 234 1631 
Q 234 2469 665 2931 
Q 1097 3394 1784 3394 
Q 2450 3394 2872 2941 
Q 3294 2488 3294 1666 
Q 3294 1616 3291 1516 
L 816 1516 
Q 847 969 1125 678 
Q 1403 388 1819 388 
Q 2128 388 2347 550 
Q 2566 713 2694 1069 
z
M 847 1978 
L 2700 1978 
Q 2663 2397 2488 2606 
Q 2219 2931 1791 2931 
Q 1403 2931 1139 2672 
Q 875 2413 847 1978 
z
" id="ArialMT-65" transform="scale(0.015625)"/>
       <path d="M 416 0 
L 416 3319 
L 922 3319 
L 922 2816 
Q 1116 3169 1280 3281 
Q 1444 3394 1641 3394 
Q 1925 3394 2219 3213 
L 2025 2691 
Q 1819 2813 1613 2813 
Q 1428 2813 1281 2702 
Q 1134 2591 1072 2394 
Q 978 2094 978 1738 
L 978 0 
L 416 0 
z
" id="ArialMT-72" transform="scale(0.015625)"/>
       <path id="ArialMT-20" transform="scale(0.015625)"/>
       <path d="M 213 1659 
Q 213 2581 725 3025 
Q 1153 3394 1769 3394 
Q 2453 3394 2887 2945 
Q 3322 2497 3322 1706 
Q 3322 1066 3130 698 
Q 2938 331 2570 128 
Q 2203 -75 1769 -75 
Q 1072 -75 642 372 
Q 213 819 213 1659 
z
M 791 1659 
Q 791 1022 1069 705 
Q 1347 388 1769 388 
Q 2188 388 2466 706 
Q 2744 1025 2744 1678 
Q 2744 2294 2464 2611 
Q 2184 2928 1769 2928 
Q 1347 2928 1069 2612 
Q 791 2297 791 1659 
z
" id="ArialMT-6f" transform="scale(0.015625)"/>
       <path d="M 556 0 
L 556 2881 
L 59 2881 
L 59 3319 
L 556 3319 
L 556 3672 
Q 556 4006 616 4169 
Q 697 4388 901 4523 
Q 1106 4659 1475 4659 
Q 1713 4659 2000 4603 
L 1916 4113 
Q 1741 4144 1584 4144 
Q 1328 4144 1222 4034 
Q 1116 3925 1116 3625 
L 1116 3319 
L 1763 3319 
L 1763 2881 
L 1116 2881 
L 1116 0 
L 556 0 
z
" id="ArialMT-66" transform="scale(0.015625)"/>
       <path d="M 2588 1216 
L 3141 1144 
Q 3050 572 2676 248 
Q 2303 -75 1759 -75 
Q 1078 -75 664 370 
Q 250 816 250 1647 
Q 250 2184 428 2587 
Q 606 2991 970 3192 
Q 1334 3394 1763 3394 
Q 2303 3394 2647 3120 
Q 2991 2847 3088 2344 
L 2541 2259 
Q 2463 2594 2264 2762 
Q 2066 2931 1784 2931 
Q 1359 2931 1093 2626 
Q 828 2322 828 1663 
Q 828 994 1084 691 
Q 1341 388 1753 388 
Q 2084 388 2306 591 
Q 2528 794 2588 1216 
z
" id="ArialMT-63" transform="scale(0.015625)"/>
       <path d="M 397 -1278 
L 334 -750 
Q 519 -800 656 -800 
Q 844 -800 956 -737 
Q 1069 -675 1141 -563 
Q 1194 -478 1313 -144 
Q 1328 -97 1363 -6 
L 103 3319 
L 709 3319 
L 1400 1397 
Q 1534 1031 1641 628 
Q 1738 1016 1872 1384 
L 2581 3319 
L 3144 3319 
L 1881 -56 
Q 1678 -603 1566 -809 
Q 1416 -1088 1222 -1217 
Q 1028 -1347 759 -1347 
Q 597 -1347 397 -1278 
z
" id="ArialMT-79" transform="scale(0.015625)"/>
       <path d="M 409 0 
L 409 4581 
L 972 4581 
L 972 0 
L 409 0 
z
" id="ArialMT-6c" transform="scale(0.015625)"/>
       <path d="M 197 991 
L 753 1078 
Q 800 744 1014 566 
Q 1228 388 1613 388 
Q 2000 388 2187 545 
Q 2375 703 2375 916 
Q 2375 1106 2209 1216 
Q 2094 1291 1634 1406 
Q 1016 1563 777 1677 
Q 538 1791 414 1992 
Q 291 2194 291 2438 
Q 291 2659 392 2848 
Q 494 3038 669 3163 
Q 800 3259 1026 3326 
Q 1253 3394 1513 3394 
Q 1903 3394 2198 3281 
Q 2494 3169 2634 2976 
Q 2775 2784 2828 2463 
L 2278 2388 
Q 2241 2644 2061 2787 
Q 1881 2931 1553 2931 
Q 1166 2931 1000 2803 
Q 834 2675 834 2503 
Q 834 2394 903 2306 
Q 972 2216 1119 2156 
Q 1203 2125 1616 2013 
Q 2213 1853 2448 1751 
Q 2684 1650 2818 1456 
Q 2953 1263 2953 975 
Q 2953 694 2789 445 
Q 2625 197 2315 61 
Q 2006 -75 1616 -75 
Q 969 -75 630 194 
Q 291 463 197 991 
z
" id="ArialMT-73" transform="scale(0.015625)"/>
      </defs>
      <use xlink:href="#ArialMT-4e"/>
      <use x="72.216797" xlink:href="#ArialMT-75"/>
      <use x="127.832031" xlink:href="#ArialMT-6d"/>
      <use x="211.132812" xlink:href="#ArialMT-62"/>
      <use x="266.748047" xlink:href="#ArialMT-65"/>
      <use x="322.363281" xlink:href="#ArialMT-72"/>
      <use x="355.664062" xlink:href="#ArialMT-20"/>
      <use x="383.447266" xlink:href="#ArialMT-6f"/>
      <use x="439.0625" xlink:href="#ArialMT-66"/>
      <use x="466.845703" xlink:href="#ArialMT-20"/>
      <use x="494.628906" xlink:href="#ArialMT-63"/>
      <use x="544.628906" xlink:href="#ArialMT-79"/>
      <use x="594.628906" xlink:href="#ArialMT-63"/>
      <use x="644.628906" xlink:href="#ArialMT-6c"/>
      <use x="666.845703" xlink:href="#ArialMT-65"/>
      <use x="722.460938" xlink:href="#ArialMT-73"/>
     </g>
    </g>
   </g>
   <g id="matplotlib.axis_2">
    <g id="ytick_1">
     <g id="line2d_10">
      <path clip-path="url(#pe900ff31b4)" d="M 40.82 230.31 
L 555.028586 230.31 
" style="fill:none;stroke:#ffffff;stroke-linecap:round;"/>
     </g>
     <g id="text_11">
      <!-- 0 -->
      <g style="fill:#262626;" transform="translate(25.202969 234.246797)scale(0.11 -0.11)">
       <use xlink:href="#ArialMT-30"/>
      </g>
     </g>
    </g>
    <g id="ytick_2">
     <g id="line2d_11">
      <path clip-path="url(#pe900ff31b4)" d="M 40.82 183.837229 
L 555.028586 183.837229 
" style="fill:none;stroke:#ffffff;stroke-linecap:round;"/>
     </g>
     <g id="text_12">
      <!-- 50 -->
      <g style="fill:#262626;" transform="translate(19.085938 187.774026)scale(0.11 -0.11)">
       <use xlink:href="#ArialMT-35"/>
       <use x="55.615234" xlink:href="#ArialMT-30"/>
      </g>
     </g>
    </g>
    <g id="ytick_3">
     <g id="line2d_12">
      <path clip-path="url(#pe900ff31b4)" d="M 40.82 137.364459 
L 555.028586 137.364459 
" style="fill:none;stroke:#ffffff;stroke-linecap:round;"/>
     </g>
     <g id="text_13">
      <!-- 100 -->
      <g style="fill:#262626;" transform="translate(12.968906 141.301256)scale(0.11 -0.11)">
       <use xlink:href="#ArialMT-31"/>
       <use x="55.615234" xlink:href="#ArialMT-30"/>
       <use x="111.230469" xlink:href="#ArialMT-30"/>
      </g>
     </g>
    </g>
    <g id="ytick_4">
     <g id="line2d_13">
      <path clip-path="url(#pe900ff31b4)" d="M 40.82 90.891688 
L 555.028586 90.891688 
" style="fill:none;stroke:#ffffff;stroke-linecap:round;"/>
     </g>
     <g id="text_14">
      <!-- 150 -->
      <g style="fill:#262626;" transform="translate(12.968906 94.828485)scale(0.11 -0.11)">
       <use xlink:href="#ArialMT-31"/>
       <use x="55.615234" xlink:href="#ArialMT-35"/>
       <use x="111.230469" xlink:href="#ArialMT-30"/>
      </g>
     </g>
    </g>
    <g id="ytick_5">
     <g id="line2d_14">
      <path clip-path="url(#pe900ff31b4)" d="M 40.82 44.418917 
L 555.028586 44.418917 
" style="fill:none;stroke:#ffffff;stroke-linecap:round;"/>
     </g>
     <g id="text_15">
      <!-- 200 -->
      <g style="fill:#262626;" transform="translate(12.968906 48.355714)scale(0.11 -0.11)">
       <use xlink:href="#ArialMT-32"/>
       <use x="55.615234" xlink:href="#ArialMT-30"/>
       <use x="111.230469" xlink:href="#ArialMT-30"/>
      </g>
     </g>
    </g>
   </g>
   <g id="line2d_15">
    <path clip-path="url(#pe900ff31b4)" d="M 64.193118 227.263216 
L 66.640564 226.968893 
L 69.088011 225.516287 
L 71.535458 227.588979 
L 73.982905 227.703049 
L 76.430352 227.1826 
L 78.877799 228.009486 
L 81.325246 229.598865 
L 83.772692 226.168487 
L 86.220139 228.345597 
L 88.667586 227.160361 
L 91.115033 226.887276 
L 93.56248 228.68068 
L 96.009927 227.932686 
L 98.457374 227.981944 
L 100.904821 227.729625 
L 103.352267 227.113152 
L 108.247161 226.754388 
L 110.694608 225.545466 
L 113.142055 227.119125 
L 115.589502 227.245788 
L 118.036949 227.022233 
L 120.484395 229.330707 
L 122.931842 227.915958 
L 125.379289 229.573887 
L 127.826736 227.383105 
L 130.274183 228.611209 
L 132.72163 227.588362 
L 135.169077 228.312601 
L 137.616524 226.873873 
L 140.06397 228.051857 
L 142.511417 227.760814 
L 144.958864 226.72964 
L 147.406311 228.022888 
L 149.853758 227.959551 
L 152.301205 227.656073 
L 154.748652 227.640495 
L 157.196098 226.944829 
L 159.643545 227.08116 
L 162.090992 227.930567 
L 164.538439 228.222105 
L 166.985886 227.462405 
L 169.433333 226.895133 
L 171.88078 226.572412 
L 174.328226 227.815909 
L 176.775673 227.118505 
L 179.22312 228.724632 
L 181.670567 226.76529 
L 184.118014 227.85049 
L 186.565461 226.673258 
L 189.012908 227.575963 
L 191.460355 226.538513 
L 193.907801 228.522113 
L 196.355248 228.568183 
L 198.802695 226.894373 
L 201.250142 227.176849 
L 203.697589 227.313785 
L 206.145036 225.924161 
L 208.592483 228.401082 
L 211.039929 227.119422 
L 213.487376 228.552049 
L 215.934823 227.992899 
L 218.38227 227.294193 
L 220.829717 227.969232 
L 223.277164 226.495865 
L 225.724611 227.370519 
L 228.172058 226.966839 
L 230.619504 228.14185 
L 233.066951 228.343582 
L 235.514398 226.82631 
L 237.961845 227.90885 
L 240.409292 223.609492 
L 242.856739 229.375956 
L 245.304186 225.556896 
L 247.751632 227.612601 
L 250.199079 227.846107 
L 252.646526 226.765934 
L 255.093973 224.033673 
L 257.54142 225.21773 
L 259.988867 223.585259 
L 262.436314 223.695984 
L 264.883761 222.920488 
L 267.331207 223.974644 
L 269.778654 224.237772 
L 272.226101 220.108817 
L 274.673548 222.611072 
L 277.120995 221.840028 
L 279.568442 223.411268 
L 282.015889 224.132195 
L 284.463335 221.199501 
L 286.910782 223.283748 
L 289.358229 224.077476 
L 291.805676 226.269076 
L 294.253123 225.373209 
L 296.70057 225.785911 
L 299.148017 224.956716 
L 301.595463 224.834766 
L 304.04291 226.774742 
L 306.490357 223.828467 
L 308.937804 219.424169 
L 311.385251 27.07234 
L 313.832698 143.850699 
L 316.280145 184.625045 
L 318.727592 180.592517 
L 321.175038 196.899484 
L 323.622485 203.171096 
L 326.069932 193.522341 
L 328.517379 176.665974 
L 330.964826 172.186598 
L 333.412273 178.337752 
L 335.85972 183.493715 
L 338.307166 183.477125 
L 340.754613 180.313316 
L 343.20206 181.432365 
L 345.649507 180.439989 
L 348.096954 180.87064 
L 350.544401 180.461032 
L 352.991848 180.881284 
L 355.439295 181.933928 
L 357.886741 181.272817 
L 360.334188 180.05268 
L 362.781635 179.195104 
L 365.229082 181.033521 
L 367.676529 180.708497 
L 370.123976 181.586052 
L 372.571423 181.132582 
L 375.018869 181.029114 
L 377.466316 181.351132 
L 379.913763 180.783366 
L 382.36121 180.926374 
L 384.808657 180.456455 
L 387.256104 181.589509 
L 389.703551 181.698862 
L 392.150998 182.257406 
L 394.598444 183.367346 
L 397.045891 183.18722 
L 399.493338 181.053565 
L 401.940785 181.294888 
L 404.388232 180.847009 
L 406.835679 181.868944 
L 411.730572 180.966272 
L 414.178019 181.238999 
L 416.625466 181.368452 
L 419.072913 180.359331 
L 423.967807 181.447107 
L 426.415254 181.027263 
L 428.8627 181.174576 
L 431.310147 181.541658 
L 433.757594 180.123783 
L 436.205041 179.900095 
L 438.652488 181.613236 
L 441.099935 181.317179 
L 443.547382 180.595049 
L 448.442275 180.849041 
L 450.889722 182.567667 
L 453.337169 181.277738 
L 455.784616 181.585361 
L 458.232063 181.081007 
L 460.67951 183.266956 
L 463.126957 181.511038 
L 465.574403 180.320489 
L 468.02185 180.650495 
L 470.469297 179.639349 
L 472.916744 182.108857 
L 475.364191 181.952021 
L 477.811638 180.376027 
L 480.259085 181.338775 
L 482.706532 179.369143 
L 485.153978 182.299783 
L 487.601425 181.068523 
L 490.048872 181.482099 
L 492.496319 181.709485 
L 494.943766 183.390761 
L 497.391213 180.642411 
L 499.83866 182.05107 
L 502.286106 182.491826 
L 504.733553 181.119693 
L 507.181 182.597655 
L 509.628447 181.151667 
L 514.523341 182.051187 
L 516.970788 181.979772 
L 519.418234 182.046252 
L 521.865681 183.236606 
L 524.313128 181.002926 
L 526.760575 180.17323 
L 529.208022 180.49434 
L 531.655469 182.047167 
L 531.655469 182.047167 
" style="fill:none;stroke:#4c72b0;stroke-linecap:round;stroke-width:1.5;"/>
   </g>
   <g id="line2d_16">
    <path clip-path="url(#pe900ff31b4)" d="M 64.193118 225.222331 
L 66.640564 224.135997 
L 69.088011 223.361249 
L 71.535458 224.867047 
L 73.982905 225.762503 
L 76.430352 225.243575 
L 78.877799 225.178528 
L 81.325246 225.553945 
L 83.772692 225.434961 
L 86.220139 224.536619 
L 88.667586 224.99231 
L 91.115033 224.317906 
L 93.56248 226.067141 
L 96.009927 225.462955 
L 98.457374 225.919442 
L 100.904821 225.804886 
L 103.352267 224.935192 
L 105.799714 224.917934 
L 108.247161 224.305664 
L 110.694608 223.434635 
L 113.142055 224.359354 
L 115.589502 225.085656 
L 118.036949 223.909222 
L 120.484395 225.459097 
L 122.931842 225.363701 
L 125.379289 226.74294 
L 127.826736 225.484203 
L 130.274183 225.637756 
L 132.72163 224.920781 
L 135.169077 224.605972 
L 137.616524 224.419141 
L 140.06397 225.301522 
L 144.958864 223.783095 
L 147.406311 225.232214 
L 149.853758 225.049085 
L 152.301205 226.136483 
L 154.748652 224.88822 
L 157.196098 225.134937 
L 159.643545 225.232884 
L 162.090992 226.583806 
L 164.538439 224.930086 
L 169.433333 225.924024 
L 171.88078 224.3481 
L 174.328226 225.635388 
L 176.775673 225.514201 
L 179.22312 226.162299 
L 181.670567 224.549132 
L 184.118014 225.66116 
L 186.565461 224.659177 
L 189.012908 226.123646 
L 191.460355 224.66354 
L 193.907801 225.412406 
L 196.355248 225.56966 
L 198.802695 224.305128 
L 201.250142 224.898586 
L 203.697589 224.46616 
L 206.145036 224.543524 
L 208.592483 225.760217 
L 211.039929 224.516337 
L 213.487376 225.933423 
L 215.934823 225.347419 
L 218.38227 224.381095 
L 220.829717 225.133977 
L 223.277164 225.674533 
L 228.172058 225.002048 
L 230.619504 225.569075 
L 233.066951 224.902801 
L 235.514398 225.158323 
L 237.961845 224.513211 
L 240.409292 219.574847 
L 242.856739 225.605693 
L 245.304186 223.29386 
L 250.199079 223.222143 
L 252.646526 224.27774 
L 255.093973 218.933732 
L 257.54142 221.600181 
L 259.988867 222.320597 
L 262.436314 220.84539 
L 264.883761 218.921215 
L 267.331207 220.644105 
L 269.778654 220.827515 
L 272.226101 216.109223 
L 274.673548 219.534391 
L 277.120995 216.643783 
L 279.568442 219.500942 
L 282.015889 220.781924 
L 284.463335 216.692804 
L 286.910782 218.957762 
L 289.358229 218.212137 
L 291.805676 222.245137 
L 294.253123 221.506961 
L 296.70057 222.715338 
L 299.148017 221.048671 
L 301.595463 221.906099 
L 304.04291 223.250013 
L 306.490357 221.082167 
L 308.937804 213.175963 
L 311.385251 23.31 
L 313.832698 108.846703 
L 316.280145 168.182055 
L 318.727592 174.008415 
L 321.175038 194.450378 
L 323.622485 201.422481 
L 326.069932 191.686657 
L 328.517379 174.765998 
L 330.964826 169.992682 
L 333.412273 176.545494 
L 335.85972 182.176201 
L 338.307166 181.630032 
L 340.754613 178.323818 
L 343.20206 179.249518 
L 345.649507 178.670154 
L 348.096954 179.524589 
L 350.544401 178.765917 
L 352.991848 179.302206 
L 355.439295 180.346641 
L 357.886741 179.71126 
L 360.334188 178.382848 
L 362.781635 177.381027 
L 365.229082 178.893803 
L 367.676529 178.869558 
L 370.123976 179.360173 
L 375.018869 179.115396 
L 377.466316 179.437381 
L 379.913763 179.032656 
L 382.36121 179.452549 
L 384.808657 178.841428 
L 389.703551 180.064678 
L 392.150998 180.403285 
L 394.598444 181.603103 
L 397.045891 181.380624 
L 399.493338 179.169328 
L 401.940785 179.614537 
L 404.388232 179.322986 
L 406.835679 180.291528 
L 409.283126 179.455538 
L 411.730572 179.316799 
L 414.178019 179.624018 
L 416.625466 179.468005 
L 419.072913 178.352299 
L 421.52036 178.747884 
L 423.967807 179.753836 
L 426.415254 179.137478 
L 428.8627 179.228968 
L 431.310147 179.847549 
L 433.757594 178.527951 
L 436.205041 178.151491 
L 438.652488 179.554836 
L 441.099935 179.568394 
L 443.547382 179.011084 
L 445.994829 178.891101 
L 448.442275 178.977369 
L 450.889722 180.603044 
L 453.337169 179.247898 
L 455.784616 179.467157 
L 458.232063 178.957929 
L 460.67951 181.310701 
L 463.126957 179.624216 
L 465.574403 178.700788 
L 468.02185 178.841059 
L 470.469297 177.95341 
L 472.916744 180.234668 
L 475.364191 179.983097 
L 477.811638 178.52319 
L 480.259085 179.784317 
L 482.706532 177.388664 
L 485.153978 180.410791 
L 487.601425 179.299518 
L 490.048872 179.42672 
L 492.496319 179.702904 
L 494.943766 181.609173 
L 497.391213 178.593637 
L 499.83866 180.252389 
L 502.286106 180.687624 
L 504.733553 179.390232 
L 507.181 180.820112 
L 509.628447 179.257786 
L 512.075894 179.632509 
L 514.523341 180.214873 
L 516.970788 180.08014 
L 519.418234 180.234356 
L 521.865681 181.346242 
L 524.313128 179.481357 
L 526.760575 178.26712 
L 529.208022 178.84086 
L 531.655469 180.007661 
L 531.655469 180.007661 
" style="fill:none;stroke:#dd8452;stroke-linecap:round;stroke-width:1.5;"/>
   </g>
   <g id="line2d_17">
    <path clip-path="url(#pe900ff31b4)" d="M 64.193118 226.235508 
L 66.640564 225.118149 
L 69.088011 225.279546 
L 71.535458 225.596001 
L 73.982905 226.583939 
L 76.430352 226.32402 
L 78.877799 225.723101 
L 81.325246 225.60741 
L 83.772692 227.738255 
L 86.220139 224.881091 
L 88.667586 226.025423 
L 91.115033 225.391651 
L 93.56248 226.392454 
L 96.009927 226.085995 
L 98.457374 226.58748 
L 100.904821 226.617071 
L 103.352267 225.989268 
L 105.799714 226.103563 
L 108.247161 225.471646 
L 113.142055 225.287201 
L 115.589502 226.078643 
L 118.036949 224.818138 
L 120.484395 225.558975 
L 122.931842 225.98167 
L 125.379289 226.81972 
L 127.826736 226.473127 
L 130.274183 225.957533 
L 132.72163 225.658509 
L 135.169077 224.967124 
L 137.616524 225.525102 
L 140.06397 225.839469 
L 142.511417 225.108196 
L 144.958864 224.852757 
L 147.406311 225.776455 
L 149.853758 225.603344 
L 152.301205 227.088989 
L 154.748652 225.590949 
L 157.196098 226.378474 
L 159.643545 226.391875 
L 162.090992 227.442455 
L 164.538439 225.351757 
L 166.985886 226.36274 
L 169.433333 227.557643 
L 171.88078 225.665144 
L 174.328226 226.35633 
L 176.775673 226.730328 
L 179.22312 226.477242 
L 181.670567 225.768786 
L 184.118014 226.365064 
L 186.565461 225.984968 
L 189.012908 227.139732 
L 191.460355 226.107811 
L 193.907801 225.750408 
L 196.355248 225.901271 
L 198.802695 225.371176 
L 201.250142 225.897884 
L 203.697589 225.292713 
L 206.145036 226.566117 
L 208.592483 226.180042 
L 211.039929 225.474015 
L 213.487376 226.302003 
L 215.934823 225.921577 
L 218.38227 225.205412 
L 220.829717 225.693506 
L 223.277164 227.675627 
L 225.724611 226.354402 
L 230.619504 226.0939 
L 233.066951 225.273036 
L 235.514398 226.514782 
L 237.961845 225.033899 
L 240.409292 221.922706 
L 242.856739 225.699353 
L 245.304186 225.149164 
L 247.751632 223.818452 
L 250.199079 223.664178 
L 252.646526 225.428632 
L 255.093973 220.821733 
L 257.54142 223.243903 
L 259.988867 225.996254 
L 262.436314 223.539946 
L 264.883761 221.644001 
L 267.331207 223.009808 
L 269.778654 223.026761 
L 272.226101 220.430833 
L 274.673548 222.770753 
L 277.120995 219.585026 
L 279.568442 221.988749 
L 282.015889 223.056107 
L 284.463335 220.189386 
L 286.910782 221.393438 
L 289.358229 219.941107 
L 291.805676 223.330534 
L 294.253123 223.021544 
L 296.70057 224.209876 
L 299.148017 222.752582 
L 301.595463 223.934472 
L 304.04291 224.198915 
L 306.490357 223.741695 
L 308.937804 217.078452 
L 311.385251 191.023196 
L 313.832698 144.998095 
L 316.280145 188.205766 
L 318.727592 203.889546 
L 321.175038 217.285028 
L 323.622485 220.412089 
L 326.069932 218.544339 
L 328.517379 215.906714 
L 330.964826 214.190164 
L 333.412273 216.543836 
L 335.85972 219.125274 
L 338.307166 217.027638 
L 340.754613 216.065886 
L 343.20206 215.540108 
L 345.649507 216.90643 
L 348.096954 218.695021 
L 350.544401 217.19997 
L 352.991848 217.716464 
L 357.886741 217.836538 
L 362.781635 216.571602 
L 365.229082 215.631654 
L 367.676529 216.678785 
L 370.123976 215.41497 
L 372.571423 216.467184 
L 377.466316 216.487829 
L 379.913763 217.025478 
L 382.36121 218.155264 
L 384.808657 217.517889 
L 387.256104 215.607154 
L 389.703551 217.599788 
L 392.150998 216.833045 
L 394.598444 217.319654 
L 397.045891 217.137017 
L 399.493338 216.556021 
L 401.940785 217.365936 
L 404.388232 217.937119 
L 406.835679 217.847592 
L 409.283126 216.386077 
L 411.730572 217.445204 
L 414.178019 217.617257 
L 416.625466 216.539255 
L 419.072913 216.008485 
L 421.52036 215.638129 
L 423.967807 217.335274 
L 426.415254 216.531792 
L 428.8627 216.346409 
L 431.310147 217.344373 
L 433.757594 217.553667 
L 436.205041 216.917781 
L 438.652488 216.002247 
L 441.099935 217.103406 
L 443.547382 217.660801 
L 445.994829 216.83688 
L 448.442275 216.574919 
L 450.889722 216.473409 
L 453.337169 216.056035 
L 455.784616 215.787462 
L 458.232063 215.69694 
L 460.67951 216.602941 
L 463.126957 216.609266 
L 465.574403 217.48193 
L 468.02185 216.782786 
L 470.469297 217.130559 
L 475.364191 216.370741 
L 477.811638 216.581485 
L 480.259085 217.873615 
L 482.706532 215.967862 
L 485.153978 216.710371 
L 487.601425 216.99286 
L 490.048872 215.994128 
L 492.496319 216.200845 
L 494.943766 217.257966 
L 497.391213 215.897755 
L 499.83866 217.011879 
L 507.181 217.165379 
L 509.628447 216.533681 
L 512.075894 216.418029 
L 514.523341 216.870924 
L 516.970788 216.62688 
L 519.418234 216.961563 
L 521.865681 216.836128 
L 524.313128 217.96644 
L 526.760575 216.354152 
L 529.208022 217.368893 
L 531.655469 216.131698 
L 531.655469 216.131698 
" style="fill:none;stroke:#55a868;stroke-linecap:round;stroke-width:1.5;"/>
   </g>
   <g id="line2d_18">
    <path clip-path="url(#pe900ff31b4)" d="M 64.193118 230.31 
L 279.568442 230.307433 
L 531.655469 230.31 
L 531.655469 230.31 
" style="fill:none;stroke:#c44e52;stroke-linecap:round;stroke-width:1.5;"/>
   </g>
   <g id="patch_3">
    <path d="M 40.82 240.66 
L 40.82 12.96 
" style="fill:none;stroke:#ffffff;stroke-linecap:square;stroke-linejoin:miter;stroke-width:1.25;"/>
   </g>
   <g id="patch_4">
    <path d="M 555.028586 240.66 
L 555.028586 12.96 
" style="fill:none;stroke:#ffffff;stroke-linecap:square;stroke-linejoin:miter;stroke-width:1.25;"/>
   </g>
   <g id="patch_5">
    <path d="M 40.82 240.66 
L 555.028586 240.66 
" style="fill:none;stroke:#ffffff;stroke-linecap:square;stroke-linejoin:miter;stroke-width:1.25;"/>
   </g>
   <g id="patch_6">
    <path d="M 40.82 12.96 
L 555.028586 12.96 
" style="fill:none;stroke:#ffffff;stroke-linecap:square;stroke-linejoin:miter;stroke-width:1.25;"/>
   </g>
   <g id="legend_1">
    <g id="patch_7">
     <path d="M 420.436711 84.133438 
L 547.328586 84.133438 
Q 549.528586 84.133438 549.528586 81.933438 
L 549.528586 20.66 
Q 549.528586 18.46 547.328586 18.46 
L 420.436711 18.46 
Q 418.236711 18.46 418.236711 20.66 
L 418.236711 81.933438 
Q 418.236711 84.133438 420.436711 84.133438 
z
" style="fill:#eaeaf2;opacity:0.8;stroke:#cccccc;stroke-linejoin:miter;"/>
    </g>
    <g id="line2d_19">
     <path d="M 422.636711 26.883594 
L 444.636711 26.883594 
" style="fill:none;stroke:#4c72b0;stroke-linecap:round;stroke-width:1.5;"/>
    </g>
    <g id="line2d_20"/>
    <g id="text_16">
     <!-- Active Power P -->
     <g style="fill:#262626;" transform="translate(453.436711 30.733594)scale(0.11 -0.11)">
      <defs>
       <path d="M -9 0 
L 1750 4581 
L 2403 4581 
L 4278 0 
L 3588 0 
L 3053 1388 
L 1138 1388 
L 634 0 
L -9 0 
z
M 1313 1881 
L 2866 1881 
L 2388 3150 
Q 2169 3728 2063 4100 
Q 1975 3659 1816 3225 
L 1313 1881 
z
" id="ArialMT-41" transform="scale(0.015625)"/>
       <path d="M 1650 503 
L 1731 6 
Q 1494 -44 1306 -44 
Q 1000 -44 831 53 
Q 663 150 594 308 
Q 525 466 525 972 
L 525 2881 
L 113 2881 
L 113 3319 
L 525 3319 
L 525 4141 
L 1084 4478 
L 1084 3319 
L 1650 3319 
L 1650 2881 
L 1084 2881 
L 1084 941 
Q 1084 700 1114 631 
Q 1144 563 1211 522 
Q 1278 481 1403 481 
Q 1497 481 1650 503 
z
" id="ArialMT-74" transform="scale(0.015625)"/>
       <path d="M 425 3934 
L 425 4581 
L 988 4581 
L 988 3934 
L 425 3934 
z
M 425 0 
L 425 3319 
L 988 3319 
L 988 0 
L 425 0 
z
" id="ArialMT-69" transform="scale(0.015625)"/>
       <path d="M 1344 0 
L 81 3319 
L 675 3319 
L 1388 1331 
Q 1503 1009 1600 663 
Q 1675 925 1809 1294 
L 2547 3319 
L 3125 3319 
L 1869 0 
L 1344 0 
z
" id="ArialMT-76" transform="scale(0.015625)"/>
       <path d="M 494 0 
L 494 4581 
L 2222 4581 
Q 2678 4581 2919 4538 
Q 3256 4481 3484 4323 
Q 3713 4166 3852 3881 
Q 3991 3597 3991 3256 
Q 3991 2672 3619 2267 
Q 3247 1863 2275 1863 
L 1100 1863 
L 1100 0 
L 494 0 
z
M 1100 2403 
L 2284 2403 
Q 2872 2403 3119 2622 
Q 3366 2841 3366 3238 
Q 3366 3525 3220 3729 
Q 3075 3934 2838 4000 
Q 2684 4041 2272 4041 
L 1100 4041 
L 1100 2403 
z
" id="ArialMT-50" transform="scale(0.015625)"/>
       <path d="M 1034 0 
L 19 3319 
L 600 3319 
L 1128 1403 
L 1325 691 
Q 1338 744 1497 1375 
L 2025 3319 
L 2603 3319 
L 3100 1394 
L 3266 759 
L 3456 1400 
L 4025 3319 
L 4572 3319 
L 3534 0 
L 2950 0 
L 2422 1988 
L 2294 2553 
L 1622 0 
L 1034 0 
z
" id="ArialMT-77" transform="scale(0.015625)"/>
      </defs>
      <use xlink:href="#ArialMT-41"/>
      <use x="66.699219" xlink:href="#ArialMT-63"/>
      <use x="116.699219" xlink:href="#ArialMT-74"/>
      <use x="144.482422" xlink:href="#ArialMT-69"/>
      <use x="166.699219" xlink:href="#ArialMT-76"/>
      <use x="216.699219" xlink:href="#ArialMT-65"/>
      <use x="272.314453" xlink:href="#ArialMT-20"/>
      <use x="300.097656" xlink:href="#ArialMT-50"/>
      <use x="366.796875" xlink:href="#ArialMT-6f"/>
      <use x="422.412109" xlink:href="#ArialMT-77"/>
      <use x="494.628906" xlink:href="#ArialMT-65"/>
      <use x="550.244141" xlink:href="#ArialMT-72"/>
      <use x="583.544922" xlink:href="#ArialMT-20"/>
      <use x="611.328125" xlink:href="#ArialMT-50"/>
     </g>
    </g>
    <g id="line2d_21">
     <path d="M 422.636711 42.5775 
L 444.636711 42.5775 
" style="fill:none;stroke:#dd8452;stroke-linecap:round;stroke-width:1.5;"/>
    </g>
    <g id="line2d_22"/>
    <g id="text_17">
     <!-- Apparent Power S -->
     <g style="fill:#262626;" transform="translate(453.436711 46.4275)scale(0.11 -0.11)">
      <defs>
       <path d="M 422 -1272 
L 422 3319 
L 934 3319 
L 934 2888 
Q 1116 3141 1344 3267 
Q 1572 3394 1897 3394 
Q 2322 3394 2647 3175 
Q 2972 2956 3137 2557 
Q 3303 2159 3303 1684 
Q 3303 1175 3120 767 
Q 2938 359 2589 142 
Q 2241 -75 1856 -75 
Q 1575 -75 1351 44 
Q 1128 163 984 344 
L 984 -1272 
L 422 -1272 
z
M 931 1641 
Q 931 1000 1190 694 
Q 1450 388 1819 388 
Q 2194 388 2461 705 
Q 2728 1022 2728 1688 
Q 2728 2322 2467 2637 
Q 2206 2953 1844 2953 
Q 1484 2953 1207 2617 
Q 931 2281 931 1641 
z
" id="ArialMT-70" transform="scale(0.015625)"/>
       <path d="M 2588 409 
Q 2275 144 1986 34 
Q 1697 -75 1366 -75 
Q 819 -75 525 192 
Q 231 459 231 875 
Q 231 1119 342 1320 
Q 453 1522 633 1644 
Q 813 1766 1038 1828 
Q 1203 1872 1538 1913 
Q 2219 1994 2541 2106 
Q 2544 2222 2544 2253 
Q 2544 2597 2384 2738 
Q 2169 2928 1744 2928 
Q 1347 2928 1158 2789 
Q 969 2650 878 2297 
L 328 2372 
Q 403 2725 575 2942 
Q 747 3159 1072 3276 
Q 1397 3394 1825 3394 
Q 2250 3394 2515 3294 
Q 2781 3194 2906 3042 
Q 3031 2891 3081 2659 
Q 3109 2516 3109 2141 
L 3109 1391 
Q 3109 606 3145 398 
Q 3181 191 3288 0 
L 2700 0 
Q 2613 175 2588 409 
z
M 2541 1666 
Q 2234 1541 1622 1453 
Q 1275 1403 1131 1340 
Q 988 1278 909 1158 
Q 831 1038 831 891 
Q 831 666 1001 516 
Q 1172 366 1500 366 
Q 1825 366 2078 508 
Q 2331 650 2450 897 
Q 2541 1088 2541 1459 
L 2541 1666 
z
" id="ArialMT-61" transform="scale(0.015625)"/>
       <path d="M 422 0 
L 422 3319 
L 928 3319 
L 928 2847 
Q 1294 3394 1984 3394 
Q 2284 3394 2536 3286 
Q 2788 3178 2913 3003 
Q 3038 2828 3088 2588 
Q 3119 2431 3119 2041 
L 3119 0 
L 2556 0 
L 2556 2019 
Q 2556 2363 2490 2533 
Q 2425 2703 2258 2804 
Q 2091 2906 1866 2906 
Q 1506 2906 1245 2678 
Q 984 2450 984 1813 
L 984 0 
L 422 0 
z
" id="ArialMT-6e" transform="scale(0.015625)"/>
       <path d="M 288 1472 
L 859 1522 
Q 900 1178 1048 958 
Q 1197 738 1509 602 
Q 1822 466 2213 466 
Q 2559 466 2825 569 
Q 3091 672 3220 851 
Q 3350 1031 3350 1244 
Q 3350 1459 3225 1620 
Q 3100 1781 2813 1891 
Q 2628 1963 1997 2114 
Q 1366 2266 1113 2400 
Q 784 2572 623 2826 
Q 463 3081 463 3397 
Q 463 3744 659 4045 
Q 856 4347 1234 4503 
Q 1613 4659 2075 4659 
Q 2584 4659 2973 4495 
Q 3363 4331 3572 4012 
Q 3781 3694 3797 3291 
L 3216 3247 
Q 3169 3681 2898 3903 
Q 2628 4125 2100 4125 
Q 1550 4125 1298 3923 
Q 1047 3722 1047 3438 
Q 1047 3191 1225 3031 
Q 1400 2872 2139 2705 
Q 2878 2538 3153 2413 
Q 3553 2228 3743 1945 
Q 3934 1663 3934 1294 
Q 3934 928 3725 604 
Q 3516 281 3123 101 
Q 2731 -78 2241 -78 
Q 1619 -78 1198 103 
Q 778 284 539 648 
Q 300 1013 288 1472 
z
" id="ArialMT-53" transform="scale(0.015625)"/>
      </defs>
      <use xlink:href="#ArialMT-41"/>
      <use x="66.699219" xlink:href="#ArialMT-70"/>
      <use x="122.314453" xlink:href="#ArialMT-70"/>
      <use x="177.929688" xlink:href="#ArialMT-61"/>
      <use x="233.544922" xlink:href="#ArialMT-72"/>
      <use x="266.845703" xlink:href="#ArialMT-65"/>
      <use x="322.460938" xlink:href="#ArialMT-6e"/>
      <use x="378.076172" xlink:href="#ArialMT-74"/>
      <use x="405.859375" xlink:href="#ArialMT-20"/>
      <use x="433.642578" xlink:href="#ArialMT-50"/>
      <use x="500.341797" xlink:href="#ArialMT-6f"/>
      <use x="555.957031" xlink:href="#ArialMT-77"/>
      <use x="628.173828" xlink:href="#ArialMT-65"/>
      <use x="683.789062" xlink:href="#ArialMT-72"/>
      <use x="717.089844" xlink:href="#ArialMT-20"/>
      <use x="744.873047" xlink:href="#ArialMT-53"/>
     </g>
    </g>
    <g id="line2d_23">
     <path d="M 422.636711 58.137344 
L 444.636711 58.137344 
" style="fill:none;stroke:#55a868;stroke-linecap:round;stroke-width:1.5;"/>
    </g>
    <g id="line2d_24"/>
    <g id="text_18">
     <!-- Reactive Power Q -->
     <g style="fill:#262626;" transform="translate(453.436711 61.987344)scale(0.11 -0.11)">
      <defs>
       <path d="M 503 0 
L 503 4581 
L 2534 4581 
Q 3147 4581 3465 4457 
Q 3784 4334 3975 4021 
Q 4166 3709 4166 3331 
Q 4166 2844 3850 2509 
Q 3534 2175 2875 2084 
Q 3116 1969 3241 1856 
Q 3506 1613 3744 1247 
L 4541 0 
L 3778 0 
L 3172 953 
Q 2906 1366 2734 1584 
Q 2563 1803 2427 1890 
Q 2291 1978 2150 2013 
Q 2047 2034 1813 2034 
L 1109 2034 
L 1109 0 
L 503 0 
z
M 1109 2559 
L 2413 2559 
Q 2828 2559 3062 2645 
Q 3297 2731 3419 2920 
Q 3541 3109 3541 3331 
Q 3541 3656 3305 3865 
Q 3069 4075 2559 4075 
L 1109 4075 
L 1109 2559 
z
" id="ArialMT-52" transform="scale(0.015625)"/>
       <path d="M 3966 491 
Q 4388 200 4744 66 
L 4566 -356 
Q 4072 -178 3581 206 
Q 3072 -78 2456 -78 
Q 1834 -78 1328 222 
Q 822 522 548 1065 
Q 275 1609 275 2291 
Q 275 2969 550 3525 
Q 825 4081 1333 4372 
Q 1841 4663 2469 4663 
Q 3103 4663 3612 4361 
Q 4122 4059 4389 3517 
Q 4656 2975 4656 2294 
Q 4656 1728 4484 1276 
Q 4313 825 3966 491 
z
M 2631 1266 
Q 3156 1119 3497 828 
Q 4031 1316 4031 2294 
Q 4031 2850 3842 3265 
Q 3653 3681 3289 3911 
Q 2925 4141 2472 4141 
Q 1794 4141 1347 3677 
Q 900 3213 900 2291 
Q 900 1397 1342 919 
Q 1784 441 2472 441 
Q 2797 441 3084 563 
Q 2800 747 2484 825 
L 2631 1266 
z
" id="ArialMT-51" transform="scale(0.015625)"/>
      </defs>
      <use xlink:href="#ArialMT-52"/>
      <use x="72.216797" xlink:href="#ArialMT-65"/>
      <use x="127.832031" xlink:href="#ArialMT-61"/>
      <use x="183.447266" xlink:href="#ArialMT-63"/>
      <use x="233.447266" xlink:href="#ArialMT-74"/>
      <use x="261.230469" xlink:href="#ArialMT-69"/>
      <use x="283.447266" xlink:href="#ArialMT-76"/>
      <use x="333.447266" xlink:href="#ArialMT-65"/>
      <use x="389.0625" xlink:href="#ArialMT-20"/>
      <use x="416.845703" xlink:href="#ArialMT-50"/>
      <use x="483.544922" xlink:href="#ArialMT-6f"/>
      <use x="539.160156" xlink:href="#ArialMT-77"/>
      <use x="611.376953" xlink:href="#ArialMT-65"/>
      <use x="666.992188" xlink:href="#ArialMT-72"/>
      <use x="700.292969" xlink:href="#ArialMT-20"/>
      <use x="728.076172" xlink:href="#ArialMT-51"/>
     </g>
    </g>
    <g id="line2d_25">
     <path d="M 422.636711 73.697188 
L 444.636711 73.697188 
" style="fill:none;stroke:#c44e52;stroke-linecap:round;stroke-width:1.5;"/>
    </g>
    <g id="line2d_26"/>
    <g id="text_19">
     <!-- Distortion Power D -->
     <g style="fill:#262626;" transform="translate(453.436711 77.547188)scale(0.11 -0.11)">
      <defs>
       <path d="M 494 0 
L 494 4581 
L 2072 4581 
Q 2606 4581 2888 4516 
Q 3281 4425 3559 4188 
Q 3922 3881 4101 3404 
Q 4281 2928 4281 2316 
Q 4281 1794 4159 1391 
Q 4038 988 3847 723 
Q 3656 459 3429 307 
Q 3203 156 2883 78 
Q 2563 0 2147 0 
L 494 0 
z
M 1100 541 
L 2078 541 
Q 2531 541 2789 625 
Q 3047 709 3200 863 
Q 3416 1078 3536 1442 
Q 3656 1806 3656 2325 
Q 3656 3044 3420 3430 
Q 3184 3816 2847 3947 
Q 2603 4041 2063 4041 
L 1100 4041 
L 1100 541 
z
" id="ArialMT-44" transform="scale(0.015625)"/>
      </defs>
      <use xlink:href="#ArialMT-44"/>
      <use x="72.216797" xlink:href="#ArialMT-69"/>
      <use x="94.433594" xlink:href="#ArialMT-73"/>
      <use x="144.433594" xlink:href="#ArialMT-74"/>
      <use x="172.216797" xlink:href="#ArialMT-6f"/>
      <use x="227.832031" xlink:href="#ArialMT-72"/>
      <use x="261.132812" xlink:href="#ArialMT-74"/>
      <use x="288.916016" xlink:href="#ArialMT-69"/>
      <use x="311.132812" xlink:href="#ArialMT-6f"/>
      <use x="366.748047" xlink:href="#ArialMT-6e"/>
      <use x="422.363281" xlink:href="#ArialMT-20"/>
      <use x="450.146484" xlink:href="#ArialMT-50"/>
      <use x="516.845703" xlink:href="#ArialMT-6f"/>
      <use x="572.460938" xlink:href="#ArialMT-77"/>
      <use x="644.677734" xlink:href="#ArialMT-65"/>
      <use x="700.292969" xlink:href="#ArialMT-72"/>
      <use x="733.59375" xlink:href="#ArialMT-20"/>
      <use x="761.376953" xlink:href="#ArialMT-44"/>
     </g>
    </g>
   </g>
  </g>
 </g>
 <defs>
  <clipPath id="pe900ff31b4">
   <rect height="227.7" width="514.208586" x="40.82" y="12.96"/>
  </clipPath>
 </defs>
</svg>
