<?xml version="1.0" encoding="utf-8" standalone="no"?>
<!DOCTYPE svg PUBLIC "-//W3C//DTD SVG 1.1//EN"
  "http://www.w3.org/Graphics/SVG/1.1/DTD/svg11.dtd">
<svg height="288pt" version="1.1" viewBox="0 0 720 288" width="720pt" xmlns="http://www.w3.org/2000/svg" xmlns:xlink="http://www.w3.org/1999/xlink">
 <metadata>
  <rdf:RDF xmlns:cc="http://creativecommons.org/ns#" xmlns:dc="http://purl.org/dc/elements/1.1/" xmlns:rdf="http://www.w3.org/1999/02/22-rdf-syntax-ns#">
   <cc:Work>
    <dc:type rdf:resource="http://purl.org/dc/dcmitype/StillImage"/>
    <dc:date>2021-10-15T15:08:25.157447</dc:date>
    <dc:format>image/svg+xml</dc:format>
    <dc:creator>
     <cc:Agent>
      <dc:title>Matplotlib v3.4.2, https://matplotlib.org/</dc:title>
     </cc:Agent>
    </dc:creator>
   </cc:Work>
  </rdf:RDF>
 </metadata>
 <defs>
  <style type="text/css">*{stroke-linecap:butt;stroke-linejoin:round;}</style>
 </defs>
 <g id="figure_1">
  <g id="patch_1">
   <path d="M 0 288 
L 720 288 
L 720 0 
L 0 0 
z
" style="fill:#ffffff;"/>
  </g>
  <g id="axes_1">
   <g id="patch_2">
    <path d="M 40.82 240.66 
L 699.320733 240.66 
L 699.320733 12.96 
L 40.82 12.96 
z
" style="fill:#eaeaf2;"/>
   </g>
   <g id="matplotlib.axis_1">
    <g id="xtick_1">
     <g id="line2d_1">
      <path clip-path="url(#pa826e3d1f1)" d="M 70.751851 240.66 
L 70.751851 12.96 
" style="fill:none;stroke:#ffffff;stroke-linecap:round;"/>
     </g>
     <g id="text_1">
      <!-- 0 -->
      <g style="fill:#262626;" transform="translate(67.693336 258.033594)scale(0.11 -0.11)">
       <defs>
        <path d="M 266 2259 
Q 266 3072 433 3567 
Q 600 4063 929 4331 
Q 1259 4600 1759 4600 
Q 2128 4600 2406 4451 
Q 2684 4303 2865 4023 
Q 3047 3744 3150 3342 
Q 3253 2941 3253 2259 
Q 3253 1453 3087 958 
Q 2922 463 2592 192 
Q 2263 -78 1759 -78 
Q 1097 -78 719 397 
Q 266 969 266 2259 
z
M 844 2259 
Q 844 1131 1108 757 
Q 1372 384 1759 384 
Q 2147 384 2411 759 
Q 2675 1134 2675 2259 
Q 2675 3391 2411 3762 
Q 2147 4134 1753 4134 
Q 1366 4134 1134 3806 
Q 844 3388 844 2259 
z
" id="ArialMT-30" transform="scale(0.015625)"/>
       </defs>
       <use xlink:href="#ArialMT-30"/>
      </g>
     </g>
    </g>
    <g id="xtick_2">
     <g id="line2d_2">
      <path clip-path="url(#pa826e3d1f1)" d="M 149.107484 240.66 
L 149.107484 12.96 
" style="fill:none;stroke:#ffffff;stroke-linecap:round;"/>
     </g>
     <g id="text_2">
      <!-- 25 -->
      <g style="fill:#262626;" transform="translate(142.990452 258.033594)scale(0.11 -0.11)">
       <defs>
        <path d="M 3222 541 
L 3222 0 
L 194 0 
Q 188 203 259 391 
Q 375 700 629 1000 
Q 884 1300 1366 1694 
Q 2113 2306 2375 2664 
Q 2638 3022 2638 3341 
Q 2638 3675 2398 3904 
Q 2159 4134 1775 4134 
Q 1369 4134 1125 3890 
Q 881 3647 878 3216 
L 300 3275 
Q 359 3922 746 4261 
Q 1134 4600 1788 4600 
Q 2447 4600 2831 4234 
Q 3216 3869 3216 3328 
Q 3216 3053 3103 2787 
Q 2991 2522 2730 2228 
Q 2469 1934 1863 1422 
Q 1356 997 1212 845 
Q 1069 694 975 541 
L 3222 541 
z
" id="ArialMT-32" transform="scale(0.015625)"/>
        <path d="M 266 1200 
L 856 1250 
Q 922 819 1161 601 
Q 1400 384 1738 384 
Q 2144 384 2425 690 
Q 2706 997 2706 1503 
Q 2706 1984 2436 2262 
Q 2166 2541 1728 2541 
Q 1456 2541 1237 2417 
Q 1019 2294 894 2097 
L 366 2166 
L 809 4519 
L 3088 4519 
L 3088 3981 
L 1259 3981 
L 1013 2750 
Q 1425 3038 1878 3038 
Q 2478 3038 2890 2622 
Q 3303 2206 3303 1553 
Q 3303 931 2941 478 
Q 2500 -78 1738 -78 
Q 1113 -78 717 272 
Q 322 622 266 1200 
z
" id="ArialMT-35" transform="scale(0.015625)"/>
       </defs>
       <use xlink:href="#ArialMT-32"/>
       <use x="55.615234" xlink:href="#ArialMT-35"/>
      </g>
     </g>
    </g>
    <g id="xtick_3">
     <g id="line2d_3">
      <path clip-path="url(#pa826e3d1f1)" d="M 227.463116 240.66 
L 227.463116 12.96 
" style="fill:none;stroke:#ffffff;stroke-linecap:round;"/>
     </g>
     <g id="text_3">
      <!-- 50 -->
      <g style="fill:#262626;" transform="translate(221.346085 258.033594)scale(0.11 -0.11)">
       <use xlink:href="#ArialMT-35"/>
       <use x="55.615234" xlink:href="#ArialMT-30"/>
      </g>
     </g>
    </g>
    <g id="xtick_4">
     <g id="line2d_4">
      <path clip-path="url(#pa826e3d1f1)" d="M 305.818748 240.66 
L 305.818748 12.96 
" style="fill:none;stroke:#ffffff;stroke-linecap:round;"/>
     </g>
     <g id="text_4">
      <!-- 75 -->
      <g style="fill:#262626;" transform="translate(299.701717 258.033594)scale(0.11 -0.11)">
       <defs>
        <path d="M 303 3981 
L 303 4522 
L 3269 4522 
L 3269 4084 
Q 2831 3619 2401 2847 
Q 1972 2075 1738 1259 
Q 1569 684 1522 0 
L 944 0 
Q 953 541 1156 1306 
Q 1359 2072 1739 2783 
Q 2119 3494 2547 3981 
L 303 3981 
z
" id="ArialMT-37" transform="scale(0.015625)"/>
       </defs>
       <use xlink:href="#ArialMT-37"/>
       <use x="55.615234" xlink:href="#ArialMT-35"/>
      </g>
     </g>
    </g>
    <g id="xtick_5">
     <g id="line2d_5">
      <path clip-path="url(#pa826e3d1f1)" d="M 384.17438 240.66 
L 384.17438 12.96 
" style="fill:none;stroke:#ffffff;stroke-linecap:round;"/>
     </g>
     <g id="text_5">
      <!-- 100 -->
      <g style="fill:#262626;" transform="translate(374.998833 258.033594)scale(0.11 -0.11)">
       <defs>
        <path d="M 2384 0 
L 1822 0 
L 1822 3584 
Q 1619 3391 1289 3197 
Q 959 3003 697 2906 
L 697 3450 
Q 1169 3672 1522 3987 
Q 1875 4303 2022 4600 
L 2384 4600 
L 2384 0 
z
" id="ArialMT-31" transform="scale(0.015625)"/>
       </defs>
       <use xlink:href="#ArialMT-31"/>
       <use x="55.615234" xlink:href="#ArialMT-30"/>
       <use x="111.230469" xlink:href="#ArialMT-30"/>
      </g>
     </g>
    </g>
    <g id="xtick_6">
     <g id="line2d_6">
      <path clip-path="url(#pa826e3d1f1)" d="M 462.530012 240.66 
L 462.530012 12.96 
" style="fill:none;stroke:#ffffff;stroke-linecap:round;"/>
     </g>
     <g id="text_6">
      <!-- 125 -->
      <g style="fill:#262626;" transform="translate(453.354466 258.033594)scale(0.11 -0.11)">
       <use xlink:href="#ArialMT-31"/>
       <use x="55.615234" xlink:href="#ArialMT-32"/>
       <use x="111.230469" xlink:href="#ArialMT-35"/>
      </g>
     </g>
    </g>
    <g id="xtick_7">
     <g id="line2d_7">
      <path clip-path="url(#pa826e3d1f1)" d="M 540.885645 240.66 
L 540.885645 12.96 
" style="fill:none;stroke:#ffffff;stroke-linecap:round;"/>
     </g>
     <g id="text_7">
      <!-- 150 -->
      <g style="fill:#262626;" transform="translate(531.710098 258.033594)scale(0.11 -0.11)">
       <use xlink:href="#ArialMT-31"/>
       <use x="55.615234" xlink:href="#ArialMT-35"/>
       <use x="111.230469" xlink:href="#ArialMT-30"/>
      </g>
     </g>
    </g>
    <g id="xtick_8">
     <g id="line2d_8">
      <path clip-path="url(#pa826e3d1f1)" d="M 619.241277 240.66 
L 619.241277 12.96 
" style="fill:none;stroke:#ffffff;stroke-linecap:round;"/>
     </g>
     <g id="text_8">
      <!-- 175 -->
      <g style="fill:#262626;" transform="translate(610.06573 258.033594)scale(0.11 -0.11)">
       <use xlink:href="#ArialMT-31"/>
       <use x="55.615234" xlink:href="#ArialMT-37"/>
       <use x="111.230469" xlink:href="#ArialMT-35"/>
      </g>
     </g>
    </g>
    <g id="xtick_9">
     <g id="line2d_9">
      <path clip-path="url(#pa826e3d1f1)" d="M 697.596909 240.66 
L 697.596909 12.96 
" style="fill:none;stroke:#ffffff;stroke-linecap:round;"/>
     </g>
     <g id="text_9">
      <!-- 200 -->
      <g style="fill:#262626;" transform="translate(688.421362 258.033594)scale(0.11 -0.11)">
       <use xlink:href="#ArialMT-32"/>
       <use x="55.615234" xlink:href="#ArialMT-30"/>
       <use x="111.230469" xlink:href="#ArialMT-30"/>
      </g>
     </g>
    </g>
    <g id="text_10">
     <!-- Number of cycles -->
     <g style="fill:#262626;" transform="translate(323.725054 272.955469)scale(0.12 -0.12)">
      <defs>
       <path d="M 488 0 
L 488 4581 
L 1109 4581 
L 3516 984 
L 3516 4581 
L 4097 4581 
L 4097 0 
L 3475 0 
L 1069 3600 
L 1069 0 
L 488 0 
z
" id="ArialMT-4e" transform="scale(0.015625)"/>
       <path d="M 2597 0 
L 2597 488 
Q 2209 -75 1544 -75 
Q 1250 -75 995 37 
Q 741 150 617 320 
Q 494 491 444 738 
Q 409 903 409 1263 
L 409 3319 
L 972 3319 
L 972 1478 
Q 972 1038 1006 884 
Q 1059 663 1231 536 
Q 1403 409 1656 409 
Q 1909 409 2131 539 
Q 2353 669 2445 892 
Q 2538 1116 2538 1541 
L 2538 3319 
L 3100 3319 
L 3100 0 
L 2597 0 
z
" id="ArialMT-75" transform="scale(0.015625)"/>
       <path d="M 422 0 
L 422 3319 
L 925 3319 
L 925 2853 
Q 1081 3097 1340 3245 
Q 1600 3394 1931 3394 
Q 2300 3394 2536 3241 
Q 2772 3088 2869 2813 
Q 3263 3394 3894 3394 
Q 4388 3394 4653 3120 
Q 4919 2847 4919 2278 
L 4919 0 
L 4359 0 
L 4359 2091 
Q 4359 2428 4304 2576 
Q 4250 2725 4106 2815 
Q 3963 2906 3769 2906 
Q 3419 2906 3187 2673 
Q 2956 2441 2956 1928 
L 2956 0 
L 2394 0 
L 2394 2156 
Q 2394 2531 2256 2718 
Q 2119 2906 1806 2906 
Q 1569 2906 1367 2781 
Q 1166 2656 1075 2415 
Q 984 2175 984 1722 
L 984 0 
L 422 0 
z
" id="ArialMT-6d" transform="scale(0.015625)"/>
       <path d="M 941 0 
L 419 0 
L 419 4581 
L 981 4581 
L 981 2947 
Q 1338 3394 1891 3394 
Q 2197 3394 2470 3270 
Q 2744 3147 2920 2923 
Q 3097 2700 3197 2384 
Q 3297 2069 3297 1709 
Q 3297 856 2875 390 
Q 2453 -75 1863 -75 
Q 1275 -75 941 416 
L 941 0 
z
M 934 1684 
Q 934 1088 1097 822 
Q 1363 388 1816 388 
Q 2184 388 2453 708 
Q 2722 1028 2722 1663 
Q 2722 2313 2464 2622 
Q 2206 2931 1841 2931 
Q 1472 2931 1203 2611 
Q 934 2291 934 1684 
z
" id="ArialMT-62" transform="scale(0.015625)"/>
       <path d="M 2694 1069 
L 3275 997 
Q 3138 488 2766 206 
Q 2394 -75 1816 -75 
Q 1088 -75 661 373 
Q 234 822 234 1631 
Q 234 2469 665 2931 
Q 1097 3394 1784 3394 
Q 2450 3394 2872 2941 
Q 3294 2488 3294 1666 
Q 3294 1616 3291 1516 
L 816 1516 
Q 847 969 1125 678 
Q 1403 388 1819 388 
Q 2128 388 2347 550 
Q 2566 713 2694 1069 
z
M 847 1978 
L 2700 1978 
Q 2663 2397 2488 2606 
Q 2219 2931 1791 2931 
Q 1403 2931 1139 2672 
Q 875 2413 847 1978 
z
" id="ArialMT-65" transform="scale(0.015625)"/>
       <path d="M 416 0 
L 416 3319 
L 922 3319 
L 922 2816 
Q 1116 3169 1280 3281 
Q 1444 3394 1641 3394 
Q 1925 3394 2219 3213 
L 2025 2691 
Q 1819 2813 1613 2813 
Q 1428 2813 1281 2702 
Q 1134 2591 1072 2394 
Q 978 2094 978 1738 
L 978 0 
L 416 0 
z
" id="ArialMT-72" transform="scale(0.015625)"/>
       <path id="ArialMT-20" transform="scale(0.015625)"/>
       <path d="M 213 1659 
Q 213 2581 725 3025 
Q 1153 3394 1769 3394 
Q 2453 3394 2887 2945 
Q 3322 2497 3322 1706 
Q 3322 1066 3130 698 
Q 2938 331 2570 128 
Q 2203 -75 1769 -75 
Q 1072 -75 642 372 
Q 213 819 213 1659 
z
M 791 1659 
Q 791 1022 1069 705 
Q 1347 388 1769 388 
Q 2188 388 2466 706 
Q 2744 1025 2744 1678 
Q 2744 2294 2464 2611 
Q 2184 2928 1769 2928 
Q 1347 2928 1069 2612 
Q 791 2297 791 1659 
z
" id="ArialMT-6f" transform="scale(0.015625)"/>
       <path d="M 556 0 
L 556 2881 
L 59 2881 
L 59 3319 
L 556 3319 
L 556 3672 
Q 556 4006 616 4169 
Q 697 4388 901 4523 
Q 1106 4659 1475 4659 
Q 1713 4659 2000 4603 
L 1916 4113 
Q 1741 4144 1584 4144 
Q 1328 4144 1222 4034 
Q 1116 3925 1116 3625 
L 1116 3319 
L 1763 3319 
L 1763 2881 
L 1116 2881 
L 1116 0 
L 556 0 
z
" id="ArialMT-66" transform="scale(0.015625)"/>
       <path d="M 2588 1216 
L 3141 1144 
Q 3050 572 2676 248 
Q 2303 -75 1759 -75 
Q 1078 -75 664 370 
Q 250 816 250 1647 
Q 250 2184 428 2587 
Q 606 2991 970 3192 
Q 1334 3394 1763 3394 
Q 2303 3394 2647 3120 
Q 2991 2847 3088 2344 
L 2541 2259 
Q 2463 2594 2264 2762 
Q 2066 2931 1784 2931 
Q 1359 2931 1093 2626 
Q 828 2322 828 1663 
Q 828 994 1084 691 
Q 1341 388 1753 388 
Q 2084 388 2306 591 
Q 2528 794 2588 1216 
z
" id="ArialMT-63" transform="scale(0.015625)"/>
       <path d="M 397 -1278 
L 334 -750 
Q 519 -800 656 -800 
Q 844 -800 956 -737 
Q 1069 -675 1141 -563 
Q 1194 -478 1313 -144 
Q 1328 -97 1363 -6 
L 103 3319 
L 709 3319 
L 1400 1397 
Q 1534 1031 1641 628 
Q 1738 1016 1872 1384 
L 2581 3319 
L 3144 3319 
L 1881 -56 
Q 1678 -603 1566 -809 
Q 1416 -1088 1222 -1217 
Q 1028 -1347 759 -1347 
Q 597 -1347 397 -1278 
z
" id="ArialMT-79" transform="scale(0.015625)"/>
       <path d="M 409 0 
L 409 4581 
L 972 4581 
L 972 0 
L 409 0 
z
" id="ArialMT-6c" transform="scale(0.015625)"/>
       <path d="M 197 991 
L 753 1078 
Q 800 744 1014 566 
Q 1228 388 1613 388 
Q 2000 388 2187 545 
Q 2375 703 2375 916 
Q 2375 1106 2209 1216 
Q 2094 1291 1634 1406 
Q 1016 1563 777 1677 
Q 538 1791 414 1992 
Q 291 2194 291 2438 
Q 291 2659 392 2848 
Q 494 3038 669 3163 
Q 800 3259 1026 3326 
Q 1253 3394 1513 3394 
Q 1903 3394 2198 3281 
Q 2494 3169 2634 2976 
Q 2775 2784 2828 2463 
L 2278 2388 
Q 2241 2644 2061 2787 
Q 1881 2931 1553 2931 
Q 1166 2931 1000 2803 
Q 834 2675 834 2503 
Q 834 2394 903 2306 
Q 972 2216 1119 2156 
Q 1203 2125 1616 2013 
Q 2213 1853 2448 1751 
Q 2684 1650 2818 1456 
Q 2953 1263 2953 975 
Q 2953 694 2789 445 
Q 2625 197 2315 61 
Q 2006 -75 1616 -75 
Q 969 -75 630 194 
Q 291 463 197 991 
z
" id="ArialMT-73" transform="scale(0.015625)"/>
      </defs>
      <use xlink:href="#ArialMT-4e"/>
      <use x="72.216797" xlink:href="#ArialMT-75"/>
      <use x="127.832031" xlink:href="#ArialMT-6d"/>
      <use x="211.132812" xlink:href="#ArialMT-62"/>
      <use x="266.748047" xlink:href="#ArialMT-65"/>
      <use x="322.363281" xlink:href="#ArialMT-72"/>
      <use x="355.664062" xlink:href="#ArialMT-20"/>
      <use x="383.447266" xlink:href="#ArialMT-6f"/>
      <use x="439.0625" xlink:href="#ArialMT-66"/>
      <use x="466.845703" xlink:href="#ArialMT-20"/>
      <use x="494.628906" xlink:href="#ArialMT-63"/>
      <use x="544.628906" xlink:href="#ArialMT-79"/>
      <use x="594.628906" xlink:href="#ArialMT-63"/>
      <use x="644.628906" xlink:href="#ArialMT-6c"/>
      <use x="666.845703" xlink:href="#ArialMT-65"/>
      <use x="722.460938" xlink:href="#ArialMT-73"/>
     </g>
    </g>
   </g>
   <g id="matplotlib.axis_2">
    <g id="ytick_1">
     <g id="line2d_10">
      <path clip-path="url(#pa826e3d1f1)" d="M 40.82 230.31 
L 699.320733 230.31 
" style="fill:none;stroke:#ffffff;stroke-linecap:round;"/>
     </g>
     <g id="text_11">
      <!-- 0 -->
      <g style="fill:#262626;" transform="translate(25.202969 234.246797)scale(0.11 -0.11)">
       <use xlink:href="#ArialMT-30"/>
      </g>
     </g>
    </g>
    <g id="ytick_2">
     <g id="line2d_11">
      <path clip-path="url(#pa826e3d1f1)" d="M 40.82 183.837229 
L 699.320733 183.837229 
" style="fill:none;stroke:#ffffff;stroke-linecap:round;"/>
     </g>
     <g id="text_12">
      <!-- 50 -->
      <g style="fill:#262626;" transform="translate(19.085938 187.774026)scale(0.11 -0.11)">
       <use xlink:href="#ArialMT-35"/>
       <use x="55.615234" xlink:href="#ArialMT-30"/>
      </g>
     </g>
    </g>
    <g id="ytick_3">
     <g id="line2d_12">
      <path clip-path="url(#pa826e3d1f1)" d="M 40.82 137.364459 
L 699.320733 137.364459 
" style="fill:none;stroke:#ffffff;stroke-linecap:round;"/>
     </g>
     <g id="text_13">
      <!-- 100 -->
      <g style="fill:#262626;" transform="translate(12.968906 141.301256)scale(0.11 -0.11)">
       <use xlink:href="#ArialMT-31"/>
       <use x="55.615234" xlink:href="#ArialMT-30"/>
       <use x="111.230469" xlink:href="#ArialMT-30"/>
      </g>
     </g>
    </g>
    <g id="ytick_4">
     <g id="line2d_13">
      <path clip-path="url(#pa826e3d1f1)" d="M 40.82 90.891688 
L 699.320733 90.891688 
" style="fill:none;stroke:#ffffff;stroke-linecap:round;"/>
     </g>
     <g id="text_14">
      <!-- 150 -->
      <g style="fill:#262626;" transform="translate(12.968906 94.828485)scale(0.11 -0.11)">
       <use xlink:href="#ArialMT-31"/>
       <use x="55.615234" xlink:href="#ArialMT-35"/>
       <use x="111.230469" xlink:href="#ArialMT-30"/>
      </g>
     </g>
    </g>
    <g id="ytick_5">
     <g id="line2d_14">
      <path clip-path="url(#pa826e3d1f1)" d="M 40.82 44.418917 
L 699.320733 44.418917 
" style="fill:none;stroke:#ffffff;stroke-linecap:round;"/>
     </g>
     <g id="text_15">
      <!-- 200 -->
      <g style="fill:#262626;" transform="translate(12.968906 48.355714)scale(0.11 -0.11)">
       <use xlink:href="#ArialMT-32"/>
       <use x="55.615234" xlink:href="#ArialMT-30"/>
       <use x="111.230469" xlink:href="#ArialMT-30"/>
      </g>
     </g>
    </g>
   </g>
   <g id="line2d_15">
    <path clip-path="url(#pa826e3d1f1)" d="M 70.751851 227.263216 
L 73.886077 226.968893 
L 77.020302 225.516287 
L 80.154527 227.588979 
L 83.288753 227.703049 
L 86.422978 227.1826 
L 89.557203 228.009486 
L 92.691429 229.598865 
L 95.825654 226.168487 
L 98.959879 228.345597 
L 102.094104 227.160361 
L 105.22833 226.887276 
L 108.362555 228.68068 
L 111.49678 227.932686 
L 114.631006 227.981944 
L 117.765231 227.729625 
L 120.899456 227.113152 
L 127.167907 226.754388 
L 130.302132 225.545466 
L 133.436357 227.119125 
L 136.570583 227.245788 
L 139.704808 227.022233 
L 142.839033 229.330707 
L 145.973258 227.915958 
L 149.107484 229.573887 
L 152.241709 227.383105 
L 155.375934 228.611209 
L 158.51016 227.588362 
L 161.644385 228.312601 
L 164.77861 226.873873 
L 167.912835 228.051857 
L 171.047061 227.760814 
L 174.181286 226.72964 
L 177.315511 228.022888 
L 180.449737 227.959551 
L 183.583962 227.656073 
L 186.718187 227.640495 
L 189.852412 226.944829 
L 192.986638 227.08116 
L 196.120863 227.930567 
L 199.255088 228.222105 
L 202.389314 227.462405 
L 205.523539 226.895133 
L 208.657764 226.572412 
L 211.791989 227.815909 
L 214.926215 227.118505 
L 218.06044 228.724632 
L 221.194665 226.76529 
L 224.328891 227.85049 
L 227.463116 226.673258 
L 230.597341 227.575963 
L 233.731566 226.538513 
L 236.865792 228.522113 
L 240.000017 228.568183 
L 243.134242 226.894373 
L 246.268468 227.176849 
L 249.402693 227.313785 
L 252.536918 225.924161 
L 255.671143 228.401082 
L 258.805369 227.119422 
L 261.939594 228.552049 
L 265.073819 227.992899 
L 268.208045 227.294193 
L 271.34227 227.969232 
L 274.476495 226.495865 
L 277.61072 227.370519 
L 280.744946 226.966839 
L 283.879171 228.14185 
L 287.013396 228.343582 
L 290.147622 226.82631 
L 293.281847 227.90885 
L 296.416072 223.609492 
L 299.550298 229.375956 
L 302.684523 225.556896 
L 305.818748 227.612601 
L 308.952973 227.846107 
L 312.087199 226.765934 
L 315.221424 224.033673 
L 318.355649 225.21773 
L 321.489875 223.585259 
L 324.6241 223.695984 
L 327.758325 222.920488 
L 330.89255 223.974644 
L 334.026776 224.237772 
L 337.161001 220.108817 
L 340.295226 222.611072 
L 343.429452 221.840028 
L 346.563677 223.411268 
L 349.697902 224.132195 
L 352.832127 221.199501 
L 355.966353 223.283748 
L 359.100578 224.077476 
L 362.234803 226.269076 
L 365.369029 225.373209 
L 368.503254 225.785911 
L 371.637479 224.956716 
L 374.771704 224.834766 
L 377.90593 226.774742 
L 381.040155 223.828467 
L 384.17438 219.424169 
L 387.308606 27.07234 
L 390.442831 143.850699 
L 393.577056 184.625045 
L 396.711281 180.592517 
L 399.845507 196.899484 
L 402.979732 203.171096 
L 406.113957 193.522341 
L 409.248183 176.665974 
L 412.382408 172.186598 
L 415.516633 178.337752 
L 418.650858 183.493715 
L 421.785084 183.477125 
L 424.919309 180.313316 
L 428.053534 181.432365 
L 431.18776 180.439989 
L 434.321985 180.87064 
L 437.45621 180.461032 
L 440.590435 180.881284 
L 443.724661 181.933928 
L 446.858886 181.272817 
L 449.993111 180.05268 
L 453.127337 179.195104 
L 456.261562 181.033521 
L 459.395787 180.708497 
L 462.530012 181.586052 
L 465.664238 181.132582 
L 468.798463 181.029114 
L 471.932688 181.351132 
L 475.066914 180.783366 
L 478.201139 180.926374 
L 481.335364 180.456455 
L 484.469589 181.589509 
L 487.603815 181.698862 
L 490.73804 182.257406 
L 493.872265 183.367346 
L 497.006491 183.18722 
L 500.140716 181.053565 
L 503.274941 181.294888 
L 506.409167 180.847009 
L 509.543392 181.868944 
L 515.811842 180.966272 
L 518.946068 181.238999 
L 522.080293 181.368452 
L 525.214518 180.359331 
L 531.482969 181.447107 
L 534.617194 181.027263 
L 537.751419 181.174576 
L 540.885645 181.541658 
L 544.01987 180.123783 
L 547.154095 179.900095 
L 550.288321 181.613236 
L 553.422546 181.317179 
L 556.556771 180.595049 
L 562.825222 180.849041 
L 565.959447 182.567667 
L 569.093672 181.277738 
L 572.227898 181.585361 
L 575.362123 181.081007 
L 578.496348 183.266956 
L 581.630573 181.511038 
L 584.764799 180.320489 
L 587.899024 180.650495 
L 591.033249 179.639349 
L 594.167475 182.108857 
L 597.3017 181.952021 
L 600.435925 180.376027 
L 603.57015 181.338775 
L 606.704376 179.369143 
L 609.838601 182.299783 
L 612.972826 181.068523 
L 616.107052 181.482099 
L 619.241277 181.709485 
L 622.375502 183.390761 
L 625.509727 180.642411 
L 628.643953 182.05107 
L 631.778178 182.491826 
L 634.912403 181.119693 
L 638.046629 182.597655 
L 641.180854 181.151667 
L 647.449304 182.051187 
L 650.58353 181.979772 
L 653.717755 182.046252 
L 656.85198 183.236606 
L 659.986206 181.002926 
L 663.120431 180.17323 
L 666.254656 180.49434 
L 669.388881 182.047167 
L 669.388881 182.047167 
" style="fill:none;stroke:#4c72b0;stroke-linecap:round;stroke-width:1.5;"/>
   </g>
   <g id="line2d_16">
    <path clip-path="url(#pa826e3d1f1)" d="M 70.751851 225.222331 
L 73.886077 224.135997 
L 77.020302 223.361249 
L 80.154527 224.867047 
L 83.288753 225.762503 
L 86.422978 225.243575 
L 89.557203 225.178528 
L 92.691429 225.553945 
L 95.825654 225.434961 
L 98.959879 224.536619 
L 102.094104 224.99231 
L 105.22833 224.317906 
L 108.362555 226.067141 
L 111.49678 225.462955 
L 114.631006 225.919442 
L 117.765231 225.804886 
L 120.899456 224.935192 
L 124.033681 224.917934 
L 127.167907 224.305664 
L 130.302132 223.434635 
L 133.436357 224.359354 
L 136.570583 225.085656 
L 139.704808 223.909222 
L 142.839033 225.459097 
L 145.973258 225.363701 
L 149.107484 226.74294 
L 152.241709 225.484203 
L 155.375934 225.637756 
L 158.51016 224.920781 
L 161.644385 224.605972 
L 164.77861 224.419141 
L 167.912835 225.301522 
L 174.181286 223.783095 
L 177.315511 225.232214 
L 180.449737 225.049085 
L 183.583962 226.136483 
L 186.718187 224.88822 
L 189.852412 225.134937 
L 192.986638 225.232884 
L 196.120863 226.583806 
L 199.255088 224.930086 
L 205.523539 225.924024 
L 208.657764 224.3481 
L 211.791989 225.635388 
L 214.926215 225.514201 
L 218.06044 226.162299 
L 221.194665 224.549132 
L 224.328891 225.66116 
L 227.463116 224.659177 
L 230.597341 226.123646 
L 233.731566 224.66354 
L 236.865792 225.412406 
L 240.000017 225.56966 
L 243.134242 224.305128 
L 246.268468 224.898586 
L 249.402693 224.46616 
L 252.536918 224.543524 
L 255.671143 225.760217 
L 258.805369 224.516337 
L 261.939594 225.933423 
L 265.073819 225.347419 
L 268.208045 224.381095 
L 271.34227 225.133977 
L 274.476495 225.674533 
L 280.744946 225.002048 
L 283.879171 225.569075 
L 287.013396 224.902801 
L 290.147622 225.158323 
L 293.281847 224.513211 
L 296.416072 219.574847 
L 299.550298 225.605693 
L 302.684523 223.29386 
L 308.952973 223.222143 
L 312.087199 224.27774 
L 315.221424 218.933732 
L 318.355649 221.600181 
L 321.489875 222.320597 
L 324.6241 220.84539 
L 327.758325 218.921215 
L 330.89255 220.644105 
L 334.026776 220.827515 
L 337.161001 216.109223 
L 340.295226 219.534391 
L 343.429452 216.643783 
L 346.563677 219.500942 
L 349.697902 220.781924 
L 352.832127 216.692804 
L 355.966353 218.957762 
L 359.100578 218.212137 
L 362.234803 222.245137 
L 365.369029 221.506961 
L 368.503254 222.715338 
L 371.637479 221.048671 
L 374.771704 221.906099 
L 377.90593 223.250013 
L 381.040155 221.082167 
L 384.17438 213.175963 
L 387.308606 23.31 
L 390.442831 108.846703 
L 393.577056 168.182055 
L 396.711281 174.008415 
L 399.845507 194.450378 
L 402.979732 201.422481 
L 406.113957 191.686657 
L 409.248183 174.765998 
L 412.382408 169.992682 
L 415.516633 176.545494 
L 418.650858 182.176201 
L 421.785084 181.630032 
L 424.919309 178.323818 
L 428.053534 179.249518 
L 431.18776 178.670154 
L 434.321985 179.524589 
L 437.45621 178.765917 
L 440.590435 179.302206 
L 443.724661 180.346641 
L 446.858886 179.71126 
L 449.993111 178.382848 
L 453.127337 177.381027 
L 456.261562 178.893803 
L 459.395787 178.869558 
L 462.530012 179.360173 
L 468.798463 179.115396 
L 471.932688 179.437381 
L 475.066914 179.032656 
L 478.201139 179.452549 
L 481.335364 178.841428 
L 487.603815 180.064678 
L 490.73804 180.403285 
L 493.872265 181.603103 
L 497.006491 181.380624 
L 500.140716 179.169328 
L 503.274941 179.614537 
L 506.409167 179.322986 
L 509.543392 180.291528 
L 512.677617 179.455538 
L 515.811842 179.316799 
L 518.946068 179.624018 
L 522.080293 179.468005 
L 525.214518 178.352299 
L 528.348744 178.747884 
L 531.482969 179.753836 
L 534.617194 179.137478 
L 537.751419 179.228968 
L 540.885645 179.847549 
L 544.01987 178.527951 
L 547.154095 178.151491 
L 550.288321 179.554836 
L 553.422546 179.568394 
L 556.556771 179.011084 
L 559.690996 178.891101 
L 562.825222 178.977369 
L 565.959447 180.603044 
L 569.093672 179.247898 
L 572.227898 179.467157 
L 575.362123 178.957929 
L 578.496348 181.310701 
L 581.630573 179.624216 
L 584.764799 178.700788 
L 587.899024 178.841059 
L 591.033249 177.95341 
L 594.167475 180.234668 
L 597.3017 179.983097 
L 600.435925 178.52319 
L 603.57015 179.784317 
L 606.704376 177.388664 
L 609.838601 180.410791 
L 612.972826 179.299518 
L 616.107052 179.42672 
L 619.241277 179.702904 
L 622.375502 181.609173 
L 625.509727 178.593637 
L 628.643953 180.252389 
L 631.778178 180.687624 
L 634.912403 179.390232 
L 638.046629 180.820112 
L 641.180854 179.257786 
L 644.315079 179.632509 
L 647.449304 180.214873 
L 650.58353 180.08014 
L 653.717755 180.234356 
L 656.85198 181.346242 
L 659.986206 179.481357 
L 663.120431 178.26712 
L 666.254656 178.84086 
L 669.388881 180.007661 
L 669.388881 180.007661 
" style="fill:none;stroke:#dd8452;stroke-linecap:round;stroke-width:1.5;"/>
   </g>
   <g id="line2d_17">
    <path clip-path="url(#pa826e3d1f1)" d="M 70.751851 226.235508 
L 73.886077 225.118149 
L 77.020302 225.279546 
L 80.154527 225.596001 
L 83.288753 226.583939 
L 86.422978 226.32402 
L 89.557203 225.723101 
L 92.691429 225.60741 
L 95.825654 227.738255 
L 98.959879 224.881091 
L 102.094104 226.025423 
L 105.22833 225.391651 
L 108.362555 226.392454 
L 111.49678 226.085995 
L 114.631006 226.58748 
L 117.765231 226.617071 
L 120.899456 225.989268 
L 124.033681 226.103563 
L 127.167907 225.471646 
L 133.436357 225.287201 
L 136.570583 226.078643 
L 139.704808 224.818138 
L 142.839033 225.558975 
L 145.973258 225.98167 
L 149.107484 226.81972 
L 152.241709 226.473127 
L 155.375934 225.957533 
L 158.51016 225.658509 
L 161.644385 224.967124 
L 164.77861 225.525102 
L 167.912835 225.839469 
L 171.047061 225.108196 
L 174.181286 224.852757 
L 177.315511 225.776455 
L 180.449737 225.603344 
L 183.583962 227.088989 
L 186.718187 225.590949 
L 189.852412 226.378474 
L 192.986638 226.391875 
L 196.120863 227.442455 
L 199.255088 225.351757 
L 202.389314 226.36274 
L 205.523539 227.557643 
L 208.657764 225.665144 
L 211.791989 226.35633 
L 214.926215 226.730328 
L 218.06044 226.477242 
L 221.194665 225.768786 
L 224.328891 226.365064 
L 227.463116 225.984968 
L 230.597341 227.139732 
L 233.731566 226.107811 
L 236.865792 225.750408 
L 240.000017 225.901271 
L 243.134242 225.371176 
L 246.268468 225.897884 
L 249.402693 225.292713 
L 252.536918 226.566117 
L 255.671143 226.180042 
L 258.805369 225.474015 
L 261.939594 226.302003 
L 265.073819 225.921577 
L 268.208045 225.205412 
L 271.34227 225.693506 
L 274.476495 227.675627 
L 277.61072 226.354402 
L 283.879171 226.0939 
L 287.013396 225.273036 
L 290.147622 226.514782 
L 293.281847 225.033899 
L 296.416072 221.922706 
L 299.550298 225.699353 
L 302.684523 225.149164 
L 305.818748 223.818452 
L 308.952973 223.664178 
L 312.087199 225.428632 
L 315.221424 220.821733 
L 318.355649 223.243903 
L 321.489875 225.996254 
L 324.6241 223.539946 
L 327.758325 221.644001 
L 330.89255 223.009808 
L 334.026776 223.026761 
L 337.161001 220.430833 
L 340.295226 222.770753 
L 343.429452 219.585026 
L 346.563677 221.988749 
L 349.697902 223.056107 
L 352.832127 220.189386 
L 355.966353 221.393438 
L 359.100578 219.941107 
L 362.234803 223.330534 
L 365.369029 223.021544 
L 368.503254 224.209876 
L 371.637479 222.752582 
L 374.771704 223.934472 
L 377.90593 224.198915 
L 381.040155 223.741695 
L 384.17438 217.078452 
L 387.308606 191.023196 
L 390.442831 144.998095 
L 393.577056 188.205766 
L 396.711281 203.889546 
L 399.845507 217.285028 
L 402.979732 220.412089 
L 406.113957 218.544339 
L 409.248183 215.906714 
L 412.382408 214.190164 
L 415.516633 216.543836 
L 418.650858 219.125274 
L 421.785084 217.027638 
L 424.919309 216.065886 
L 428.053534 215.540108 
L 431.18776 216.90643 
L 434.321985 218.695021 
L 437.45621 217.19997 
L 440.590435 217.716464 
L 446.858886 217.836538 
L 453.127337 216.571602 
L 456.261562 215.631654 
L 459.395787 216.678785 
L 462.530012 215.41497 
L 465.664238 216.467184 
L 471.932688 216.487829 
L 475.066914 217.025478 
L 478.201139 218.155264 
L 481.335364 217.517889 
L 484.469589 215.607154 
L 487.603815 217.599788 
L 490.73804 216.833045 
L 493.872265 217.319654 
L 497.006491 217.137017 
L 500.140716 216.556021 
L 503.274941 217.365936 
L 506.409167 217.937119 
L 509.543392 217.847592 
L 512.677617 216.386077 
L 515.811842 217.445204 
L 518.946068 217.617257 
L 522.080293 216.539255 
L 525.214518 216.008485 
L 528.348744 215.638129 
L 531.482969 217.335274 
L 534.617194 216.531792 
L 537.751419 216.346409 
L 540.885645 217.344373 
L 544.01987 217.553667 
L 547.154095 216.917781 
L 550.288321 216.002247 
L 553.422546 217.103406 
L 556.556771 217.660801 
L 559.690996 216.83688 
L 562.825222 216.574919 
L 565.959447 216.473409 
L 569.093672 216.056035 
L 572.227898 215.787462 
L 575.362123 215.69694 
L 578.496348 216.602941 
L 581.630573 216.609266 
L 584.764799 217.48193 
L 587.899024 216.782786 
L 591.033249 217.130559 
L 597.3017 216.370741 
L 600.435925 216.581485 
L 603.57015 217.873615 
L 606.704376 215.967862 
L 609.838601 216.710371 
L 612.972826 216.99286 
L 616.107052 215.994128 
L 619.241277 216.200845 
L 622.375502 217.257966 
L 625.509727 215.897755 
L 628.643953 217.011879 
L 638.046629 217.165379 
L 641.180854 216.533681 
L 644.315079 216.418029 
L 647.449304 216.870924 
L 650.58353 216.62688 
L 653.717755 216.961563 
L 656.85198 216.836128 
L 659.986206 217.96644 
L 663.120431 216.354152 
L 666.254656 217.368893 
L 669.388881 216.131698 
L 669.388881 216.131698 
" style="fill:none;stroke:#55a868;stroke-linecap:round;stroke-width:1.5;"/>
   </g>
   <g id="line2d_18">
    <path clip-path="url(#pa826e3d1f1)" d="M 70.751851 230.31 
L 346.563677 230.307433 
L 669.388881 230.31 
L 669.388881 230.31 
" style="fill:none;stroke:#c44e52;stroke-linecap:round;stroke-width:1.5;"/>
   </g>
   <g id="patch_3">
    <path d="M 40.82 240.66 
L 40.82 12.96 
" style="fill:none;stroke:#ffffff;stroke-linecap:square;stroke-linejoin:miter;stroke-width:1.25;"/>
   </g>
   <g id="patch_4">
    <path d="M 699.320733 240.66 
L 699.320733 12.96 
" style="fill:none;stroke:#ffffff;stroke-linecap:square;stroke-linejoin:miter;stroke-width:1.25;"/>
   </g>
   <g id="patch_5">
    <path d="M 40.82 240.66 
L 699.320733 240.66 
" style="fill:none;stroke:#ffffff;stroke-linecap:square;stroke-linejoin:miter;stroke-width:1.25;"/>
   </g>
   <g id="patch_6">
    <path d="M 40.82 12.96 
L 699.320733 12.96 
" style="fill:none;stroke:#ffffff;stroke-linecap:square;stroke-linejoin:miter;stroke-width:1.25;"/>
   </g>
   <g id="legend_1">
    <g id="patch_7">
     <path d="M 564.728858 84.133438 
L 691.620733 84.133438 
Q 693.820733 84.133438 693.820733 81.933438 
L 693.820733 20.66 
Q 693.820733 18.46 691.620733 18.46 
L 564.728858 18.46 
Q 562.528858 18.46 562.528858 20.66 
L 562.528858 81.933438 
Q 562.528858 84.133438 564.728858 84.133438 
z
" style="fill:#eaeaf2;opacity:0.8;stroke:#cccccc;stroke-linejoin:miter;"/>
    </g>
    <g id="line2d_19">
     <path d="M 566.928858 26.883594 
L 588.928858 26.883594 
" style="fill:none;stroke:#4c72b0;stroke-linecap:round;stroke-width:1.5;"/>
    </g>
    <g id="line2d_20"/>
    <g id="text_16">
     <!-- Active Power P -->
     <g style="fill:#262626;" transform="translate(597.728858 30.733594)scale(0.11 -0.11)">
      <defs>
       <path d="M -9 0 
L 1750 4581 
L 2403 4581 
L 4278 0 
L 3588 0 
L 3053 1388 
L 1138 1388 
L 634 0 
L -9 0 
z
M 1313 1881 
L 2866 1881 
L 2388 3150 
Q 2169 3728 2063 4100 
Q 1975 3659 1816 3225 
L 1313 1881 
z
" id="ArialMT-41" transform="scale(0.015625)"/>
       <path d="M 1650 503 
L 1731 6 
Q 1494 -44 1306 -44 
Q 1000 -44 831 53 
Q 663 150 594 308 
Q 525 466 525 972 
L 525 2881 
L 113 2881 
L 113 3319 
L 525 3319 
L 525 4141 
L 1084 4478 
L 1084 3319 
L 1650 3319 
L 1650 2881 
L 1084 2881 
L 1084 941 
Q 1084 700 1114 631 
Q 1144 563 1211 522 
Q 1278 481 1403 481 
Q 1497 481 1650 503 
z
" id="ArialMT-74" transform="scale(0.015625)"/>
       <path d="M 425 3934 
L 425 4581 
L 988 4581 
L 988 3934 
L 425 3934 
z
M 425 0 
L 425 3319 
L 988 3319 
L 988 0 
L 425 0 
z
" id="ArialMT-69" transform="scale(0.015625)"/>
       <path d="M 1344 0 
L 81 3319 
L 675 3319 
L 1388 1331 
Q 1503 1009 1600 663 
Q 1675 925 1809 1294 
L 2547 3319 
L 3125 3319 
L 1869 0 
L 1344 0 
z
" id="ArialMT-76" transform="scale(0.015625)"/>
       <path d="M 494 0 
L 494 4581 
L 2222 4581 
Q 2678 4581 2919 4538 
Q 3256 4481 3484 4323 
Q 3713 4166 3852 3881 
Q 3991 3597 3991 3256 
Q 3991 2672 3619 2267 
Q 3247 1863 2275 1863 
L 1100 1863 
L 1100 0 
L 494 0 
z
M 1100 2403 
L 2284 2403 
Q 2872 2403 3119 2622 
Q 3366 2841 3366 3238 
Q 3366 3525 3220 3729 
Q 3075 3934 2838 4000 
Q 2684 4041 2272 4041 
L 1100 4041 
L 1100 2403 
z
" id="ArialMT-50" transform="scale(0.015625)"/>
       <path d="M 1034 0 
L 19 3319 
L 600 3319 
L 1128 1403 
L 1325 691 
Q 1338 744 1497 1375 
L 2025 3319 
L 2603 3319 
L 3100 1394 
L 3266 759 
L 3456 1400 
L 4025 3319 
L 4572 3319 
L 3534 0 
L 2950 0 
L 2422 1988 
L 2294 2553 
L 1622 0 
L 1034 0 
z
" id="ArialMT-77" transform="scale(0.015625)"/>
      </defs>
      <use xlink:href="#ArialMT-41"/>
      <use x="66.699219" xlink:href="#ArialMT-63"/>
      <use x="116.699219" xlink:href="#ArialMT-74"/>
      <use x="144.482422" xlink:href="#ArialMT-69"/>
      <use x="166.699219" xlink:href="#ArialMT-76"/>
      <use x="216.699219" xlink:href="#ArialMT-65"/>
      <use x="272.314453" xlink:href="#ArialMT-20"/>
      <use x="300.097656" xlink:href="#ArialMT-50"/>
      <use x="366.796875" xlink:href="#ArialMT-6f"/>
      <use x="422.412109" xlink:href="#ArialMT-77"/>
      <use x="494.628906" xlink:href="#ArialMT-65"/>
      <use x="550.244141" xlink:href="#ArialMT-72"/>
      <use x="583.544922" xlink:href="#ArialMT-20"/>
      <use x="611.328125" xlink:href="#ArialMT-50"/>
     </g>
    </g>
    <g id="line2d_21">
     <path d="M 566.928858 42.5775 
L 588.928858 42.5775 
" style="fill:none;stroke:#dd8452;stroke-linecap:round;stroke-width:1.5;"/>
    </g>
    <g id="line2d_22"/>
    <g id="text_17">
     <!-- Apparent Power S -->
     <g style="fill:#262626;" transform="translate(597.728858 46.4275)scale(0.11 -0.11)">
      <defs>
       <path d="M 422 -1272 
L 422 3319 
L 934 3319 
L 934 2888 
Q 1116 3141 1344 3267 
Q 1572 3394 1897 3394 
Q 2322 3394 2647 3175 
Q 2972 2956 3137 2557 
Q 3303 2159 3303 1684 
Q 3303 1175 3120 767 
Q 2938 359 2589 142 
Q 2241 -75 1856 -75 
Q 1575 -75 1351 44 
Q 1128 163 984 344 
L 984 -1272 
L 422 -1272 
z
M 931 1641 
Q 931 1000 1190 694 
Q 1450 388 1819 388 
Q 2194 388 2461 705 
Q 2728 1022 2728 1688 
Q 2728 2322 2467 2637 
Q 2206 2953 1844 2953 
Q 1484 2953 1207 2617 
Q 931 2281 931 1641 
z
" id="ArialMT-70" transform="scale(0.015625)"/>
       <path d="M 2588 409 
Q 2275 144 1986 34 
Q 1697 -75 1366 -75 
Q 819 -75 525 192 
Q 231 459 231 875 
Q 231 1119 342 1320 
Q 453 1522 633 1644 
Q 813 1766 1038 1828 
Q 1203 1872 1538 1913 
Q 2219 1994 2541 2106 
Q 2544 2222 2544 2253 
Q 2544 2597 2384 2738 
Q 2169 2928 1744 2928 
Q 1347 2928 1158 2789 
Q 969 2650 878 2297 
L 328 2372 
Q 403 2725 575 2942 
Q 747 3159 1072 3276 
Q 1397 3394 1825 3394 
Q 2250 3394 2515 3294 
Q 2781 3194 2906 3042 
Q 3031 2891 3081 2659 
Q 3109 2516 3109 2141 
L 3109 1391 
Q 3109 606 3145 398 
Q 3181 191 3288 0 
L 2700 0 
Q 2613 175 2588 409 
z
M 2541 1666 
Q 2234 1541 1622 1453 
Q 1275 1403 1131 1340 
Q 988 1278 909 1158 
Q 831 1038 831 891 
Q 831 666 1001 516 
Q 1172 366 1500 366 
Q 1825 366 2078 508 
Q 2331 650 2450 897 
Q 2541 1088 2541 1459 
L 2541 1666 
z
" id="ArialMT-61" transform="scale(0.015625)"/>
       <path d="M 422 0 
L 422 3319 
L 928 3319 
L 928 2847 
Q 1294 3394 1984 3394 
Q 2284 3394 2536 3286 
Q 2788 3178 2913 3003 
Q 3038 2828 3088 2588 
Q 3119 2431 3119 2041 
L 3119 0 
L 2556 0 
L 2556 2019 
Q 2556 2363 2490 2533 
Q 2425 2703 2258 2804 
Q 2091 2906 1866 2906 
Q 1506 2906 1245 2678 
Q 984 2450 984 1813 
L 984 0 
L 422 0 
z
" id="ArialMT-6e" transform="scale(0.015625)"/>
       <path d="M 288 1472 
L 859 1522 
Q 900 1178 1048 958 
Q 1197 738 1509 602 
Q 1822 466 2213 466 
Q 2559 466 2825 569 
Q 3091 672 3220 851 
Q 3350 1031 3350 1244 
Q 3350 1459 3225 1620 
Q 3100 1781 2813 1891 
Q 2628 1963 1997 2114 
Q 1366 2266 1113 2400 
Q 784 2572 623 2826 
Q 463 3081 463 3397 
Q 463 3744 659 4045 
Q 856 4347 1234 4503 
Q 1613 4659 2075 4659 
Q 2584 4659 2973 4495 
Q 3363 4331 3572 4012 
Q 3781 3694 3797 3291 
L 3216 3247 
Q 3169 3681 2898 3903 
Q 2628 4125 2100 4125 
Q 1550 4125 1298 3923 
Q 1047 3722 1047 3438 
Q 1047 3191 1225 3031 
Q 1400 2872 2139 2705 
Q 2878 2538 3153 2413 
Q 3553 2228 3743 1945 
Q 3934 1663 3934 1294 
Q 3934 928 3725 604 
Q 3516 281 3123 101 
Q 2731 -78 2241 -78 
Q 1619 -78 1198 103 
Q 778 284 539 648 
Q 300 1013 288 1472 
z
" id="ArialMT-53" transform="scale(0.015625)"/>
      </defs>
      <use xlink:href="#ArialMT-41"/>
      <use x="66.699219" xlink:href="#ArialMT-70"/>
      <use x="122.314453" xlink:href="#ArialMT-70"/>
      <use x="177.929688" xlink:href="#ArialMT-61"/>
      <use x="233.544922" xlink:href="#ArialMT-72"/>
      <use x="266.845703" xlink:href="#ArialMT-65"/>
      <use x="322.460938" xlink:href="#ArialMT-6e"/>
      <use x="378.076172" xlink:href="#ArialMT-74"/>
      <use x="405.859375" xlink:href="#ArialMT-20"/>
      <use x="433.642578" xlink:href="#ArialMT-50"/>
      <use x="500.341797" xlink:href="#ArialMT-6f"/>
      <use x="555.957031" xlink:href="#ArialMT-77"/>
      <use x="628.173828" xlink:href="#ArialMT-65"/>
      <use x="683.789062" xlink:href="#ArialMT-72"/>
      <use x="717.089844" xlink:href="#ArialMT-20"/>
      <use x="744.873047" xlink:href="#ArialMT-53"/>
     </g>
    </g>
    <g id="line2d_23">
     <path d="M 566.928858 58.137344 
L 588.928858 58.137344 
" style="fill:none;stroke:#55a868;stroke-linecap:round;stroke-width:1.5;"/>
    </g>
    <g id="line2d_24"/>
    <g id="text_18">
     <!-- Reactive Power Q -->
     <g style="fill:#262626;" transform="translate(597.728858 61.987344)scale(0.11 -0.11)">
      <defs>
       <path d="M 503 0 
L 503 4581 
L 2534 4581 
Q 3147 4581 3465 4457 
Q 3784 4334 3975 4021 
Q 4166 3709 4166 3331 
Q 4166 2844 3850 2509 
Q 3534 2175 2875 2084 
Q 3116 1969 3241 1856 
Q 3506 1613 3744 1247 
L 4541 0 
L 3778 0 
L 3172 953 
Q 2906 1366 2734 1584 
Q 2563 1803 2427 1890 
Q 2291 1978 2150 2013 
Q 2047 2034 1813 2034 
L 1109 2034 
L 1109 0 
L 503 0 
z
M 1109 2559 
L 2413 2559 
Q 2828 2559 3062 2645 
Q 3297 2731 3419 2920 
Q 3541 3109 3541 3331 
Q 3541 3656 3305 3865 
Q 3069 4075 2559 4075 
L 1109 4075 
L 1109 2559 
z
" id="ArialMT-52" transform="scale(0.015625)"/>
       <path d="M 3966 491 
Q 4388 200 4744 66 
L 4566 -356 
Q 4072 -178 3581 206 
Q 3072 -78 2456 -78 
Q 1834 -78 1328 222 
Q 822 522 548 1065 
Q 275 1609 275 2291 
Q 275 2969 550 3525 
Q 825 4081 1333 4372 
Q 1841 4663 2469 4663 
Q 3103 4663 3612 4361 
Q 4122 4059 4389 3517 
Q 4656 2975 4656 2294 
Q 4656 1728 4484 1276 
Q 4313 825 3966 491 
z
M 2631 1266 
Q 3156 1119 3497 828 
Q 4031 1316 4031 2294 
Q 4031 2850 3842 3265 
Q 3653 3681 3289 3911 
Q 2925 4141 2472 4141 
Q 1794 4141 1347 3677 
Q 900 3213 900 2291 
Q 900 1397 1342 919 
Q 1784 441 2472 441 
Q 2797 441 3084 563 
Q 2800 747 2484 825 
L 2631 1266 
z
" id="ArialMT-51" transform="scale(0.015625)"/>
      </defs>
      <use xlink:href="#ArialMT-52"/>
      <use x="72.216797" xlink:href="#ArialMT-65"/>
      <use x="127.832031" xlink:href="#ArialMT-61"/>
      <use x="183.447266" xlink:href="#ArialMT-63"/>
      <use x="233.447266" xlink:href="#ArialMT-74"/>
      <use x="261.230469" xlink:href="#ArialMT-69"/>
      <use x="283.447266" xlink:href="#ArialMT-76"/>
      <use x="333.447266" xlink:href="#ArialMT-65"/>
      <use x="389.0625" xlink:href="#ArialMT-20"/>
      <use x="416.845703" xlink:href="#ArialMT-50"/>
      <use x="483.544922" xlink:href="#ArialMT-6f"/>
      <use x="539.160156" xlink:href="#ArialMT-77"/>
      <use x="611.376953" xlink:href="#ArialMT-65"/>
      <use x="666.992188" xlink:href="#ArialMT-72"/>
      <use x="700.292969" xlink:href="#ArialMT-20"/>
      <use x="728.076172" xlink:href="#ArialMT-51"/>
     </g>
    </g>
    <g id="line2d_25">
     <path d="M 566.928858 73.697188 
L 588.928858 73.697188 
" style="fill:none;stroke:#c44e52;stroke-linecap:round;stroke-width:1.5;"/>
    </g>
    <g id="line2d_26"/>
    <g id="text_19">
     <!-- Distortion Power D -->
     <g style="fill:#262626;" transform="translate(597.728858 77.547188)scale(0.11 -0.11)">
      <defs>
       <path d="M 494 0 
L 494 4581 
L 2072 4581 
Q 2606 4581 2888 4516 
Q 3281 4425 3559 4188 
Q 3922 3881 4101 3404 
Q 4281 2928 4281 2316 
Q 4281 1794 4159 1391 
Q 4038 988 3847 723 
Q 3656 459 3429 307 
Q 3203 156 2883 78 
Q 2563 0 2147 0 
L 494 0 
z
M 1100 541 
L 2078 541 
Q 2531 541 2789 625 
Q 3047 709 3200 863 
Q 3416 1078 3536 1442 
Q 3656 1806 3656 2325 
Q 3656 3044 3420 3430 
Q 3184 3816 2847 3947 
Q 2603 4041 2063 4041 
L 1100 4041 
L 1100 541 
z
" id="ArialMT-44" transform="scale(0.015625)"/>
      </defs>
      <use xlink:href="#ArialMT-44"/>
      <use x="72.216797" xlink:href="#ArialMT-69"/>
      <use x="94.433594" xlink:href="#ArialMT-73"/>
      <use x="144.433594" xlink:href="#ArialMT-74"/>
      <use x="172.216797" xlink:href="#ArialMT-6f"/>
      <use x="227.832031" xlink:href="#ArialMT-72"/>
      <use x="261.132812" xlink:href="#ArialMT-74"/>
      <use x="288.916016" xlink:href="#ArialMT-69"/>
      <use x="311.132812" xlink:href="#ArialMT-6f"/>
      <use x="366.748047" xlink:href="#ArialMT-6e"/>
      <use x="422.363281" xlink:href="#ArialMT-20"/>
      <use x="450.146484" xlink:href="#ArialMT-50"/>
      <use x="516.845703" xlink:href="#ArialMT-6f"/>
      <use x="572.460938" xlink:href="#ArialMT-77"/>
      <use x="644.677734" xlink:href="#ArialMT-65"/>
      <use x="700.292969" xlink:href="#ArialMT-72"/>
      <use x="733.59375" xlink:href="#ArialMT-20"/>
      <use x="761.376953" xlink:href="#ArialMT-44"/>
     </g>
    </g>
   </g>
  </g>
 </g>
 <defs>
  <clipPath id="pa826e3d1f1">
   <rect height="227.7" width="658.500733" x="40.82" y="12.96"/>
  </clipPath>
 </defs>
</svg>
