<?xml version="1.0" encoding="utf-8" standalone="no"?>
<!DOCTYPE svg PUBLIC "-//W3C//DTD SVG 1.1//EN"
  "http://www.w3.org/Graphics/SVG/1.1/DTD/svg11.dtd">
<!-- Created with matplotlib (https://matplotlib.org/) -->
<svg height="288pt" version="1.1" viewBox="0 0 576 288" width="576pt" xmlns="http://www.w3.org/2000/svg" xmlns:xlink="http://www.w3.org/1999/xlink">
 <metadata>
  <rdf:RDF xmlns:cc="http://creativecommons.org/ns#" xmlns:dc="http://purl.org/dc/elements/1.1/" xmlns:rdf="http://www.w3.org/1999/02/22-rdf-syntax-ns#">
   <cc:Work>
    <dc:type rdf:resource="http://purl.org/dc/dcmitype/StillImage"/>
    <dc:date>2021-08-17T17:59:33.311876</dc:date>
    <dc:format>image/svg+xml</dc:format>
    <dc:creator>
     <cc:Agent>
      <dc:title>Matplotlib v3.3.4, https://matplotlib.org/</dc:title>
     </cc:Agent>
    </dc:creator>
   </cc:Work>
  </rdf:RDF>
 </metadata>
 <defs>
  <style type="text/css">*{stroke-linecap:butt;stroke-linejoin:round;}</style>
 </defs>
 <g id="figure_1">
  <g id="patch_1">
   <path d="M 0 288 
L 576 288 
L 576 0 
L 0 0 
z
" style="fill:#ffffff;"/>
  </g>
  <g id="axes_1">
   <g id="patch_2">
    <path d="M 40.835 241.54 
L 555.021086 241.54 
L 555.021086 12.96 
L 40.835 12.96 
z
" style="fill:#eaeaf2;"/>
   </g>
   <g id="matplotlib.axis_1">
    <g id="xtick_1">
     <g id="line2d_1">
      <path clip-path="url(#p8eef8a429f)" d="M 64.207095 241.54 
L 64.207095 12.96 
" style="fill:none;stroke:#ffffff;stroke-linecap:round;"/>
     </g>
     <g id="text_1">
      <!-- 0 -->
      <g style="fill:#262626;" transform="translate(61.148579 258.913594)scale(0.11 -0.11)">
       <defs>
        <path d="M 4.15625 35.296875 
Q 4.15625 48 6.765625 55.734375 
Q 9.375 63.484375 14.515625 67.671875 
Q 19.671875 71.875 27.484375 71.875 
Q 33.25 71.875 37.59375 69.546875 
Q 41.9375 67.234375 44.765625 62.859375 
Q 47.609375 58.5 49.21875 52.21875 
Q 50.828125 45.953125 50.828125 35.296875 
Q 50.828125 22.703125 48.234375 14.96875 
Q 45.65625 7.234375 40.5 3 
Q 35.359375 -1.21875 27.484375 -1.21875 
Q 17.140625 -1.21875 11.234375 6.203125 
Q 4.15625 15.140625 4.15625 35.296875 
z
M 13.1875 35.296875 
Q 13.1875 17.671875 17.3125 11.828125 
Q 21.4375 6 27.484375 6 
Q 33.546875 6 37.671875 11.859375 
Q 41.796875 17.71875 41.796875 35.296875 
Q 41.796875 52.984375 37.671875 58.78125 
Q 33.546875 64.59375 27.390625 64.59375 
Q 21.34375 64.59375 17.71875 59.46875 
Q 13.1875 52.9375 13.1875 35.296875 
z
" id="ArialMT-48"/>
       </defs>
       <use xlink:href="#ArialMT-48"/>
      </g>
     </g>
    </g>
    <g id="xtick_2">
     <g id="line2d_2">
      <path clip-path="url(#p8eef8a429f)" d="M 125.390589 241.54 
L 125.390589 12.96 
" style="fill:none;stroke:#ffffff;stroke-linecap:round;"/>
     </g>
     <g id="text_2">
      <!-- 25 -->
      <g style="fill:#262626;" transform="translate(119.273558 258.913594)scale(0.11 -0.11)">
       <defs>
        <path d="M 50.34375 8.453125 
L 50.34375 0 
L 3.03125 0 
Q 2.9375 3.171875 4.046875 6.109375 
Q 5.859375 10.9375 9.828125 15.625 
Q 13.8125 20.3125 21.34375 26.46875 
Q 33.015625 36.03125 37.109375 41.625 
Q 41.21875 47.21875 41.21875 52.203125 
Q 41.21875 57.421875 37.46875 61 
Q 33.734375 64.59375 27.734375 64.59375 
Q 21.390625 64.59375 17.578125 60.78125 
Q 13.765625 56.984375 13.71875 50.25 
L 4.6875 51.171875 
Q 5.609375 61.28125 11.65625 66.578125 
Q 17.71875 71.875 27.9375 71.875 
Q 38.234375 71.875 44.234375 66.15625 
Q 50.25 60.453125 50.25 52 
Q 50.25 47.703125 48.484375 43.546875 
Q 46.734375 39.40625 42.65625 34.8125 
Q 38.578125 30.21875 29.109375 22.21875 
Q 21.1875 15.578125 18.9375 13.203125 
Q 16.703125 10.84375 15.234375 8.453125 
z
" id="ArialMT-50"/>
        <path d="M 4.15625 18.75 
L 13.375 19.53125 
Q 14.40625 12.796875 18.140625 9.390625 
Q 21.875 6 27.15625 6 
Q 33.5 6 37.890625 10.78125 
Q 42.28125 15.578125 42.28125 23.484375 
Q 42.28125 31 38.0625 35.34375 
Q 33.84375 39.703125 27 39.703125 
Q 22.75 39.703125 19.328125 37.765625 
Q 15.921875 35.84375 13.96875 32.765625 
L 5.71875 33.84375 
L 12.640625 70.609375 
L 48.25 70.609375 
L 48.25 62.203125 
L 19.671875 62.203125 
L 15.828125 42.96875 
Q 22.265625 47.46875 29.34375 47.46875 
Q 38.71875 47.46875 45.15625 40.96875 
Q 51.609375 34.46875 51.609375 24.265625 
Q 51.609375 14.546875 45.953125 7.46875 
Q 39.0625 -1.21875 27.15625 -1.21875 
Q 17.390625 -1.21875 11.203125 4.25 
Q 5.03125 9.71875 4.15625 18.75 
z
" id="ArialMT-53"/>
       </defs>
       <use xlink:href="#ArialMT-50"/>
       <use x="55.615234" xlink:href="#ArialMT-53"/>
      </g>
     </g>
    </g>
    <g id="xtick_3">
     <g id="line2d_3">
      <path clip-path="url(#p8eef8a429f)" d="M 186.574084 241.54 
L 186.574084 12.96 
" style="fill:none;stroke:#ffffff;stroke-linecap:round;"/>
     </g>
     <g id="text_3">
      <!-- 50 -->
      <g style="fill:#262626;" transform="translate(180.457052 258.913594)scale(0.11 -0.11)">
       <use xlink:href="#ArialMT-53"/>
       <use x="55.615234" xlink:href="#ArialMT-48"/>
      </g>
     </g>
    </g>
    <g id="xtick_4">
     <g id="line2d_4">
      <path clip-path="url(#p8eef8a429f)" d="M 247.757578 241.54 
L 247.757578 12.96 
" style="fill:none;stroke:#ffffff;stroke-linecap:round;"/>
     </g>
     <g id="text_4">
      <!-- 75 -->
      <g style="fill:#262626;" transform="translate(241.640547 258.913594)scale(0.11 -0.11)">
       <defs>
        <path d="M 4.734375 62.203125 
L 4.734375 70.65625 
L 51.078125 70.65625 
L 51.078125 63.8125 
Q 44.234375 56.546875 37.515625 44.484375 
Q 30.8125 32.421875 27.15625 19.671875 
Q 24.515625 10.6875 23.78125 0 
L 14.75 0 
Q 14.890625 8.453125 18.0625 20.40625 
Q 21.234375 32.375 27.171875 43.484375 
Q 33.109375 54.59375 39.796875 62.203125 
z
" id="ArialMT-55"/>
       </defs>
       <use xlink:href="#ArialMT-55"/>
       <use x="55.615234" xlink:href="#ArialMT-53"/>
      </g>
     </g>
    </g>
    <g id="xtick_5">
     <g id="line2d_5">
      <path clip-path="url(#p8eef8a429f)" d="M 308.941072 241.54 
L 308.941072 12.96 
" style="fill:none;stroke:#ffffff;stroke-linecap:round;"/>
     </g>
     <g id="text_5">
      <!-- 100 -->
      <g style="fill:#262626;" transform="translate(299.765525 258.913594)scale(0.11 -0.11)">
       <defs>
        <path d="M 37.25 0 
L 28.46875 0 
L 28.46875 56 
Q 25.296875 52.984375 20.140625 49.953125 
Q 14.984375 46.921875 10.890625 45.40625 
L 10.890625 53.90625 
Q 18.265625 57.375 23.78125 62.296875 
Q 29.296875 67.234375 31.59375 71.875 
L 37.25 71.875 
z
" id="ArialMT-49"/>
       </defs>
       <use xlink:href="#ArialMT-49"/>
       <use x="55.615234" xlink:href="#ArialMT-48"/>
       <use x="111.230469" xlink:href="#ArialMT-48"/>
      </g>
     </g>
    </g>
    <g id="xtick_6">
     <g id="line2d_6">
      <path clip-path="url(#p8eef8a429f)" d="M 370.124567 241.54 
L 370.124567 12.96 
" style="fill:none;stroke:#ffffff;stroke-linecap:round;"/>
     </g>
     <g id="text_6">
      <!-- 125 -->
      <g style="fill:#262626;" transform="translate(360.94902 258.913594)scale(0.11 -0.11)">
       <use xlink:href="#ArialMT-49"/>
       <use x="55.615234" xlink:href="#ArialMT-50"/>
       <use x="111.230469" xlink:href="#ArialMT-53"/>
      </g>
     </g>
    </g>
    <g id="xtick_7">
     <g id="line2d_7">
      <path clip-path="url(#p8eef8a429f)" d="M 431.308061 241.54 
L 431.308061 12.96 
" style="fill:none;stroke:#ffffff;stroke-linecap:round;"/>
     </g>
     <g id="text_7">
      <!-- 150 -->
      <g style="fill:#262626;" transform="translate(422.132514 258.913594)scale(0.11 -0.11)">
       <use xlink:href="#ArialMT-49"/>
       <use x="55.615234" xlink:href="#ArialMT-53"/>
       <use x="111.230469" xlink:href="#ArialMT-48"/>
      </g>
     </g>
    </g>
    <g id="xtick_8">
     <g id="line2d_8">
      <path clip-path="url(#p8eef8a429f)" d="M 492.491555 241.54 
L 492.491555 12.96 
" style="fill:none;stroke:#ffffff;stroke-linecap:round;"/>
     </g>
     <g id="text_8">
      <!-- 175 -->
      <g style="fill:#262626;" transform="translate(483.316008 258.913594)scale(0.11 -0.11)">
       <use xlink:href="#ArialMT-49"/>
       <use x="55.615234" xlink:href="#ArialMT-55"/>
       <use x="111.230469" xlink:href="#ArialMT-53"/>
      </g>
     </g>
    </g>
    <g id="xtick_9">
     <g id="line2d_9">
      <path clip-path="url(#p8eef8a429f)" d="M 553.67505 241.54 
L 553.67505 12.96 
" style="fill:none;stroke:#ffffff;stroke-linecap:round;"/>
     </g>
     <g id="text_9">
      <!-- 200 -->
      <g style="fill:#262626;" transform="translate(544.499503 258.913594)scale(0.11 -0.11)">
       <use xlink:href="#ArialMT-50"/>
       <use x="55.615234" xlink:href="#ArialMT-48"/>
       <use x="111.230469" xlink:href="#ArialMT-48"/>
      </g>
     </g>
    </g>
    <g id="text_10">
     <!-- Number of cycles -->
     <g style="fill:#262626;" transform="translate(251.582731 273.835469)scale(0.12 -0.12)">
      <defs>
       <path d="M 7.625 0 
L 7.625 71.578125 
L 17.328125 71.578125 
L 54.9375 15.375 
L 54.9375 71.578125 
L 64.015625 71.578125 
L 64.015625 0 
L 54.296875 0 
L 16.703125 56.25 
L 16.703125 0 
z
" id="ArialMT-78"/>
       <path d="M 40.578125 0 
L 40.578125 7.625 
Q 34.515625 -1.171875 24.125 -1.171875 
Q 19.53125 -1.171875 15.546875 0.578125 
Q 11.578125 2.34375 9.640625 5 
Q 7.71875 7.671875 6.9375 11.53125 
Q 6.390625 14.109375 6.390625 19.734375 
L 6.390625 51.859375 
L 15.1875 51.859375 
L 15.1875 23.09375 
Q 15.1875 16.21875 15.71875 13.8125 
Q 16.546875 10.359375 19.234375 8.375 
Q 21.921875 6.390625 25.875 6.390625 
Q 29.828125 6.390625 33.296875 8.421875 
Q 36.765625 10.453125 38.203125 13.9375 
Q 39.65625 17.4375 39.65625 24.078125 
L 39.65625 51.859375 
L 48.4375 51.859375 
L 48.4375 0 
z
" id="ArialMT-117"/>
       <path d="M 6.59375 0 
L 6.59375 51.859375 
L 14.453125 51.859375 
L 14.453125 44.578125 
Q 16.890625 48.390625 20.9375 50.703125 
Q 25 53.03125 30.171875 53.03125 
Q 35.9375 53.03125 39.625 50.640625 
Q 43.3125 48.25 44.828125 43.953125 
Q 50.984375 53.03125 60.84375 53.03125 
Q 68.5625 53.03125 72.703125 48.75 
Q 76.859375 44.484375 76.859375 35.59375 
L 76.859375 0 
L 68.109375 0 
L 68.109375 32.671875 
Q 68.109375 37.9375 67.25 40.25 
Q 66.40625 42.578125 64.15625 43.984375 
Q 61.921875 45.40625 58.890625 45.40625 
Q 53.421875 45.40625 49.796875 41.765625 
Q 46.1875 38.140625 46.1875 30.125 
L 46.1875 0 
L 37.40625 0 
L 37.40625 33.6875 
Q 37.40625 39.546875 35.25 42.46875 
Q 33.109375 45.40625 28.21875 45.40625 
Q 24.515625 45.40625 21.359375 43.453125 
Q 18.21875 41.5 16.796875 37.734375 
Q 15.375 33.984375 15.375 26.90625 
L 15.375 0 
z
" id="ArialMT-109"/>
       <path d="M 14.703125 0 
L 6.546875 0 
L 6.546875 71.578125 
L 15.328125 71.578125 
L 15.328125 46.046875 
Q 20.90625 53.03125 29.546875 53.03125 
Q 34.328125 53.03125 38.59375 51.09375 
Q 42.875 49.171875 45.625 45.671875 
Q 48.390625 42.1875 49.953125 37.25 
Q 51.515625 32.328125 51.515625 26.703125 
Q 51.515625 13.375 44.921875 6.09375 
Q 38.328125 -1.171875 29.109375 -1.171875 
Q 19.921875 -1.171875 14.703125 6.5 
z
M 14.59375 26.3125 
Q 14.59375 17 17.140625 12.84375 
Q 21.296875 6.0625 28.375 6.0625 
Q 34.125 6.0625 38.328125 11.0625 
Q 42.53125 16.0625 42.53125 25.984375 
Q 42.53125 36.140625 38.5 40.96875 
Q 34.46875 45.796875 28.765625 45.796875 
Q 23 45.796875 18.796875 40.796875 
Q 14.59375 35.796875 14.59375 26.3125 
z
" id="ArialMT-98"/>
       <path d="M 42.09375 16.703125 
L 51.171875 15.578125 
Q 49.03125 7.625 43.21875 3.21875 
Q 37.40625 -1.171875 28.375 -1.171875 
Q 17 -1.171875 10.328125 5.828125 
Q 3.65625 12.84375 3.65625 25.484375 
Q 3.65625 38.578125 10.390625 45.796875 
Q 17.140625 53.03125 27.875 53.03125 
Q 38.28125 53.03125 44.875 45.953125 
Q 51.46875 38.875 51.46875 26.03125 
Q 51.46875 25.25 51.421875 23.6875 
L 12.75 23.6875 
Q 13.234375 15.140625 17.578125 10.59375 
Q 21.921875 6.0625 28.421875 6.0625 
Q 33.25 6.0625 36.671875 8.59375 
Q 40.09375 11.140625 42.09375 16.703125 
z
M 13.234375 30.90625 
L 42.1875 30.90625 
Q 41.609375 37.453125 38.875 40.71875 
Q 34.671875 45.796875 27.984375 45.796875 
Q 21.921875 45.796875 17.796875 41.75 
Q 13.671875 37.703125 13.234375 30.90625 
z
" id="ArialMT-101"/>
       <path d="M 6.5 0 
L 6.5 51.859375 
L 14.40625 51.859375 
L 14.40625 44 
Q 17.4375 49.515625 20 51.265625 
Q 22.5625 53.03125 25.640625 53.03125 
Q 30.078125 53.03125 34.671875 50.203125 
L 31.640625 42.046875 
Q 28.421875 43.953125 25.203125 43.953125 
Q 22.3125 43.953125 20.015625 42.21875 
Q 17.71875 40.484375 16.75 37.40625 
Q 15.28125 32.71875 15.28125 27.15625 
L 15.28125 0 
z
" id="ArialMT-114"/>
       <path id="ArialMT-32"/>
       <path d="M 3.328125 25.921875 
Q 3.328125 40.328125 11.328125 47.265625 
Q 18.015625 53.03125 27.640625 53.03125 
Q 38.328125 53.03125 45.109375 46.015625 
Q 51.90625 39.015625 51.90625 26.65625 
Q 51.90625 16.65625 48.90625 10.90625 
Q 45.90625 5.171875 40.15625 2 
Q 34.421875 -1.171875 27.640625 -1.171875 
Q 16.75 -1.171875 10.03125 5.8125 
Q 3.328125 12.796875 3.328125 25.921875 
z
M 12.359375 25.921875 
Q 12.359375 15.96875 16.703125 11.015625 
Q 21.046875 6.0625 27.640625 6.0625 
Q 34.1875 6.0625 38.53125 11.03125 
Q 42.875 16.015625 42.875 26.21875 
Q 42.875 35.84375 38.5 40.796875 
Q 34.125 45.75 27.640625 45.75 
Q 21.046875 45.75 16.703125 40.8125 
Q 12.359375 35.890625 12.359375 25.921875 
z
" id="ArialMT-111"/>
       <path d="M 8.6875 0 
L 8.6875 45.015625 
L 0.921875 45.015625 
L 0.921875 51.859375 
L 8.6875 51.859375 
L 8.6875 57.375 
Q 8.6875 62.59375 9.625 65.140625 
Q 10.890625 68.5625 14.078125 70.671875 
Q 17.28125 72.796875 23.046875 72.796875 
Q 26.765625 72.796875 31.25 71.921875 
L 29.9375 64.265625 
Q 27.203125 64.75 24.75 64.75 
Q 20.75 64.75 19.09375 63.03125 
Q 17.4375 61.328125 17.4375 56.640625 
L 17.4375 51.859375 
L 27.546875 51.859375 
L 27.546875 45.015625 
L 17.4375 45.015625 
L 17.4375 0 
z
" id="ArialMT-102"/>
       <path d="M 40.4375 19 
L 49.078125 17.875 
Q 47.65625 8.9375 41.8125 3.875 
Q 35.984375 -1.171875 27.484375 -1.171875 
Q 16.84375 -1.171875 10.375 5.78125 
Q 3.90625 12.75 3.90625 25.734375 
Q 3.90625 34.125 6.6875 40.421875 
Q 9.46875 46.734375 15.15625 49.875 
Q 20.84375 53.03125 27.546875 53.03125 
Q 35.984375 53.03125 41.359375 48.75 
Q 46.734375 44.484375 48.25 36.625 
L 39.703125 35.296875 
Q 38.484375 40.53125 35.375 43.15625 
Q 32.28125 45.796875 27.875 45.796875 
Q 21.234375 45.796875 17.078125 41.03125 
Q 12.9375 36.28125 12.9375 25.984375 
Q 12.9375 15.53125 16.9375 10.796875 
Q 20.953125 6.0625 27.390625 6.0625 
Q 32.5625 6.0625 36.03125 9.234375 
Q 39.5 12.40625 40.4375 19 
z
" id="ArialMT-99"/>
       <path d="M 6.203125 -19.96875 
L 5.21875 -11.71875 
Q 8.109375 -12.5 10.25 -12.5 
Q 13.1875 -12.5 14.9375 -11.515625 
Q 16.703125 -10.546875 17.828125 -8.796875 
Q 18.65625 -7.46875 20.515625 -2.25 
Q 20.75 -1.515625 21.296875 -0.09375 
L 1.609375 51.859375 
L 11.078125 51.859375 
L 21.875 21.828125 
Q 23.96875 16.109375 25.640625 9.8125 
Q 27.15625 15.875 29.25 21.625 
L 40.328125 51.859375 
L 49.125 51.859375 
L 29.390625 -0.875 
Q 26.21875 -9.421875 24.46875 -12.640625 
Q 22.125 -17 19.09375 -19.015625 
Q 16.0625 -21.046875 11.859375 -21.046875 
Q 9.328125 -21.046875 6.203125 -19.96875 
z
" id="ArialMT-121"/>
       <path d="M 6.390625 0 
L 6.390625 71.578125 
L 15.1875 71.578125 
L 15.1875 0 
z
" id="ArialMT-108"/>
       <path d="M 3.078125 15.484375 
L 11.765625 16.84375 
Q 12.5 11.625 15.84375 8.84375 
Q 19.1875 6.0625 25.203125 6.0625 
Q 31.25 6.0625 34.171875 8.515625 
Q 37.109375 10.984375 37.109375 14.3125 
Q 37.109375 17.28125 34.515625 19 
Q 32.71875 20.171875 25.53125 21.96875 
Q 15.875 24.421875 12.140625 26.203125 
Q 8.40625 27.984375 6.46875 31.125 
Q 4.546875 34.28125 4.546875 38.09375 
Q 4.546875 41.546875 6.125 44.5 
Q 7.71875 47.46875 10.453125 49.421875 
Q 12.5 50.921875 16.03125 51.96875 
Q 19.578125 53.03125 23.640625 53.03125 
Q 29.734375 53.03125 34.34375 51.265625 
Q 38.96875 49.515625 41.15625 46.5 
Q 43.359375 43.5 44.1875 38.484375 
L 35.59375 37.3125 
Q 35.015625 41.3125 32.203125 43.546875 
Q 29.390625 45.796875 24.265625 45.796875 
Q 18.21875 45.796875 15.625 43.796875 
Q 13.03125 41.796875 13.03125 39.109375 
Q 13.03125 37.40625 14.109375 36.03125 
Q 15.1875 34.625 17.484375 33.6875 
Q 18.796875 33.203125 25.25 31.453125 
Q 34.578125 28.953125 38.25 27.359375 
Q 41.9375 25.78125 44.03125 22.75 
Q 46.140625 19.734375 46.140625 15.234375 
Q 46.140625 10.84375 43.578125 6.953125 
Q 41.015625 3.078125 36.171875 0.953125 
Q 31.34375 -1.171875 25.25 -1.171875 
Q 15.140625 -1.171875 9.84375 3.03125 
Q 4.546875 7.234375 3.078125 15.484375 
z
" id="ArialMT-115"/>
      </defs>
      <use xlink:href="#ArialMT-78"/>
      <use x="72.216797" xlink:href="#ArialMT-117"/>
      <use x="127.832031" xlink:href="#ArialMT-109"/>
      <use x="211.132812" xlink:href="#ArialMT-98"/>
      <use x="266.748047" xlink:href="#ArialMT-101"/>
      <use x="322.363281" xlink:href="#ArialMT-114"/>
      <use x="355.664062" xlink:href="#ArialMT-32"/>
      <use x="383.447266" xlink:href="#ArialMT-111"/>
      <use x="439.0625" xlink:href="#ArialMT-102"/>
      <use x="466.845703" xlink:href="#ArialMT-32"/>
      <use x="494.628906" xlink:href="#ArialMT-99"/>
      <use x="544.628906" xlink:href="#ArialMT-121"/>
      <use x="594.628906" xlink:href="#ArialMT-99"/>
      <use x="644.628906" xlink:href="#ArialMT-108"/>
      <use x="666.845703" xlink:href="#ArialMT-101"/>
      <use x="722.460938" xlink:href="#ArialMT-115"/>
     </g>
    </g>
   </g>
   <g id="matplotlib.axis_2">
    <g id="ytick_1">
     <g id="line2d_10">
      <path clip-path="url(#p8eef8a429f)" d="M 40.835 231.15 
L 555.021086 231.15 
" style="fill:none;stroke:#ffffff;stroke-linecap:round;"/>
     </g>
     <g id="text_11">
      <!-- 0 -->
      <g style="fill:#262626;" transform="translate(25.217969 235.086797)scale(0.11 -0.11)">
       <use xlink:href="#ArialMT-48"/>
      </g>
     </g>
    </g>
    <g id="ytick_2">
     <g id="line2d_11">
      <path clip-path="url(#p8eef8a429f)" d="M 40.835 184.497624 
L 555.021086 184.497624 
" style="fill:none;stroke:#ffffff;stroke-linecap:round;"/>
     </g>
     <g id="text_12">
      <!-- 50 -->
      <g style="fill:#262626;" transform="translate(19.100938 188.434421)scale(0.11 -0.11)">
       <use xlink:href="#ArialMT-53"/>
       <use x="55.615234" xlink:href="#ArialMT-48"/>
      </g>
     </g>
    </g>
    <g id="ytick_3">
     <g id="line2d_12">
      <path clip-path="url(#p8eef8a429f)" d="M 40.835 137.845249 
L 555.021086 137.845249 
" style="fill:none;stroke:#ffffff;stroke-linecap:round;"/>
     </g>
     <g id="text_13">
      <!-- 100 -->
      <g style="fill:#262626;" transform="translate(12.983906 141.782046)scale(0.11 -0.11)">
       <use xlink:href="#ArialMT-49"/>
       <use x="55.615234" xlink:href="#ArialMT-48"/>
       <use x="111.230469" xlink:href="#ArialMT-48"/>
      </g>
     </g>
    </g>
    <g id="ytick_4">
     <g id="line2d_13">
      <path clip-path="url(#p8eef8a429f)" d="M 40.835 91.192873 
L 555.021086 91.192873 
" style="fill:none;stroke:#ffffff;stroke-linecap:round;"/>
     </g>
     <g id="text_14">
      <!-- 150 -->
      <g style="fill:#262626;" transform="translate(12.983906 95.12967)scale(0.11 -0.11)">
       <use xlink:href="#ArialMT-49"/>
       <use x="55.615234" xlink:href="#ArialMT-53"/>
       <use x="111.230469" xlink:href="#ArialMT-48"/>
      </g>
     </g>
    </g>
    <g id="ytick_5">
     <g id="line2d_14">
      <path clip-path="url(#p8eef8a429f)" d="M 40.835 44.540498 
L 555.021086 44.540498 
" style="fill:none;stroke:#ffffff;stroke-linecap:round;"/>
     </g>
     <g id="text_15">
      <!-- 200 -->
      <g style="fill:#262626;" transform="translate(12.983906 48.477294)scale(0.11 -0.11)">
       <use xlink:href="#ArialMT-50"/>
       <use x="55.615234" xlink:href="#ArialMT-48"/>
       <use x="111.230469" xlink:href="#ArialMT-48"/>
      </g>
     </g>
    </g>
   </g>
   <g id="line2d_15">
    <path clip-path="url(#p8eef8a429f)" d="M 64.207095 228.091441 
L 66.654435 227.795981 
L 69.101774 226.337761 
L 71.549114 228.418463 
L 73.996454 228.532974 
L 76.443794 228.010513 
L 78.891133 228.840595 
L 81.338473 230.436117 
L 83.785813 226.992481 
L 86.233153 229.178005 
L 88.680493 227.988188 
L 91.127832 227.714048 
L 93.575172 229.514383 
L 96.022512 228.763498 
L 98.469852 228.812947 
L 100.917191 228.559653 
L 103.364531 227.940797 
L 108.259211 227.580646 
L 110.706551 226.367052 
L 113.15389 227.946794 
L 115.60123 228.073946 
L 118.04857 227.849527 
L 120.49591 230.166922 
L 122.943249 228.746706 
L 125.390589 230.411042 
L 127.837929 228.211793 
L 130.285269 229.444643 
L 132.732608 228.417843 
L 135.179948 229.144881 
L 137.627288 227.700594 
L 140.074628 228.88313 
L 142.521968 228.590962 
L 144.969307 227.555803 
L 147.416647 228.854049 
L 149.863987 228.790467 
L 152.311327 228.485817 
L 154.758666 228.470178 
L 157.206006 227.771824 
L 159.653346 227.908682 
L 162.100686 228.761371 
L 164.548026 229.054036 
L 166.995365 228.2914 
L 169.442705 227.721935 
L 171.890045 227.397967 
L 174.337385 228.64627 
L 176.784724 227.946171 
L 179.232064 229.558505 
L 181.679404 227.59159 
L 184.126744 228.680985 
L 186.574084 227.499203 
L 189.021423 228.405396 
L 191.468763 227.363937 
L 193.916103 229.355204 
L 196.363443 229.401451 
L 198.810782 227.721172 
L 201.258122 228.00474 
L 203.705462 228.142205 
L 206.152802 226.747211 
L 208.600141 229.233705 
L 211.047481 227.947092 
L 213.494821 229.385255 
L 215.942161 228.823944 
L 218.389501 228.122538 
L 220.83684 228.800185 
L 223.28418 227.321124 
L 225.73152 228.199159 
L 228.17886 227.793919 
L 230.626199 228.973471 
L 233.073539 229.175982 
L 235.520879 227.652847 
L 237.968219 228.73957 
L 240.415559 224.423597 
L 242.862898 230.212346 
L 245.310238 226.378526 
L 247.757578 228.442176 
L 250.204918 228.676585 
L 252.652257 227.592237 
L 255.099597 224.849416 
L 257.546937 226.038049 
L 259.994277 224.399269 
L 262.441616 224.510422 
L 264.888956 223.731929 
L 267.336296 224.790159 
L 269.783636 225.054305 
L 272.230976 220.909392 
L 274.678315 223.421317 
L 277.125655 222.647294 
L 279.572995 224.224606 
L 282.020335 224.94832 
L 284.467674 222.004291 
L 286.915014 224.096594 
L 289.362354 224.893389 
L 291.809694 227.093459 
L 294.257034 226.19413 
L 296.704373 226.608427 
L 299.151713 225.776027 
L 301.599053 225.653606 
L 304.046393 227.601079 
L 306.493732 224.643418 
L 308.941072 220.222098 
L 311.388412 27.126881 
L 313.835752 144.356557 
L 316.283091 185.288485 
L 318.730431 181.240372 
L 321.177771 197.610362 
L 323.625111 203.906211 
L 326.072451 194.220166 
L 328.51979 177.298654 
L 330.96713 172.801967 
L 333.41447 178.976893 
L 335.86181 184.152782 
L 338.309149 184.136128 
L 340.756489 180.960092 
L 343.203829 182.083466 
L 345.651169 181.087255 
L 348.098509 181.51957 
L 350.545848 181.108379 
L 352.993188 181.530255 
L 355.440528 182.586967 
L 357.887868 181.923301 
L 360.335207 180.698448 
L 362.782547 179.837559 
L 365.229887 181.683081 
L 367.677227 181.3568 
L 370.124567 182.237747 
L 372.571906 181.782524 
L 375.019246 181.678657 
L 377.466586 182.001919 
L 379.913926 181.431958 
L 382.361265 181.575519 
L 384.808605 181.103784 
L 387.255945 182.241217 
L 389.703285 182.350993 
L 392.150624 182.911696 
L 394.597964 184.025925 
L 397.045304 183.845103 
L 399.492644 181.703201 
L 401.939984 181.945458 
L 404.387323 181.495848 
L 406.834663 182.521732 
L 411.729343 181.615572 
L 414.176682 181.889353 
L 416.624022 182.019306 
L 419.071362 181.006285 
L 423.966042 182.098265 
L 426.413381 181.676799 
L 428.860721 181.82468 
L 431.308061 182.193181 
L 433.755401 180.769827 
L 436.20274 180.545274 
L 438.65008 182.265036 
L 441.09742 181.967835 
L 443.54476 181.242914 
L 448.439439 181.497887 
L 450.886779 183.223155 
L 453.334119 181.928241 
L 455.781459 182.237053 
L 458.228798 181.73075 
L 460.676138 183.925148 
L 463.123478 182.162443 
L 465.570818 180.967293 
L 468.018157 181.298574 
L 470.465497 180.28352 
L 472.912837 182.762572 
L 475.360177 182.60513 
L 477.807517 181.023045 
L 480.254856 181.989515 
L 482.702196 180.01227 
L 485.149536 182.954236 
L 487.596876 181.718218 
L 490.044215 182.133392 
L 492.491555 182.361657 
L 494.938895 184.049431 
L 497.386235 181.290459 
L 499.833574 182.704563 
L 502.280914 183.147022 
L 504.728254 181.769586 
L 507.175594 183.25326 
L 509.622934 181.801684 
L 514.517613 182.70468 
L 516.964953 182.632989 
L 519.412293 182.699725 
L 521.859632 183.89468 
L 524.306972 181.652368 
L 526.754312 180.819464 
L 529.201652 181.141815 
L 531.648992 182.700644 
L 531.648992 182.700644 
" style="fill:none;stroke:#4c72b0;stroke-linecap:round;stroke-width:1.5;"/>
   </g>
   <g id="line2d_16">
    <path clip-path="url(#p8eef8a429f)" d="M 64.207095 226.042668 
L 66.654435 224.952136 
L 69.101774 224.174394 
L 71.549114 225.686011 
L 73.996454 226.584929 
L 76.443794 226.063994 
L 78.891133 225.998696 
L 81.338473 226.375564 
L 83.785813 226.256121 
L 86.233153 225.354306 
L 88.680493 225.811758 
L 91.127832 225.134748 
L 93.575172 226.890744 
L 96.022512 226.284223 
L 98.469852 226.742474 
L 100.917191 226.627475 
L 103.364531 225.75442 
L 105.811871 225.737095 
L 108.259211 225.122459 
L 110.706551 224.248064 
L 113.15389 225.176357 
L 115.60123 225.905465 
L 118.04857 224.724485 
L 120.49591 226.28035 
L 122.943249 226.184585 
L 125.390589 227.569154 
L 127.837929 226.305553 
L 130.285269 226.459699 
L 132.732608 225.739953 
L 135.179948 225.423928 
L 137.627288 225.236374 
L 140.074628 226.122165 
L 144.969307 224.59787 
L 147.416647 226.05259 
L 149.863987 225.868753 
L 152.311327 226.960354 
L 154.758666 225.707266 
L 157.206006 225.954937 
L 159.653346 226.053263 
L 162.100686 227.409406 
L 164.548026 225.749294 
L 169.442705 226.747073 
L 171.890045 225.165059 
L 174.337385 226.457322 
L 176.784724 226.335666 
L 179.232064 226.986269 
L 181.679404 225.366868 
L 184.126744 226.483194 
L 186.574084 225.477338 
L 189.021423 226.947467 
L 191.468763 225.481718 
L 193.916103 226.233479 
L 196.363443 226.39134 
L 198.810782 225.12192 
L 201.258122 225.717672 
L 203.705462 225.283575 
L 206.152802 225.361238 
L 208.600141 226.582634 
L 211.047481 225.333946 
L 213.494821 226.756508 
L 215.942161 226.16824 
L 218.389501 225.198182 
L 220.83684 225.953973 
L 223.28418 226.496618 
L 228.17886 225.821534 
L 230.626199 226.390752 
L 233.073539 225.721903 
L 235.520879 225.978413 
L 237.968219 225.330808 
L 240.415559 220.373359 
L 242.862898 226.427512 
L 245.310238 224.106744 
L 250.204918 224.034751 
L 252.652257 225.094427 
L 255.099597 219.729766 
L 257.546937 222.40652 
L 259.994277 223.129721 
L 262.441616 221.648811 
L 264.888956 219.7172 
L 267.336296 221.446748 
L 269.783636 221.630868 
L 272.230976 216.894341 
L 274.678315 220.332746 
L 277.125655 217.430966 
L 279.572995 220.299168 
L 282.020335 221.585101 
L 284.467674 217.480177 
L 286.915014 219.753889 
L 289.362354 219.005382 
L 291.809694 223.053969 
L 294.257034 222.31294 
L 296.704373 223.525986 
L 299.151713 221.852878 
L 301.599053 222.71362 
L 304.046393 224.062728 
L 306.493732 221.886504 
L 308.941072 213.949745 
L 311.388412 23.35 
L 313.835752 109.217279 
L 316.283091 168.781947 
L 318.730431 174.630824 
L 321.177771 195.15179 
L 323.625111 202.150839 
L 326.072451 192.377388 
L 328.51979 175.391335 
L 330.96713 170.599572 
L 333.41447 177.177709 
L 335.86181 182.830177 
L 338.309149 182.281896 
L 340.756489 178.962905 
L 343.203829 179.892183 
L 345.651169 179.31058 
L 348.098509 180.168317 
L 350.545848 179.406713 
L 352.993188 179.945074 
L 355.440528 180.993546 
L 357.887868 180.35571 
L 360.335207 179.022163 
L 362.782547 178.016471 
L 365.229887 179.535093 
L 367.677227 179.510755 
L 370.124567 180.003265 
L 375.019246 179.757542 
L 377.466586 180.080772 
L 379.913926 179.674482 
L 382.361265 180.095999 
L 384.808605 179.482515 
L 389.703285 180.710493 
L 392.150624 181.050409 
L 394.597964 182.254864 
L 397.045304 182.031525 
L 399.492644 179.811682 
L 401.939984 180.258612 
L 404.387323 179.965935 
L 406.834663 180.93822 
L 409.282003 180.098999 
L 411.729343 179.959724 
L 414.176682 180.26813 
L 416.624022 180.111514 
L 419.071362 178.991497 
L 421.518702 179.388611 
L 423.966042 180.39845 
L 426.413381 179.779709 
L 428.860721 179.871553 
L 431.308061 180.492526 
L 433.755401 179.167828 
L 436.20274 178.789912 
L 438.65008 180.198681 
L 441.09742 180.212292 
L 443.54476 179.652828 
L 445.992099 179.532381 
L 448.439439 179.618982 
L 450.886779 181.25094 
L 453.334119 179.890556 
L 455.781459 180.110663 
L 458.228798 179.599467 
L 460.676138 181.961332 
L 463.123478 180.268329 
L 465.570818 179.341332 
L 468.018157 179.482145 
L 470.465497 178.591065 
L 472.912837 180.88114 
L 475.360177 180.628597 
L 477.807517 179.163047 
L 480.254856 180.429049 
L 482.702196 178.024137 
L 485.149536 181.057944 
L 487.596876 179.942376 
L 490.044215 180.070069 
L 492.491555 180.347321 
L 494.938895 182.260957 
L 497.386235 179.233767 
L 499.833574 180.898929 
L 502.280914 181.335847 
L 504.728254 180.033441 
L 507.175594 181.468847 
L 509.622934 179.900483 
L 512.070273 180.276654 
L 514.517613 180.861268 
L 516.964953 180.726015 
L 519.412293 180.880827 
L 521.859632 181.997011 
L 524.306972 180.124918 
L 526.754312 178.905988 
L 529.201652 179.481946 
L 531.648992 180.653256 
L 531.648992 180.653256 
" style="fill:none;stroke:#dd8452;stroke-linecap:round;stroke-width:1.5;"/>
   </g>
   <g id="line2d_17">
    <path clip-path="url(#p8eef8a429f)" d="M 64.207095 227.059761 
L 66.654435 225.938084 
L 69.101774 226.100105 
L 71.549114 226.417782 
L 73.996454 227.409539 
L 76.443794 227.148616 
L 78.891133 226.545374 
L 81.338473 226.429236 
L 83.785813 228.568316 
L 86.233153 225.70011 
L 88.680493 226.848864 
L 91.127832 226.212643 
L 93.575172 227.217314 
L 96.022512 226.90967 
L 98.469852 227.413093 
L 100.917191 227.442799 
L 103.364531 226.81257 
L 105.811871 226.927306 
L 108.259211 226.292947 
L 113.15389 226.10779 
L 115.60123 226.90229 
L 118.04857 225.636914 
L 120.49591 226.380613 
L 122.943249 226.804942 
L 125.390589 227.646231 
L 127.837929 227.298298 
L 130.285269 226.780711 
L 132.732608 226.480532 
L 135.179948 225.786475 
L 137.627288 226.346609 
L 140.074628 226.662191 
L 142.521968 225.928092 
L 144.969307 225.671666 
L 147.416647 226.598934 
L 149.863987 226.425154 
L 152.311327 227.91654 
L 154.758666 226.412711 
L 157.206006 227.20328 
L 159.653346 227.216733 
L 162.100686 228.271372 
L 164.548026 226.172595 
L 166.995365 227.187485 
L 169.442705 228.387005 
L 171.890045 226.487193 
L 174.337385 227.18105 
L 176.784724 227.556494 
L 179.232064 227.30243 
L 181.679404 226.591235 
L 184.126744 227.189818 
L 186.574084 226.808252 
L 189.021423 227.96748 
L 191.468763 226.93157 
L 193.916103 226.572786 
L 196.363443 226.724232 
L 198.810782 226.192089 
L 201.258122 226.720833 
L 203.705462 226.113323 
L 206.152802 227.391648 
L 208.600141 227.004081 
L 211.047481 226.295325 
L 213.494821 227.126513 
L 215.942161 226.744617 
L 218.389501 226.025684 
L 220.83684 226.515664 
L 223.28418 228.505446 
L 225.73152 227.179115 
L 230.626199 226.917605 
L 233.073539 226.09357 
L 235.520879 227.340115 
L 237.968219 225.853508 
L 240.415559 222.730291 
L 242.862898 226.521534 
L 245.310238 225.969219 
L 247.757578 224.633364 
L 250.204918 224.478494 
L 252.652257 226.249767 
L 255.099597 221.625064 
L 257.546937 224.056594 
L 259.994277 226.819582 
L 262.441616 224.353781 
L 264.888956 222.450509 
L 267.336296 223.821595 
L 269.783636 223.838613 
L 272.230976 221.232653 
L 274.678315 223.581616 
L 277.125655 220.383577 
L 279.572995 222.796589 
L 282.020335 223.868073 
L 284.467674 220.990273 
L 286.915014 222.198978 
L 289.362354 220.741034 
L 291.809694 224.14356 
L 294.257034 223.833376 
L 296.704373 225.0263 
L 299.151713 223.563374 
L 301.599053 224.749832 
L 304.046393 225.015297 
L 306.493732 224.55631 
L 308.941072 217.867315 
L 311.388412 191.711363 
L 313.835752 145.508387 
L 316.283091 188.883045 
L 318.730431 204.627438 
L 321.177771 218.07469 
L 323.625111 221.213836 
L 326.072451 219.338868 
L 328.51979 216.691049 
L 330.96713 214.967865 
L 333.41447 217.330633 
L 335.86181 219.922048 
L 338.309149 217.816305 
L 340.756489 216.850836 
L 343.203829 216.323027 
L 345.651169 217.694629 
L 348.098509 219.490133 
L 350.545848 217.989303 
L 352.993188 218.507793 
L 357.887868 218.628331 
L 362.782547 217.358507 
L 365.229887 216.414926 
L 367.677227 217.466104 
L 370.124567 216.197405 
L 372.571906 217.253685 
L 377.466586 217.27441 
L 379.913926 217.814137 
L 382.361265 218.948289 
L 384.808605 218.308451 
L 387.255945 216.390331 
L 389.703285 218.390667 
L 392.150624 217.620961 
L 394.597964 218.10945 
L 397.045304 217.926107 
L 399.492644 217.342866 
L 401.939984 218.155911 
L 404.387323 218.729302 
L 406.834663 218.639428 
L 409.282003 217.172264 
L 411.729343 218.235485 
L 414.176682 218.408203 
L 416.624022 217.326035 
L 419.071362 216.793213 
L 421.518702 216.421426 
L 423.966042 218.12513 
L 426.413381 217.318543 
L 428.860721 217.132443 
L 431.308061 218.134264 
L 433.755401 218.344367 
L 436.20274 217.706023 
L 438.65008 216.786951 
L 441.09742 217.892366 
L 443.54476 218.451915 
L 445.992099 217.62481 
L 448.439439 217.361837 
L 450.886779 217.259934 
L 453.334119 216.840948 
L 455.781459 216.571336 
L 458.228798 216.480464 
L 460.676138 217.389967 
L 463.123478 217.396317 
L 465.570818 218.272353 
L 468.018157 217.570507 
L 470.465497 217.919624 
L 475.360177 217.15687 
L 477.807517 217.368428 
L 480.254856 218.665552 
L 482.702196 216.752433 
L 485.149536 217.497812 
L 487.596876 217.781393 
L 490.044215 216.778801 
L 492.491555 216.986317 
L 494.938895 218.047523 
L 497.386235 216.682055 
L 499.833574 217.800485 
L 507.175594 217.954579 
L 509.622934 217.32044 
L 512.070273 217.20434 
L 514.517613 217.658985 
L 516.964953 217.413998 
L 519.412293 217.749975 
L 521.859632 217.624055 
L 524.306972 218.758735 
L 526.754312 217.140217 
L 529.201652 218.158879 
L 531.648992 216.916903 
L 531.648992 216.916903 
" style="fill:none;stroke:#55a868;stroke-linecap:round;stroke-width:1.5;"/>
   </g>
   <g id="line2d_18">
    <path clip-path="url(#p8eef8a429f)" d="M 64.207095 231.15 
L 279.572995 231.147423 
L 531.648992 231.15 
L 531.648992 231.15 
" style="fill:none;stroke:#c44e52;stroke-linecap:round;stroke-width:1.5;"/>
   </g>
   <g id="patch_3">
    <path d="M 40.835 241.54 
L 40.835 12.96 
" style="fill:none;stroke:#ffffff;stroke-linecap:square;stroke-linejoin:miter;stroke-width:1.25;"/>
   </g>
   <g id="patch_4">
    <path d="M 555.021086 241.54 
L 555.021086 12.96 
" style="fill:none;stroke:#ffffff;stroke-linecap:square;stroke-linejoin:miter;stroke-width:1.25;"/>
   </g>
   <g id="patch_5">
    <path d="M 40.835 241.54 
L 555.021086 241.54 
" style="fill:none;stroke:#ffffff;stroke-linecap:square;stroke-linejoin:miter;stroke-width:1.25;"/>
   </g>
   <g id="patch_6">
    <path d="M 40.835 12.96 
L 555.021086 12.96 
" style="fill:none;stroke:#ffffff;stroke-linecap:square;stroke-linejoin:miter;stroke-width:1.25;"/>
   </g>
   <g id="legend_1">
    <g id="patch_7">
     <path d="M 420.429211 84.133438 
L 547.321086 84.133438 
Q 549.521086 84.133438 549.521086 81.933438 
L 549.521086 20.66 
Q 549.521086 18.46 547.321086 18.46 
L 420.429211 18.46 
Q 418.229211 18.46 418.229211 20.66 
L 418.229211 81.933438 
Q 418.229211 84.133438 420.429211 84.133438 
z
" style="fill:#eaeaf2;opacity:0.8;stroke:#cccccc;stroke-linejoin:miter;"/>
    </g>
    <g id="line2d_19">
     <path d="M 422.629211 26.883594 
L 444.629211 26.883594 
" style="fill:none;stroke:#4c72b0;stroke-linecap:round;stroke-width:1.5;"/>
    </g>
    <g id="line2d_20"/>
    <g id="text_16">
     <!-- Active Power P -->
     <g style="fill:#262626;" transform="translate(453.429211 30.733594)scale(0.11 -0.11)">
      <defs>
       <path d="M -0.140625 0 
L 27.34375 71.578125 
L 37.546875 71.578125 
L 66.84375 0 
L 56.0625 0 
L 47.703125 21.6875 
L 17.78125 21.6875 
L 9.90625 0 
z
M 20.515625 29.390625 
L 44.78125 29.390625 
L 37.3125 49.21875 
Q 33.890625 58.25 32.234375 64.0625 
Q 30.859375 57.171875 28.375 50.390625 
z
" id="ArialMT-65"/>
       <path d="M 25.78125 7.859375 
L 27.046875 0.09375 
Q 23.34375 -0.6875 20.40625 -0.6875 
Q 15.625 -0.6875 12.984375 0.828125 
Q 10.359375 2.34375 9.28125 4.8125 
Q 8.203125 7.28125 8.203125 15.1875 
L 8.203125 45.015625 
L 1.765625 45.015625 
L 1.765625 51.859375 
L 8.203125 51.859375 
L 8.203125 64.703125 
L 16.9375 69.96875 
L 16.9375 51.859375 
L 25.78125 51.859375 
L 25.78125 45.015625 
L 16.9375 45.015625 
L 16.9375 14.703125 
Q 16.9375 10.9375 17.40625 9.859375 
Q 17.875 8.796875 18.921875 8.15625 
Q 19.96875 7.515625 21.921875 7.515625 
Q 23.390625 7.515625 25.78125 7.859375 
z
" id="ArialMT-116"/>
       <path d="M 6.640625 61.46875 
L 6.640625 71.578125 
L 15.4375 71.578125 
L 15.4375 61.46875 
z
M 6.640625 0 
L 6.640625 51.859375 
L 15.4375 51.859375 
L 15.4375 0 
z
" id="ArialMT-105"/>
       <path d="M 21 0 
L 1.265625 51.859375 
L 10.546875 51.859375 
L 21.6875 20.796875 
Q 23.484375 15.765625 25 10.359375 
Q 26.171875 14.453125 28.265625 20.21875 
L 39.796875 51.859375 
L 48.828125 51.859375 
L 29.203125 0 
z
" id="ArialMT-118"/>
       <path d="M 7.71875 0 
L 7.71875 71.578125 
L 34.71875 71.578125 
Q 41.84375 71.578125 45.609375 70.90625 
Q 50.875 70.015625 54.4375 67.546875 
Q 58.015625 65.09375 60.1875 60.640625 
Q 62.359375 56.203125 62.359375 50.875 
Q 62.359375 41.75 56.546875 35.421875 
Q 50.734375 29.109375 35.546875 29.109375 
L 17.1875 29.109375 
L 17.1875 0 
z
M 17.1875 37.546875 
L 35.6875 37.546875 
Q 44.875 37.546875 48.734375 40.96875 
Q 52.59375 44.390625 52.59375 50.59375 
Q 52.59375 55.078125 50.3125 58.265625 
Q 48.046875 61.46875 44.34375 62.5 
Q 41.9375 63.140625 35.5 63.140625 
L 17.1875 63.140625 
z
" id="ArialMT-80"/>
       <path d="M 16.15625 0 
L 0.296875 51.859375 
L 9.375 51.859375 
L 17.625 21.921875 
L 20.703125 10.796875 
Q 20.90625 11.625 23.390625 21.484375 
L 31.640625 51.859375 
L 40.671875 51.859375 
L 48.4375 21.78125 
L 51.03125 11.859375 
L 54 21.875 
L 62.890625 51.859375 
L 71.4375 51.859375 
L 55.21875 0 
L 46.09375 0 
L 37.84375 31.0625 
L 35.84375 39.890625 
L 25.34375 0 
z
" id="ArialMT-119"/>
      </defs>
      <use xlink:href="#ArialMT-65"/>
      <use x="66.699219" xlink:href="#ArialMT-99"/>
      <use x="116.699219" xlink:href="#ArialMT-116"/>
      <use x="144.482422" xlink:href="#ArialMT-105"/>
      <use x="166.699219" xlink:href="#ArialMT-118"/>
      <use x="216.699219" xlink:href="#ArialMT-101"/>
      <use x="272.314453" xlink:href="#ArialMT-32"/>
      <use x="300.097656" xlink:href="#ArialMT-80"/>
      <use x="366.796875" xlink:href="#ArialMT-111"/>
      <use x="422.412109" xlink:href="#ArialMT-119"/>
      <use x="494.628906" xlink:href="#ArialMT-101"/>
      <use x="550.244141" xlink:href="#ArialMT-114"/>
      <use x="583.544922" xlink:href="#ArialMT-32"/>
      <use x="611.328125" xlink:href="#ArialMT-80"/>
     </g>
    </g>
    <g id="line2d_21">
     <path d="M 422.629211 42.5775 
L 444.629211 42.5775 
" style="fill:none;stroke:#dd8452;stroke-linecap:round;stroke-width:1.5;"/>
    </g>
    <g id="line2d_22"/>
    <g id="text_17">
     <!-- Apparent Power S -->
     <g style="fill:#262626;" transform="translate(453.429211 46.4275)scale(0.11 -0.11)">
      <defs>
       <path d="M 6.59375 -19.875 
L 6.59375 51.859375 
L 14.59375 51.859375 
L 14.59375 45.125 
Q 17.4375 49.078125 21 51.046875 
Q 24.5625 53.03125 29.640625 53.03125 
Q 36.28125 53.03125 41.359375 49.609375 
Q 46.4375 46.1875 49.015625 39.953125 
Q 51.609375 33.734375 51.609375 26.3125 
Q 51.609375 18.359375 48.75 11.984375 
Q 45.90625 5.609375 40.453125 2.21875 
Q 35.015625 -1.171875 29 -1.171875 
Q 24.609375 -1.171875 21.109375 0.6875 
Q 17.625 2.546875 15.375 5.375 
L 15.375 -19.875 
z
M 14.546875 25.640625 
Q 14.546875 15.625 18.59375 10.84375 
Q 22.65625 6.0625 28.421875 6.0625 
Q 34.28125 6.0625 38.453125 11.015625 
Q 42.625 15.96875 42.625 26.375 
Q 42.625 36.28125 38.546875 41.203125 
Q 34.46875 46.140625 28.8125 46.140625 
Q 23.1875 46.140625 18.859375 40.890625 
Q 14.546875 35.640625 14.546875 25.640625 
z
" id="ArialMT-112"/>
       <path d="M 40.4375 6.390625 
Q 35.546875 2.25 31.03125 0.53125 
Q 26.515625 -1.171875 21.34375 -1.171875 
Q 12.796875 -1.171875 8.203125 3 
Q 3.609375 7.171875 3.609375 13.671875 
Q 3.609375 17.484375 5.34375 20.625 
Q 7.078125 23.78125 9.890625 25.6875 
Q 12.703125 27.59375 16.21875 28.5625 
Q 18.796875 29.25 24.03125 29.890625 
Q 34.671875 31.15625 39.703125 32.90625 
Q 39.75 34.71875 39.75 35.203125 
Q 39.75 40.578125 37.25 42.78125 
Q 33.890625 45.75 27.25 45.75 
Q 21.046875 45.75 18.09375 43.578125 
Q 15.140625 41.40625 13.71875 35.890625 
L 5.125 37.0625 
Q 6.296875 42.578125 8.984375 45.96875 
Q 11.671875 49.359375 16.75 51.1875 
Q 21.828125 53.03125 28.515625 53.03125 
Q 35.15625 53.03125 39.296875 51.46875 
Q 43.453125 49.90625 45.40625 47.53125 
Q 47.359375 45.171875 48.140625 41.546875 
Q 48.578125 39.3125 48.578125 33.453125 
L 48.578125 21.734375 
Q 48.578125 9.46875 49.140625 6.21875 
Q 49.703125 2.984375 51.375 0 
L 42.1875 0 
Q 40.828125 2.734375 40.4375 6.390625 
z
M 39.703125 26.03125 
Q 34.90625 24.078125 25.34375 22.703125 
Q 19.921875 21.921875 17.671875 20.9375 
Q 15.4375 19.96875 14.203125 18.09375 
Q 12.984375 16.21875 12.984375 13.921875 
Q 12.984375 10.40625 15.640625 8.0625 
Q 18.3125 5.71875 23.4375 5.71875 
Q 28.515625 5.71875 32.46875 7.9375 
Q 36.421875 10.15625 38.28125 14.015625 
Q 39.703125 17 39.703125 22.796875 
z
" id="ArialMT-97"/>
       <path d="M 6.59375 0 
L 6.59375 51.859375 
L 14.5 51.859375 
L 14.5 44.484375 
Q 20.21875 53.03125 31 53.03125 
Q 35.6875 53.03125 39.625 51.34375 
Q 43.5625 49.65625 45.515625 46.921875 
Q 47.46875 44.1875 48.25 40.4375 
Q 48.734375 37.984375 48.734375 31.890625 
L 48.734375 0 
L 39.9375 0 
L 39.9375 31.546875 
Q 39.9375 36.921875 38.90625 39.578125 
Q 37.890625 42.234375 35.28125 43.8125 
Q 32.671875 45.40625 29.15625 45.40625 
Q 23.53125 45.40625 19.453125 41.84375 
Q 15.375 38.28125 15.375 28.328125 
L 15.375 0 
z
" id="ArialMT-110"/>
       <path d="M 4.5 23 
L 13.421875 23.78125 
Q 14.0625 18.40625 16.375 14.96875 
Q 18.703125 11.53125 23.578125 9.40625 
Q 28.46875 7.28125 34.578125 7.28125 
Q 39.984375 7.28125 44.140625 8.890625 
Q 48.296875 10.5 50.3125 13.296875 
Q 52.34375 16.109375 52.34375 19.4375 
Q 52.34375 22.796875 50.390625 25.3125 
Q 48.4375 27.828125 43.953125 29.546875 
Q 41.0625 30.671875 31.203125 33.03125 
Q 21.34375 35.40625 17.390625 37.5 
Q 12.25 40.1875 9.734375 44.15625 
Q 7.234375 48.140625 7.234375 53.078125 
Q 7.234375 58.5 10.296875 63.203125 
Q 13.375 67.921875 19.28125 70.359375 
Q 25.203125 72.796875 32.421875 72.796875 
Q 40.375 72.796875 46.453125 70.234375 
Q 52.546875 67.671875 55.8125 62.6875 
Q 59.078125 57.71875 59.328125 51.421875 
L 50.25 50.734375 
Q 49.515625 57.515625 45.28125 60.984375 
Q 41.0625 64.453125 32.8125 64.453125 
Q 24.21875 64.453125 20.28125 61.296875 
Q 16.359375 58.15625 16.359375 53.71875 
Q 16.359375 49.859375 19.140625 47.359375 
Q 21.875 44.875 33.421875 42.265625 
Q 44.96875 39.65625 49.265625 37.703125 
Q 55.515625 34.8125 58.484375 30.390625 
Q 61.46875 25.984375 61.46875 20.21875 
Q 61.46875 14.5 58.203125 9.4375 
Q 54.9375 4.390625 48.796875 1.578125 
Q 42.671875 -1.21875 35.015625 -1.21875 
Q 25.296875 -1.21875 18.71875 1.609375 
Q 12.15625 4.4375 8.421875 10.125 
Q 4.6875 15.828125 4.5 23 
z
" id="ArialMT-83"/>
      </defs>
      <use xlink:href="#ArialMT-65"/>
      <use x="66.699219" xlink:href="#ArialMT-112"/>
      <use x="122.314453" xlink:href="#ArialMT-112"/>
      <use x="177.929688" xlink:href="#ArialMT-97"/>
      <use x="233.544922" xlink:href="#ArialMT-114"/>
      <use x="266.845703" xlink:href="#ArialMT-101"/>
      <use x="322.460938" xlink:href="#ArialMT-110"/>
      <use x="378.076172" xlink:href="#ArialMT-116"/>
      <use x="405.859375" xlink:href="#ArialMT-32"/>
      <use x="433.642578" xlink:href="#ArialMT-80"/>
      <use x="500.341797" xlink:href="#ArialMT-111"/>
      <use x="555.957031" xlink:href="#ArialMT-119"/>
      <use x="628.173828" xlink:href="#ArialMT-101"/>
      <use x="683.789062" xlink:href="#ArialMT-114"/>
      <use x="717.089844" xlink:href="#ArialMT-32"/>
      <use x="744.873047" xlink:href="#ArialMT-83"/>
     </g>
    </g>
    <g id="line2d_23">
     <path d="M 422.629211 58.137344 
L 444.629211 58.137344 
" style="fill:none;stroke:#55a868;stroke-linecap:round;stroke-width:1.5;"/>
    </g>
    <g id="line2d_24"/>
    <g id="text_18">
     <!-- Reactive Power Q -->
     <g style="fill:#262626;" transform="translate(453.429211 61.987344)scale(0.11 -0.11)">
      <defs>
       <path d="M 7.859375 0 
L 7.859375 71.578125 
L 39.59375 71.578125 
Q 49.171875 71.578125 54.140625 69.640625 
Q 59.125 67.71875 62.109375 62.828125 
Q 65.09375 57.953125 65.09375 52.046875 
Q 65.09375 44.4375 60.15625 39.203125 
Q 55.21875 33.984375 44.921875 32.5625 
Q 48.6875 30.765625 50.640625 29 
Q 54.78125 25.203125 58.5 19.484375 
L 70.953125 0 
L 59.03125 0 
L 49.5625 14.890625 
Q 45.40625 21.34375 42.71875 24.75 
Q 40.046875 28.171875 37.921875 29.53125 
Q 35.796875 30.90625 33.59375 31.453125 
Q 31.984375 31.78125 28.328125 31.78125 
L 17.328125 31.78125 
L 17.328125 0 
z
M 17.328125 39.984375 
L 37.703125 39.984375 
Q 44.1875 39.984375 47.84375 41.328125 
Q 51.515625 42.671875 53.421875 45.625 
Q 55.328125 48.578125 55.328125 52.046875 
Q 55.328125 57.125 51.640625 60.390625 
Q 47.953125 63.671875 39.984375 63.671875 
L 17.328125 63.671875 
z
" id="ArialMT-82"/>
       <path d="M 61.96875 7.671875 
Q 68.5625 3.125 74.125 1.03125 
L 71.34375 -5.5625 
Q 63.625 -2.78125 55.953125 3.21875 
Q 48 -1.21875 38.375 -1.21875 
Q 28.65625 -1.21875 20.75 3.46875 
Q 12.84375 8.15625 8.5625 16.640625 
Q 4.296875 25.140625 4.296875 35.796875 
Q 4.296875 46.390625 8.59375 55.078125 
Q 12.890625 63.765625 20.828125 68.3125 
Q 28.765625 72.859375 38.578125 72.859375 
Q 48.484375 72.859375 56.4375 68.140625 
Q 64.40625 63.421875 68.578125 54.953125 
Q 72.75 46.484375 72.75 35.84375 
Q 72.75 27 70.0625 19.9375 
Q 67.390625 12.890625 61.96875 7.671875 
z
M 41.109375 19.78125 
Q 49.3125 17.484375 54.640625 12.9375 
Q 62.984375 20.5625 62.984375 35.84375 
Q 62.984375 44.53125 60.03125 51.015625 
Q 57.078125 57.515625 51.390625 61.109375 
Q 45.703125 64.703125 38.625 64.703125 
Q 28.03125 64.703125 21.046875 57.453125 
Q 14.0625 50.203125 14.0625 35.796875 
Q 14.0625 21.828125 20.96875 14.359375 
Q 27.875 6.890625 38.625 6.890625 
Q 43.703125 6.890625 48.1875 8.796875 
Q 43.75 11.671875 38.8125 12.890625 
z
" id="ArialMT-81"/>
      </defs>
      <use xlink:href="#ArialMT-82"/>
      <use x="72.216797" xlink:href="#ArialMT-101"/>
      <use x="127.832031" xlink:href="#ArialMT-97"/>
      <use x="183.447266" xlink:href="#ArialMT-99"/>
      <use x="233.447266" xlink:href="#ArialMT-116"/>
      <use x="261.230469" xlink:href="#ArialMT-105"/>
      <use x="283.447266" xlink:href="#ArialMT-118"/>
      <use x="333.447266" xlink:href="#ArialMT-101"/>
      <use x="389.0625" xlink:href="#ArialMT-32"/>
      <use x="416.845703" xlink:href="#ArialMT-80"/>
      <use x="483.544922" xlink:href="#ArialMT-111"/>
      <use x="539.160156" xlink:href="#ArialMT-119"/>
      <use x="611.376953" xlink:href="#ArialMT-101"/>
      <use x="666.992188" xlink:href="#ArialMT-114"/>
      <use x="700.292969" xlink:href="#ArialMT-32"/>
      <use x="728.076172" xlink:href="#ArialMT-81"/>
     </g>
    </g>
    <g id="line2d_25">
     <path d="M 422.629211 73.697188 
L 444.629211 73.697188 
" style="fill:none;stroke:#c44e52;stroke-linecap:round;stroke-width:1.5;"/>
    </g>
    <g id="line2d_26"/>
    <g id="text_19">
     <!-- Distortion Power D -->
     <g style="fill:#262626;" transform="translate(453.429211 77.547188)scale(0.11 -0.11)">
      <defs>
       <path d="M 7.71875 0 
L 7.71875 71.578125 
L 32.375 71.578125 
Q 40.71875 71.578125 45.125 70.5625 
Q 51.265625 69.140625 55.609375 65.4375 
Q 61.28125 60.640625 64.078125 53.1875 
Q 66.890625 45.75 66.890625 36.1875 
Q 66.890625 28.03125 64.984375 21.734375 
Q 63.09375 15.4375 60.109375 11.296875 
Q 57.125 7.171875 53.578125 4.796875 
Q 50.046875 2.4375 45.046875 1.21875 
Q 40.046875 0 33.546875 0 
z
M 17.1875 8.453125 
L 32.46875 8.453125 
Q 39.546875 8.453125 43.578125 9.765625 
Q 47.609375 11.078125 50 13.484375 
Q 53.375 16.84375 55.25 22.53125 
Q 57.125 28.21875 57.125 36.328125 
Q 57.125 47.5625 53.4375 53.59375 
Q 49.75 59.625 44.484375 61.671875 
Q 40.671875 63.140625 32.234375 63.140625 
L 17.1875 63.140625 
z
" id="ArialMT-68"/>
      </defs>
      <use xlink:href="#ArialMT-68"/>
      <use x="72.216797" xlink:href="#ArialMT-105"/>
      <use x="94.433594" xlink:href="#ArialMT-115"/>
      <use x="144.433594" xlink:href="#ArialMT-116"/>
      <use x="172.216797" xlink:href="#ArialMT-111"/>
      <use x="227.832031" xlink:href="#ArialMT-114"/>
      <use x="261.132812" xlink:href="#ArialMT-116"/>
      <use x="288.916016" xlink:href="#ArialMT-105"/>
      <use x="311.132812" xlink:href="#ArialMT-111"/>
      <use x="366.748047" xlink:href="#ArialMT-110"/>
      <use x="422.363281" xlink:href="#ArialMT-32"/>
      <use x="450.146484" xlink:href="#ArialMT-80"/>
      <use x="516.845703" xlink:href="#ArialMT-111"/>
      <use x="572.460938" xlink:href="#ArialMT-119"/>
      <use x="644.677734" xlink:href="#ArialMT-101"/>
      <use x="700.292969" xlink:href="#ArialMT-114"/>
      <use x="733.59375" xlink:href="#ArialMT-32"/>
      <use x="761.376953" xlink:href="#ArialMT-68"/>
     </g>
    </g>
   </g>
  </g>
 </g>
 <defs>
  <clipPath id="p8eef8a429f">
   <rect height="228.58" width="514.186086" x="40.835" y="12.96"/>
  </clipPath>
 </defs>
</svg>
