<?xml version="1.0" encoding="utf-8" standalone="no"?>
<!DOCTYPE svg PUBLIC "-//W3C//DTD SVG 1.1//EN"
  "http://www.w3.org/Graphics/SVG/1.1/DTD/svg11.dtd">
<svg height="504pt" version="1.1" viewBox="0 0 1080 504" width="1080pt" xmlns="http://www.w3.org/2000/svg" xmlns:xlink="http://www.w3.org/1999/xlink">
 <metadata>
  <rdf:RDF xmlns:cc="http://creativecommons.org/ns#" xmlns:dc="http://purl.org/dc/elements/1.1/" xmlns:rdf="http://www.w3.org/1999/02/22-rdf-syntax-ns#">
   <cc:Work>
    <dc:type rdf:resource="http://purl.org/dc/dcmitype/StillImage"/>
    <dc:date>2021-10-07T11:03:55.223553</dc:date>
    <dc:format>image/svg+xml</dc:format>
    <dc:creator>
     <cc:Agent>
      <dc:title>Matplotlib v3.4.2, https://matplotlib.org/</dc:title>
     </cc:Agent>
    </dc:creator>
   </cc:Work>
  </rdf:RDF>
 </metadata>
 <defs>
  <style type="text/css">*{stroke-linecap:butt;stroke-linejoin:round;}</style>
 </defs>
 <g id="figure_1">
  <g id="patch_1">
   <path d="M 0 504 
L 1080 504 
L 1080 0 
L 0 0 
z
" style="fill:#ffffff;"/>
  </g>
  <g id="axes_1">
   <g id="patch_2">
    <path d="M 55.67625 225.968125 
L 525.114079 225.968125 
L 525.114079 27.65625 
L 55.67625 27.65625 
z
" style="fill:#eaeaf2;"/>
   </g>
   <g id="matplotlib.axis_1">
    <g id="xtick_1">
     <g id="line2d_1">
      <path clip-path="url(#pd3a94ac2fc)" d="M 77.014333 225.968125 
L 77.014333 27.65625 
" style="fill:none;stroke:#ffffff;stroke-linecap:round;"/>
     </g>
     <g id="text_1">
      <!-- 0 -->
      <g style="fill:#262626;" transform="translate(73.955818 243.341719)scale(0.11 -0.11)">
       <defs>
        <path d="M 266 2259 
Q 266 3072 433 3567 
Q 600 4063 929 4331 
Q 1259 4600 1759 4600 
Q 2128 4600 2406 4451 
Q 2684 4303 2865 4023 
Q 3047 3744 3150 3342 
Q 3253 2941 3253 2259 
Q 3253 1453 3087 958 
Q 2922 463 2592 192 
Q 2263 -78 1759 -78 
Q 1097 -78 719 397 
Q 266 969 266 2259 
z
M 844 2259 
Q 844 1131 1108 757 
Q 1372 384 1759 384 
Q 2147 384 2411 759 
Q 2675 1134 2675 2259 
Q 2675 3391 2411 3762 
Q 2147 4134 1753 4134 
Q 1366 4134 1134 3806 
Q 844 3388 844 2259 
z
" id="ArialMT-30" transform="scale(0.015625)"/>
       </defs>
       <use xlink:href="#ArialMT-30"/>
      </g>
     </g>
    </g>
    <g id="xtick_2">
     <g id="line2d_2">
      <path clip-path="url(#pd3a94ac2fc)" d="M 132.87319 225.968125 
L 132.87319 27.65625 
" style="fill:none;stroke:#ffffff;stroke-linecap:round;"/>
     </g>
     <g id="text_2">
      <!-- 25 -->
      <g style="fill:#262626;" transform="translate(126.756158 243.341719)scale(0.11 -0.11)">
       <defs>
        <path d="M 3222 541 
L 3222 0 
L 194 0 
Q 188 203 259 391 
Q 375 700 629 1000 
Q 884 1300 1366 1694 
Q 2113 2306 2375 2664 
Q 2638 3022 2638 3341 
Q 2638 3675 2398 3904 
Q 2159 4134 1775 4134 
Q 1369 4134 1125 3890 
Q 881 3647 878 3216 
L 300 3275 
Q 359 3922 746 4261 
Q 1134 4600 1788 4600 
Q 2447 4600 2831 4234 
Q 3216 3869 3216 3328 
Q 3216 3053 3103 2787 
Q 2991 2522 2730 2228 
Q 2469 1934 1863 1422 
Q 1356 997 1212 845 
Q 1069 694 975 541 
L 3222 541 
z
" id="ArialMT-32" transform="scale(0.015625)"/>
        <path d="M 266 1200 
L 856 1250 
Q 922 819 1161 601 
Q 1400 384 1738 384 
Q 2144 384 2425 690 
Q 2706 997 2706 1503 
Q 2706 1984 2436 2262 
Q 2166 2541 1728 2541 
Q 1456 2541 1237 2417 
Q 1019 2294 894 2097 
L 366 2166 
L 809 4519 
L 3088 4519 
L 3088 3981 
L 1259 3981 
L 1013 2750 
Q 1425 3038 1878 3038 
Q 2478 3038 2890 2622 
Q 3303 2206 3303 1553 
Q 3303 931 2941 478 
Q 2500 -78 1738 -78 
Q 1113 -78 717 272 
Q 322 622 266 1200 
z
" id="ArialMT-35" transform="scale(0.015625)"/>
       </defs>
       <use xlink:href="#ArialMT-32"/>
       <use x="55.615234" xlink:href="#ArialMT-35"/>
      </g>
     </g>
    </g>
    <g id="xtick_3">
     <g id="line2d_3">
      <path clip-path="url(#pd3a94ac2fc)" d="M 188.732046 225.968125 
L 188.732046 27.65625 
" style="fill:none;stroke:#ffffff;stroke-linecap:round;"/>
     </g>
     <g id="text_3">
      <!-- 50 -->
      <g style="fill:#262626;" transform="translate(182.615015 243.341719)scale(0.11 -0.11)">
       <use xlink:href="#ArialMT-35"/>
       <use x="55.615234" xlink:href="#ArialMT-30"/>
      </g>
     </g>
    </g>
    <g id="xtick_4">
     <g id="line2d_4">
      <path clip-path="url(#pd3a94ac2fc)" d="M 244.590902 225.968125 
L 244.590902 27.65625 
" style="fill:none;stroke:#ffffff;stroke-linecap:round;"/>
     </g>
     <g id="text_4">
      <!-- 75 -->
      <g style="fill:#262626;" transform="translate(238.473871 243.341719)scale(0.11 -0.11)">
       <defs>
        <path d="M 303 3981 
L 303 4522 
L 3269 4522 
L 3269 4084 
Q 2831 3619 2401 2847 
Q 1972 2075 1738 1259 
Q 1569 684 1522 0 
L 944 0 
Q 953 541 1156 1306 
Q 1359 2072 1739 2783 
Q 2119 3494 2547 3981 
L 303 3981 
z
" id="ArialMT-37" transform="scale(0.015625)"/>
       </defs>
       <use xlink:href="#ArialMT-37"/>
       <use x="55.615234" xlink:href="#ArialMT-35"/>
      </g>
     </g>
    </g>
    <g id="xtick_5">
     <g id="line2d_5">
      <path clip-path="url(#pd3a94ac2fc)" d="M 300.449759 225.968125 
L 300.449759 27.65625 
" style="fill:none;stroke:#ffffff;stroke-linecap:round;"/>
     </g>
     <g id="text_5">
      <!-- 100 -->
      <g style="fill:#262626;" transform="translate(291.274212 243.341719)scale(0.11 -0.11)">
       <defs>
        <path d="M 2384 0 
L 1822 0 
L 1822 3584 
Q 1619 3391 1289 3197 
Q 959 3003 697 2906 
L 697 3450 
Q 1169 3672 1522 3987 
Q 1875 4303 2022 4600 
L 2384 4600 
L 2384 0 
z
" id="ArialMT-31" transform="scale(0.015625)"/>
       </defs>
       <use xlink:href="#ArialMT-31"/>
       <use x="55.615234" xlink:href="#ArialMT-30"/>
       <use x="111.230469" xlink:href="#ArialMT-30"/>
      </g>
     </g>
    </g>
    <g id="xtick_6">
     <g id="line2d_6">
      <path clip-path="url(#pd3a94ac2fc)" d="M 356.308615 225.968125 
L 356.308615 27.65625 
" style="fill:none;stroke:#ffffff;stroke-linecap:round;"/>
     </g>
     <g id="text_6">
      <!-- 125 -->
      <g style="fill:#262626;" transform="translate(347.133068 243.341719)scale(0.11 -0.11)">
       <use xlink:href="#ArialMT-31"/>
       <use x="55.615234" xlink:href="#ArialMT-32"/>
       <use x="111.230469" xlink:href="#ArialMT-35"/>
      </g>
     </g>
    </g>
    <g id="xtick_7">
     <g id="line2d_7">
      <path clip-path="url(#pd3a94ac2fc)" d="M 412.167472 225.968125 
L 412.167472 27.65625 
" style="fill:none;stroke:#ffffff;stroke-linecap:round;"/>
     </g>
     <g id="text_7">
      <!-- 150 -->
      <g style="fill:#262626;" transform="translate(402.991925 243.341719)scale(0.11 -0.11)">
       <use xlink:href="#ArialMT-31"/>
       <use x="55.615234" xlink:href="#ArialMT-35"/>
       <use x="111.230469" xlink:href="#ArialMT-30"/>
      </g>
     </g>
    </g>
    <g id="xtick_8">
     <g id="line2d_8">
      <path clip-path="url(#pd3a94ac2fc)" d="M 468.026328 225.968125 
L 468.026328 27.65625 
" style="fill:none;stroke:#ffffff;stroke-linecap:round;"/>
     </g>
     <g id="text_8">
      <!-- 175 -->
      <g style="fill:#262626;" transform="translate(458.850781 243.341719)scale(0.11 -0.11)">
       <use xlink:href="#ArialMT-31"/>
       <use x="55.615234" xlink:href="#ArialMT-37"/>
       <use x="111.230469" xlink:href="#ArialMT-35"/>
      </g>
     </g>
    </g>
    <g id="xtick_9">
     <g id="line2d_9">
      <path clip-path="url(#pd3a94ac2fc)" d="M 523.885184 225.968125 
L 523.885184 27.65625 
" style="fill:none;stroke:#ffffff;stroke-linecap:round;"/>
     </g>
     <g id="text_9">
      <!-- 200 -->
      <g style="fill:#262626;" transform="translate(514.709638 243.341719)scale(0.11 -0.11)">
       <use xlink:href="#ArialMT-32"/>
       <use x="55.615234" xlink:href="#ArialMT-30"/>
       <use x="111.230469" xlink:href="#ArialMT-30"/>
      </g>
     </g>
    </g>
   </g>
   <g id="matplotlib.axis_2">
    <g id="ytick_1">
     <g id="line2d_10">
      <path clip-path="url(#pd3a94ac2fc)" d="M 55.67625 217.586981 
L 525.114079 217.586981 
" style="fill:none;stroke:#ffffff;stroke-linecap:round;"/>
     </g>
     <g id="text_10">
      <!-- 0 -->
      <g style="fill:#262626;" transform="translate(40.059219 221.523778)scale(0.11 -0.11)">
       <use xlink:href="#ArialMT-30"/>
      </g>
     </g>
    </g>
    <g id="ytick_2">
     <g id="line2d_11">
      <path clip-path="url(#pd3a94ac2fc)" d="M 55.67625 176.218204 
L 525.114079 176.218204 
" style="fill:none;stroke:#ffffff;stroke-linecap:round;"/>
     </g>
     <g id="text_11">
      <!-- 50 -->
      <g style="fill:#262626;" transform="translate(33.942187 180.155001)scale(0.11 -0.11)">
       <use xlink:href="#ArialMT-35"/>
       <use x="55.615234" xlink:href="#ArialMT-30"/>
      </g>
     </g>
    </g>
    <g id="ytick_3">
     <g id="line2d_12">
      <path clip-path="url(#pd3a94ac2fc)" d="M 55.67625 134.849426 
L 525.114079 134.849426 
" style="fill:none;stroke:#ffffff;stroke-linecap:round;"/>
     </g>
     <g id="text_12">
      <!-- 100 -->
      <g style="fill:#262626;" transform="translate(27.825156 138.786223)scale(0.11 -0.11)">
       <use xlink:href="#ArialMT-31"/>
       <use x="55.615234" xlink:href="#ArialMT-30"/>
       <use x="111.230469" xlink:href="#ArialMT-30"/>
      </g>
     </g>
    </g>
    <g id="ytick_4">
     <g id="line2d_13">
      <path clip-path="url(#pd3a94ac2fc)" d="M 55.67625 93.480648 
L 525.114079 93.480648 
" style="fill:none;stroke:#ffffff;stroke-linecap:round;"/>
     </g>
     <g id="text_13">
      <!-- 150 -->
      <g style="fill:#262626;" transform="translate(27.825156 97.417445)scale(0.11 -0.11)">
       <use xlink:href="#ArialMT-31"/>
       <use x="55.615234" xlink:href="#ArialMT-35"/>
       <use x="111.230469" xlink:href="#ArialMT-30"/>
      </g>
     </g>
    </g>
    <g id="ytick_5">
     <g id="line2d_14">
      <path clip-path="url(#pd3a94ac2fc)" d="M 55.67625 52.11187 
L 525.114079 52.11187 
" style="fill:none;stroke:#ffffff;stroke-linecap:round;"/>
     </g>
     <g id="text_14">
      <!-- 200 -->
      <g style="fill:#262626;" transform="translate(27.825156 56.048667)scale(0.11 -0.11)">
       <use xlink:href="#ArialMT-32"/>
       <use x="55.615234" xlink:href="#ArialMT-30"/>
       <use x="111.230469" xlink:href="#ArialMT-30"/>
      </g>
     </g>
    </g>
    <g id="text_15">
     <!-- Watts (W) -->
     <g style="fill:#262626;" transform="translate(21.299531 153.246875)rotate(-90)scale(0.12 -0.12)">
      <defs>
       <path d="M 1294 0 
L 78 4581 
L 700 4581 
L 1397 1578 
Q 1509 1106 1591 641 
Q 1766 1375 1797 1488 
L 2669 4581 
L 3400 4581 
L 4056 2263 
Q 4303 1400 4413 641 
Q 4500 1075 4641 1638 
L 5359 4581 
L 5969 4581 
L 4713 0 
L 4128 0 
L 3163 3491 
Q 3041 3928 3019 4028 
Q 2947 3713 2884 3491 
L 1913 0 
L 1294 0 
z
" id="ArialMT-57" transform="scale(0.015625)"/>
       <path d="M 2588 409 
Q 2275 144 1986 34 
Q 1697 -75 1366 -75 
Q 819 -75 525 192 
Q 231 459 231 875 
Q 231 1119 342 1320 
Q 453 1522 633 1644 
Q 813 1766 1038 1828 
Q 1203 1872 1538 1913 
Q 2219 1994 2541 2106 
Q 2544 2222 2544 2253 
Q 2544 2597 2384 2738 
Q 2169 2928 1744 2928 
Q 1347 2928 1158 2789 
Q 969 2650 878 2297 
L 328 2372 
Q 403 2725 575 2942 
Q 747 3159 1072 3276 
Q 1397 3394 1825 3394 
Q 2250 3394 2515 3294 
Q 2781 3194 2906 3042 
Q 3031 2891 3081 2659 
Q 3109 2516 3109 2141 
L 3109 1391 
Q 3109 606 3145 398 
Q 3181 191 3288 0 
L 2700 0 
Q 2613 175 2588 409 
z
M 2541 1666 
Q 2234 1541 1622 1453 
Q 1275 1403 1131 1340 
Q 988 1278 909 1158 
Q 831 1038 831 891 
Q 831 666 1001 516 
Q 1172 366 1500 366 
Q 1825 366 2078 508 
Q 2331 650 2450 897 
Q 2541 1088 2541 1459 
L 2541 1666 
z
" id="ArialMT-61" transform="scale(0.015625)"/>
       <path d="M 1650 503 
L 1731 6 
Q 1494 -44 1306 -44 
Q 1000 -44 831 53 
Q 663 150 594 308 
Q 525 466 525 972 
L 525 2881 
L 113 2881 
L 113 3319 
L 525 3319 
L 525 4141 
L 1084 4478 
L 1084 3319 
L 1650 3319 
L 1650 2881 
L 1084 2881 
L 1084 941 
Q 1084 700 1114 631 
Q 1144 563 1211 522 
Q 1278 481 1403 481 
Q 1497 481 1650 503 
z
" id="ArialMT-74" transform="scale(0.015625)"/>
       <path d="M 197 991 
L 753 1078 
Q 800 744 1014 566 
Q 1228 388 1613 388 
Q 2000 388 2187 545 
Q 2375 703 2375 916 
Q 2375 1106 2209 1216 
Q 2094 1291 1634 1406 
Q 1016 1563 777 1677 
Q 538 1791 414 1992 
Q 291 2194 291 2438 
Q 291 2659 392 2848 
Q 494 3038 669 3163 
Q 800 3259 1026 3326 
Q 1253 3394 1513 3394 
Q 1903 3394 2198 3281 
Q 2494 3169 2634 2976 
Q 2775 2784 2828 2463 
L 2278 2388 
Q 2241 2644 2061 2787 
Q 1881 2931 1553 2931 
Q 1166 2931 1000 2803 
Q 834 2675 834 2503 
Q 834 2394 903 2306 
Q 972 2216 1119 2156 
Q 1203 2125 1616 2013 
Q 2213 1853 2448 1751 
Q 2684 1650 2818 1456 
Q 2953 1263 2953 975 
Q 2953 694 2789 445 
Q 2625 197 2315 61 
Q 2006 -75 1616 -75 
Q 969 -75 630 194 
Q 291 463 197 991 
z
" id="ArialMT-73" transform="scale(0.015625)"/>
       <path id="ArialMT-20" transform="scale(0.015625)"/>
       <path d="M 1497 -1347 
Q 1031 -759 709 28 
Q 388 816 388 1659 
Q 388 2403 628 3084 
Q 909 3875 1497 4659 
L 1900 4659 
Q 1522 4009 1400 3731 
Q 1209 3300 1100 2831 
Q 966 2247 966 1656 
Q 966 153 1900 -1347 
L 1497 -1347 
z
" id="ArialMT-28" transform="scale(0.015625)"/>
       <path d="M 791 -1347 
L 388 -1347 
Q 1322 153 1322 1656 
Q 1322 2244 1188 2822 
Q 1081 3291 891 3722 
Q 769 4003 388 4659 
L 791 4659 
Q 1378 3875 1659 3084 
Q 1900 2403 1900 1659 
Q 1900 816 1576 28 
Q 1253 -759 791 -1347 
z
" id="ArialMT-29" transform="scale(0.015625)"/>
      </defs>
      <use xlink:href="#ArialMT-57"/>
      <use x="90.634766" xlink:href="#ArialMT-61"/>
      <use x="146.25" xlink:href="#ArialMT-74"/>
      <use x="174.033203" xlink:href="#ArialMT-74"/>
      <use x="201.816406" xlink:href="#ArialMT-73"/>
      <use x="251.816406" xlink:href="#ArialMT-20"/>
      <use x="279.599609" xlink:href="#ArialMT-28"/>
      <use x="312.900391" xlink:href="#ArialMT-57"/>
      <use x="407.285156" xlink:href="#ArialMT-29"/>
     </g>
    </g>
   </g>
   <g id="line2d_15">
    <path clip-path="url(#pd3a94ac2fc)" d="M 77.014333 214.874818 
L 79.248687 214.612821 
L 81.483042 213.319751 
L 83.717396 215.164804 
L 85.95175 215.266345 
L 88.186104 214.803056 
L 90.420459 215.539127 
L 92.654813 216.953949 
L 94.889167 213.900321 
L 97.123521 215.838324 
L 99.357876 214.783259 
L 101.59223 214.540167 
L 103.826584 216.136606 
L 106.060938 215.470762 
L 108.295293 215.51461 
L 110.529647 215.290003 
L 112.764001 214.741236 
L 117.23271 214.421874 
L 119.467064 213.345725 
L 121.701418 214.746553 
L 123.935773 214.859305 
L 126.170127 214.660302 
L 128.404481 216.715242 
L 130.638835 215.455871 
L 132.87319 216.931714 
L 135.107544 214.98154 
L 137.341898 216.074764 
L 139.576252 215.164254 
L 141.810607 215.808952 
L 144.044961 214.528236 
L 146.279315 215.576845 
L 148.513669 215.317767 
L 150.748024 214.399844 
L 152.982378 215.551058 
L 155.216732 215.494677 
L 157.451086 215.224529 
L 159.685441 215.210662 
L 161.919795 214.591399 
L 164.154149 214.712757 
L 166.388503 215.468876 
L 168.622858 215.728395 
L 170.857212 215.052131 
L 173.091566 214.547161 
L 175.32592 214.259884 
L 177.560275 215.36681 
L 179.794629 214.746001 
L 182.028983 216.175731 
L 184.263337 214.431578 
L 186.497692 215.397594 
L 188.732046 214.349654 
L 190.9664 215.153217 
L 193.200754 214.229708 
L 195.435109 215.995454 
L 197.669463 216.036464 
L 199.903817 214.546484 
L 202.138172 214.797937 
L 204.372526 214.919833 
L 206.60688 213.682829 
L 208.841234 215.887715 
L 211.075589 214.746817 
L 213.309943 216.022102 
L 215.544297 215.524362 
L 217.778651 214.902394 
L 220.013006 215.503294 
L 222.24736 214.191743 
L 224.481714 214.970337 
L 226.716068 214.610992 
L 228.950423 215.656954 
L 231.184777 215.83653 
L 233.419131 214.485897 
L 235.653485 215.449544 
L 237.88784 211.622375 
L 240.122194 216.755521 
L 242.356548 213.355899 
L 244.590902 215.185831 
L 246.825257 215.393692 
L 249.059611 214.432152 
L 251.293965 211.999968 
L 253.528319 213.053983 
L 255.762674 211.600802 
L 257.997028 211.699367 
L 260.231382 211.009042 
L 262.465736 211.947422 
L 264.700091 212.181652 
L 266.934445 208.50617 
L 269.168799 210.733608 
L 271.403153 210.047246 
L 273.637508 211.445921 
L 275.871862 212.08767 
L 278.106216 209.477067 
L 280.34057 211.332406 
L 282.574925 212.038961 
L 284.809279 213.989863 
L 287.043633 213.192387 
L 289.277988 213.559762 
L 291.512342 212.821635 
L 293.746696 212.713079 
L 295.98105 214.439992 
L 298.215405 211.8173 
L 300.449759 207.896715 
L 302.684113 36.670426 
L 304.918467 140.623298 
L 307.152822 176.919496 
L 309.387176 173.32985 
L 311.62153 187.845863 
L 313.855884 193.428678 
L 316.090239 184.839623 
L 318.324593 169.83455 
L 320.558947 165.847133 
L 322.793301 171.32272 
L 325.027656 175.912416 
L 327.26201 175.897649 
L 329.496364 173.081313 
L 331.730718 174.07746 
L 333.965073 173.194074 
L 336.199427 173.577428 
L 338.433781 173.212806 
L 340.668135 173.586903 
L 342.90249 174.523937 
L 345.136844 173.935434 
L 347.371198 172.849302 
L 349.605552 172.085912 
L 351.839907 173.72242 
L 354.074261 173.433092 
L 356.308615 174.214268 
L 358.542969 173.810601 
L 360.777324 173.718497 
L 363.011678 174.005148 
L 365.246032 173.499739 
L 367.480387 173.62704 
L 369.714741 173.208732 
L 371.949095 174.217345 
L 374.183449 174.314688 
L 376.417804 174.811889 
L 378.652158 175.799927 
L 380.886512 175.639583 
L 383.120866 173.740262 
L 385.355221 173.955082 
L 387.589575 173.556392 
L 389.823929 174.46609 
L 394.292638 173.662557 
L 396.526992 173.905331 
L 398.761346 174.020566 
L 400.9957 173.122274 
L 405.464409 174.090583 
L 407.698763 173.716849 
L 409.933117 173.847983 
L 412.167472 174.174749 
L 414.401826 172.912596 
L 416.63618 172.713475 
L 418.870534 174.238466 
L 421.104889 173.974925 
L 423.339243 173.332104 
L 427.807951 173.558201 
L 430.042306 175.088074 
L 432.27666 173.939815 
L 434.511014 174.213652 
L 436.745368 173.764691 
L 438.979723 175.710562 
L 441.214077 174.147492 
L 443.448431 173.087698 
L 445.682785 173.38146 
L 447.91714 172.481366 
L 450.151494 174.679654 
L 452.385848 174.540043 
L 454.620203 173.137137 
L 456.854557 173.994149 
L 459.088911 172.240836 
L 461.323265 174.849611 
L 463.55762 173.753578 
L 465.791974 174.121731 
L 468.026328 174.324144 
L 470.260682 175.82077 
L 472.495037 173.374264 
L 474.729391 174.628214 
L 476.963745 175.020563 
L 479.198099 173.799128 
L 481.432454 175.114769 
L 483.666808 173.827591 
L 488.135516 174.628318 
L 490.369871 174.564747 
L 492.604225 174.623925 
L 494.838579 175.683546 
L 497.072933 173.695185 
L 499.307288 172.956612 
L 501.541642 173.242456 
L 503.775996 174.624739 
L 503.775996 174.624739 
" style="fill:none;stroke:#4c72b0;stroke-linecap:round;stroke-width:1.5;"/>
   </g>
   <g id="patch_3">
    <path d="M 55.67625 225.968125 
L 55.67625 27.65625 
" style="fill:none;stroke:#ffffff;stroke-linecap:square;stroke-linejoin:miter;stroke-width:1.25;"/>
   </g>
   <g id="patch_4">
    <path d="M 525.114079 225.968125 
L 525.114079 27.65625 
" style="fill:none;stroke:#ffffff;stroke-linecap:square;stroke-linejoin:miter;stroke-width:1.25;"/>
   </g>
   <g id="patch_5">
    <path d="M 55.67625 225.968125 
L 525.114079 225.968125 
" style="fill:none;stroke:#ffffff;stroke-linecap:square;stroke-linejoin:miter;stroke-width:1.25;"/>
   </g>
   <g id="patch_6">
    <path d="M 55.67625 27.65625 
L 525.114079 27.65625 
" style="fill:none;stroke:#ffffff;stroke-linecap:square;stroke-linejoin:miter;stroke-width:1.25;"/>
   </g>
   <g id="text_16">
    <!-- Active Power P -->
    <g style="fill:#262626;" transform="translate(249.714227 21.65625)scale(0.12 -0.12)">
     <defs>
      <path d="M -9 0 
L 1750 4581 
L 2403 4581 
L 4278 0 
L 3588 0 
L 3053 1388 
L 1138 1388 
L 634 0 
L -9 0 
z
M 1313 1881 
L 2866 1881 
L 2388 3150 
Q 2169 3728 2063 4100 
Q 1975 3659 1816 3225 
L 1313 1881 
z
" id="ArialMT-41" transform="scale(0.015625)"/>
      <path d="M 2588 1216 
L 3141 1144 
Q 3050 572 2676 248 
Q 2303 -75 1759 -75 
Q 1078 -75 664 370 
Q 250 816 250 1647 
Q 250 2184 428 2587 
Q 606 2991 970 3192 
Q 1334 3394 1763 3394 
Q 2303 3394 2647 3120 
Q 2991 2847 3088 2344 
L 2541 2259 
Q 2463 2594 2264 2762 
Q 2066 2931 1784 2931 
Q 1359 2931 1093 2626 
Q 828 2322 828 1663 
Q 828 994 1084 691 
Q 1341 388 1753 388 
Q 2084 388 2306 591 
Q 2528 794 2588 1216 
z
" id="ArialMT-63" transform="scale(0.015625)"/>
      <path d="M 425 3934 
L 425 4581 
L 988 4581 
L 988 3934 
L 425 3934 
z
M 425 0 
L 425 3319 
L 988 3319 
L 988 0 
L 425 0 
z
" id="ArialMT-69" transform="scale(0.015625)"/>
      <path d="M 1344 0 
L 81 3319 
L 675 3319 
L 1388 1331 
Q 1503 1009 1600 663 
Q 1675 925 1809 1294 
L 2547 3319 
L 3125 3319 
L 1869 0 
L 1344 0 
z
" id="ArialMT-76" transform="scale(0.015625)"/>
      <path d="M 2694 1069 
L 3275 997 
Q 3138 488 2766 206 
Q 2394 -75 1816 -75 
Q 1088 -75 661 373 
Q 234 822 234 1631 
Q 234 2469 665 2931 
Q 1097 3394 1784 3394 
Q 2450 3394 2872 2941 
Q 3294 2488 3294 1666 
Q 3294 1616 3291 1516 
L 816 1516 
Q 847 969 1125 678 
Q 1403 388 1819 388 
Q 2128 388 2347 550 
Q 2566 713 2694 1069 
z
M 847 1978 
L 2700 1978 
Q 2663 2397 2488 2606 
Q 2219 2931 1791 2931 
Q 1403 2931 1139 2672 
Q 875 2413 847 1978 
z
" id="ArialMT-65" transform="scale(0.015625)"/>
      <path d="M 494 0 
L 494 4581 
L 2222 4581 
Q 2678 4581 2919 4538 
Q 3256 4481 3484 4323 
Q 3713 4166 3852 3881 
Q 3991 3597 3991 3256 
Q 3991 2672 3619 2267 
Q 3247 1863 2275 1863 
L 1100 1863 
L 1100 0 
L 494 0 
z
M 1100 2403 
L 2284 2403 
Q 2872 2403 3119 2622 
Q 3366 2841 3366 3238 
Q 3366 3525 3220 3729 
Q 3075 3934 2838 4000 
Q 2684 4041 2272 4041 
L 1100 4041 
L 1100 2403 
z
" id="ArialMT-50" transform="scale(0.015625)"/>
      <path d="M 213 1659 
Q 213 2581 725 3025 
Q 1153 3394 1769 3394 
Q 2453 3394 2887 2945 
Q 3322 2497 3322 1706 
Q 3322 1066 3130 698 
Q 2938 331 2570 128 
Q 2203 -75 1769 -75 
Q 1072 -75 642 372 
Q 213 819 213 1659 
z
M 791 1659 
Q 791 1022 1069 705 
Q 1347 388 1769 388 
Q 2188 388 2466 706 
Q 2744 1025 2744 1678 
Q 2744 2294 2464 2611 
Q 2184 2928 1769 2928 
Q 1347 2928 1069 2612 
Q 791 2297 791 1659 
z
" id="ArialMT-6f" transform="scale(0.015625)"/>
      <path d="M 1034 0 
L 19 3319 
L 600 3319 
L 1128 1403 
L 1325 691 
Q 1338 744 1497 1375 
L 2025 3319 
L 2603 3319 
L 3100 1394 
L 3266 759 
L 3456 1400 
L 4025 3319 
L 4572 3319 
L 3534 0 
L 2950 0 
L 2422 1988 
L 2294 2553 
L 1622 0 
L 1034 0 
z
" id="ArialMT-77" transform="scale(0.015625)"/>
      <path d="M 416 0 
L 416 3319 
L 922 3319 
L 922 2816 
Q 1116 3169 1280 3281 
Q 1444 3394 1641 3394 
Q 1925 3394 2219 3213 
L 2025 2691 
Q 1819 2813 1613 2813 
Q 1428 2813 1281 2702 
Q 1134 2591 1072 2394 
Q 978 2094 978 1738 
L 978 0 
L 416 0 
z
" id="ArialMT-72" transform="scale(0.015625)"/>
     </defs>
     <use xlink:href="#ArialMT-41"/>
     <use x="66.699219" xlink:href="#ArialMT-63"/>
     <use x="116.699219" xlink:href="#ArialMT-74"/>
     <use x="144.482422" xlink:href="#ArialMT-69"/>
     <use x="166.699219" xlink:href="#ArialMT-76"/>
     <use x="216.699219" xlink:href="#ArialMT-65"/>
     <use x="272.314453" xlink:href="#ArialMT-20"/>
     <use x="300.097656" xlink:href="#ArialMT-50"/>
     <use x="366.796875" xlink:href="#ArialMT-6f"/>
     <use x="422.412109" xlink:href="#ArialMT-77"/>
     <use x="494.628906" xlink:href="#ArialMT-65"/>
     <use x="550.244141" xlink:href="#ArialMT-72"/>
     <use x="583.544922" xlink:href="#ArialMT-20"/>
     <use x="611.328125" xlink:href="#ArialMT-50"/>
    </g>
   </g>
  </g>
  <g id="axes_2">
   <g id="patch_7">
    <path d="M 589.418125 225.968125 
L 1058.855954 225.968125 
L 1058.855954 27.65625 
L 589.418125 27.65625 
z
" style="fill:#eaeaf2;"/>
   </g>
   <g id="matplotlib.axis_3">
    <g id="xtick_10">
     <g id="line2d_16">
      <path clip-path="url(#ped5cacfa3e)" d="M 610.756208 225.968125 
L 610.756208 27.65625 
" style="fill:none;stroke:#ffffff;stroke-linecap:round;"/>
     </g>
     <g id="text_17">
      <!-- 0 -->
      <g style="fill:#262626;" transform="translate(607.697693 243.341719)scale(0.11 -0.11)">
       <use xlink:href="#ArialMT-30"/>
      </g>
     </g>
    </g>
    <g id="xtick_11">
     <g id="line2d_17">
      <path clip-path="url(#ped5cacfa3e)" d="M 666.615065 225.968125 
L 666.615065 27.65625 
" style="fill:none;stroke:#ffffff;stroke-linecap:round;"/>
     </g>
     <g id="text_18">
      <!-- 25 -->
      <g style="fill:#262626;" transform="translate(660.498033 243.341719)scale(0.11 -0.11)">
       <use xlink:href="#ArialMT-32"/>
       <use x="55.615234" xlink:href="#ArialMT-35"/>
      </g>
     </g>
    </g>
    <g id="xtick_12">
     <g id="line2d_18">
      <path clip-path="url(#ped5cacfa3e)" d="M 722.473921 225.968125 
L 722.473921 27.65625 
" style="fill:none;stroke:#ffffff;stroke-linecap:round;"/>
     </g>
     <g id="text_19">
      <!-- 50 -->
      <g style="fill:#262626;" transform="translate(716.35689 243.341719)scale(0.11 -0.11)">
       <use xlink:href="#ArialMT-35"/>
       <use x="55.615234" xlink:href="#ArialMT-30"/>
      </g>
     </g>
    </g>
    <g id="xtick_13">
     <g id="line2d_19">
      <path clip-path="url(#ped5cacfa3e)" d="M 778.332777 225.968125 
L 778.332777 27.65625 
" style="fill:none;stroke:#ffffff;stroke-linecap:round;"/>
     </g>
     <g id="text_20">
      <!-- 75 -->
      <g style="fill:#262626;" transform="translate(772.215746 243.341719)scale(0.11 -0.11)">
       <use xlink:href="#ArialMT-37"/>
       <use x="55.615234" xlink:href="#ArialMT-35"/>
      </g>
     </g>
    </g>
    <g id="xtick_14">
     <g id="line2d_20">
      <path clip-path="url(#ped5cacfa3e)" d="M 834.191634 225.968125 
L 834.191634 27.65625 
" style="fill:none;stroke:#ffffff;stroke-linecap:round;"/>
     </g>
     <g id="text_21">
      <!-- 100 -->
      <g style="fill:#262626;" transform="translate(825.016087 243.341719)scale(0.11 -0.11)">
       <use xlink:href="#ArialMT-31"/>
       <use x="55.615234" xlink:href="#ArialMT-30"/>
       <use x="111.230469" xlink:href="#ArialMT-30"/>
      </g>
     </g>
    </g>
    <g id="xtick_15">
     <g id="line2d_21">
      <path clip-path="url(#ped5cacfa3e)" d="M 890.05049 225.968125 
L 890.05049 27.65625 
" style="fill:none;stroke:#ffffff;stroke-linecap:round;"/>
     </g>
     <g id="text_22">
      <!-- 125 -->
      <g style="fill:#262626;" transform="translate(880.874943 243.341719)scale(0.11 -0.11)">
       <use xlink:href="#ArialMT-31"/>
       <use x="55.615234" xlink:href="#ArialMT-32"/>
       <use x="111.230469" xlink:href="#ArialMT-35"/>
      </g>
     </g>
    </g>
    <g id="xtick_16">
     <g id="line2d_22">
      <path clip-path="url(#ped5cacfa3e)" d="M 945.909347 225.968125 
L 945.909347 27.65625 
" style="fill:none;stroke:#ffffff;stroke-linecap:round;"/>
     </g>
     <g id="text_23">
      <!-- 150 -->
      <g style="fill:#262626;" transform="translate(936.7338 243.341719)scale(0.11 -0.11)">
       <use xlink:href="#ArialMT-31"/>
       <use x="55.615234" xlink:href="#ArialMT-35"/>
       <use x="111.230469" xlink:href="#ArialMT-30"/>
      </g>
     </g>
    </g>
    <g id="xtick_17">
     <g id="line2d_23">
      <path clip-path="url(#ped5cacfa3e)" d="M 1001.768203 225.968125 
L 1001.768203 27.65625 
" style="fill:none;stroke:#ffffff;stroke-linecap:round;"/>
     </g>
     <g id="text_24">
      <!-- 175 -->
      <g style="fill:#262626;" transform="translate(992.592656 243.341719)scale(0.11 -0.11)">
       <use xlink:href="#ArialMT-31"/>
       <use x="55.615234" xlink:href="#ArialMT-37"/>
       <use x="111.230469" xlink:href="#ArialMT-35"/>
      </g>
     </g>
    </g>
    <g id="xtick_18">
     <g id="line2d_24">
      <path clip-path="url(#ped5cacfa3e)" d="M 1057.627059 225.968125 
L 1057.627059 27.65625 
" style="fill:none;stroke:#ffffff;stroke-linecap:round;"/>
     </g>
     <g id="text_25">
      <!-- 200 -->
      <g style="fill:#262626;" transform="translate(1048.451513 243.341719)scale(0.11 -0.11)">
       <use xlink:href="#ArialMT-32"/>
       <use x="55.615234" xlink:href="#ArialMT-30"/>
       <use x="111.230469" xlink:href="#ArialMT-30"/>
      </g>
     </g>
    </g>
   </g>
   <g id="matplotlib.axis_4">
    <g id="ytick_6">
     <g id="line2d_25">
      <path clip-path="url(#ped5cacfa3e)" d="M 589.418125 220.115099 
L 1058.855954 220.115099 
" style="fill:none;stroke:#ffffff;stroke-linecap:round;"/>
     </g>
     <g id="text_26">
      <!-- 0 -->
      <g style="fill:#262626;" transform="translate(573.801094 224.051896)scale(0.11 -0.11)">
       <use xlink:href="#ArialMT-30"/>
      </g>
     </g>
    </g>
    <g id="ytick_7">
     <g id="line2d_26">
      <path clip-path="url(#ped5cacfa3e)" d="M 589.418125 178.930644 
L 1058.855954 178.930644 
" style="fill:none;stroke:#ffffff;stroke-linecap:round;"/>
     </g>
     <g id="text_27">
      <!-- 50 -->
      <g style="fill:#262626;" transform="translate(567.684063 182.867441)scale(0.11 -0.11)">
       <use xlink:href="#ArialMT-35"/>
       <use x="55.615234" xlink:href="#ArialMT-30"/>
      </g>
     </g>
    </g>
    <g id="ytick_8">
     <g id="line2d_27">
      <path clip-path="url(#ped5cacfa3e)" d="M 589.418125 137.746189 
L 1058.855954 137.746189 
" style="fill:none;stroke:#ffffff;stroke-linecap:round;"/>
     </g>
     <g id="text_28">
      <!-- 100 -->
      <g style="fill:#262626;" transform="translate(561.567031 141.682986)scale(0.11 -0.11)">
       <use xlink:href="#ArialMT-31"/>
       <use x="55.615234" xlink:href="#ArialMT-30"/>
       <use x="111.230469" xlink:href="#ArialMT-30"/>
      </g>
     </g>
    </g>
    <g id="ytick_9">
     <g id="line2d_28">
      <path clip-path="url(#ped5cacfa3e)" d="M 589.418125 96.561734 
L 1058.855954 96.561734 
" style="fill:none;stroke:#ffffff;stroke-linecap:round;"/>
     </g>
     <g id="text_29">
      <!-- 150 -->
      <g style="fill:#262626;" transform="translate(561.567031 100.498531)scale(0.11 -0.11)">
       <use xlink:href="#ArialMT-31"/>
       <use x="55.615234" xlink:href="#ArialMT-35"/>
       <use x="111.230469" xlink:href="#ArialMT-30"/>
      </g>
     </g>
    </g>
    <g id="ytick_10">
     <g id="line2d_29">
      <path clip-path="url(#ped5cacfa3e)" d="M 589.418125 55.377278 
L 1058.855954 55.377278 
" style="fill:none;stroke:#ffffff;stroke-linecap:round;"/>
     </g>
     <g id="text_30">
      <!-- 200 -->
      <g style="fill:#262626;" transform="translate(561.567031 59.314075)scale(0.11 -0.11)">
       <use xlink:href="#ArialMT-32"/>
       <use x="55.615234" xlink:href="#ArialMT-30"/>
       <use x="111.230469" xlink:href="#ArialMT-30"/>
      </g>
     </g>
    </g>
    <g id="text_31">
     <!-- Volt-Ampere (VA) -->
     <g style="fill:#262626;" transform="translate(555.041406 173.050625)rotate(-90)scale(0.12 -0.12)">
      <defs>
       <path d="M 1803 0 
L 28 4581 
L 684 4581 
L 1875 1253 
Q 2019 853 2116 503 
Q 2222 878 2363 1253 
L 3600 4581 
L 4219 4581 
L 2425 0 
L 1803 0 
z
" id="ArialMT-56" transform="scale(0.015625)"/>
       <path d="M 409 0 
L 409 4581 
L 972 4581 
L 972 0 
L 409 0 
z
" id="ArialMT-6c" transform="scale(0.015625)"/>
       <path d="M 203 1375 
L 203 1941 
L 1931 1941 
L 1931 1375 
L 203 1375 
z
" id="ArialMT-2d" transform="scale(0.015625)"/>
       <path d="M 422 0 
L 422 3319 
L 925 3319 
L 925 2853 
Q 1081 3097 1340 3245 
Q 1600 3394 1931 3394 
Q 2300 3394 2536 3241 
Q 2772 3088 2869 2813 
Q 3263 3394 3894 3394 
Q 4388 3394 4653 3120 
Q 4919 2847 4919 2278 
L 4919 0 
L 4359 0 
L 4359 2091 
Q 4359 2428 4304 2576 
Q 4250 2725 4106 2815 
Q 3963 2906 3769 2906 
Q 3419 2906 3187 2673 
Q 2956 2441 2956 1928 
L 2956 0 
L 2394 0 
L 2394 2156 
Q 2394 2531 2256 2718 
Q 2119 2906 1806 2906 
Q 1569 2906 1367 2781 
Q 1166 2656 1075 2415 
Q 984 2175 984 1722 
L 984 0 
L 422 0 
z
" id="ArialMT-6d" transform="scale(0.015625)"/>
       <path d="M 422 -1272 
L 422 3319 
L 934 3319 
L 934 2888 
Q 1116 3141 1344 3267 
Q 1572 3394 1897 3394 
Q 2322 3394 2647 3175 
Q 2972 2956 3137 2557 
Q 3303 2159 3303 1684 
Q 3303 1175 3120 767 
Q 2938 359 2589 142 
Q 2241 -75 1856 -75 
Q 1575 -75 1351 44 
Q 1128 163 984 344 
L 984 -1272 
L 422 -1272 
z
M 931 1641 
Q 931 1000 1190 694 
Q 1450 388 1819 388 
Q 2194 388 2461 705 
Q 2728 1022 2728 1688 
Q 2728 2322 2467 2637 
Q 2206 2953 1844 2953 
Q 1484 2953 1207 2617 
Q 931 2281 931 1641 
z
" id="ArialMT-70" transform="scale(0.015625)"/>
      </defs>
      <use xlink:href="#ArialMT-56"/>
      <use x="61.199219" xlink:href="#ArialMT-6f"/>
      <use x="116.814453" xlink:href="#ArialMT-6c"/>
      <use x="139.03125" xlink:href="#ArialMT-74"/>
      <use x="166.814453" xlink:href="#ArialMT-2d"/>
      <use x="200.115234" xlink:href="#ArialMT-41"/>
      <use x="266.814453" xlink:href="#ArialMT-6d"/>
      <use x="350.115234" xlink:href="#ArialMT-70"/>
      <use x="405.730469" xlink:href="#ArialMT-65"/>
      <use x="461.345703" xlink:href="#ArialMT-72"/>
      <use x="494.646484" xlink:href="#ArialMT-65"/>
      <use x="550.261719" xlink:href="#ArialMT-20"/>
      <use x="578.044922" xlink:href="#ArialMT-28"/>
      <use x="611.345703" xlink:href="#ArialMT-56"/>
      <use x="670.669922" xlink:href="#ArialMT-41"/>
      <use x="737.369141" xlink:href="#ArialMT-29"/>
     </g>
    </g>
   </g>
   <g id="line2d_30">
    <path clip-path="url(#ped5cacfa3e)" d="M 610.756208 215.606376 
L 612.990562 214.64366 
L 615.224917 213.957073 
L 617.459271 215.291521 
L 619.693625 216.08508 
L 621.927979 215.625202 
L 624.162334 215.567557 
L 626.396688 215.900254 
L 628.631042 215.79481 
L 630.865396 214.998694 
L 633.099751 215.40253 
L 635.334105 214.804868 
L 637.568459 216.355052 
L 639.802813 215.819619 
L 642.037168 216.22416 
L 644.271522 216.122639 
L 646.505876 215.351912 
L 648.740231 215.336618 
L 650.974585 214.79402 
L 653.208939 214.022109 
L 655.443293 214.841601 
L 657.677648 215.485253 
L 659.912002 214.442691 
L 662.146356 215.8162 
L 664.38071 215.731658 
L 666.615065 216.953949 
L 668.849419 215.838449 
L 671.083773 215.974528 
L 673.318127 215.33914 
L 675.552482 215.060155 
L 677.786836 214.894584 
L 680.02119 215.676555 
L 684.489899 214.330916 
L 686.724253 215.615134 
L 688.958607 215.452844 
L 691.192961 216.416503 
L 693.427316 215.310285 
L 695.66167 215.528927 
L 697.896024 215.615728 
L 700.130378 216.812924 
L 702.364733 215.347386 
L 706.833441 216.22822 
L 709.067795 214.831627 
L 711.30215 215.972429 
L 713.536504 215.865033 
L 715.770858 216.439381 
L 718.005212 215.009783 
L 720.239567 215.995269 
L 722.473921 215.107305 
L 724.708275 216.405127 
L 726.942629 215.111172 
L 729.176984 215.774822 
L 731.411338 215.914181 
L 733.645692 214.793545 
L 735.880047 215.319471 
L 738.114401 214.936252 
L 740.348755 215.004813 
L 742.583109 216.083054 
L 744.817464 214.980719 
L 747.051818 216.23655 
L 749.286172 215.717229 
L 751.520526 214.860868 
L 753.754881 215.528076 
L 755.989235 216.00712 
L 760.457943 215.411159 
L 762.692298 215.913662 
L 764.926652 215.323206 
L 767.161006 215.549652 
L 769.39536 214.977949 
L 771.629715 210.601541 
L 773.864069 215.946114 
L 776.098423 213.897353 
L 780.567132 213.833797 
L 782.801486 214.769274 
L 785.03584 210.033381 
L 787.270194 212.396404 
L 789.504549 213.034842 
L 791.738903 211.727503 
L 793.973257 210.022288 
L 796.207611 211.549123 
L 798.441966 211.711663 
L 800.67632 207.530283 
L 802.910674 210.565689 
L 805.145028 208.004014 
L 807.379383 210.536046 
L 809.613737 211.67126 
L 811.848091 208.047457 
L 814.082445 210.054676 
L 816.3168 209.393899 
L 818.551154 212.967969 
L 820.785508 212.313792 
L 823.019863 213.384663 
L 825.254217 211.907652 
L 827.488571 212.667511 
L 829.722925 213.858496 
L 831.95728 211.937337 
L 834.191634 204.930811 
L 836.425988 36.670426 
L 838.660342 112.473578 
L 840.894697 165.056932 
L 843.129051 170.220288 
L 845.363405 188.336082 
L 847.597759 194.514803 
L 849.832114 185.886856 
L 852.066468 170.891663 
L 854.300822 166.661521 
L 856.535176 172.468664 
L 858.769531 177.458631 
L 861.003885 176.974612 
L 863.238239 174.044625 
L 865.472593 174.864986 
L 867.706948 174.351551 
L 869.941302 175.108755 
L 872.175656 174.436416 
L 874.41001 174.911678 
L 876.644365 175.837263 
L 878.878719 175.274185 
L 881.113073 174.096938 
L 883.347427 173.209118 
L 885.581782 174.54975 
L 887.816136 174.528264 
L 890.05049 174.963049 
L 894.519199 174.746126 
L 896.753553 175.031472 
L 898.987907 174.672801 
L 901.222262 175.044914 
L 903.456616 174.503334 
L 907.925324 175.587386 
L 910.159679 175.887462 
L 912.394033 176.950747 
L 914.628387 176.753585 
L 916.862741 174.793921 
L 919.097096 175.188468 
L 921.33145 174.930094 
L 923.565804 175.788422 
L 925.800158 175.047563 
L 928.034513 174.924611 
L 930.268867 175.19687 
L 932.503221 175.05861 
L 934.737575 174.069865 
L 936.97193 174.420435 
L 939.206284 175.311916 
L 941.440638 174.765695 
L 943.674992 174.846775 
L 945.909347 175.394965 
L 948.143701 174.225529 
L 950.378055 173.891908 
L 952.612409 175.135561 
L 954.846764 175.147576 
L 957.081118 174.653685 
L 959.315472 174.547355 
L 961.549826 174.623806 
L 963.784181 176.064489 
L 966.018535 174.86355 
L 968.252889 175.057859 
L 970.487243 174.606578 
L 972.721598 176.69162 
L 974.955952 175.197046 
L 977.190306 174.378699 
L 979.42466 174.503007 
L 981.659015 173.716367 
L 983.893369 175.738032 
L 986.127723 175.515089 
L 988.362078 174.22131 
L 990.596432 175.338929 
L 992.830786 173.215886 
L 995.06514 175.894114 
L 997.299495 174.909297 
L 999.533849 175.022023 
L 1001.768203 175.266779 
L 1004.002557 176.956127 
L 1006.236912 174.28374 
L 1008.471266 175.753736 
L 1010.70562 176.139445 
L 1012.939974 174.989688 
L 1015.174329 176.256856 
L 1017.408683 174.872314 
L 1019.643037 175.204395 
L 1021.877391 175.720489 
L 1024.111746 175.601089 
L 1026.3461 175.737755 
L 1028.580454 176.723116 
L 1030.814808 175.070444 
L 1033.049163 173.994379 
L 1035.283517 174.502831 
L 1037.517871 175.536857 
L 1037.517871 175.536857 
" style="fill:none;stroke:#4c72b0;stroke-linecap:round;stroke-width:1.5;"/>
   </g>
   <g id="patch_8">
    <path d="M 589.418125 225.968125 
L 589.418125 27.65625 
" style="fill:none;stroke:#ffffff;stroke-linecap:square;stroke-linejoin:miter;stroke-width:1.25;"/>
   </g>
   <g id="patch_9">
    <path d="M 1058.855954 225.968125 
L 1058.855954 27.65625 
" style="fill:none;stroke:#ffffff;stroke-linecap:square;stroke-linejoin:miter;stroke-width:1.25;"/>
   </g>
   <g id="patch_10">
    <path d="M 589.418125 225.968125 
L 1058.855954 225.968125 
" style="fill:none;stroke:#ffffff;stroke-linecap:square;stroke-linejoin:miter;stroke-width:1.25;"/>
   </g>
   <g id="patch_11">
    <path d="M 589.418125 27.65625 
L 1058.855954 27.65625 
" style="fill:none;stroke:#ffffff;stroke-linecap:square;stroke-linejoin:miter;stroke-width:1.25;"/>
   </g>
   <g id="text_32">
    <!-- Apparent Power S -->
    <g style="fill:#262626;" transform="translate(775.445165 21.65625)scale(0.12 -0.12)">
     <defs>
      <path d="M 422 0 
L 422 3319 
L 928 3319 
L 928 2847 
Q 1294 3394 1984 3394 
Q 2284 3394 2536 3286 
Q 2788 3178 2913 3003 
Q 3038 2828 3088 2588 
Q 3119 2431 3119 2041 
L 3119 0 
L 2556 0 
L 2556 2019 
Q 2556 2363 2490 2533 
Q 2425 2703 2258 2804 
Q 2091 2906 1866 2906 
Q 1506 2906 1245 2678 
Q 984 2450 984 1813 
L 984 0 
L 422 0 
z
" id="ArialMT-6e" transform="scale(0.015625)"/>
      <path d="M 288 1472 
L 859 1522 
Q 900 1178 1048 958 
Q 1197 738 1509 602 
Q 1822 466 2213 466 
Q 2559 466 2825 569 
Q 3091 672 3220 851 
Q 3350 1031 3350 1244 
Q 3350 1459 3225 1620 
Q 3100 1781 2813 1891 
Q 2628 1963 1997 2114 
Q 1366 2266 1113 2400 
Q 784 2572 623 2826 
Q 463 3081 463 3397 
Q 463 3744 659 4045 
Q 856 4347 1234 4503 
Q 1613 4659 2075 4659 
Q 2584 4659 2973 4495 
Q 3363 4331 3572 4012 
Q 3781 3694 3797 3291 
L 3216 3247 
Q 3169 3681 2898 3903 
Q 2628 4125 2100 4125 
Q 1550 4125 1298 3923 
Q 1047 3722 1047 3438 
Q 1047 3191 1225 3031 
Q 1400 2872 2139 2705 
Q 2878 2538 3153 2413 
Q 3553 2228 3743 1945 
Q 3934 1663 3934 1294 
Q 3934 928 3725 604 
Q 3516 281 3123 101 
Q 2731 -78 2241 -78 
Q 1619 -78 1198 103 
Q 778 284 539 648 
Q 300 1013 288 1472 
z
" id="ArialMT-53" transform="scale(0.015625)"/>
     </defs>
     <use xlink:href="#ArialMT-41"/>
     <use x="66.699219" xlink:href="#ArialMT-70"/>
     <use x="122.314453" xlink:href="#ArialMT-70"/>
     <use x="177.929688" xlink:href="#ArialMT-61"/>
     <use x="233.544922" xlink:href="#ArialMT-72"/>
     <use x="266.845703" xlink:href="#ArialMT-65"/>
     <use x="322.460938" xlink:href="#ArialMT-6e"/>
     <use x="378.076172" xlink:href="#ArialMT-74"/>
     <use x="405.859375" xlink:href="#ArialMT-20"/>
     <use x="433.642578" xlink:href="#ArialMT-50"/>
     <use x="500.341797" xlink:href="#ArialMT-6f"/>
     <use x="555.957031" xlink:href="#ArialMT-77"/>
     <use x="628.173828" xlink:href="#ArialMT-65"/>
     <use x="683.789062" xlink:href="#ArialMT-72"/>
     <use x="717.089844" xlink:href="#ArialMT-20"/>
     <use x="744.873047" xlink:href="#ArialMT-53"/>
    </g>
   </g>
  </g>
  <g id="axes_3">
   <g id="patch_12">
    <path d="M 55.67625 471.46 
L 525.114079 471.46 
L 525.114079 273.148125 
L 55.67625 273.148125 
z
" style="fill:#eaeaf2;"/>
   </g>
   <g id="matplotlib.axis_5">
    <g id="xtick_19">
     <g id="line2d_31">
      <path clip-path="url(#pb36ddc9727)" d="M 77.014333 471.46 
L 77.014333 273.148125 
" style="fill:none;stroke:#ffffff;stroke-linecap:round;"/>
     </g>
     <g id="text_33">
      <!-- 0 -->
      <g style="fill:#262626;" transform="translate(73.955818 488.833594)scale(0.11 -0.11)">
       <use xlink:href="#ArialMT-30"/>
      </g>
     </g>
    </g>
    <g id="xtick_20">
     <g id="line2d_32">
      <path clip-path="url(#pb36ddc9727)" d="M 132.87319 471.46 
L 132.87319 273.148125 
" style="fill:none;stroke:#ffffff;stroke-linecap:round;"/>
     </g>
     <g id="text_34">
      <!-- 25 -->
      <g style="fill:#262626;" transform="translate(126.756158 488.833594)scale(0.11 -0.11)">
       <use xlink:href="#ArialMT-32"/>
       <use x="55.615234" xlink:href="#ArialMT-35"/>
      </g>
     </g>
    </g>
    <g id="xtick_21">
     <g id="line2d_33">
      <path clip-path="url(#pb36ddc9727)" d="M 188.732046 471.46 
L 188.732046 273.148125 
" style="fill:none;stroke:#ffffff;stroke-linecap:round;"/>
     </g>
     <g id="text_35">
      <!-- 50 -->
      <g style="fill:#262626;" transform="translate(182.615015 488.833594)scale(0.11 -0.11)">
       <use xlink:href="#ArialMT-35"/>
       <use x="55.615234" xlink:href="#ArialMT-30"/>
      </g>
     </g>
    </g>
    <g id="xtick_22">
     <g id="line2d_34">
      <path clip-path="url(#pb36ddc9727)" d="M 244.590902 471.46 
L 244.590902 273.148125 
" style="fill:none;stroke:#ffffff;stroke-linecap:round;"/>
     </g>
     <g id="text_36">
      <!-- 75 -->
      <g style="fill:#262626;" transform="translate(238.473871 488.833594)scale(0.11 -0.11)">
       <use xlink:href="#ArialMT-37"/>
       <use x="55.615234" xlink:href="#ArialMT-35"/>
      </g>
     </g>
    </g>
    <g id="xtick_23">
     <g id="line2d_35">
      <path clip-path="url(#pb36ddc9727)" d="M 300.449759 471.46 
L 300.449759 273.148125 
" style="fill:none;stroke:#ffffff;stroke-linecap:round;"/>
     </g>
     <g id="text_37">
      <!-- 100 -->
      <g style="fill:#262626;" transform="translate(291.274212 488.833594)scale(0.11 -0.11)">
       <use xlink:href="#ArialMT-31"/>
       <use x="55.615234" xlink:href="#ArialMT-30"/>
       <use x="111.230469" xlink:href="#ArialMT-30"/>
      </g>
     </g>
    </g>
    <g id="xtick_24">
     <g id="line2d_36">
      <path clip-path="url(#pb36ddc9727)" d="M 356.308615 471.46 
L 356.308615 273.148125 
" style="fill:none;stroke:#ffffff;stroke-linecap:round;"/>
     </g>
     <g id="text_38">
      <!-- 125 -->
      <g style="fill:#262626;" transform="translate(347.133068 488.833594)scale(0.11 -0.11)">
       <use xlink:href="#ArialMT-31"/>
       <use x="55.615234" xlink:href="#ArialMT-32"/>
       <use x="111.230469" xlink:href="#ArialMT-35"/>
      </g>
     </g>
    </g>
    <g id="xtick_25">
     <g id="line2d_37">
      <path clip-path="url(#pb36ddc9727)" d="M 412.167472 471.46 
L 412.167472 273.148125 
" style="fill:none;stroke:#ffffff;stroke-linecap:round;"/>
     </g>
     <g id="text_39">
      <!-- 150 -->
      <g style="fill:#262626;" transform="translate(402.991925 488.833594)scale(0.11 -0.11)">
       <use xlink:href="#ArialMT-31"/>
       <use x="55.615234" xlink:href="#ArialMT-35"/>
       <use x="111.230469" xlink:href="#ArialMT-30"/>
      </g>
     </g>
    </g>
    <g id="xtick_26">
     <g id="line2d_38">
      <path clip-path="url(#pb36ddc9727)" d="M 468.026328 471.46 
L 468.026328 273.148125 
" style="fill:none;stroke:#ffffff;stroke-linecap:round;"/>
     </g>
     <g id="text_40">
      <!-- 175 -->
      <g style="fill:#262626;" transform="translate(458.850781 488.833594)scale(0.11 -0.11)">
       <use xlink:href="#ArialMT-31"/>
       <use x="55.615234" xlink:href="#ArialMT-37"/>
       <use x="111.230469" xlink:href="#ArialMT-35"/>
      </g>
     </g>
    </g>
    <g id="xtick_27">
     <g id="line2d_39">
      <path clip-path="url(#pb36ddc9727)" d="M 523.885184 471.46 
L 523.885184 273.148125 
" style="fill:none;stroke:#ffffff;stroke-linecap:round;"/>
     </g>
     <g id="text_41">
      <!-- 200 -->
      <g style="fill:#262626;" transform="translate(514.709638 488.833594)scale(0.11 -0.11)">
       <use xlink:href="#ArialMT-32"/>
       <use x="55.615234" xlink:href="#ArialMT-30"/>
       <use x="111.230469" xlink:href="#ArialMT-30"/>
      </g>
     </g>
    </g>
   </g>
   <g id="matplotlib.axis_6">
    <g id="ytick_11">
     <g id="line2d_40">
      <path clip-path="url(#pb36ddc9727)" d="M 55.67625 468.04943 
L 525.114079 468.04943 
" style="fill:none;stroke:#ffffff;stroke-linecap:round;"/>
     </g>
     <g id="text_42">
      <!-- 0 -->
      <g style="fill:#262626;" transform="translate(40.059219 471.986227)scale(0.11 -0.11)">
       <use xlink:href="#ArialMT-30"/>
      </g>
     </g>
    </g>
    <g id="ytick_12">
     <g id="line2d_41">
      <path clip-path="url(#pb36ddc9727)" d="M 55.67625 427.5454 
L 525.114079 427.5454 
" style="fill:none;stroke:#ffffff;stroke-linecap:round;"/>
     </g>
     <g id="text_43">
      <!-- 20 -->
      <g style="fill:#262626;" transform="translate(33.942187 431.482197)scale(0.11 -0.11)">
       <use xlink:href="#ArialMT-32"/>
       <use x="55.615234" xlink:href="#ArialMT-30"/>
      </g>
     </g>
    </g>
    <g id="ytick_13">
     <g id="line2d_42">
      <path clip-path="url(#pb36ddc9727)" d="M 55.67625 387.04137 
L 525.114079 387.04137 
" style="fill:none;stroke:#ffffff;stroke-linecap:round;"/>
     </g>
     <g id="text_44">
      <!-- 40 -->
      <g style="fill:#262626;" transform="translate(33.942187 390.978167)scale(0.11 -0.11)">
       <defs>
        <path d="M 2069 0 
L 2069 1097 
L 81 1097 
L 81 1613 
L 2172 4581 
L 2631 4581 
L 2631 1613 
L 3250 1613 
L 3250 1097 
L 2631 1097 
L 2631 0 
L 2069 0 
z
M 2069 1613 
L 2069 3678 
L 634 1613 
L 2069 1613 
z
" id="ArialMT-34" transform="scale(0.015625)"/>
       </defs>
       <use xlink:href="#ArialMT-34"/>
       <use x="55.615234" xlink:href="#ArialMT-30"/>
      </g>
     </g>
    </g>
    <g id="ytick_14">
     <g id="line2d_43">
      <path clip-path="url(#pb36ddc9727)" d="M 55.67625 346.53734 
L 525.114079 346.53734 
" style="fill:none;stroke:#ffffff;stroke-linecap:round;"/>
     </g>
     <g id="text_45">
      <!-- 60 -->
      <g style="fill:#262626;" transform="translate(33.942187 350.474137)scale(0.11 -0.11)">
       <defs>
        <path d="M 3184 3459 
L 2625 3416 
Q 2550 3747 2413 3897 
Q 2184 4138 1850 4138 
Q 1581 4138 1378 3988 
Q 1113 3794 959 3422 
Q 806 3050 800 2363 
Q 1003 2672 1297 2822 
Q 1591 2972 1913 2972 
Q 2475 2972 2870 2558 
Q 3266 2144 3266 1488 
Q 3266 1056 3080 686 
Q 2894 316 2569 119 
Q 2244 -78 1831 -78 
Q 1128 -78 684 439 
Q 241 956 241 2144 
Q 241 3472 731 4075 
Q 1159 4600 1884 4600 
Q 2425 4600 2770 4297 
Q 3116 3994 3184 3459 
z
M 888 1484 
Q 888 1194 1011 928 
Q 1134 663 1356 523 
Q 1578 384 1822 384 
Q 2178 384 2434 671 
Q 2691 959 2691 1453 
Q 2691 1928 2437 2201 
Q 2184 2475 1800 2475 
Q 1419 2475 1153 2201 
Q 888 1928 888 1484 
z
" id="ArialMT-36" transform="scale(0.015625)"/>
       </defs>
       <use xlink:href="#ArialMT-36"/>
       <use x="55.615234" xlink:href="#ArialMT-30"/>
      </g>
     </g>
    </g>
    <g id="ytick_15">
     <g id="line2d_44">
      <path clip-path="url(#pb36ddc9727)" d="M 55.67625 306.03331 
L 525.114079 306.03331 
" style="fill:none;stroke:#ffffff;stroke-linecap:round;"/>
     </g>
     <g id="text_46">
      <!-- 80 -->
      <g style="fill:#262626;" transform="translate(33.942187 309.970107)scale(0.11 -0.11)">
       <defs>
        <path d="M 1131 2484 
Q 781 2613 612 2850 
Q 444 3088 444 3419 
Q 444 3919 803 4259 
Q 1163 4600 1759 4600 
Q 2359 4600 2725 4251 
Q 3091 3903 3091 3403 
Q 3091 3084 2923 2848 
Q 2756 2613 2416 2484 
Q 2838 2347 3058 2040 
Q 3278 1734 3278 1309 
Q 3278 722 2862 322 
Q 2447 -78 1769 -78 
Q 1091 -78 675 323 
Q 259 725 259 1325 
Q 259 1772 486 2073 
Q 713 2375 1131 2484 
z
M 1019 3438 
Q 1019 3113 1228 2906 
Q 1438 2700 1772 2700 
Q 2097 2700 2305 2904 
Q 2513 3109 2513 3406 
Q 2513 3716 2298 3927 
Q 2084 4138 1766 4138 
Q 1444 4138 1231 3931 
Q 1019 3725 1019 3438 
z
M 838 1322 
Q 838 1081 952 856 
Q 1066 631 1291 507 
Q 1516 384 1775 384 
Q 2178 384 2440 643 
Q 2703 903 2703 1303 
Q 2703 1709 2433 1975 
Q 2163 2241 1756 2241 
Q 1359 2241 1098 1978 
Q 838 1716 838 1322 
z
" id="ArialMT-38" transform="scale(0.015625)"/>
       </defs>
       <use xlink:href="#ArialMT-38"/>
       <use x="55.615234" xlink:href="#ArialMT-30"/>
      </g>
     </g>
    </g>
    <g id="text_47">
     <!-- Volt-Amperes-Reactive(VAR) -->
     <g style="fill:#262626;" transform="translate(27.416562 449.549375)rotate(-90)scale(0.12 -0.12)">
      <defs>
       <path d="M 503 0 
L 503 4581 
L 2534 4581 
Q 3147 4581 3465 4457 
Q 3784 4334 3975 4021 
Q 4166 3709 4166 3331 
Q 4166 2844 3850 2509 
Q 3534 2175 2875 2084 
Q 3116 1969 3241 1856 
Q 3506 1613 3744 1247 
L 4541 0 
L 3778 0 
L 3172 953 
Q 2906 1366 2734 1584 
Q 2563 1803 2427 1890 
Q 2291 1978 2150 2013 
Q 2047 2034 1813 2034 
L 1109 2034 
L 1109 0 
L 503 0 
z
M 1109 2559 
L 2413 2559 
Q 2828 2559 3062 2645 
Q 3297 2731 3419 2920 
Q 3541 3109 3541 3331 
Q 3541 3656 3305 3865 
Q 3069 4075 2559 4075 
L 1109 4075 
L 1109 2559 
z
" id="ArialMT-52" transform="scale(0.015625)"/>
      </defs>
      <use xlink:href="#ArialMT-56"/>
      <use x="61.199219" xlink:href="#ArialMT-6f"/>
      <use x="116.814453" xlink:href="#ArialMT-6c"/>
      <use x="139.03125" xlink:href="#ArialMT-74"/>
      <use x="166.814453" xlink:href="#ArialMT-2d"/>
      <use x="200.115234" xlink:href="#ArialMT-41"/>
      <use x="266.814453" xlink:href="#ArialMT-6d"/>
      <use x="350.115234" xlink:href="#ArialMT-70"/>
      <use x="405.730469" xlink:href="#ArialMT-65"/>
      <use x="461.345703" xlink:href="#ArialMT-72"/>
      <use x="494.646484" xlink:href="#ArialMT-65"/>
      <use x="550.261719" xlink:href="#ArialMT-73"/>
      <use x="600.261719" xlink:href="#ArialMT-2d"/>
      <use x="633.5625" xlink:href="#ArialMT-52"/>
      <use x="705.779297" xlink:href="#ArialMT-65"/>
      <use x="761.394531" xlink:href="#ArialMT-61"/>
      <use x="817.009766" xlink:href="#ArialMT-63"/>
      <use x="867.009766" xlink:href="#ArialMT-74"/>
      <use x="894.792969" xlink:href="#ArialMT-69"/>
      <use x="917.009766" xlink:href="#ArialMT-76"/>
      <use x="967.009766" xlink:href="#ArialMT-65"/>
      <use x="1022.625" xlink:href="#ArialMT-28"/>
      <use x="1055.925781" xlink:href="#ArialMT-56"/>
      <use x="1115.25" xlink:href="#ArialMT-41"/>
      <use x="1181.949219" xlink:href="#ArialMT-52"/>
      <use x="1254.166016" xlink:href="#ArialMT-29"/>
     </g>
    </g>
   </g>
   <g id="line2d_45">
    <path clip-path="url(#pb36ddc9727)" d="M 77.014333 459.17147 
L 79.248687 456.736844 
L 81.483042 457.088515 
L 83.717396 457.77804 
L 85.95175 459.930671 
L 88.186104 459.364331 
L 90.420459 458.054981 
L 92.654813 457.802901 
L 94.889167 462.445824 
L 97.123521 456.220316 
L 99.357876 458.713713 
L 101.59223 457.33278 
L 103.826584 459.513443 
L 106.060938 458.845695 
L 108.295293 459.938387 
L 110.529647 460.002863 
L 112.764001 458.634936 
L 114.998356 458.883974 
L 117.23271 457.507083 
L 119.467064 457.249002 
L 121.701418 457.105194 
L 123.935773 458.829676 
L 126.170127 456.083147 
L 128.404481 457.697364 
L 130.638835 458.618379 
L 132.87319 460.444417 
L 135.107544 459.689221 
L 137.341898 458.565787 
L 139.576252 457.91424 
L 141.810607 456.407773 
L 144.044961 457.623558 
L 146.279315 458.308536 
L 148.513669 456.715157 
L 150.748024 456.158577 
L 152.982378 458.171235 
L 155.216732 457.79404 
L 157.451086 461.03113 
L 159.685441 457.767033 
L 161.919795 459.482981 
L 164.154149 459.512182 
L 166.388503 461.801301 
L 168.622858 457.245856 
L 170.857212 459.448698 
L 173.091566 462.052285 
L 175.32592 457.928697 
L 177.560275 459.43473 
L 179.794629 460.24964 
L 182.028983 459.698188 
L 184.263337 458.154524 
L 186.497692 459.453761 
L 188.732046 458.625565 
L 190.9664 461.141695 
L 193.200754 458.893229 
L 195.435109 458.11448 
L 197.669463 458.443197 
L 199.903817 457.288167 
L 202.138172 458.435818 
L 204.372526 457.117204 
L 206.60688 459.891838 
L 208.841234 459.050615 
L 211.075589 457.512244 
L 213.309943 459.316358 
L 215.544297 458.487443 
L 217.778651 456.926981 
L 220.013006 457.990495 
L 222.24736 462.309363 
L 224.481714 459.43053 
L 226.716068 459.066171 
L 228.950423 458.862918 
L 231.184777 457.07433 
L 233.419131 459.779984 
L 235.653485 456.553271 
L 237.88784 449.774255 
L 240.122194 458.003236 
L 242.356548 456.804424 
L 244.590902 453.904918 
L 246.825257 453.56877 
L 249.059611 457.413359 
L 251.293965 447.375332 
L 253.528319 452.653027 
L 255.762674 458.650156 
L 257.997028 453.298078 
L 260.231382 449.166981 
L 262.465736 452.142955 
L 264.700091 452.179894 
L 266.934445 446.523595 
L 269.168799 451.622074 
L 271.403153 444.680656 
L 273.637508 449.918156 
L 275.871862 452.243836 
L 278.106216 445.997503 
L 280.34057 448.621026 
L 282.574925 445.456525 
L 284.809279 452.841788 
L 287.043633 452.168527 
L 289.277988 454.757796 
L 291.512342 451.582481 
L 293.746696 454.157715 
L 295.98105 454.733913 
L 298.215405 453.737671 
L 300.449759 439.219051 
L 302.684113 382.446943 
L 304.918467 282.162301 
L 307.152822 376.308012 
L 309.387176 410.481588 
L 311.62153 439.669164 
L 313.855884 446.482754 
L 316.090239 442.413091 
L 318.324593 436.665937 
L 320.558947 432.925726 
L 322.793301 438.054171 
L 325.027656 443.678896 
L 327.26201 439.108333 
L 329.496364 437.01276 
L 331.730718 435.867137 
L 333.965073 438.844232 
L 336.199427 442.741414 
L 338.433781 439.483828 
L 340.668135 440.609224 
L 342.90249 440.826715 
L 345.136844 440.870855 
L 347.371198 439.587231 
L 349.605552 438.114671 
L 351.839907 436.066606 
L 354.074261 438.348212 
L 356.308615 435.594472 
L 358.542969 437.887152 
L 360.777324 437.835393 
L 363.011678 437.932136 
L 365.246032 439.103626 
L 367.480387 441.56533 
L 369.714741 440.176546 
L 371.949095 436.013223 
L 374.183449 440.354998 
L 376.417804 438.684333 
L 378.652158 439.74461 
L 380.886512 439.34666 
L 383.120866 438.080721 
L 385.355221 439.845455 
L 387.589575 441.090013 
L 389.823929 440.894941 
L 392.058283 437.710427 
L 394.292638 440.018172 
L 396.526992 440.393062 
L 398.761346 438.044189 
L 400.9957 436.887687 
L 403.230055 436.080715 
L 405.464409 439.778644 
L 407.698763 438.027927 
L 409.933117 437.623994 
L 412.167472 439.79847 
L 414.401826 440.254504 
L 416.63618 438.868963 
L 418.870534 436.874096 
L 421.104889 439.273424 
L 423.339243 440.487939 
L 425.573597 438.692688 
L 427.807951 438.121898 
L 430.042306 437.900717 
L 432.27666 436.991296 
L 434.511014 436.406099 
L 436.745368 436.208858 
L 438.979723 438.182955 
L 441.214077 438.196738 
L 443.448431 440.098195 
L 445.682785 438.574821 
L 447.91714 439.332588 
L 452.385848 437.677012 
L 454.620203 438.136204 
L 456.854557 440.951643 
L 459.088911 436.799174 
L 461.323265 438.417035 
L 463.55762 439.032555 
L 465.791974 436.856404 
L 468.026328 437.306824 
L 470.260682 439.610197 
L 472.495037 436.646417 
L 474.729391 439.073995 
L 476.963745 439.159132 
L 479.198099 439.379018 
L 481.432454 439.408458 
L 483.666808 438.032045 
L 485.901162 437.780048 
L 488.135516 438.766866 
L 490.369871 438.235116 
L 492.604225 438.964362 
L 494.838579 438.69105 
L 497.072933 441.153899 
L 499.307288 437.640866 
L 501.541642 439.851898 
L 503.775996 437.156159 
L 503.775996 437.156159 
" style="fill:none;stroke:#4c72b0;stroke-linecap:round;stroke-width:1.5;"/>
   </g>
   <g id="patch_13">
    <path d="M 55.67625 471.46 
L 55.67625 273.148125 
" style="fill:none;stroke:#ffffff;stroke-linecap:square;stroke-linejoin:miter;stroke-width:1.25;"/>
   </g>
   <g id="patch_14">
    <path d="M 525.114079 471.46 
L 525.114079 273.148125 
" style="fill:none;stroke:#ffffff;stroke-linecap:square;stroke-linejoin:miter;stroke-width:1.25;"/>
   </g>
   <g id="patch_15">
    <path d="M 55.67625 471.46 
L 525.114079 471.46 
" style="fill:none;stroke:#ffffff;stroke-linecap:square;stroke-linejoin:miter;stroke-width:1.25;"/>
   </g>
   <g id="patch_16">
    <path d="M 55.67625 273.148125 
L 525.114079 273.148125 
" style="fill:none;stroke:#ffffff;stroke-linecap:square;stroke-linejoin:miter;stroke-width:1.25;"/>
   </g>
   <g id="text_48">
    <!-- Reactive Power Q -->
    <g style="fill:#262626;" transform="translate(242.045477 267.148125)scale(0.12 -0.12)">
     <defs>
      <path d="M 3966 491 
Q 4388 200 4744 66 
L 4566 -356 
Q 4072 -178 3581 206 
Q 3072 -78 2456 -78 
Q 1834 -78 1328 222 
Q 822 522 548 1065 
Q 275 1609 275 2291 
Q 275 2969 550 3525 
Q 825 4081 1333 4372 
Q 1841 4663 2469 4663 
Q 3103 4663 3612 4361 
Q 4122 4059 4389 3517 
Q 4656 2975 4656 2294 
Q 4656 1728 4484 1276 
Q 4313 825 3966 491 
z
M 2631 1266 
Q 3156 1119 3497 828 
Q 4031 1316 4031 2294 
Q 4031 2850 3842 3265 
Q 3653 3681 3289 3911 
Q 2925 4141 2472 4141 
Q 1794 4141 1347 3677 
Q 900 3213 900 2291 
Q 900 1397 1342 919 
Q 1784 441 2472 441 
Q 2797 441 3084 563 
Q 2800 747 2484 825 
L 2631 1266 
z
" id="ArialMT-51" transform="scale(0.015625)"/>
     </defs>
     <use xlink:href="#ArialMT-52"/>
     <use x="72.216797" xlink:href="#ArialMT-65"/>
     <use x="127.832031" xlink:href="#ArialMT-61"/>
     <use x="183.447266" xlink:href="#ArialMT-63"/>
     <use x="233.447266" xlink:href="#ArialMT-74"/>
     <use x="261.230469" xlink:href="#ArialMT-69"/>
     <use x="283.447266" xlink:href="#ArialMT-76"/>
     <use x="333.447266" xlink:href="#ArialMT-65"/>
     <use x="389.0625" xlink:href="#ArialMT-20"/>
     <use x="416.845703" xlink:href="#ArialMT-50"/>
     <use x="483.544922" xlink:href="#ArialMT-6f"/>
     <use x="539.160156" xlink:href="#ArialMT-77"/>
     <use x="611.376953" xlink:href="#ArialMT-65"/>
     <use x="666.992188" xlink:href="#ArialMT-72"/>
     <use x="700.292969" xlink:href="#ArialMT-20"/>
     <use x="728.076172" xlink:href="#ArialMT-51"/>
    </g>
   </g>
  </g>
  <g id="axes_4">
   <g id="patch_17">
    <path d="M 589.418125 471.46 
L 1058.855954 471.46 
L 1058.855954 273.148125 
L 589.418125 273.148125 
z
" style="fill:#eaeaf2;"/>
   </g>
   <g id="matplotlib.axis_7">
    <g id="xtick_28">
     <g id="line2d_46">
      <path clip-path="url(#p6bc3fc33cd)" d="M 610.756208 471.46 
L 610.756208 273.148125 
" style="fill:none;stroke:#ffffff;stroke-linecap:round;"/>
     </g>
     <g id="text_49">
      <!-- 0 -->
      <g style="fill:#262626;" transform="translate(607.697693 488.833594)scale(0.11 -0.11)">
       <use xlink:href="#ArialMT-30"/>
      </g>
     </g>
    </g>
    <g id="xtick_29">
     <g id="line2d_47">
      <path clip-path="url(#p6bc3fc33cd)" d="M 666.615065 471.46 
L 666.615065 273.148125 
" style="fill:none;stroke:#ffffff;stroke-linecap:round;"/>
     </g>
     <g id="text_50">
      <!-- 25 -->
      <g style="fill:#262626;" transform="translate(660.498033 488.833594)scale(0.11 -0.11)">
       <use xlink:href="#ArialMT-32"/>
       <use x="55.615234" xlink:href="#ArialMT-35"/>
      </g>
     </g>
    </g>
    <g id="xtick_30">
     <g id="line2d_48">
      <path clip-path="url(#p6bc3fc33cd)" d="M 722.473921 471.46 
L 722.473921 273.148125 
" style="fill:none;stroke:#ffffff;stroke-linecap:round;"/>
     </g>
     <g id="text_51">
      <!-- 50 -->
      <g style="fill:#262626;" transform="translate(716.35689 488.833594)scale(0.11 -0.11)">
       <use xlink:href="#ArialMT-35"/>
       <use x="55.615234" xlink:href="#ArialMT-30"/>
      </g>
     </g>
    </g>
    <g id="xtick_31">
     <g id="line2d_49">
      <path clip-path="url(#p6bc3fc33cd)" d="M 778.332777 471.46 
L 778.332777 273.148125 
" style="fill:none;stroke:#ffffff;stroke-linecap:round;"/>
     </g>
     <g id="text_52">
      <!-- 75 -->
      <g style="fill:#262626;" transform="translate(772.215746 488.833594)scale(0.11 -0.11)">
       <use xlink:href="#ArialMT-37"/>
       <use x="55.615234" xlink:href="#ArialMT-35"/>
      </g>
     </g>
    </g>
    <g id="xtick_32">
     <g id="line2d_50">
      <path clip-path="url(#p6bc3fc33cd)" d="M 834.191634 471.46 
L 834.191634 273.148125 
" style="fill:none;stroke:#ffffff;stroke-linecap:round;"/>
     </g>
     <g id="text_53">
      <!-- 100 -->
      <g style="fill:#262626;" transform="translate(825.016087 488.833594)scale(0.11 -0.11)">
       <use xlink:href="#ArialMT-31"/>
       <use x="55.615234" xlink:href="#ArialMT-30"/>
       <use x="111.230469" xlink:href="#ArialMT-30"/>
      </g>
     </g>
    </g>
    <g id="xtick_33">
     <g id="line2d_51">
      <path clip-path="url(#p6bc3fc33cd)" d="M 890.05049 471.46 
L 890.05049 273.148125 
" style="fill:none;stroke:#ffffff;stroke-linecap:round;"/>
     </g>
     <g id="text_54">
      <!-- 125 -->
      <g style="fill:#262626;" transform="translate(880.874943 488.833594)scale(0.11 -0.11)">
       <use xlink:href="#ArialMT-31"/>
       <use x="55.615234" xlink:href="#ArialMT-32"/>
       <use x="111.230469" xlink:href="#ArialMT-35"/>
      </g>
     </g>
    </g>
    <g id="xtick_34">
     <g id="line2d_52">
      <path clip-path="url(#p6bc3fc33cd)" d="M 945.909347 471.46 
L 945.909347 273.148125 
" style="fill:none;stroke:#ffffff;stroke-linecap:round;"/>
     </g>
     <g id="text_55">
      <!-- 150 -->
      <g style="fill:#262626;" transform="translate(936.7338 488.833594)scale(0.11 -0.11)">
       <use xlink:href="#ArialMT-31"/>
       <use x="55.615234" xlink:href="#ArialMT-35"/>
       <use x="111.230469" xlink:href="#ArialMT-30"/>
      </g>
     </g>
    </g>
    <g id="xtick_35">
     <g id="line2d_53">
      <path clip-path="url(#p6bc3fc33cd)" d="M 1001.768203 471.46 
L 1001.768203 273.148125 
" style="fill:none;stroke:#ffffff;stroke-linecap:round;"/>
     </g>
     <g id="text_56">
      <!-- 175 -->
      <g style="fill:#262626;" transform="translate(992.592656 488.833594)scale(0.11 -0.11)">
       <use xlink:href="#ArialMT-31"/>
       <use x="55.615234" xlink:href="#ArialMT-37"/>
       <use x="111.230469" xlink:href="#ArialMT-35"/>
      </g>
     </g>
    </g>
    <g id="xtick_36">
     <g id="line2d_54">
      <path clip-path="url(#p6bc3fc33cd)" d="M 1057.627059 471.46 
L 1057.627059 273.148125 
" style="fill:none;stroke:#ffffff;stroke-linecap:round;"/>
     </g>
     <g id="text_57">
      <!-- 200 -->
      <g style="fill:#262626;" transform="translate(1048.451513 488.833594)scale(0.11 -0.11)">
       <use xlink:href="#ArialMT-32"/>
       <use x="55.615234" xlink:href="#ArialMT-30"/>
       <use x="111.230469" xlink:href="#ArialMT-30"/>
      </g>
     </g>
    </g>
   </g>
   <g id="matplotlib.axis_8">
    <g id="ytick_16">
     <g id="line2d_55">
      <path clip-path="url(#p6bc3fc33cd)" d="M 589.418125 462.445824 
L 1058.855954 462.445824 
" style="fill:none;stroke:#ffffff;stroke-linecap:round;"/>
     </g>
     <g id="text_58">
      <!-- 0.000 -->
      <g style="fill:#262626;" transform="translate(552.394063 466.382621)scale(0.11 -0.11)">
       <defs>
        <path d="M 581 0 
L 581 641 
L 1222 641 
L 1222 0 
L 581 0 
z
" id="ArialMT-2e" transform="scale(0.015625)"/>
       </defs>
       <use xlink:href="#ArialMT-30"/>
       <use x="55.615234" xlink:href="#ArialMT-2e"/>
       <use x="83.398438" xlink:href="#ArialMT-30"/>
       <use x="139.013672" xlink:href="#ArialMT-30"/>
       <use x="194.628906" xlink:href="#ArialMT-30"/>
      </g>
     </g>
    </g>
    <g id="ytick_17">
     <g id="line2d_56">
      <path clip-path="url(#p6bc3fc33cd)" d="M 589.418125 439.369533 
L 1058.855954 439.369533 
" style="fill:none;stroke:#ffffff;stroke-linecap:round;"/>
     </g>
     <g id="text_59">
      <!-- 0.002 -->
      <g style="fill:#262626;" transform="translate(552.394063 443.30633)scale(0.11 -0.11)">
       <use xlink:href="#ArialMT-30"/>
       <use x="55.615234" xlink:href="#ArialMT-2e"/>
       <use x="83.398438" xlink:href="#ArialMT-30"/>
       <use x="139.013672" xlink:href="#ArialMT-30"/>
       <use x="194.628906" xlink:href="#ArialMT-32"/>
      </g>
     </g>
    </g>
    <g id="ytick_18">
     <g id="line2d_57">
      <path clip-path="url(#p6bc3fc33cd)" d="M 589.418125 416.293242 
L 1058.855954 416.293242 
" style="fill:none;stroke:#ffffff;stroke-linecap:round;"/>
     </g>
     <g id="text_60">
      <!-- 0.004 -->
      <g style="fill:#262626;" transform="translate(552.394063 420.230039)scale(0.11 -0.11)">
       <use xlink:href="#ArialMT-30"/>
       <use x="55.615234" xlink:href="#ArialMT-2e"/>
       <use x="83.398438" xlink:href="#ArialMT-30"/>
       <use x="139.013672" xlink:href="#ArialMT-30"/>
       <use x="194.628906" xlink:href="#ArialMT-34"/>
      </g>
     </g>
    </g>
    <g id="ytick_19">
     <g id="line2d_58">
      <path clip-path="url(#p6bc3fc33cd)" d="M 589.418125 393.216951 
L 1058.855954 393.216951 
" style="fill:none;stroke:#ffffff;stroke-linecap:round;"/>
     </g>
     <g id="text_61">
      <!-- 0.006 -->
      <g style="fill:#262626;" transform="translate(552.394063 397.153748)scale(0.11 -0.11)">
       <use xlink:href="#ArialMT-30"/>
       <use x="55.615234" xlink:href="#ArialMT-2e"/>
       <use x="83.398438" xlink:href="#ArialMT-30"/>
       <use x="139.013672" xlink:href="#ArialMT-30"/>
       <use x="194.628906" xlink:href="#ArialMT-36"/>
      </g>
     </g>
    </g>
    <g id="ytick_20">
     <g id="line2d_59">
      <path clip-path="url(#p6bc3fc33cd)" d="M 589.418125 370.14066 
L 1058.855954 370.14066 
" style="fill:none;stroke:#ffffff;stroke-linecap:round;"/>
     </g>
     <g id="text_62">
      <!-- 0.008 -->
      <g style="fill:#262626;" transform="translate(552.394063 374.077457)scale(0.11 -0.11)">
       <use xlink:href="#ArialMT-30"/>
       <use x="55.615234" xlink:href="#ArialMT-2e"/>
       <use x="83.398438" xlink:href="#ArialMT-30"/>
       <use x="139.013672" xlink:href="#ArialMT-30"/>
       <use x="194.628906" xlink:href="#ArialMT-38"/>
      </g>
     </g>
    </g>
    <g id="ytick_21">
     <g id="line2d_60">
      <path clip-path="url(#p6bc3fc33cd)" d="M 589.418125 347.064369 
L 1058.855954 347.064369 
" style="fill:none;stroke:#ffffff;stroke-linecap:round;"/>
     </g>
     <g id="text_63">
      <!-- 0.010 -->
      <g style="fill:#262626;" transform="translate(552.394063 351.001166)scale(0.11 -0.11)">
       <use xlink:href="#ArialMT-30"/>
       <use x="55.615234" xlink:href="#ArialMT-2e"/>
       <use x="83.398438" xlink:href="#ArialMT-30"/>
       <use x="139.013672" xlink:href="#ArialMT-31"/>
       <use x="194.628906" xlink:href="#ArialMT-30"/>
      </g>
     </g>
    </g>
    <g id="ytick_22">
     <g id="line2d_61">
      <path clip-path="url(#p6bc3fc33cd)" d="M 589.418125 323.988078 
L 1058.855954 323.988078 
" style="fill:none;stroke:#ffffff;stroke-linecap:round;"/>
     </g>
     <g id="text_64">
      <!-- 0.012 -->
      <g style="fill:#262626;" transform="translate(552.394063 327.924875)scale(0.11 -0.11)">
       <use xlink:href="#ArialMT-30"/>
       <use x="55.615234" xlink:href="#ArialMT-2e"/>
       <use x="83.398438" xlink:href="#ArialMT-30"/>
       <use x="139.013672" xlink:href="#ArialMT-31"/>
       <use x="194.628906" xlink:href="#ArialMT-32"/>
      </g>
     </g>
    </g>
    <g id="ytick_23">
     <g id="line2d_62">
      <path clip-path="url(#p6bc3fc33cd)" d="M 589.418125 300.911787 
L 1058.855954 300.911787 
" style="fill:none;stroke:#ffffff;stroke-linecap:round;"/>
     </g>
     <g id="text_65">
      <!-- 0.014 -->
      <g style="fill:#262626;" transform="translate(552.394063 304.848584)scale(0.11 -0.11)">
       <use xlink:href="#ArialMT-30"/>
       <use x="55.615234" xlink:href="#ArialMT-2e"/>
       <use x="83.398438" xlink:href="#ArialMT-30"/>
       <use x="139.013672" xlink:href="#ArialMT-31"/>
       <use x="194.628906" xlink:href="#ArialMT-34"/>
      </g>
     </g>
    </g>
    <g id="ytick_24">
     <g id="line2d_63">
      <path clip-path="url(#p6bc3fc33cd)" d="M 589.418125 277.835497 
L 1058.855954 277.835497 
" style="fill:none;stroke:#ffffff;stroke-linecap:round;"/>
     </g>
     <g id="text_66">
      <!-- 0.016 -->
      <g style="fill:#262626;" transform="translate(552.394063 281.772293)scale(0.11 -0.11)">
       <use xlink:href="#ArialMT-30"/>
       <use x="55.615234" xlink:href="#ArialMT-2e"/>
       <use x="83.398438" xlink:href="#ArialMT-30"/>
       <use x="139.013672" xlink:href="#ArialMT-31"/>
       <use x="194.628906" xlink:href="#ArialMT-36"/>
      </g>
     </g>
    </g>
   </g>
   <g id="line2d_64">
    <path clip-path="url(#p6bc3fc33cd)" d="M 610.756208 462.445824 
L 612.990562 446.510861 
L 615.224917 446.510861 
L 617.459271 442.92956 
L 619.693625 454.478343 
L 621.927979 462.445824 
L 624.162334 446.510861 
L 626.396688 446.02044 
L 628.631042 462.445824 
L 630.865396 451.178104 
L 633.099751 462.445824 
L 635.334105 446.510861 
L 637.568459 443.760423 
L 639.802813 444.629994 
L 642.037168 448.645741 
L 644.271522 454.478343 
L 646.505876 451.178104 
L 650.974585 451.178104 
L 653.208939 462.445824 
L 655.443293 446.510861 
L 657.677648 451.178104 
L 659.912002 462.445824 
L 662.146356 443.760423 
L 666.615065 453.537909 
L 668.849419 451.178104 
L 671.083773 448.645741 
L 673.318127 462.445824 
L 675.552482 454.478343 
L 677.786836 451.178104 
L 680.02119 451.178104 
L 682.255544 462.445824 
L 684.489899 451.178104 
L 686.724253 446.510861 
L 688.958607 444.629994 
L 691.192961 462.445824 
L 693.427316 442.92956 
L 695.66167 446.510861 
L 697.896024 451.178104 
L 700.130378 462.445824 
L 702.364733 454.478343 
L 704.599087 451.178104 
L 706.833441 462.445824 
L 709.067795 462.445824 
L 711.30215 454.478343 
L 713.536504 462.445824 
L 715.770858 443.760423 
L 718.005212 446.510861 
L 720.239567 446.510861 
L 722.473921 442.92956 
L 724.708275 462.445824 
L 726.942629 446.510861 
L 729.176984 454.478343 
L 731.411338 442.92956 
L 733.645692 451.178104 
L 735.880047 451.178104 
L 738.114401 462.445824 
L 740.348755 446.510861 
L 742.583109 454.478343 
L 744.817464 446.510861 
L 747.051818 462.445824 
L 749.286172 448.645741 
L 751.520526 442.92956 
L 753.754881 454.478343 
L 755.989235 462.445824 
L 758.223589 451.178104 
L 760.457943 462.445824 
L 762.692298 442.92956 
L 764.926652 462.445824 
L 767.161006 451.178104 
L 769.39536 448.645741 
L 771.629715 462.445824 
L 773.864069 448.645741 
L 776.098423 462.445824 
L 778.332777 451.178104 
L 780.567132 462.445824 
L 782.801486 462.445824 
L 785.03584 423.413297 
L 787.270194 446.510861 
L 789.504549 462.445824 
L 791.738903 462.445824 
L 793.973257 430.575899 
L 796.207611 439.910384 
L 798.441966 462.445824 
L 800.67632 430.575899 
L 802.910674 462.445824 
L 805.145028 430.575899 
L 807.379383 430.575899 
L 809.613737 439.910384 
L 811.848091 430.575899 
L 814.082445 430.575899 
L 816.3168 439.910384 
L 818.551154 446.510861 
L 820.785508 446.510861 
L 823.019863 462.445824 
L 825.254217 430.575899 
L 827.488571 462.445824 
L 829.722925 442.92956 
L 831.95728 462.445824 
L 838.660342 462.445824 
L 840.894697 282.162301 
L 843.129051 462.445824 
L 1037.517871 462.445824 
L 1037.517871 462.445824 
" style="fill:none;stroke:#4c72b0;stroke-linecap:round;stroke-width:1.5;"/>
   </g>
   <g id="patch_18">
    <path d="M 589.418125 471.46 
L 589.418125 273.148125 
" style="fill:none;stroke:#ffffff;stroke-linecap:square;stroke-linejoin:miter;stroke-width:1.25;"/>
   </g>
   <g id="patch_19">
    <path d="M 1058.855954 471.46 
L 1058.855954 273.148125 
" style="fill:none;stroke:#ffffff;stroke-linecap:square;stroke-linejoin:miter;stroke-width:1.25;"/>
   </g>
   <g id="patch_20">
    <path d="M 589.418125 471.46 
L 1058.855954 471.46 
" style="fill:none;stroke:#ffffff;stroke-linecap:square;stroke-linejoin:miter;stroke-width:1.25;"/>
   </g>
   <g id="patch_21">
    <path d="M 589.418125 273.148125 
L 1058.855954 273.148125 
" style="fill:none;stroke:#ffffff;stroke-linecap:square;stroke-linejoin:miter;stroke-width:1.25;"/>
   </g>
   <g id="text_67">
    <!-- Distortion Power D -->
    <g style="fill:#262626;" transform="translate(774.12329 267.148125)scale(0.12 -0.12)">
     <defs>
      <path d="M 494 0 
L 494 4581 
L 2072 4581 
Q 2606 4581 2888 4516 
Q 3281 4425 3559 4188 
Q 3922 3881 4101 3404 
Q 4281 2928 4281 2316 
Q 4281 1794 4159 1391 
Q 4038 988 3847 723 
Q 3656 459 3429 307 
Q 3203 156 2883 78 
Q 2563 0 2147 0 
L 494 0 
z
M 1100 541 
L 2078 541 
Q 2531 541 2789 625 
Q 3047 709 3200 863 
Q 3416 1078 3536 1442 
Q 3656 1806 3656 2325 
Q 3656 3044 3420 3430 
Q 3184 3816 2847 3947 
Q 2603 4041 2063 4041 
L 1100 4041 
L 1100 541 
z
" id="ArialMT-44" transform="scale(0.015625)"/>
     </defs>
     <use xlink:href="#ArialMT-44"/>
     <use x="72.216797" xlink:href="#ArialMT-69"/>
     <use x="94.433594" xlink:href="#ArialMT-73"/>
     <use x="144.433594" xlink:href="#ArialMT-74"/>
     <use x="172.216797" xlink:href="#ArialMT-6f"/>
     <use x="227.832031" xlink:href="#ArialMT-72"/>
     <use x="261.132812" xlink:href="#ArialMT-74"/>
     <use x="288.916016" xlink:href="#ArialMT-69"/>
     <use x="311.132812" xlink:href="#ArialMT-6f"/>
     <use x="366.748047" xlink:href="#ArialMT-6e"/>
     <use x="422.363281" xlink:href="#ArialMT-20"/>
     <use x="450.146484" xlink:href="#ArialMT-50"/>
     <use x="516.845703" xlink:href="#ArialMT-6f"/>
     <use x="572.460938" xlink:href="#ArialMT-77"/>
     <use x="644.677734" xlink:href="#ArialMT-65"/>
     <use x="700.292969" xlink:href="#ArialMT-72"/>
     <use x="733.59375" xlink:href="#ArialMT-20"/>
     <use x="761.376953" xlink:href="#ArialMT-44"/>
    </g>
   </g>
  </g>
  <g id="text_68">
   <!-- Number of cycles -->
   <g style="fill:#262626;" transform="translate(493.654688 507.105)scale(0.12 -0.12)">
    <defs>
     <path d="M 488 0 
L 488 4581 
L 1109 4581 
L 3516 984 
L 3516 4581 
L 4097 4581 
L 4097 0 
L 3475 0 
L 1069 3600 
L 1069 0 
L 488 0 
z
" id="ArialMT-4e" transform="scale(0.015625)"/>
     <path d="M 2597 0 
L 2597 488 
Q 2209 -75 1544 -75 
Q 1250 -75 995 37 
Q 741 150 617 320 
Q 494 491 444 738 
Q 409 903 409 1263 
L 409 3319 
L 972 3319 
L 972 1478 
Q 972 1038 1006 884 
Q 1059 663 1231 536 
Q 1403 409 1656 409 
Q 1909 409 2131 539 
Q 2353 669 2445 892 
Q 2538 1116 2538 1541 
L 2538 3319 
L 3100 3319 
L 3100 0 
L 2597 0 
z
" id="ArialMT-75" transform="scale(0.015625)"/>
     <path d="M 941 0 
L 419 0 
L 419 4581 
L 981 4581 
L 981 2947 
Q 1338 3394 1891 3394 
Q 2197 3394 2470 3270 
Q 2744 3147 2920 2923 
Q 3097 2700 3197 2384 
Q 3297 2069 3297 1709 
Q 3297 856 2875 390 
Q 2453 -75 1863 -75 
Q 1275 -75 941 416 
L 941 0 
z
M 934 1684 
Q 934 1088 1097 822 
Q 1363 388 1816 388 
Q 2184 388 2453 708 
Q 2722 1028 2722 1663 
Q 2722 2313 2464 2622 
Q 2206 2931 1841 2931 
Q 1472 2931 1203 2611 
Q 934 2291 934 1684 
z
" id="ArialMT-62" transform="scale(0.015625)"/>
     <path d="M 556 0 
L 556 2881 
L 59 2881 
L 59 3319 
L 556 3319 
L 556 3672 
Q 556 4006 616 4169 
Q 697 4388 901 4523 
Q 1106 4659 1475 4659 
Q 1713 4659 2000 4603 
L 1916 4113 
Q 1741 4144 1584 4144 
Q 1328 4144 1222 4034 
Q 1116 3925 1116 3625 
L 1116 3319 
L 1763 3319 
L 1763 2881 
L 1116 2881 
L 1116 0 
L 556 0 
z
" id="ArialMT-66" transform="scale(0.015625)"/>
     <path d="M 397 -1278 
L 334 -750 
Q 519 -800 656 -800 
Q 844 -800 956 -737 
Q 1069 -675 1141 -563 
Q 1194 -478 1313 -144 
Q 1328 -97 1363 -6 
L 103 3319 
L 709 3319 
L 1400 1397 
Q 1534 1031 1641 628 
Q 1738 1016 1872 1384 
L 2581 3319 
L 3144 3319 
L 1881 -56 
Q 1678 -603 1566 -809 
Q 1416 -1088 1222 -1217 
Q 1028 -1347 759 -1347 
Q 597 -1347 397 -1278 
z
" id="ArialMT-79" transform="scale(0.015625)"/>
    </defs>
    <use xlink:href="#ArialMT-4e"/>
    <use x="72.216797" xlink:href="#ArialMT-75"/>
    <use x="127.832031" xlink:href="#ArialMT-6d"/>
    <use x="211.132812" xlink:href="#ArialMT-62"/>
    <use x="266.748047" xlink:href="#ArialMT-65"/>
    <use x="322.363281" xlink:href="#ArialMT-72"/>
    <use x="355.664062" xlink:href="#ArialMT-20"/>
    <use x="383.447266" xlink:href="#ArialMT-6f"/>
    <use x="439.0625" xlink:href="#ArialMT-66"/>
    <use x="466.845703" xlink:href="#ArialMT-20"/>
    <use x="494.628906" xlink:href="#ArialMT-63"/>
    <use x="544.628906" xlink:href="#ArialMT-79"/>
    <use x="594.628906" xlink:href="#ArialMT-63"/>
    <use x="644.628906" xlink:href="#ArialMT-6c"/>
    <use x="666.845703" xlink:href="#ArialMT-65"/>
    <use x="722.460938" xlink:href="#ArialMT-73"/>
   </g>
  </g>
 </g>
 <defs>
  <clipPath id="pd3a94ac2fc">
   <rect height="198.311875" width="469.437829" x="55.67625" y="27.65625"/>
  </clipPath>
  <clipPath id="ped5cacfa3e">
   <rect height="198.311875" width="469.437829" x="589.418125" y="27.65625"/>
  </clipPath>
  <clipPath id="pb36ddc9727">
   <rect height="198.311875" width="469.437829" x="55.67625" y="273.148125"/>
  </clipPath>
  <clipPath id="p6bc3fc33cd">
   <rect height="198.311875" width="469.437829" x="589.418125" y="273.148125"/>
  </clipPath>
 </defs>
</svg>
