<?xml version="1.0" encoding="utf-8" standalone="no"?>
<!DOCTYPE svg PUBLIC "-//W3C//DTD SVG 1.1//EN"
  "http://www.w3.org/Graphics/SVG/1.1/DTD/svg11.dtd">
<!-- Created with matplotlib (https://matplotlib.org/) -->
<svg height="504pt" version="1.1" viewBox="0 0 1080 504" width="1080pt" xmlns="http://www.w3.org/2000/svg" xmlns:xlink="http://www.w3.org/1999/xlink">
 <metadata>
  <rdf:RDF xmlns:cc="http://creativecommons.org/ns#" xmlns:dc="http://purl.org/dc/elements/1.1/" xmlns:rdf="http://www.w3.org/1999/02/22-rdf-syntax-ns#">
   <cc:Work>
    <dc:type rdf:resource="http://purl.org/dc/dcmitype/StillImage"/>
    <dc:date>2021-07-25T16:10:01.159083</dc:date>
    <dc:format>image/svg+xml</dc:format>
    <dc:creator>
     <cc:Agent>
      <dc:title>Matplotlib v3.3.4, https://matplotlib.org/</dc:title>
     </cc:Agent>
    </dc:creator>
   </cc:Work>
  </rdf:RDF>
 </metadata>
 <defs>
  <style type="text/css">*{stroke-linecap:butt;stroke-linejoin:round;}</style>
 </defs>
 <g id="figure_1">
  <g id="patch_1">
   <path d="M 0 504 
L 1080 504 
L 1080 0 
L 0 0 
z
" style="fill:#ffffff;"/>
  </g>
  <g id="axes_1">
   <g id="patch_2">
    <path d="M 54.881875 239.523438 
L 517.664392 239.523438 
L 517.664392 53.966875 
L 54.881875 53.966875 
z
" style="fill:#eaeaf2;"/>
   </g>
   <g id="matplotlib.axis_1">
    <g id="xtick_1">
     <g id="line2d_1">
      <path clip-path="url(#pe8354560fb)" d="M 75.917444 239.523438 
L 75.917444 53.966875 
" style="fill:none;stroke:#ffffff;stroke-linecap:round;"/>
     </g>
     <g id="text_1">
      <!-- 0 -->
      <g style="fill:#262626;" transform="translate(72.858928 256.897031)scale(0.11 -0.11)">
       <defs>
        <path d="M 4.15625 35.296875 
Q 4.15625 48 6.765625 55.734375 
Q 9.375 63.484375 14.515625 67.671875 
Q 19.671875 71.875 27.484375 71.875 
Q 33.25 71.875 37.59375 69.546875 
Q 41.9375 67.234375 44.765625 62.859375 
Q 47.609375 58.5 49.21875 52.21875 
Q 50.828125 45.953125 50.828125 35.296875 
Q 50.828125 22.703125 48.234375 14.96875 
Q 45.65625 7.234375 40.5 3 
Q 35.359375 -1.21875 27.484375 -1.21875 
Q 17.140625 -1.21875 11.234375 6.203125 
Q 4.15625 15.140625 4.15625 35.296875 
z
M 13.1875 35.296875 
Q 13.1875 17.671875 17.3125 11.828125 
Q 21.4375 6 27.484375 6 
Q 33.546875 6 37.671875 11.859375 
Q 41.796875 17.71875 41.796875 35.296875 
Q 41.796875 52.984375 37.671875 58.78125 
Q 33.546875 64.59375 27.390625 64.59375 
Q 21.34375 64.59375 17.71875 59.46875 
Q 13.1875 52.9375 13.1875 35.296875 
z
" id="ArialMT-48"/>
       </defs>
       <use xlink:href="#ArialMT-48"/>
      </g>
     </g>
    </g>
    <g id="xtick_2">
     <g id="line2d_2">
      <path clip-path="url(#pe8354560fb)" d="M 130.984378 239.523438 
L 130.984378 53.966875 
" style="fill:none;stroke:#ffffff;stroke-linecap:round;"/>
     </g>
     <g id="text_2">
      <!-- 25 -->
      <g style="fill:#262626;" transform="translate(124.867347 256.897031)scale(0.11 -0.11)">
       <defs>
        <path d="M 50.34375 8.453125 
L 50.34375 0 
L 3.03125 0 
Q 2.9375 3.171875 4.046875 6.109375 
Q 5.859375 10.9375 9.828125 15.625 
Q 13.8125 20.3125 21.34375 26.46875 
Q 33.015625 36.03125 37.109375 41.625 
Q 41.21875 47.21875 41.21875 52.203125 
Q 41.21875 57.421875 37.46875 61 
Q 33.734375 64.59375 27.734375 64.59375 
Q 21.390625 64.59375 17.578125 60.78125 
Q 13.765625 56.984375 13.71875 50.25 
L 4.6875 51.171875 
Q 5.609375 61.28125 11.65625 66.578125 
Q 17.71875 71.875 27.9375 71.875 
Q 38.234375 71.875 44.234375 66.15625 
Q 50.25 60.453125 50.25 52 
Q 50.25 47.703125 48.484375 43.546875 
Q 46.734375 39.40625 42.65625 34.8125 
Q 38.578125 30.21875 29.109375 22.21875 
Q 21.1875 15.578125 18.9375 13.203125 
Q 16.703125 10.84375 15.234375 8.453125 
z
" id="ArialMT-50"/>
        <path d="M 4.15625 18.75 
L 13.375 19.53125 
Q 14.40625 12.796875 18.140625 9.390625 
Q 21.875 6 27.15625 6 
Q 33.5 6 37.890625 10.78125 
Q 42.28125 15.578125 42.28125 23.484375 
Q 42.28125 31 38.0625 35.34375 
Q 33.84375 39.703125 27 39.703125 
Q 22.75 39.703125 19.328125 37.765625 
Q 15.921875 35.84375 13.96875 32.765625 
L 5.71875 33.84375 
L 12.640625 70.609375 
L 48.25 70.609375 
L 48.25 62.203125 
L 19.671875 62.203125 
L 15.828125 42.96875 
Q 22.265625 47.46875 29.34375 47.46875 
Q 38.71875 47.46875 45.15625 40.96875 
Q 51.609375 34.46875 51.609375 24.265625 
Q 51.609375 14.546875 45.953125 7.46875 
Q 39.0625 -1.21875 27.15625 -1.21875 
Q 17.390625 -1.21875 11.203125 4.25 
Q 5.03125 9.71875 4.15625 18.75 
z
" id="ArialMT-53"/>
       </defs>
       <use xlink:href="#ArialMT-50"/>
       <use x="55.615234" xlink:href="#ArialMT-53"/>
      </g>
     </g>
    </g>
    <g id="xtick_3">
     <g id="line2d_3">
      <path clip-path="url(#pe8354560fb)" d="M 186.051313 239.523438 
L 186.051313 53.966875 
" style="fill:none;stroke:#ffffff;stroke-linecap:round;"/>
     </g>
     <g id="text_3">
      <!-- 50 -->
      <g style="fill:#262626;" transform="translate(179.934282 256.897031)scale(0.11 -0.11)">
       <use xlink:href="#ArialMT-53"/>
       <use x="55.615234" xlink:href="#ArialMT-48"/>
      </g>
     </g>
    </g>
    <g id="xtick_4">
     <g id="line2d_4">
      <path clip-path="url(#pe8354560fb)" d="M 241.118247 239.523438 
L 241.118247 53.966875 
" style="fill:none;stroke:#ffffff;stroke-linecap:round;"/>
     </g>
     <g id="text_4">
      <!-- 75 -->
      <g style="fill:#262626;" transform="translate(235.001216 256.897031)scale(0.11 -0.11)">
       <defs>
        <path d="M 4.734375 62.203125 
L 4.734375 70.65625 
L 51.078125 70.65625 
L 51.078125 63.8125 
Q 44.234375 56.546875 37.515625 44.484375 
Q 30.8125 32.421875 27.15625 19.671875 
Q 24.515625 10.6875 23.78125 0 
L 14.75 0 
Q 14.890625 8.453125 18.0625 20.40625 
Q 21.234375 32.375 27.171875 43.484375 
Q 33.109375 54.59375 39.796875 62.203125 
z
" id="ArialMT-55"/>
       </defs>
       <use xlink:href="#ArialMT-55"/>
       <use x="55.615234" xlink:href="#ArialMT-53"/>
      </g>
     </g>
    </g>
    <g id="xtick_5">
     <g id="line2d_5">
      <path clip-path="url(#pe8354560fb)" d="M 296.185182 239.523438 
L 296.185182 53.966875 
" style="fill:none;stroke:#ffffff;stroke-linecap:round;"/>
     </g>
     <g id="text_5">
      <!-- 100 -->
      <g style="fill:#262626;" transform="translate(287.009635 256.897031)scale(0.11 -0.11)">
       <defs>
        <path d="M 37.25 0 
L 28.46875 0 
L 28.46875 56 
Q 25.296875 52.984375 20.140625 49.953125 
Q 14.984375 46.921875 10.890625 45.40625 
L 10.890625 53.90625 
Q 18.265625 57.375 23.78125 62.296875 
Q 29.296875 67.234375 31.59375 71.875 
L 37.25 71.875 
z
" id="ArialMT-49"/>
       </defs>
       <use xlink:href="#ArialMT-49"/>
       <use x="55.615234" xlink:href="#ArialMT-48"/>
       <use x="111.230469" xlink:href="#ArialMT-48"/>
      </g>
     </g>
    </g>
    <g id="xtick_6">
     <g id="line2d_6">
      <path clip-path="url(#pe8354560fb)" d="M 351.252116 239.523438 
L 351.252116 53.966875 
" style="fill:none;stroke:#ffffff;stroke-linecap:round;"/>
     </g>
     <g id="text_6">
      <!-- 125 -->
      <g style="fill:#262626;" transform="translate(342.076569 256.897031)scale(0.11 -0.11)">
       <use xlink:href="#ArialMT-49"/>
       <use x="55.615234" xlink:href="#ArialMT-50"/>
       <use x="111.230469" xlink:href="#ArialMT-53"/>
      </g>
     </g>
    </g>
    <g id="xtick_7">
     <g id="line2d_7">
      <path clip-path="url(#pe8354560fb)" d="M 406.31905 239.523438 
L 406.31905 53.966875 
" style="fill:none;stroke:#ffffff;stroke-linecap:round;"/>
     </g>
     <g id="text_7">
      <!-- 150 -->
      <g style="fill:#262626;" transform="translate(397.143504 256.897031)scale(0.11 -0.11)">
       <use xlink:href="#ArialMT-49"/>
       <use x="55.615234" xlink:href="#ArialMT-53"/>
       <use x="111.230469" xlink:href="#ArialMT-48"/>
      </g>
     </g>
    </g>
    <g id="xtick_8">
     <g id="line2d_8">
      <path clip-path="url(#pe8354560fb)" d="M 461.385985 239.523438 
L 461.385985 53.966875 
" style="fill:none;stroke:#ffffff;stroke-linecap:round;"/>
     </g>
     <g id="text_8">
      <!-- 175 -->
      <g style="fill:#262626;" transform="translate(452.210438 256.897031)scale(0.11 -0.11)">
       <use xlink:href="#ArialMT-49"/>
       <use x="55.615234" xlink:href="#ArialMT-55"/>
       <use x="111.230469" xlink:href="#ArialMT-53"/>
      </g>
     </g>
    </g>
    <g id="xtick_9">
     <g id="line2d_9">
      <path clip-path="url(#pe8354560fb)" d="M 516.452919 239.523438 
L 516.452919 53.966875 
" style="fill:none;stroke:#ffffff;stroke-linecap:round;"/>
     </g>
     <g id="text_9">
      <!-- 200 -->
      <g style="fill:#262626;" transform="translate(507.277372 256.897031)scale(0.11 -0.11)">
       <use xlink:href="#ArialMT-50"/>
       <use x="55.615234" xlink:href="#ArialMT-48"/>
       <use x="111.230469" xlink:href="#ArialMT-48"/>
      </g>
     </g>
    </g>
   </g>
   <g id="matplotlib.axis_2">
    <g id="ytick_1">
     <g id="line2d_10">
      <path clip-path="url(#pe8354560fb)" d="M 54.881875 231.681365 
L 517.664392 231.681365 
" style="fill:none;stroke:#ffffff;stroke-linecap:round;"/>
     </g>
     <g id="text_10">
      <!-- 0 -->
      <g style="fill:#262626;" transform="translate(39.264844 235.618161)scale(0.11 -0.11)">
       <use xlink:href="#ArialMT-48"/>
      </g>
     </g>
    </g>
    <g id="ytick_2">
     <g id="line2d_11">
      <path clip-path="url(#pe8354560fb)" d="M 54.881875 192.973404 
L 517.664392 192.973404 
" style="fill:none;stroke:#ffffff;stroke-linecap:round;"/>
     </g>
     <g id="text_11">
      <!-- 50 -->
      <g style="fill:#262626;" transform="translate(33.147812 196.910201)scale(0.11 -0.11)">
       <use xlink:href="#ArialMT-53"/>
       <use x="55.615234" xlink:href="#ArialMT-48"/>
      </g>
     </g>
    </g>
    <g id="ytick_3">
     <g id="line2d_12">
      <path clip-path="url(#pe8354560fb)" d="M 54.881875 154.265444 
L 517.664392 154.265444 
" style="fill:none;stroke:#ffffff;stroke-linecap:round;"/>
     </g>
     <g id="text_12">
      <!-- 100 -->
      <g style="fill:#262626;" transform="translate(27.030781 158.202241)scale(0.11 -0.11)">
       <use xlink:href="#ArialMT-49"/>
       <use x="55.615234" xlink:href="#ArialMT-48"/>
       <use x="111.230469" xlink:href="#ArialMT-48"/>
      </g>
     </g>
    </g>
    <g id="ytick_4">
     <g id="line2d_13">
      <path clip-path="url(#pe8354560fb)" d="M 54.881875 115.557483 
L 517.664392 115.557483 
" style="fill:none;stroke:#ffffff;stroke-linecap:round;"/>
     </g>
     <g id="text_13">
      <!-- 150 -->
      <g style="fill:#262626;" transform="translate(27.030781 119.49428)scale(0.11 -0.11)">
       <use xlink:href="#ArialMT-49"/>
       <use x="55.615234" xlink:href="#ArialMT-53"/>
       <use x="111.230469" xlink:href="#ArialMT-48"/>
      </g>
     </g>
    </g>
    <g id="ytick_5">
     <g id="line2d_14">
      <path clip-path="url(#pe8354560fb)" d="M 54.881875 76.849523 
L 517.664392 76.849523 
" style="fill:none;stroke:#ffffff;stroke-linecap:round;"/>
     </g>
     <g id="text_14">
      <!-- 200 -->
      <g style="fill:#262626;" transform="translate(27.030781 80.78632)scale(0.11 -0.11)">
       <use xlink:href="#ArialMT-50"/>
       <use x="55.615234" xlink:href="#ArialMT-48"/>
       <use x="111.230469" xlink:href="#ArialMT-48"/>
      </g>
     </g>
    </g>
    <g id="text_15">
     <!-- Watts (W) -->
     <g style="fill:#262626;" transform="translate(20.505156 173.179844)rotate(-90)scale(0.12 -0.12)">
      <defs>
       <path d="M 20.21875 0 
L 1.21875 71.578125 
L 10.9375 71.578125 
L 21.828125 24.65625 
Q 23.578125 17.28125 24.859375 10.015625 
Q 27.59375 21.484375 28.078125 23.25 
L 41.703125 71.578125 
L 53.125 71.578125 
L 63.375 35.359375 
Q 67.234375 21.875 68.953125 10.015625 
Q 70.3125 16.796875 72.515625 25.59375 
L 83.734375 71.578125 
L 93.265625 71.578125 
L 73.640625 0 
L 64.5 0 
L 49.421875 54.546875 
Q 47.515625 61.375 47.171875 62.9375 
Q 46.046875 58.015625 45.0625 54.546875 
L 29.890625 0 
z
" id="ArialMT-87"/>
       <path d="M 40.4375 6.390625 
Q 35.546875 2.25 31.03125 0.53125 
Q 26.515625 -1.171875 21.34375 -1.171875 
Q 12.796875 -1.171875 8.203125 3 
Q 3.609375 7.171875 3.609375 13.671875 
Q 3.609375 17.484375 5.34375 20.625 
Q 7.078125 23.78125 9.890625 25.6875 
Q 12.703125 27.59375 16.21875 28.5625 
Q 18.796875 29.25 24.03125 29.890625 
Q 34.671875 31.15625 39.703125 32.90625 
Q 39.75 34.71875 39.75 35.203125 
Q 39.75 40.578125 37.25 42.78125 
Q 33.890625 45.75 27.25 45.75 
Q 21.046875 45.75 18.09375 43.578125 
Q 15.140625 41.40625 13.71875 35.890625 
L 5.125 37.0625 
Q 6.296875 42.578125 8.984375 45.96875 
Q 11.671875 49.359375 16.75 51.1875 
Q 21.828125 53.03125 28.515625 53.03125 
Q 35.15625 53.03125 39.296875 51.46875 
Q 43.453125 49.90625 45.40625 47.53125 
Q 47.359375 45.171875 48.140625 41.546875 
Q 48.578125 39.3125 48.578125 33.453125 
L 48.578125 21.734375 
Q 48.578125 9.46875 49.140625 6.21875 
Q 49.703125 2.984375 51.375 0 
L 42.1875 0 
Q 40.828125 2.734375 40.4375 6.390625 
z
M 39.703125 26.03125 
Q 34.90625 24.078125 25.34375 22.703125 
Q 19.921875 21.921875 17.671875 20.9375 
Q 15.4375 19.96875 14.203125 18.09375 
Q 12.984375 16.21875 12.984375 13.921875 
Q 12.984375 10.40625 15.640625 8.0625 
Q 18.3125 5.71875 23.4375 5.71875 
Q 28.515625 5.71875 32.46875 7.9375 
Q 36.421875 10.15625 38.28125 14.015625 
Q 39.703125 17 39.703125 22.796875 
z
" id="ArialMT-97"/>
       <path d="M 25.78125 7.859375 
L 27.046875 0.09375 
Q 23.34375 -0.6875 20.40625 -0.6875 
Q 15.625 -0.6875 12.984375 0.828125 
Q 10.359375 2.34375 9.28125 4.8125 
Q 8.203125 7.28125 8.203125 15.1875 
L 8.203125 45.015625 
L 1.765625 45.015625 
L 1.765625 51.859375 
L 8.203125 51.859375 
L 8.203125 64.703125 
L 16.9375 69.96875 
L 16.9375 51.859375 
L 25.78125 51.859375 
L 25.78125 45.015625 
L 16.9375 45.015625 
L 16.9375 14.703125 
Q 16.9375 10.9375 17.40625 9.859375 
Q 17.875 8.796875 18.921875 8.15625 
Q 19.96875 7.515625 21.921875 7.515625 
Q 23.390625 7.515625 25.78125 7.859375 
z
" id="ArialMT-116"/>
       <path d="M 3.078125 15.484375 
L 11.765625 16.84375 
Q 12.5 11.625 15.84375 8.84375 
Q 19.1875 6.0625 25.203125 6.0625 
Q 31.25 6.0625 34.171875 8.515625 
Q 37.109375 10.984375 37.109375 14.3125 
Q 37.109375 17.28125 34.515625 19 
Q 32.71875 20.171875 25.53125 21.96875 
Q 15.875 24.421875 12.140625 26.203125 
Q 8.40625 27.984375 6.46875 31.125 
Q 4.546875 34.28125 4.546875 38.09375 
Q 4.546875 41.546875 6.125 44.5 
Q 7.71875 47.46875 10.453125 49.421875 
Q 12.5 50.921875 16.03125 51.96875 
Q 19.578125 53.03125 23.640625 53.03125 
Q 29.734375 53.03125 34.34375 51.265625 
Q 38.96875 49.515625 41.15625 46.5 
Q 43.359375 43.5 44.1875 38.484375 
L 35.59375 37.3125 
Q 35.015625 41.3125 32.203125 43.546875 
Q 29.390625 45.796875 24.265625 45.796875 
Q 18.21875 45.796875 15.625 43.796875 
Q 13.03125 41.796875 13.03125 39.109375 
Q 13.03125 37.40625 14.109375 36.03125 
Q 15.1875 34.625 17.484375 33.6875 
Q 18.796875 33.203125 25.25 31.453125 
Q 34.578125 28.953125 38.25 27.359375 
Q 41.9375 25.78125 44.03125 22.75 
Q 46.140625 19.734375 46.140625 15.234375 
Q 46.140625 10.84375 43.578125 6.953125 
Q 41.015625 3.078125 36.171875 0.953125 
Q 31.34375 -1.171875 25.25 -1.171875 
Q 15.140625 -1.171875 9.84375 3.03125 
Q 4.546875 7.234375 3.078125 15.484375 
z
" id="ArialMT-115"/>
       <path id="ArialMT-32"/>
       <path d="M 23.390625 -21.046875 
Q 16.109375 -11.859375 11.078125 0.4375 
Q 6.0625 12.75 6.0625 25.921875 
Q 6.0625 37.546875 9.8125 48.1875 
Q 14.203125 60.546875 23.390625 72.796875 
L 29.6875 72.796875 
Q 23.78125 62.640625 21.875 58.296875 
Q 18.890625 51.5625 17.1875 44.234375 
Q 15.09375 35.109375 15.09375 25.875 
Q 15.09375 2.390625 29.6875 -21.046875 
z
" id="ArialMT-40"/>
       <path d="M 12.359375 -21.046875 
L 6.0625 -21.046875 
Q 20.65625 2.390625 20.65625 25.875 
Q 20.65625 35.0625 18.5625 44.09375 
Q 16.890625 51.421875 13.921875 58.15625 
Q 12.015625 62.546875 6.0625 72.796875 
L 12.359375 72.796875 
Q 21.53125 60.546875 25.921875 48.1875 
Q 29.6875 37.546875 29.6875 25.921875 
Q 29.6875 12.75 24.625 0.4375 
Q 19.578125 -11.859375 12.359375 -21.046875 
z
" id="ArialMT-41"/>
      </defs>
      <use xlink:href="#ArialMT-87"/>
      <use x="90.634766" xlink:href="#ArialMT-97"/>
      <use x="146.25" xlink:href="#ArialMT-116"/>
      <use x="174.033203" xlink:href="#ArialMT-116"/>
      <use x="201.816406" xlink:href="#ArialMT-115"/>
      <use x="251.816406" xlink:href="#ArialMT-32"/>
      <use x="279.599609" xlink:href="#ArialMT-40"/>
      <use x="312.900391" xlink:href="#ArialMT-87"/>
      <use x="407.285156" xlink:href="#ArialMT-41"/>
     </g>
    </g>
   </g>
   <g id="line2d_15">
    <path clip-path="url(#pe8354560fb)" d="M 75.917444 229.143646 
L 78.120121 228.8985 
L 80.322799 227.6886 
L 82.525476 229.41498 
L 84.728153 229.509991 
L 86.930831 229.0765 
L 89.133508 229.765227 
L 91.336186 231.089048 
L 93.538863 228.231828 
L 95.74154 230.04518 
L 97.944218 229.057976 
L 100.146895 228.830519 
L 102.349572 230.324277 
L 104.55225 229.701259 
L 106.754927 229.742287 
L 108.957605 229.532127 
L 111.160282 229.018656 
L 115.565637 228.719835 
L 117.768314 227.712903 
L 119.970991 229.023631 
L 122.173669 229.129131 
L 124.376346 228.942928 
L 126.579024 230.865695 
L 128.781701 229.687326 
L 130.984378 231.068244 
L 133.187056 229.243504 
L 135.389733 230.266412 
L 137.59241 229.414466 
L 139.795088 230.017697 
L 141.997765 228.819356 
L 144.200443 229.800519 
L 146.40312 229.558104 
L 148.605797 228.699222 
L 150.808475 229.77639 
L 153.011152 229.723636 
L 155.21383 229.470864 
L 157.416507 229.457888 
L 159.619184 228.878457 
L 161.821862 228.992009 
L 164.024539 229.699494 
L 166.227216 229.942321 
L 168.429894 229.309554 
L 170.632571 228.837064 
L 172.835249 228.568264 
L 175.037926 229.603994 
L 177.240603 229.023114 
L 179.443281 230.360885 
L 181.645958 228.728915 
L 183.848635 229.632797 
L 186.051313 228.65226 
L 188.25399 229.404138 
L 190.456668 228.540029 
L 192.659345 230.192203 
L 194.862022 230.230575 
L 197.0647 228.83643 
L 199.267377 229.07171 
L 201.470054 229.185766 
L 203.672732 228.028325 
L 205.875409 230.091394 
L 208.078087 229.023878 
L 210.280764 230.217137 
L 212.483441 229.751412 
L 214.686119 229.169448 
L 216.888796 229.731699 
L 219.091473 228.504506 
L 221.294151 229.233021 
L 223.496828 228.896789 
L 225.699506 229.875476 
L 227.902183 230.043501 
L 230.10486 228.77974 
L 232.307538 229.681405 
L 234.510215 226.100398 
L 236.712892 230.903383 
L 238.91557 227.722423 
L 241.118247 229.434655 
L 243.320925 229.629146 
L 245.523602 228.729452 
L 247.726279 226.453705 
L 249.928957 227.439926 
L 252.131634 226.080213 
L 254.334311 226.172438 
L 256.536989 225.526514 
L 258.739666 226.404538 
L 260.942344 226.623703 
L 263.145021 223.184626 
L 265.347698 225.268796 
L 267.550376 224.626581 
L 269.753053 225.935294 
L 271.95573 226.535766 
L 274.158408 224.093075 
L 276.361085 225.82908 
L 278.563763 226.49019 
L 280.76644 228.31561 
L 282.969117 227.569428 
L 285.171795 227.913174 
L 287.374472 227.222523 
L 289.577149 227.120949 
L 291.779827 228.736788 
L 293.982504 226.282786 
L 296.185182 222.614371 
L 298.387859 62.401264 
L 300.590536 159.667944 
L 302.793214 193.62959 
L 304.995891 190.270828 
L 307.198568 203.853178 
L 309.401246 209.07691 
L 311.603923 201.040298 
L 313.806601 187.000343 
L 316.009278 183.269395 
L 318.211955 188.392796 
L 320.414633 192.687285 
L 322.61731 192.673467 
L 324.819987 190.038277 
L 327.022665 190.970352 
L 329.225342 190.143785 
L 331.42802 190.502482 
L 333.630697 190.161312 
L 335.833374 190.511347 
L 338.036052 191.388112 
L 340.238729 190.837461 
L 342.441407 189.821188 
L 344.644084 189.106899 
L 346.846761 190.638148 
L 349.049439 190.36743 
L 351.252116 191.09836 
L 353.454793 190.720657 
L 355.657471 190.634477 
L 357.860148 190.902691 
L 360.062826 190.429789 
L 362.265503 190.548903 
L 364.46818 190.1575 
L 366.670858 191.10124 
L 368.873535 191.192322 
L 371.076212 191.657543 
L 373.27889 192.582031 
L 375.481567 192.432 
L 377.684245 190.654842 
L 379.886922 190.855845 
L 382.089599 190.482799 
L 384.292277 191.333986 
L 388.697631 190.582135 
L 390.900309 190.809294 
L 393.102986 190.917118 
L 395.305664 190.076603 
L 399.711018 190.982631 
L 401.913696 190.632936 
L 404.116373 190.755635 
L 406.31905 191.061384 
L 408.521728 189.880412 
L 410.724405 189.694098 
L 412.927083 191.121002 
L 415.12976 190.874412 
L 417.332437 190.272937 
L 421.737792 190.484491 
L 423.940469 191.915964 
L 426.143147 190.84156 
L 428.345824 191.097784 
L 430.548502 190.6777 
L 432.751179 192.498414 
L 434.953856 191.03588 
L 437.156534 190.044251 
L 439.359211 190.319119 
L 441.561888 189.476918 
L 443.764566 191.533813 
L 445.967243 191.403182 
L 448.169921 190.09051 
L 450.372598 190.892399 
L 452.575275 189.251859 
L 454.777953 191.692839 
L 456.98063 190.667302 
L 459.183307 191.011776 
L 461.385985 191.20117 
L 463.588662 192.601533 
L 465.79134 190.312385 
L 467.994017 191.485682 
L 470.196694 191.852795 
L 472.399372 190.709922 
L 474.602049 191.940942 
L 476.804726 190.736554 
L 481.210081 191.48578 
L 483.412759 191.426297 
L 485.615436 191.481669 
L 487.818113 192.473135 
L 490.020791 190.612665 
L 492.223468 189.921597 
L 494.426145 190.189055 
L 496.628823 191.482431 
L 496.628823 191.482431 
" style="fill:none;stroke:#4c72b0;stroke-linecap:round;stroke-width:1.5;"/>
   </g>
   <g id="patch_3">
    <path d="M 54.881875 239.523437 
L 54.881875 53.966875 
" style="fill:none;stroke:#ffffff;stroke-linecap:square;stroke-linejoin:miter;stroke-width:1.25;"/>
   </g>
   <g id="patch_4">
    <path d="M 517.664392 239.523437 
L 517.664392 53.966875 
" style="fill:none;stroke:#ffffff;stroke-linecap:square;stroke-linejoin:miter;stroke-width:1.25;"/>
   </g>
   <g id="patch_5">
    <path d="M 54.881875 239.523438 
L 517.664392 239.523438 
" style="fill:none;stroke:#ffffff;stroke-linecap:square;stroke-linejoin:miter;stroke-width:1.25;"/>
   </g>
   <g id="patch_6">
    <path d="M 54.881875 53.966875 
L 517.664392 53.966875 
" style="fill:none;stroke:#ffffff;stroke-linecap:square;stroke-linejoin:miter;stroke-width:1.25;"/>
   </g>
   <g id="text_16">
    <!-- Active Power P -->
    <g style="fill:#262626;" transform="translate(245.592196 47.966875)scale(0.12 -0.12)">
     <defs>
      <path d="M -0.140625 0 
L 27.34375 71.578125 
L 37.546875 71.578125 
L 66.84375 0 
L 56.0625 0 
L 47.703125 21.6875 
L 17.78125 21.6875 
L 9.90625 0 
z
M 20.515625 29.390625 
L 44.78125 29.390625 
L 37.3125 49.21875 
Q 33.890625 58.25 32.234375 64.0625 
Q 30.859375 57.171875 28.375 50.390625 
z
" id="ArialMT-65"/>
      <path d="M 40.4375 19 
L 49.078125 17.875 
Q 47.65625 8.9375 41.8125 3.875 
Q 35.984375 -1.171875 27.484375 -1.171875 
Q 16.84375 -1.171875 10.375 5.78125 
Q 3.90625 12.75 3.90625 25.734375 
Q 3.90625 34.125 6.6875 40.421875 
Q 9.46875 46.734375 15.15625 49.875 
Q 20.84375 53.03125 27.546875 53.03125 
Q 35.984375 53.03125 41.359375 48.75 
Q 46.734375 44.484375 48.25 36.625 
L 39.703125 35.296875 
Q 38.484375 40.53125 35.375 43.15625 
Q 32.28125 45.796875 27.875 45.796875 
Q 21.234375 45.796875 17.078125 41.03125 
Q 12.9375 36.28125 12.9375 25.984375 
Q 12.9375 15.53125 16.9375 10.796875 
Q 20.953125 6.0625 27.390625 6.0625 
Q 32.5625 6.0625 36.03125 9.234375 
Q 39.5 12.40625 40.4375 19 
z
" id="ArialMT-99"/>
      <path d="M 6.640625 61.46875 
L 6.640625 71.578125 
L 15.4375 71.578125 
L 15.4375 61.46875 
z
M 6.640625 0 
L 6.640625 51.859375 
L 15.4375 51.859375 
L 15.4375 0 
z
" id="ArialMT-105"/>
      <path d="M 21 0 
L 1.265625 51.859375 
L 10.546875 51.859375 
L 21.6875 20.796875 
Q 23.484375 15.765625 25 10.359375 
Q 26.171875 14.453125 28.265625 20.21875 
L 39.796875 51.859375 
L 48.828125 51.859375 
L 29.203125 0 
z
" id="ArialMT-118"/>
      <path d="M 42.09375 16.703125 
L 51.171875 15.578125 
Q 49.03125 7.625 43.21875 3.21875 
Q 37.40625 -1.171875 28.375 -1.171875 
Q 17 -1.171875 10.328125 5.828125 
Q 3.65625 12.84375 3.65625 25.484375 
Q 3.65625 38.578125 10.390625 45.796875 
Q 17.140625 53.03125 27.875 53.03125 
Q 38.28125 53.03125 44.875 45.953125 
Q 51.46875 38.875 51.46875 26.03125 
Q 51.46875 25.25 51.421875 23.6875 
L 12.75 23.6875 
Q 13.234375 15.140625 17.578125 10.59375 
Q 21.921875 6.0625 28.421875 6.0625 
Q 33.25 6.0625 36.671875 8.59375 
Q 40.09375 11.140625 42.09375 16.703125 
z
M 13.234375 30.90625 
L 42.1875 30.90625 
Q 41.609375 37.453125 38.875 40.71875 
Q 34.671875 45.796875 27.984375 45.796875 
Q 21.921875 45.796875 17.796875 41.75 
Q 13.671875 37.703125 13.234375 30.90625 
z
" id="ArialMT-101"/>
      <path d="M 7.71875 0 
L 7.71875 71.578125 
L 34.71875 71.578125 
Q 41.84375 71.578125 45.609375 70.90625 
Q 50.875 70.015625 54.4375 67.546875 
Q 58.015625 65.09375 60.1875 60.640625 
Q 62.359375 56.203125 62.359375 50.875 
Q 62.359375 41.75 56.546875 35.421875 
Q 50.734375 29.109375 35.546875 29.109375 
L 17.1875 29.109375 
L 17.1875 0 
z
M 17.1875 37.546875 
L 35.6875 37.546875 
Q 44.875 37.546875 48.734375 40.96875 
Q 52.59375 44.390625 52.59375 50.59375 
Q 52.59375 55.078125 50.3125 58.265625 
Q 48.046875 61.46875 44.34375 62.5 
Q 41.9375 63.140625 35.5 63.140625 
L 17.1875 63.140625 
z
" id="ArialMT-80"/>
      <path d="M 3.328125 25.921875 
Q 3.328125 40.328125 11.328125 47.265625 
Q 18.015625 53.03125 27.640625 53.03125 
Q 38.328125 53.03125 45.109375 46.015625 
Q 51.90625 39.015625 51.90625 26.65625 
Q 51.90625 16.65625 48.90625 10.90625 
Q 45.90625 5.171875 40.15625 2 
Q 34.421875 -1.171875 27.640625 -1.171875 
Q 16.75 -1.171875 10.03125 5.8125 
Q 3.328125 12.796875 3.328125 25.921875 
z
M 12.359375 25.921875 
Q 12.359375 15.96875 16.703125 11.015625 
Q 21.046875 6.0625 27.640625 6.0625 
Q 34.1875 6.0625 38.53125 11.03125 
Q 42.875 16.015625 42.875 26.21875 
Q 42.875 35.84375 38.5 40.796875 
Q 34.125 45.75 27.640625 45.75 
Q 21.046875 45.75 16.703125 40.8125 
Q 12.359375 35.890625 12.359375 25.921875 
z
" id="ArialMT-111"/>
      <path d="M 16.15625 0 
L 0.296875 51.859375 
L 9.375 51.859375 
L 17.625 21.921875 
L 20.703125 10.796875 
Q 20.90625 11.625 23.390625 21.484375 
L 31.640625 51.859375 
L 40.671875 51.859375 
L 48.4375 21.78125 
L 51.03125 11.859375 
L 54 21.875 
L 62.890625 51.859375 
L 71.4375 51.859375 
L 55.21875 0 
L 46.09375 0 
L 37.84375 31.0625 
L 35.84375 39.890625 
L 25.34375 0 
z
" id="ArialMT-119"/>
      <path d="M 6.5 0 
L 6.5 51.859375 
L 14.40625 51.859375 
L 14.40625 44 
Q 17.4375 49.515625 20 51.265625 
Q 22.5625 53.03125 25.640625 53.03125 
Q 30.078125 53.03125 34.671875 50.203125 
L 31.640625 42.046875 
Q 28.421875 43.953125 25.203125 43.953125 
Q 22.3125 43.953125 20.015625 42.21875 
Q 17.71875 40.484375 16.75 37.40625 
Q 15.28125 32.71875 15.28125 27.15625 
L 15.28125 0 
z
" id="ArialMT-114"/>
     </defs>
     <use xlink:href="#ArialMT-65"/>
     <use x="66.699219" xlink:href="#ArialMT-99"/>
     <use x="116.699219" xlink:href="#ArialMT-116"/>
     <use x="144.482422" xlink:href="#ArialMT-105"/>
     <use x="166.699219" xlink:href="#ArialMT-118"/>
     <use x="216.699219" xlink:href="#ArialMT-101"/>
     <use x="272.314453" xlink:href="#ArialMT-32"/>
     <use x="300.097656" xlink:href="#ArialMT-80"/>
     <use x="366.796875" xlink:href="#ArialMT-111"/>
     <use x="422.412109" xlink:href="#ArialMT-119"/>
     <use x="494.628906" xlink:href="#ArialMT-101"/>
     <use x="550.244141" xlink:href="#ArialMT-114"/>
     <use x="583.544922" xlink:href="#ArialMT-32"/>
     <use x="611.328125" xlink:href="#ArialMT-80"/>
    </g>
   </g>
  </g>
  <g id="axes_2">
   <g id="patch_7">
    <path d="M 596.065938 239.523438 
L 1058.848454 239.523438 
L 1058.848454 53.966875 
L 596.065938 53.966875 
z
" style="fill:#eaeaf2;"/>
   </g>
   <g id="matplotlib.axis_3">
    <g id="xtick_10">
     <g id="line2d_16">
      <path clip-path="url(#p563ebed075)" d="M 617.101506 239.523438 
L 617.101506 53.966875 
" style="fill:none;stroke:#ffffff;stroke-linecap:round;"/>
     </g>
     <g id="text_17">
      <!-- 0 -->
      <g style="fill:#262626;" transform="translate(614.042991 256.897031)scale(0.11 -0.11)">
       <use xlink:href="#ArialMT-48"/>
      </g>
     </g>
    </g>
    <g id="xtick_11">
     <g id="line2d_17">
      <path clip-path="url(#p563ebed075)" d="M 672.168441 239.523438 
L 672.168441 53.966875 
" style="fill:none;stroke:#ffffff;stroke-linecap:round;"/>
     </g>
     <g id="text_18">
      <!-- 25 -->
      <g style="fill:#262626;" transform="translate(666.05141 256.897031)scale(0.11 -0.11)">
       <use xlink:href="#ArialMT-50"/>
       <use x="55.615234" xlink:href="#ArialMT-53"/>
      </g>
     </g>
    </g>
    <g id="xtick_12">
     <g id="line2d_18">
      <path clip-path="url(#p563ebed075)" d="M 727.235375 239.523438 
L 727.235375 53.966875 
" style="fill:none;stroke:#ffffff;stroke-linecap:round;"/>
     </g>
     <g id="text_19">
      <!-- 50 -->
      <g style="fill:#262626;" transform="translate(721.118344 256.897031)scale(0.11 -0.11)">
       <use xlink:href="#ArialMT-53"/>
       <use x="55.615234" xlink:href="#ArialMT-48"/>
      </g>
     </g>
    </g>
    <g id="xtick_13">
     <g id="line2d_19">
      <path clip-path="url(#p563ebed075)" d="M 782.30231 239.523438 
L 782.30231 53.966875 
" style="fill:none;stroke:#ffffff;stroke-linecap:round;"/>
     </g>
     <g id="text_20">
      <!-- 75 -->
      <g style="fill:#262626;" transform="translate(776.185278 256.897031)scale(0.11 -0.11)">
       <use xlink:href="#ArialMT-55"/>
       <use x="55.615234" xlink:href="#ArialMT-53"/>
      </g>
     </g>
    </g>
    <g id="xtick_14">
     <g id="line2d_20">
      <path clip-path="url(#p563ebed075)" d="M 837.369244 239.523438 
L 837.369244 53.966875 
" style="fill:none;stroke:#ffffff;stroke-linecap:round;"/>
     </g>
     <g id="text_21">
      <!-- 100 -->
      <g style="fill:#262626;" transform="translate(828.193697 256.897031)scale(0.11 -0.11)">
       <use xlink:href="#ArialMT-49"/>
       <use x="55.615234" xlink:href="#ArialMT-48"/>
       <use x="111.230469" xlink:href="#ArialMT-48"/>
      </g>
     </g>
    </g>
    <g id="xtick_15">
     <g id="line2d_21">
      <path clip-path="url(#p563ebed075)" d="M 892.436179 239.523438 
L 892.436179 53.966875 
" style="fill:none;stroke:#ffffff;stroke-linecap:round;"/>
     </g>
     <g id="text_22">
      <!-- 125 -->
      <g style="fill:#262626;" transform="translate(883.260632 256.897031)scale(0.11 -0.11)">
       <use xlink:href="#ArialMT-49"/>
       <use x="55.615234" xlink:href="#ArialMT-50"/>
       <use x="111.230469" xlink:href="#ArialMT-53"/>
      </g>
     </g>
    </g>
    <g id="xtick_16">
     <g id="line2d_22">
      <path clip-path="url(#p563ebed075)" d="M 947.503113 239.523438 
L 947.503113 53.966875 
" style="fill:none;stroke:#ffffff;stroke-linecap:round;"/>
     </g>
     <g id="text_23">
      <!-- 150 -->
      <g style="fill:#262626;" transform="translate(938.327566 256.897031)scale(0.11 -0.11)">
       <use xlink:href="#ArialMT-49"/>
       <use x="55.615234" xlink:href="#ArialMT-53"/>
       <use x="111.230469" xlink:href="#ArialMT-48"/>
      </g>
     </g>
    </g>
    <g id="xtick_17">
     <g id="line2d_23">
      <path clip-path="url(#p563ebed075)" d="M 1002.570047 239.523438 
L 1002.570047 53.966875 
" style="fill:none;stroke:#ffffff;stroke-linecap:round;"/>
     </g>
     <g id="text_24">
      <!-- 175 -->
      <g style="fill:#262626;" transform="translate(993.3945 256.897031)scale(0.11 -0.11)">
       <use xlink:href="#ArialMT-49"/>
       <use x="55.615234" xlink:href="#ArialMT-55"/>
       <use x="111.230469" xlink:href="#ArialMT-53"/>
      </g>
     </g>
    </g>
    <g id="xtick_18">
     <g id="line2d_24">
      <path clip-path="url(#p563ebed075)" d="M 1057.636982 239.523438 
L 1057.636982 53.966875 
" style="fill:none;stroke:#ffffff;stroke-linecap:round;"/>
     </g>
     <g id="text_25">
      <!-- 200 -->
      <g style="fill:#262626;" transform="translate(1048.461435 256.897031)scale(0.11 -0.11)">
       <use xlink:href="#ArialMT-50"/>
       <use x="55.615234" xlink:href="#ArialMT-48"/>
       <use x="111.230469" xlink:href="#ArialMT-48"/>
      </g>
     </g>
    </g>
   </g>
   <g id="matplotlib.axis_4">
    <g id="ytick_6">
     <g id="line2d_25">
      <path clip-path="url(#p563ebed075)" d="M 596.065938 234.046875 
L 1058.848454 234.046875 
" style="fill:none;stroke:#ffffff;stroke-linecap:round;"/>
     </g>
     <g id="text_26">
      <!-- 0 -->
      <g style="fill:#262626;" transform="translate(580.448906 237.983672)scale(0.11 -0.11)">
       <use xlink:href="#ArialMT-48"/>
      </g>
     </g>
    </g>
    <g id="ytick_7">
     <g id="line2d_26">
      <path clip-path="url(#p563ebed075)" d="M 596.065938 195.511382 
L 1058.848454 195.511382 
" style="fill:none;stroke:#ffffff;stroke-linecap:round;"/>
     </g>
     <g id="text_27">
      <!-- 50 -->
      <g style="fill:#262626;" transform="translate(574.331875 199.448179)scale(0.11 -0.11)">
       <use xlink:href="#ArialMT-53"/>
       <use x="55.615234" xlink:href="#ArialMT-48"/>
      </g>
     </g>
    </g>
    <g id="ytick_8">
     <g id="line2d_27">
      <path clip-path="url(#p563ebed075)" d="M 596.065938 156.975889 
L 1058.848454 156.975889 
" style="fill:none;stroke:#ffffff;stroke-linecap:round;"/>
     </g>
     <g id="text_28">
      <!-- 100 -->
      <g style="fill:#262626;" transform="translate(568.214844 160.912685)scale(0.11 -0.11)">
       <use xlink:href="#ArialMT-49"/>
       <use x="55.615234" xlink:href="#ArialMT-48"/>
       <use x="111.230469" xlink:href="#ArialMT-48"/>
      </g>
     </g>
    </g>
    <g id="ytick_9">
     <g id="line2d_28">
      <path clip-path="url(#p563ebed075)" d="M 596.065938 118.440395 
L 1058.848454 118.440395 
" style="fill:none;stroke:#ffffff;stroke-linecap:round;"/>
     </g>
     <g id="text_29">
      <!-- 150 -->
      <g style="fill:#262626;" transform="translate(568.214844 122.377192)scale(0.11 -0.11)">
       <use xlink:href="#ArialMT-49"/>
       <use x="55.615234" xlink:href="#ArialMT-53"/>
       <use x="111.230469" xlink:href="#ArialMT-48"/>
      </g>
     </g>
    </g>
    <g id="ytick_10">
     <g id="line2d_29">
      <path clip-path="url(#p563ebed075)" d="M 596.065938 79.904902 
L 1058.848454 79.904902 
" style="fill:none;stroke:#ffffff;stroke-linecap:round;"/>
     </g>
     <g id="text_30">
      <!-- 200 -->
      <g style="fill:#262626;" transform="translate(568.214844 83.841699)scale(0.11 -0.11)">
       <use xlink:href="#ArialMT-50"/>
       <use x="55.615234" xlink:href="#ArialMT-48"/>
       <use x="111.230469" xlink:href="#ArialMT-48"/>
      </g>
     </g>
    </g>
    <g id="text_31">
     <!-- Volt-Ampere (VA) -->
     <g style="fill:#262626;" transform="translate(561.689219 192.983594)rotate(-90)scale(0.12 -0.12)">
      <defs>
       <path d="M 28.171875 0 
L 0.4375 71.578125 
L 10.6875 71.578125 
L 29.296875 19.578125 
Q 31.546875 13.328125 33.0625 7.859375 
Q 34.71875 13.71875 36.921875 19.578125 
L 56.25 71.578125 
L 65.921875 71.578125 
L 37.890625 0 
z
" id="ArialMT-86"/>
       <path d="M 6.390625 0 
L 6.390625 71.578125 
L 15.1875 71.578125 
L 15.1875 0 
z
" id="ArialMT-108"/>
       <path d="M 3.171875 21.484375 
L 3.171875 30.328125 
L 30.171875 30.328125 
L 30.171875 21.484375 
z
" id="ArialMT-45"/>
       <path d="M 6.59375 0 
L 6.59375 51.859375 
L 14.453125 51.859375 
L 14.453125 44.578125 
Q 16.890625 48.390625 20.9375 50.703125 
Q 25 53.03125 30.171875 53.03125 
Q 35.9375 53.03125 39.625 50.640625 
Q 43.3125 48.25 44.828125 43.953125 
Q 50.984375 53.03125 60.84375 53.03125 
Q 68.5625 53.03125 72.703125 48.75 
Q 76.859375 44.484375 76.859375 35.59375 
L 76.859375 0 
L 68.109375 0 
L 68.109375 32.671875 
Q 68.109375 37.9375 67.25 40.25 
Q 66.40625 42.578125 64.15625 43.984375 
Q 61.921875 45.40625 58.890625 45.40625 
Q 53.421875 45.40625 49.796875 41.765625 
Q 46.1875 38.140625 46.1875 30.125 
L 46.1875 0 
L 37.40625 0 
L 37.40625 33.6875 
Q 37.40625 39.546875 35.25 42.46875 
Q 33.109375 45.40625 28.21875 45.40625 
Q 24.515625 45.40625 21.359375 43.453125 
Q 18.21875 41.5 16.796875 37.734375 
Q 15.375 33.984375 15.375 26.90625 
L 15.375 0 
z
" id="ArialMT-109"/>
       <path d="M 6.59375 -19.875 
L 6.59375 51.859375 
L 14.59375 51.859375 
L 14.59375 45.125 
Q 17.4375 49.078125 21 51.046875 
Q 24.5625 53.03125 29.640625 53.03125 
Q 36.28125 53.03125 41.359375 49.609375 
Q 46.4375 46.1875 49.015625 39.953125 
Q 51.609375 33.734375 51.609375 26.3125 
Q 51.609375 18.359375 48.75 11.984375 
Q 45.90625 5.609375 40.453125 2.21875 
Q 35.015625 -1.171875 29 -1.171875 
Q 24.609375 -1.171875 21.109375 0.6875 
Q 17.625 2.546875 15.375 5.375 
L 15.375 -19.875 
z
M 14.546875 25.640625 
Q 14.546875 15.625 18.59375 10.84375 
Q 22.65625 6.0625 28.421875 6.0625 
Q 34.28125 6.0625 38.453125 11.015625 
Q 42.625 15.96875 42.625 26.375 
Q 42.625 36.28125 38.546875 41.203125 
Q 34.46875 46.140625 28.8125 46.140625 
Q 23.1875 46.140625 18.859375 40.890625 
Q 14.546875 35.640625 14.546875 25.640625 
z
" id="ArialMT-112"/>
      </defs>
      <use xlink:href="#ArialMT-86"/>
      <use x="61.199219" xlink:href="#ArialMT-111"/>
      <use x="116.814453" xlink:href="#ArialMT-108"/>
      <use x="139.03125" xlink:href="#ArialMT-116"/>
      <use x="166.814453" xlink:href="#ArialMT-45"/>
      <use x="200.115234" xlink:href="#ArialMT-65"/>
      <use x="266.814453" xlink:href="#ArialMT-109"/>
      <use x="350.115234" xlink:href="#ArialMT-112"/>
      <use x="405.730469" xlink:href="#ArialMT-101"/>
      <use x="461.345703" xlink:href="#ArialMT-114"/>
      <use x="494.646484" xlink:href="#ArialMT-101"/>
      <use x="550.261719" xlink:href="#ArialMT-32"/>
      <use x="578.044922" xlink:href="#ArialMT-40"/>
      <use x="611.345703" xlink:href="#ArialMT-86"/>
      <use x="670.669922" xlink:href="#ArialMT-65"/>
      <use x="737.369141" xlink:href="#ArialMT-41"/>
     </g>
    </g>
   </g>
   <g id="line2d_30">
    <path clip-path="url(#p563ebed075)" d="M 617.101506 229.82815 
L 619.304184 228.927356 
L 621.506861 228.28493 
L 623.709539 229.533547 
L 625.912216 230.276065 
L 628.114893 229.845766 
L 630.317571 229.791829 
L 632.520248 230.103126 
L 634.722925 230.004465 
L 636.925603 229.259554 
L 639.12828 229.637415 
L 641.330958 229.078196 
L 643.533635 230.528672 
L 645.736312 230.027678 
L 647.93899 230.406199 
L 650.141667 230.311208 
L 652.344344 229.590053 
L 654.547022 229.575743 
L 656.749699 229.068045 
L 658.952377 228.345783 
L 661.155054 229.112565 
L 663.357731 229.714819 
L 665.560409 228.739313 
L 667.763086 230.024479 
L 669.965763 229.945375 
L 672.168441 231.089048 
L 674.371118 230.045296 
L 676.573796 230.172623 
L 678.776473 229.578103 
L 683.181828 229.162141 
L 685.384505 229.893816 
L 689.78986 228.634728 
L 691.992537 229.836346 
L 694.195215 229.684494 
L 696.397892 230.586171 
L 698.600569 229.551104 
L 700.803247 229.755683 
L 703.005924 229.836901 
L 705.208602 230.957094 
L 707.411279 229.585819 
L 711.816634 230.409998 
L 714.019311 229.103233 
L 716.221988 230.17066 
L 718.424666 230.070171 
L 720.627343 230.607577 
L 722.830021 229.26993 
L 725.032698 230.19203 
L 727.235375 229.36118 
L 729.438053 230.575526 
L 731.64073 229.364798 
L 733.843407 229.985762 
L 736.046085 230.116158 
L 738.248762 229.0676 
L 740.45144 229.559699 
L 742.654117 229.201129 
L 744.856794 229.26528 
L 747.059472 230.274169 
L 749.262149 229.242736 
L 751.464826 230.417792 
L 753.667504 229.931874 
L 755.870181 229.130593 
L 758.072859 229.754887 
L 760.275536 230.203119 
L 764.680891 229.64549 
L 766.883568 230.115672 
L 769.086245 229.563194 
L 771.288923 229.775075 
L 773.4916 229.240144 
L 775.694278 225.145224 
L 777.896955 230.146036 
L 780.099632 228.229051 
L 784.504987 228.169583 
L 786.707664 229.04489 
L 788.910342 224.613607 
L 791.113019 226.824643 
L 793.315697 227.422016 
L 795.518374 226.198765 
L 797.721051 224.603228 
L 799.923729 226.031858 
L 802.126406 226.183944 
L 804.329083 222.271508 
L 806.531761 225.111678 
L 808.734438 222.714768 
L 810.937116 225.083941 
L 813.139793 226.146139 
L 815.34247 222.755417 
L 817.545148 224.633533 
L 819.747825 224.015256 
L 821.950502 227.359444 
L 824.15318 226.747344 
L 826.355857 227.749337 
L 828.558535 226.367327 
L 830.761212 227.078312 
L 832.963889 228.192693 
L 835.166567 226.395102 
L 837.369244 219.839232 
L 839.571921 62.401264 
L 841.774599 133.328799 
L 843.977276 182.53002 
L 846.179954 187.361272 
L 848.382631 204.311867 
L 850.585308 210.093176 
L 852.787986 202.020174 
L 854.990663 187.989464 
L 857.19334 184.031402 
L 859.396018 189.465033 
L 861.598695 194.134048 
L 863.801373 193.681161 
L 866.00405 190.939629 
L 868.206727 191.707225 
L 870.409405 191.226813 
L 872.612082 191.935315 
L 874.814759 191.30622 
L 877.017437 191.750914 
L 879.220114 192.616966 
L 881.422792 192.090104 
L 883.625469 190.988577 
L 885.828146 190.157861 
L 888.030824 191.412264 
L 890.233501 191.39216 
L 892.436179 191.79898 
L 896.841533 191.59601 
L 899.044211 191.863002 
L 901.246888 191.527401 
L 903.449565 191.87558 
L 905.652243 191.368834 
L 910.057598 192.38316 
L 912.260275 192.663936 
L 914.462952 193.658831 
L 916.66563 193.474351 
L 918.868307 191.640731 
L 921.070984 192.009901 
L 923.273662 191.768145 
L 925.476339 192.571266 
L 927.679017 191.878058 
L 929.881694 191.763015 
L 932.084371 192.017762 
L 934.287049 191.888395 
L 936.489726 190.963246 
L 938.692403 191.291267 
L 940.895081 192.125408 
L 943.097758 191.61432 
L 945.300436 191.690185 
L 947.503113 192.203116 
L 949.70579 191.108898 
L 951.908468 190.796735 
L 954.111145 191.960396 
L 956.313822 191.971639 
L 958.5165 191.509514 
L 960.719177 191.410024 
L 962.921855 191.481558 
L 965.124532 192.829577 
L 967.327209 191.705881 
L 969.529887 191.887693 
L 971.732564 191.465437 
L 973.935241 193.41637 
L 976.137919 192.017927 
L 978.340596 191.252215 
L 980.543274 191.368528 
L 982.745951 190.632484 
L 984.948628 192.524117 
L 987.151306 192.315513 
L 989.353983 191.104949 
L 991.55666 192.150684 
L 993.759338 190.164194 
L 995.962015 192.67016 
L 998.164693 191.748685 
L 1000.36737 191.854162 
L 1002.570047 192.083175 
L 1004.772725 193.663865 
L 1006.975402 191.163365 
L 1009.178079 192.538811 
L 1011.380757 192.899711 
L 1013.583434 191.823906 
L 1015.786112 193.009571 
L 1017.988789 191.714081 
L 1020.191466 192.024804 
L 1022.394144 192.507703 
L 1024.596821 192.395982 
L 1026.799498 192.523858 
L 1029.002176 193.445841 
L 1031.204853 191.899467 
L 1033.407531 190.892615 
L 1035.610208 191.368364 
L 1037.812885 192.335882 
L 1037.812885 192.335882 
" style="fill:none;stroke:#4c72b0;stroke-linecap:round;stroke-width:1.5;"/>
   </g>
   <g id="patch_8">
    <path d="M 596.065938 239.523438 
L 596.065938 53.966875 
" style="fill:none;stroke:#ffffff;stroke-linecap:square;stroke-linejoin:miter;stroke-width:1.25;"/>
   </g>
   <g id="patch_9">
    <path d="M 1058.848454 239.523438 
L 1058.848454 53.966875 
" style="fill:none;stroke:#ffffff;stroke-linecap:square;stroke-linejoin:miter;stroke-width:1.25;"/>
   </g>
   <g id="patch_10">
    <path d="M 596.065938 239.523438 
L 1058.848454 239.523438 
" style="fill:none;stroke:#ffffff;stroke-linecap:square;stroke-linejoin:miter;stroke-width:1.25;"/>
   </g>
   <g id="patch_11">
    <path d="M 596.065938 53.966875 
L 1058.848454 53.966875 
" style="fill:none;stroke:#ffffff;stroke-linecap:square;stroke-linejoin:miter;stroke-width:1.25;"/>
   </g>
   <g id="text_32">
    <!-- Apparent Power S -->
    <g style="fill:#262626;" transform="translate(778.765321 47.966875)scale(0.12 -0.12)">
     <defs>
      <path d="M 6.59375 0 
L 6.59375 51.859375 
L 14.5 51.859375 
L 14.5 44.484375 
Q 20.21875 53.03125 31 53.03125 
Q 35.6875 53.03125 39.625 51.34375 
Q 43.5625 49.65625 45.515625 46.921875 
Q 47.46875 44.1875 48.25 40.4375 
Q 48.734375 37.984375 48.734375 31.890625 
L 48.734375 0 
L 39.9375 0 
L 39.9375 31.546875 
Q 39.9375 36.921875 38.90625 39.578125 
Q 37.890625 42.234375 35.28125 43.8125 
Q 32.671875 45.40625 29.15625 45.40625 
Q 23.53125 45.40625 19.453125 41.84375 
Q 15.375 38.28125 15.375 28.328125 
L 15.375 0 
z
" id="ArialMT-110"/>
      <path d="M 4.5 23 
L 13.421875 23.78125 
Q 14.0625 18.40625 16.375 14.96875 
Q 18.703125 11.53125 23.578125 9.40625 
Q 28.46875 7.28125 34.578125 7.28125 
Q 39.984375 7.28125 44.140625 8.890625 
Q 48.296875 10.5 50.3125 13.296875 
Q 52.34375 16.109375 52.34375 19.4375 
Q 52.34375 22.796875 50.390625 25.3125 
Q 48.4375 27.828125 43.953125 29.546875 
Q 41.0625 30.671875 31.203125 33.03125 
Q 21.34375 35.40625 17.390625 37.5 
Q 12.25 40.1875 9.734375 44.15625 
Q 7.234375 48.140625 7.234375 53.078125 
Q 7.234375 58.5 10.296875 63.203125 
Q 13.375 67.921875 19.28125 70.359375 
Q 25.203125 72.796875 32.421875 72.796875 
Q 40.375 72.796875 46.453125 70.234375 
Q 52.546875 67.671875 55.8125 62.6875 
Q 59.078125 57.71875 59.328125 51.421875 
L 50.25 50.734375 
Q 49.515625 57.515625 45.28125 60.984375 
Q 41.0625 64.453125 32.8125 64.453125 
Q 24.21875 64.453125 20.28125 61.296875 
Q 16.359375 58.15625 16.359375 53.71875 
Q 16.359375 49.859375 19.140625 47.359375 
Q 21.875 44.875 33.421875 42.265625 
Q 44.96875 39.65625 49.265625 37.703125 
Q 55.515625 34.8125 58.484375 30.390625 
Q 61.46875 25.984375 61.46875 20.21875 
Q 61.46875 14.5 58.203125 9.4375 
Q 54.9375 4.390625 48.796875 1.578125 
Q 42.671875 -1.21875 35.015625 -1.21875 
Q 25.296875 -1.21875 18.71875 1.609375 
Q 12.15625 4.4375 8.421875 10.125 
Q 4.6875 15.828125 4.5 23 
z
" id="ArialMT-83"/>
     </defs>
     <use xlink:href="#ArialMT-65"/>
     <use x="66.699219" xlink:href="#ArialMT-112"/>
     <use x="122.314453" xlink:href="#ArialMT-112"/>
     <use x="177.929688" xlink:href="#ArialMT-97"/>
     <use x="233.544922" xlink:href="#ArialMT-114"/>
     <use x="266.845703" xlink:href="#ArialMT-101"/>
     <use x="322.460938" xlink:href="#ArialMT-110"/>
     <use x="378.076172" xlink:href="#ArialMT-116"/>
     <use x="405.859375" xlink:href="#ArialMT-32"/>
     <use x="433.642578" xlink:href="#ArialMT-80"/>
     <use x="500.341797" xlink:href="#ArialMT-111"/>
     <use x="555.957031" xlink:href="#ArialMT-119"/>
     <use x="628.173828" xlink:href="#ArialMT-101"/>
     <use x="683.789062" xlink:href="#ArialMT-114"/>
     <use x="717.089844" xlink:href="#ArialMT-32"/>
     <use x="744.873047" xlink:href="#ArialMT-83"/>
    </g>
   </g>
  </g>
  <g id="axes_3">
   <g id="patch_12">
    <path d="M 54.881875 471.54 
L 517.664392 471.54 
L 517.664392 285.983438 
L 54.881875 285.983438 
z
" style="fill:#eaeaf2;"/>
   </g>
   <g id="matplotlib.axis_5">
    <g id="xtick_19">
     <g id="line2d_31">
      <path clip-path="url(#p6705836d9f)" d="M 75.917444 471.54 
L 75.917444 285.983438 
" style="fill:none;stroke:#ffffff;stroke-linecap:round;"/>
     </g>
     <g id="text_33">
      <!-- 0 -->
      <g style="fill:#262626;" transform="translate(72.858928 488.913594)scale(0.11 -0.11)">
       <use xlink:href="#ArialMT-48"/>
      </g>
     </g>
    </g>
    <g id="xtick_20">
     <g id="line2d_32">
      <path clip-path="url(#p6705836d9f)" d="M 130.984378 471.54 
L 130.984378 285.983438 
" style="fill:none;stroke:#ffffff;stroke-linecap:round;"/>
     </g>
     <g id="text_34">
      <!-- 25 -->
      <g style="fill:#262626;" transform="translate(124.867347 488.913594)scale(0.11 -0.11)">
       <use xlink:href="#ArialMT-50"/>
       <use x="55.615234" xlink:href="#ArialMT-53"/>
      </g>
     </g>
    </g>
    <g id="xtick_21">
     <g id="line2d_33">
      <path clip-path="url(#p6705836d9f)" d="M 186.051313 471.54 
L 186.051313 285.983438 
" style="fill:none;stroke:#ffffff;stroke-linecap:round;"/>
     </g>
     <g id="text_35">
      <!-- 50 -->
      <g style="fill:#262626;" transform="translate(179.934282 488.913594)scale(0.11 -0.11)">
       <use xlink:href="#ArialMT-53"/>
       <use x="55.615234" xlink:href="#ArialMT-48"/>
      </g>
     </g>
    </g>
    <g id="xtick_22">
     <g id="line2d_34">
      <path clip-path="url(#p6705836d9f)" d="M 241.118247 471.54 
L 241.118247 285.983438 
" style="fill:none;stroke:#ffffff;stroke-linecap:round;"/>
     </g>
     <g id="text_36">
      <!-- 75 -->
      <g style="fill:#262626;" transform="translate(235.001216 488.913594)scale(0.11 -0.11)">
       <use xlink:href="#ArialMT-55"/>
       <use x="55.615234" xlink:href="#ArialMT-53"/>
      </g>
     </g>
    </g>
    <g id="xtick_23">
     <g id="line2d_35">
      <path clip-path="url(#p6705836d9f)" d="M 296.185182 471.54 
L 296.185182 285.983438 
" style="fill:none;stroke:#ffffff;stroke-linecap:round;"/>
     </g>
     <g id="text_37">
      <!-- 100 -->
      <g style="fill:#262626;" transform="translate(287.009635 488.913594)scale(0.11 -0.11)">
       <use xlink:href="#ArialMT-49"/>
       <use x="55.615234" xlink:href="#ArialMT-48"/>
       <use x="111.230469" xlink:href="#ArialMT-48"/>
      </g>
     </g>
    </g>
    <g id="xtick_24">
     <g id="line2d_36">
      <path clip-path="url(#p6705836d9f)" d="M 351.252116 471.54 
L 351.252116 285.983438 
" style="fill:none;stroke:#ffffff;stroke-linecap:round;"/>
     </g>
     <g id="text_38">
      <!-- 125 -->
      <g style="fill:#262626;" transform="translate(342.076569 488.913594)scale(0.11 -0.11)">
       <use xlink:href="#ArialMT-49"/>
       <use x="55.615234" xlink:href="#ArialMT-50"/>
       <use x="111.230469" xlink:href="#ArialMT-53"/>
      </g>
     </g>
    </g>
    <g id="xtick_25">
     <g id="line2d_37">
      <path clip-path="url(#p6705836d9f)" d="M 406.31905 471.54 
L 406.31905 285.983438 
" style="fill:none;stroke:#ffffff;stroke-linecap:round;"/>
     </g>
     <g id="text_39">
      <!-- 150 -->
      <g style="fill:#262626;" transform="translate(397.143504 488.913594)scale(0.11 -0.11)">
       <use xlink:href="#ArialMT-49"/>
       <use x="55.615234" xlink:href="#ArialMT-53"/>
       <use x="111.230469" xlink:href="#ArialMT-48"/>
      </g>
     </g>
    </g>
    <g id="xtick_26">
     <g id="line2d_38">
      <path clip-path="url(#p6705836d9f)" d="M 461.385985 471.54 
L 461.385985 285.983438 
" style="fill:none;stroke:#ffffff;stroke-linecap:round;"/>
     </g>
     <g id="text_40">
      <!-- 175 -->
      <g style="fill:#262626;" transform="translate(452.210438 488.913594)scale(0.11 -0.11)">
       <use xlink:href="#ArialMT-49"/>
       <use x="55.615234" xlink:href="#ArialMT-55"/>
       <use x="111.230469" xlink:href="#ArialMT-53"/>
      </g>
     </g>
    </g>
    <g id="xtick_27">
     <g id="line2d_39">
      <path clip-path="url(#p6705836d9f)" d="M 516.452919 471.54 
L 516.452919 285.983438 
" style="fill:none;stroke:#ffffff;stroke-linecap:round;"/>
     </g>
     <g id="text_41">
      <!-- 200 -->
      <g style="fill:#262626;" transform="translate(507.277372 488.913594)scale(0.11 -0.11)">
       <use xlink:href="#ArialMT-50"/>
       <use x="55.615234" xlink:href="#ArialMT-48"/>
       <use x="111.230469" xlink:href="#ArialMT-48"/>
      </g>
     </g>
    </g>
   </g>
   <g id="matplotlib.axis_6">
    <g id="ytick_11">
     <g id="line2d_40">
      <path clip-path="url(#p6705836d9f)" d="M 54.881875 468.348796 
L 517.664392 468.348796 
" style="fill:none;stroke:#ffffff;stroke-linecap:round;"/>
     </g>
     <g id="text_42">
      <!-- 0 -->
      <g style="fill:#262626;" transform="translate(39.264844 472.285593)scale(0.11 -0.11)">
       <use xlink:href="#ArialMT-48"/>
      </g>
     </g>
    </g>
    <g id="ytick_12">
     <g id="line2d_41">
      <path clip-path="url(#p6705836d9f)" d="M 54.881875 430.449963 
L 517.664392 430.449963 
" style="fill:none;stroke:#ffffff;stroke-linecap:round;"/>
     </g>
     <g id="text_43">
      <!-- 20 -->
      <g style="fill:#262626;" transform="translate(33.147812 434.38676)scale(0.11 -0.11)">
       <use xlink:href="#ArialMT-50"/>
       <use x="55.615234" xlink:href="#ArialMT-48"/>
      </g>
     </g>
    </g>
    <g id="ytick_13">
     <g id="line2d_42">
      <path clip-path="url(#p6705836d9f)" d="M 54.881875 392.551131 
L 517.664392 392.551131 
" style="fill:none;stroke:#ffffff;stroke-linecap:round;"/>
     </g>
     <g id="text_44">
      <!-- 40 -->
      <g style="fill:#262626;" transform="translate(33.147812 396.487927)scale(0.11 -0.11)">
       <defs>
        <path d="M 32.328125 0 
L 32.328125 17.140625 
L 1.265625 17.140625 
L 1.265625 25.203125 
L 33.9375 71.578125 
L 41.109375 71.578125 
L 41.109375 25.203125 
L 50.78125 25.203125 
L 50.78125 17.140625 
L 41.109375 17.140625 
L 41.109375 0 
z
M 32.328125 25.203125 
L 32.328125 57.46875 
L 9.90625 25.203125 
z
" id="ArialMT-52"/>
       </defs>
       <use xlink:href="#ArialMT-52"/>
       <use x="55.615234" xlink:href="#ArialMT-48"/>
      </g>
     </g>
    </g>
    <g id="ytick_14">
     <g id="line2d_43">
      <path clip-path="url(#p6705836d9f)" d="M 54.881875 354.652298 
L 517.664392 354.652298 
" style="fill:none;stroke:#ffffff;stroke-linecap:round;"/>
     </g>
     <g id="text_45">
      <!-- 60 -->
      <g style="fill:#262626;" transform="translate(33.147812 358.589095)scale(0.11 -0.11)">
       <defs>
        <path d="M 49.75 54.046875 
L 41.015625 53.375 
Q 39.84375 58.546875 37.703125 60.890625 
Q 34.125 64.65625 28.90625 64.65625 
Q 24.703125 64.65625 21.53125 62.3125 
Q 17.390625 59.28125 14.984375 53.46875 
Q 12.59375 47.65625 12.5 36.921875 
Q 15.671875 41.75 20.265625 44.09375 
Q 24.859375 46.4375 29.890625 46.4375 
Q 38.671875 46.4375 44.84375 39.96875 
Q 51.03125 33.5 51.03125 23.25 
Q 51.03125 16.5 48.125 10.71875 
Q 45.21875 4.9375 40.140625 1.859375 
Q 35.0625 -1.21875 28.609375 -1.21875 
Q 17.625 -1.21875 10.6875 6.859375 
Q 3.765625 14.9375 3.765625 33.5 
Q 3.765625 54.25 11.421875 63.671875 
Q 18.109375 71.875 29.4375 71.875 
Q 37.890625 71.875 43.28125 67.140625 
Q 48.6875 62.40625 49.75 54.046875 
z
M 13.875 23.1875 
Q 13.875 18.65625 15.796875 14.5 
Q 17.71875 10.359375 21.1875 8.171875 
Q 24.65625 6 28.46875 6 
Q 34.03125 6 38.03125 10.484375 
Q 42.046875 14.984375 42.046875 22.703125 
Q 42.046875 30.125 38.078125 34.390625 
Q 34.125 38.671875 28.125 38.671875 
Q 22.171875 38.671875 18.015625 34.390625 
Q 13.875 30.125 13.875 23.1875 
z
" id="ArialMT-54"/>
       </defs>
       <use xlink:href="#ArialMT-54"/>
       <use x="55.615234" xlink:href="#ArialMT-48"/>
      </g>
     </g>
    </g>
    <g id="ytick_15">
     <g id="line2d_44">
      <path clip-path="url(#p6705836d9f)" d="M 54.881875 316.753465 
L 517.664392 316.753465 
" style="fill:none;stroke:#ffffff;stroke-linecap:round;"/>
     </g>
     <g id="text_46">
      <!-- 80 -->
      <g style="fill:#262626;" transform="translate(33.147812 320.690262)scale(0.11 -0.11)">
       <defs>
        <path d="M 17.671875 38.8125 
Q 12.203125 40.828125 9.5625 44.53125 
Q 6.9375 48.25 6.9375 53.421875 
Q 6.9375 61.234375 12.546875 66.546875 
Q 18.171875 71.875 27.484375 71.875 
Q 36.859375 71.875 42.578125 66.421875 
Q 48.296875 60.984375 48.296875 53.171875 
Q 48.296875 48.1875 45.671875 44.5 
Q 43.0625 40.828125 37.75 38.8125 
Q 44.34375 36.671875 47.78125 31.875 
Q 51.21875 27.09375 51.21875 20.453125 
Q 51.21875 11.28125 44.71875 5.03125 
Q 38.234375 -1.21875 27.640625 -1.21875 
Q 17.046875 -1.21875 10.546875 5.046875 
Q 4.046875 11.328125 4.046875 20.703125 
Q 4.046875 27.6875 7.59375 32.390625 
Q 11.140625 37.109375 17.671875 38.8125 
z
M 15.921875 53.71875 
Q 15.921875 48.640625 19.1875 45.40625 
Q 22.46875 42.1875 27.6875 42.1875 
Q 32.765625 42.1875 36.015625 45.375 
Q 39.265625 48.578125 39.265625 53.21875 
Q 39.265625 58.0625 35.90625 61.359375 
Q 32.5625 64.65625 27.59375 64.65625 
Q 22.5625 64.65625 19.234375 61.421875 
Q 15.921875 58.203125 15.921875 53.71875 
z
M 13.09375 20.65625 
Q 13.09375 16.890625 14.875 13.375 
Q 16.65625 9.859375 20.171875 7.921875 
Q 23.6875 6 27.734375 6 
Q 34.03125 6 38.125 10.046875 
Q 42.234375 14.109375 42.234375 20.359375 
Q 42.234375 26.703125 38.015625 30.859375 
Q 33.796875 35.015625 27.4375 35.015625 
Q 21.234375 35.015625 17.15625 30.90625 
Q 13.09375 26.8125 13.09375 20.65625 
z
" id="ArialMT-56"/>
       </defs>
       <use xlink:href="#ArialMT-56"/>
       <use x="55.615234" xlink:href="#ArialMT-48"/>
      </g>
     </g>
    </g>
    <g id="text_47">
     <!-- Volt-Amperes-Reactive(VAR) -->
     <g style="fill:#262626;" transform="translate(26.622187 456.007031)rotate(-90)scale(0.12 -0.12)">
      <defs>
       <path d="M 7.859375 0 
L 7.859375 71.578125 
L 39.59375 71.578125 
Q 49.171875 71.578125 54.140625 69.640625 
Q 59.125 67.71875 62.109375 62.828125 
Q 65.09375 57.953125 65.09375 52.046875 
Q 65.09375 44.4375 60.15625 39.203125 
Q 55.21875 33.984375 44.921875 32.5625 
Q 48.6875 30.765625 50.640625 29 
Q 54.78125 25.203125 58.5 19.484375 
L 70.953125 0 
L 59.03125 0 
L 49.5625 14.890625 
Q 45.40625 21.34375 42.71875 24.75 
Q 40.046875 28.171875 37.921875 29.53125 
Q 35.796875 30.90625 33.59375 31.453125 
Q 31.984375 31.78125 28.328125 31.78125 
L 17.328125 31.78125 
L 17.328125 0 
z
M 17.328125 39.984375 
L 37.703125 39.984375 
Q 44.1875 39.984375 47.84375 41.328125 
Q 51.515625 42.671875 53.421875 45.625 
Q 55.328125 48.578125 55.328125 52.046875 
Q 55.328125 57.125 51.640625 60.390625 
Q 47.953125 63.671875 39.984375 63.671875 
L 17.328125 63.671875 
z
" id="ArialMT-82"/>
      </defs>
      <use xlink:href="#ArialMT-86"/>
      <use x="61.199219" xlink:href="#ArialMT-111"/>
      <use x="116.814453" xlink:href="#ArialMT-108"/>
      <use x="139.03125" xlink:href="#ArialMT-116"/>
      <use x="166.814453" xlink:href="#ArialMT-45"/>
      <use x="200.115234" xlink:href="#ArialMT-65"/>
      <use x="266.814453" xlink:href="#ArialMT-109"/>
      <use x="350.115234" xlink:href="#ArialMT-112"/>
      <use x="405.730469" xlink:href="#ArialMT-101"/>
      <use x="461.345703" xlink:href="#ArialMT-114"/>
      <use x="494.646484" xlink:href="#ArialMT-101"/>
      <use x="550.261719" xlink:href="#ArialMT-115"/>
      <use x="600.261719" xlink:href="#ArialMT-45"/>
      <use x="633.5625" xlink:href="#ArialMT-82"/>
      <use x="705.779297" xlink:href="#ArialMT-101"/>
      <use x="761.394531" xlink:href="#ArialMT-97"/>
      <use x="817.009766" xlink:href="#ArialMT-99"/>
      <use x="867.009766" xlink:href="#ArialMT-116"/>
      <use x="894.792969" xlink:href="#ArialMT-105"/>
      <use x="917.009766" xlink:href="#ArialMT-118"/>
      <use x="967.009766" xlink:href="#ArialMT-101"/>
      <use x="1022.625" xlink:href="#ArialMT-40"/>
      <use x="1055.925781" xlink:href="#ArialMT-86"/>
      <use x="1115.25" xlink:href="#ArialMT-65"/>
      <use x="1181.949219" xlink:href="#ArialMT-82"/>
      <use x="1254.166016" xlink:href="#ArialMT-41"/>
     </g>
    </g>
   </g>
   <g id="line2d_45">
    <path clip-path="url(#p6705836d9f)" d="M 75.917444 460.041862 
L 78.120121 457.763829 
L 80.322799 458.092881 
L 82.525476 458.738057 
L 84.728153 460.752231 
L 86.930831 460.222318 
L 89.133508 458.997185 
L 91.336186 458.761318 
L 93.538863 463.105611 
L 95.74154 457.280524 
L 97.944218 459.613547 
L 100.146895 458.321436 
L 102.349572 460.361839 
L 104.55225 459.73704 
L 106.754927 460.75945 
L 108.957605 460.81978 
L 111.160282 459.539837 
L 113.362959 459.772857 
L 115.565637 458.484527 
L 119.970991 458.108487 
L 122.173669 459.722052 
L 124.376346 457.152178 
L 126.579024 458.662569 
L 128.781701 459.524345 
L 130.984378 461.232933 
L 133.187056 460.526311 
L 135.389733 459.475136 
L 137.59241 458.865496 
L 139.795088 457.455924 
L 141.997765 458.59351 
L 144.200443 459.234431 
L 146.40312 457.743537 
L 148.605797 457.222756 
L 150.808475 459.105961 
L 153.011152 458.753027 
L 155.21383 461.781909 
L 157.416507 458.727758 
L 159.619184 460.333336 
L 161.821862 460.360659 
L 164.024539 462.502543 
L 166.227216 458.240102 
L 168.429894 460.301258 
L 170.632571 462.737384 
L 172.835249 458.879023 
L 175.037926 460.288189 
L 177.240603 461.050684 
L 179.443281 460.534702 
L 181.645958 459.090325 
L 183.848635 460.305996 
L 186.051313 459.531069 
L 188.25399 461.885363 
L 190.456668 459.781517 
L 192.659345 459.052856 
L 194.862022 459.360431 
L 197.0647 458.279692 
L 199.267377 459.353526 
L 201.470054 458.119725 
L 203.672732 460.715896 
L 205.875409 459.92878 
L 208.078087 458.489357 
L 210.280764 460.17743 
L 212.483441 459.401831 
L 214.686119 457.941737 
L 216.888796 458.936847 
L 219.091473 462.977927 
L 221.294151 460.284259 
L 223.496828 459.943336 
L 225.699506 459.753156 
L 227.902183 458.079608 
L 230.10486 460.611236 
L 232.307538 457.592063 
L 234.510215 451.24907 
L 236.712892 458.948768 
L 238.91557 457.827062 
L 241.118247 455.114051 
L 243.320925 454.799524 
L 245.523602 458.396831 
L 247.726279 449.004445 
L 249.928957 453.942681 
L 252.131634 459.554078 
L 254.334311 454.546243 
L 256.536989 450.680856 
L 258.739666 453.465417 
L 260.942344 453.49998 
L 263.145021 448.207491 
L 265.347698 452.978039 
L 267.550376 446.483089 
L 269.753053 451.383716 
L 271.95573 453.55981 
L 274.158408 447.715237 
L 276.361085 450.170016 
L 278.563763 447.209054 
L 280.76644 454.119302 
L 282.969117 453.489344 
L 285.171795 455.912073 
L 287.374472 452.940992 
L 289.577149 455.350588 
L 291.779827 455.889726 
L 293.982504 454.957562 
L 296.185182 441.372772 
L 298.387859 388.252214 
L 300.590536 294.417827 
L 302.793214 382.508136 
L 304.995891 414.483686 
L 307.198568 441.793933 
L 309.401246 448.169277 
L 311.603923 444.361372 
L 313.806601 438.983873 
L 316.009278 435.48423 
L 318.211955 440.282816 
L 320.414633 445.545761 
L 322.61731 441.269175 
L 324.819987 439.308387 
L 327.022665 438.23645 
L 329.225342 441.02206 
L 331.42802 444.668578 
L 333.630697 441.620518 
L 335.833374 442.673529 
L 338.036052 442.877031 
L 340.238729 442.918332 
L 342.441407 441.71727 
L 344.644084 440.339425 
L 346.846761 438.42309 
L 349.049439 440.557944 
L 351.252116 437.981323 
L 353.454793 440.12654 
L 355.657471 440.07811 
L 357.860148 440.16863 
L 360.062826 441.264771 
L 362.265503 443.568139 
L 364.46818 442.268681 
L 366.670858 438.37314 
L 368.873535 442.435655 
L 371.076212 440.872446 
L 373.27889 441.864526 
L 375.481567 441.492172 
L 377.684245 440.307659 
L 379.886922 441.958885 
L 382.089599 443.123394 
L 384.292277 442.940869 
L 386.494954 439.961181 
L 388.697631 442.120494 
L 390.900309 442.47127 
L 393.102986 440.273476 
L 395.305664 439.19136 
L 397.508341 438.436291 
L 399.711018 441.896372 
L 401.913696 440.25826 
L 404.116373 439.880307 
L 406.31905 441.914922 
L 408.521728 442.341625 
L 410.724405 441.045201 
L 412.927083 439.178643 
L 415.12976 441.423647 
L 417.332437 442.560045 
L 419.535115 440.880264 
L 421.737792 440.346187 
L 423.940469 440.139232 
L 426.143147 439.288304 
L 428.345824 438.740747 
L 430.548502 438.556193 
L 432.751179 440.403317 
L 434.953856 440.416213 
L 437.156534 442.19537 
L 439.359211 440.769978 
L 441.561888 441.479005 
L 445.967243 439.929916 
L 448.169921 440.359573 
L 450.372598 442.993924 
L 452.575275 439.108539 
L 454.777953 440.622341 
L 456.98063 441.198271 
L 459.183307 439.162089 
L 461.385985 439.583538 
L 463.588662 441.738759 
L 465.79134 438.965608 
L 467.994017 441.237045 
L 470.196694 441.316706 
L 472.399372 441.522449 
L 474.602049 441.549996 
L 476.804726 440.262113 
L 479.007404 440.026324 
L 481.210081 440.949671 
L 483.412759 440.452123 
L 485.615436 441.134464 
L 487.818113 440.878731 
L 490.020791 443.183171 
L 492.223468 439.896095 
L 494.426145 441.964914 
L 496.628823 439.442563 
L 496.628823 439.442563 
" style="fill:none;stroke:#4c72b0;stroke-linecap:round;stroke-width:1.5;"/>
   </g>
   <g id="patch_13">
    <path d="M 54.881875 471.54 
L 54.881875 285.983438 
" style="fill:none;stroke:#ffffff;stroke-linecap:square;stroke-linejoin:miter;stroke-width:1.25;"/>
   </g>
   <g id="patch_14">
    <path d="M 517.664392 471.54 
L 517.664392 285.983438 
" style="fill:none;stroke:#ffffff;stroke-linecap:square;stroke-linejoin:miter;stroke-width:1.25;"/>
   </g>
   <g id="patch_15">
    <path d="M 54.881875 471.54 
L 517.664392 471.54 
" style="fill:none;stroke:#ffffff;stroke-linecap:square;stroke-linejoin:miter;stroke-width:1.25;"/>
   </g>
   <g id="patch_16">
    <path d="M 54.881875 285.983438 
L 517.664392 285.983438 
" style="fill:none;stroke:#ffffff;stroke-linecap:square;stroke-linejoin:miter;stroke-width:1.25;"/>
   </g>
   <g id="text_48">
    <!-- Reactive Power Q -->
    <g style="fill:#262626;" transform="translate(237.923446 279.983438)scale(0.12 -0.12)">
     <defs>
      <path d="M 61.96875 7.671875 
Q 68.5625 3.125 74.125 1.03125 
L 71.34375 -5.5625 
Q 63.625 -2.78125 55.953125 3.21875 
Q 48 -1.21875 38.375 -1.21875 
Q 28.65625 -1.21875 20.75 3.46875 
Q 12.84375 8.15625 8.5625 16.640625 
Q 4.296875 25.140625 4.296875 35.796875 
Q 4.296875 46.390625 8.59375 55.078125 
Q 12.890625 63.765625 20.828125 68.3125 
Q 28.765625 72.859375 38.578125 72.859375 
Q 48.484375 72.859375 56.4375 68.140625 
Q 64.40625 63.421875 68.578125 54.953125 
Q 72.75 46.484375 72.75 35.84375 
Q 72.75 27 70.0625 19.9375 
Q 67.390625 12.890625 61.96875 7.671875 
z
M 41.109375 19.78125 
Q 49.3125 17.484375 54.640625 12.9375 
Q 62.984375 20.5625 62.984375 35.84375 
Q 62.984375 44.53125 60.03125 51.015625 
Q 57.078125 57.515625 51.390625 61.109375 
Q 45.703125 64.703125 38.625 64.703125 
Q 28.03125 64.703125 21.046875 57.453125 
Q 14.0625 50.203125 14.0625 35.796875 
Q 14.0625 21.828125 20.96875 14.359375 
Q 27.875 6.890625 38.625 6.890625 
Q 43.703125 6.890625 48.1875 8.796875 
Q 43.75 11.671875 38.8125 12.890625 
z
" id="ArialMT-81"/>
     </defs>
     <use xlink:href="#ArialMT-82"/>
     <use x="72.216797" xlink:href="#ArialMT-101"/>
     <use x="127.832031" xlink:href="#ArialMT-97"/>
     <use x="183.447266" xlink:href="#ArialMT-99"/>
     <use x="233.447266" xlink:href="#ArialMT-116"/>
     <use x="261.230469" xlink:href="#ArialMT-105"/>
     <use x="283.447266" xlink:href="#ArialMT-118"/>
     <use x="333.447266" xlink:href="#ArialMT-101"/>
     <use x="389.0625" xlink:href="#ArialMT-32"/>
     <use x="416.845703" xlink:href="#ArialMT-80"/>
     <use x="483.544922" xlink:href="#ArialMT-111"/>
     <use x="539.160156" xlink:href="#ArialMT-119"/>
     <use x="611.376953" xlink:href="#ArialMT-101"/>
     <use x="666.992188" xlink:href="#ArialMT-114"/>
     <use x="700.292969" xlink:href="#ArialMT-32"/>
     <use x="728.076172" xlink:href="#ArialMT-81"/>
    </g>
   </g>
  </g>
  <g id="axes_4">
   <g id="patch_17">
    <path d="M 596.065938 471.54 
L 1058.848454 471.54 
L 1058.848454 285.983438 
L 596.065938 285.983438 
z
" style="fill:#eaeaf2;"/>
   </g>
   <g id="matplotlib.axis_7">
    <g id="xtick_28">
     <g id="line2d_46">
      <path clip-path="url(#p66b8dd333a)" d="M 617.101506 471.54 
L 617.101506 285.983438 
" style="fill:none;stroke:#ffffff;stroke-linecap:round;"/>
     </g>
     <g id="text_49">
      <!-- 0 -->
      <g style="fill:#262626;" transform="translate(614.042991 488.913594)scale(0.11 -0.11)">
       <use xlink:href="#ArialMT-48"/>
      </g>
     </g>
    </g>
    <g id="xtick_29">
     <g id="line2d_47">
      <path clip-path="url(#p66b8dd333a)" d="M 672.168441 471.54 
L 672.168441 285.983438 
" style="fill:none;stroke:#ffffff;stroke-linecap:round;"/>
     </g>
     <g id="text_50">
      <!-- 25 -->
      <g style="fill:#262626;" transform="translate(666.05141 488.913594)scale(0.11 -0.11)">
       <use xlink:href="#ArialMT-50"/>
       <use x="55.615234" xlink:href="#ArialMT-53"/>
      </g>
     </g>
    </g>
    <g id="xtick_30">
     <g id="line2d_48">
      <path clip-path="url(#p66b8dd333a)" d="M 727.235375 471.54 
L 727.235375 285.983438 
" style="fill:none;stroke:#ffffff;stroke-linecap:round;"/>
     </g>
     <g id="text_51">
      <!-- 50 -->
      <g style="fill:#262626;" transform="translate(721.118344 488.913594)scale(0.11 -0.11)">
       <use xlink:href="#ArialMT-53"/>
       <use x="55.615234" xlink:href="#ArialMT-48"/>
      </g>
     </g>
    </g>
    <g id="xtick_31">
     <g id="line2d_49">
      <path clip-path="url(#p66b8dd333a)" d="M 782.30231 471.54 
L 782.30231 285.983438 
" style="fill:none;stroke:#ffffff;stroke-linecap:round;"/>
     </g>
     <g id="text_52">
      <!-- 75 -->
      <g style="fill:#262626;" transform="translate(776.185278 488.913594)scale(0.11 -0.11)">
       <use xlink:href="#ArialMT-55"/>
       <use x="55.615234" xlink:href="#ArialMT-53"/>
      </g>
     </g>
    </g>
    <g id="xtick_32">
     <g id="line2d_50">
      <path clip-path="url(#p66b8dd333a)" d="M 837.369244 471.54 
L 837.369244 285.983438 
" style="fill:none;stroke:#ffffff;stroke-linecap:round;"/>
     </g>
     <g id="text_53">
      <!-- 100 -->
      <g style="fill:#262626;" transform="translate(828.193697 488.913594)scale(0.11 -0.11)">
       <use xlink:href="#ArialMT-49"/>
       <use x="55.615234" xlink:href="#ArialMT-48"/>
       <use x="111.230469" xlink:href="#ArialMT-48"/>
      </g>
     </g>
    </g>
    <g id="xtick_33">
     <g id="line2d_51">
      <path clip-path="url(#p66b8dd333a)" d="M 892.436179 471.54 
L 892.436179 285.983438 
" style="fill:none;stroke:#ffffff;stroke-linecap:round;"/>
     </g>
     <g id="text_54">
      <!-- 125 -->
      <g style="fill:#262626;" transform="translate(883.260632 488.913594)scale(0.11 -0.11)">
       <use xlink:href="#ArialMT-49"/>
       <use x="55.615234" xlink:href="#ArialMT-50"/>
       <use x="111.230469" xlink:href="#ArialMT-53"/>
      </g>
     </g>
    </g>
    <g id="xtick_34">
     <g id="line2d_52">
      <path clip-path="url(#p66b8dd333a)" d="M 947.503113 471.54 
L 947.503113 285.983438 
" style="fill:none;stroke:#ffffff;stroke-linecap:round;"/>
     </g>
     <g id="text_55">
      <!-- 150 -->
      <g style="fill:#262626;" transform="translate(938.327566 488.913594)scale(0.11 -0.11)">
       <use xlink:href="#ArialMT-49"/>
       <use x="55.615234" xlink:href="#ArialMT-53"/>
       <use x="111.230469" xlink:href="#ArialMT-48"/>
      </g>
     </g>
    </g>
    <g id="xtick_35">
     <g id="line2d_53">
      <path clip-path="url(#p66b8dd333a)" d="M 1002.570047 471.54 
L 1002.570047 285.983438 
" style="fill:none;stroke:#ffffff;stroke-linecap:round;"/>
     </g>
     <g id="text_56">
      <!-- 175 -->
      <g style="fill:#262626;" transform="translate(993.3945 488.913594)scale(0.11 -0.11)">
       <use xlink:href="#ArialMT-49"/>
       <use x="55.615234" xlink:href="#ArialMT-55"/>
       <use x="111.230469" xlink:href="#ArialMT-53"/>
      </g>
     </g>
    </g>
    <g id="xtick_36">
     <g id="line2d_54">
      <path clip-path="url(#p66b8dd333a)" d="M 1057.636982 471.54 
L 1057.636982 285.983438 
" style="fill:none;stroke:#ffffff;stroke-linecap:round;"/>
     </g>
     <g id="text_57">
      <!-- 200 -->
      <g style="fill:#262626;" transform="translate(1048.461435 488.913594)scale(0.11 -0.11)">
       <use xlink:href="#ArialMT-50"/>
       <use x="55.615234" xlink:href="#ArialMT-48"/>
       <use x="111.230469" xlink:href="#ArialMT-48"/>
      </g>
     </g>
    </g>
   </g>
   <g id="matplotlib.axis_8">
    <g id="ytick_16">
     <g id="line2d_55">
      <path clip-path="url(#p66b8dd333a)" d="M 596.065938 463.105611 
L 1058.848454 463.105611 
" style="fill:none;stroke:#ffffff;stroke-linecap:round;"/>
     </g>
     <g id="text_58">
      <!-- 0.0000 -->
      <g style="fill:#262626;" transform="translate(552.924844 467.042408)scale(0.11 -0.11)">
       <defs>
        <path d="M 9.078125 0 
L 9.078125 10.015625 
L 19.09375 10.015625 
L 19.09375 0 
z
" id="ArialMT-46"/>
       </defs>
       <use xlink:href="#ArialMT-48"/>
       <use x="55.615234" xlink:href="#ArialMT-46"/>
       <use x="83.398438" xlink:href="#ArialMT-48"/>
       <use x="139.013672" xlink:href="#ArialMT-48"/>
       <use x="194.628906" xlink:href="#ArialMT-48"/>
       <use x="250.244141" xlink:href="#ArialMT-48"/>
      </g>
     </g>
    </g>
    <g id="ytick_17">
     <g id="line2d_56">
      <path clip-path="url(#p66b8dd333a)" d="M 596.065938 436.115565 
L 1058.848454 436.115565 
" style="fill:none;stroke:#ffffff;stroke-linecap:round;"/>
     </g>
     <g id="text_59">
      <!-- 0.0025 -->
      <g style="fill:#262626;" transform="translate(552.924844 440.052362)scale(0.11 -0.11)">
       <use xlink:href="#ArialMT-48"/>
       <use x="55.615234" xlink:href="#ArialMT-46"/>
       <use x="83.398438" xlink:href="#ArialMT-48"/>
       <use x="139.013672" xlink:href="#ArialMT-48"/>
       <use x="194.628906" xlink:href="#ArialMT-50"/>
       <use x="250.244141" xlink:href="#ArialMT-53"/>
      </g>
     </g>
    </g>
    <g id="ytick_18">
     <g id="line2d_57">
      <path clip-path="url(#p66b8dd333a)" d="M 596.065938 409.12552 
L 1058.848454 409.12552 
" style="fill:none;stroke:#ffffff;stroke-linecap:round;"/>
     </g>
     <g id="text_60">
      <!-- 0.0050 -->
      <g style="fill:#262626;" transform="translate(552.924844 413.062317)scale(0.11 -0.11)">
       <use xlink:href="#ArialMT-48"/>
       <use x="55.615234" xlink:href="#ArialMT-46"/>
       <use x="83.398438" xlink:href="#ArialMT-48"/>
       <use x="139.013672" xlink:href="#ArialMT-48"/>
       <use x="194.628906" xlink:href="#ArialMT-53"/>
       <use x="250.244141" xlink:href="#ArialMT-48"/>
      </g>
     </g>
    </g>
    <g id="ytick_19">
     <g id="line2d_58">
      <path clip-path="url(#p66b8dd333a)" d="M 596.065938 382.135474 
L 1058.848454 382.135474 
" style="fill:none;stroke:#ffffff;stroke-linecap:round;"/>
     </g>
     <g id="text_61">
      <!-- 0.0075 -->
      <g style="fill:#262626;" transform="translate(552.924844 386.072271)scale(0.11 -0.11)">
       <use xlink:href="#ArialMT-48"/>
       <use x="55.615234" xlink:href="#ArialMT-46"/>
       <use x="83.398438" xlink:href="#ArialMT-48"/>
       <use x="139.013672" xlink:href="#ArialMT-48"/>
       <use x="194.628906" xlink:href="#ArialMT-55"/>
       <use x="250.244141" xlink:href="#ArialMT-53"/>
      </g>
     </g>
    </g>
    <g id="ytick_20">
     <g id="line2d_59">
      <path clip-path="url(#p66b8dd333a)" d="M 596.065938 355.145429 
L 1058.848454 355.145429 
" style="fill:none;stroke:#ffffff;stroke-linecap:round;"/>
     </g>
     <g id="text_62">
      <!-- 0.0100 -->
      <g style="fill:#262626;" transform="translate(552.924844 359.082226)scale(0.11 -0.11)">
       <use xlink:href="#ArialMT-48"/>
       <use x="55.615234" xlink:href="#ArialMT-46"/>
       <use x="83.398438" xlink:href="#ArialMT-48"/>
       <use x="139.013672" xlink:href="#ArialMT-49"/>
       <use x="194.628906" xlink:href="#ArialMT-48"/>
       <use x="250.244141" xlink:href="#ArialMT-48"/>
      </g>
     </g>
    </g>
    <g id="ytick_21">
     <g id="line2d_60">
      <path clip-path="url(#p66b8dd333a)" d="M 596.065938 328.155384 
L 1058.848454 328.155384 
" style="fill:none;stroke:#ffffff;stroke-linecap:round;"/>
     </g>
     <g id="text_63">
      <!-- 0.0125 -->
      <g style="fill:#262626;" transform="translate(552.924844 332.09218)scale(0.11 -0.11)">
       <use xlink:href="#ArialMT-48"/>
       <use x="55.615234" xlink:href="#ArialMT-46"/>
       <use x="83.398438" xlink:href="#ArialMT-48"/>
       <use x="139.013672" xlink:href="#ArialMT-49"/>
       <use x="194.628906" xlink:href="#ArialMT-50"/>
       <use x="250.244141" xlink:href="#ArialMT-53"/>
      </g>
     </g>
    </g>
    <g id="ytick_22">
     <g id="line2d_61">
      <path clip-path="url(#p66b8dd333a)" d="M 596.065938 301.165338 
L 1058.848454 301.165338 
" style="fill:none;stroke:#ffffff;stroke-linecap:round;"/>
     </g>
     <g id="text_64">
      <!-- 0.0150 -->
      <g style="fill:#262626;" transform="translate(552.924844 305.102135)scale(0.11 -0.11)">
       <use xlink:href="#ArialMT-48"/>
       <use x="55.615234" xlink:href="#ArialMT-46"/>
       <use x="83.398438" xlink:href="#ArialMT-48"/>
       <use x="139.013672" xlink:href="#ArialMT-49"/>
       <use x="194.628906" xlink:href="#ArialMT-53"/>
       <use x="250.244141" xlink:href="#ArialMT-48"/>
      </g>
     </g>
    </g>
    <g id="text_65">
     <!-- ?? -->
     <g style="fill:#262626;" transform="translate(546.539844 385.434844)rotate(-90)scale(0.12 -0.12)">
      <defs>
       <path d="M 23.046875 17.625 
Q 23 19.390625 23 20.265625 
Q 23 25.4375 24.46875 29.203125 
Q 25.53125 32.03125 27.9375 34.90625 
Q 29.6875 37.015625 34.25 41.03125 
Q 38.8125 45.0625 40.171875 47.453125 
Q 41.546875 49.859375 41.546875 52.6875 
Q 41.546875 57.8125 37.546875 61.6875 
Q 33.546875 65.578125 27.734375 65.578125 
Q 22.125 65.578125 18.359375 62.0625 
Q 14.59375 58.546875 13.421875 51.078125 
L 4.390625 52.15625 
Q 5.609375 62.15625 11.640625 67.46875 
Q 17.671875 72.796875 27.59375 72.796875 
Q 38.09375 72.796875 44.34375 67.078125 
Q 50.59375 61.375 50.59375 53.265625 
Q 50.59375 48.578125 48.390625 44.625 
Q 46.1875 40.671875 39.796875 35.015625 
Q 35.5 31.203125 34.171875 29.390625 
Q 32.859375 27.59375 32.21875 25.25 
Q 31.59375 22.90625 31.5 17.625 
z
M 22.515625 0 
L 22.515625 10.015625 
L 32.515625 10.015625 
L 32.515625 0 
z
" id="ArialMT-63"/>
      </defs>
      <use xlink:href="#ArialMT-63"/>
      <use x="55.615234" xlink:href="#ArialMT-63"/>
     </g>
    </g>
   </g>
   <g id="line2d_62">
    <path clip-path="url(#p66b8dd333a)" d="M 617.101506 463.105611 
L 619.304184 448.195577 
L 621.506861 448.195577 
L 623.709539 444.844623 
L 625.912216 455.650594 
L 628.114893 463.105611 
L 630.317571 448.195577 
L 632.520248 447.736698 
L 634.722925 463.105611 
L 636.925603 452.562624 
L 639.12828 463.105611 
L 641.330958 448.195577 
L 643.533635 445.622045 
L 645.736312 446.435685 
L 647.93899 450.193142 
L 650.141667 455.650594 
L 652.344344 452.562624 
L 656.749699 452.562624 
L 658.952377 463.105611 
L 661.155054 448.195577 
L 663.357731 452.562624 
L 665.560409 463.105611 
L 667.763086 445.622045 
L 672.168441 454.770648 
L 674.371118 452.562624 
L 676.573796 450.193142 
L 678.776473 463.105611 
L 680.97915 455.650594 
L 683.181828 452.562624 
L 685.384505 452.562624 
L 687.587182 463.105611 
L 689.78986 452.562624 
L 691.992537 448.195577 
L 694.195215 446.435685 
L 696.397892 463.105611 
L 698.600569 444.844623 
L 700.803247 448.195577 
L 703.005924 452.562624 
L 705.208602 463.105611 
L 707.411279 455.650594 
L 709.613956 452.562624 
L 711.816634 463.105611 
L 714.019311 463.105611 
L 716.221988 455.650594 
L 718.424666 463.105611 
L 720.627343 445.622045 
L 722.830021 448.195577 
L 725.032698 448.195577 
L 727.235375 444.844623 
L 729.438053 463.105611 
L 731.64073 448.195577 
L 733.843407 455.650594 
L 736.046085 444.844623 
L 738.248762 452.562624 
L 740.45144 452.562624 
L 742.654117 463.105611 
L 744.856794 448.195577 
L 747.059472 455.650594 
L 749.262149 448.195577 
L 751.464826 463.105611 
L 753.667504 450.193142 
L 755.870181 444.844623 
L 758.072859 455.650594 
L 760.275536 463.105611 
L 762.478213 452.562624 
L 764.680891 463.105611 
L 766.883568 444.844623 
L 769.086245 463.105611 
L 771.288923 452.562624 
L 773.4916 450.193142 
L 775.694278 463.105611 
L 777.896955 450.193142 
L 780.099632 463.105611 
L 782.30231 452.562624 
L 784.504987 463.105611 
L 786.707664 463.105611 
L 788.910342 426.583635 
L 791.113019 448.195577 
L 793.315697 463.105611 
L 795.518374 463.105611 
L 797.721051 433.285542 
L 799.923729 442.019638 
L 802.126406 463.105611 
L 804.329083 433.285542 
L 806.531761 463.105611 
L 808.734438 433.285542 
L 810.937116 433.285542 
L 813.139793 442.019638 
L 815.34247 433.285542 
L 817.545148 433.285542 
L 819.747825 442.019638 
L 821.950502 448.195577 
L 824.15318 448.195577 
L 826.355857 463.105611 
L 828.558535 433.285542 
L 830.761212 463.105611 
L 832.963889 444.844623 
L 835.166567 463.105611 
L 841.774599 463.105611 
L 843.977276 294.417827 
L 846.179954 463.105611 
L 1037.812885 463.105611 
L 1037.812885 463.105611 
" style="fill:none;stroke:#4c72b0;stroke-linecap:round;stroke-width:1.5;"/>
   </g>
   <g id="patch_18">
    <path d="M 596.065938 471.54 
L 596.065938 285.983438 
" style="fill:none;stroke:#ffffff;stroke-linecap:square;stroke-linejoin:miter;stroke-width:1.25;"/>
   </g>
   <g id="patch_19">
    <path d="M 1058.848454 471.54 
L 1058.848454 285.983438 
" style="fill:none;stroke:#ffffff;stroke-linecap:square;stroke-linejoin:miter;stroke-width:1.25;"/>
   </g>
   <g id="patch_20">
    <path d="M 596.065938 471.54 
L 1058.848454 471.54 
" style="fill:none;stroke:#ffffff;stroke-linecap:square;stroke-linejoin:miter;stroke-width:1.25;"/>
   </g>
   <g id="patch_21">
    <path d="M 596.065938 285.983438 
L 1058.848454 285.983438 
" style="fill:none;stroke:#ffffff;stroke-linecap:square;stroke-linejoin:miter;stroke-width:1.25;"/>
   </g>
   <g id="text_66">
    <!-- Distortion Power D -->
    <g style="fill:#262626;" transform="translate(777.443446 279.983438)scale(0.12 -0.12)">
     <defs>
      <path d="M 7.71875 0 
L 7.71875 71.578125 
L 32.375 71.578125 
Q 40.71875 71.578125 45.125 70.5625 
Q 51.265625 69.140625 55.609375 65.4375 
Q 61.28125 60.640625 64.078125 53.1875 
Q 66.890625 45.75 66.890625 36.1875 
Q 66.890625 28.03125 64.984375 21.734375 
Q 63.09375 15.4375 60.109375 11.296875 
Q 57.125 7.171875 53.578125 4.796875 
Q 50.046875 2.4375 45.046875 1.21875 
Q 40.046875 0 33.546875 0 
z
M 17.1875 8.453125 
L 32.46875 8.453125 
Q 39.546875 8.453125 43.578125 9.765625 
Q 47.609375 11.078125 50 13.484375 
Q 53.375 16.84375 55.25 22.53125 
Q 57.125 28.21875 57.125 36.328125 
Q 57.125 47.5625 53.4375 53.59375 
Q 49.75 59.625 44.484375 61.671875 
Q 40.671875 63.140625 32.234375 63.140625 
L 17.1875 63.140625 
z
" id="ArialMT-68"/>
     </defs>
     <use xlink:href="#ArialMT-68"/>
     <use x="72.216797" xlink:href="#ArialMT-105"/>
     <use x="94.433594" xlink:href="#ArialMT-115"/>
     <use x="144.433594" xlink:href="#ArialMT-116"/>
     <use x="172.216797" xlink:href="#ArialMT-111"/>
     <use x="227.832031" xlink:href="#ArialMT-114"/>
     <use x="261.132812" xlink:href="#ArialMT-116"/>
     <use x="288.916016" xlink:href="#ArialMT-105"/>
     <use x="311.132812" xlink:href="#ArialMT-111"/>
     <use x="366.748047" xlink:href="#ArialMT-110"/>
     <use x="422.363281" xlink:href="#ArialMT-32"/>
     <use x="450.146484" xlink:href="#ArialMT-80"/>
     <use x="516.845703" xlink:href="#ArialMT-111"/>
     <use x="572.460938" xlink:href="#ArialMT-119"/>
     <use x="644.677734" xlink:href="#ArialMT-101"/>
     <use x="700.292969" xlink:href="#ArialMT-114"/>
     <use x="733.59375" xlink:href="#ArialMT-32"/>
     <use x="761.376953" xlink:href="#ArialMT-68"/>
    </g>
   </g>
  </g>
  <g id="text_67">
   <!-- AC power features -->
   <g style="fill:#262626;" transform="translate(480.375 20.56275)scale(0.144 -0.144)">
    <defs>
     <path d="M 58.796875 25.09375 
L 68.265625 22.703125 
Q 65.28125 11.03125 57.546875 4.90625 
Q 49.8125 -1.21875 38.625 -1.21875 
Q 27.046875 -1.21875 19.796875 3.484375 
Q 12.546875 8.203125 8.765625 17.140625 
Q 4.984375 26.078125 4.984375 36.328125 
Q 4.984375 47.515625 9.25 55.828125 
Q 13.53125 64.15625 21.40625 68.46875 
Q 29.296875 72.796875 38.765625 72.796875 
Q 49.515625 72.796875 56.828125 67.328125 
Q 64.15625 61.859375 67.046875 51.953125 
L 57.71875 49.75 
Q 55.21875 57.5625 50.484375 61.125 
Q 45.75 64.703125 38.578125 64.703125 
Q 30.328125 64.703125 24.78125 60.734375 
Q 19.234375 56.78125 16.984375 50.109375 
Q 14.75 43.453125 14.75 36.375 
Q 14.75 27.25 17.40625 20.4375 
Q 20.0625 13.625 25.671875 10.25 
Q 31.296875 6.890625 37.84375 6.890625 
Q 45.796875 6.890625 51.3125 11.46875 
Q 56.84375 16.0625 58.796875 25.09375 
z
" id="ArialMT-67"/>
     <path d="M 8.6875 0 
L 8.6875 45.015625 
L 0.921875 45.015625 
L 0.921875 51.859375 
L 8.6875 51.859375 
L 8.6875 57.375 
Q 8.6875 62.59375 9.625 65.140625 
Q 10.890625 68.5625 14.078125 70.671875 
Q 17.28125 72.796875 23.046875 72.796875 
Q 26.765625 72.796875 31.25 71.921875 
L 29.9375 64.265625 
Q 27.203125 64.75 24.75 64.75 
Q 20.75 64.75 19.09375 63.03125 
Q 17.4375 61.328125 17.4375 56.640625 
L 17.4375 51.859375 
L 27.546875 51.859375 
L 27.546875 45.015625 
L 17.4375 45.015625 
L 17.4375 0 
z
" id="ArialMT-102"/>
     <path d="M 40.578125 0 
L 40.578125 7.625 
Q 34.515625 -1.171875 24.125 -1.171875 
Q 19.53125 -1.171875 15.546875 0.578125 
Q 11.578125 2.34375 9.640625 5 
Q 7.71875 7.671875 6.9375 11.53125 
Q 6.390625 14.109375 6.390625 19.734375 
L 6.390625 51.859375 
L 15.1875 51.859375 
L 15.1875 23.09375 
Q 15.1875 16.21875 15.71875 13.8125 
Q 16.546875 10.359375 19.234375 8.375 
Q 21.921875 6.390625 25.875 6.390625 
Q 29.828125 6.390625 33.296875 8.421875 
Q 36.765625 10.453125 38.203125 13.9375 
Q 39.65625 17.4375 39.65625 24.078125 
L 39.65625 51.859375 
L 48.4375 51.859375 
L 48.4375 0 
z
" id="ArialMT-117"/>
    </defs>
    <use xlink:href="#ArialMT-65"/>
    <use x="66.699219" xlink:href="#ArialMT-67"/>
    <use x="138.916016" xlink:href="#ArialMT-32"/>
    <use x="166.699219" xlink:href="#ArialMT-112"/>
    <use x="222.314453" xlink:href="#ArialMT-111"/>
    <use x="277.929688" xlink:href="#ArialMT-119"/>
    <use x="350.146484" xlink:href="#ArialMT-101"/>
    <use x="405.761719" xlink:href="#ArialMT-114"/>
    <use x="439.0625" xlink:href="#ArialMT-32"/>
    <use x="466.845703" xlink:href="#ArialMT-102"/>
    <use x="494.628906" xlink:href="#ArialMT-101"/>
    <use x="550.244141" xlink:href="#ArialMT-97"/>
    <use x="605.859375" xlink:href="#ArialMT-116"/>
    <use x="633.642578" xlink:href="#ArialMT-117"/>
    <use x="689.257812" xlink:href="#ArialMT-114"/>
    <use x="722.558594" xlink:href="#ArialMT-101"/>
    <use x="778.173828" xlink:href="#ArialMT-115"/>
   </g>
  </g>
  <g id="text_68">
   <!-- Number of cycles -->
   <g style="fill:#262626;" transform="translate(493.654688 507.105)scale(0.12 -0.12)">
    <defs>
     <path d="M 7.625 0 
L 7.625 71.578125 
L 17.328125 71.578125 
L 54.9375 15.375 
L 54.9375 71.578125 
L 64.015625 71.578125 
L 64.015625 0 
L 54.296875 0 
L 16.703125 56.25 
L 16.703125 0 
z
" id="ArialMT-78"/>
     <path d="M 14.703125 0 
L 6.546875 0 
L 6.546875 71.578125 
L 15.328125 71.578125 
L 15.328125 46.046875 
Q 20.90625 53.03125 29.546875 53.03125 
Q 34.328125 53.03125 38.59375 51.09375 
Q 42.875 49.171875 45.625 45.671875 
Q 48.390625 42.1875 49.953125 37.25 
Q 51.515625 32.328125 51.515625 26.703125 
Q 51.515625 13.375 44.921875 6.09375 
Q 38.328125 -1.171875 29.109375 -1.171875 
Q 19.921875 -1.171875 14.703125 6.5 
z
M 14.59375 26.3125 
Q 14.59375 17 17.140625 12.84375 
Q 21.296875 6.0625 28.375 6.0625 
Q 34.125 6.0625 38.328125 11.0625 
Q 42.53125 16.0625 42.53125 25.984375 
Q 42.53125 36.140625 38.5 40.96875 
Q 34.46875 45.796875 28.765625 45.796875 
Q 23 45.796875 18.796875 40.796875 
Q 14.59375 35.796875 14.59375 26.3125 
z
" id="ArialMT-98"/>
     <path d="M 6.203125 -19.96875 
L 5.21875 -11.71875 
Q 8.109375 -12.5 10.25 -12.5 
Q 13.1875 -12.5 14.9375 -11.515625 
Q 16.703125 -10.546875 17.828125 -8.796875 
Q 18.65625 -7.46875 20.515625 -2.25 
Q 20.75 -1.515625 21.296875 -0.09375 
L 1.609375 51.859375 
L 11.078125 51.859375 
L 21.875 21.828125 
Q 23.96875 16.109375 25.640625 9.8125 
Q 27.15625 15.875 29.25 21.625 
L 40.328125 51.859375 
L 49.125 51.859375 
L 29.390625 -0.875 
Q 26.21875 -9.421875 24.46875 -12.640625 
Q 22.125 -17 19.09375 -19.015625 
Q 16.0625 -21.046875 11.859375 -21.046875 
Q 9.328125 -21.046875 6.203125 -19.96875 
z
" id="ArialMT-121"/>
    </defs>
    <use xlink:href="#ArialMT-78"/>
    <use x="72.216797" xlink:href="#ArialMT-117"/>
    <use x="127.832031" xlink:href="#ArialMT-109"/>
    <use x="211.132812" xlink:href="#ArialMT-98"/>
    <use x="266.748047" xlink:href="#ArialMT-101"/>
    <use x="322.363281" xlink:href="#ArialMT-114"/>
    <use x="355.664062" xlink:href="#ArialMT-32"/>
    <use x="383.447266" xlink:href="#ArialMT-111"/>
    <use x="439.0625" xlink:href="#ArialMT-102"/>
    <use x="466.845703" xlink:href="#ArialMT-32"/>
    <use x="494.628906" xlink:href="#ArialMT-99"/>
    <use x="544.628906" xlink:href="#ArialMT-121"/>
    <use x="594.628906" xlink:href="#ArialMT-99"/>
    <use x="644.628906" xlink:href="#ArialMT-108"/>
    <use x="666.845703" xlink:href="#ArialMT-101"/>
    <use x="722.460938" xlink:href="#ArialMT-115"/>
   </g>
  </g>
 </g>
 <defs>
  <clipPath id="pe8354560fb">
   <rect height="185.556563" width="462.782517" x="54.881875" y="53.966875"/>
  </clipPath>
  <clipPath id="p563ebed075">
   <rect height="185.556563" width="462.782517" x="596.065938" y="53.966875"/>
  </clipPath>
  <clipPath id="p6705836d9f">
   <rect height="185.556563" width="462.782517" x="54.881875" y="285.983438"/>
  </clipPath>
  <clipPath id="p66b8dd333a">
   <rect height="185.556563" width="462.782517" x="596.065938" y="285.983438"/>
  </clipPath>
 </defs>
</svg>
