<?xml version="1.0" encoding="utf-8" standalone="no"?>
<!DOCTYPE svg PUBLIC "-//W3C//DTD SVG 1.1//EN"
  "http://www.w3.org/Graphics/SVG/1.1/DTD/svg11.dtd">
<svg height="433.557578pt" version="1.1" viewBox="0 0 721.167615 433.557578" width="721.167615pt" xmlns="http://www.w3.org/2000/svg" xmlns:xlink="http://www.w3.org/1999/xlink">
 <metadata>
  <rdf:RDF xmlns:cc="http://creativecommons.org/ns#" xmlns:dc="http://purl.org/dc/elements/1.1/" xmlns:rdf="http://www.w3.org/1999/02/22-rdf-syntax-ns#">
   <cc:Work>
    <dc:type rdf:resource="http://purl.org/dc/dcmitype/StillImage"/>
    <dc:date>2021-10-15T15:08:26.301447</dc:date>
    <dc:format>image/svg+xml</dc:format>
    <dc:creator>
     <cc:Agent>
      <dc:title>Matplotlib v3.4.2, https://matplotlib.org/</dc:title>
     </cc:Agent>
    </dc:creator>
   </cc:Work>
  </rdf:RDF>
 </metadata>
 <defs>
  <style type="text/css">*{stroke-linecap:butt;stroke-linejoin:round;}</style>
 </defs>
 <g id="figure_1">
  <g id="patch_1">
   <path d="M 0 433.557578 
L 721.167615 433.557578 
L 721.167615 0 
L 0 0 
z
" style="fill:#ffffff;"/>
  </g>
  <g id="axes_1">
   <g id="patch_2">
    <path d="M 62.701751 184.2475 
L 352.029471 184.2475 
L 352.029471 21.935625 
L 62.701751 21.935625 
z
" style="fill:#eaeaf2;"/>
   </g>
   <g id="matplotlib.axis_1">
    <g id="xtick_1">
     <g id="line2d_1">
      <path clip-path="url(#p4b9eb86f93)" d="M 75.853011 184.2475 
L 75.853011 21.935625 
" style="fill:none;stroke:#ffffff;stroke-linecap:round;"/>
     </g>
     <g id="text_1">
      <!-- 0 -->
      <g style="fill:#262626;" transform="translate(72.794496 201.621094)scale(0.11 -0.11)">
       <defs>
        <path d="M 266 2259 
Q 266 3072 433 3567 
Q 600 4063 929 4331 
Q 1259 4600 1759 4600 
Q 2128 4600 2406 4451 
Q 2684 4303 2865 4023 
Q 3047 3744 3150 3342 
Q 3253 2941 3253 2259 
Q 3253 1453 3087 958 
Q 2922 463 2592 192 
Q 2263 -78 1759 -78 
Q 1097 -78 719 397 
Q 266 969 266 2259 
z
M 844 2259 
Q 844 1131 1108 757 
Q 1372 384 1759 384 
Q 2147 384 2411 759 
Q 2675 1134 2675 2259 
Q 2675 3391 2411 3762 
Q 2147 4134 1753 4134 
Q 1366 4134 1134 3806 
Q 844 3388 844 2259 
z
" id="ArialMT-30" transform="scale(0.015625)"/>
       </defs>
       <use xlink:href="#ArialMT-30"/>
      </g>
     </g>
    </g>
    <g id="xtick_2">
     <g id="line2d_2">
      <path clip-path="url(#p4b9eb86f93)" d="M 144.707776 184.2475 
L 144.707776 21.935625 
" style="fill:none;stroke:#ffffff;stroke-linecap:round;"/>
     </g>
     <g id="text_2">
      <!-- 50 -->
      <g style="fill:#262626;" transform="translate(138.590744 201.621094)scale(0.11 -0.11)">
       <defs>
        <path d="M 266 1200 
L 856 1250 
Q 922 819 1161 601 
Q 1400 384 1738 384 
Q 2144 384 2425 690 
Q 2706 997 2706 1503 
Q 2706 1984 2436 2262 
Q 2166 2541 1728 2541 
Q 1456 2541 1237 2417 
Q 1019 2294 894 2097 
L 366 2166 
L 809 4519 
L 3088 4519 
L 3088 3981 
L 1259 3981 
L 1013 2750 
Q 1425 3038 1878 3038 
Q 2478 3038 2890 2622 
Q 3303 2206 3303 1553 
Q 3303 931 2941 478 
Q 2500 -78 1738 -78 
Q 1113 -78 717 272 
Q 322 622 266 1200 
z
" id="ArialMT-35" transform="scale(0.015625)"/>
       </defs>
       <use xlink:href="#ArialMT-35"/>
       <use x="55.615234" xlink:href="#ArialMT-30"/>
      </g>
     </g>
    </g>
    <g id="xtick_3">
     <g id="line2d_3">
      <path clip-path="url(#p4b9eb86f93)" d="M 213.56254 184.2475 
L 213.56254 21.935625 
" style="fill:none;stroke:#ffffff;stroke-linecap:round;"/>
     </g>
     <g id="text_3">
      <!-- 100 -->
      <g style="fill:#262626;" transform="translate(204.386993 201.621094)scale(0.11 -0.11)">
       <defs>
        <path d="M 2384 0 
L 1822 0 
L 1822 3584 
Q 1619 3391 1289 3197 
Q 959 3003 697 2906 
L 697 3450 
Q 1169 3672 1522 3987 
Q 1875 4303 2022 4600 
L 2384 4600 
L 2384 0 
z
" id="ArialMT-31" transform="scale(0.015625)"/>
       </defs>
       <use xlink:href="#ArialMT-31"/>
       <use x="55.615234" xlink:href="#ArialMT-30"/>
       <use x="111.230469" xlink:href="#ArialMT-30"/>
      </g>
     </g>
    </g>
    <g id="xtick_4">
     <g id="line2d_4">
      <path clip-path="url(#p4b9eb86f93)" d="M 282.417304 184.2475 
L 282.417304 21.935625 
" style="fill:none;stroke:#ffffff;stroke-linecap:round;"/>
     </g>
     <g id="text_4">
      <!-- 150 -->
      <g style="fill:#262626;" transform="translate(273.241757 201.621094)scale(0.11 -0.11)">
       <use xlink:href="#ArialMT-31"/>
       <use x="55.615234" xlink:href="#ArialMT-35"/>
       <use x="111.230469" xlink:href="#ArialMT-30"/>
      </g>
     </g>
    </g>
    <g id="xtick_5">
     <g id="line2d_5">
      <path clip-path="url(#p4b9eb86f93)" d="M 351.272068 184.2475 
L 351.272068 21.935625 
" style="fill:none;stroke:#ffffff;stroke-linecap:round;"/>
     </g>
     <g id="text_5">
      <!-- 200 -->
      <g style="fill:#262626;" transform="translate(342.096522 201.621094)scale(0.11 -0.11)">
       <defs>
        <path d="M 3222 541 
L 3222 0 
L 194 0 
Q 188 203 259 391 
Q 375 700 629 1000 
Q 884 1300 1366 1694 
Q 2113 2306 2375 2664 
Q 2638 3022 2638 3341 
Q 2638 3675 2398 3904 
Q 2159 4134 1775 4134 
Q 1369 4134 1125 3890 
Q 881 3647 878 3216 
L 300 3275 
Q 359 3922 746 4261 
Q 1134 4600 1788 4600 
Q 2447 4600 2831 4234 
Q 3216 3869 3216 3328 
Q 3216 3053 3103 2787 
Q 2991 2522 2730 2228 
Q 2469 1934 1863 1422 
Q 1356 997 1212 845 
Q 1069 694 975 541 
L 3222 541 
z
" id="ArialMT-32" transform="scale(0.015625)"/>
       </defs>
       <use xlink:href="#ArialMT-32"/>
       <use x="55.615234" xlink:href="#ArialMT-30"/>
       <use x="111.230469" xlink:href="#ArialMT-30"/>
      </g>
     </g>
    </g>
   </g>
   <g id="matplotlib.axis_2">
    <g id="ytick_1">
     <g id="line2d_6">
      <path clip-path="url(#p4b9eb86f93)" d="M 62.701751 177.387804 
L 352.029471 177.387804 
" style="fill:none;stroke:#ffffff;stroke-linecap:round;"/>
     </g>
     <g id="text_6">
      <!-- 0 -->
      <g style="fill:#262626;" transform="translate(47.08472 181.324601)scale(0.11 -0.11)">
       <use xlink:href="#ArialMT-30"/>
      </g>
     </g>
    </g>
    <g id="ytick_2">
     <g id="line2d_7">
      <path clip-path="url(#p4b9eb86f93)" d="M 62.701751 143.528794 
L 352.029471 143.528794 
" style="fill:none;stroke:#ffffff;stroke-linecap:round;"/>
     </g>
     <g id="text_7">
      <!-- 50 -->
      <g style="fill:#262626;" transform="translate(40.967689 147.46559)scale(0.11 -0.11)">
       <use xlink:href="#ArialMT-35"/>
       <use x="55.615234" xlink:href="#ArialMT-30"/>
      </g>
     </g>
    </g>
    <g id="ytick_3">
     <g id="line2d_8">
      <path clip-path="url(#p4b9eb86f93)" d="M 62.701751 109.669783 
L 352.029471 109.669783 
" style="fill:none;stroke:#ffffff;stroke-linecap:round;"/>
     </g>
     <g id="text_8">
      <!-- 100 -->
      <g style="fill:#262626;" transform="translate(34.850658 113.60658)scale(0.11 -0.11)">
       <use xlink:href="#ArialMT-31"/>
       <use x="55.615234" xlink:href="#ArialMT-30"/>
       <use x="111.230469" xlink:href="#ArialMT-30"/>
      </g>
     </g>
    </g>
    <g id="ytick_4">
     <g id="line2d_9">
      <path clip-path="url(#p4b9eb86f93)" d="M 62.701751 75.810772 
L 352.029471 75.810772 
" style="fill:none;stroke:#ffffff;stroke-linecap:round;"/>
     </g>
     <g id="text_9">
      <!-- 150 -->
      <g style="fill:#262626;" transform="translate(34.850658 79.747569)scale(0.11 -0.11)">
       <use xlink:href="#ArialMT-31"/>
       <use x="55.615234" xlink:href="#ArialMT-35"/>
       <use x="111.230469" xlink:href="#ArialMT-30"/>
      </g>
     </g>
    </g>
    <g id="ytick_5">
     <g id="line2d_10">
      <path clip-path="url(#p4b9eb86f93)" d="M 62.701751 41.951762 
L 352.029471 41.951762 
" style="fill:none;stroke:#ffffff;stroke-linecap:round;"/>
     </g>
     <g id="text_10">
      <!-- 200 -->
      <g style="fill:#262626;" transform="translate(34.850658 45.888559)scale(0.11 -0.11)">
       <use xlink:href="#ArialMT-32"/>
       <use x="55.615234" xlink:href="#ArialMT-30"/>
       <use x="111.230469" xlink:href="#ArialMT-30"/>
      </g>
     </g>
    </g>
    <g id="text_11">
     <!-- Watts (W) -->
     <g style="fill:#262626;" transform="translate(28.325033 129.52625)rotate(-90)scale(0.12 -0.12)">
      <defs>
       <path d="M 1294 0 
L 78 4581 
L 700 4581 
L 1397 1578 
Q 1509 1106 1591 641 
Q 1766 1375 1797 1488 
L 2669 4581 
L 3400 4581 
L 4056 2263 
Q 4303 1400 4413 641 
Q 4500 1075 4641 1638 
L 5359 4581 
L 5969 4581 
L 4713 0 
L 4128 0 
L 3163 3491 
Q 3041 3928 3019 4028 
Q 2947 3713 2884 3491 
L 1913 0 
L 1294 0 
z
" id="ArialMT-57" transform="scale(0.015625)"/>
       <path d="M 2588 409 
Q 2275 144 1986 34 
Q 1697 -75 1366 -75 
Q 819 -75 525 192 
Q 231 459 231 875 
Q 231 1119 342 1320 
Q 453 1522 633 1644 
Q 813 1766 1038 1828 
Q 1203 1872 1538 1913 
Q 2219 1994 2541 2106 
Q 2544 2222 2544 2253 
Q 2544 2597 2384 2738 
Q 2169 2928 1744 2928 
Q 1347 2928 1158 2789 
Q 969 2650 878 2297 
L 328 2372 
Q 403 2725 575 2942 
Q 747 3159 1072 3276 
Q 1397 3394 1825 3394 
Q 2250 3394 2515 3294 
Q 2781 3194 2906 3042 
Q 3031 2891 3081 2659 
Q 3109 2516 3109 2141 
L 3109 1391 
Q 3109 606 3145 398 
Q 3181 191 3288 0 
L 2700 0 
Q 2613 175 2588 409 
z
M 2541 1666 
Q 2234 1541 1622 1453 
Q 1275 1403 1131 1340 
Q 988 1278 909 1158 
Q 831 1038 831 891 
Q 831 666 1001 516 
Q 1172 366 1500 366 
Q 1825 366 2078 508 
Q 2331 650 2450 897 
Q 2541 1088 2541 1459 
L 2541 1666 
z
" id="ArialMT-61" transform="scale(0.015625)"/>
       <path d="M 1650 503 
L 1731 6 
Q 1494 -44 1306 -44 
Q 1000 -44 831 53 
Q 663 150 594 308 
Q 525 466 525 972 
L 525 2881 
L 113 2881 
L 113 3319 
L 525 3319 
L 525 4141 
L 1084 4478 
L 1084 3319 
L 1650 3319 
L 1650 2881 
L 1084 2881 
L 1084 941 
Q 1084 700 1114 631 
Q 1144 563 1211 522 
Q 1278 481 1403 481 
Q 1497 481 1650 503 
z
" id="ArialMT-74" transform="scale(0.015625)"/>
       <path d="M 197 991 
L 753 1078 
Q 800 744 1014 566 
Q 1228 388 1613 388 
Q 2000 388 2187 545 
Q 2375 703 2375 916 
Q 2375 1106 2209 1216 
Q 2094 1291 1634 1406 
Q 1016 1563 777 1677 
Q 538 1791 414 1992 
Q 291 2194 291 2438 
Q 291 2659 392 2848 
Q 494 3038 669 3163 
Q 800 3259 1026 3326 
Q 1253 3394 1513 3394 
Q 1903 3394 2198 3281 
Q 2494 3169 2634 2976 
Q 2775 2784 2828 2463 
L 2278 2388 
Q 2241 2644 2061 2787 
Q 1881 2931 1553 2931 
Q 1166 2931 1000 2803 
Q 834 2675 834 2503 
Q 834 2394 903 2306 
Q 972 2216 1119 2156 
Q 1203 2125 1616 2013 
Q 2213 1853 2448 1751 
Q 2684 1650 2818 1456 
Q 2953 1263 2953 975 
Q 2953 694 2789 445 
Q 2625 197 2315 61 
Q 2006 -75 1616 -75 
Q 969 -75 630 194 
Q 291 463 197 991 
z
" id="ArialMT-73" transform="scale(0.015625)"/>
       <path id="ArialMT-20" transform="scale(0.015625)"/>
       <path d="M 1497 -1347 
Q 1031 -759 709 28 
Q 388 816 388 1659 
Q 388 2403 628 3084 
Q 909 3875 1497 4659 
L 1900 4659 
Q 1522 4009 1400 3731 
Q 1209 3300 1100 2831 
Q 966 2247 966 1656 
Q 966 153 1900 -1347 
L 1497 -1347 
z
" id="ArialMT-28" transform="scale(0.015625)"/>
       <path d="M 791 -1347 
L 388 -1347 
Q 1322 153 1322 1656 
Q 1322 2244 1188 2822 
Q 1081 3291 891 3722 
Q 769 4003 388 4659 
L 791 4659 
Q 1378 3875 1659 3084 
Q 1900 2403 1900 1659 
Q 1900 816 1576 28 
Q 1253 -759 791 -1347 
z
" id="ArialMT-29" transform="scale(0.015625)"/>
      </defs>
      <use xlink:href="#ArialMT-57"/>
      <use x="90.634766" xlink:href="#ArialMT-61"/>
      <use x="146.25" xlink:href="#ArialMT-74"/>
      <use x="174.033203" xlink:href="#ArialMT-74"/>
      <use x="201.816406" xlink:href="#ArialMT-73"/>
      <use x="251.816406" xlink:href="#ArialMT-20"/>
      <use x="279.599609" xlink:href="#ArialMT-28"/>
      <use x="312.900391" xlink:href="#ArialMT-57"/>
      <use x="407.285156" xlink:href="#ArialMT-29"/>
     </g>
    </g>
   </g>
   <g id="line2d_11">
    <path clip-path="url(#p4b9eb86f93)" d="M 75.853011 175.167986 
L 77.230107 174.953549 
L 78.607202 173.895214 
L 79.984297 175.40533 
L 81.361392 175.488438 
L 82.738488 175.109251 
L 84.115583 175.711702 
L 85.492678 176.869687 
L 86.869774 174.370391 
L 88.246869 175.956585 
L 89.623964 175.093048 
L 91.001059 174.894085 
L 92.378155 176.200719 
L 93.75525 175.655747 
L 95.132345 175.691635 
L 96.509441 175.507802 
L 97.886536 175.058653 
L 100.640726 174.797266 
L 102.017822 173.916472 
L 103.394917 175.063005 
L 104.772012 175.155289 
L 106.149108 174.992412 
L 107.526203 176.674313 
L 108.903298 175.643559 
L 110.280393 176.851489 
L 111.657489 175.255335 
L 113.034584 176.150103 
L 114.411679 175.40488 
L 115.788775 175.932544 
L 117.16587 174.88432 
L 118.542965 175.742573 
L 119.92006 175.530525 
L 121.297156 174.779235 
L 122.674251 175.721466 
L 124.051346 175.67532 
L 125.428442 175.454213 
L 126.805537 175.442863 
L 128.182632 174.936017 
L 129.559727 175.035345 
L 130.936823 175.654203 
L 132.313918 175.866611 
L 133.691013 175.313111 
L 135.068109 174.899809 
L 136.445204 174.664682 
L 137.822299 175.570666 
L 139.199394 175.062553 
L 140.57649 176.232741 
L 141.953585 174.805208 
L 143.33068 175.595861 
L 144.707776 174.738156 
L 146.084871 175.395846 
L 147.461966 174.639984 
L 148.839061 176.08519 
L 150.216157 176.118755 
L 151.593252 174.899255 
L 154.347443 175.204829 
L 155.724538 174.192381 
L 157.101633 175.99701 
L 158.478728 175.063221 
L 159.855824 176.107001 
L 162.610014 175.190556 
L 163.98711 175.682373 
L 165.364205 174.608911 
L 166.7413 175.246165 
L 168.118395 174.952053 
L 169.495491 175.808139 
L 170.872586 175.955116 
L 172.249681 174.849666 
L 173.626777 175.63838 
L 175.003872 172.505966 
L 176.380967 176.707281 
L 177.758062 173.9248 
L 179.135158 175.42254 
L 180.512253 175.592668 
L 181.889348 174.805678 
L 183.266444 172.815014 
L 184.643539 173.677691 
L 186.020634 172.48831 
L 187.397729 172.568981 
L 188.774825 172.003973 
L 190.15192 172.772007 
L 191.529015 172.963716 
L 192.906111 169.955453 
L 194.283206 171.778539 
L 195.660301 171.216774 
L 197.037396 172.361544 
L 198.414492 172.886795 
L 199.791587 170.750101 
L 201.168682 172.268636 
L 202.545778 172.846928 
L 203.922873 174.443678 
L 205.299968 173.79097 
L 206.677063 174.091655 
L 208.054159 173.487522 
L 209.431254 173.398673 
L 210.808349 174.812095 
L 212.185445 172.665506 
L 213.56254 169.456633 
L 214.939635 29.313437 
L 216.31673 114.395511 
L 217.693826 144.102779 
L 219.070921 141.16477 
L 220.448016 153.045658 
L 221.825112 157.615012 
L 223.202207 150.585147 
L 224.579302 138.303979 
L 225.956397 135.040407 
L 227.333493 139.521998 
L 228.710588 143.278517 
L 230.087683 143.26643 
L 231.464779 140.96135 
L 232.841874 141.776664 
L 234.218969 141.053641 
L 235.596064 141.367404 
L 236.97316 141.068973 
L 238.350255 141.375159 
L 239.72735 142.142091 
L 241.104446 141.660421 
L 242.481541 140.771456 
L 243.858636 140.146646 
L 245.235731 141.486075 
L 246.612827 141.24927 
L 247.989922 141.888637 
L 249.367017 141.558248 
L 250.744113 141.482864 
L 252.121208 141.717479 
L 253.498303 141.303818 
L 254.875398 141.40801 
L 256.252494 141.065638 
L 257.629589 141.891155 
L 259.006684 141.970828 
L 260.38378 142.37777 
L 261.760875 143.186447 
L 263.13797 143.055211 
L 264.515065 141.500678 
L 265.892161 141.676501 
L 267.269256 141.350187 
L 268.646351 142.094745 
L 271.400542 141.437079 
L 274.154732 141.730098 
L 275.531828 140.994875 
L 278.286018 141.787405 
L 279.663114 141.481516 
L 281.040209 141.588844 
L 282.417304 141.856292 
L 283.794399 140.82326 
L 285.171495 140.660287 
L 286.54859 141.908442 
L 287.925685 141.692742 
L 289.302781 141.166614 
L 292.056971 141.351667 
L 293.434066 142.603819 
L 294.811162 141.664006 
L 296.188257 141.888133 
L 297.565352 141.520673 
L 298.942448 143.113306 
L 300.319543 141.833983 
L 301.696638 140.966576 
L 303.073733 141.207011 
L 304.450829 140.470313 
L 305.827924 142.26954 
L 307.205019 142.155273 
L 308.582115 141.00704 
L 309.95921 141.708477 
L 311.336305 140.273447 
L 312.7134 142.408645 
L 314.090496 141.511577 
L 315.467591 141.812899 
L 316.844686 141.978567 
L 318.221782 143.203507 
L 319.598877 141.201121 
L 320.975972 142.227439 
L 322.353067 142.548563 
L 323.730163 141.548858 
L 325.107258 142.625668 
L 326.484353 141.572154 
L 329.238544 142.227524 
L 331.992734 142.223928 
L 333.36983 143.091193 
L 334.746925 141.463785 
L 336.12402 140.859286 
L 337.501116 141.09324 
L 338.878211 142.224594 
L 338.878211 142.224594 
" style="fill:none;stroke:#4c72b0;stroke-linecap:round;stroke-width:1.5;"/>
   </g>
   <g id="patch_3">
    <path d="M 62.701751 184.2475 
L 62.701751 21.935625 
" style="fill:none;stroke:#ffffff;stroke-linecap:square;stroke-linejoin:miter;stroke-width:1.25;"/>
   </g>
   <g id="patch_4">
    <path d="M 352.029471 184.2475 
L 352.029471 21.935625 
" style="fill:none;stroke:#ffffff;stroke-linecap:square;stroke-linejoin:miter;stroke-width:1.25;"/>
   </g>
   <g id="patch_5">
    <path d="M 62.701751 184.2475 
L 352.029471 184.2475 
" style="fill:none;stroke:#ffffff;stroke-linecap:square;stroke-linejoin:miter;stroke-width:1.25;"/>
   </g>
   <g id="patch_6">
    <path d="M 62.701751 21.935625 
L 352.029471 21.935625 
" style="fill:none;stroke:#ffffff;stroke-linecap:square;stroke-linejoin:miter;stroke-width:1.25;"/>
   </g>
   <g id="text_12">
    <!-- Active Power P -->
    <g style="fill:#262626;" transform="translate(166.684674 15.935625)scale(0.12 -0.12)">
     <defs>
      <path d="M -9 0 
L 1750 4581 
L 2403 4581 
L 4278 0 
L 3588 0 
L 3053 1388 
L 1138 1388 
L 634 0 
L -9 0 
z
M 1313 1881 
L 2866 1881 
L 2388 3150 
Q 2169 3728 2063 4100 
Q 1975 3659 1816 3225 
L 1313 1881 
z
" id="ArialMT-41" transform="scale(0.015625)"/>
      <path d="M 2588 1216 
L 3141 1144 
Q 3050 572 2676 248 
Q 2303 -75 1759 -75 
Q 1078 -75 664 370 
Q 250 816 250 1647 
Q 250 2184 428 2587 
Q 606 2991 970 3192 
Q 1334 3394 1763 3394 
Q 2303 3394 2647 3120 
Q 2991 2847 3088 2344 
L 2541 2259 
Q 2463 2594 2264 2762 
Q 2066 2931 1784 2931 
Q 1359 2931 1093 2626 
Q 828 2322 828 1663 
Q 828 994 1084 691 
Q 1341 388 1753 388 
Q 2084 388 2306 591 
Q 2528 794 2588 1216 
z
" id="ArialMT-63" transform="scale(0.015625)"/>
      <path d="M 425 3934 
L 425 4581 
L 988 4581 
L 988 3934 
L 425 3934 
z
M 425 0 
L 425 3319 
L 988 3319 
L 988 0 
L 425 0 
z
" id="ArialMT-69" transform="scale(0.015625)"/>
      <path d="M 1344 0 
L 81 3319 
L 675 3319 
L 1388 1331 
Q 1503 1009 1600 663 
Q 1675 925 1809 1294 
L 2547 3319 
L 3125 3319 
L 1869 0 
L 1344 0 
z
" id="ArialMT-76" transform="scale(0.015625)"/>
      <path d="M 2694 1069 
L 3275 997 
Q 3138 488 2766 206 
Q 2394 -75 1816 -75 
Q 1088 -75 661 373 
Q 234 822 234 1631 
Q 234 2469 665 2931 
Q 1097 3394 1784 3394 
Q 2450 3394 2872 2941 
Q 3294 2488 3294 1666 
Q 3294 1616 3291 1516 
L 816 1516 
Q 847 969 1125 678 
Q 1403 388 1819 388 
Q 2128 388 2347 550 
Q 2566 713 2694 1069 
z
M 847 1978 
L 2700 1978 
Q 2663 2397 2488 2606 
Q 2219 2931 1791 2931 
Q 1403 2931 1139 2672 
Q 875 2413 847 1978 
z
" id="ArialMT-65" transform="scale(0.015625)"/>
      <path d="M 494 0 
L 494 4581 
L 2222 4581 
Q 2678 4581 2919 4538 
Q 3256 4481 3484 4323 
Q 3713 4166 3852 3881 
Q 3991 3597 3991 3256 
Q 3991 2672 3619 2267 
Q 3247 1863 2275 1863 
L 1100 1863 
L 1100 0 
L 494 0 
z
M 1100 2403 
L 2284 2403 
Q 2872 2403 3119 2622 
Q 3366 2841 3366 3238 
Q 3366 3525 3220 3729 
Q 3075 3934 2838 4000 
Q 2684 4041 2272 4041 
L 1100 4041 
L 1100 2403 
z
" id="ArialMT-50" transform="scale(0.015625)"/>
      <path d="M 213 1659 
Q 213 2581 725 3025 
Q 1153 3394 1769 3394 
Q 2453 3394 2887 2945 
Q 3322 2497 3322 1706 
Q 3322 1066 3130 698 
Q 2938 331 2570 128 
Q 2203 -75 1769 -75 
Q 1072 -75 642 372 
Q 213 819 213 1659 
z
M 791 1659 
Q 791 1022 1069 705 
Q 1347 388 1769 388 
Q 2188 388 2466 706 
Q 2744 1025 2744 1678 
Q 2744 2294 2464 2611 
Q 2184 2928 1769 2928 
Q 1347 2928 1069 2612 
Q 791 2297 791 1659 
z
" id="ArialMT-6f" transform="scale(0.015625)"/>
      <path d="M 1034 0 
L 19 3319 
L 600 3319 
L 1128 1403 
L 1325 691 
Q 1338 744 1497 1375 
L 2025 3319 
L 2603 3319 
L 3100 1394 
L 3266 759 
L 3456 1400 
L 4025 3319 
L 4572 3319 
L 3534 0 
L 2950 0 
L 2422 1988 
L 2294 2553 
L 1622 0 
L 1034 0 
z
" id="ArialMT-77" transform="scale(0.015625)"/>
      <path d="M 416 0 
L 416 3319 
L 922 3319 
L 922 2816 
Q 1116 3169 1280 3281 
Q 1444 3394 1641 3394 
Q 1925 3394 2219 3213 
L 2025 2691 
Q 1819 2813 1613 2813 
Q 1428 2813 1281 2702 
Q 1134 2591 1072 2394 
Q 978 2094 978 1738 
L 978 0 
L 416 0 
z
" id="ArialMT-72" transform="scale(0.015625)"/>
     </defs>
     <use xlink:href="#ArialMT-41"/>
     <use x="66.699219" xlink:href="#ArialMT-63"/>
     <use x="116.699219" xlink:href="#ArialMT-74"/>
     <use x="144.482422" xlink:href="#ArialMT-69"/>
     <use x="166.699219" xlink:href="#ArialMT-76"/>
     <use x="216.699219" xlink:href="#ArialMT-65"/>
     <use x="272.314453" xlink:href="#ArialMT-20"/>
     <use x="300.097656" xlink:href="#ArialMT-50"/>
     <use x="366.796875" xlink:href="#ArialMT-6f"/>
     <use x="422.412109" xlink:href="#ArialMT-77"/>
     <use x="494.628906" xlink:href="#ArialMT-65"/>
     <use x="550.244141" xlink:href="#ArialMT-72"/>
     <use x="583.544922" xlink:href="#ArialMT-20"/>
     <use x="611.328125" xlink:href="#ArialMT-50"/>
    </g>
   </g>
  </g>
  <g id="axes_2">
   <g id="patch_7">
    <path d="M 416.221751 184.2475 
L 705.549471 184.2475 
L 705.549471 21.935625 
L 416.221751 21.935625 
z
" style="fill:#eaeaf2;"/>
   </g>
   <g id="matplotlib.axis_3">
    <g id="xtick_6">
     <g id="line2d_12">
      <path clip-path="url(#p55eefc2e94)" d="M 429.373011 184.2475 
L 429.373011 21.935625 
" style="fill:none;stroke:#ffffff;stroke-linecap:round;"/>
     </g>
     <g id="text_13">
      <!-- 0 -->
      <g style="fill:#262626;" transform="translate(426.314496 201.621094)scale(0.11 -0.11)">
       <use xlink:href="#ArialMT-30"/>
      </g>
     </g>
    </g>
    <g id="xtick_7">
     <g id="line2d_13">
      <path clip-path="url(#p55eefc2e94)" d="M 498.227776 184.2475 
L 498.227776 21.935625 
" style="fill:none;stroke:#ffffff;stroke-linecap:round;"/>
     </g>
     <g id="text_14">
      <!-- 50 -->
      <g style="fill:#262626;" transform="translate(492.110744 201.621094)scale(0.11 -0.11)">
       <use xlink:href="#ArialMT-35"/>
       <use x="55.615234" xlink:href="#ArialMT-30"/>
      </g>
     </g>
    </g>
    <g id="xtick_8">
     <g id="line2d_14">
      <path clip-path="url(#p55eefc2e94)" d="M 567.08254 184.2475 
L 567.08254 21.935625 
" style="fill:none;stroke:#ffffff;stroke-linecap:round;"/>
     </g>
     <g id="text_15">
      <!-- 100 -->
      <g style="fill:#262626;" transform="translate(557.906993 201.621094)scale(0.11 -0.11)">
       <use xlink:href="#ArialMT-31"/>
       <use x="55.615234" xlink:href="#ArialMT-30"/>
       <use x="111.230469" xlink:href="#ArialMT-30"/>
      </g>
     </g>
    </g>
    <g id="xtick_9">
     <g id="line2d_15">
      <path clip-path="url(#p55eefc2e94)" d="M 635.937304 184.2475 
L 635.937304 21.935625 
" style="fill:none;stroke:#ffffff;stroke-linecap:round;"/>
     </g>
     <g id="text_16">
      <!-- 150 -->
      <g style="fill:#262626;" transform="translate(626.761757 201.621094)scale(0.11 -0.11)">
       <use xlink:href="#ArialMT-31"/>
       <use x="55.615234" xlink:href="#ArialMT-35"/>
       <use x="111.230469" xlink:href="#ArialMT-30"/>
      </g>
     </g>
    </g>
    <g id="xtick_10">
     <g id="line2d_16">
      <path clip-path="url(#p55eefc2e94)" d="M 704.792068 184.2475 
L 704.792068 21.935625 
" style="fill:none;stroke:#ffffff;stroke-linecap:round;"/>
     </g>
     <g id="text_17">
      <!-- 200 -->
      <g style="fill:#262626;" transform="translate(695.616522 201.621094)scale(0.11 -0.11)">
       <use xlink:href="#ArialMT-32"/>
       <use x="55.615234" xlink:href="#ArialMT-30"/>
       <use x="111.230469" xlink:href="#ArialMT-30"/>
      </g>
     </g>
    </g>
   </g>
   <g id="matplotlib.axis_4">
    <g id="ytick_6">
     <g id="line2d_17">
      <path clip-path="url(#p55eefc2e94)" d="M 416.221751 179.456987 
L 705.549471 179.456987 
" style="fill:none;stroke:#ffffff;stroke-linecap:round;"/>
     </g>
     <g id="text_18">
      <!-- 0 -->
      <g style="fill:#262626;" transform="translate(400.60472 183.393784)scale(0.11 -0.11)">
       <use xlink:href="#ArialMT-30"/>
      </g>
     </g>
    </g>
    <g id="ytick_7">
     <g id="line2d_18">
      <path clip-path="url(#p55eefc2e94)" d="M 416.221751 145.748839 
L 705.549471 145.748839 
" style="fill:none;stroke:#ffffff;stroke-linecap:round;"/>
     </g>
     <g id="text_19">
      <!-- 50 -->
      <g style="fill:#262626;" transform="translate(394.487689 149.685636)scale(0.11 -0.11)">
       <use xlink:href="#ArialMT-35"/>
       <use x="55.615234" xlink:href="#ArialMT-30"/>
      </g>
     </g>
    </g>
    <g id="ytick_8">
     <g id="line2d_19">
      <path clip-path="url(#p55eefc2e94)" d="M 416.221751 112.04069 
L 705.549471 112.04069 
" style="fill:none;stroke:#ffffff;stroke-linecap:round;"/>
     </g>
     <g id="text_20">
      <!-- 100 -->
      <g style="fill:#262626;" transform="translate(388.370658 115.977487)scale(0.11 -0.11)">
       <use xlink:href="#ArialMT-31"/>
       <use x="55.615234" xlink:href="#ArialMT-30"/>
       <use x="111.230469" xlink:href="#ArialMT-30"/>
      </g>
     </g>
    </g>
    <g id="ytick_9">
     <g id="line2d_20">
      <path clip-path="url(#p55eefc2e94)" d="M 416.221751 78.332542 
L 705.549471 78.332542 
" style="fill:none;stroke:#ffffff;stroke-linecap:round;"/>
     </g>
     <g id="text_21">
      <!-- 150 -->
      <g style="fill:#262626;" transform="translate(388.370658 82.269338)scale(0.11 -0.11)">
       <use xlink:href="#ArialMT-31"/>
       <use x="55.615234" xlink:href="#ArialMT-35"/>
       <use x="111.230469" xlink:href="#ArialMT-30"/>
      </g>
     </g>
    </g>
    <g id="ytick_10">
     <g id="line2d_21">
      <path clip-path="url(#p55eefc2e94)" d="M 416.221751 44.624393 
L 705.549471 44.624393 
" style="fill:none;stroke:#ffffff;stroke-linecap:round;"/>
     </g>
     <g id="text_22">
      <!-- 200 -->
      <g style="fill:#262626;" transform="translate(388.370658 48.56119)scale(0.11 -0.11)">
       <use xlink:href="#ArialMT-32"/>
       <use x="55.615234" xlink:href="#ArialMT-30"/>
       <use x="111.230469" xlink:href="#ArialMT-30"/>
      </g>
     </g>
    </g>
    <g id="text_23">
     <!-- Volt-Ampere (VA) -->
     <g style="fill:#262626;" transform="translate(381.845033 149.33)rotate(-90)scale(0.12 -0.12)">
      <defs>
       <path d="M 1803 0 
L 28 4581 
L 684 4581 
L 1875 1253 
Q 2019 853 2116 503 
Q 2222 878 2363 1253 
L 3600 4581 
L 4219 4581 
L 2425 0 
L 1803 0 
z
" id="ArialMT-56" transform="scale(0.015625)"/>
       <path d="M 409 0 
L 409 4581 
L 972 4581 
L 972 0 
L 409 0 
z
" id="ArialMT-6c" transform="scale(0.015625)"/>
       <path d="M 203 1375 
L 203 1941 
L 1931 1941 
L 1931 1375 
L 203 1375 
z
" id="ArialMT-2d" transform="scale(0.015625)"/>
       <path d="M 422 0 
L 422 3319 
L 925 3319 
L 925 2853 
Q 1081 3097 1340 3245 
Q 1600 3394 1931 3394 
Q 2300 3394 2536 3241 
Q 2772 3088 2869 2813 
Q 3263 3394 3894 3394 
Q 4388 3394 4653 3120 
Q 4919 2847 4919 2278 
L 4919 0 
L 4359 0 
L 4359 2091 
Q 4359 2428 4304 2576 
Q 4250 2725 4106 2815 
Q 3963 2906 3769 2906 
Q 3419 2906 3187 2673 
Q 2956 2441 2956 1928 
L 2956 0 
L 2394 0 
L 2394 2156 
Q 2394 2531 2256 2718 
Q 2119 2906 1806 2906 
Q 1569 2906 1367 2781 
Q 1166 2656 1075 2415 
Q 984 2175 984 1722 
L 984 0 
L 422 0 
z
" id="ArialMT-6d" transform="scale(0.015625)"/>
       <path d="M 422 -1272 
L 422 3319 
L 934 3319 
L 934 2888 
Q 1116 3141 1344 3267 
Q 1572 3394 1897 3394 
Q 2322 3394 2647 3175 
Q 2972 2956 3137 2557 
Q 3303 2159 3303 1684 
Q 3303 1175 3120 767 
Q 2938 359 2589 142 
Q 2241 -75 1856 -75 
Q 1575 -75 1351 44 
Q 1128 163 984 344 
L 984 -1272 
L 422 -1272 
z
M 931 1641 
Q 931 1000 1190 694 
Q 1450 388 1819 388 
Q 2194 388 2461 705 
Q 2728 1022 2728 1688 
Q 2728 2322 2467 2637 
Q 2206 2953 1844 2953 
Q 1484 2953 1207 2617 
Q 931 2281 931 1641 
z
" id="ArialMT-70" transform="scale(0.015625)"/>
      </defs>
      <use xlink:href="#ArialMT-56"/>
      <use x="61.199219" xlink:href="#ArialMT-6f"/>
      <use x="116.814453" xlink:href="#ArialMT-6c"/>
      <use x="139.03125" xlink:href="#ArialMT-74"/>
      <use x="166.814453" xlink:href="#ArialMT-2d"/>
      <use x="200.115234" xlink:href="#ArialMT-41"/>
      <use x="266.814453" xlink:href="#ArialMT-6d"/>
      <use x="350.115234" xlink:href="#ArialMT-70"/>
      <use x="405.730469" xlink:href="#ArialMT-65"/>
      <use x="461.345703" xlink:href="#ArialMT-72"/>
      <use x="494.646484" xlink:href="#ArialMT-65"/>
      <use x="550.261719" xlink:href="#ArialMT-20"/>
      <use x="578.044922" xlink:href="#ArialMT-28"/>
      <use x="611.345703" xlink:href="#ArialMT-56"/>
      <use x="670.669922" xlink:href="#ArialMT-41"/>
      <use x="737.369141" xlink:href="#ArialMT-29"/>
     </g>
    </g>
   </g>
   <g id="line2d_22">
    <path clip-path="url(#p55eefc2e94)" d="M 429.373011 175.766742 
L 430.750107 174.978791 
L 432.127202 174.416842 
L 433.504297 175.509044 
L 434.881392 176.158546 
L 436.258488 175.782151 
L 437.635583 175.734971 
L 439.012678 176.007272 
L 440.389774 175.92097 
L 441.766869 175.269374 
L 443.143964 175.599901 
L 444.521059 175.110734 
L 445.898155 176.37951 
L 447.27525 175.941275 
L 448.652345 176.272379 
L 450.029441 176.189287 
L 451.406536 175.558472 
L 452.783631 175.545954 
L 454.160726 175.101856 
L 455.537822 174.470071 
L 456.914917 175.140799 
L 458.292012 175.667608 
L 459.669108 174.814304 
L 461.046203 175.938476 
L 462.423298 175.869282 
L 463.800393 176.869687 
L 465.177489 175.956687 
L 466.554584 176.068063 
L 467.931679 175.548018 
L 470.68587 175.184164 
L 472.062965 175.824182 
L 474.817156 174.72282 
L 476.194251 175.773911 
L 477.571346 175.641082 
L 478.948442 176.429806 
L 480.325537 175.524401 
L 483.079727 175.774397 
L 484.456823 176.754263 
L 485.833918 175.554768 
L 488.588109 176.275702 
L 489.965204 175.132635 
L 491.342299 176.066345 
L 492.719394 175.978445 
L 494.09649 176.44853 
L 495.473585 175.27845 
L 496.85068 176.085039 
L 498.227776 175.358269 
L 499.604871 176.420494 
L 500.981966 175.361434 
L 502.359061 175.90461 
L 503.736157 176.018671 
L 505.113252 175.101466 
L 506.490347 175.53192 
L 507.867443 175.218268 
L 509.244538 175.274382 
L 510.621633 176.156888 
L 511.998728 175.254663 
L 513.375824 176.282519 
L 514.752919 175.857473 
L 516.130014 175.156568 
L 517.50711 175.702656 
L 518.884205 176.094739 
L 521.638395 175.606964 
L 523.015491 176.018246 
L 524.392586 175.534977 
L 525.769681 175.720316 
L 527.146777 175.252395 
L 528.523872 171.670447 
L 529.900967 176.044807 
L 531.278062 174.367962 
L 534.032253 174.315944 
L 535.409348 175.081601 
L 536.786444 171.205426 
L 538.163539 173.139484 
L 539.540634 173.662025 
L 540.917729 172.59201 
L 542.294825 171.196347 
L 543.67192 172.446012 
L 545.049015 172.579046 
L 546.426111 169.156721 
L 547.803206 171.641103 
L 549.180301 169.544454 
L 550.557396 171.616841 
L 551.934492 172.545977 
L 553.311587 169.580011 
L 554.688682 171.222855 
L 556.065778 170.68203 
L 557.442873 173.607291 
L 558.819968 173.071869 
L 560.197063 173.948342 
L 561.574159 172.739457 
L 562.951254 173.361376 
L 564.328349 174.336159 
L 565.705445 172.763752 
L 567.08254 167.029137 
L 568.459635 29.313437 
L 569.83673 91.355873 
L 571.213826 134.393653 
L 572.590921 138.619693 
L 573.968016 153.446886 
L 575.345112 158.50397 
L 576.722207 151.442273 
L 578.099302 139.169192 
L 579.476397 135.706957 
L 580.853493 140.459916 
L 582.230588 144.544043 
L 583.607683 144.147889 
L 584.984779 141.749789 
L 586.361874 142.421229 
L 587.738969 142.000998 
L 589.116064 142.620746 
L 590.49316 142.070458 
L 591.870255 142.459445 
L 593.24735 143.217006 
L 594.624446 142.756145 
L 596.001541 141.792606 
L 597.378636 141.065954 
L 598.755731 142.163218 
L 600.132827 142.145632 
L 601.509922 142.50149 
L 604.264113 142.323946 
L 605.641208 142.557492 
L 607.018303 142.263932 
L 608.395398 142.568494 
L 609.772494 142.125228 
L 612.526684 143.01249 
L 613.90378 143.258092 
L 615.280875 144.128357 
L 616.65797 143.966986 
L 618.035065 142.363064 
L 619.412161 142.685988 
L 620.789256 142.474518 
L 622.166351 143.177031 
L 623.543447 142.570662 
L 624.920542 142.47003 
L 626.297637 142.692865 
L 627.674732 142.579704 
L 629.051828 141.770448 
L 630.428923 142.057378 
L 631.806018 142.787026 
L 633.183114 142.339962 
L 634.560209 142.406323 
L 635.937304 142.855 
L 637.314399 141.897854 
L 638.691495 141.624796 
L 640.06859 142.642685 
L 641.445685 142.65252 
L 642.822781 142.248285 
L 644.199876 142.161258 
L 645.576971 142.223831 
L 646.954066 143.402983 
L 648.331162 142.420054 
L 649.708257 142.579089 
L 651.085352 142.20973 
L 652.462448 143.916269 
L 653.839543 142.693009 
L 655.216638 142.023218 
L 656.593733 142.124961 
L 657.970829 141.481121 
L 659.347924 143.135789 
L 660.725019 142.953317 
L 662.102115 141.8944 
L 663.47921 142.809135 
L 664.856305 141.071494 
L 666.2334 143.263537 
L 667.610496 142.457495 
L 670.364686 142.750083 
L 671.741782 144.13276 
L 673.118877 141.945498 
L 674.495972 143.148642 
L 675.873067 143.464332 
L 677.250163 142.523293 
L 678.627258 143.56043 
L 680.004353 142.427226 
L 681.381449 142.699024 
L 682.758544 143.121431 
L 684.135639 143.023705 
L 685.512734 143.135562 
L 686.88983 143.942048 
L 688.266925 142.589389 
L 689.64402 141.708665 
L 691.021116 142.124817 
L 692.398211 142.971134 
L 692.398211 142.971134 
" style="fill:none;stroke:#4c72b0;stroke-linecap:round;stroke-width:1.5;"/>
   </g>
   <g id="patch_8">
    <path d="M 416.221751 184.2475 
L 416.221751 21.935625 
" style="fill:none;stroke:#ffffff;stroke-linecap:square;stroke-linejoin:miter;stroke-width:1.25;"/>
   </g>
   <g id="patch_9">
    <path d="M 705.549471 184.2475 
L 705.549471 21.935625 
" style="fill:none;stroke:#ffffff;stroke-linecap:square;stroke-linejoin:miter;stroke-width:1.25;"/>
   </g>
   <g id="patch_10">
    <path d="M 416.221751 184.2475 
L 705.549471 184.2475 
" style="fill:none;stroke:#ffffff;stroke-linecap:square;stroke-linejoin:miter;stroke-width:1.25;"/>
   </g>
   <g id="patch_11">
    <path d="M 416.221751 21.935625 
L 705.549471 21.935625 
" style="fill:none;stroke:#ffffff;stroke-linecap:square;stroke-linejoin:miter;stroke-width:1.25;"/>
   </g>
   <g id="text_24">
    <!-- Apparent Power S -->
    <g style="fill:#262626;" transform="translate(512.193736 15.935625)scale(0.12 -0.12)">
     <defs>
      <path d="M 422 0 
L 422 3319 
L 928 3319 
L 928 2847 
Q 1294 3394 1984 3394 
Q 2284 3394 2536 3286 
Q 2788 3178 2913 3003 
Q 3038 2828 3088 2588 
Q 3119 2431 3119 2041 
L 3119 0 
L 2556 0 
L 2556 2019 
Q 2556 2363 2490 2533 
Q 2425 2703 2258 2804 
Q 2091 2906 1866 2906 
Q 1506 2906 1245 2678 
Q 984 2450 984 1813 
L 984 0 
L 422 0 
z
" id="ArialMT-6e" transform="scale(0.015625)"/>
      <path d="M 288 1472 
L 859 1522 
Q 900 1178 1048 958 
Q 1197 738 1509 602 
Q 1822 466 2213 466 
Q 2559 466 2825 569 
Q 3091 672 3220 851 
Q 3350 1031 3350 1244 
Q 3350 1459 3225 1620 
Q 3100 1781 2813 1891 
Q 2628 1963 1997 2114 
Q 1366 2266 1113 2400 
Q 784 2572 623 2826 
Q 463 3081 463 3397 
Q 463 3744 659 4045 
Q 856 4347 1234 4503 
Q 1613 4659 2075 4659 
Q 2584 4659 2973 4495 
Q 3363 4331 3572 4012 
Q 3781 3694 3797 3291 
L 3216 3247 
Q 3169 3681 2898 3903 
Q 2628 4125 2100 4125 
Q 1550 4125 1298 3923 
Q 1047 3722 1047 3438 
Q 1047 3191 1225 3031 
Q 1400 2872 2139 2705 
Q 2878 2538 3153 2413 
Q 3553 2228 3743 1945 
Q 3934 1663 3934 1294 
Q 3934 928 3725 604 
Q 3516 281 3123 101 
Q 2731 -78 2241 -78 
Q 1619 -78 1198 103 
Q 778 284 539 648 
Q 300 1013 288 1472 
z
" id="ArialMT-53" transform="scale(0.015625)"/>
     </defs>
     <use xlink:href="#ArialMT-41"/>
     <use x="66.699219" xlink:href="#ArialMT-70"/>
     <use x="122.314453" xlink:href="#ArialMT-70"/>
     <use x="177.929688" xlink:href="#ArialMT-61"/>
     <use x="233.544922" xlink:href="#ArialMT-72"/>
     <use x="266.845703" xlink:href="#ArialMT-65"/>
     <use x="322.460938" xlink:href="#ArialMT-6e"/>
     <use x="378.076172" xlink:href="#ArialMT-74"/>
     <use x="405.859375" xlink:href="#ArialMT-20"/>
     <use x="433.642578" xlink:href="#ArialMT-50"/>
     <use x="500.341797" xlink:href="#ArialMT-6f"/>
     <use x="555.957031" xlink:href="#ArialMT-77"/>
     <use x="628.173828" xlink:href="#ArialMT-65"/>
     <use x="683.789062" xlink:href="#ArialMT-72"/>
     <use x="717.089844" xlink:href="#ArialMT-20"/>
     <use x="744.873047" xlink:href="#ArialMT-53"/>
    </g>
   </g>
  </g>
  <g id="axes_3">
   <g id="patch_12">
    <path d="M 62.701751 393.739375 
L 352.029471 393.739375 
L 352.029471 231.4275 
L 62.701751 231.4275 
z
" style="fill:#eaeaf2;"/>
   </g>
   <g id="matplotlib.axis_5">
    <g id="xtick_11">
     <g id="line2d_23">
      <path clip-path="url(#pcf050ebf24)" d="M 75.853011 393.739375 
L 75.853011 231.4275 
" style="fill:none;stroke:#ffffff;stroke-linecap:round;"/>
     </g>
     <g id="text_25">
      <!-- 0 -->
      <g style="fill:#262626;" transform="translate(72.794496 411.112969)scale(0.11 -0.11)">
       <use xlink:href="#ArialMT-30"/>
      </g>
     </g>
    </g>
    <g id="xtick_12">
     <g id="line2d_24">
      <path clip-path="url(#pcf050ebf24)" d="M 144.707776 393.739375 
L 144.707776 231.4275 
" style="fill:none;stroke:#ffffff;stroke-linecap:round;"/>
     </g>
     <g id="text_26">
      <!-- 50 -->
      <g style="fill:#262626;" transform="translate(138.590744 411.112969)scale(0.11 -0.11)">
       <use xlink:href="#ArialMT-35"/>
       <use x="55.615234" xlink:href="#ArialMT-30"/>
      </g>
     </g>
    </g>
    <g id="xtick_13">
     <g id="line2d_25">
      <path clip-path="url(#pcf050ebf24)" d="M 213.56254 393.739375 
L 213.56254 231.4275 
" style="fill:none;stroke:#ffffff;stroke-linecap:round;"/>
     </g>
     <g id="text_27">
      <!-- 100 -->
      <g style="fill:#262626;" transform="translate(204.386993 411.112969)scale(0.11 -0.11)">
       <use xlink:href="#ArialMT-31"/>
       <use x="55.615234" xlink:href="#ArialMT-30"/>
       <use x="111.230469" xlink:href="#ArialMT-30"/>
      </g>
     </g>
    </g>
    <g id="xtick_14">
     <g id="line2d_26">
      <path clip-path="url(#pcf050ebf24)" d="M 282.417304 393.739375 
L 282.417304 231.4275 
" style="fill:none;stroke:#ffffff;stroke-linecap:round;"/>
     </g>
     <g id="text_28">
      <!-- 150 -->
      <g style="fill:#262626;" transform="translate(273.241757 411.112969)scale(0.11 -0.11)">
       <use xlink:href="#ArialMT-31"/>
       <use x="55.615234" xlink:href="#ArialMT-35"/>
       <use x="111.230469" xlink:href="#ArialMT-30"/>
      </g>
     </g>
    </g>
    <g id="xtick_15">
     <g id="line2d_27">
      <path clip-path="url(#pcf050ebf24)" d="M 351.272068 393.739375 
L 351.272068 231.4275 
" style="fill:none;stroke:#ffffff;stroke-linecap:round;"/>
     </g>
     <g id="text_29">
      <!-- 200 -->
      <g style="fill:#262626;" transform="translate(342.096522 411.112969)scale(0.11 -0.11)">
       <use xlink:href="#ArialMT-32"/>
       <use x="55.615234" xlink:href="#ArialMT-30"/>
       <use x="111.230469" xlink:href="#ArialMT-30"/>
      </g>
     </g>
    </g>
   </g>
   <g id="matplotlib.axis_6">
    <g id="ytick_11">
     <g id="line2d_28">
      <path clip-path="url(#pcf050ebf24)" d="M 62.701751 390.947933 
L 352.029471 390.947933 
" style="fill:none;stroke:#ffffff;stroke-linecap:round;"/>
     </g>
     <g id="text_30">
      <!-- 0 -->
      <g style="fill:#262626;" transform="translate(47.08472 394.88473)scale(0.11 -0.11)">
       <use xlink:href="#ArialMT-30"/>
      </g>
     </g>
    </g>
    <g id="ytick_12">
     <g id="line2d_29">
      <path clip-path="url(#pcf050ebf24)" d="M 62.701751 357.796691 
L 352.029471 357.796691 
" style="fill:none;stroke:#ffffff;stroke-linecap:round;"/>
     </g>
     <g id="text_31">
      <!-- 20 -->
      <g style="fill:#262626;" transform="translate(40.967689 361.733488)scale(0.11 -0.11)">
       <use xlink:href="#ArialMT-32"/>
       <use x="55.615234" xlink:href="#ArialMT-30"/>
      </g>
     </g>
    </g>
    <g id="ytick_13">
     <g id="line2d_30">
      <path clip-path="url(#pcf050ebf24)" d="M 62.701751 324.645448 
L 352.029471 324.645448 
" style="fill:none;stroke:#ffffff;stroke-linecap:round;"/>
     </g>
     <g id="text_32">
      <!-- 40 -->
      <g style="fill:#262626;" transform="translate(40.967689 328.582245)scale(0.11 -0.11)">
       <defs>
        <path d="M 2069 0 
L 2069 1097 
L 81 1097 
L 81 1613 
L 2172 4581 
L 2631 4581 
L 2631 1613 
L 3250 1613 
L 3250 1097 
L 2631 1097 
L 2631 0 
L 2069 0 
z
M 2069 1613 
L 2069 3678 
L 634 1613 
L 2069 1613 
z
" id="ArialMT-34" transform="scale(0.015625)"/>
       </defs>
       <use xlink:href="#ArialMT-34"/>
       <use x="55.615234" xlink:href="#ArialMT-30"/>
      </g>
     </g>
    </g>
    <g id="ytick_14">
     <g id="line2d_31">
      <path clip-path="url(#pcf050ebf24)" d="M 62.701751 291.494206 
L 352.029471 291.494206 
" style="fill:none;stroke:#ffffff;stroke-linecap:round;"/>
     </g>
     <g id="text_33">
      <!-- 60 -->
      <g style="fill:#262626;" transform="translate(40.967689 295.431003)scale(0.11 -0.11)">
       <defs>
        <path d="M 3184 3459 
L 2625 3416 
Q 2550 3747 2413 3897 
Q 2184 4138 1850 4138 
Q 1581 4138 1378 3988 
Q 1113 3794 959 3422 
Q 806 3050 800 2363 
Q 1003 2672 1297 2822 
Q 1591 2972 1913 2972 
Q 2475 2972 2870 2558 
Q 3266 2144 3266 1488 
Q 3266 1056 3080 686 
Q 2894 316 2569 119 
Q 2244 -78 1831 -78 
Q 1128 -78 684 439 
Q 241 956 241 2144 
Q 241 3472 731 4075 
Q 1159 4600 1884 4600 
Q 2425 4600 2770 4297 
Q 3116 3994 3184 3459 
z
M 888 1484 
Q 888 1194 1011 928 
Q 1134 663 1356 523 
Q 1578 384 1822 384 
Q 2178 384 2434 671 
Q 2691 959 2691 1453 
Q 2691 1928 2437 2201 
Q 2184 2475 1800 2475 
Q 1419 2475 1153 2201 
Q 888 1928 888 1484 
z
" id="ArialMT-36" transform="scale(0.015625)"/>
       </defs>
       <use xlink:href="#ArialMT-36"/>
       <use x="55.615234" xlink:href="#ArialMT-30"/>
      </g>
     </g>
    </g>
    <g id="ytick_15">
     <g id="line2d_32">
      <path clip-path="url(#pcf050ebf24)" d="M 62.701751 258.342964 
L 352.029471 258.342964 
" style="fill:none;stroke:#ffffff;stroke-linecap:round;"/>
     </g>
     <g id="text_34">
      <!-- 80 -->
      <g style="fill:#262626;" transform="translate(40.967689 262.27976)scale(0.11 -0.11)">
       <defs>
        <path d="M 1131 2484 
Q 781 2613 612 2850 
Q 444 3088 444 3419 
Q 444 3919 803 4259 
Q 1163 4600 1759 4600 
Q 2359 4600 2725 4251 
Q 3091 3903 3091 3403 
Q 3091 3084 2923 2848 
Q 2756 2613 2416 2484 
Q 2838 2347 3058 2040 
Q 3278 1734 3278 1309 
Q 3278 722 2862 322 
Q 2447 -78 1769 -78 
Q 1091 -78 675 323 
Q 259 725 259 1325 
Q 259 1772 486 2073 
Q 713 2375 1131 2484 
z
M 1019 3438 
Q 1019 3113 1228 2906 
Q 1438 2700 1772 2700 
Q 2097 2700 2305 2904 
Q 2513 3109 2513 3406 
Q 2513 3716 2298 3927 
Q 2084 4138 1766 4138 
Q 1444 4138 1231 3931 
Q 1019 3725 1019 3438 
z
M 838 1322 
Q 838 1081 952 856 
Q 1066 631 1291 507 
Q 1516 384 1775 384 
Q 2178 384 2440 643 
Q 2703 903 2703 1303 
Q 2703 1709 2433 1975 
Q 2163 2241 1756 2241 
Q 1359 2241 1098 1978 
Q 838 1716 838 1322 
z
" id="ArialMT-38" transform="scale(0.015625)"/>
       </defs>
       <use xlink:href="#ArialMT-38"/>
       <use x="55.615234" xlink:href="#ArialMT-30"/>
      </g>
     </g>
    </g>
    <g id="text_35">
     <!-- Volt-Amperes-Reactive(VAR) -->
     <g style="fill:#262626;" transform="translate(34.442064 389.82875)rotate(-90)scale(0.12 -0.12)">
      <defs>
       <path d="M 503 0 
L 503 4581 
L 2534 4581 
Q 3147 4581 3465 4457 
Q 3784 4334 3975 4021 
Q 4166 3709 4166 3331 
Q 4166 2844 3850 2509 
Q 3534 2175 2875 2084 
Q 3116 1969 3241 1856 
Q 3506 1613 3744 1247 
L 4541 0 
L 3778 0 
L 3172 953 
Q 2906 1366 2734 1584 
Q 2563 1803 2427 1890 
Q 2291 1978 2150 2013 
Q 2047 2034 1813 2034 
L 1109 2034 
L 1109 0 
L 503 0 
z
M 1109 2559 
L 2413 2559 
Q 2828 2559 3062 2645 
Q 3297 2731 3419 2920 
Q 3541 3109 3541 3331 
Q 3541 3656 3305 3865 
Q 3069 4075 2559 4075 
L 1109 4075 
L 1109 2559 
z
" id="ArialMT-52" transform="scale(0.015625)"/>
      </defs>
      <use xlink:href="#ArialMT-56"/>
      <use x="61.199219" xlink:href="#ArialMT-6f"/>
      <use x="116.814453" xlink:href="#ArialMT-6c"/>
      <use x="139.03125" xlink:href="#ArialMT-74"/>
      <use x="166.814453" xlink:href="#ArialMT-2d"/>
      <use x="200.115234" xlink:href="#ArialMT-41"/>
      <use x="266.814453" xlink:href="#ArialMT-6d"/>
      <use x="350.115234" xlink:href="#ArialMT-70"/>
      <use x="405.730469" xlink:href="#ArialMT-65"/>
      <use x="461.345703" xlink:href="#ArialMT-72"/>
      <use x="494.646484" xlink:href="#ArialMT-65"/>
      <use x="550.261719" xlink:href="#ArialMT-73"/>
      <use x="600.261719" xlink:href="#ArialMT-2d"/>
      <use x="633.5625" xlink:href="#ArialMT-52"/>
      <use x="705.779297" xlink:href="#ArialMT-65"/>
      <use x="761.394531" xlink:href="#ArialMT-61"/>
      <use x="817.009766" xlink:href="#ArialMT-63"/>
      <use x="867.009766" xlink:href="#ArialMT-74"/>
      <use x="894.792969" xlink:href="#ArialMT-69"/>
      <use x="917.009766" xlink:href="#ArialMT-76"/>
      <use x="967.009766" xlink:href="#ArialMT-65"/>
      <use x="1022.625" xlink:href="#ArialMT-28"/>
      <use x="1055.925781" xlink:href="#ArialMT-56"/>
      <use x="1115.25" xlink:href="#ArialMT-41"/>
      <use x="1181.949219" xlink:href="#ArialMT-52"/>
      <use x="1254.166016" xlink:href="#ArialMT-29"/>
     </g>
    </g>
   </g>
   <g id="line2d_33">
    <path clip-path="url(#pcf050ebf24)" d="M 75.853011 383.68161 
L 77.230107 381.688946 
L 78.607202 381.976778 
L 79.984297 382.541132 
L 81.361392 384.302991 
L 82.738488 383.83946 
L 84.115583 382.767799 
L 85.492678 382.56148 
L 86.869774 386.361562 
L 88.246869 381.266185 
L 89.623964 383.30695 
L 91.001059 382.176701 
L 92.378155 383.961503 
L 93.75525 383.414973 
L 95.132345 384.309306 
L 96.509441 384.362078 
L 97.886536 383.242474 
L 99.263631 383.446303 
L 100.640726 382.319362 
L 103.394917 381.990429 
L 104.772012 383.401862 
L 106.149108 381.153917 
L 107.526203 382.475101 
L 108.903298 383.228922 
L 110.280393 384.723476 
L 111.657489 384.105372 
L 113.034584 383.185877 
L 114.411679 382.652607 
L 115.788775 381.419612 
L 117.16587 382.414693 
L 118.542965 382.975326 
L 119.92006 381.671197 
L 121.297156 381.215654 
L 122.674251 382.862949 
L 124.051346 382.554227 
L 125.428442 385.203681 
L 126.805537 382.532123 
L 128.182632 383.936571 
L 129.559727 383.960471 
L 130.936823 385.834041 
L 132.313918 382.105556 
L 133.691013 383.908512 
L 135.068109 386.039464 
L 136.445204 382.66444 
L 137.822299 383.897079 
L 139.199394 384.564057 
L 140.57649 384.112711 
L 141.953585 382.849272 
L 143.33068 383.912656 
L 144.707776 383.234804 
L 146.084871 385.294175 
L 147.461966 383.453879 
L 148.839061 382.816497 
L 150.216157 383.085541 
L 151.593252 382.140187 
L 152.970347 383.079502 
L 154.347443 382.000259 
L 155.724538 384.271208 
L 157.101633 383.582693 
L 158.478728 382.323587 
L 159.855824 383.800195 
L 161.232919 383.121755 
L 162.610014 381.844568 
L 163.98711 382.71502 
L 165.364205 386.249873 
L 166.7413 383.893642 
L 168.118395 383.595426 
L 169.495491 383.42907 
L 170.872586 381.965168 
L 172.249681 384.179659 
L 173.626777 381.538698 
L 175.003872 375.990292 
L 176.380967 382.725447 
L 177.758062 381.744258 
L 179.135158 379.371107 
L 180.512253 379.09598 
L 181.889348 382.242652 
L 183.266444 374.026851 
L 184.643539 378.346474 
L 186.020634 383.254931 
L 187.397729 378.874427 
L 188.774825 375.493258 
L 190.15192 377.928997 
L 191.529015 377.95923 
L 192.906111 373.329731 
L 194.283206 377.502672 
L 195.660301 371.821345 
L 197.037396 376.10807 
L 198.414492 378.011565 
L 199.791587 372.899143 
L 201.168682 375.046411 
L 202.545778 372.456369 
L 203.922873 378.500969 
L 205.299968 377.949926 
L 206.677063 380.06916 
L 208.054159 377.470266 
L 209.431254 379.578012 
L 210.808349 380.049612 
L 212.185445 379.23422 
L 213.56254 367.351198 
L 214.939635 320.885058 
L 216.31673 238.805313 
L 217.693826 315.860541 
L 219.070921 343.830511 
L 220.448016 367.719601 
L 221.825112 373.296304 
L 223.202207 369.965416 
L 224.579302 365.261557 
L 225.956397 362.200314 
L 227.333493 366.397781 
L 228.710588 371.001437 
L 230.087683 367.260579 
L 231.464779 365.545419 
L 232.841874 364.607764 
L 234.218969 367.04442 
L 235.596064 370.234139 
L 236.97316 367.56791 
L 238.350255 368.48901 
L 239.72735 368.667019 
L 241.104446 368.703146 
L 242.481541 367.652541 
L 243.858636 366.447299 
L 245.235731 364.771023 
L 246.612827 366.638444 
L 247.989922 364.384597 
L 249.367017 366.261082 
L 250.744113 366.218719 
L 252.121208 366.2979 
L 253.498303 367.256726 
L 254.875398 369.271551 
L 256.252494 368.134877 
L 257.629589 364.727331 
L 259.006684 368.280934 
L 260.38378 366.913548 
L 261.760875 367.781351 
L 263.13797 367.455641 
L 264.515065 366.419512 
L 265.892161 367.863889 
L 267.269256 368.88252 
L 268.646351 368.72286 
L 270.023447 366.116438 
L 271.400542 368.005253 
L 272.777637 368.312088 
L 274.154732 366.389611 
L 275.531828 365.443052 
L 276.908923 364.782571 
L 278.286018 367.809207 
L 279.663114 366.376301 
L 281.040209 366.045695 
L 282.417304 367.825434 
L 283.794399 368.198683 
L 285.171495 367.064662 
L 286.54859 365.431928 
L 287.925685 367.3957 
L 289.302781 368.389742 
L 290.679876 366.920387 
L 292.056971 366.453214 
L 293.434066 366.272184 
L 294.811162 365.527852 
L 296.188257 365.048887 
L 297.565352 364.887452 
L 298.942448 366.503187 
L 300.319543 366.514467 
L 301.696638 368.070749 
L 303.073733 366.823917 
L 304.450829 367.444124 
L 307.205019 366.089089 
L 308.582115 366.464923 
L 309.95921 368.769268 
L 311.336305 365.370606 
L 312.7134 366.694774 
L 314.090496 367.198557 
L 315.467591 365.417448 
L 316.844686 365.786102 
L 318.221782 367.671338 
L 319.598877 365.24558 
L 320.975972 367.232474 
L 325.107258 367.506222 
L 326.484353 366.379672 
L 327.861449 366.17342 
L 329.238544 366.981099 
L 330.615639 366.545879 
L 331.992734 367.142743 
L 333.36983 366.919046 
L 334.746925 368.934808 
L 336.12402 366.059505 
L 337.501116 367.869163 
L 338.878211 365.662787 
L 338.878211 365.662787 
" style="fill:none;stroke:#4c72b0;stroke-linecap:round;stroke-width:1.5;"/>
   </g>
   <g id="patch_13">
    <path d="M 62.701751 393.739375 
L 62.701751 231.4275 
" style="fill:none;stroke:#ffffff;stroke-linecap:square;stroke-linejoin:miter;stroke-width:1.25;"/>
   </g>
   <g id="patch_14">
    <path d="M 352.029471 393.739375 
L 352.029471 231.4275 
" style="fill:none;stroke:#ffffff;stroke-linecap:square;stroke-linejoin:miter;stroke-width:1.25;"/>
   </g>
   <g id="patch_15">
    <path d="M 62.701751 393.739375 
L 352.029471 393.739375 
" style="fill:none;stroke:#ffffff;stroke-linecap:square;stroke-linejoin:miter;stroke-width:1.25;"/>
   </g>
   <g id="patch_16">
    <path d="M 62.701751 231.4275 
L 352.029471 231.4275 
" style="fill:none;stroke:#ffffff;stroke-linecap:square;stroke-linejoin:miter;stroke-width:1.25;"/>
   </g>
   <g id="text_36">
    <!-- Reactive Power Q -->
    <g style="fill:#262626;" transform="translate(159.015924 225.4275)scale(0.12 -0.12)">
     <defs>
      <path d="M 3966 491 
Q 4388 200 4744 66 
L 4566 -356 
Q 4072 -178 3581 206 
Q 3072 -78 2456 -78 
Q 1834 -78 1328 222 
Q 822 522 548 1065 
Q 275 1609 275 2291 
Q 275 2969 550 3525 
Q 825 4081 1333 4372 
Q 1841 4663 2469 4663 
Q 3103 4663 3612 4361 
Q 4122 4059 4389 3517 
Q 4656 2975 4656 2294 
Q 4656 1728 4484 1276 
Q 4313 825 3966 491 
z
M 2631 1266 
Q 3156 1119 3497 828 
Q 4031 1316 4031 2294 
Q 4031 2850 3842 3265 
Q 3653 3681 3289 3911 
Q 2925 4141 2472 4141 
Q 1794 4141 1347 3677 
Q 900 3213 900 2291 
Q 900 1397 1342 919 
Q 1784 441 2472 441 
Q 2797 441 3084 563 
Q 2800 747 2484 825 
L 2631 1266 
z
" id="ArialMT-51" transform="scale(0.015625)"/>
     </defs>
     <use xlink:href="#ArialMT-52"/>
     <use x="72.216797" xlink:href="#ArialMT-65"/>
     <use x="127.832031" xlink:href="#ArialMT-61"/>
     <use x="183.447266" xlink:href="#ArialMT-63"/>
     <use x="233.447266" xlink:href="#ArialMT-74"/>
     <use x="261.230469" xlink:href="#ArialMT-69"/>
     <use x="283.447266" xlink:href="#ArialMT-76"/>
     <use x="333.447266" xlink:href="#ArialMT-65"/>
     <use x="389.0625" xlink:href="#ArialMT-20"/>
     <use x="416.845703" xlink:href="#ArialMT-50"/>
     <use x="483.544922" xlink:href="#ArialMT-6f"/>
     <use x="539.160156" xlink:href="#ArialMT-77"/>
     <use x="611.376953" xlink:href="#ArialMT-65"/>
     <use x="666.992188" xlink:href="#ArialMT-72"/>
     <use x="700.292969" xlink:href="#ArialMT-20"/>
     <use x="728.076172" xlink:href="#ArialMT-51"/>
    </g>
   </g>
  </g>
  <g id="axes_4">
   <g id="patch_17">
    <path d="M 416.221751 393.739375 
L 705.549471 393.739375 
L 705.549471 231.4275 
L 416.221751 231.4275 
z
" style="fill:#eaeaf2;"/>
   </g>
   <g id="matplotlib.axis_7">
    <g id="xtick_16">
     <g id="line2d_34">
      <path clip-path="url(#p86ea92c363)" d="M 429.373011 393.739375 
L 429.373011 231.4275 
" style="fill:none;stroke:#ffffff;stroke-linecap:round;"/>
     </g>
     <g id="text_37">
      <!-- 0 -->
      <g style="fill:#262626;" transform="translate(426.314496 411.112969)scale(0.11 -0.11)">
       <use xlink:href="#ArialMT-30"/>
      </g>
     </g>
    </g>
    <g id="xtick_17">
     <g id="line2d_35">
      <path clip-path="url(#p86ea92c363)" d="M 498.227776 393.739375 
L 498.227776 231.4275 
" style="fill:none;stroke:#ffffff;stroke-linecap:round;"/>
     </g>
     <g id="text_38">
      <!-- 50 -->
      <g style="fill:#262626;" transform="translate(492.110744 411.112969)scale(0.11 -0.11)">
       <use xlink:href="#ArialMT-35"/>
       <use x="55.615234" xlink:href="#ArialMT-30"/>
      </g>
     </g>
    </g>
    <g id="xtick_18">
     <g id="line2d_36">
      <path clip-path="url(#p86ea92c363)" d="M 567.08254 393.739375 
L 567.08254 231.4275 
" style="fill:none;stroke:#ffffff;stroke-linecap:round;"/>
     </g>
     <g id="text_39">
      <!-- 100 -->
      <g style="fill:#262626;" transform="translate(557.906993 411.112969)scale(0.11 -0.11)">
       <use xlink:href="#ArialMT-31"/>
       <use x="55.615234" xlink:href="#ArialMT-30"/>
       <use x="111.230469" xlink:href="#ArialMT-30"/>
      </g>
     </g>
    </g>
    <g id="xtick_19">
     <g id="line2d_37">
      <path clip-path="url(#p86ea92c363)" d="M 635.937304 393.739375 
L 635.937304 231.4275 
" style="fill:none;stroke:#ffffff;stroke-linecap:round;"/>
     </g>
     <g id="text_40">
      <!-- 150 -->
      <g style="fill:#262626;" transform="translate(626.761757 411.112969)scale(0.11 -0.11)">
       <use xlink:href="#ArialMT-31"/>
       <use x="55.615234" xlink:href="#ArialMT-35"/>
       <use x="111.230469" xlink:href="#ArialMT-30"/>
      </g>
     </g>
    </g>
    <g id="xtick_20">
     <g id="line2d_38">
      <path clip-path="url(#p86ea92c363)" d="M 704.792068 393.739375 
L 704.792068 231.4275 
" style="fill:none;stroke:#ffffff;stroke-linecap:round;"/>
     </g>
     <g id="text_41">
      <!-- 200 -->
      <g style="fill:#262626;" transform="translate(695.616522 411.112969)scale(0.11 -0.11)">
       <use xlink:href="#ArialMT-32"/>
       <use x="55.615234" xlink:href="#ArialMT-30"/>
       <use x="111.230469" xlink:href="#ArialMT-30"/>
      </g>
     </g>
    </g>
   </g>
   <g id="matplotlib.axis_8">
    <g id="ytick_16">
     <g id="line2d_39">
      <path clip-path="url(#p86ea92c363)" d="M 416.221751 386.361562 
L 705.549471 386.361562 
" style="fill:none;stroke:#ffffff;stroke-linecap:round;"/>
     </g>
     <g id="text_42">
      <!-- 0.0000 -->
      <g style="fill:#262626;" transform="translate(373.080658 390.298359)scale(0.11 -0.11)">
       <defs>
        <path d="M 581 0 
L 581 641 
L 1222 641 
L 1222 0 
L 581 0 
z
" id="ArialMT-2e" transform="scale(0.015625)"/>
       </defs>
       <use xlink:href="#ArialMT-30"/>
       <use x="55.615234" xlink:href="#ArialMT-2e"/>
       <use x="83.398438" xlink:href="#ArialMT-30"/>
       <use x="139.013672" xlink:href="#ArialMT-30"/>
       <use x="194.628906" xlink:href="#ArialMT-30"/>
       <use x="250.244141" xlink:href="#ArialMT-30"/>
      </g>
     </g>
    </g>
    <g id="ytick_17">
     <g id="line2d_40">
      <path clip-path="url(#p86ea92c363)" d="M 416.221751 362.752563 
L 705.549471 362.752563 
" style="fill:none;stroke:#ffffff;stroke-linecap:round;"/>
     </g>
     <g id="text_43">
      <!-- 0.0025 -->
      <g style="fill:#262626;" transform="translate(373.080658 366.689359)scale(0.11 -0.11)">
       <use xlink:href="#ArialMT-30"/>
       <use x="55.615234" xlink:href="#ArialMT-2e"/>
       <use x="83.398438" xlink:href="#ArialMT-30"/>
       <use x="139.013672" xlink:href="#ArialMT-30"/>
       <use x="194.628906" xlink:href="#ArialMT-32"/>
       <use x="250.244141" xlink:href="#ArialMT-35"/>
      </g>
     </g>
    </g>
    <g id="ytick_18">
     <g id="line2d_41">
      <path clip-path="url(#p86ea92c363)" d="M 416.221751 339.143563 
L 705.549471 339.143563 
" style="fill:none;stroke:#ffffff;stroke-linecap:round;"/>
     </g>
     <g id="text_44">
      <!-- 0.0050 -->
      <g style="fill:#262626;" transform="translate(373.080658 343.080359)scale(0.11 -0.11)">
       <use xlink:href="#ArialMT-30"/>
       <use x="55.615234" xlink:href="#ArialMT-2e"/>
       <use x="83.398438" xlink:href="#ArialMT-30"/>
       <use x="139.013672" xlink:href="#ArialMT-30"/>
       <use x="194.628906" xlink:href="#ArialMT-35"/>
       <use x="250.244141" xlink:href="#ArialMT-30"/>
      </g>
     </g>
    </g>
    <g id="ytick_19">
     <g id="line2d_42">
      <path clip-path="url(#p86ea92c363)" d="M 416.221751 315.534562 
L 705.549471 315.534562 
" style="fill:none;stroke:#ffffff;stroke-linecap:round;"/>
     </g>
     <g id="text_45">
      <!-- 0.0075 -->
      <g style="fill:#262626;" transform="translate(373.080658 319.471359)scale(0.11 -0.11)">
       <defs>
        <path d="M 303 3981 
L 303 4522 
L 3269 4522 
L 3269 4084 
Q 2831 3619 2401 2847 
Q 1972 2075 1738 1259 
Q 1569 684 1522 0 
L 944 0 
Q 953 541 1156 1306 
Q 1359 2072 1739 2783 
Q 2119 3494 2547 3981 
L 303 3981 
z
" id="ArialMT-37" transform="scale(0.015625)"/>
       </defs>
       <use xlink:href="#ArialMT-30"/>
       <use x="55.615234" xlink:href="#ArialMT-2e"/>
       <use x="83.398438" xlink:href="#ArialMT-30"/>
       <use x="139.013672" xlink:href="#ArialMT-30"/>
       <use x="194.628906" xlink:href="#ArialMT-37"/>
       <use x="250.244141" xlink:href="#ArialMT-35"/>
      </g>
     </g>
    </g>
    <g id="ytick_20">
     <g id="line2d_43">
      <path clip-path="url(#p86ea92c363)" d="M 416.221751 291.925563 
L 705.549471 291.925563 
" style="fill:none;stroke:#ffffff;stroke-linecap:round;"/>
     </g>
     <g id="text_46">
      <!-- 0.0100 -->
      <g style="fill:#262626;" transform="translate(373.080658 295.862359)scale(0.11 -0.11)">
       <use xlink:href="#ArialMT-30"/>
       <use x="55.615234" xlink:href="#ArialMT-2e"/>
       <use x="83.398438" xlink:href="#ArialMT-30"/>
       <use x="139.013672" xlink:href="#ArialMT-31"/>
       <use x="194.628906" xlink:href="#ArialMT-30"/>
       <use x="250.244141" xlink:href="#ArialMT-30"/>
      </g>
     </g>
    </g>
    <g id="ytick_21">
     <g id="line2d_44">
      <path clip-path="url(#p86ea92c363)" d="M 416.221751 268.316563 
L 705.549471 268.316563 
" style="fill:none;stroke:#ffffff;stroke-linecap:round;"/>
     </g>
     <g id="text_47">
      <!-- 0.0125 -->
      <g style="fill:#262626;" transform="translate(373.080658 272.253359)scale(0.11 -0.11)">
       <use xlink:href="#ArialMT-30"/>
       <use x="55.615234" xlink:href="#ArialMT-2e"/>
       <use x="83.398438" xlink:href="#ArialMT-30"/>
       <use x="139.013672" xlink:href="#ArialMT-31"/>
       <use x="194.628906" xlink:href="#ArialMT-32"/>
       <use x="250.244141" xlink:href="#ArialMT-35"/>
      </g>
     </g>
    </g>
    <g id="ytick_22">
     <g id="line2d_45">
      <path clip-path="url(#p86ea92c363)" d="M 416.221751 244.707562 
L 705.549471 244.707562 
" style="fill:none;stroke:#ffffff;stroke-linecap:round;"/>
     </g>
     <g id="text_48">
      <!-- 0.0150 -->
      <g style="fill:#262626;" transform="translate(373.080658 248.644359)scale(0.11 -0.11)">
       <use xlink:href="#ArialMT-30"/>
       <use x="55.615234" xlink:href="#ArialMT-2e"/>
       <use x="83.398438" xlink:href="#ArialMT-30"/>
       <use x="139.013672" xlink:href="#ArialMT-31"/>
       <use x="194.628906" xlink:href="#ArialMT-35"/>
       <use x="250.244141" xlink:href="#ArialMT-30"/>
      </g>
     </g>
    </g>
   </g>
   <g id="line2d_46">
    <path clip-path="url(#p86ea92c363)" d="M 429.373011 386.361562 
L 430.750107 373.31931 
L 432.127202 373.31931 
L 433.504297 370.38813 
L 434.881392 379.840436 
L 436.258488 386.361562 
L 437.635583 373.31931 
L 439.012678 372.917915 
L 440.389774 386.361562 
L 441.766869 377.139297 
L 443.143964 386.361562 
L 444.521059 373.31931 
L 445.898155 371.068165 
L 447.27525 371.77988 
L 448.652345 375.06664 
L 450.029441 379.840436 
L 451.406536 377.139297 
L 454.160726 377.139297 
L 455.537822 386.361562 
L 456.914917 373.31931 
L 458.292012 377.139297 
L 459.669108 386.361562 
L 461.046203 371.068165 
L 463.800393 379.070721 
L 466.554584 375.06664 
L 467.931679 386.361562 
L 469.308775 379.840436 
L 470.68587 377.139297 
L 472.062965 377.139297 
L 473.44006 386.361562 
L 474.817156 377.139297 
L 476.194251 373.31931 
L 477.571346 371.77988 
L 478.948442 386.361562 
L 480.325537 370.38813 
L 481.702632 373.31931 
L 483.079727 377.139297 
L 484.456823 386.361562 
L 485.833918 379.840436 
L 487.211013 377.139297 
L 488.588109 386.361562 
L 489.965204 386.361562 
L 491.342299 379.840436 
L 492.719394 386.361562 
L 494.09649 371.068165 
L 495.473585 373.31931 
L 496.85068 373.31931 
L 498.227776 370.38813 
L 499.604871 386.361562 
L 500.981966 373.31931 
L 502.359061 379.840436 
L 503.736157 370.38813 
L 505.113252 377.139297 
L 506.490347 377.139297 
L 507.867443 386.361562 
L 509.244538 373.31931 
L 510.621633 379.840436 
L 511.998728 373.31931 
L 513.375824 386.361562 
L 514.752919 375.06664 
L 516.130014 370.38813 
L 517.50711 379.840436 
L 518.884205 386.361562 
L 520.2613 377.139297 
L 521.638395 386.361562 
L 523.015491 370.38813 
L 524.392586 386.361562 
L 525.769681 377.139297 
L 527.146777 375.06664 
L 528.523872 386.361562 
L 529.900967 375.06664 
L 531.278062 386.361562 
L 532.655158 377.139297 
L 534.032253 386.361562 
L 535.409348 386.361562 
L 536.786444 354.414698 
L 538.163539 373.31931 
L 539.540634 386.361562 
L 540.917729 386.361562 
L 542.294825 360.277057 
L 543.67192 367.917031 
L 545.049015 386.361562 
L 546.426111 360.277057 
L 547.803206 386.361562 
L 549.180301 360.277057 
L 550.557396 360.277057 
L 551.934492 367.917031 
L 553.311587 360.277057 
L 554.688682 360.277057 
L 556.065778 367.917031 
L 557.442873 373.31931 
L 558.819968 373.31931 
L 560.197063 386.361562 
L 561.574159 360.277057 
L 562.951254 386.361562 
L 564.328349 370.38813 
L 565.705445 386.361562 
L 569.83673 386.361562 
L 571.213826 238.805313 
L 572.590921 386.361562 
L 692.398211 386.361562 
L 692.398211 386.361562 
" style="fill:none;stroke:#4c72b0;stroke-linecap:round;stroke-width:1.5;"/>
   </g>
   <g id="patch_18">
    <path d="M 416.221751 393.739375 
L 416.221751 231.4275 
" style="fill:none;stroke:#ffffff;stroke-linecap:square;stroke-linejoin:miter;stroke-width:1.25;"/>
   </g>
   <g id="patch_19">
    <path d="M 705.549471 393.739375 
L 705.549471 231.4275 
" style="fill:none;stroke:#ffffff;stroke-linecap:square;stroke-linejoin:miter;stroke-width:1.25;"/>
   </g>
   <g id="patch_20">
    <path d="M 416.221751 393.739375 
L 705.549471 393.739375 
" style="fill:none;stroke:#ffffff;stroke-linecap:square;stroke-linejoin:miter;stroke-width:1.25;"/>
   </g>
   <g id="patch_21">
    <path d="M 416.221751 231.4275 
L 705.549471 231.4275 
" style="fill:none;stroke:#ffffff;stroke-linecap:square;stroke-linejoin:miter;stroke-width:1.25;"/>
   </g>
   <g id="text_49">
    <!-- Distortion Power D -->
    <g style="fill:#262626;" transform="translate(510.871861 225.4275)scale(0.12 -0.12)">
     <defs>
      <path d="M 494 0 
L 494 4581 
L 2072 4581 
Q 2606 4581 2888 4516 
Q 3281 4425 3559 4188 
Q 3922 3881 4101 3404 
Q 4281 2928 4281 2316 
Q 4281 1794 4159 1391 
Q 4038 988 3847 723 
Q 3656 459 3429 307 
Q 3203 156 2883 78 
Q 2563 0 2147 0 
L 494 0 
z
M 1100 541 
L 2078 541 
Q 2531 541 2789 625 
Q 3047 709 3200 863 
Q 3416 1078 3536 1442 
Q 3656 1806 3656 2325 
Q 3656 3044 3420 3430 
Q 3184 3816 2847 3947 
Q 2603 4041 2063 4041 
L 1100 4041 
L 1100 541 
z
" id="ArialMT-44" transform="scale(0.015625)"/>
     </defs>
     <use xlink:href="#ArialMT-44"/>
     <use x="72.216797" xlink:href="#ArialMT-69"/>
     <use x="94.433594" xlink:href="#ArialMT-73"/>
     <use x="144.433594" xlink:href="#ArialMT-74"/>
     <use x="172.216797" xlink:href="#ArialMT-6f"/>
     <use x="227.832031" xlink:href="#ArialMT-72"/>
     <use x="261.132812" xlink:href="#ArialMT-74"/>
     <use x="288.916016" xlink:href="#ArialMT-69"/>
     <use x="311.132812" xlink:href="#ArialMT-6f"/>
     <use x="366.748047" xlink:href="#ArialMT-6e"/>
     <use x="422.363281" xlink:href="#ArialMT-20"/>
     <use x="450.146484" xlink:href="#ArialMT-50"/>
     <use x="516.845703" xlink:href="#ArialMT-6f"/>
     <use x="572.460938" xlink:href="#ArialMT-77"/>
     <use x="644.677734" xlink:href="#ArialMT-65"/>
     <use x="700.292969" xlink:href="#ArialMT-72"/>
     <use x="733.59375" xlink:href="#ArialMT-20"/>
     <use x="761.376953" xlink:href="#ArialMT-44"/>
    </g>
   </g>
  </g>
  <g id="text_50">
   <!-- Number of cycles -->
   <g style="fill:#262626;" transform="translate(320.680189 429.384375)scale(0.12 -0.12)">
    <defs>
     <path d="M 488 0 
L 488 4581 
L 1109 4581 
L 3516 984 
L 3516 4581 
L 4097 4581 
L 4097 0 
L 3475 0 
L 1069 3600 
L 1069 0 
L 488 0 
z
" id="ArialMT-4e" transform="scale(0.015625)"/>
     <path d="M 2597 0 
L 2597 488 
Q 2209 -75 1544 -75 
Q 1250 -75 995 37 
Q 741 150 617 320 
Q 494 491 444 738 
Q 409 903 409 1263 
L 409 3319 
L 972 3319 
L 972 1478 
Q 972 1038 1006 884 
Q 1059 663 1231 536 
Q 1403 409 1656 409 
Q 1909 409 2131 539 
Q 2353 669 2445 892 
Q 2538 1116 2538 1541 
L 2538 3319 
L 3100 3319 
L 3100 0 
L 2597 0 
z
" id="ArialMT-75" transform="scale(0.015625)"/>
     <path d="M 941 0 
L 419 0 
L 419 4581 
L 981 4581 
L 981 2947 
Q 1338 3394 1891 3394 
Q 2197 3394 2470 3270 
Q 2744 3147 2920 2923 
Q 3097 2700 3197 2384 
Q 3297 2069 3297 1709 
Q 3297 856 2875 390 
Q 2453 -75 1863 -75 
Q 1275 -75 941 416 
L 941 0 
z
M 934 1684 
Q 934 1088 1097 822 
Q 1363 388 1816 388 
Q 2184 388 2453 708 
Q 2722 1028 2722 1663 
Q 2722 2313 2464 2622 
Q 2206 2931 1841 2931 
Q 1472 2931 1203 2611 
Q 934 2291 934 1684 
z
" id="ArialMT-62" transform="scale(0.015625)"/>
     <path d="M 556 0 
L 556 2881 
L 59 2881 
L 59 3319 
L 556 3319 
L 556 3672 
Q 556 4006 616 4169 
Q 697 4388 901 4523 
Q 1106 4659 1475 4659 
Q 1713 4659 2000 4603 
L 1916 4113 
Q 1741 4144 1584 4144 
Q 1328 4144 1222 4034 
Q 1116 3925 1116 3625 
L 1116 3319 
L 1763 3319 
L 1763 2881 
L 1116 2881 
L 1116 0 
L 556 0 
z
" id="ArialMT-66" transform="scale(0.015625)"/>
     <path d="M 397 -1278 
L 334 -750 
Q 519 -800 656 -800 
Q 844 -800 956 -737 
Q 1069 -675 1141 -563 
Q 1194 -478 1313 -144 
Q 1328 -97 1363 -6 
L 103 3319 
L 709 3319 
L 1400 1397 
Q 1534 1031 1641 628 
Q 1738 1016 1872 1384 
L 2581 3319 
L 3144 3319 
L 1881 -56 
Q 1678 -603 1566 -809 
Q 1416 -1088 1222 -1217 
Q 1028 -1347 759 -1347 
Q 597 -1347 397 -1278 
z
" id="ArialMT-79" transform="scale(0.015625)"/>
    </defs>
    <use xlink:href="#ArialMT-4e"/>
    <use x="72.216797" xlink:href="#ArialMT-75"/>
    <use x="127.832031" xlink:href="#ArialMT-6d"/>
    <use x="211.132812" xlink:href="#ArialMT-62"/>
    <use x="266.748047" xlink:href="#ArialMT-65"/>
    <use x="322.363281" xlink:href="#ArialMT-72"/>
    <use x="355.664062" xlink:href="#ArialMT-20"/>
    <use x="383.447266" xlink:href="#ArialMT-6f"/>
    <use x="439.0625" xlink:href="#ArialMT-66"/>
    <use x="466.845703" xlink:href="#ArialMT-20"/>
    <use x="494.628906" xlink:href="#ArialMT-63"/>
    <use x="544.628906" xlink:href="#ArialMT-79"/>
    <use x="594.628906" xlink:href="#ArialMT-63"/>
    <use x="644.628906" xlink:href="#ArialMT-6c"/>
    <use x="666.845703" xlink:href="#ArialMT-65"/>
    <use x="722.460938" xlink:href="#ArialMT-73"/>
   </g>
  </g>
 </g>
 <defs>
  <clipPath id="p4b9eb86f93">
   <rect height="162.311875" width="289.32772" x="62.701751" y="21.935625"/>
  </clipPath>
  <clipPath id="p55eefc2e94">
   <rect height="162.311875" width="289.32772" x="416.221751" y="21.935625"/>
  </clipPath>
  <clipPath id="pcf050ebf24">
   <rect height="162.311875" width="289.32772" x="62.701751" y="231.4275"/>
  </clipPath>
  <clipPath id="p86ea92c363">
   <rect height="162.311875" width="289.32772" x="416.221751" y="231.4275"/>
  </clipPath>
 </defs>
</svg>
