<?xml version="1.0" encoding="utf-8" standalone="no"?>
<!DOCTYPE svg PUBLIC "-//W3C//DTD SVG 1.1//EN"
  "http://www.w3.org/Graphics/SVG/1.1/DTD/svg11.dtd">
<!-- Created with matplotlib (https://matplotlib.org/) -->
<svg height="504pt" version="1.1" viewBox="0 0 1080 504" width="1080pt" xmlns="http://www.w3.org/2000/svg" xmlns:xlink="http://www.w3.org/1999/xlink">
 <metadata>
  <rdf:RDF xmlns:cc="http://creativecommons.org/ns#" xmlns:dc="http://purl.org/dc/elements/1.1/" xmlns:rdf="http://www.w3.org/1999/02/22-rdf-syntax-ns#">
   <cc:Work>
    <dc:type rdf:resource="http://purl.org/dc/dcmitype/StillImage"/>
    <dc:date>2021-08-17T17:59:33.780876</dc:date>
    <dc:format>image/svg+xml</dc:format>
    <dc:creator>
     <cc:Agent>
      <dc:title>Matplotlib v3.3.4, https://matplotlib.org/</dc:title>
     </cc:Agent>
    </dc:creator>
   </cc:Work>
  </rdf:RDF>
 </metadata>
 <defs>
  <style type="text/css">*{stroke-linecap:butt;stroke-linejoin:round;}</style>
 </defs>
 <g id="figure_1">
  <g id="patch_1">
   <path d="M 0 504 
L 1080 504 
L 1080 0 
L 0 0 
z
" style="fill:#ffffff;"/>
  </g>
  <g id="axes_1">
   <g id="patch_2">
    <path d="M 54.881875 226.043437 
L 524.664392 226.043437 
L 524.664392 27.006875 
L 54.881875 27.006875 
z
" style="fill:#eaeaf2;"/>
   </g>
   <g id="matplotlib.axis_1">
    <g id="xtick_1">
     <g id="line2d_1">
      <path clip-path="url(#p0cab4c2547)" d="M 76.235626 226.043437 
L 76.235626 27.006875 
" style="fill:none;stroke:#ffffff;stroke-linecap:round;"/>
     </g>
     <g id="text_1">
      <!-- 0 -->
      <g style="fill:#262626;" transform="translate(73.17711 243.417031)scale(0.11 -0.11)">
       <defs>
        <path d="M 4.15625 35.296875 
Q 4.15625 48 6.765625 55.734375 
Q 9.375 63.484375 14.515625 67.671875 
Q 19.671875 71.875 27.484375 71.875 
Q 33.25 71.875 37.59375 69.546875 
Q 41.9375 67.234375 44.765625 62.859375 
Q 47.609375 58.5 49.21875 52.21875 
Q 50.828125 45.953125 50.828125 35.296875 
Q 50.828125 22.703125 48.234375 14.96875 
Q 45.65625 7.234375 40.5 3 
Q 35.359375 -1.21875 27.484375 -1.21875 
Q 17.140625 -1.21875 11.234375 6.203125 
Q 4.15625 15.140625 4.15625 35.296875 
z
M 13.1875 35.296875 
Q 13.1875 17.671875 17.3125 11.828125 
Q 21.4375 6 27.484375 6 
Q 33.546875 6 37.671875 11.859375 
Q 41.796875 17.71875 41.796875 35.296875 
Q 41.796875 52.984375 37.671875 58.78125 
Q 33.546875 64.59375 27.390625 64.59375 
Q 21.34375 64.59375 17.71875 59.46875 
Q 13.1875 52.9375 13.1875 35.296875 
z
" id="ArialMT-48"/>
       </defs>
       <use xlink:href="#ArialMT-48"/>
      </g>
     </g>
    </g>
    <g id="xtick_2">
     <g id="line2d_2">
      <path clip-path="url(#p0cab4c2547)" d="M 132.135497 226.043437 
L 132.135497 27.006875 
" style="fill:none;stroke:#ffffff;stroke-linecap:round;"/>
     </g>
     <g id="text_2">
      <!-- 25 -->
      <g style="fill:#262626;" transform="translate(126.018466 243.417031)scale(0.11 -0.11)">
       <defs>
        <path d="M 50.34375 8.453125 
L 50.34375 0 
L 3.03125 0 
Q 2.9375 3.171875 4.046875 6.109375 
Q 5.859375 10.9375 9.828125 15.625 
Q 13.8125 20.3125 21.34375 26.46875 
Q 33.015625 36.03125 37.109375 41.625 
Q 41.21875 47.21875 41.21875 52.203125 
Q 41.21875 57.421875 37.46875 61 
Q 33.734375 64.59375 27.734375 64.59375 
Q 21.390625 64.59375 17.578125 60.78125 
Q 13.765625 56.984375 13.71875 50.25 
L 4.6875 51.171875 
Q 5.609375 61.28125 11.65625 66.578125 
Q 17.71875 71.875 27.9375 71.875 
Q 38.234375 71.875 44.234375 66.15625 
Q 50.25 60.453125 50.25 52 
Q 50.25 47.703125 48.484375 43.546875 
Q 46.734375 39.40625 42.65625 34.8125 
Q 38.578125 30.21875 29.109375 22.21875 
Q 21.1875 15.578125 18.9375 13.203125 
Q 16.703125 10.84375 15.234375 8.453125 
z
" id="ArialMT-50"/>
        <path d="M 4.15625 18.75 
L 13.375 19.53125 
Q 14.40625 12.796875 18.140625 9.390625 
Q 21.875 6 27.15625 6 
Q 33.5 6 37.890625 10.78125 
Q 42.28125 15.578125 42.28125 23.484375 
Q 42.28125 31 38.0625 35.34375 
Q 33.84375 39.703125 27 39.703125 
Q 22.75 39.703125 19.328125 37.765625 
Q 15.921875 35.84375 13.96875 32.765625 
L 5.71875 33.84375 
L 12.640625 70.609375 
L 48.25 70.609375 
L 48.25 62.203125 
L 19.671875 62.203125 
L 15.828125 42.96875 
Q 22.265625 47.46875 29.34375 47.46875 
Q 38.71875 47.46875 45.15625 40.96875 
Q 51.609375 34.46875 51.609375 24.265625 
Q 51.609375 14.546875 45.953125 7.46875 
Q 39.0625 -1.21875 27.15625 -1.21875 
Q 17.390625 -1.21875 11.203125 4.25 
Q 5.03125 9.71875 4.15625 18.75 
z
" id="ArialMT-53"/>
       </defs>
       <use xlink:href="#ArialMT-50"/>
       <use x="55.615234" xlink:href="#ArialMT-53"/>
      </g>
     </g>
    </g>
    <g id="xtick_3">
     <g id="line2d_3">
      <path clip-path="url(#p0cab4c2547)" d="M 188.035368 226.043437 
L 188.035368 27.006875 
" style="fill:none;stroke:#ffffff;stroke-linecap:round;"/>
     </g>
     <g id="text_3">
      <!-- 50 -->
      <g style="fill:#262626;" transform="translate(181.918337 243.417031)scale(0.11 -0.11)">
       <use xlink:href="#ArialMT-53"/>
       <use x="55.615234" xlink:href="#ArialMT-48"/>
      </g>
     </g>
    </g>
    <g id="xtick_4">
     <g id="line2d_4">
      <path clip-path="url(#p0cab4c2547)" d="M 243.935239 226.043437 
L 243.935239 27.006875 
" style="fill:none;stroke:#ffffff;stroke-linecap:round;"/>
     </g>
     <g id="text_4">
      <!-- 75 -->
      <g style="fill:#262626;" transform="translate(237.818208 243.417031)scale(0.11 -0.11)">
       <defs>
        <path d="M 4.734375 62.203125 
L 4.734375 70.65625 
L 51.078125 70.65625 
L 51.078125 63.8125 
Q 44.234375 56.546875 37.515625 44.484375 
Q 30.8125 32.421875 27.15625 19.671875 
Q 24.515625 10.6875 23.78125 0 
L 14.75 0 
Q 14.890625 8.453125 18.0625 20.40625 
Q 21.234375 32.375 27.171875 43.484375 
Q 33.109375 54.59375 39.796875 62.203125 
z
" id="ArialMT-55"/>
       </defs>
       <use xlink:href="#ArialMT-55"/>
       <use x="55.615234" xlink:href="#ArialMT-53"/>
      </g>
     </g>
    </g>
    <g id="xtick_5">
     <g id="line2d_5">
      <path clip-path="url(#p0cab4c2547)" d="M 299.83511 226.043437 
L 299.83511 27.006875 
" style="fill:none;stroke:#ffffff;stroke-linecap:round;"/>
     </g>
     <g id="text_5">
      <!-- 100 -->
      <g style="fill:#262626;" transform="translate(290.659563 243.417031)scale(0.11 -0.11)">
       <defs>
        <path d="M 37.25 0 
L 28.46875 0 
L 28.46875 56 
Q 25.296875 52.984375 20.140625 49.953125 
Q 14.984375 46.921875 10.890625 45.40625 
L 10.890625 53.90625 
Q 18.265625 57.375 23.78125 62.296875 
Q 29.296875 67.234375 31.59375 71.875 
L 37.25 71.875 
z
" id="ArialMT-49"/>
       </defs>
       <use xlink:href="#ArialMT-49"/>
       <use x="55.615234" xlink:href="#ArialMT-48"/>
       <use x="111.230469" xlink:href="#ArialMT-48"/>
      </g>
     </g>
    </g>
    <g id="xtick_6">
     <g id="line2d_6">
      <path clip-path="url(#p0cab4c2547)" d="M 355.734981 226.043437 
L 355.734981 27.006875 
" style="fill:none;stroke:#ffffff;stroke-linecap:round;"/>
     </g>
     <g id="text_6">
      <!-- 125 -->
      <g style="fill:#262626;" transform="translate(346.559434 243.417031)scale(0.11 -0.11)">
       <use xlink:href="#ArialMT-49"/>
       <use x="55.615234" xlink:href="#ArialMT-50"/>
       <use x="111.230469" xlink:href="#ArialMT-53"/>
      </g>
     </g>
    </g>
    <g id="xtick_7">
     <g id="line2d_7">
      <path clip-path="url(#p0cab4c2547)" d="M 411.634852 226.043437 
L 411.634852 27.006875 
" style="fill:none;stroke:#ffffff;stroke-linecap:round;"/>
     </g>
     <g id="text_7">
      <!-- 150 -->
      <g style="fill:#262626;" transform="translate(402.459306 243.417031)scale(0.11 -0.11)">
       <use xlink:href="#ArialMT-49"/>
       <use x="55.615234" xlink:href="#ArialMT-53"/>
       <use x="111.230469" xlink:href="#ArialMT-48"/>
      </g>
     </g>
    </g>
    <g id="xtick_8">
     <g id="line2d_8">
      <path clip-path="url(#p0cab4c2547)" d="M 467.534724 226.043437 
L 467.534724 27.006875 
" style="fill:none;stroke:#ffffff;stroke-linecap:round;"/>
     </g>
     <g id="text_8">
      <!-- 175 -->
      <g style="fill:#262626;" transform="translate(458.359177 243.417031)scale(0.11 -0.11)">
       <use xlink:href="#ArialMT-49"/>
       <use x="55.615234" xlink:href="#ArialMT-55"/>
       <use x="111.230469" xlink:href="#ArialMT-53"/>
      </g>
     </g>
    </g>
    <g id="xtick_9">
     <g id="line2d_9">
      <path clip-path="url(#p0cab4c2547)" d="M 523.434595 226.043437 
L 523.434595 27.006875 
" style="fill:none;stroke:#ffffff;stroke-linecap:round;"/>
     </g>
     <g id="text_9">
      <!-- 200 -->
      <g style="fill:#262626;" transform="translate(514.259048 243.417031)scale(0.11 -0.11)">
       <use xlink:href="#ArialMT-50"/>
       <use x="55.615234" xlink:href="#ArialMT-48"/>
       <use x="111.230469" xlink:href="#ArialMT-48"/>
      </g>
     </g>
    </g>
   </g>
   <g id="matplotlib.axis_2">
    <g id="ytick_1">
     <g id="line2d_10">
      <path clip-path="url(#p0cab4c2547)" d="M 54.881875 217.631667 
L 524.664392 217.631667 
" style="fill:none;stroke:#ffffff;stroke-linecap:round;"/>
     </g>
     <g id="text_10">
      <!-- 0 -->
      <g style="fill:#262626;" transform="translate(39.264844 221.568464)scale(0.11 -0.11)">
       <use xlink:href="#ArialMT-48"/>
      </g>
     </g>
    </g>
    <g id="ytick_2">
     <g id="line2d_11">
      <path clip-path="url(#p0cab4c2547)" d="M 54.881875 176.111716 
L 524.664392 176.111716 
" style="fill:none;stroke:#ffffff;stroke-linecap:round;"/>
     </g>
     <g id="text_11">
      <!-- 50 -->
      <g style="fill:#262626;" transform="translate(33.147812 180.048513)scale(0.11 -0.11)">
       <use xlink:href="#ArialMT-53"/>
       <use x="55.615234" xlink:href="#ArialMT-48"/>
      </g>
     </g>
    </g>
    <g id="ytick_3">
     <g id="line2d_12">
      <path clip-path="url(#p0cab4c2547)" d="M 54.881875 134.591765 
L 524.664392 134.591765 
" style="fill:none;stroke:#ffffff;stroke-linecap:round;"/>
     </g>
     <g id="text_12">
      <!-- 100 -->
      <g style="fill:#262626;" transform="translate(27.030781 138.528562)scale(0.11 -0.11)">
       <use xlink:href="#ArialMT-49"/>
       <use x="55.615234" xlink:href="#ArialMT-48"/>
       <use x="111.230469" xlink:href="#ArialMT-48"/>
      </g>
     </g>
    </g>
    <g id="ytick_4">
     <g id="line2d_13">
      <path clip-path="url(#p0cab4c2547)" d="M 54.881875 93.071814 
L 524.664392 93.071814 
" style="fill:none;stroke:#ffffff;stroke-linecap:round;"/>
     </g>
     <g id="text_13">
      <!-- 150 -->
      <g style="fill:#262626;" transform="translate(27.030781 97.008611)scale(0.11 -0.11)">
       <use xlink:href="#ArialMT-49"/>
       <use x="55.615234" xlink:href="#ArialMT-53"/>
       <use x="111.230469" xlink:href="#ArialMT-48"/>
      </g>
     </g>
    </g>
    <g id="ytick_5">
     <g id="line2d_14">
      <path clip-path="url(#p0cab4c2547)" d="M 54.881875 51.551863 
L 524.664392 51.551863 
" style="fill:none;stroke:#ffffff;stroke-linecap:round;"/>
     </g>
     <g id="text_14">
      <!-- 200 -->
      <g style="fill:#262626;" transform="translate(27.030781 55.48866)scale(0.11 -0.11)">
       <use xlink:href="#ArialMT-50"/>
       <use x="55.615234" xlink:href="#ArialMT-48"/>
       <use x="111.230469" xlink:href="#ArialMT-48"/>
      </g>
     </g>
    </g>
    <g id="text_15">
     <!-- Watts (W) -->
     <g style="fill:#262626;" transform="translate(20.505156 152.959844)rotate(-90)scale(0.12 -0.12)">
      <defs>
       <path d="M 20.21875 0 
L 1.21875 71.578125 
L 10.9375 71.578125 
L 21.828125 24.65625 
Q 23.578125 17.28125 24.859375 10.015625 
Q 27.59375 21.484375 28.078125 23.25 
L 41.703125 71.578125 
L 53.125 71.578125 
L 63.375 35.359375 
Q 67.234375 21.875 68.953125 10.015625 
Q 70.3125 16.796875 72.515625 25.59375 
L 83.734375 71.578125 
L 93.265625 71.578125 
L 73.640625 0 
L 64.5 0 
L 49.421875 54.546875 
Q 47.515625 61.375 47.171875 62.9375 
Q 46.046875 58.015625 45.0625 54.546875 
L 29.890625 0 
z
" id="ArialMT-87"/>
       <path d="M 40.4375 6.390625 
Q 35.546875 2.25 31.03125 0.53125 
Q 26.515625 -1.171875 21.34375 -1.171875 
Q 12.796875 -1.171875 8.203125 3 
Q 3.609375 7.171875 3.609375 13.671875 
Q 3.609375 17.484375 5.34375 20.625 
Q 7.078125 23.78125 9.890625 25.6875 
Q 12.703125 27.59375 16.21875 28.5625 
Q 18.796875 29.25 24.03125 29.890625 
Q 34.671875 31.15625 39.703125 32.90625 
Q 39.75 34.71875 39.75 35.203125 
Q 39.75 40.578125 37.25 42.78125 
Q 33.890625 45.75 27.25 45.75 
Q 21.046875 45.75 18.09375 43.578125 
Q 15.140625 41.40625 13.71875 35.890625 
L 5.125 37.0625 
Q 6.296875 42.578125 8.984375 45.96875 
Q 11.671875 49.359375 16.75 51.1875 
Q 21.828125 53.03125 28.515625 53.03125 
Q 35.15625 53.03125 39.296875 51.46875 
Q 43.453125 49.90625 45.40625 47.53125 
Q 47.359375 45.171875 48.140625 41.546875 
Q 48.578125 39.3125 48.578125 33.453125 
L 48.578125 21.734375 
Q 48.578125 9.46875 49.140625 6.21875 
Q 49.703125 2.984375 51.375 0 
L 42.1875 0 
Q 40.828125 2.734375 40.4375 6.390625 
z
M 39.703125 26.03125 
Q 34.90625 24.078125 25.34375 22.703125 
Q 19.921875 21.921875 17.671875 20.9375 
Q 15.4375 19.96875 14.203125 18.09375 
Q 12.984375 16.21875 12.984375 13.921875 
Q 12.984375 10.40625 15.640625 8.0625 
Q 18.3125 5.71875 23.4375 5.71875 
Q 28.515625 5.71875 32.46875 7.9375 
Q 36.421875 10.15625 38.28125 14.015625 
Q 39.703125 17 39.703125 22.796875 
z
" id="ArialMT-97"/>
       <path d="M 25.78125 7.859375 
L 27.046875 0.09375 
Q 23.34375 -0.6875 20.40625 -0.6875 
Q 15.625 -0.6875 12.984375 0.828125 
Q 10.359375 2.34375 9.28125 4.8125 
Q 8.203125 7.28125 8.203125 15.1875 
L 8.203125 45.015625 
L 1.765625 45.015625 
L 1.765625 51.859375 
L 8.203125 51.859375 
L 8.203125 64.703125 
L 16.9375 69.96875 
L 16.9375 51.859375 
L 25.78125 51.859375 
L 25.78125 45.015625 
L 16.9375 45.015625 
L 16.9375 14.703125 
Q 16.9375 10.9375 17.40625 9.859375 
Q 17.875 8.796875 18.921875 8.15625 
Q 19.96875 7.515625 21.921875 7.515625 
Q 23.390625 7.515625 25.78125 7.859375 
z
" id="ArialMT-116"/>
       <path d="M 3.078125 15.484375 
L 11.765625 16.84375 
Q 12.5 11.625 15.84375 8.84375 
Q 19.1875 6.0625 25.203125 6.0625 
Q 31.25 6.0625 34.171875 8.515625 
Q 37.109375 10.984375 37.109375 14.3125 
Q 37.109375 17.28125 34.515625 19 
Q 32.71875 20.171875 25.53125 21.96875 
Q 15.875 24.421875 12.140625 26.203125 
Q 8.40625 27.984375 6.46875 31.125 
Q 4.546875 34.28125 4.546875 38.09375 
Q 4.546875 41.546875 6.125 44.5 
Q 7.71875 47.46875 10.453125 49.421875 
Q 12.5 50.921875 16.03125 51.96875 
Q 19.578125 53.03125 23.640625 53.03125 
Q 29.734375 53.03125 34.34375 51.265625 
Q 38.96875 49.515625 41.15625 46.5 
Q 43.359375 43.5 44.1875 38.484375 
L 35.59375 37.3125 
Q 35.015625 41.3125 32.203125 43.546875 
Q 29.390625 45.796875 24.265625 45.796875 
Q 18.21875 45.796875 15.625 43.796875 
Q 13.03125 41.796875 13.03125 39.109375 
Q 13.03125 37.40625 14.109375 36.03125 
Q 15.1875 34.625 17.484375 33.6875 
Q 18.796875 33.203125 25.25 31.453125 
Q 34.578125 28.953125 38.25 27.359375 
Q 41.9375 25.78125 44.03125 22.75 
Q 46.140625 19.734375 46.140625 15.234375 
Q 46.140625 10.84375 43.578125 6.953125 
Q 41.015625 3.078125 36.171875 0.953125 
Q 31.34375 -1.171875 25.25 -1.171875 
Q 15.140625 -1.171875 9.84375 3.03125 
Q 4.546875 7.234375 3.078125 15.484375 
z
" id="ArialMT-115"/>
       <path id="ArialMT-32"/>
       <path d="M 23.390625 -21.046875 
Q 16.109375 -11.859375 11.078125 0.4375 
Q 6.0625 12.75 6.0625 25.921875 
Q 6.0625 37.546875 9.8125 48.1875 
Q 14.203125 60.546875 23.390625 72.796875 
L 29.6875 72.796875 
Q 23.78125 62.640625 21.875 58.296875 
Q 18.890625 51.5625 17.1875 44.234375 
Q 15.09375 35.109375 15.09375 25.875 
Q 15.09375 2.390625 29.6875 -21.046875 
z
" id="ArialMT-40"/>
       <path d="M 12.359375 -21.046875 
L 6.0625 -21.046875 
Q 20.65625 2.390625 20.65625 25.875 
Q 20.65625 35.0625 18.5625 44.09375 
Q 16.890625 51.421875 13.921875 58.15625 
Q 12.015625 62.546875 6.0625 72.796875 
L 12.359375 72.796875 
Q 21.53125 60.546875 25.921875 48.1875 
Q 29.6875 37.546875 29.6875 25.921875 
Q 29.6875 12.75 24.625 0.4375 
Q 19.578125 -11.859375 12.359375 -21.046875 
z
" id="ArialMT-41"/>
      </defs>
      <use xlink:href="#ArialMT-87"/>
      <use x="90.634766" xlink:href="#ArialMT-97"/>
      <use x="146.25" xlink:href="#ArialMT-116"/>
      <use x="174.033203" xlink:href="#ArialMT-116"/>
      <use x="201.816406" xlink:href="#ArialMT-115"/>
      <use x="251.816406" xlink:href="#ArialMT-32"/>
      <use x="279.599609" xlink:href="#ArialMT-40"/>
      <use x="312.900391" xlink:href="#ArialMT-87"/>
      <use x="407.285156" xlink:href="#ArialMT-41"/>
     </g>
    </g>
   </g>
   <g id="line2d_15">
    <path clip-path="url(#p0cab4c2547)" d="M 76.235626 214.909593 
L 78.471621 214.646638 
L 80.707615 213.348842 
L 82.94361 215.200638 
L 85.179605 215.302551 
L 87.4156 214.837568 
L 89.651595 215.576329 
L 91.88759 216.996321 
L 94.123585 213.931534 
L 96.359579 215.876619 
L 98.595574 214.817699 
L 100.831569 214.573718 
L 103.067564 216.175991 
L 105.303559 215.507714 
L 107.539554 215.551723 
L 109.775548 215.326295 
L 112.011543 214.775522 
L 116.483533 214.454993 
L 118.719528 213.374911 
L 120.955523 214.780859 
L 123.191517 214.894022 
L 125.427512 214.694293 
L 127.663507 216.756742 
L 129.899502 215.492769 
L 132.135497 216.974005 
L 134.371492 215.016705 
L 136.607487 216.113924 
L 138.843481 215.200086 
L 141.079476 215.84714 
L 143.315471 214.561744 
L 145.551466 215.614185 
L 147.787461 215.35416 
L 150.023456 214.432882 
L 152.25945 215.588303 
L 154.495445 215.531716 
L 156.73144 215.260582 
L 158.967435 215.246663 
L 161.20343 214.625138 
L 163.439425 214.74694 
L 165.67542 215.505821 
L 167.911414 215.766288 
L 170.147409 215.087553 
L 172.383404 214.580738 
L 174.619399 214.292411 
L 176.855394 215.403383 
L 179.091389 214.780305 
L 181.327383 216.215259 
L 183.563378 214.464733 
L 185.799373 215.434279 
L 188.035368 214.382509 
L 190.271363 215.189009 
L 192.507358 214.262125 
L 194.743353 216.034324 
L 196.979347 216.075483 
L 199.215342 214.580059 
L 201.451337 214.832431 
L 203.687332 214.954772 
L 205.923327 213.713247 
L 208.159322 215.926191 
L 210.395316 214.781124 
L 212.631311 216.061069 
L 214.867306 215.56151 
L 217.103301 214.937269 
L 219.339296 215.540365 
L 221.575291 214.224022 
L 223.811285 215.00546 
L 226.04728 214.644802 
L 228.283275 215.694587 
L 230.51927 215.874819 
L 232.755265 214.51925 
L 234.99126 215.486418 
L 237.227255 211.645264 
L 239.463249 216.797168 
L 241.699244 213.385123 
L 243.935239 215.221742 
L 246.171234 215.430363 
L 248.407229 214.465308 
L 250.643224 212.024237 
L 252.879218 213.082103 
L 255.115213 211.623613 
L 257.351208 211.722537 
L 259.587203 211.02969 
L 261.823198 211.971499 
L 264.059193 212.206585 
L 266.295188 208.517671 
L 268.531182 210.753249 
L 270.767177 210.064379 
L 273.003172 211.468165 
L 275.239167 212.11226 
L 277.475162 209.492116 
L 279.711157 211.354236 
L 281.947151 212.063372 
L 284.183146 214.021403 
L 286.419141 213.221013 
L 288.655136 213.589731 
L 290.891131 212.848907 
L 293.127126 212.739954 
L 295.363121 214.473178 
L 297.599115 211.840901 
L 299.83511 207.905989 
L 302.071105 36.053991 
L 304.3071 140.386736 
L 306.543095 176.815571 
L 308.77909 173.212808 
L 311.015084 187.781866 
L 313.251079 193.385082 
L 315.487074 184.76464 
L 317.723069 169.704734 
L 319.959064 165.702747 
L 322.195059 171.198343 
L 324.431053 175.804811 
L 326.667048 175.789989 
L 328.903043 172.963362 
L 331.139038 173.963149 
L 333.375033 173.076536 
L 335.611028 173.46129 
L 337.847023 173.095336 
L 340.083017 173.4708 
L 342.319012 174.411258 
L 344.555007 173.820605 
L 346.791002 172.730503 
L 349.026997 171.964324 
L 351.262992 173.606812 
L 353.498986 173.316427 
L 355.734981 174.100457 
L 357.970976 173.695315 
L 360.206971 173.602875 
L 362.442966 173.890573 
L 364.678961 173.383317 
L 366.914956 173.511084 
L 369.15095 173.091247 
L 371.386945 174.103546 
L 373.62294 174.201244 
L 375.858935 174.700262 
L 378.09493 175.691911 
L 380.330925 175.530981 
L 382.566919 173.624719 
L 384.802914 173.840324 
L 387.038909 173.440177 
L 389.274904 174.3532 
L 393.746894 173.54673 
L 395.982889 173.790391 
L 398.218883 173.906048 
L 400.454878 173.004473 
L 404.926868 173.97632 
L 407.162863 173.601221 
L 409.398858 173.732834 
L 411.634852 174.060794 
L 413.870847 172.794029 
L 416.106842 172.59418 
L 418.342837 174.124744 
L 420.578832 173.860239 
L 422.814827 173.21507 
L 427.286816 173.441992 
L 429.522811 174.977456 
L 431.758806 173.825002 
L 433.994801 174.099839 
L 436.230796 173.649237 
L 438.466791 175.60222 
L 440.702785 174.033438 
L 442.93878 172.969771 
L 445.174775 173.264606 
L 447.41077 172.361223 
L 449.646765 174.567544 
L 451.88276 174.427423 
L 454.118754 173.01939 
L 456.354749 173.879534 
L 458.590744 172.119814 
L 460.826739 174.738122 
L 463.062734 173.638084 
L 465.298729 174.007583 
L 467.534724 174.210735 
L 469.770718 175.71283 
L 472.006713 173.257384 
L 474.242708 174.515916 
L 476.478703 174.909699 
L 478.714698 173.6838 
L 480.950693 175.004249 
L 483.186687 173.712367 
L 487.658677 174.516021 
L 489.894672 174.452217 
L 492.130667 174.511611 
L 494.366662 175.575104 
L 496.602657 173.579478 
L 498.838651 172.838206 
L 501.074646 173.125094 
L 503.310641 174.512429 
L 503.310641 174.512429 
" style="fill:none;stroke:#4c72b0;stroke-linecap:round;stroke-width:1.5;"/>
   </g>
   <g id="patch_3">
    <path d="M 54.881875 226.043437 
L 54.881875 27.006875 
" style="fill:none;stroke:#ffffff;stroke-linecap:square;stroke-linejoin:miter;stroke-width:1.25;"/>
   </g>
   <g id="patch_4">
    <path d="M 524.664392 226.043437 
L 524.664392 27.006875 
" style="fill:none;stroke:#ffffff;stroke-linecap:square;stroke-linejoin:miter;stroke-width:1.25;"/>
   </g>
   <g id="patch_5">
    <path d="M 54.881875 226.043437 
L 524.664392 226.043437 
" style="fill:none;stroke:#ffffff;stroke-linecap:square;stroke-linejoin:miter;stroke-width:1.25;"/>
   </g>
   <g id="patch_6">
    <path d="M 54.881875 27.006875 
L 524.664392 27.006875 
" style="fill:none;stroke:#ffffff;stroke-linecap:square;stroke-linejoin:miter;stroke-width:1.25;"/>
   </g>
   <g id="text_16">
    <!-- Active Power P -->
    <g style="fill:#262626;" transform="translate(249.092196 21.006875)scale(0.12 -0.12)">
     <defs>
      <path d="M -0.140625 0 
L 27.34375 71.578125 
L 37.546875 71.578125 
L 66.84375 0 
L 56.0625 0 
L 47.703125 21.6875 
L 17.78125 21.6875 
L 9.90625 0 
z
M 20.515625 29.390625 
L 44.78125 29.390625 
L 37.3125 49.21875 
Q 33.890625 58.25 32.234375 64.0625 
Q 30.859375 57.171875 28.375 50.390625 
z
" id="ArialMT-65"/>
      <path d="M 40.4375 19 
L 49.078125 17.875 
Q 47.65625 8.9375 41.8125 3.875 
Q 35.984375 -1.171875 27.484375 -1.171875 
Q 16.84375 -1.171875 10.375 5.78125 
Q 3.90625 12.75 3.90625 25.734375 
Q 3.90625 34.125 6.6875 40.421875 
Q 9.46875 46.734375 15.15625 49.875 
Q 20.84375 53.03125 27.546875 53.03125 
Q 35.984375 53.03125 41.359375 48.75 
Q 46.734375 44.484375 48.25 36.625 
L 39.703125 35.296875 
Q 38.484375 40.53125 35.375 43.15625 
Q 32.28125 45.796875 27.875 45.796875 
Q 21.234375 45.796875 17.078125 41.03125 
Q 12.9375 36.28125 12.9375 25.984375 
Q 12.9375 15.53125 16.9375 10.796875 
Q 20.953125 6.0625 27.390625 6.0625 
Q 32.5625 6.0625 36.03125 9.234375 
Q 39.5 12.40625 40.4375 19 
z
" id="ArialMT-99"/>
      <path d="M 6.640625 61.46875 
L 6.640625 71.578125 
L 15.4375 71.578125 
L 15.4375 61.46875 
z
M 6.640625 0 
L 6.640625 51.859375 
L 15.4375 51.859375 
L 15.4375 0 
z
" id="ArialMT-105"/>
      <path d="M 21 0 
L 1.265625 51.859375 
L 10.546875 51.859375 
L 21.6875 20.796875 
Q 23.484375 15.765625 25 10.359375 
Q 26.171875 14.453125 28.265625 20.21875 
L 39.796875 51.859375 
L 48.828125 51.859375 
L 29.203125 0 
z
" id="ArialMT-118"/>
      <path d="M 42.09375 16.703125 
L 51.171875 15.578125 
Q 49.03125 7.625 43.21875 3.21875 
Q 37.40625 -1.171875 28.375 -1.171875 
Q 17 -1.171875 10.328125 5.828125 
Q 3.65625 12.84375 3.65625 25.484375 
Q 3.65625 38.578125 10.390625 45.796875 
Q 17.140625 53.03125 27.875 53.03125 
Q 38.28125 53.03125 44.875 45.953125 
Q 51.46875 38.875 51.46875 26.03125 
Q 51.46875 25.25 51.421875 23.6875 
L 12.75 23.6875 
Q 13.234375 15.140625 17.578125 10.59375 
Q 21.921875 6.0625 28.421875 6.0625 
Q 33.25 6.0625 36.671875 8.59375 
Q 40.09375 11.140625 42.09375 16.703125 
z
M 13.234375 30.90625 
L 42.1875 30.90625 
Q 41.609375 37.453125 38.875 40.71875 
Q 34.671875 45.796875 27.984375 45.796875 
Q 21.921875 45.796875 17.796875 41.75 
Q 13.671875 37.703125 13.234375 30.90625 
z
" id="ArialMT-101"/>
      <path d="M 7.71875 0 
L 7.71875 71.578125 
L 34.71875 71.578125 
Q 41.84375 71.578125 45.609375 70.90625 
Q 50.875 70.015625 54.4375 67.546875 
Q 58.015625 65.09375 60.1875 60.640625 
Q 62.359375 56.203125 62.359375 50.875 
Q 62.359375 41.75 56.546875 35.421875 
Q 50.734375 29.109375 35.546875 29.109375 
L 17.1875 29.109375 
L 17.1875 0 
z
M 17.1875 37.546875 
L 35.6875 37.546875 
Q 44.875 37.546875 48.734375 40.96875 
Q 52.59375 44.390625 52.59375 50.59375 
Q 52.59375 55.078125 50.3125 58.265625 
Q 48.046875 61.46875 44.34375 62.5 
Q 41.9375 63.140625 35.5 63.140625 
L 17.1875 63.140625 
z
" id="ArialMT-80"/>
      <path d="M 3.328125 25.921875 
Q 3.328125 40.328125 11.328125 47.265625 
Q 18.015625 53.03125 27.640625 53.03125 
Q 38.328125 53.03125 45.109375 46.015625 
Q 51.90625 39.015625 51.90625 26.65625 
Q 51.90625 16.65625 48.90625 10.90625 
Q 45.90625 5.171875 40.15625 2 
Q 34.421875 -1.171875 27.640625 -1.171875 
Q 16.75 -1.171875 10.03125 5.8125 
Q 3.328125 12.796875 3.328125 25.921875 
z
M 12.359375 25.921875 
Q 12.359375 15.96875 16.703125 11.015625 
Q 21.046875 6.0625 27.640625 6.0625 
Q 34.1875 6.0625 38.53125 11.03125 
Q 42.875 16.015625 42.875 26.21875 
Q 42.875 35.84375 38.5 40.796875 
Q 34.125 45.75 27.640625 45.75 
Q 21.046875 45.75 16.703125 40.8125 
Q 12.359375 35.890625 12.359375 25.921875 
z
" id="ArialMT-111"/>
      <path d="M 16.15625 0 
L 0.296875 51.859375 
L 9.375 51.859375 
L 17.625 21.921875 
L 20.703125 10.796875 
Q 20.90625 11.625 23.390625 21.484375 
L 31.640625 51.859375 
L 40.671875 51.859375 
L 48.4375 21.78125 
L 51.03125 11.859375 
L 54 21.875 
L 62.890625 51.859375 
L 71.4375 51.859375 
L 55.21875 0 
L 46.09375 0 
L 37.84375 31.0625 
L 35.84375 39.890625 
L 25.34375 0 
z
" id="ArialMT-119"/>
      <path d="M 6.5 0 
L 6.5 51.859375 
L 14.40625 51.859375 
L 14.40625 44 
Q 17.4375 49.515625 20 51.265625 
Q 22.5625 53.03125 25.640625 53.03125 
Q 30.078125 53.03125 34.671875 50.203125 
L 31.640625 42.046875 
Q 28.421875 43.953125 25.203125 43.953125 
Q 22.3125 43.953125 20.015625 42.21875 
Q 17.71875 40.484375 16.75 37.40625 
Q 15.28125 32.71875 15.28125 27.15625 
L 15.28125 0 
z
" id="ArialMT-114"/>
     </defs>
     <use xlink:href="#ArialMT-65"/>
     <use x="66.699219" xlink:href="#ArialMT-99"/>
     <use x="116.699219" xlink:href="#ArialMT-116"/>
     <use x="144.482422" xlink:href="#ArialMT-105"/>
     <use x="166.699219" xlink:href="#ArialMT-118"/>
     <use x="216.699219" xlink:href="#ArialMT-101"/>
     <use x="272.314453" xlink:href="#ArialMT-32"/>
     <use x="300.097656" xlink:href="#ArialMT-80"/>
     <use x="366.796875" xlink:href="#ArialMT-111"/>
     <use x="422.412109" xlink:href="#ArialMT-119"/>
     <use x="494.628906" xlink:href="#ArialMT-101"/>
     <use x="550.244141" xlink:href="#ArialMT-114"/>
     <use x="583.544922" xlink:href="#ArialMT-32"/>
     <use x="611.328125" xlink:href="#ArialMT-80"/>
    </g>
   </g>
  </g>
  <g id="axes_2">
   <g id="patch_7">
    <path d="M 589.065938 226.043437 
L 1058.848454 226.043437 
L 1058.848454 27.006875 
L 589.065938 27.006875 
z
" style="fill:#eaeaf2;"/>
   </g>
   <g id="matplotlib.axis_3">
    <g id="xtick_10">
     <g id="line2d_16">
      <path clip-path="url(#p3b30f37be5)" d="M 610.419688 226.043437 
L 610.419688 27.006875 
" style="fill:none;stroke:#ffffff;stroke-linecap:round;"/>
     </g>
     <g id="text_17">
      <!-- 0 -->
      <g style="fill:#262626;" transform="translate(607.361173 243.417031)scale(0.11 -0.11)">
       <use xlink:href="#ArialMT-48"/>
      </g>
     </g>
    </g>
    <g id="xtick_11">
     <g id="line2d_17">
      <path clip-path="url(#p3b30f37be5)" d="M 666.319559 226.043437 
L 666.319559 27.006875 
" style="fill:none;stroke:#ffffff;stroke-linecap:round;"/>
     </g>
     <g id="text_18">
      <!-- 25 -->
      <g style="fill:#262626;" transform="translate(660.202528 243.417031)scale(0.11 -0.11)">
       <use xlink:href="#ArialMT-50"/>
       <use x="55.615234" xlink:href="#ArialMT-53"/>
      </g>
     </g>
    </g>
    <g id="xtick_12">
     <g id="line2d_18">
      <path clip-path="url(#p3b30f37be5)" d="M 722.21943 226.043437 
L 722.21943 27.006875 
" style="fill:none;stroke:#ffffff;stroke-linecap:round;"/>
     </g>
     <g id="text_19">
      <!-- 50 -->
      <g style="fill:#262626;" transform="translate(716.102399 243.417031)scale(0.11 -0.11)">
       <use xlink:href="#ArialMT-53"/>
       <use x="55.615234" xlink:href="#ArialMT-48"/>
      </g>
     </g>
    </g>
    <g id="xtick_13">
     <g id="line2d_19">
      <path clip-path="url(#p3b30f37be5)" d="M 778.119302 226.043437 
L 778.119302 27.006875 
" style="fill:none;stroke:#ffffff;stroke-linecap:round;"/>
     </g>
     <g id="text_20">
      <!-- 75 -->
      <g style="fill:#262626;" transform="translate(772.00227 243.417031)scale(0.11 -0.11)">
       <use xlink:href="#ArialMT-55"/>
       <use x="55.615234" xlink:href="#ArialMT-53"/>
      </g>
     </g>
    </g>
    <g id="xtick_14">
     <g id="line2d_20">
      <path clip-path="url(#p3b30f37be5)" d="M 834.019173 226.043437 
L 834.019173 27.006875 
" style="fill:none;stroke:#ffffff;stroke-linecap:round;"/>
     </g>
     <g id="text_21">
      <!-- 100 -->
      <g style="fill:#262626;" transform="translate(824.843626 243.417031)scale(0.11 -0.11)">
       <use xlink:href="#ArialMT-49"/>
       <use x="55.615234" xlink:href="#ArialMT-48"/>
       <use x="111.230469" xlink:href="#ArialMT-48"/>
      </g>
     </g>
    </g>
    <g id="xtick_15">
     <g id="line2d_21">
      <path clip-path="url(#p3b30f37be5)" d="M 889.919044 226.043437 
L 889.919044 27.006875 
" style="fill:none;stroke:#ffffff;stroke-linecap:round;"/>
     </g>
     <g id="text_22">
      <!-- 125 -->
      <g style="fill:#262626;" transform="translate(880.743497 243.417031)scale(0.11 -0.11)">
       <use xlink:href="#ArialMT-49"/>
       <use x="55.615234" xlink:href="#ArialMT-50"/>
       <use x="111.230469" xlink:href="#ArialMT-53"/>
      </g>
     </g>
    </g>
    <g id="xtick_16">
     <g id="line2d_22">
      <path clip-path="url(#p3b30f37be5)" d="M 945.818915 226.043437 
L 945.818915 27.006875 
" style="fill:none;stroke:#ffffff;stroke-linecap:round;"/>
     </g>
     <g id="text_23">
      <!-- 150 -->
      <g style="fill:#262626;" transform="translate(936.643368 243.417031)scale(0.11 -0.11)">
       <use xlink:href="#ArialMT-49"/>
       <use x="55.615234" xlink:href="#ArialMT-53"/>
       <use x="111.230469" xlink:href="#ArialMT-48"/>
      </g>
     </g>
    </g>
    <g id="xtick_17">
     <g id="line2d_23">
      <path clip-path="url(#p3b30f37be5)" d="M 1001.718786 226.043437 
L 1001.718786 27.006875 
" style="fill:none;stroke:#ffffff;stroke-linecap:round;"/>
     </g>
     <g id="text_24">
      <!-- 175 -->
      <g style="fill:#262626;" transform="translate(992.543239 243.417031)scale(0.11 -0.11)">
       <use xlink:href="#ArialMT-49"/>
       <use x="55.615234" xlink:href="#ArialMT-55"/>
       <use x="111.230469" xlink:href="#ArialMT-53"/>
      </g>
     </g>
    </g>
    <g id="xtick_18">
     <g id="line2d_24">
      <path clip-path="url(#p3b30f37be5)" d="M 1057.618657 226.043437 
L 1057.618657 27.006875 
" style="fill:none;stroke:#ffffff;stroke-linecap:round;"/>
     </g>
     <g id="text_25">
      <!-- 200 -->
      <g style="fill:#262626;" transform="translate(1048.44311 243.417031)scale(0.11 -0.11)">
       <use xlink:href="#ArialMT-50"/>
       <use x="55.615234" xlink:href="#ArialMT-48"/>
       <use x="111.230469" xlink:href="#ArialMT-48"/>
      </g>
     </g>
    </g>
   </g>
   <g id="matplotlib.axis_4">
    <g id="ytick_6">
     <g id="line2d_25">
      <path clip-path="url(#p3b30f37be5)" d="M 589.065938 220.169023 
L 1058.848454 220.169023 
" style="fill:none;stroke:#ffffff;stroke-linecap:round;"/>
     </g>
     <g id="text_26">
      <!-- 0 -->
      <g style="fill:#262626;" transform="translate(573.448906 224.10582)scale(0.11 -0.11)">
       <use xlink:href="#ArialMT-48"/>
      </g>
     </g>
    </g>
    <g id="ytick_7">
     <g id="line2d_26">
      <path clip-path="url(#p3b30f37be5)" d="M 589.065938 178.834068 
L 1058.848454 178.834068 
" style="fill:none;stroke:#ffffff;stroke-linecap:round;"/>
     </g>
     <g id="text_27">
      <!-- 50 -->
      <g style="fill:#262626;" transform="translate(567.331875 182.770865)scale(0.11 -0.11)">
       <use xlink:href="#ArialMT-53"/>
       <use x="55.615234" xlink:href="#ArialMT-48"/>
      </g>
     </g>
    </g>
    <g id="ytick_8">
     <g id="line2d_27">
      <path clip-path="url(#p3b30f37be5)" d="M 589.065938 137.499114 
L 1058.848454 137.499114 
" style="fill:none;stroke:#ffffff;stroke-linecap:round;"/>
     </g>
     <g id="text_28">
      <!-- 100 -->
      <g style="fill:#262626;" transform="translate(561.214844 141.43591)scale(0.11 -0.11)">
       <use xlink:href="#ArialMT-49"/>
       <use x="55.615234" xlink:href="#ArialMT-48"/>
       <use x="111.230469" xlink:href="#ArialMT-48"/>
      </g>
     </g>
    </g>
    <g id="ytick_9">
     <g id="line2d_28">
      <path clip-path="url(#p3b30f37be5)" d="M 589.065938 96.164159 
L 1058.848454 96.164159 
" style="fill:none;stroke:#ffffff;stroke-linecap:round;"/>
     </g>
     <g id="text_29">
      <!-- 150 -->
      <g style="fill:#262626;" transform="translate(561.214844 100.100956)scale(0.11 -0.11)">
       <use xlink:href="#ArialMT-49"/>
       <use x="55.615234" xlink:href="#ArialMT-53"/>
       <use x="111.230469" xlink:href="#ArialMT-48"/>
      </g>
     </g>
    </g>
    <g id="ytick_10">
     <g id="line2d_29">
      <path clip-path="url(#p3b30f37be5)" d="M 589.065938 54.829204 
L 1058.848454 54.829204 
" style="fill:none;stroke:#ffffff;stroke-linecap:round;"/>
     </g>
     <g id="text_30">
      <!-- 200 -->
      <g style="fill:#262626;" transform="translate(561.214844 58.766001)scale(0.11 -0.11)">
       <use xlink:href="#ArialMT-50"/>
       <use x="55.615234" xlink:href="#ArialMT-48"/>
       <use x="111.230469" xlink:href="#ArialMT-48"/>
      </g>
     </g>
    </g>
    <g id="text_31">
     <!-- Volt-Ampere (VA) -->
     <g style="fill:#262626;" transform="translate(554.689219 172.763594)rotate(-90)scale(0.12 -0.12)">
      <defs>
       <path d="M 28.171875 0 
L 0.4375 71.578125 
L 10.6875 71.578125 
L 29.296875 19.578125 
Q 31.546875 13.328125 33.0625 7.859375 
Q 34.71875 13.71875 36.921875 19.578125 
L 56.25 71.578125 
L 65.921875 71.578125 
L 37.890625 0 
z
" id="ArialMT-86"/>
       <path d="M 6.390625 0 
L 6.390625 71.578125 
L 15.1875 71.578125 
L 15.1875 0 
z
" id="ArialMT-108"/>
       <path d="M 3.171875 21.484375 
L 3.171875 30.328125 
L 30.171875 30.328125 
L 30.171875 21.484375 
z
" id="ArialMT-45"/>
       <path d="M 6.59375 0 
L 6.59375 51.859375 
L 14.453125 51.859375 
L 14.453125 44.578125 
Q 16.890625 48.390625 20.9375 50.703125 
Q 25 53.03125 30.171875 53.03125 
Q 35.9375 53.03125 39.625 50.640625 
Q 43.3125 48.25 44.828125 43.953125 
Q 50.984375 53.03125 60.84375 53.03125 
Q 68.5625 53.03125 72.703125 48.75 
Q 76.859375 44.484375 76.859375 35.59375 
L 76.859375 0 
L 68.109375 0 
L 68.109375 32.671875 
Q 68.109375 37.9375 67.25 40.25 
Q 66.40625 42.578125 64.15625 43.984375 
Q 61.921875 45.40625 58.890625 45.40625 
Q 53.421875 45.40625 49.796875 41.765625 
Q 46.1875 38.140625 46.1875 30.125 
L 46.1875 0 
L 37.40625 0 
L 37.40625 33.6875 
Q 37.40625 39.546875 35.25 42.46875 
Q 33.109375 45.40625 28.21875 45.40625 
Q 24.515625 45.40625 21.359375 43.453125 
Q 18.21875 41.5 16.796875 37.734375 
Q 15.375 33.984375 15.375 26.90625 
L 15.375 0 
z
" id="ArialMT-109"/>
       <path d="M 6.59375 -19.875 
L 6.59375 51.859375 
L 14.59375 51.859375 
L 14.59375 45.125 
Q 17.4375 49.078125 21 51.046875 
Q 24.5625 53.03125 29.640625 53.03125 
Q 36.28125 53.03125 41.359375 49.609375 
Q 46.4375 46.1875 49.015625 39.953125 
Q 51.609375 33.734375 51.609375 26.3125 
Q 51.609375 18.359375 48.75 11.984375 
Q 45.90625 5.609375 40.453125 2.21875 
Q 35.015625 -1.171875 29 -1.171875 
Q 24.609375 -1.171875 21.109375 0.6875 
Q 17.625 2.546875 15.375 5.375 
L 15.375 -19.875 
z
M 14.546875 25.640625 
Q 14.546875 15.625 18.59375 10.84375 
Q 22.65625 6.0625 28.421875 6.0625 
Q 34.28125 6.0625 38.453125 11.015625 
Q 42.625 15.96875 42.625 26.375 
Q 42.625 36.28125 38.546875 41.203125 
Q 34.46875 46.140625 28.8125 46.140625 
Q 23.1875 46.140625 18.859375 40.890625 
Q 14.546875 35.640625 14.546875 25.640625 
z
" id="ArialMT-112"/>
      </defs>
      <use xlink:href="#ArialMT-86"/>
      <use x="61.199219" xlink:href="#ArialMT-111"/>
      <use x="116.814453" xlink:href="#ArialMT-108"/>
      <use x="139.03125" xlink:href="#ArialMT-116"/>
      <use x="166.814453" xlink:href="#ArialMT-45"/>
      <use x="200.115234" xlink:href="#ArialMT-65"/>
      <use x="266.814453" xlink:href="#ArialMT-109"/>
      <use x="350.115234" xlink:href="#ArialMT-112"/>
      <use x="405.730469" xlink:href="#ArialMT-101"/>
      <use x="461.345703" xlink:href="#ArialMT-114"/>
      <use x="494.646484" xlink:href="#ArialMT-101"/>
      <use x="550.261719" xlink:href="#ArialMT-32"/>
      <use x="578.044922" xlink:href="#ArialMT-40"/>
      <use x="611.345703" xlink:href="#ArialMT-86"/>
      <use x="670.669922" xlink:href="#ArialMT-65"/>
      <use x="737.369141" xlink:href="#ArialMT-41"/>
     </g>
    </g>
   </g>
   <g id="line2d_30">
    <path clip-path="url(#p3b30f37be5)" d="M 610.419688 215.643823 
L 612.655683 214.67759 
L 614.891678 213.988494 
L 617.127673 215.327818 
L 619.363668 216.124277 
L 621.599662 215.662719 
L 623.835657 215.604863 
L 626.071652 215.938776 
L 628.307647 215.832946 
L 630.543642 215.033921 
L 632.779637 215.439232 
L 635.015632 214.839387 
L 637.251626 216.395236 
L 639.487621 215.857846 
L 641.723616 216.263865 
L 643.959611 216.161974 
L 646.195606 215.38843 
L 648.431601 215.37308 
L 650.667595 214.828499 
L 652.90359 214.053767 
L 655.139585 214.876254 
L 657.37558 215.522259 
L 659.611575 214.475886 
L 661.84757 215.854414 
L 664.083565 215.769564 
L 666.319559 216.996321 
L 668.555554 215.876744 
L 670.791549 216.013321 
L 673.027544 215.375611 
L 675.263539 215.095607 
L 677.499534 214.929431 
L 679.735528 215.714259 
L 684.207518 214.363703 
L 686.443513 215.652614 
L 688.679508 215.489731 
L 690.915503 216.456912 
L 693.151498 215.34665 
L 695.387492 215.566092 
L 697.623487 215.65321 
L 699.859482 216.85478 
L 702.095477 215.383888 
L 706.567467 216.26794 
L 708.803461 214.866243 
L 711.039456 216.011215 
L 713.275451 215.903426 
L 715.511446 216.479873 
L 717.747441 215.04505 
L 719.983436 216.034138 
L 722.21943 215.142929 
L 724.455425 216.445494 
L 726.69142 215.14681 
L 728.927415 215.812885 
L 731.16341 215.952754 
L 733.399405 214.828022 
L 735.6354 215.35587 
L 737.871394 214.971251 
L 740.107389 215.040062 
L 742.343384 216.122244 
L 744.579379 215.015881 
L 746.815374 216.2763 
L 749.051369 215.755082 
L 751.287363 214.895591 
L 753.523358 215.565238 
L 755.759353 216.046032 
L 760.231343 215.447894 
L 762.467338 215.952233 
L 764.703333 215.359619 
L 766.939327 215.586892 
L 769.175322 215.0131 
L 771.411317 210.6207 
L 773.647312 215.984803 
L 775.883307 213.928555 
L 780.355296 213.864767 
L 782.591291 214.803662 
L 784.827286 210.050463 
L 787.063281 212.422122 
L 789.299276 213.062892 
L 791.535271 211.750777 
L 793.771266 210.03933 
L 796.00726 211.571745 
L 798.243255 211.734879 
L 800.47925 207.538219 
L 802.715245 210.584716 
L 804.95124 208.01368 
L 807.187235 210.554965 
L 809.423229 211.694328 
L 811.659224 208.057282 
L 813.895219 210.071837 
L 816.131214 209.408644 
L 818.367209 212.995775 
L 820.603204 212.339208 
L 822.839198 213.413992 
L 825.075193 211.931584 
L 827.311188 212.694219 
L 829.547183 213.889556 
L 831.783178 211.961377 
L 834.019173 204.929247 
L 836.255168 36.053991 
L 838.491162 112.13415 
L 840.727157 164.909658 
L 842.963152 170.091883 
L 845.199147 188.273876 
L 847.435142 194.475176 
L 849.671137 185.8157 
L 851.907131 170.765711 
L 854.143126 166.520111 
L 856.379121 172.348474 
L 858.615116 177.356676 
L 860.851111 176.870888 
L 863.087106 173.930194 
L 865.323101 174.753554 
L 867.559095 174.238242 
L 869.79509 174.998214 
L 872.031085 174.323417 
L 874.26708 174.800416 
L 876.503075 175.729384 
L 878.73907 175.164248 
L 880.975064 173.982699 
L 883.211059 173.091634 
L 885.447054 174.437165 
L 887.683049 174.4156 
L 889.919044 174.851974 
L 894.391034 174.634259 
L 896.627028 174.920647 
L 898.863023 174.560666 
L 901.099018 174.934139 
L 903.335013 174.39058 
L 907.807003 175.478593 
L 910.042997 175.779766 
L 912.278992 176.846937 
L 914.514987 176.649054 
L 916.750982 174.682228 
L 918.986977 175.078217 
L 921.222972 174.818899 
L 923.458966 175.680364 
L 925.694961 174.936797 
L 927.930956 174.813396 
L 930.166951 175.08665 
L 932.402946 174.947885 
L 934.638941 173.955527 
L 936.874936 174.307378 
L 939.11093 175.202116 
L 941.346925 174.6539 
L 943.58292 174.735275 
L 945.818915 175.285469 
L 948.05491 174.11176 
L 950.290905 173.776919 
L 952.526899 175.025117 
L 954.762894 175.037176 
L 956.998889 174.54148 
L 959.234884 174.434762 
L 961.470879 174.511492 
L 963.706874 175.95744 
L 965.942869 174.752112 
L 968.178863 174.947131 
L 970.414858 174.494201 
L 972.650853 176.586862 
L 974.886848 175.086827 
L 977.122843 174.265489 
L 979.358838 174.390252 
L 981.594832 173.600737 
L 983.830827 175.62979 
L 986.066822 175.406032 
L 988.302817 174.107525 
L 990.538812 175.229228 
L 992.774807 173.098427 
L 995.010801 175.786442 
L 997.246796 174.798026 
L 999.482791 174.911165 
L 1001.718786 175.156815 
L 1003.954781 176.852336 
L 1006.190776 174.170184 
L 1008.426771 175.645551 
L 1010.662765 176.032669 
L 1012.89876 174.878711 
L 1015.134755 176.15051 
L 1017.37075 174.760908 
L 1019.606745 175.094203 
L 1021.84274 175.612183 
L 1024.078734 175.492346 
L 1026.314729 175.629512 
L 1028.550724 176.618474 
L 1030.786719 174.959762 
L 1033.022714 173.879765 
L 1035.258709 174.390075 
L 1037.494704 175.42788 
L 1037.494704 175.42788 
" style="fill:none;stroke:#4c72b0;stroke-linecap:round;stroke-width:1.5;"/>
   </g>
   <g id="patch_8">
    <path d="M 589.065938 226.043437 
L 589.065938 27.006875 
" style="fill:none;stroke:#ffffff;stroke-linecap:square;stroke-linejoin:miter;stroke-width:1.25;"/>
   </g>
   <g id="patch_9">
    <path d="M 1058.848454 226.043437 
L 1058.848454 27.006875 
" style="fill:none;stroke:#ffffff;stroke-linecap:square;stroke-linejoin:miter;stroke-width:1.25;"/>
   </g>
   <g id="patch_10">
    <path d="M 589.065938 226.043437 
L 1058.848454 226.043437 
" style="fill:none;stroke:#ffffff;stroke-linecap:square;stroke-linejoin:miter;stroke-width:1.25;"/>
   </g>
   <g id="patch_11">
    <path d="M 589.065938 27.006875 
L 1058.848454 27.006875 
" style="fill:none;stroke:#ffffff;stroke-linecap:square;stroke-linejoin:miter;stroke-width:1.25;"/>
   </g>
   <g id="text_32">
    <!-- Apparent Power S -->
    <g style="fill:#262626;" transform="translate(775.265321 21.006875)scale(0.12 -0.12)">
     <defs>
      <path d="M 6.59375 0 
L 6.59375 51.859375 
L 14.5 51.859375 
L 14.5 44.484375 
Q 20.21875 53.03125 31 53.03125 
Q 35.6875 53.03125 39.625 51.34375 
Q 43.5625 49.65625 45.515625 46.921875 
Q 47.46875 44.1875 48.25 40.4375 
Q 48.734375 37.984375 48.734375 31.890625 
L 48.734375 0 
L 39.9375 0 
L 39.9375 31.546875 
Q 39.9375 36.921875 38.90625 39.578125 
Q 37.890625 42.234375 35.28125 43.8125 
Q 32.671875 45.40625 29.15625 45.40625 
Q 23.53125 45.40625 19.453125 41.84375 
Q 15.375 38.28125 15.375 28.328125 
L 15.375 0 
z
" id="ArialMT-110"/>
      <path d="M 4.5 23 
L 13.421875 23.78125 
Q 14.0625 18.40625 16.375 14.96875 
Q 18.703125 11.53125 23.578125 9.40625 
Q 28.46875 7.28125 34.578125 7.28125 
Q 39.984375 7.28125 44.140625 8.890625 
Q 48.296875 10.5 50.3125 13.296875 
Q 52.34375 16.109375 52.34375 19.4375 
Q 52.34375 22.796875 50.390625 25.3125 
Q 48.4375 27.828125 43.953125 29.546875 
Q 41.0625 30.671875 31.203125 33.03125 
Q 21.34375 35.40625 17.390625 37.5 
Q 12.25 40.1875 9.734375 44.15625 
Q 7.234375 48.140625 7.234375 53.078125 
Q 7.234375 58.5 10.296875 63.203125 
Q 13.375 67.921875 19.28125 70.359375 
Q 25.203125 72.796875 32.421875 72.796875 
Q 40.375 72.796875 46.453125 70.234375 
Q 52.546875 67.671875 55.8125 62.6875 
Q 59.078125 57.71875 59.328125 51.421875 
L 50.25 50.734375 
Q 49.515625 57.515625 45.28125 60.984375 
Q 41.0625 64.453125 32.8125 64.453125 
Q 24.21875 64.453125 20.28125 61.296875 
Q 16.359375 58.15625 16.359375 53.71875 
Q 16.359375 49.859375 19.140625 47.359375 
Q 21.875 44.875 33.421875 42.265625 
Q 44.96875 39.65625 49.265625 37.703125 
Q 55.515625 34.8125 58.484375 30.390625 
Q 61.46875 25.984375 61.46875 20.21875 
Q 61.46875 14.5 58.203125 9.4375 
Q 54.9375 4.390625 48.796875 1.578125 
Q 42.671875 -1.21875 35.015625 -1.21875 
Q 25.296875 -1.21875 18.71875 1.609375 
Q 12.15625 4.4375 8.421875 10.125 
Q 4.6875 15.828125 4.5 23 
z
" id="ArialMT-83"/>
     </defs>
     <use xlink:href="#ArialMT-65"/>
     <use x="66.699219" xlink:href="#ArialMT-112"/>
     <use x="122.314453" xlink:href="#ArialMT-112"/>
     <use x="177.929688" xlink:href="#ArialMT-97"/>
     <use x="233.544922" xlink:href="#ArialMT-114"/>
     <use x="266.845703" xlink:href="#ArialMT-101"/>
     <use x="322.460938" xlink:href="#ArialMT-110"/>
     <use x="378.076172" xlink:href="#ArialMT-116"/>
     <use x="405.859375" xlink:href="#ArialMT-32"/>
     <use x="433.642578" xlink:href="#ArialMT-80"/>
     <use x="500.341797" xlink:href="#ArialMT-111"/>
     <use x="555.957031" xlink:href="#ArialMT-119"/>
     <use x="628.173828" xlink:href="#ArialMT-101"/>
     <use x="683.789062" xlink:href="#ArialMT-114"/>
     <use x="717.089844" xlink:href="#ArialMT-32"/>
     <use x="744.873047" xlink:href="#ArialMT-83"/>
    </g>
   </g>
  </g>
  <g id="axes_3">
   <g id="patch_12">
    <path d="M 54.881875 471.54 
L 524.664392 471.54 
L 524.664392 272.503437 
L 54.881875 272.503437 
z
" style="fill:#eaeaf2;"/>
   </g>
   <g id="matplotlib.axis_5">
    <g id="xtick_19">
     <g id="line2d_31">
      <path clip-path="url(#p8577630468)" d="M 76.235626 471.54 
L 76.235626 272.503437 
" style="fill:none;stroke:#ffffff;stroke-linecap:round;"/>
     </g>
     <g id="text_33">
      <!-- 0 -->
      <g style="fill:#262626;" transform="translate(73.17711 488.913594)scale(0.11 -0.11)">
       <use xlink:href="#ArialMT-48"/>
      </g>
     </g>
    </g>
    <g id="xtick_20">
     <g id="line2d_32">
      <path clip-path="url(#p8577630468)" d="M 132.135497 471.54 
L 132.135497 272.503437 
" style="fill:none;stroke:#ffffff;stroke-linecap:round;"/>
     </g>
     <g id="text_34">
      <!-- 25 -->
      <g style="fill:#262626;" transform="translate(126.018466 488.913594)scale(0.11 -0.11)">
       <use xlink:href="#ArialMT-50"/>
       <use x="55.615234" xlink:href="#ArialMT-53"/>
      </g>
     </g>
    </g>
    <g id="xtick_21">
     <g id="line2d_33">
      <path clip-path="url(#p8577630468)" d="M 188.035368 471.54 
L 188.035368 272.503437 
" style="fill:none;stroke:#ffffff;stroke-linecap:round;"/>
     </g>
     <g id="text_35">
      <!-- 50 -->
      <g style="fill:#262626;" transform="translate(181.918337 488.913594)scale(0.11 -0.11)">
       <use xlink:href="#ArialMT-53"/>
       <use x="55.615234" xlink:href="#ArialMT-48"/>
      </g>
     </g>
    </g>
    <g id="xtick_22">
     <g id="line2d_34">
      <path clip-path="url(#p8577630468)" d="M 243.935239 471.54 
L 243.935239 272.503437 
" style="fill:none;stroke:#ffffff;stroke-linecap:round;"/>
     </g>
     <g id="text_36">
      <!-- 75 -->
      <g style="fill:#262626;" transform="translate(237.818208 488.913594)scale(0.11 -0.11)">
       <use xlink:href="#ArialMT-55"/>
       <use x="55.615234" xlink:href="#ArialMT-53"/>
      </g>
     </g>
    </g>
    <g id="xtick_23">
     <g id="line2d_35">
      <path clip-path="url(#p8577630468)" d="M 299.83511 471.54 
L 299.83511 272.503437 
" style="fill:none;stroke:#ffffff;stroke-linecap:round;"/>
     </g>
     <g id="text_37">
      <!-- 100 -->
      <g style="fill:#262626;" transform="translate(290.659563 488.913594)scale(0.11 -0.11)">
       <use xlink:href="#ArialMT-49"/>
       <use x="55.615234" xlink:href="#ArialMT-48"/>
       <use x="111.230469" xlink:href="#ArialMT-48"/>
      </g>
     </g>
    </g>
    <g id="xtick_24">
     <g id="line2d_36">
      <path clip-path="url(#p8577630468)" d="M 355.734981 471.54 
L 355.734981 272.503437 
" style="fill:none;stroke:#ffffff;stroke-linecap:round;"/>
     </g>
     <g id="text_38">
      <!-- 125 -->
      <g style="fill:#262626;" transform="translate(346.559434 488.913594)scale(0.11 -0.11)">
       <use xlink:href="#ArialMT-49"/>
       <use x="55.615234" xlink:href="#ArialMT-50"/>
       <use x="111.230469" xlink:href="#ArialMT-53"/>
      </g>
     </g>
    </g>
    <g id="xtick_25">
     <g id="line2d_37">
      <path clip-path="url(#p8577630468)" d="M 411.634852 471.54 
L 411.634852 272.503437 
" style="fill:none;stroke:#ffffff;stroke-linecap:round;"/>
     </g>
     <g id="text_39">
      <!-- 150 -->
      <g style="fill:#262626;" transform="translate(402.459306 488.913594)scale(0.11 -0.11)">
       <use xlink:href="#ArialMT-49"/>
       <use x="55.615234" xlink:href="#ArialMT-53"/>
       <use x="111.230469" xlink:href="#ArialMT-48"/>
      </g>
     </g>
    </g>
    <g id="xtick_26">
     <g id="line2d_38">
      <path clip-path="url(#p8577630468)" d="M 467.534724 471.54 
L 467.534724 272.503437 
" style="fill:none;stroke:#ffffff;stroke-linecap:round;"/>
     </g>
     <g id="text_40">
      <!-- 175 -->
      <g style="fill:#262626;" transform="translate(458.359177 488.913594)scale(0.11 -0.11)">
       <use xlink:href="#ArialMT-49"/>
       <use x="55.615234" xlink:href="#ArialMT-55"/>
       <use x="111.230469" xlink:href="#ArialMT-53"/>
      </g>
     </g>
    </g>
    <g id="xtick_27">
     <g id="line2d_39">
      <path clip-path="url(#p8577630468)" d="M 523.434595 471.54 
L 523.434595 272.503437 
" style="fill:none;stroke:#ffffff;stroke-linecap:round;"/>
     </g>
     <g id="text_41">
      <!-- 200 -->
      <g style="fill:#262626;" transform="translate(514.259048 488.913594)scale(0.11 -0.11)">
       <use xlink:href="#ArialMT-50"/>
       <use x="55.615234" xlink:href="#ArialMT-48"/>
       <use x="111.230469" xlink:href="#ArialMT-48"/>
      </g>
     </g>
    </g>
   </g>
   <g id="matplotlib.axis_6">
    <g id="ytick_11">
     <g id="line2d_40">
      <path clip-path="url(#p8577630468)" d="M 54.881875 468.116967 
L 524.664392 468.116967 
" style="fill:none;stroke:#ffffff;stroke-linecap:round;"/>
     </g>
     <g id="text_42">
      <!-- 0 -->
      <g style="fill:#262626;" transform="translate(39.264844 472.053764)scale(0.11 -0.11)">
       <use xlink:href="#ArialMT-48"/>
      </g>
     </g>
    </g>
    <g id="ytick_12">
     <g id="line2d_41">
      <path clip-path="url(#p8577630468)" d="M 54.881875 427.464924 
L 524.664392 427.464924 
" style="fill:none;stroke:#ffffff;stroke-linecap:round;"/>
     </g>
     <g id="text_43">
      <!-- 20 -->
      <g style="fill:#262626;" transform="translate(33.147812 431.40172)scale(0.11 -0.11)">
       <use xlink:href="#ArialMT-50"/>
       <use x="55.615234" xlink:href="#ArialMT-48"/>
      </g>
     </g>
    </g>
    <g id="ytick_13">
     <g id="line2d_42">
      <path clip-path="url(#p8577630468)" d="M 54.881875 386.81288 
L 524.664392 386.81288 
" style="fill:none;stroke:#ffffff;stroke-linecap:round;"/>
     </g>
     <g id="text_44">
      <!-- 40 -->
      <g style="fill:#262626;" transform="translate(33.147812 390.749677)scale(0.11 -0.11)">
       <defs>
        <path d="M 32.328125 0 
L 32.328125 17.140625 
L 1.265625 17.140625 
L 1.265625 25.203125 
L 33.9375 71.578125 
L 41.109375 71.578125 
L 41.109375 25.203125 
L 50.78125 25.203125 
L 50.78125 17.140625 
L 41.109375 17.140625 
L 41.109375 0 
z
M 32.328125 25.203125 
L 32.328125 57.46875 
L 9.90625 25.203125 
z
" id="ArialMT-52"/>
       </defs>
       <use xlink:href="#ArialMT-52"/>
       <use x="55.615234" xlink:href="#ArialMT-48"/>
      </g>
     </g>
    </g>
    <g id="ytick_14">
     <g id="line2d_43">
      <path clip-path="url(#p8577630468)" d="M 54.881875 346.160837 
L 524.664392 346.160837 
" style="fill:none;stroke:#ffffff;stroke-linecap:round;"/>
     </g>
     <g id="text_45">
      <!-- 60 -->
      <g style="fill:#262626;" transform="translate(33.147812 350.097634)scale(0.11 -0.11)">
       <defs>
        <path d="M 49.75 54.046875 
L 41.015625 53.375 
Q 39.84375 58.546875 37.703125 60.890625 
Q 34.125 64.65625 28.90625 64.65625 
Q 24.703125 64.65625 21.53125 62.3125 
Q 17.390625 59.28125 14.984375 53.46875 
Q 12.59375 47.65625 12.5 36.921875 
Q 15.671875 41.75 20.265625 44.09375 
Q 24.859375 46.4375 29.890625 46.4375 
Q 38.671875 46.4375 44.84375 39.96875 
Q 51.03125 33.5 51.03125 23.25 
Q 51.03125 16.5 48.125 10.71875 
Q 45.21875 4.9375 40.140625 1.859375 
Q 35.0625 -1.21875 28.609375 -1.21875 
Q 17.625 -1.21875 10.6875 6.859375 
Q 3.765625 14.9375 3.765625 33.5 
Q 3.765625 54.25 11.421875 63.671875 
Q 18.109375 71.875 29.4375 71.875 
Q 37.890625 71.875 43.28125 67.140625 
Q 48.6875 62.40625 49.75 54.046875 
z
M 13.875 23.1875 
Q 13.875 18.65625 15.796875 14.5 
Q 17.71875 10.359375 21.1875 8.171875 
Q 24.65625 6 28.46875 6 
Q 34.03125 6 38.03125 10.484375 
Q 42.046875 14.984375 42.046875 22.703125 
Q 42.046875 30.125 38.078125 34.390625 
Q 34.125 38.671875 28.125 38.671875 
Q 22.171875 38.671875 18.015625 34.390625 
Q 13.875 30.125 13.875 23.1875 
z
" id="ArialMT-54"/>
       </defs>
       <use xlink:href="#ArialMT-54"/>
       <use x="55.615234" xlink:href="#ArialMT-48"/>
      </g>
     </g>
    </g>
    <g id="ytick_15">
     <g id="line2d_44">
      <path clip-path="url(#p8577630468)" d="M 54.881875 305.508794 
L 524.664392 305.508794 
" style="fill:none;stroke:#ffffff;stroke-linecap:round;"/>
     </g>
     <g id="text_46">
      <!-- 80 -->
      <g style="fill:#262626;" transform="translate(33.147812 309.445591)scale(0.11 -0.11)">
       <defs>
        <path d="M 17.671875 38.8125 
Q 12.203125 40.828125 9.5625 44.53125 
Q 6.9375 48.25 6.9375 53.421875 
Q 6.9375 61.234375 12.546875 66.546875 
Q 18.171875 71.875 27.484375 71.875 
Q 36.859375 71.875 42.578125 66.421875 
Q 48.296875 60.984375 48.296875 53.171875 
Q 48.296875 48.1875 45.671875 44.5 
Q 43.0625 40.828125 37.75 38.8125 
Q 44.34375 36.671875 47.78125 31.875 
Q 51.21875 27.09375 51.21875 20.453125 
Q 51.21875 11.28125 44.71875 5.03125 
Q 38.234375 -1.21875 27.640625 -1.21875 
Q 17.046875 -1.21875 10.546875 5.046875 
Q 4.046875 11.328125 4.046875 20.703125 
Q 4.046875 27.6875 7.59375 32.390625 
Q 11.140625 37.109375 17.671875 38.8125 
z
M 15.921875 53.71875 
Q 15.921875 48.640625 19.1875 45.40625 
Q 22.46875 42.1875 27.6875 42.1875 
Q 32.765625 42.1875 36.015625 45.375 
Q 39.265625 48.578125 39.265625 53.21875 
Q 39.265625 58.0625 35.90625 61.359375 
Q 32.5625 64.65625 27.59375 64.65625 
Q 22.5625 64.65625 19.234375 61.421875 
Q 15.921875 58.203125 15.921875 53.71875 
z
M 13.09375 20.65625 
Q 13.09375 16.890625 14.875 13.375 
Q 16.65625 9.859375 20.171875 7.921875 
Q 23.6875 6 27.734375 6 
Q 34.03125 6 38.125 10.046875 
Q 42.234375 14.109375 42.234375 20.359375 
Q 42.234375 26.703125 38.015625 30.859375 
Q 33.796875 35.015625 27.4375 35.015625 
Q 21.234375 35.015625 17.15625 30.90625 
Q 13.09375 26.8125 13.09375 20.65625 
z
" id="ArialMT-56"/>
       </defs>
       <use xlink:href="#ArialMT-56"/>
       <use x="55.615234" xlink:href="#ArialMT-48"/>
      </g>
     </g>
    </g>
    <g id="text_47">
     <!-- Volt-Amperes-Reactive(VAR) -->
     <g style="fill:#262626;" transform="translate(26.622187 449.267031)rotate(-90)scale(0.12 -0.12)">
      <defs>
       <path d="M 7.859375 0 
L 7.859375 71.578125 
L 39.59375 71.578125 
Q 49.171875 71.578125 54.140625 69.640625 
Q 59.125 67.71875 62.109375 62.828125 
Q 65.09375 57.953125 65.09375 52.046875 
Q 65.09375 44.4375 60.15625 39.203125 
Q 55.21875 33.984375 44.921875 32.5625 
Q 48.6875 30.765625 50.640625 29 
Q 54.78125 25.203125 58.5 19.484375 
L 70.953125 0 
L 59.03125 0 
L 49.5625 14.890625 
Q 45.40625 21.34375 42.71875 24.75 
Q 40.046875 28.171875 37.921875 29.53125 
Q 35.796875 30.90625 33.59375 31.453125 
Q 31.984375 31.78125 28.328125 31.78125 
L 17.328125 31.78125 
L 17.328125 0 
z
M 17.328125 39.984375 
L 37.703125 39.984375 
Q 44.1875 39.984375 47.84375 41.328125 
Q 51.515625 42.671875 53.421875 45.625 
Q 55.328125 48.578125 55.328125 52.046875 
Q 55.328125 57.125 51.640625 60.390625 
Q 47.953125 63.671875 39.984375 63.671875 
L 17.328125 63.671875 
z
" id="ArialMT-82"/>
      </defs>
      <use xlink:href="#ArialMT-86"/>
      <use x="61.199219" xlink:href="#ArialMT-111"/>
      <use x="116.814453" xlink:href="#ArialMT-108"/>
      <use x="139.03125" xlink:href="#ArialMT-116"/>
      <use x="166.814453" xlink:href="#ArialMT-45"/>
      <use x="200.115234" xlink:href="#ArialMT-65"/>
      <use x="266.814453" xlink:href="#ArialMT-109"/>
      <use x="350.115234" xlink:href="#ArialMT-112"/>
      <use x="405.730469" xlink:href="#ArialMT-101"/>
      <use x="461.345703" xlink:href="#ArialMT-114"/>
      <use x="494.646484" xlink:href="#ArialMT-101"/>
      <use x="550.261719" xlink:href="#ArialMT-115"/>
      <use x="600.261719" xlink:href="#ArialMT-45"/>
      <use x="633.5625" xlink:href="#ArialMT-82"/>
      <use x="705.779297" xlink:href="#ArialMT-101"/>
      <use x="761.394531" xlink:href="#ArialMT-97"/>
      <use x="817.009766" xlink:href="#ArialMT-99"/>
      <use x="867.009766" xlink:href="#ArialMT-116"/>
      <use x="894.792969" xlink:href="#ArialMT-105"/>
      <use x="917.009766" xlink:href="#ArialMT-118"/>
      <use x="967.009766" xlink:href="#ArialMT-101"/>
      <use x="1022.625" xlink:href="#ArialMT-40"/>
      <use x="1055.925781" xlink:href="#ArialMT-86"/>
      <use x="1115.25" xlink:href="#ArialMT-65"/>
      <use x="1181.949219" xlink:href="#ArialMT-82"/>
      <use x="1254.166016" xlink:href="#ArialMT-41"/>
     </g>
    </g>
   </g>
   <g id="line2d_45">
    <path clip-path="url(#p8577630468)" d="M 76.235626 459.206564 
L 78.471621 456.763041 
L 80.707615 457.115997 
L 82.94361 457.808043 
L 85.179605 459.968539 
L 87.4156 459.40013 
L 89.651595 458.085996 
L 91.88759 457.832994 
L 94.123585 462.492884 
L 96.359579 456.244625 
L 98.595574 458.747135 
L 100.831569 457.361156 
L 103.067564 459.549787 
L 105.303559 458.879599 
L 107.539554 459.976283 
L 109.775548 460.040996 
L 112.011543 458.66807 
L 114.247538 458.918018 
L 116.483533 457.536095 
L 118.719528 457.277071 
L 120.955523 457.132737 
L 123.191517 458.863522 
L 125.427512 456.106956 
L 127.663507 457.727071 
L 129.899502 458.651452 
L 132.135497 460.484163 
L 134.371492 459.726207 
L 136.607487 458.598668 
L 138.843481 457.94474 
L 141.079476 456.432768 
L 143.315471 457.652996 
L 145.551466 458.340477 
L 147.787461 456.741275 
L 150.023456 456.182661 
L 152.25945 458.202674 
L 154.495445 457.824101 
L 156.73144 461.07302 
L 158.967435 457.796995 
L 161.20343 459.519214 
L 163.439425 459.548521 
L 165.67542 461.846005 
L 167.911414 457.273913 
L 170.147409 459.484805 
L 172.383404 462.097907 
L 174.619399 457.95925 
L 176.855394 459.470786 
L 179.091389 460.288674 
L 181.327383 459.735207 
L 183.563378 458.185902 
L 185.799373 459.489887 
L 188.035368 458.658664 
L 190.271363 461.183989 
L 192.507358 458.927307 
L 194.743353 458.145711 
L 196.979347 458.47563 
L 199.215342 457.31638 
L 201.451337 458.468224 
L 203.687332 457.144792 
L 205.923327 459.929565 
L 208.159322 459.085268 
L 210.395316 457.541275 
L 212.631311 459.351981 
L 214.867306 458.520038 
L 217.103301 456.953874 
L 219.339296 458.021274 
L 221.575291 462.355923 
L 223.811285 459.466571 
L 226.04728 459.100881 
L 228.283275 458.896885 
L 230.51927 457.10176 
L 232.755265 459.817302 
L 234.99126 456.578797 
L 237.227255 449.775009 
L 239.463249 458.034061 
L 241.699244 456.830868 
L 243.935239 453.920767 
L 246.171234 453.58339 
L 248.407229 457.442028 
L 250.643224 447.36732 
L 252.879218 452.664301 
L 255.115213 458.683345 
L 257.351208 453.311709 
L 259.587203 449.165516 
L 261.823198 452.152365 
L 264.059193 452.189439 
L 266.295188 446.51247 
L 268.531182 451.629581 
L 270.767177 444.662796 
L 273.003172 449.919436 
L 275.239167 452.253615 
L 277.475162 445.984456 
L 279.711157 448.617566 
L 281.947151 445.441501 
L 284.183146 452.853752 
L 286.419141 452.17803 
L 288.655136 454.776762 
L 290.891131 451.589843 
L 293.127126 454.174487 
L 295.363121 454.752791 
L 297.599115 453.752909 
L 299.83511 439.181234 
L 302.071105 382.201664 
L 304.3071 281.550554 
L 306.543095 376.0403 
L 308.77909 410.338755 
L 311.015084 439.632991 
L 313.251079 446.47148 
L 315.487074 442.386945 
L 317.723069 436.61879 
L 319.959064 432.864911 
L 322.195059 438.012096 
L 324.431053 443.657376 
L 326.667048 439.070111 
L 328.903043 436.96688 
L 331.139038 435.81707 
L 333.375033 438.805045 
L 335.611028 442.716468 
L 337.847023 439.446978 
L 340.083017 440.576486 
L 342.319012 440.794772 
L 344.555007 440.839073 
L 346.791002 439.550759 
L 349.026997 438.072818 
L 351.262992 436.017269 
L 353.498986 438.307212 
L 355.734981 435.543409 
L 357.970976 437.844468 
L 360.206971 437.79252 
L 362.442966 437.889616 
L 364.678961 439.065387 
L 366.914956 441.536086 
L 369.15095 440.142227 
L 371.386945 435.96369 
L 373.62294 440.321331 
L 375.858935 438.644561 
L 378.09493 439.708713 
L 380.330925 439.309309 
L 382.566919 438.038744 
L 384.802914 439.809926 
L 387.038909 441.059032 
L 389.274904 440.863248 
L 391.510899 437.667097 
L 393.746894 439.983275 
L 395.982889 440.359534 
L 398.218883 438.002079 
L 400.454878 436.84135 
L 402.690873 436.031429 
L 404.926868 439.742872 
L 407.162863 437.985757 
L 409.398858 437.580348 
L 411.634852 439.76277 
L 413.870847 440.220471 
L 416.106842 438.829866 
L 418.342837 436.827709 
L 420.578832 439.235805 
L 422.814827 440.454758 
L 425.050821 438.652947 
L 427.286816 438.080072 
L 429.522811 437.858081 
L 431.758806 436.945338 
L 433.994801 436.358002 
L 436.230796 436.160041 
L 438.466791 438.141352 
L 440.702785 438.155184 
L 442.93878 440.063591 
L 445.174775 438.53465 
L 447.41077 439.295185 
L 451.88276 437.63356 
L 454.118754 438.09443 
L 456.354749 440.920156 
L 458.590744 436.752513 
L 460.826739 438.376287 
L 463.062734 438.994056 
L 465.298729 436.809953 
L 467.534724 437.262019 
L 469.770718 439.573809 
L 472.006713 436.599198 
L 474.242708 439.035647 
L 476.478703 439.121096 
L 478.714698 439.341785 
L 480.950693 439.371333 
L 483.186687 437.98989 
L 485.422682 437.736972 
L 487.658677 438.727396 
L 489.894672 438.193703 
L 492.130667 438.925614 
L 494.366662 438.651303 
L 496.602657 441.123152 
L 498.838651 437.597282 
L 501.074646 439.816393 
L 503.310641 437.110803 
L 503.310641 437.110803 
" style="fill:none;stroke:#4c72b0;stroke-linecap:round;stroke-width:1.5;"/>
   </g>
   <g id="patch_13">
    <path d="M 54.881875 471.54 
L 54.881875 272.503438 
" style="fill:none;stroke:#ffffff;stroke-linecap:square;stroke-linejoin:miter;stroke-width:1.25;"/>
   </g>
   <g id="patch_14">
    <path d="M 524.664392 471.54 
L 524.664392 272.503438 
" style="fill:none;stroke:#ffffff;stroke-linecap:square;stroke-linejoin:miter;stroke-width:1.25;"/>
   </g>
   <g id="patch_15">
    <path d="M 54.881875 471.54 
L 524.664392 471.54 
" style="fill:none;stroke:#ffffff;stroke-linecap:square;stroke-linejoin:miter;stroke-width:1.25;"/>
   </g>
   <g id="patch_16">
    <path d="M 54.881875 272.503437 
L 524.664392 272.503437 
" style="fill:none;stroke:#ffffff;stroke-linecap:square;stroke-linejoin:miter;stroke-width:1.25;"/>
   </g>
   <g id="text_48">
    <!-- Reactive Power Q -->
    <g style="fill:#262626;" transform="translate(241.423446 266.503437)scale(0.12 -0.12)">
     <defs>
      <path d="M 61.96875 7.671875 
Q 68.5625 3.125 74.125 1.03125 
L 71.34375 -5.5625 
Q 63.625 -2.78125 55.953125 3.21875 
Q 48 -1.21875 38.375 -1.21875 
Q 28.65625 -1.21875 20.75 3.46875 
Q 12.84375 8.15625 8.5625 16.640625 
Q 4.296875 25.140625 4.296875 35.796875 
Q 4.296875 46.390625 8.59375 55.078125 
Q 12.890625 63.765625 20.828125 68.3125 
Q 28.765625 72.859375 38.578125 72.859375 
Q 48.484375 72.859375 56.4375 68.140625 
Q 64.40625 63.421875 68.578125 54.953125 
Q 72.75 46.484375 72.75 35.84375 
Q 72.75 27 70.0625 19.9375 
Q 67.390625 12.890625 61.96875 7.671875 
z
M 41.109375 19.78125 
Q 49.3125 17.484375 54.640625 12.9375 
Q 62.984375 20.5625 62.984375 35.84375 
Q 62.984375 44.53125 60.03125 51.015625 
Q 57.078125 57.515625 51.390625 61.109375 
Q 45.703125 64.703125 38.625 64.703125 
Q 28.03125 64.703125 21.046875 57.453125 
Q 14.0625 50.203125 14.0625 35.796875 
Q 14.0625 21.828125 20.96875 14.359375 
Q 27.875 6.890625 38.625 6.890625 
Q 43.703125 6.890625 48.1875 8.796875 
Q 43.75 11.671875 38.8125 12.890625 
z
" id="ArialMT-81"/>
     </defs>
     <use xlink:href="#ArialMT-82"/>
     <use x="72.216797" xlink:href="#ArialMT-101"/>
     <use x="127.832031" xlink:href="#ArialMT-97"/>
     <use x="183.447266" xlink:href="#ArialMT-99"/>
     <use x="233.447266" xlink:href="#ArialMT-116"/>
     <use x="261.230469" xlink:href="#ArialMT-105"/>
     <use x="283.447266" xlink:href="#ArialMT-118"/>
     <use x="333.447266" xlink:href="#ArialMT-101"/>
     <use x="389.0625" xlink:href="#ArialMT-32"/>
     <use x="416.845703" xlink:href="#ArialMT-80"/>
     <use x="483.544922" xlink:href="#ArialMT-111"/>
     <use x="539.160156" xlink:href="#ArialMT-119"/>
     <use x="611.376953" xlink:href="#ArialMT-101"/>
     <use x="666.992188" xlink:href="#ArialMT-114"/>
     <use x="700.292969" xlink:href="#ArialMT-32"/>
     <use x="728.076172" xlink:href="#ArialMT-81"/>
    </g>
   </g>
  </g>
  <g id="axes_4">
   <g id="patch_17">
    <path d="M 589.065938 471.54 
L 1058.848454 471.54 
L 1058.848454 272.503437 
L 589.065938 272.503437 
z
" style="fill:#eaeaf2;"/>
   </g>
   <g id="matplotlib.axis_7">
    <g id="xtick_28">
     <g id="line2d_46">
      <path clip-path="url(#p31e548b99d)" d="M 610.419688 471.54 
L 610.419688 272.503437 
" style="fill:none;stroke:#ffffff;stroke-linecap:round;"/>
     </g>
     <g id="text_49">
      <!-- 0 -->
      <g style="fill:#262626;" transform="translate(607.361173 488.913594)scale(0.11 -0.11)">
       <use xlink:href="#ArialMT-48"/>
      </g>
     </g>
    </g>
    <g id="xtick_29">
     <g id="line2d_47">
      <path clip-path="url(#p31e548b99d)" d="M 666.319559 471.54 
L 666.319559 272.503437 
" style="fill:none;stroke:#ffffff;stroke-linecap:round;"/>
     </g>
     <g id="text_50">
      <!-- 25 -->
      <g style="fill:#262626;" transform="translate(660.202528 488.913594)scale(0.11 -0.11)">
       <use xlink:href="#ArialMT-50"/>
       <use x="55.615234" xlink:href="#ArialMT-53"/>
      </g>
     </g>
    </g>
    <g id="xtick_30">
     <g id="line2d_48">
      <path clip-path="url(#p31e548b99d)" d="M 722.21943 471.54 
L 722.21943 272.503437 
" style="fill:none;stroke:#ffffff;stroke-linecap:round;"/>
     </g>
     <g id="text_51">
      <!-- 50 -->
      <g style="fill:#262626;" transform="translate(716.102399 488.913594)scale(0.11 -0.11)">
       <use xlink:href="#ArialMT-53"/>
       <use x="55.615234" xlink:href="#ArialMT-48"/>
      </g>
     </g>
    </g>
    <g id="xtick_31">
     <g id="line2d_49">
      <path clip-path="url(#p31e548b99d)" d="M 778.119302 471.54 
L 778.119302 272.503437 
" style="fill:none;stroke:#ffffff;stroke-linecap:round;"/>
     </g>
     <g id="text_52">
      <!-- 75 -->
      <g style="fill:#262626;" transform="translate(772.00227 488.913594)scale(0.11 -0.11)">
       <use xlink:href="#ArialMT-55"/>
       <use x="55.615234" xlink:href="#ArialMT-53"/>
      </g>
     </g>
    </g>
    <g id="xtick_32">
     <g id="line2d_50">
      <path clip-path="url(#p31e548b99d)" d="M 834.019173 471.54 
L 834.019173 272.503437 
" style="fill:none;stroke:#ffffff;stroke-linecap:round;"/>
     </g>
     <g id="text_53">
      <!-- 100 -->
      <g style="fill:#262626;" transform="translate(824.843626 488.913594)scale(0.11 -0.11)">
       <use xlink:href="#ArialMT-49"/>
       <use x="55.615234" xlink:href="#ArialMT-48"/>
       <use x="111.230469" xlink:href="#ArialMT-48"/>
      </g>
     </g>
    </g>
    <g id="xtick_33">
     <g id="line2d_51">
      <path clip-path="url(#p31e548b99d)" d="M 889.919044 471.54 
L 889.919044 272.503437 
" style="fill:none;stroke:#ffffff;stroke-linecap:round;"/>
     </g>
     <g id="text_54">
      <!-- 125 -->
      <g style="fill:#262626;" transform="translate(880.743497 488.913594)scale(0.11 -0.11)">
       <use xlink:href="#ArialMT-49"/>
       <use x="55.615234" xlink:href="#ArialMT-50"/>
       <use x="111.230469" xlink:href="#ArialMT-53"/>
      </g>
     </g>
    </g>
    <g id="xtick_34">
     <g id="line2d_52">
      <path clip-path="url(#p31e548b99d)" d="M 945.818915 471.54 
L 945.818915 272.503437 
" style="fill:none;stroke:#ffffff;stroke-linecap:round;"/>
     </g>
     <g id="text_55">
      <!-- 150 -->
      <g style="fill:#262626;" transform="translate(936.643368 488.913594)scale(0.11 -0.11)">
       <use xlink:href="#ArialMT-49"/>
       <use x="55.615234" xlink:href="#ArialMT-53"/>
       <use x="111.230469" xlink:href="#ArialMT-48"/>
      </g>
     </g>
    </g>
    <g id="xtick_35">
     <g id="line2d_53">
      <path clip-path="url(#p31e548b99d)" d="M 1001.718786 471.54 
L 1001.718786 272.503437 
" style="fill:none;stroke:#ffffff;stroke-linecap:round;"/>
     </g>
     <g id="text_56">
      <!-- 175 -->
      <g style="fill:#262626;" transform="translate(992.543239 488.913594)scale(0.11 -0.11)">
       <use xlink:href="#ArialMT-49"/>
       <use x="55.615234" xlink:href="#ArialMT-55"/>
       <use x="111.230469" xlink:href="#ArialMT-53"/>
      </g>
     </g>
    </g>
    <g id="xtick_36">
     <g id="line2d_54">
      <path clip-path="url(#p31e548b99d)" d="M 1057.618657 471.54 
L 1057.618657 272.503437 
" style="fill:none;stroke:#ffffff;stroke-linecap:round;"/>
     </g>
     <g id="text_57">
      <!-- 200 -->
      <g style="fill:#262626;" transform="translate(1048.44311 488.913594)scale(0.11 -0.11)">
       <use xlink:href="#ArialMT-50"/>
       <use x="55.615234" xlink:href="#ArialMT-48"/>
       <use x="111.230469" xlink:href="#ArialMT-48"/>
      </g>
     </g>
    </g>
   </g>
   <g id="matplotlib.axis_8">
    <g id="ytick_16">
     <g id="line2d_55">
      <path clip-path="url(#p31e548b99d)" d="M 589.065938 462.492884 
L 1058.848454 462.492884 
" style="fill:none;stroke:#ffffff;stroke-linecap:round;"/>
     </g>
     <g id="text_58">
      <!-- 0.000 -->
      <g style="fill:#262626;" transform="translate(552.041875 466.42968)scale(0.11 -0.11)">
       <defs>
        <path d="M 9.078125 0 
L 9.078125 10.015625 
L 19.09375 10.015625 
L 19.09375 0 
z
" id="ArialMT-46"/>
       </defs>
       <use xlink:href="#ArialMT-48"/>
       <use x="55.615234" xlink:href="#ArialMT-46"/>
       <use x="83.398438" xlink:href="#ArialMT-48"/>
       <use x="139.013672" xlink:href="#ArialMT-48"/>
       <use x="194.628906" xlink:href="#ArialMT-48"/>
      </g>
     </g>
    </g>
    <g id="ytick_17">
     <g id="line2d_56">
      <path clip-path="url(#p31e548b99d)" d="M 589.065938 439.332265 
L 1058.848454 439.332265 
" style="fill:none;stroke:#ffffff;stroke-linecap:round;"/>
     </g>
     <g id="text_59">
      <!-- 0.002 -->
      <g style="fill:#262626;" transform="translate(552.041875 443.269062)scale(0.11 -0.11)">
       <use xlink:href="#ArialMT-48"/>
       <use x="55.615234" xlink:href="#ArialMT-46"/>
       <use x="83.398438" xlink:href="#ArialMT-48"/>
       <use x="139.013672" xlink:href="#ArialMT-48"/>
       <use x="194.628906" xlink:href="#ArialMT-50"/>
      </g>
     </g>
    </g>
    <g id="ytick_18">
     <g id="line2d_57">
      <path clip-path="url(#p31e548b99d)" d="M 589.065938 416.171647 
L 1058.848454 416.171647 
" style="fill:none;stroke:#ffffff;stroke-linecap:round;"/>
     </g>
     <g id="text_60">
      <!-- 0.004 -->
      <g style="fill:#262626;" transform="translate(552.041875 420.108444)scale(0.11 -0.11)">
       <use xlink:href="#ArialMT-48"/>
       <use x="55.615234" xlink:href="#ArialMT-46"/>
       <use x="83.398438" xlink:href="#ArialMT-48"/>
       <use x="139.013672" xlink:href="#ArialMT-48"/>
       <use x="194.628906" xlink:href="#ArialMT-52"/>
      </g>
     </g>
    </g>
    <g id="ytick_19">
     <g id="line2d_58">
      <path clip-path="url(#p31e548b99d)" d="M 589.065938 393.011029 
L 1058.848454 393.011029 
" style="fill:none;stroke:#ffffff;stroke-linecap:round;"/>
     </g>
     <g id="text_61">
      <!-- 0.006 -->
      <g style="fill:#262626;" transform="translate(552.041875 396.947826)scale(0.11 -0.11)">
       <use xlink:href="#ArialMT-48"/>
       <use x="55.615234" xlink:href="#ArialMT-46"/>
       <use x="83.398438" xlink:href="#ArialMT-48"/>
       <use x="139.013672" xlink:href="#ArialMT-48"/>
       <use x="194.628906" xlink:href="#ArialMT-54"/>
      </g>
     </g>
    </g>
    <g id="ytick_20">
     <g id="line2d_59">
      <path clip-path="url(#p31e548b99d)" d="M 589.065938 369.850411 
L 1058.848454 369.850411 
" style="fill:none;stroke:#ffffff;stroke-linecap:round;"/>
     </g>
     <g id="text_62">
      <!-- 0.008 -->
      <g style="fill:#262626;" transform="translate(552.041875 373.787208)scale(0.11 -0.11)">
       <use xlink:href="#ArialMT-48"/>
       <use x="55.615234" xlink:href="#ArialMT-46"/>
       <use x="83.398438" xlink:href="#ArialMT-48"/>
       <use x="139.013672" xlink:href="#ArialMT-48"/>
       <use x="194.628906" xlink:href="#ArialMT-56"/>
      </g>
     </g>
    </g>
    <g id="ytick_21">
     <g id="line2d_60">
      <path clip-path="url(#p31e548b99d)" d="M 589.065938 346.689793 
L 1058.848454 346.689793 
" style="fill:none;stroke:#ffffff;stroke-linecap:round;"/>
     </g>
     <g id="text_63">
      <!-- 0.010 -->
      <g style="fill:#262626;" transform="translate(552.041875 350.626589)scale(0.11 -0.11)">
       <use xlink:href="#ArialMT-48"/>
       <use x="55.615234" xlink:href="#ArialMT-46"/>
       <use x="83.398438" xlink:href="#ArialMT-48"/>
       <use x="139.013672" xlink:href="#ArialMT-49"/>
       <use x="194.628906" xlink:href="#ArialMT-48"/>
      </g>
     </g>
    </g>
    <g id="ytick_22">
     <g id="line2d_61">
      <path clip-path="url(#p31e548b99d)" d="M 589.065938 323.529174 
L 1058.848454 323.529174 
" style="fill:none;stroke:#ffffff;stroke-linecap:round;"/>
     </g>
     <g id="text_64">
      <!-- 0.012 -->
      <g style="fill:#262626;" transform="translate(552.041875 327.465971)scale(0.11 -0.11)">
       <use xlink:href="#ArialMT-48"/>
       <use x="55.615234" xlink:href="#ArialMT-46"/>
       <use x="83.398438" xlink:href="#ArialMT-48"/>
       <use x="139.013672" xlink:href="#ArialMT-49"/>
       <use x="194.628906" xlink:href="#ArialMT-50"/>
      </g>
     </g>
    </g>
    <g id="ytick_23">
     <g id="line2d_62">
      <path clip-path="url(#p31e548b99d)" d="M 589.065938 300.368556 
L 1058.848454 300.368556 
" style="fill:none;stroke:#ffffff;stroke-linecap:round;"/>
     </g>
     <g id="text_65">
      <!-- 0.014 -->
      <g style="fill:#262626;" transform="translate(552.041875 304.305353)scale(0.11 -0.11)">
       <use xlink:href="#ArialMT-48"/>
       <use x="55.615234" xlink:href="#ArialMT-46"/>
       <use x="83.398438" xlink:href="#ArialMT-48"/>
       <use x="139.013672" xlink:href="#ArialMT-49"/>
       <use x="194.628906" xlink:href="#ArialMT-52"/>
      </g>
     </g>
    </g>
    <g id="ytick_24">
     <g id="line2d_63">
      <path clip-path="url(#p31e548b99d)" d="M 589.065938 277.207938 
L 1058.848454 277.207938 
" style="fill:none;stroke:#ffffff;stroke-linecap:round;"/>
     </g>
     <g id="text_66">
      <!-- 0.016 -->
      <g style="fill:#262626;" transform="translate(552.041875 281.144735)scale(0.11 -0.11)">
       <use xlink:href="#ArialMT-48"/>
       <use x="55.615234" xlink:href="#ArialMT-46"/>
       <use x="83.398438" xlink:href="#ArialMT-48"/>
       <use x="139.013672" xlink:href="#ArialMT-49"/>
       <use x="194.628906" xlink:href="#ArialMT-54"/>
      </g>
     </g>
    </g>
   </g>
   <g id="line2d_64">
    <path clip-path="url(#p31e548b99d)" d="M 610.419688 462.492884 
L 612.655683 446.49969 
L 614.891678 446.49969 
L 617.127673 442.905302 
L 619.363668 454.496287 
L 621.599662 462.492884 
L 623.835657 446.49969 
L 626.071652 446.007476 
L 628.307647 462.492884 
L 630.543642 451.183988 
L 632.779637 462.492884 
L 635.015632 446.49969 
L 637.251626 443.739201 
L 639.487621 444.611949 
L 641.723616 448.642371 
L 643.959611 454.496287 
L 646.195606 451.183988 
L 650.667595 451.183988 
L 652.90359 462.492884 
L 655.139585 446.49969 
L 657.37558 451.183988 
L 659.611575 462.492884 
L 661.84757 443.739201 
L 666.319559 453.552416 
L 668.555554 451.183988 
L 670.791549 448.642371 
L 673.027544 462.492884 
L 675.263539 454.496287 
L 677.499534 451.183988 
L 679.735528 451.183988 
L 681.971523 462.492884 
L 684.207518 451.183988 
L 686.443513 446.49969 
L 688.679508 444.611949 
L 690.915503 462.492884 
L 693.151498 442.905302 
L 695.387492 446.49969 
L 697.623487 451.183988 
L 699.859482 462.492884 
L 702.095477 454.496287 
L 704.331472 451.183988 
L 706.567467 462.492884 
L 708.803461 462.492884 
L 711.039456 454.496287 
L 713.275451 462.492884 
L 715.511446 443.739201 
L 717.747441 446.49969 
L 719.983436 446.49969 
L 722.21943 442.905302 
L 724.455425 462.492884 
L 726.69142 446.49969 
L 728.927415 454.496287 
L 731.16341 442.905302 
L 733.399405 451.183988 
L 735.6354 451.183988 
L 737.871394 462.492884 
L 740.107389 446.49969 
L 742.343384 454.496287 
L 744.579379 446.49969 
L 746.815374 462.492884 
L 749.051369 448.642371 
L 751.287363 442.905302 
L 753.523358 454.496287 
L 755.759353 462.492884 
L 757.995348 451.183988 
L 760.231343 462.492884 
L 762.467338 442.905302 
L 764.703333 462.492884 
L 766.939327 451.183988 
L 769.175322 448.642371 
L 771.411317 462.492884 
L 773.647312 448.642371 
L 775.883307 462.492884 
L 778.119302 451.183988 
L 780.355296 462.492884 
L 782.591291 462.492884 
L 784.827286 423.317721 
L 787.063281 446.49969 
L 789.299276 462.492884 
L 791.535271 462.492884 
L 793.771266 430.506497 
L 796.00726 439.875092 
L 798.243255 462.492884 
L 800.47925 430.506497 
L 802.715245 462.492884 
L 804.95124 430.506497 
L 807.187235 430.506497 
L 809.423229 439.875092 
L 811.659224 430.506497 
L 813.895219 430.506497 
L 816.131214 439.875092 
L 818.367209 446.49969 
L 820.603204 446.49969 
L 822.839198 462.492884 
L 825.075193 430.506497 
L 827.311188 462.492884 
L 829.547183 442.905302 
L 831.783178 462.492884 
L 838.491162 462.492884 
L 840.727157 281.550554 
L 842.963152 462.492884 
L 1037.494704 462.492884 
L 1037.494704 462.492884 
" style="fill:none;stroke:#4c72b0;stroke-linecap:round;stroke-width:1.5;"/>
   </g>
   <g id="patch_18">
    <path d="M 589.065938 471.54 
L 589.065938 272.503437 
" style="fill:none;stroke:#ffffff;stroke-linecap:square;stroke-linejoin:miter;stroke-width:1.25;"/>
   </g>
   <g id="patch_19">
    <path d="M 1058.848454 471.54 
L 1058.848454 272.503437 
" style="fill:none;stroke:#ffffff;stroke-linecap:square;stroke-linejoin:miter;stroke-width:1.25;"/>
   </g>
   <g id="patch_20">
    <path d="M 589.065938 471.54 
L 1058.848454 471.54 
" style="fill:none;stroke:#ffffff;stroke-linecap:square;stroke-linejoin:miter;stroke-width:1.25;"/>
   </g>
   <g id="patch_21">
    <path d="M 589.065938 272.503437 
L 1058.848454 272.503437 
" style="fill:none;stroke:#ffffff;stroke-linecap:square;stroke-linejoin:miter;stroke-width:1.25;"/>
   </g>
   <g id="text_67">
    <!-- Distortion Power D -->
    <g style="fill:#262626;" transform="translate(773.943446 266.503437)scale(0.12 -0.12)">
     <defs>
      <path d="M 7.71875 0 
L 7.71875 71.578125 
L 32.375 71.578125 
Q 40.71875 71.578125 45.125 70.5625 
Q 51.265625 69.140625 55.609375 65.4375 
Q 61.28125 60.640625 64.078125 53.1875 
Q 66.890625 45.75 66.890625 36.1875 
Q 66.890625 28.03125 64.984375 21.734375 
Q 63.09375 15.4375 60.109375 11.296875 
Q 57.125 7.171875 53.578125 4.796875 
Q 50.046875 2.4375 45.046875 1.21875 
Q 40.046875 0 33.546875 0 
z
M 17.1875 8.453125 
L 32.46875 8.453125 
Q 39.546875 8.453125 43.578125 9.765625 
Q 47.609375 11.078125 50 13.484375 
Q 53.375 16.84375 55.25 22.53125 
Q 57.125 28.21875 57.125 36.328125 
Q 57.125 47.5625 53.4375 53.59375 
Q 49.75 59.625 44.484375 61.671875 
Q 40.671875 63.140625 32.234375 63.140625 
L 17.1875 63.140625 
z
" id="ArialMT-68"/>
     </defs>
     <use xlink:href="#ArialMT-68"/>
     <use x="72.216797" xlink:href="#ArialMT-105"/>
     <use x="94.433594" xlink:href="#ArialMT-115"/>
     <use x="144.433594" xlink:href="#ArialMT-116"/>
     <use x="172.216797" xlink:href="#ArialMT-111"/>
     <use x="227.832031" xlink:href="#ArialMT-114"/>
     <use x="261.132812" xlink:href="#ArialMT-116"/>
     <use x="288.916016" xlink:href="#ArialMT-105"/>
     <use x="311.132812" xlink:href="#ArialMT-111"/>
     <use x="366.748047" xlink:href="#ArialMT-110"/>
     <use x="422.363281" xlink:href="#ArialMT-32"/>
     <use x="450.146484" xlink:href="#ArialMT-80"/>
     <use x="516.845703" xlink:href="#ArialMT-111"/>
     <use x="572.460938" xlink:href="#ArialMT-119"/>
     <use x="644.677734" xlink:href="#ArialMT-101"/>
     <use x="700.292969" xlink:href="#ArialMT-114"/>
     <use x="733.59375" xlink:href="#ArialMT-32"/>
     <use x="761.376953" xlink:href="#ArialMT-68"/>
    </g>
   </g>
  </g>
  <g id="text_68">
   <!-- Number of cycles -->
   <g style="fill:#262626;" transform="translate(493.654688 507.105)scale(0.12 -0.12)">
    <defs>
     <path d="M 7.625 0 
L 7.625 71.578125 
L 17.328125 71.578125 
L 54.9375 15.375 
L 54.9375 71.578125 
L 64.015625 71.578125 
L 64.015625 0 
L 54.296875 0 
L 16.703125 56.25 
L 16.703125 0 
z
" id="ArialMT-78"/>
     <path d="M 40.578125 0 
L 40.578125 7.625 
Q 34.515625 -1.171875 24.125 -1.171875 
Q 19.53125 -1.171875 15.546875 0.578125 
Q 11.578125 2.34375 9.640625 5 
Q 7.71875 7.671875 6.9375 11.53125 
Q 6.390625 14.109375 6.390625 19.734375 
L 6.390625 51.859375 
L 15.1875 51.859375 
L 15.1875 23.09375 
Q 15.1875 16.21875 15.71875 13.8125 
Q 16.546875 10.359375 19.234375 8.375 
Q 21.921875 6.390625 25.875 6.390625 
Q 29.828125 6.390625 33.296875 8.421875 
Q 36.765625 10.453125 38.203125 13.9375 
Q 39.65625 17.4375 39.65625 24.078125 
L 39.65625 51.859375 
L 48.4375 51.859375 
L 48.4375 0 
z
" id="ArialMT-117"/>
     <path d="M 14.703125 0 
L 6.546875 0 
L 6.546875 71.578125 
L 15.328125 71.578125 
L 15.328125 46.046875 
Q 20.90625 53.03125 29.546875 53.03125 
Q 34.328125 53.03125 38.59375 51.09375 
Q 42.875 49.171875 45.625 45.671875 
Q 48.390625 42.1875 49.953125 37.25 
Q 51.515625 32.328125 51.515625 26.703125 
Q 51.515625 13.375 44.921875 6.09375 
Q 38.328125 -1.171875 29.109375 -1.171875 
Q 19.921875 -1.171875 14.703125 6.5 
z
M 14.59375 26.3125 
Q 14.59375 17 17.140625 12.84375 
Q 21.296875 6.0625 28.375 6.0625 
Q 34.125 6.0625 38.328125 11.0625 
Q 42.53125 16.0625 42.53125 25.984375 
Q 42.53125 36.140625 38.5 40.96875 
Q 34.46875 45.796875 28.765625 45.796875 
Q 23 45.796875 18.796875 40.796875 
Q 14.59375 35.796875 14.59375 26.3125 
z
" id="ArialMT-98"/>
     <path d="M 8.6875 0 
L 8.6875 45.015625 
L 0.921875 45.015625 
L 0.921875 51.859375 
L 8.6875 51.859375 
L 8.6875 57.375 
Q 8.6875 62.59375 9.625 65.140625 
Q 10.890625 68.5625 14.078125 70.671875 
Q 17.28125 72.796875 23.046875 72.796875 
Q 26.765625 72.796875 31.25 71.921875 
L 29.9375 64.265625 
Q 27.203125 64.75 24.75 64.75 
Q 20.75 64.75 19.09375 63.03125 
Q 17.4375 61.328125 17.4375 56.640625 
L 17.4375 51.859375 
L 27.546875 51.859375 
L 27.546875 45.015625 
L 17.4375 45.015625 
L 17.4375 0 
z
" id="ArialMT-102"/>
     <path d="M 6.203125 -19.96875 
L 5.21875 -11.71875 
Q 8.109375 -12.5 10.25 -12.5 
Q 13.1875 -12.5 14.9375 -11.515625 
Q 16.703125 -10.546875 17.828125 -8.796875 
Q 18.65625 -7.46875 20.515625 -2.25 
Q 20.75 -1.515625 21.296875 -0.09375 
L 1.609375 51.859375 
L 11.078125 51.859375 
L 21.875 21.828125 
Q 23.96875 16.109375 25.640625 9.8125 
Q 27.15625 15.875 29.25 21.625 
L 40.328125 51.859375 
L 49.125 51.859375 
L 29.390625 -0.875 
Q 26.21875 -9.421875 24.46875 -12.640625 
Q 22.125 -17 19.09375 -19.015625 
Q 16.0625 -21.046875 11.859375 -21.046875 
Q 9.328125 -21.046875 6.203125 -19.96875 
z
" id="ArialMT-121"/>
    </defs>
    <use xlink:href="#ArialMT-78"/>
    <use x="72.216797" xlink:href="#ArialMT-117"/>
    <use x="127.832031" xlink:href="#ArialMT-109"/>
    <use x="211.132812" xlink:href="#ArialMT-98"/>
    <use x="266.748047" xlink:href="#ArialMT-101"/>
    <use x="322.363281" xlink:href="#ArialMT-114"/>
    <use x="355.664062" xlink:href="#ArialMT-32"/>
    <use x="383.447266" xlink:href="#ArialMT-111"/>
    <use x="439.0625" xlink:href="#ArialMT-102"/>
    <use x="466.845703" xlink:href="#ArialMT-32"/>
    <use x="494.628906" xlink:href="#ArialMT-99"/>
    <use x="544.628906" xlink:href="#ArialMT-121"/>
    <use x="594.628906" xlink:href="#ArialMT-99"/>
    <use x="644.628906" xlink:href="#ArialMT-108"/>
    <use x="666.845703" xlink:href="#ArialMT-101"/>
    <use x="722.460938" xlink:href="#ArialMT-115"/>
   </g>
  </g>
 </g>
 <defs>
  <clipPath id="p0cab4c2547">
   <rect height="199.036563" width="469.782517" x="54.881875" y="27.006875"/>
  </clipPath>
  <clipPath id="p3b30f37be5">
   <rect height="199.036563" width="469.782517" x="589.065938" y="27.006875"/>
  </clipPath>
  <clipPath id="p8577630468">
   <rect height="199.036563" width="469.782517" x="54.881875" y="272.503437"/>
  </clipPath>
  <clipPath id="p31e548b99d">
   <rect height="199.036563" width="469.782517" x="589.065938" y="272.503437"/>
  </clipPath>
 </defs>
</svg>
