<?xml version="1.0" encoding="utf-8" standalone="no"?>
<!DOCTYPE svg PUBLIC "-//W3C//DTD SVG 1.1//EN"
  "http://www.w3.org/Graphics/SVG/1.1/DTD/svg11.dtd">
<svg height="289.556211pt" version="1.1" viewBox="0 0 721.518203 289.556211" width="721.518203pt" xmlns="http://www.w3.org/2000/svg" xmlns:xlink="http://www.w3.org/1999/xlink">
 <metadata>
  <rdf:RDF xmlns:cc="http://creativecommons.org/ns#" xmlns:dc="http://purl.org/dc/elements/1.1/" xmlns:rdf="http://www.w3.org/1999/02/22-rdf-syntax-ns#">
   <cc:Work>
    <dc:type rdf:resource="http://purl.org/dc/dcmitype/StillImage"/>
    <dc:date>2021-10-12T10:25:32.801670</dc:date>
    <dc:format>image/svg+xml</dc:format>
    <dc:creator>
     <cc:Agent>
      <dc:title>Matplotlib v3.4.2, https://matplotlib.org/</dc:title>
     </cc:Agent>
    </dc:creator>
   </cc:Work>
  </rdf:RDF>
 </metadata>
 <defs>
  <style type="text/css">*{stroke-linecap:butt;stroke-linejoin:round;}</style>
 </defs>
 <g id="figure_1">
  <g id="patch_1">
   <path d="M 0 289.556211 
L 721.518203 289.556211 
L 721.518203 0 
L 0 0 
z
" style="fill:#ffffff;"/>
  </g>
  <g id="axes_1">
   <g id="patch_2">
    <path d="M 42.248203 269.28 
L 360.933203 269.28 
L 360.933203 7.2 
L 42.248203 7.2 
z
" style="fill:#eaeaf2;"/>
   </g>
   <g id="matplotlib.axis_1"/>
   <g id="matplotlib.axis_2">
    <g id="ytick_1">
     <g id="line2d_1">
      <path clip-path="url(#pe429fa83be)" d="M 42.248203 255.204783 
L 360.933203 255.204783 
" style="fill:none;stroke:#ffffff;stroke-linecap:round;"/>
     </g>
     <g id="text_1">
      <!-- −2 -->
      <g style="fill:#262626;" transform="translate(20.206484 259.14158)scale(0.11 -0.11)">
       <defs>
        <path d="M 3381 1997 
L 356 1997 
L 356 2522 
L 3381 2522 
L 3381 1997 
z
" id="ArialMT-2212" transform="scale(0.015625)"/>
        <path d="M 3222 541 
L 3222 0 
L 194 0 
Q 188 203 259 391 
Q 375 700 629 1000 
Q 884 1300 1366 1694 
Q 2113 2306 2375 2664 
Q 2638 3022 2638 3341 
Q 2638 3675 2398 3904 
Q 2159 4134 1775 4134 
Q 1369 4134 1125 3890 
Q 881 3647 878 3216 
L 300 3275 
Q 359 3922 746 4261 
Q 1134 4600 1788 4600 
Q 2447 4600 2831 4234 
Q 3216 3869 3216 3328 
Q 3216 3053 3103 2787 
Q 2991 2522 2730 2228 
Q 2469 1934 1863 1422 
Q 1356 997 1212 845 
Q 1069 694 975 541 
L 3222 541 
z
" id="ArialMT-32" transform="scale(0.015625)"/>
       </defs>
       <use xlink:href="#ArialMT-2212"/>
       <use x="58.398438" xlink:href="#ArialMT-32"/>
      </g>
     </g>
    </g>
    <g id="ytick_2">
     <g id="line2d_2">
      <path clip-path="url(#pe429fa83be)" d="M 42.248203 224.160861 
L 360.933203 224.160861 
" style="fill:none;stroke:#ffffff;stroke-linecap:round;"/>
     </g>
     <g id="text_2">
      <!-- 0 -->
      <g style="fill:#262626;" transform="translate(26.631172 228.097658)scale(0.11 -0.11)">
       <defs>
        <path d="M 266 2259 
Q 266 3072 433 3567 
Q 600 4063 929 4331 
Q 1259 4600 1759 4600 
Q 2128 4600 2406 4451 
Q 2684 4303 2865 4023 
Q 3047 3744 3150 3342 
Q 3253 2941 3253 2259 
Q 3253 1453 3087 958 
Q 2922 463 2592 192 
Q 2263 -78 1759 -78 
Q 1097 -78 719 397 
Q 266 969 266 2259 
z
M 844 2259 
Q 844 1131 1108 757 
Q 1372 384 1759 384 
Q 2147 384 2411 759 
Q 2675 1134 2675 2259 
Q 2675 3391 2411 3762 
Q 2147 4134 1753 4134 
Q 1366 4134 1134 3806 
Q 844 3388 844 2259 
z
" id="ArialMT-30" transform="scale(0.015625)"/>
       </defs>
       <use xlink:href="#ArialMT-30"/>
      </g>
     </g>
    </g>
    <g id="ytick_3">
     <g id="line2d_3">
      <path clip-path="url(#pe429fa83be)" d="M 42.248203 193.11694 
L 360.933203 193.11694 
" style="fill:none;stroke:#ffffff;stroke-linecap:round;"/>
     </g>
     <g id="text_3">
      <!-- 2 -->
      <g style="fill:#262626;" transform="translate(26.631172 197.053737)scale(0.11 -0.11)">
       <use xlink:href="#ArialMT-32"/>
      </g>
     </g>
    </g>
    <g id="ytick_4">
     <g id="line2d_4">
      <path clip-path="url(#pe429fa83be)" d="M 42.248203 162.073019 
L 360.933203 162.073019 
" style="fill:none;stroke:#ffffff;stroke-linecap:round;"/>
     </g>
     <g id="text_4">
      <!-- 4 -->
      <g style="fill:#262626;" transform="translate(26.631172 166.009815)scale(0.11 -0.11)">
       <defs>
        <path d="M 2069 0 
L 2069 1097 
L 81 1097 
L 81 1613 
L 2172 4581 
L 2631 4581 
L 2631 1613 
L 3250 1613 
L 3250 1097 
L 2631 1097 
L 2631 0 
L 2069 0 
z
M 2069 1613 
L 2069 3678 
L 634 1613 
L 2069 1613 
z
" id="ArialMT-34" transform="scale(0.015625)"/>
       </defs>
       <use xlink:href="#ArialMT-34"/>
      </g>
     </g>
    </g>
    <g id="ytick_5">
     <g id="line2d_5">
      <path clip-path="url(#pe429fa83be)" d="M 42.248203 131.029097 
L 360.933203 131.029097 
" style="fill:none;stroke:#ffffff;stroke-linecap:round;"/>
     </g>
     <g id="text_5">
      <!-- 6 -->
      <g style="fill:#262626;" transform="translate(26.631172 134.965894)scale(0.11 -0.11)">
       <defs>
        <path d="M 3184 3459 
L 2625 3416 
Q 2550 3747 2413 3897 
Q 2184 4138 1850 4138 
Q 1581 4138 1378 3988 
Q 1113 3794 959 3422 
Q 806 3050 800 2363 
Q 1003 2672 1297 2822 
Q 1591 2972 1913 2972 
Q 2475 2972 2870 2558 
Q 3266 2144 3266 1488 
Q 3266 1056 3080 686 
Q 2894 316 2569 119 
Q 2244 -78 1831 -78 
Q 1128 -78 684 439 
Q 241 956 241 2144 
Q 241 3472 731 4075 
Q 1159 4600 1884 4600 
Q 2425 4600 2770 4297 
Q 3116 3994 3184 3459 
z
M 888 1484 
Q 888 1194 1011 928 
Q 1134 663 1356 523 
Q 1578 384 1822 384 
Q 2178 384 2434 671 
Q 2691 959 2691 1453 
Q 2691 1928 2437 2201 
Q 2184 2475 1800 2475 
Q 1419 2475 1153 2201 
Q 888 1928 888 1484 
z
" id="ArialMT-36" transform="scale(0.015625)"/>
       </defs>
       <use xlink:href="#ArialMT-36"/>
      </g>
     </g>
    </g>
    <g id="ytick_6">
     <g id="line2d_6">
      <path clip-path="url(#pe429fa83be)" d="M 42.248203 99.985176 
L 360.933203 99.985176 
" style="fill:none;stroke:#ffffff;stroke-linecap:round;"/>
     </g>
     <g id="text_6">
      <!-- 8 -->
      <g style="fill:#262626;" transform="translate(26.631172 103.921973)scale(0.11 -0.11)">
       <defs>
        <path d="M 1131 2484 
Q 781 2613 612 2850 
Q 444 3088 444 3419 
Q 444 3919 803 4259 
Q 1163 4600 1759 4600 
Q 2359 4600 2725 4251 
Q 3091 3903 3091 3403 
Q 3091 3084 2923 2848 
Q 2756 2613 2416 2484 
Q 2838 2347 3058 2040 
Q 3278 1734 3278 1309 
Q 3278 722 2862 322 
Q 2447 -78 1769 -78 
Q 1091 -78 675 323 
Q 259 725 259 1325 
Q 259 1772 486 2073 
Q 713 2375 1131 2484 
z
M 1019 3438 
Q 1019 3113 1228 2906 
Q 1438 2700 1772 2700 
Q 2097 2700 2305 2904 
Q 2513 3109 2513 3406 
Q 2513 3716 2298 3927 
Q 2084 4138 1766 4138 
Q 1444 4138 1231 3931 
Q 1019 3725 1019 3438 
z
M 838 1322 
Q 838 1081 952 856 
Q 1066 631 1291 507 
Q 1516 384 1775 384 
Q 2178 384 2440 643 
Q 2703 903 2703 1303 
Q 2703 1709 2433 1975 
Q 2163 2241 1756 2241 
Q 1359 2241 1098 1978 
Q 838 1716 838 1322 
z
" id="ArialMT-38" transform="scale(0.015625)"/>
       </defs>
       <use xlink:href="#ArialMT-38"/>
      </g>
     </g>
    </g>
    <g id="ytick_7">
     <g id="line2d_7">
      <path clip-path="url(#pe429fa83be)" d="M 42.248203 68.941254 
L 360.933203 68.941254 
" style="fill:none;stroke:#ffffff;stroke-linecap:round;"/>
     </g>
     <g id="text_7">
      <!-- 10 -->
      <g style="fill:#262626;" transform="translate(20.514141 72.878051)scale(0.11 -0.11)">
       <defs>
        <path d="M 2384 0 
L 1822 0 
L 1822 3584 
Q 1619 3391 1289 3197 
Q 959 3003 697 2906 
L 697 3450 
Q 1169 3672 1522 3987 
Q 1875 4303 2022 4600 
L 2384 4600 
L 2384 0 
z
" id="ArialMT-31" transform="scale(0.015625)"/>
       </defs>
       <use xlink:href="#ArialMT-31"/>
       <use x="55.615234" xlink:href="#ArialMT-30"/>
      </g>
     </g>
    </g>
    <g id="ytick_8">
     <g id="line2d_8">
      <path clip-path="url(#pe429fa83be)" d="M 42.248203 37.897333 
L 360.933203 37.897333 
" style="fill:none;stroke:#ffffff;stroke-linecap:round;"/>
     </g>
     <g id="text_8">
      <!-- 12 -->
      <g style="fill:#262626;" transform="translate(20.514141 41.83413)scale(0.11 -0.11)">
       <use xlink:href="#ArialMT-31"/>
       <use x="55.615234" xlink:href="#ArialMT-32"/>
      </g>
     </g>
    </g>
   </g>
   <g id="line2d_9">
    <path clip-path="url(#pe429fa83be)" d="M 56.733885 191.438871 
L 57.09648 197.502788 
L 57.459076 199.972789 
L 57.821671 204.204833 
L 58.184266 203.93627 
L 58.546861 195.349101 
L 58.909457 179.272365 
L 59.272052 243.014472 
L 59.997243 190.392264 
L 60.359838 226.122635 
L 60.722433 203.866268 
L 61.085028 223.611858 
L 61.447624 235.979656 
L 61.810219 190.046395 
L 62.172814 205.213875 
L 62.53541 201.394609 
L 62.898005 205.498882 
L 63.2606 185.511913 
L 63.623195 204.255476 
L 63.985791 183.911871 
L 64.348386 200.191023 
L 64.710981 208.309999 
L 65.073577 237.391153 
L 65.436172 176.054336 
L 65.798767 212.15749 
L 66.161362 208.438 
L 66.523958 222.724417 
L 66.886553 218.098179 
L 67.249148 174.681129 
L 67.611744 194.705166 
L 67.974339 222.901482 
L 68.336934 186.840162 
L 68.699529 182.972076 
L 69.062125 220.35106 
L 69.42472 161.310169 
L 69.787315 189.98758 
L 70.149911 201.62073 
L 70.512506 196.232803 
L 70.875101 201.191259 
L 71.237697 193.358666 
L 71.600292 172.143083 
L 71.962887 214.2436 
L 72.325482 172.15078 
L 72.688078 201.655541 
L 73.050673 208.370116 
L 73.413268 193.294504 
L 73.775864 237.036504 
L 74.138459 189.370578 
L 74.501054 215.056488 
L 74.863649 179.904305 
L 75.226245 175.622578 
L 75.58884 190.762408 
L 75.951435 183.599232 
L 76.314031 199.247244 
L 76.676626 225.663685 
L 77.039221 222.131205 
L 77.401816 171.797342 
L 77.764412 241.360065 
L 78.127007 170.837099 
L 78.489602 141.011849 
L 78.852198 70.566357 
L 79.214793 69.209608 
L 79.577388 62.509216 
L 79.939983 97.161546 
L 80.302579 47.211575 
L 80.665174 90.645984 
L 81.027769 65.344616 
L 81.390365 101.98481 
L 81.75296 67.525386 
L 82.115555 101.105356 
L 82.478151 65.352324 
L 82.840746 53.914972 
L 83.203341 35.574934 
L 83.565936 60.214246 
L 83.928532 67.051344 
L 84.291127 39.174671 
L 84.653722 78.544445 
L 85.016318 204.091183 
L 85.378913 209.702148 
L 85.741508 205.456638 
L 86.104103 169.800112 
L 86.466699 195.568012 
L 86.829294 179.850258 
L 87.191889 187.659902 
L 87.554485 170.161717 
L 87.91708 221.389498 
L 88.279675 230.847119 
L 88.64227 196.610119 
L 89.004866 182.838735 
L 89.367461 254.578369 
L 89.730056 155.673171 
L 90.092652 161.067961 
L 90.817842 256.23656 
L 91.180437 217.561918 
L 91.543033 219.234973 
L 91.905628 189.373679 
L 92.268223 232.268742 
L 92.993414 157.080981 
L 93.356009 167.245674 
L 93.718604 151.230044 
L 94.0812 178.615782 
L 94.443795 154.159299 
L 94.80639 169.018702 
L 95.168986 174.932544 
L 95.531581 195.098931 
L 95.894176 172.673063 
L 96.256772 194.351099 
L 96.619367 185.459262 
L 96.981962 222.294898 
L 97.344557 210.937314 
L 97.707153 212.918691 
L 98.069748 211.622322 
L 98.432343 225.601223 
L 98.794939 232.182879 
L 99.157534 162.709169 
L 99.520129 196.624286 
L 99.882724 184.807686 
L 100.24532 217.459005 
L 100.607915 166.134355 
L 100.97051 179.342563 
L 101.333106 200.566578 
L 101.695701 189.498051 
L 102.058296 204.09319 
L 102.420891 174.51486 
L 102.783487 211.763464 
L 103.146082 197.711495 
L 103.508677 171.195679 
L 103.871273 188.050954 
L 104.233868 215.301739 
L 104.959058 189.684231 
L 105.321654 167.408146 
L 105.684249 180.25582 
L 106.046844 233.38316 
L 106.40944 223.360391 
L 106.772035 231.891101 
L 107.13463 197.55662 
L 107.497225 206.073286 
L 107.859821 161.316715 
L 108.585011 214.973428 
L 109.310202 183.493873 
L 109.672797 175.434132 
L 110.035393 221.832037 
L 110.397988 185.352238 
L 110.760583 190.412492 
L 111.123178 183.690949 
L 111.485774 169.864702 
L 111.848369 230.219715 
L 112.210964 214.437581 
L 112.57356 227.763964 
L 112.936155 203.040479 
L 113.29875 188.354439 
L 113.661345 202.855681 
L 114.023941 223.507288 
L 114.386536 196.867984 
L 114.749131 186.3162 
L 115.111727 180.310865 
L 115.474322 161.177079 
L 116.562108 58.617206 
L 116.924703 59.246497 
L 117.287298 67.620226 
L 117.649894 106.492437 
L 118.375084 89.333319 
L 118.737679 90.723139 
L 119.100275 78.916782 
L 119.46287 115.796145 
L 120.188061 35.987227 
L 120.550656 76.935164 
L 120.913251 98.05932 
L 121.275846 97.825482 
L 121.638442 47.144823 
L 122.001037 103.614608 
L 122.363632 233.318983 
L 122.726228 152.733872 
L 123.088823 210.169745 
L 123.451418 237.558207 
L 123.814014 216.188246 
L 124.176609 169.527548 
L 124.539204 160.788556 
L 124.901799 224.332435 
L 125.264395 190.733022 
L 125.62699 190.906546 
L 125.989585 189.977668 
L 126.352181 212.652422 
L 126.714776 183.373678 
L 127.077371 173.528536 
L 127.439966 221.951977 
L 127.802562 169.577643 
L 128.165157 176.748361 
L 128.527752 234.957188 
L 128.890348 196.91111 
L 129.252943 200.43199 
L 129.615538 219.328765 
L 129.978133 179.242923 
L 130.340729 183.251552 
L 130.703324 215.29874 
L 131.065919 257.360835 
L 131.428515 185.120703 
L 131.79111 210.3445 
L 132.153705 205.86051 
L 132.5163 177.276565 
L 132.878896 226.479604 
L 133.241491 252.885641 
L 133.604086 203.157405 
L 133.966682 212.431502 
L 134.329277 176.678315 
L 134.691872 171.639373 
L 135.054467 220.971317 
L 135.417063 193.234344 
L 135.779658 200.624947 
L 136.142253 185.507154 
L 136.504849 214.72483 
L 136.867444 184.958933 
L 137.230039 218.545768 
L 137.592635 233.900112 
L 137.95523 208.782894 
L 138.317825 192.909443 
L 138.68042 233.534027 
L 139.043016 175.229541 
L 139.405611 186.602084 
L 139.768206 202.208362 
L 140.130802 245.985491 
L 140.493397 198.908791 
L 140.855992 223.703728 
L 141.218587 190.546546 
L 141.581183 198.377933 
L 142.306373 182.479055 
L 142.668969 192.307323 
L 143.031564 219.14057 
L 143.394159 223.032879 
L 143.756754 182.195388 
L 144.11935 225.886013 
L 144.481945 178.125304 
L 144.84454 196.287776 
L 145.207136 226.871946 
L 145.569731 223.279045 
L 145.932326 216.789346 
L 146.294921 204.05312 
L 146.657517 225.260946 
L 147.020112 226.7626 
L 147.382707 214.040108 
L 147.745303 185.541899 
L 148.107898 184.535632 
L 148.470493 178.488175 
L 148.833088 194.211226 
L 149.195684 215.491602 
L 149.558279 191.7695 
L 149.920874 175.634026 
L 151.00866 219.880565 
L 151.371256 233.119907 
L 151.733851 201.441254 
L 152.096446 214.709664 
L 153.184232 108.976067 
L 153.546827 122.024768 
L 154.272018 39.305525 
L 154.634613 45.724535 
L 154.997208 97.445082 
L 155.359804 45.776151 
L 156.084994 60.483401 
L 156.44759 89.649058 
L 156.810185 91.336928 
L 157.17278 99.673755 
L 157.535375 30.48537 
L 157.897971 73.090969 
L 158.260566 44.764403 
L 158.623161 27.371392 
L 159.348352 177.196009 
L 159.710947 206.011768 
L 160.073542 207.141291 
L 160.436138 211.393681 
L 160.798733 210.484543 
L 161.161328 172.55236 
L 161.523924 196.548632 
L 161.886519 202.445151 
L 162.249114 197.649721 
L 162.974305 245.3473 
L 163.3369 175.930587 
L 163.699495 179.156062 
L 164.062091 176.561276 
L 164.424686 216.837885 
L 164.787281 228.931138 
L 165.512472 167.77561 
L 165.875067 165.752224 
L 166.237662 173.67186 
L 166.600258 176.054146 
L 166.962853 202.238363 
L 167.325448 168.440227 
L 167.688044 182.437531 
L 168.050639 228.404527 
L 168.413234 223.250814 
L 169.138425 174.141273 
L 169.50102 207.534787 
L 169.863615 205.094732 
L 170.226211 199.412206 
L 170.588806 196.619757 
L 170.951401 196.617059 
L 171.313996 171.528104 
L 171.676592 168.977422 
L 172.039187 239.45346 
L 172.401782 217.755556 
L 172.764378 182.998631 
L 173.126973 198.255484 
L 173.489568 187.834903 
L 173.852163 166.25497 
L 174.214759 230.88571 
L 174.577354 159.591063 
L 174.939949 235.525386 
L 175.302545 187.986143 
L 175.66514 187.653989 
L 176.027735 190.882039 
L 176.390331 215.193495 
L 176.752926 161.173887 
L 177.840712 240.403069 
L 178.203307 189.30267 
L 178.565902 176.946038 
L 178.928498 195.440382 
L 179.291093 202.001628 
L 179.653688 156.732941 
L 180.016283 202.719397 
L 180.378879 232.540052 
L 181.104069 185.830829 
L 181.466665 198.431902 
L 181.82926 184.303206 
L 182.191855 160.837527 
L 182.55445 203.204299 
L 182.917046 182.421367 
L 183.279641 229.039875 
L 183.642236 200.94062 
L 184.004832 206.825293 
L 184.367427 210.777812 
L 184.730022 200.062363 
L 185.092617 217.668813 
L 185.455213 183.345133 
L 185.817808 179.743694 
L 186.180403 209.746754 
L 186.542999 206.711936 
L 186.905594 189.067049 
L 187.268189 228.314145 
L 187.630784 173.717985 
L 187.99338 238.305236 
L 188.355975 169.397481 
L 188.71857 150.791817 
L 189.081166 225.541549 
L 189.443761 188.755548 
L 189.806356 200.448021 
L 190.168952 161.492791 
L 190.531547 76.094533 
L 191.256737 31.078733 
L 191.619333 50.989382 
L 191.981928 38.097451 
L 192.707119 74.056378 
L 193.069714 88.765337 
L 193.432309 74.573387 
L 193.794904 34.697634 
L 194.1575 30.678456 
L 194.520095 76.312353 
L 194.88269 94.151468 
L 195.245286 84.956581 
L 195.607881 70.724399 
L 195.970476 36.343842 
L 196.333071 99.420195 
L 197.058262 169.977307 
L 197.783453 209.368016 
L 198.146048 215.298108 
L 198.508643 205.368245 
L 198.871238 183.075699 
L 199.233834 172.161268 
L 199.596429 173.636306 
L 199.959024 229.821506 
L 200.32162 202.125542 
L 200.684215 204.837002 
L 201.04681 224.488681 
L 201.409405 198.0308 
L 201.772001 202.911344 
L 202.134596 215.775457 
L 202.497191 212.257596 
L 202.859787 218.525656 
L 203.222382 203.62742 
L 203.584977 196.589675 
L 203.947573 178.115513 
L 204.310168 212.809035 
L 204.672763 204.239792 
L 205.035358 181.777298 
L 205.397954 187.300597 
L 205.760549 189.679509 
L 206.123144 200.278613 
L 206.48574 228.536951 
L 206.848335 186.893805 
L 207.21093 189.657709 
L 207.573525 209.418522 
L 207.936121 211.430603 
L 208.298716 199.216003 
L 208.661311 179.628807 
L 209.023907 184.969902 
L 209.749097 238.791226 
L 210.111692 211.998727 
L 210.474288 206.314726 
L 210.836883 172.93713 
L 211.199478 158.904182 
L 211.562074 190.923596 
L 212.287264 176.979701 
L 212.649859 220.427548 
L 213.012455 235.601923 
L 213.37505 257.108642 
L 213.737645 231.073859 
L 214.100241 225.894089 
L 214.462836 227.077019 
L 214.825431 216.285704 
L 215.550622 209.52741 
L 215.913217 185.482493 
L 216.275812 209.460222 
L 216.638408 217.740374 
L 217.001003 197.573523 
L 217.363598 206.441799 
L 218.088789 239.864329 
L 218.451384 227.781283 
L 218.813979 223.172485 
L 219.176575 230.706527 
L 219.53917 257.367273 
L 219.901765 217.374766 
L 220.264361 227.787837 
L 220.626956 189.464506 
L 220.989551 210.383777 
L 221.352146 162.676739 
L 221.714742 158.22255 
L 222.077337 182.236689 
L 222.439932 230.006471 
L 222.802528 223.754663 
L 223.165123 178.984985 
L 223.527718 189.999889 
L 223.890313 223.969385 
L 224.615504 190.079294 
L 224.978099 181.737344 
L 225.340695 184.357517 
L 225.70329 194.132991 
L 226.065885 216.300143 
L 226.42848 224.528306 
L 226.791076 192.332606 
L 227.153671 173.573548 
L 227.878862 39.659924 
L 228.604052 55.597752 
L 228.966647 55.399627 
L 229.329243 52.689959 
L 229.691838 58.046344 
L 230.054433 40.437347 
L 230.417029 34.510082 
L 230.779624 43.011408 
L 231.142219 34.720952 
L 231.504815 72.423866 
L 231.86741 50.61608 
L 232.230005 70.58447 
L 232.5926 119.646975 
L 232.955196 116.07859 
L 233.317791 86.072854 
L 233.680386 83.350804 
L 234.042982 200.645989 
L 234.405577 181.428501 
L 234.768172 203.153013 
L 235.130767 207.674454 
L 235.493363 200.190908 
L 235.855958 195.672949 
L 236.218553 217.266455 
L 236.581149 188.209643 
L 236.943744 173.519163 
L 237.306339 170.469928 
L 238.394125 253.73056 
L 238.75672 181.38918 
L 239.119316 192.641646 
L 239.481911 242.178947 
L 239.844506 194.518322 
L 240.207101 196.992424 
L 240.569697 209.377839 
L 240.932292 176.015059 
L 241.294887 225.794615 
L 241.657483 236.513836 
L 242.020078 173.381767 
L 242.382673 194.365866 
L 242.745268 234.816747 
L 243.107864 189.227302 
L 243.470459 175.578958 
L 243.833054 204.335725 
L 244.19565 184.400785 
L 244.558245 175.899406 
L 244.92084 189.558863 
L 245.283436 189.406078 
L 245.646031 180.375366 
L 246.008626 175.204675 
L 246.371221 218.984418 
L 246.733817 182.912614 
L 247.096412 208.022406 
L 247.459007 184.950574 
L 247.821603 177.930309 
L 248.184198 197.375085 
L 248.546793 177.615915 
L 248.909388 248.279416 
L 249.271984 215.725036 
L 249.634579 223.886787 
L 249.997174 206.338032 
L 250.35977 226.121951 
L 250.722365 215.043479 
L 251.08496 163.860502 
L 251.447555 158.719488 
L 251.810151 179.734487 
L 252.172746 176.441811 
L 252.535341 214.4401 
L 252.897937 235.261489 
L 253.260532 233.868932 
L 253.623127 193.705223 
L 253.985722 202.589763 
L 254.348318 192.688479 
L 254.710913 253.323282 
L 255.073508 221.624182 
L 255.436104 234.201781 
L 255.798699 214.692913 
L 256.161294 215.530631 
L 256.886485 169.163517 
L 257.24908 155.863389 
L 257.611675 195.215731 
L 257.974271 179.833621 
L 258.336866 184.089228 
L 259.062057 204.226528 
L 259.424652 204.344342 
L 259.787247 230.775743 
L 260.149842 203.968868 
L 260.512438 224.67194 
L 260.875033 214.205165 
L 261.237628 213.392444 
L 261.600224 211.258664 
L 261.962819 239.564667 
L 262.325414 201.692867 
L 262.688009 184.718482 
L 263.050605 177.765788 
L 263.4132 192.257753 
L 263.775795 170.523727 
L 264.138391 182.500855 
L 264.500986 121.290879 
L 264.863581 140.806473 
L 265.226176 66.344758 
L 265.588772 26.876959 
L 265.951367 19.112727 
L 266.313962 33.800753 
L 266.676558 82.865163 
L 267.039153 62.611574 
L 267.401748 92.007122 
L 267.764343 21.11128 
L 268.126939 32.967851 
L 268.489534 65.918859 
L 268.852129 66.716257 
L 269.214725 132.510643 
L 269.939915 44.605985 
L 270.30251 44.071202 
L 270.665106 54.335839 
L 271.027701 76.884503 
L 271.390296 216.241667 
L 272.115487 232.941255 
L 272.478082 233.741782 
L 272.840678 252.967854 
L 273.203273 202.921685 
L 273.565868 194.214695 
L 274.291059 152.558069 
L 274.653654 196.930762 
L 275.016249 215.022671 
L 275.378845 175.038059 
L 275.74144 181.505409 
L 276.104035 167.157353 
L 277.191821 232.014336 
L 277.554416 212.908321 
L 277.917012 207.735388 
L 278.279607 238.652792 
L 278.642202 249.220214 
L 279.729988 172.162979 
L 280.092583 188.156169 
L 280.455179 191.986683 
L 280.817774 221.257266 
L 281.180369 237.413032 
L 281.542964 201.27859 
L 281.90556 210.677911 
L 282.268155 228.176036 
L 282.63075 204.42536 
L 282.993346 215.190931 
L 283.355941 187.135255 
L 283.718536 191.217131 
L 284.081132 202.075566 
L 284.443727 198.452267 
L 284.806322 190.393234 
L 285.168917 221.399634 
L 285.531513 210.283437 
L 285.894108 215.964767 
L 286.256703 208.170214 
L 286.619299 223.28822 
L 286.981894 202.146973 
L 287.344489 217.538192 
L 288.06968 182.731521 
L 288.432275 193.407554 
L 288.79487 195.637214 
L 289.157466 182.339174 
L 289.520061 231.261952 
L 289.882656 224.491091 
L 290.245251 202.901811 
L 290.607847 192.588821 
L 290.970442 212.600589 
L 291.333037 201.291108 
L 291.695633 213.488203 
L 292.058228 243.459376 
L 292.420823 205.805551 
L 292.783418 226.301793 
L 293.146014 174.284116 
L 293.871204 230.491473 
L 294.2338 209.479817 
L 294.596395 175.635453 
L 294.95899 236.75666 
L 295.321585 191.762694 
L 295.684181 195.797386 
L 296.046776 220.429541 
L 296.409371 221.976685 
L 296.771967 228.737503 
L 297.134562 203.933807 
L 297.497157 231.708288 
L 297.859753 188.613466 
L 298.222348 241.89364 
L 298.584943 207.722768 
L 298.947538 218.176706 
L 299.310134 199.224244 
L 299.672729 218.491575 
L 300.035324 151.130388 
L 300.39792 211.883826 
L 300.760515 169.234836 
L 301.12311 247.753034 
L 301.485705 165.64332 
L 301.848301 171.792708 
L 302.210896 131.51157 
L 302.573491 62.22856 
L 302.936087 66.364833 
L 303.298682 62.885226 
L 303.661277 73.741876 
L 304.023872 99.052905 
L 304.386468 67.523393 
L 304.749063 88.956924 
L 305.111658 60.403179 
L 305.474254 71.672413 
L 305.836849 92.510819 
L 306.199444 53.667118 
L 306.562039 72.989595 
L 306.924635 109.820101 
L 308.012421 57.439996 
L 308.375016 112.613555 
L 308.737611 231.650796 
L 309.100206 188.996782 
L 309.462802 183.395598 
L 309.825397 209.067677 
L 310.187992 221.948049 
L 310.550588 171.958133 
L 310.913183 198.220909 
L 311.275778 210.582733 
L 311.638374 194.361932 
L 312.000969 162.629607 
L 312.363564 174.318601 
L 312.726159 210.888907 
L 313.45135 161.096524 
L 313.813945 185.007862 
L 314.176541 165.421069 
L 314.539136 198.915927 
L 314.901731 207.689594 
L 315.264326 196.108929 
L 315.626922 203.534323 
L 315.989517 202.863101 
L 316.352112 176.429252 
L 316.714708 183.10938 
L 317.077303 209.033591 
L 317.439898 201.885857 
L 317.802493 190.30344 
L 318.165089 184.147356 
L 318.527684 185.071279 
L 318.890279 175.748549 
L 319.252875 226.396652 
L 319.61547 216.272365 
L 319.978065 190.65656 
L 320.703256 209.974392 
L 321.065851 186.24428 
L 321.428446 182.132324 
L 321.791042 199.288522 
L 322.153637 200.126823 
L 322.878827 184.586858 
L 323.241423 216.162598 
L 323.604018 221.547186 
L 323.966613 204.287441 
L 324.329209 206.92826 
L 324.691804 174.363826 
L 325.054399 183.480349 
L 325.416995 204.9259 
L 326.142185 181.642633 
L 326.50478 184.915749 
L 326.867376 223.606919 
L 327.229971 167.331764 
L 327.592566 180.827595 
L 327.955162 228.807365 
L 328.317757 182.662593 
L 328.680352 182.500449 
L 329.042947 215.121632 
L 329.405543 191.171902 
L 329.768138 157.048618 
L 330.130733 207.155319 
L 330.493329 184.73604 
L 330.855924 205.353171 
L 331.218519 193.093654 
L 331.581114 225.116578 
L 331.94371 181.182854 
L 332.306305 189.093179 
L 332.6689 201.784082 
L 333.031496 171.63136 
L 333.394091 156.394258 
L 334.481877 204.128494 
L 334.844472 207.42547 
L 335.207067 204.745501 
L 335.932258 226.930232 
L 336.294853 186.008261 
L 336.657448 186.31649 
L 337.020044 185.824666 
L 337.382639 164.794873 
L 337.745234 230.116226 
L 338.10783 206.894716 
L 338.470425 206.486114 
L 338.83302 160.966138 
L 339.195616 133.429565 
L 339.558211 69.98659 
L 339.920806 94.182368 
L 340.283401 73.92853 
L 340.645997 75.011666 
L 341.371187 96.039333 
L 341.733783 74.287116 
L 342.096378 71.887947 
L 342.458973 73.41903 
L 342.821568 65.684871 
L 343.184164 47.154187 
L 343.546759 43.033191 
L 343.909354 84.605449 
L 344.27195 109.773716 
L 344.634545 56.784775 
L 344.99714 124.417982 
L 345.359735 103.232461 
L 346.084926 196.531138 
L 346.447521 217.517548 
L 346.447521 217.517548 
" style="fill:none;stroke:#4c72b0;stroke-linecap:round;"/>
   </g>
   <g id="patch_3">
    <path d="M 42.248203 269.28 
L 42.248203 7.2 
" style="fill:none;stroke:#ffffff;stroke-linecap:square;stroke-linejoin:miter;stroke-width:1.25;"/>
   </g>
   <g id="patch_4">
    <path d="M 360.933203 269.28 
L 360.933203 7.2 
" style="fill:none;stroke:#ffffff;stroke-linecap:square;stroke-linejoin:miter;stroke-width:1.25;"/>
   </g>
   <g id="patch_5">
    <path d="M 42.248203 269.28 
L 360.933203 269.28 
" style="fill:none;stroke:#ffffff;stroke-linecap:square;stroke-linejoin:miter;stroke-width:1.25;"/>
   </g>
   <g id="patch_6">
    <path d="M 42.248203 7.2 
L 360.933203 7.2 
" style="fill:none;stroke:#ffffff;stroke-linecap:square;stroke-linejoin:miter;stroke-width:1.25;"/>
   </g>
  </g>
  <g id="axes_2">
   <g id="patch_7">
    <path d="M 395.633203 269.28 
L 714.318203 269.28 
L 714.318203 7.2 
L 395.633203 7.2 
z
" style="fill:#eaeaf2;"/>
   </g>
   <g id="matplotlib.axis_3"/>
   <g id="matplotlib.axis_4">
    <g id="ytick_9">
     <g id="line2d_10">
      <path clip-path="url(#pdfc7103e20)" d="M 395.633203 257.367273 
L 714.318203 257.367273 
" style="fill:none;stroke:#ffffff;stroke-linecap:round;"/>
     </g>
     <g id="text_9">
      <!-- 0 -->
      <g style="fill:#262626;" transform="translate(380.016172 261.30407)scale(0.11 -0.11)">
       <use xlink:href="#ArialMT-30"/>
      </g>
     </g>
    </g>
    <g id="ytick_10">
     <g id="line2d_11">
      <path clip-path="url(#pdfc7103e20)" d="M 395.633203 217.658182 
L 714.318203 217.658182 
" style="fill:none;stroke:#ffffff;stroke-linecap:round;"/>
     </g>
     <g id="text_10">
      <!-- 2 -->
      <g style="fill:#262626;" transform="translate(380.016172 221.594979)scale(0.11 -0.11)">
       <use xlink:href="#ArialMT-32"/>
      </g>
     </g>
    </g>
    <g id="ytick_11">
     <g id="line2d_12">
      <path clip-path="url(#pdfc7103e20)" d="M 395.633203 177.949091 
L 714.318203 177.949091 
" style="fill:none;stroke:#ffffff;stroke-linecap:round;"/>
     </g>
     <g id="text_11">
      <!-- 4 -->
      <g style="fill:#262626;" transform="translate(380.016172 181.885888)scale(0.11 -0.11)">
       <use xlink:href="#ArialMT-34"/>
      </g>
     </g>
    </g>
    <g id="ytick_12">
     <g id="line2d_13">
      <path clip-path="url(#pdfc7103e20)" d="M 395.633203 138.24 
L 714.318203 138.24 
" style="fill:none;stroke:#ffffff;stroke-linecap:round;"/>
     </g>
     <g id="text_12">
      <!-- 6 -->
      <g style="fill:#262626;" transform="translate(380.016172 142.176797)scale(0.11 -0.11)">
       <use xlink:href="#ArialMT-36"/>
      </g>
     </g>
    </g>
    <g id="ytick_13">
     <g id="line2d_14">
      <path clip-path="url(#pdfc7103e20)" d="M 395.633203 98.530909 
L 714.318203 98.530909 
" style="fill:none;stroke:#ffffff;stroke-linecap:round;"/>
     </g>
     <g id="text_13">
      <!-- 8 -->
      <g style="fill:#262626;" transform="translate(380.016172 102.467706)scale(0.11 -0.11)">
       <use xlink:href="#ArialMT-38"/>
      </g>
     </g>
    </g>
    <g id="ytick_14">
     <g id="line2d_15">
      <path clip-path="url(#pdfc7103e20)" d="M 395.633203 58.821818 
L 714.318203 58.821818 
" style="fill:none;stroke:#ffffff;stroke-linecap:round;"/>
     </g>
     <g id="text_14">
      <!-- 10 -->
      <g style="fill:#262626;" transform="translate(373.899141 62.758615)scale(0.11 -0.11)">
       <use xlink:href="#ArialMT-31"/>
       <use x="55.615234" xlink:href="#ArialMT-30"/>
      </g>
     </g>
    </g>
    <g id="ytick_15">
     <g id="line2d_16">
      <path clip-path="url(#pdfc7103e20)" d="M 395.633203 19.112727 
L 714.318203 19.112727 
" style="fill:none;stroke:#ffffff;stroke-linecap:round;"/>
     </g>
     <g id="text_15">
      <!-- 12 -->
      <g style="fill:#262626;" transform="translate(373.899141 23.049524)scale(0.11 -0.11)">
       <use xlink:href="#ArialMT-31"/>
       <use x="55.615234" xlink:href="#ArialMT-32"/>
      </g>
     </g>
    </g>
   </g>
   <g id="line2d_17">
    <path clip-path="url(#pdfc7103e20)" d="M 410.118885 257.367273 
L 431.512007 257.367273 
L 431.874602 19.112727 
L 438.038722 19.112727 
L 438.401318 257.367273 
L 468.859322 257.367273 
L 469.221917 19.112727 
L 475.386037 19.112727 
L 475.748632 257.367273 
L 506.206637 257.367273 
L 506.569232 19.112727 
L 512.370757 19.112727 
L 512.733352 257.367273 
L 543.553952 257.367273 
L 543.916547 19.112727 
L 550.080667 19.112727 
L 550.443262 257.367273 
L 580.538671 257.367273 
L 580.901266 19.112727 
L 587.065386 19.112727 
L 587.427982 257.367273 
L 617.523391 257.367273 
L 617.885986 19.112727 
L 624.412701 19.112727 
L 624.775296 257.367273 
L 655.233301 257.367273 
L 655.595896 19.112727 
L 661.760016 19.112727 
L 662.122611 257.367273 
L 692.21802 257.367273 
L 692.580616 19.112727 
L 698.744735 19.112727 
L 699.107331 257.367273 
L 699.832521 257.367273 
L 699.832521 257.367273 
" style="fill:none;stroke:#4c72b0;stroke-linecap:round;"/>
   </g>
   <g id="patch_8">
    <path d="M 395.633203 269.28 
L 395.633203 7.2 
" style="fill:none;stroke:#ffffff;stroke-linecap:square;stroke-linejoin:miter;stroke-width:1.25;"/>
   </g>
   <g id="patch_9">
    <path d="M 714.318203 269.28 
L 714.318203 7.2 
" style="fill:none;stroke:#ffffff;stroke-linecap:square;stroke-linejoin:miter;stroke-width:1.25;"/>
   </g>
   <g id="patch_10">
    <path d="M 395.633203 269.28 
L 714.318203 269.28 
" style="fill:none;stroke:#ffffff;stroke-linecap:square;stroke-linejoin:miter;stroke-width:1.25;"/>
   </g>
   <g id="patch_11">
    <path d="M 395.633203 7.2 
L 714.318203 7.2 
" style="fill:none;stroke:#ffffff;stroke-linecap:square;stroke-linejoin:miter;stroke-width:1.25;"/>
   </g>
  </g>
  <g id="text_16">
   <!-- Time -->
   <g style="fill:#262626;" transform="translate(354.171016 288.222187)scale(0.12 -0.12)">
    <defs>
     <path d="M 1659 0 
L 1659 4041 
L 150 4041 
L 150 4581 
L 3781 4581 
L 3781 4041 
L 2266 4041 
L 2266 0 
L 1659 0 
z
" id="ArialMT-54" transform="scale(0.015625)"/>
     <path d="M 425 3934 
L 425 4581 
L 988 4581 
L 988 3934 
L 425 3934 
z
M 425 0 
L 425 3319 
L 988 3319 
L 988 0 
L 425 0 
z
" id="ArialMT-69" transform="scale(0.015625)"/>
     <path d="M 422 0 
L 422 3319 
L 925 3319 
L 925 2853 
Q 1081 3097 1340 3245 
Q 1600 3394 1931 3394 
Q 2300 3394 2536 3241 
Q 2772 3088 2869 2813 
Q 3263 3394 3894 3394 
Q 4388 3394 4653 3120 
Q 4919 2847 4919 2278 
L 4919 0 
L 4359 0 
L 4359 2091 
Q 4359 2428 4304 2576 
Q 4250 2725 4106 2815 
Q 3963 2906 3769 2906 
Q 3419 2906 3187 2673 
Q 2956 2441 2956 1928 
L 2956 0 
L 2394 0 
L 2394 2156 
Q 2394 2531 2256 2718 
Q 2119 2906 1806 2906 
Q 1569 2906 1367 2781 
Q 1166 2656 1075 2415 
Q 984 2175 984 1722 
L 984 0 
L 422 0 
z
" id="ArialMT-6d" transform="scale(0.015625)"/>
     <path d="M 2694 1069 
L 3275 997 
Q 3138 488 2766 206 
Q 2394 -75 1816 -75 
Q 1088 -75 661 373 
Q 234 822 234 1631 
Q 234 2469 665 2931 
Q 1097 3394 1784 3394 
Q 2450 3394 2872 2941 
Q 3294 2488 3294 1666 
Q 3294 1616 3291 1516 
L 816 1516 
Q 847 969 1125 678 
Q 1403 388 1819 388 
Q 2128 388 2347 550 
Q 2566 713 2694 1069 
z
M 847 1978 
L 2700 1978 
Q 2663 2397 2488 2606 
Q 2219 2931 1791 2931 
Q 1403 2931 1139 2672 
Q 875 2413 847 1978 
z
" id="ArialMT-65" transform="scale(0.015625)"/>
    </defs>
    <use xlink:href="#ArialMT-54"/>
    <use x="57.333984" xlink:href="#ArialMT-69"/>
    <use x="79.550781" xlink:href="#ArialMT-6d"/>
    <use x="162.851562" xlink:href="#ArialMT-65"/>
   </g>
  </g>
  <g id="text_17">
   <!-- Active Power in (W) -->
   <g style="fill:#262626;" transform="translate(10.383203 190.914375)rotate(-90)scale(0.12 -0.12)">
    <defs>
     <path d="M -9 0 
L 1750 4581 
L 2403 4581 
L 4278 0 
L 3588 0 
L 3053 1388 
L 1138 1388 
L 634 0 
L -9 0 
z
M 1313 1881 
L 2866 1881 
L 2388 3150 
Q 2169 3728 2063 4100 
Q 1975 3659 1816 3225 
L 1313 1881 
z
" id="ArialMT-41" transform="scale(0.015625)"/>
     <path d="M 2588 1216 
L 3141 1144 
Q 3050 572 2676 248 
Q 2303 -75 1759 -75 
Q 1078 -75 664 370 
Q 250 816 250 1647 
Q 250 2184 428 2587 
Q 606 2991 970 3192 
Q 1334 3394 1763 3394 
Q 2303 3394 2647 3120 
Q 2991 2847 3088 2344 
L 2541 2259 
Q 2463 2594 2264 2762 
Q 2066 2931 1784 2931 
Q 1359 2931 1093 2626 
Q 828 2322 828 1663 
Q 828 994 1084 691 
Q 1341 388 1753 388 
Q 2084 388 2306 591 
Q 2528 794 2588 1216 
z
" id="ArialMT-63" transform="scale(0.015625)"/>
     <path d="M 1650 503 
L 1731 6 
Q 1494 -44 1306 -44 
Q 1000 -44 831 53 
Q 663 150 594 308 
Q 525 466 525 972 
L 525 2881 
L 113 2881 
L 113 3319 
L 525 3319 
L 525 4141 
L 1084 4478 
L 1084 3319 
L 1650 3319 
L 1650 2881 
L 1084 2881 
L 1084 941 
Q 1084 700 1114 631 
Q 1144 563 1211 522 
Q 1278 481 1403 481 
Q 1497 481 1650 503 
z
" id="ArialMT-74" transform="scale(0.015625)"/>
     <path d="M 1344 0 
L 81 3319 
L 675 3319 
L 1388 1331 
Q 1503 1009 1600 663 
Q 1675 925 1809 1294 
L 2547 3319 
L 3125 3319 
L 1869 0 
L 1344 0 
z
" id="ArialMT-76" transform="scale(0.015625)"/>
     <path id="ArialMT-20" transform="scale(0.015625)"/>
     <path d="M 494 0 
L 494 4581 
L 2222 4581 
Q 2678 4581 2919 4538 
Q 3256 4481 3484 4323 
Q 3713 4166 3852 3881 
Q 3991 3597 3991 3256 
Q 3991 2672 3619 2267 
Q 3247 1863 2275 1863 
L 1100 1863 
L 1100 0 
L 494 0 
z
M 1100 2403 
L 2284 2403 
Q 2872 2403 3119 2622 
Q 3366 2841 3366 3238 
Q 3366 3525 3220 3729 
Q 3075 3934 2838 4000 
Q 2684 4041 2272 4041 
L 1100 4041 
L 1100 2403 
z
" id="ArialMT-50" transform="scale(0.015625)"/>
     <path d="M 213 1659 
Q 213 2581 725 3025 
Q 1153 3394 1769 3394 
Q 2453 3394 2887 2945 
Q 3322 2497 3322 1706 
Q 3322 1066 3130 698 
Q 2938 331 2570 128 
Q 2203 -75 1769 -75 
Q 1072 -75 642 372 
Q 213 819 213 1659 
z
M 791 1659 
Q 791 1022 1069 705 
Q 1347 388 1769 388 
Q 2188 388 2466 706 
Q 2744 1025 2744 1678 
Q 2744 2294 2464 2611 
Q 2184 2928 1769 2928 
Q 1347 2928 1069 2612 
Q 791 2297 791 1659 
z
" id="ArialMT-6f" transform="scale(0.015625)"/>
     <path d="M 1034 0 
L 19 3319 
L 600 3319 
L 1128 1403 
L 1325 691 
Q 1338 744 1497 1375 
L 2025 3319 
L 2603 3319 
L 3100 1394 
L 3266 759 
L 3456 1400 
L 4025 3319 
L 4572 3319 
L 3534 0 
L 2950 0 
L 2422 1988 
L 2294 2553 
L 1622 0 
L 1034 0 
z
" id="ArialMT-77" transform="scale(0.015625)"/>
     <path d="M 416 0 
L 416 3319 
L 922 3319 
L 922 2816 
Q 1116 3169 1280 3281 
Q 1444 3394 1641 3394 
Q 1925 3394 2219 3213 
L 2025 2691 
Q 1819 2813 1613 2813 
Q 1428 2813 1281 2702 
Q 1134 2591 1072 2394 
Q 978 2094 978 1738 
L 978 0 
L 416 0 
z
" id="ArialMT-72" transform="scale(0.015625)"/>
     <path d="M 422 0 
L 422 3319 
L 928 3319 
L 928 2847 
Q 1294 3394 1984 3394 
Q 2284 3394 2536 3286 
Q 2788 3178 2913 3003 
Q 3038 2828 3088 2588 
Q 3119 2431 3119 2041 
L 3119 0 
L 2556 0 
L 2556 2019 
Q 2556 2363 2490 2533 
Q 2425 2703 2258 2804 
Q 2091 2906 1866 2906 
Q 1506 2906 1245 2678 
Q 984 2450 984 1813 
L 984 0 
L 422 0 
z
" id="ArialMT-6e" transform="scale(0.015625)"/>
     <path d="M 1497 -1347 
Q 1031 -759 709 28 
Q 388 816 388 1659 
Q 388 2403 628 3084 
Q 909 3875 1497 4659 
L 1900 4659 
Q 1522 4009 1400 3731 
Q 1209 3300 1100 2831 
Q 966 2247 966 1656 
Q 966 153 1900 -1347 
L 1497 -1347 
z
" id="ArialMT-28" transform="scale(0.015625)"/>
     <path d="M 1294 0 
L 78 4581 
L 700 4581 
L 1397 1578 
Q 1509 1106 1591 641 
Q 1766 1375 1797 1488 
L 2669 4581 
L 3400 4581 
L 4056 2263 
Q 4303 1400 4413 641 
Q 4500 1075 4641 1638 
L 5359 4581 
L 5969 4581 
L 4713 0 
L 4128 0 
L 3163 3491 
Q 3041 3928 3019 4028 
Q 2947 3713 2884 3491 
L 1913 0 
L 1294 0 
z
" id="ArialMT-57" transform="scale(0.015625)"/>
     <path d="M 791 -1347 
L 388 -1347 
Q 1322 153 1322 1656 
Q 1322 2244 1188 2822 
Q 1081 3291 891 3722 
Q 769 4003 388 4659 
L 791 4659 
Q 1378 3875 1659 3084 
Q 1900 2403 1900 1659 
Q 1900 816 1576 28 
Q 1253 -759 791 -1347 
z
" id="ArialMT-29" transform="scale(0.015625)"/>
    </defs>
    <use xlink:href="#ArialMT-41"/>
    <use x="66.699219" xlink:href="#ArialMT-63"/>
    <use x="116.699219" xlink:href="#ArialMT-74"/>
    <use x="144.482422" xlink:href="#ArialMT-69"/>
    <use x="166.699219" xlink:href="#ArialMT-76"/>
    <use x="216.699219" xlink:href="#ArialMT-65"/>
    <use x="272.314453" xlink:href="#ArialMT-20"/>
    <use x="300.097656" xlink:href="#ArialMT-50"/>
    <use x="366.796875" xlink:href="#ArialMT-6f"/>
    <use x="422.412109" xlink:href="#ArialMT-77"/>
    <use x="494.628906" xlink:href="#ArialMT-65"/>
    <use x="550.244141" xlink:href="#ArialMT-72"/>
    <use x="583.544922" xlink:href="#ArialMT-20"/>
    <use x="611.328125" xlink:href="#ArialMT-69"/>
    <use x="633.544922" xlink:href="#ArialMT-6e"/>
    <use x="689.160156" xlink:href="#ArialMT-20"/>
    <use x="716.943359" xlink:href="#ArialMT-28"/>
    <use x="750.244141" xlink:href="#ArialMT-57"/>
    <use x="844.628906" xlink:href="#ArialMT-29"/>
   </g>
  </g>
 </g>
 <defs>
  <clipPath id="pe429fa83be">
   <rect height="262.08" width="318.685" x="42.248203" y="7.2"/>
  </clipPath>
  <clipPath id="pdfc7103e20">
   <rect height="262.08" width="318.685" x="395.633203" y="7.2"/>
  </clipPath>
 </defs>
</svg>
