<?xml version="1.0" encoding="utf-8" standalone="no"?>
<!DOCTYPE svg PUBLIC "-//W3C//DTD SVG 1.1//EN"
  "http://www.w3.org/Graphics/SVG/1.1/DTD/svg11.dtd">
<!-- Created with matplotlib (https://matplotlib.org/) -->
<svg height="288pt" version="1.1" viewBox="0 0 720 288" width="720pt" xmlns="http://www.w3.org/2000/svg" xmlns:xlink="http://www.w3.org/1999/xlink">
 <metadata>
  <rdf:RDF xmlns:cc="http://creativecommons.org/ns#" xmlns:dc="http://purl.org/dc/elements/1.1/" xmlns:rdf="http://www.w3.org/1999/02/22-rdf-syntax-ns#">
   <cc:Work>
    <dc:type rdf:resource="http://purl.org/dc/dcmitype/StillImage"/>
    <dc:date>2021-08-04T10:41:15.805470</dc:date>
    <dc:format>image/svg+xml</dc:format>
    <dc:creator>
     <cc:Agent>
      <dc:title>Matplotlib v3.3.4, https://matplotlib.org/</dc:title>
     </cc:Agent>
    </dc:creator>
   </cc:Work>
  </rdf:RDF>
 </metadata>
 <defs>
  <style type="text/css">*{stroke-linecap:butt;stroke-linejoin:round;}</style>
 </defs>
 <g id="figure_1">
  <g id="patch_1">
   <path d="M 0 288 
L 720 288 
L 720 0 
L 0 0 
z
" style="fill:#ffffff;"/>
  </g>
  <g id="axes_1">
   <g id="patch_2">
    <path d="M 34.96 275.04 
L 353.645 275.04 
L 353.645 39.92 
L 34.96 39.92 
z
" style="fill:#eaeaf2;"/>
   </g>
   <g id="matplotlib.axis_1"/>
   <g id="matplotlib.axis_2">
    <g id="ytick_1">
     <g id="line2d_1">
      <path clip-path="url(#p2faf5e8cb7)" d="M 34.96 262.412691 
L 353.645 262.412691 
" style="fill:none;stroke:#ffffff;stroke-linecap:round;"/>
     </g>
     <g id="text_1">
      <!-- −2 -->
      <g style="fill:#262626;" transform="translate(12.918281 266.349488)scale(0.11 -0.11)">
       <defs>
        <path d="M 52.828125 31.203125 
L 5.5625 31.203125 
L 5.5625 39.40625 
L 52.828125 39.40625 
z
" id="ArialMT-8722"/>
        <path d="M 50.34375 8.453125 
L 50.34375 0 
L 3.03125 0 
Q 2.9375 3.171875 4.046875 6.109375 
Q 5.859375 10.9375 9.828125 15.625 
Q 13.8125 20.3125 21.34375 26.46875 
Q 33.015625 36.03125 37.109375 41.625 
Q 41.21875 47.21875 41.21875 52.203125 
Q 41.21875 57.421875 37.46875 61 
Q 33.734375 64.59375 27.734375 64.59375 
Q 21.390625 64.59375 17.578125 60.78125 
Q 13.765625 56.984375 13.71875 50.25 
L 4.6875 51.171875 
Q 5.609375 61.28125 11.65625 66.578125 
Q 17.71875 71.875 27.9375 71.875 
Q 38.234375 71.875 44.234375 66.15625 
Q 50.25 60.453125 50.25 52 
Q 50.25 47.703125 48.484375 43.546875 
Q 46.734375 39.40625 42.65625 34.8125 
Q 38.578125 30.21875 29.109375 22.21875 
Q 21.1875 15.578125 18.9375 13.203125 
Q 16.703125 10.84375 15.234375 8.453125 
z
" id="ArialMT-50"/>
       </defs>
       <use xlink:href="#ArialMT-8722"/>
       <use x="58.398438" xlink:href="#ArialMT-50"/>
      </g>
     </g>
    </g>
    <g id="ytick_2">
     <g id="line2d_2">
      <path clip-path="url(#p2faf5e8cb7)" d="M 34.96 234.562238 
L 353.645 234.562238 
" style="fill:none;stroke:#ffffff;stroke-linecap:round;"/>
     </g>
     <g id="text_2">
      <!-- 0 -->
      <g style="fill:#262626;" transform="translate(19.342969 238.499035)scale(0.11 -0.11)">
       <defs>
        <path d="M 4.15625 35.296875 
Q 4.15625 48 6.765625 55.734375 
Q 9.375 63.484375 14.515625 67.671875 
Q 19.671875 71.875 27.484375 71.875 
Q 33.25 71.875 37.59375 69.546875 
Q 41.9375 67.234375 44.765625 62.859375 
Q 47.609375 58.5 49.21875 52.21875 
Q 50.828125 45.953125 50.828125 35.296875 
Q 50.828125 22.703125 48.234375 14.96875 
Q 45.65625 7.234375 40.5 3 
Q 35.359375 -1.21875 27.484375 -1.21875 
Q 17.140625 -1.21875 11.234375 6.203125 
Q 4.15625 15.140625 4.15625 35.296875 
z
M 13.1875 35.296875 
Q 13.1875 17.671875 17.3125 11.828125 
Q 21.4375 6 27.484375 6 
Q 33.546875 6 37.671875 11.859375 
Q 41.796875 17.71875 41.796875 35.296875 
Q 41.796875 52.984375 37.671875 58.78125 
Q 33.546875 64.59375 27.390625 64.59375 
Q 21.34375 64.59375 17.71875 59.46875 
Q 13.1875 52.9375 13.1875 35.296875 
z
" id="ArialMT-48"/>
       </defs>
       <use xlink:href="#ArialMT-48"/>
      </g>
     </g>
    </g>
    <g id="ytick_3">
     <g id="line2d_3">
      <path clip-path="url(#p2faf5e8cb7)" d="M 34.96 206.711785 
L 353.645 206.711785 
" style="fill:none;stroke:#ffffff;stroke-linecap:round;"/>
     </g>
     <g id="text_3">
      <!-- 2 -->
      <g style="fill:#262626;" transform="translate(19.342969 210.648582)scale(0.11 -0.11)">
       <use xlink:href="#ArialMT-50"/>
      </g>
     </g>
    </g>
    <g id="ytick_4">
     <g id="line2d_4">
      <path clip-path="url(#p2faf5e8cb7)" d="M 34.96 178.861331 
L 353.645 178.861331 
" style="fill:none;stroke:#ffffff;stroke-linecap:round;"/>
     </g>
     <g id="text_4">
      <!-- 4 -->
      <g style="fill:#262626;" transform="translate(19.342969 182.798128)scale(0.11 -0.11)">
       <defs>
        <path d="M 32.328125 0 
L 32.328125 17.140625 
L 1.265625 17.140625 
L 1.265625 25.203125 
L 33.9375 71.578125 
L 41.109375 71.578125 
L 41.109375 25.203125 
L 50.78125 25.203125 
L 50.78125 17.140625 
L 41.109375 17.140625 
L 41.109375 0 
z
M 32.328125 25.203125 
L 32.328125 57.46875 
L 9.90625 25.203125 
z
" id="ArialMT-52"/>
       </defs>
       <use xlink:href="#ArialMT-52"/>
      </g>
     </g>
    </g>
    <g id="ytick_5">
     <g id="line2d_5">
      <path clip-path="url(#p2faf5e8cb7)" d="M 34.96 151.010878 
L 353.645 151.010878 
" style="fill:none;stroke:#ffffff;stroke-linecap:round;"/>
     </g>
     <g id="text_5">
      <!-- 6 -->
      <g style="fill:#262626;" transform="translate(19.342969 154.947675)scale(0.11 -0.11)">
       <defs>
        <path d="M 49.75 54.046875 
L 41.015625 53.375 
Q 39.84375 58.546875 37.703125 60.890625 
Q 34.125 64.65625 28.90625 64.65625 
Q 24.703125 64.65625 21.53125 62.3125 
Q 17.390625 59.28125 14.984375 53.46875 
Q 12.59375 47.65625 12.5 36.921875 
Q 15.671875 41.75 20.265625 44.09375 
Q 24.859375 46.4375 29.890625 46.4375 
Q 38.671875 46.4375 44.84375 39.96875 
Q 51.03125 33.5 51.03125 23.25 
Q 51.03125 16.5 48.125 10.71875 
Q 45.21875 4.9375 40.140625 1.859375 
Q 35.0625 -1.21875 28.609375 -1.21875 
Q 17.625 -1.21875 10.6875 6.859375 
Q 3.765625 14.9375 3.765625 33.5 
Q 3.765625 54.25 11.421875 63.671875 
Q 18.109375 71.875 29.4375 71.875 
Q 37.890625 71.875 43.28125 67.140625 
Q 48.6875 62.40625 49.75 54.046875 
z
M 13.875 23.1875 
Q 13.875 18.65625 15.796875 14.5 
Q 17.71875 10.359375 21.1875 8.171875 
Q 24.65625 6 28.46875 6 
Q 34.03125 6 38.03125 10.484375 
Q 42.046875 14.984375 42.046875 22.703125 
Q 42.046875 30.125 38.078125 34.390625 
Q 34.125 38.671875 28.125 38.671875 
Q 22.171875 38.671875 18.015625 34.390625 
Q 13.875 30.125 13.875 23.1875 
z
" id="ArialMT-54"/>
       </defs>
       <use xlink:href="#ArialMT-54"/>
      </g>
     </g>
    </g>
    <g id="ytick_6">
     <g id="line2d_6">
      <path clip-path="url(#p2faf5e8cb7)" d="M 34.96 123.160425 
L 353.645 123.160425 
" style="fill:none;stroke:#ffffff;stroke-linecap:round;"/>
     </g>
     <g id="text_6">
      <!-- 8 -->
      <g style="fill:#262626;" transform="translate(19.342969 127.097222)scale(0.11 -0.11)">
       <defs>
        <path d="M 17.671875 38.8125 
Q 12.203125 40.828125 9.5625 44.53125 
Q 6.9375 48.25 6.9375 53.421875 
Q 6.9375 61.234375 12.546875 66.546875 
Q 18.171875 71.875 27.484375 71.875 
Q 36.859375 71.875 42.578125 66.421875 
Q 48.296875 60.984375 48.296875 53.171875 
Q 48.296875 48.1875 45.671875 44.5 
Q 43.0625 40.828125 37.75 38.8125 
Q 44.34375 36.671875 47.78125 31.875 
Q 51.21875 27.09375 51.21875 20.453125 
Q 51.21875 11.28125 44.71875 5.03125 
Q 38.234375 -1.21875 27.640625 -1.21875 
Q 17.046875 -1.21875 10.546875 5.046875 
Q 4.046875 11.328125 4.046875 20.703125 
Q 4.046875 27.6875 7.59375 32.390625 
Q 11.140625 37.109375 17.671875 38.8125 
z
M 15.921875 53.71875 
Q 15.921875 48.640625 19.1875 45.40625 
Q 22.46875 42.1875 27.6875 42.1875 
Q 32.765625 42.1875 36.015625 45.375 
Q 39.265625 48.578125 39.265625 53.21875 
Q 39.265625 58.0625 35.90625 61.359375 
Q 32.5625 64.65625 27.59375 64.65625 
Q 22.5625 64.65625 19.234375 61.421875 
Q 15.921875 58.203125 15.921875 53.71875 
z
M 13.09375 20.65625 
Q 13.09375 16.890625 14.875 13.375 
Q 16.65625 9.859375 20.171875 7.921875 
Q 23.6875 6 27.734375 6 
Q 34.03125 6 38.125 10.046875 
Q 42.234375 14.109375 42.234375 20.359375 
Q 42.234375 26.703125 38.015625 30.859375 
Q 33.796875 35.015625 27.4375 35.015625 
Q 21.234375 35.015625 17.15625 30.90625 
Q 13.09375 26.8125 13.09375 20.65625 
z
" id="ArialMT-56"/>
       </defs>
       <use xlink:href="#ArialMT-56"/>
      </g>
     </g>
    </g>
    <g id="ytick_7">
     <g id="line2d_7">
      <path clip-path="url(#p2faf5e8cb7)" d="M 34.96 95.309972 
L 353.645 95.309972 
" style="fill:none;stroke:#ffffff;stroke-linecap:round;"/>
     </g>
     <g id="text_7">
      <!-- 10 -->
      <g style="fill:#262626;" transform="translate(13.225938 99.246768)scale(0.11 -0.11)">
       <defs>
        <path d="M 37.25 0 
L 28.46875 0 
L 28.46875 56 
Q 25.296875 52.984375 20.140625 49.953125 
Q 14.984375 46.921875 10.890625 45.40625 
L 10.890625 53.90625 
Q 18.265625 57.375 23.78125 62.296875 
Q 29.296875 67.234375 31.59375 71.875 
L 37.25 71.875 
z
" id="ArialMT-49"/>
       </defs>
       <use xlink:href="#ArialMT-49"/>
       <use x="55.615234" xlink:href="#ArialMT-48"/>
      </g>
     </g>
    </g>
    <g id="ytick_8">
     <g id="line2d_8">
      <path clip-path="url(#p2faf5e8cb7)" d="M 34.96 67.459518 
L 353.645 67.459518 
" style="fill:none;stroke:#ffffff;stroke-linecap:round;"/>
     </g>
     <g id="text_8">
      <!-- 12 -->
      <g style="fill:#262626;" transform="translate(13.225938 71.396315)scale(0.11 -0.11)">
       <use xlink:href="#ArialMT-49"/>
       <use x="55.615234" xlink:href="#ArialMT-50"/>
      </g>
     </g>
    </g>
   </g>
   <g id="line2d_9">
    <path clip-path="url(#p2faf5e8cb7)" d="M 49.445682 205.206338 
L 49.808277 210.646463 
L 50.170872 212.862377 
L 50.533468 216.659074 
L 50.896063 216.418137 
L 51.258658 208.714325 
L 51.621254 194.291392 
L 51.983849 251.47639 
L 52.709039 204.267395 
L 53.071635 236.322205 
L 53.43423 216.355336 
L 53.796825 234.06971 
L 54.159421 245.165241 
L 54.522016 203.957105 
L 54.884611 217.564316 
L 55.247206 214.137935 
L 55.609802 217.820005 
L 55.972397 199.889082 
L 56.334992 216.704506 
L 56.697588 198.453635 
L 57.060183 213.058162 
L 57.422778 220.341943 
L 57.785373 246.431538 
L 58.147969 191.404399 
L 58.510564 223.793646 
L 58.873159 220.456777 
L 59.235755 233.27356 
L 59.59835 229.123219 
L 59.960945 190.172454 
L 60.323541 208.13663 
L 60.686136 233.43241 
L 61.048731 201.080695 
L 61.411326 197.610516 
L 61.773922 231.144349 
L 62.136517 178.176956 
L 62.499112 203.90434 
L 62.861708 214.340795 
L 63.224303 209.507121 
L 63.586898 213.955504 
L 63.949493 206.928644 
L 64.312089 187.895495 
L 64.674684 225.665159 
L 65.037279 187.9024 
L 65.399875 214.372025 
L 65.76247 220.395876 
L 66.125065 206.871083 
L 66.48766 246.113371 
L 66.850256 203.350809 
L 67.212851 226.394425 
L 67.575446 194.858325 
L 67.938042 191.017057 
L 68.300637 204.599462 
L 68.663232 198.173157 
L 69.025827 212.211469 
L 69.388423 235.910467 
L 69.751018 232.741371 
L 70.113613 187.58532 
L 70.476209 249.992171 
L 70.838804 186.723856 
L 71.201399 159.96671 
L 71.563994 96.767901 
L 71.92659 95.550719 
L 72.289185 89.539593 
L 72.65178 120.62726 
L 73.014376 75.815611 
L 73.376971 114.781949 
L 73.739566 92.083317 
L 74.102162 124.954358 
L 74.464757 94.039753 
L 74.827352 124.165372 
L 75.189947 92.090232 
L 75.552543 81.829433 
L 75.915138 65.376023 
L 76.277733 87.480705 
L 76.640329 93.614475 
L 77.002924 68.605458 
L 77.365519 103.925288 
L 77.728114 216.557115 
L 78.09071 221.590883 
L 78.453305 217.782106 
L 78.8159 185.793544 
L 79.178496 208.910717 
L 79.541091 194.809838 
L 79.903686 201.816109 
L 80.266281 186.117951 
L 80.628877 232.075963 
L 80.991472 240.560685 
L 81.354067 209.845623 
L 81.716663 197.490892 
L 82.079258 261.850717 
L 82.441853 173.119832 
L 82.804448 177.959663 
L 83.529639 263.33833 
L 83.892234 228.642124 
L 84.25483 230.143073 
L 84.617425 203.353591 
L 84.98002 241.836066 
L 85.705211 174.382822 
L 86.067806 183.501879 
L 86.430401 169.133767 
L 86.792997 193.702351 
L 87.155592 171.761691 
L 87.518187 185.092517 
L 87.880783 190.398006 
L 88.243378 208.489889 
L 88.605973 188.370956 
L 88.968568 207.818986 
L 89.331164 199.841848 
L 89.693759 232.888225 
L 90.056354 222.698989 
L 90.41895 224.476542 
L 90.781545 223.31353 
L 91.14414 235.854431 
L 91.506735 241.759036 
L 91.869331 179.432041 
L 92.231926 209.858333 
L 92.594521 199.257298 
L 92.957117 228.549797 
L 93.319712 182.504881 
L 93.682307 194.354369 
L 94.044902 213.395083 
L 94.407498 203.465169 
L 94.770093 216.558915 
L 95.132688 190.023288 
L 95.495284 223.440153 
L 95.857879 210.833701 
L 96.220474 187.045549 
L 96.583069 202.166934 
L 96.945665 226.614448 
L 97.670855 203.632196 
L 98.033451 183.647638 
L 98.396046 195.17368 
L 98.758641 242.835845 
L 99.121236 233.844111 
L 99.483832 241.497272 
L 99.846427 210.694757 
L 100.209022 218.335319 
L 100.571618 178.182828 
L 101.296808 226.31991 
L 102.021999 198.078636 
L 102.384594 190.847996 
L 102.747189 232.472978 
L 103.109785 199.745833 
L 103.47238 204.285541 
L 103.834975 198.255439 
L 104.197571 185.851489 
L 104.560166 239.997821 
L 104.922761 225.839185 
L 105.285356 237.794692 
L 105.647952 215.614495 
L 106.010547 202.439199 
L 106.373142 215.448707 
L 106.735738 233.975897 
L 107.098333 210.076962 
L 107.460928 200.610632 
L 107.823523 195.223063 
L 108.186119 178.057557 
L 109.273905 86.047951 
L 109.6365 86.612508 
L 109.999095 94.124836 
L 110.36169 128.998289 
L 111.086881 113.604317 
L 111.449476 114.851168 
L 111.812072 104.259323 
L 112.174667 137.34493 
L 112.899857 65.745904 
L 113.262453 102.481553 
L 113.625048 121.43268 
L 113.987643 121.222897 
L 114.350239 75.755725 
L 114.712834 126.4165 
L 115.075429 242.77827 
L 115.438025 170.482897 
L 115.80062 222.010379 
L 116.163215 246.581407 
L 116.52581 227.409761 
L 116.888406 185.549018 
L 117.251001 177.709 
L 117.613596 234.716162 
L 117.976192 204.573099 
L 118.338787 204.728772 
L 118.701382 203.895448 
L 119.063977 224.237664 
L 119.426573 197.970806 
L 119.789168 189.138427 
L 120.151763 232.58058 
L 120.514359 185.59396 
L 120.876954 192.027031 
L 121.239549 244.247954 
L 121.602144 210.115651 
L 121.96474 213.27434 
L 122.327335 230.227216 
L 122.68993 194.264978 
L 123.052526 197.861243 
L 123.415121 226.611757 
L 123.777716 264.346952 
L 124.140311 199.538116 
L 124.502907 222.167157 
L 124.865502 218.144431 
L 125.228097 192.500899 
L 125.590693 236.642453 
L 125.953288 260.332118 
L 126.315883 215.719394 
L 126.678478 224.03947 
L 127.041074 191.964191 
L 127.403669 187.443601 
L 127.766264 231.7008 
L 128.12886 206.817112 
L 128.491455 213.447448 
L 128.85405 199.884813 
L 129.216646 226.096885 
L 129.579241 199.392987 
L 129.941836 229.524765 
L 130.304431 243.299618 
L 130.667027 220.766192 
L 131.029622 206.525632 
L 131.392217 242.971192 
L 131.754813 190.664451 
L 132.117408 200.867108 
L 132.480003 214.867978 
L 132.842598 254.141782 
L 133.205194 211.907832 
L 133.567789 234.152129 
L 133.930384 204.405805 
L 134.29298 211.431583 
L 135.01817 197.168212 
L 135.380765 205.985452 
L 135.743361 230.058381 
L 136.105956 233.55029 
L 136.468551 196.913726 
L 136.831147 236.109924 
L 137.193742 193.262329 
L 137.556337 209.556439 
L 137.918932 236.994435 
L 138.281528 233.771133 
L 138.644123 227.949025 
L 139.006718 216.522967 
L 139.369314 235.549158 
L 139.731909 236.896337 
L 140.094504 225.4826 
L 140.457099 199.915984 
L 140.819695 199.01323 
L 141.18229 193.587872 
L 141.544885 207.693502 
L 141.907481 226.78478 
L 142.270076 205.502955 
L 142.632671 191.027327 
L 143.720457 230.722253 
L 144.083052 242.599672 
L 144.445648 214.179782 
L 144.808243 226.083279 
L 145.896029 131.226429 
L 146.258624 142.932818 
L 146.983815 68.72285 
L 147.34641 74.481541 
L 147.709005 120.881629 
L 148.071601 74.527847 
L 148.796791 87.722172 
L 149.159386 113.887576 
L 149.521982 115.401817 
L 149.884577 122.88104 
L 150.247172 60.810019 
L 150.609768 99.032808 
L 150.972363 73.620177 
L 151.334958 58.016374 
L 152.060149 192.428629 
L 152.422744 218.28013 
L 152.785339 219.29346 
L 153.147935 223.10841 
L 153.51053 222.292793 
L 153.873125 188.26267 
L 154.235721 209.790461 
L 154.598316 215.080409 
L 154.960911 210.778281 
L 155.686102 253.569241 
L 156.048697 191.293381 
L 156.411292 194.187053 
L 156.773888 191.859191 
L 157.136483 227.992571 
L 157.499078 238.841799 
L 158.224269 183.977301 
L 158.586864 182.16206 
L 158.949459 189.267007 
L 159.312055 191.404229 
L 159.67465 214.894893 
L 160.037245 184.573549 
L 160.39984 197.130959 
L 160.762436 238.36936 
L 161.125031 233.745807 
L 161.850222 189.688132 
L 162.212817 219.646477 
L 162.575412 217.457429 
L 162.938007 212.35946 
L 163.300603 209.854269 
L 163.663198 209.851849 
L 164.025793 187.343778 
L 164.388389 185.055483 
L 164.750984 248.281697 
L 165.113579 228.815842 
L 165.476174 197.63434 
L 165.83877 211.32173 
L 166.201365 201.973107 
L 166.56396 182.613088 
L 166.926556 240.595306 
L 167.289151 176.634693 
L 167.651746 244.757701 
L 168.014342 202.10879 
L 168.376937 201.810804 
L 168.739532 204.706787 
L 169.102127 226.517339 
L 169.464723 178.054693 
L 170.552509 249.13362 
L 170.915104 203.289886 
L 171.277699 192.204373 
L 171.640294 208.796216 
L 172.00289 214.682511 
L 172.365485 174.070584 
L 172.72808 215.326443 
L 173.090676 242.079467 
L 173.815866 200.175192 
L 174.178461 211.48 
L 174.541057 198.804713 
L 174.903652 177.752934 
L 175.266247 215.761464 
L 175.628843 197.116458 
L 175.991438 238.93935 
L 176.354033 213.730648 
L 176.716628 219.009968 
L 177.079224 222.555894 
L 177.441819 212.942736 
L 177.804414 228.738022 
L 178.16701 197.945197 
L 178.529605 194.714236 
L 178.8922 221.6309 
L 179.254795 218.908272 
L 179.617391 203.078504 
L 179.979986 238.288276 
L 180.342581 189.308388 
L 180.705177 247.25159 
L 181.067772 185.432331 
L 181.430367 168.74062 
L 181.792963 235.800895 
L 182.155558 202.799046 
L 182.518153 213.288722 
L 182.880748 178.340792 
L 183.243344 101.727397 
L 183.968534 61.342343 
L 184.33113 79.204797 
L 184.693725 67.63905 
L 185.418915 99.898905 
L 185.781511 113.094763 
L 186.144106 100.362731 
L 186.506701 64.58897 
L 186.869297 60.983242 
L 187.231892 101.92281 
L 187.594487 117.926827 
L 187.957082 109.677812 
L 188.319678 96.909685 
L 188.682273 66.065834 
L 189.044868 122.653563 
L 189.770059 185.952511 
L 190.495249 221.291123 
L 190.857845 226.61119 
L 191.22044 217.702806 
L 191.583035 197.70348 
L 191.945631 187.911809 
L 192.308226 189.235111 
L 192.670821 239.640576 
L 193.033416 214.793678 
L 193.396012 217.226211 
L 193.758607 234.856335 
L 194.121202 211.120159 
L 194.483798 215.498644 
L 194.846393 227.039435 
L 195.208988 223.883454 
L 195.571584 229.506723 
L 195.934179 216.141059 
L 196.296774 209.827282 
L 196.659369 193.253545 
L 197.021965 224.378166 
L 197.38456 216.690436 
L 197.747155 196.538645 
L 198.109751 201.493765 
L 198.472346 203.62796 
L 198.834941 213.136741 
L 199.197536 238.488162 
L 199.560132 201.12882 
L 199.922727 203.608402 
L 200.285322 221.336434 
L 200.647918 223.141533 
L 201.010513 212.183441 
L 201.373108 194.611168 
L 201.735703 199.402828 
L 202.460894 247.687586 
L 202.823489 223.651215 
L 203.186085 218.551923 
L 203.54868 188.607859 
L 203.911275 176.018471 
L 204.27387 204.744068 
L 204.999061 192.234573 
L 205.361656 231.212968 
L 205.724252 244.826365 
L 206.086847 264.120702 
L 206.449442 240.7641 
L 206.812037 236.11717 
L 207.174633 237.178413 
L 207.537228 227.497193 
L 208.262419 221.43412 
L 208.625014 199.862688 
L 208.987609 221.373844 
L 209.350205 228.802222 
L 209.7128 210.709922 
L 210.075395 218.665924 
L 210.800586 248.6503 
L 211.163181 237.810229 
L 211.525776 233.675535 
L 211.888372 240.434555 
L 212.250967 264.352727 
L 212.613562 228.474224 
L 212.976157 237.816109 
L 213.338753 203.435074 
L 213.701348 222.202393 
L 214.063943 179.402947 
L 214.426539 175.406958 
L 214.789134 196.950778 
L 215.151729 239.806514 
L 215.514324 234.197825 
L 215.87692 194.033574 
L 216.239515 203.915383 
L 216.60211 234.390458 
L 217.327301 203.986619 
L 217.689896 196.5028 
L 218.052491 198.853438 
L 218.415087 207.623316 
L 218.777682 227.510147 
L 219.140277 234.891884 
L 219.502873 206.008135 
L 219.865468 189.178809 
L 220.590658 69.040792 
L 221.315849 83.339107 
L 221.678444 83.161362 
L 222.04104 80.730436 
L 222.403635 85.535813 
L 222.76623 69.738243 
L 223.128826 64.420712 
L 223.491421 72.047512 
L 223.854016 64.60989 
L 224.216611 98.434329 
L 224.579207 78.869896 
L 224.941802 96.78415 
L 225.304397 140.799627 
L 225.666993 137.59832 
L 226.029588 110.679255 
L 226.392183 108.23722 
L 226.754778 213.466325 
L 227.117374 196.225728 
L 227.479969 215.715453 
L 227.842564 219.771776 
L 228.20516 213.058058 
L 228.567755 209.004859 
L 228.93035 228.377055 
L 229.292945 202.309298 
L 229.655541 189.130018 
L 230.018136 186.394457 
L 231.105922 261.090121 
L 231.468517 196.190452 
L 231.831112 206.285384 
L 232.193708 250.726815 
L 232.556303 207.969007 
L 232.918898 210.1886 
L 233.281494 221.299936 
L 233.644089 191.369163 
L 234.006684 236.027928 
L 234.369279 245.64447 
L 234.731875 189.006756 
L 235.09447 207.832235 
L 235.457065 244.121959 
L 235.819661 203.222272 
L 236.182256 190.977923 
L 236.544851 216.7765 
L 236.907447 198.892255 
L 237.270042 191.265408 
L 237.632637 203.519724 
L 237.995232 203.382657 
L 238.357828 195.280928 
L 238.720423 190.642142 
L 239.083018 229.918292 
L 239.445614 197.557171 
L 239.808209 220.083935 
L 240.170804 199.385487 
L 240.533399 193.087393 
L 240.895995 210.531897 
L 241.25859 192.805341 
L 241.621185 256.199733 
L 241.983781 226.9942 
L 242.346376 234.316358 
L 242.708971 218.572832 
L 243.071566 236.321592 
L 243.434162 226.382755 
L 243.796757 180.464937 
L 244.159352 175.852777 
L 244.521948 194.705976 
L 244.884543 191.752015 
L 245.247138 225.841445 
L 245.609733 244.520951 
L 245.972329 243.271646 
L 246.334924 207.239551 
L 246.697519 215.210144 
L 247.060115 206.327399 
L 247.42271 260.724739 
L 247.785305 232.286505 
L 248.147901 243.570255 
L 248.510496 226.068251 
L 248.873091 226.819794 
L 249.598282 185.222435 
L 249.960877 173.290482 
L 250.323472 208.594675 
L 250.686068 194.794912 
L 251.048663 198.612747 
L 251.773853 216.678536 
L 252.136449 216.784231 
L 252.499044 240.496651 
L 252.861639 216.447382 
L 253.224235 235.020742 
L 253.58683 225.630678 
L 253.949425 224.901561 
L 254.31202 222.987281 
L 254.674616 248.381464 
L 255.037211 214.405512 
L 255.399806 199.17727 
L 255.762402 192.939796 
L 256.124997 205.940982 
L 256.487592 186.442721 
L 256.850187 197.187769 
L 257.212783 142.274424 
L 257.575378 159.782461 
L 257.937973 92.980575 
L 258.300569 57.572803 
L 258.663164 50.607273 
L 259.025759 63.784351 
L 259.388354 107.801536 
L 259.75095 89.631421 
L 260.113545 116.003068 
L 260.47614 52.400236 
L 260.838736 63.037129 
L 261.201331 92.598488 
L 261.563926 93.313858 
L 261.926522 152.340018 
L 262.651712 73.478055 
L 263.014307 72.998285 
L 263.376903 82.207005 
L 263.739498 102.436103 
L 264.102093 227.457686 
L 264.827284 242.439399 
L 265.189879 243.157576 
L 265.552474 260.405874 
L 265.91507 215.507922 
L 266.277665 207.696615 
L 267.002856 170.325179 
L 267.365451 210.133281 
L 267.728046 226.364087 
L 268.090641 190.492667 
L 268.453237 196.294724 
L 268.815832 183.422643 
L 269.903618 241.607831 
L 270.266213 224.467239 
L 270.628808 219.826443 
L 270.991404 247.563393 
L 271.353999 257.043752 
L 272.441785 187.913344 
L 272.80438 202.261325 
L 273.166975 205.697797 
L 273.529571 231.957333 
L 273.892166 246.451167 
L 274.254761 214.033851 
L 274.617357 222.46627 
L 274.979952 238.164374 
L 275.342547 216.856915 
L 275.705143 226.515039 
L 276.067738 201.345432 
L 276.430333 205.007408 
L 276.792928 214.748842 
L 277.155524 211.49827 
L 277.518119 204.268265 
L 277.880714 232.085056 
L 278.24331 222.112376 
L 278.605905 227.20927 
L 278.9685 220.216538 
L 279.331095 233.779364 
L 279.693691 214.812904 
L 280.056286 228.620838 
L 280.781477 197.394707 
L 281.144072 206.972503 
L 281.506667 208.9728 
L 281.869262 197.04272 
L 282.231858 240.932844 
L 282.594453 234.858497 
L 282.957048 215.490092 
L 283.319644 206.237993 
L 283.682239 224.191163 
L 284.044834 214.045081 
L 284.407429 224.987469 
L 284.770025 251.875527 
L 285.13262 218.095126 
L 285.495215 236.482933 
L 285.857811 189.816281 
L 286.583001 240.241623 
L 286.945596 221.391423 
L 287.308192 191.028607 
L 287.670787 245.862315 
L 288.033382 205.496849 
L 288.395978 209.116495 
L 288.758573 231.214756 
L 289.121168 232.602746 
L 289.483764 238.668083 
L 289.846359 216.415928 
L 290.208954 241.333266 
L 290.571549 202.671581 
L 290.934145 250.470857 
L 291.29674 219.81512 
L 291.659335 229.193669 
L 292.021931 212.190835 
L 292.384526 229.476148 
L 292.747121 169.044362 
L 293.109716 223.548133 
L 293.472312 185.286418 
L 293.834907 255.727499 
L 294.197502 182.064358 
L 294.560098 187.581163 
L 294.922693 151.443719 
L 295.285288 89.287808 
L 295.647883 92.998585 
L 296.010479 89.876923 
L 296.373074 99.616756 
L 296.735669 122.324056 
L 297.098265 94.037964 
L 297.46086 113.266642 
L 297.823455 87.650203 
L 298.18605 97.760177 
L 298.548646 116.45495 
L 298.911241 81.607076 
L 299.273836 98.941862 
L 299.636432 131.983637 
L 300.724217 84.99184 
L 301.086813 134.489731 
L 301.449408 241.281688 
L 301.812003 203.015465 
L 302.174599 197.990471 
L 302.537194 221.02168 
L 302.899789 232.577056 
L 303.262385 187.72957 
L 303.62498 211.290712 
L 303.987575 222.380883 
L 304.35017 207.828705 
L 304.712766 179.360664 
L 305.075361 189.847219 
L 305.437956 222.655561 
L 306.163147 177.985288 
L 306.525742 199.436882 
L 306.888337 181.86497 
L 307.250933 211.914234 
L 307.613528 219.785359 
L 307.976123 209.39599 
L 308.338719 216.057538 
L 308.701314 215.455364 
L 309.063909 191.740748 
L 309.426504 197.733696 
L 309.7891 220.9911 
L 310.151695 214.578649 
L 310.51429 204.187708 
L 310.876886 198.664896 
L 311.239481 199.493776 
L 311.602076 191.130069 
L 311.964671 236.568034 
L 312.327267 227.485226 
L 312.689862 204.504502 
L 313.415053 221.835121 
L 313.777648 200.546111 
L 314.140243 196.857149 
L 314.502838 212.2485 
L 314.865434 213.000565 
L 315.590624 199.059187 
L 315.95322 227.386751 
L 316.315815 232.21743 
L 316.67841 216.733183 
L 317.041006 219.102343 
L 317.403601 189.887792 
L 317.766196 198.066503 
L 318.128791 217.305965 
L 318.853982 196.417832 
L 319.216577 199.354244 
L 319.579173 234.06528 
L 319.941768 183.579113 
L 320.304363 195.686637 
L 320.666958 238.730758 
L 321.029554 197.33287 
L 321.392149 197.187405 
L 321.754744 226.452868 
L 322.11734 204.966832 
L 322.479935 174.353788 
L 322.84253 219.306044 
L 323.205125 199.193022 
L 323.567721 217.689283 
L 323.930316 206.690894 
L 324.292911 235.41964 
L 324.655507 196.00535 
L 325.018102 203.101945 
L 325.380697 214.487343 
L 325.743292 187.436413 
L 326.105888 173.766741 
L 327.193674 216.590587 
L 327.556269 219.548406 
L 327.918864 217.144123 
L 328.644055 237.046725 
L 329.00665 200.334371 
L 329.369245 200.610892 
L 329.731841 200.169663 
L 330.094436 181.303191 
L 330.457031 239.904978 
L 330.819627 219.07225 
L 331.182222 218.70568 
L 331.544817 177.868315 
L 331.907412 153.164411 
L 332.270008 96.247774 
L 332.632603 117.954548 
L 332.995198 99.78421 
L 333.357794 100.755924 
L 334.082984 119.620488 
L 334.445579 100.105908 
L 334.808175 97.95354 
L 335.17077 99.327121 
L 335.533365 92.38857 
L 335.895961 75.764126 
L 336.258556 72.067054 
L 336.621151 109.3628 
L 336.983746 131.942024 
L 337.346342 84.404021 
L 337.708937 145.079844 
L 338.071532 126.073664 
L 338.796723 209.774767 
L 339.159318 228.602318 
L 339.159318 228.602318 
" style="fill:none;stroke:#4c72b0;stroke-linecap:round;"/>
   </g>
   <g id="patch_3">
    <path d="M 34.96 275.04 
L 34.96 39.92 
" style="fill:none;stroke:#ffffff;stroke-linecap:square;stroke-linejoin:miter;stroke-width:1.25;"/>
   </g>
   <g id="patch_4">
    <path d="M 353.645 275.04 
L 353.645 39.92 
" style="fill:none;stroke:#ffffff;stroke-linecap:square;stroke-linejoin:miter;stroke-width:1.25;"/>
   </g>
   <g id="patch_5">
    <path d="M 34.96 275.04 
L 353.645 275.04 
" style="fill:none;stroke:#ffffff;stroke-linecap:square;stroke-linejoin:miter;stroke-width:1.25;"/>
   </g>
   <g id="patch_6">
    <path d="M 34.96 39.92 
L 353.645 39.92 
" style="fill:none;stroke:#ffffff;stroke-linecap:square;stroke-linejoin:miter;stroke-width:1.25;"/>
   </g>
  </g>
  <g id="axes_2">
   <g id="patch_7">
    <path d="M 388.355 275.04 
L 707.04 275.04 
L 707.04 39.92 
L 388.355 39.92 
z
" style="fill:#eaeaf2;"/>
   </g>
   <g id="matplotlib.axis_3"/>
   <g id="matplotlib.axis_4">
    <g id="ytick_9">
     <g id="line2d_10">
      <path clip-path="url(#p7bb783b9e5)" d="M 388.355 264.352727 
L 707.04 264.352727 
" style="fill:none;stroke:#ffffff;stroke-linecap:round;"/>
     </g>
     <g id="text_9">
      <!-- 0 -->
      <g style="fill:#262626;" transform="translate(372.737969 268.289524)scale(0.11 -0.11)">
       <use xlink:href="#ArialMT-48"/>
      </g>
     </g>
    </g>
    <g id="ytick_10">
     <g id="line2d_11">
      <path clip-path="url(#p7bb783b9e5)" d="M 388.355 228.728485 
L 707.04 228.728485 
" style="fill:none;stroke:#ffffff;stroke-linecap:round;"/>
     </g>
     <g id="text_10">
      <!-- 2 -->
      <g style="fill:#262626;" transform="translate(372.737969 232.665282)scale(0.11 -0.11)">
       <use xlink:href="#ArialMT-50"/>
      </g>
     </g>
    </g>
    <g id="ytick_11">
     <g id="line2d_12">
      <path clip-path="url(#p7bb783b9e5)" d="M 388.355 193.104242 
L 707.04 193.104242 
" style="fill:none;stroke:#ffffff;stroke-linecap:round;"/>
     </g>
     <g id="text_11">
      <!-- 4 -->
      <g style="fill:#262626;" transform="translate(372.737969 197.041039)scale(0.11 -0.11)">
       <use xlink:href="#ArialMT-52"/>
      </g>
     </g>
    </g>
    <g id="ytick_12">
     <g id="line2d_13">
      <path clip-path="url(#p7bb783b9e5)" d="M 388.355 157.48 
L 707.04 157.48 
" style="fill:none;stroke:#ffffff;stroke-linecap:round;"/>
     </g>
     <g id="text_12">
      <!-- 6 -->
      <g style="fill:#262626;" transform="translate(372.737969 161.416797)scale(0.11 -0.11)">
       <use xlink:href="#ArialMT-54"/>
      </g>
     </g>
    </g>
    <g id="ytick_13">
     <g id="line2d_14">
      <path clip-path="url(#p7bb783b9e5)" d="M 388.355 121.855758 
L 707.04 121.855758 
" style="fill:none;stroke:#ffffff;stroke-linecap:round;"/>
     </g>
     <g id="text_13">
      <!-- 8 -->
      <g style="fill:#262626;" transform="translate(372.737969 125.792554)scale(0.11 -0.11)">
       <use xlink:href="#ArialMT-56"/>
      </g>
     </g>
    </g>
    <g id="ytick_14">
     <g id="line2d_15">
      <path clip-path="url(#p7bb783b9e5)" d="M 388.355 86.231515 
L 707.04 86.231515 
" style="fill:none;stroke:#ffffff;stroke-linecap:round;"/>
     </g>
     <g id="text_14">
      <!-- 10 -->
      <g style="fill:#262626;" transform="translate(366.620938 90.168312)scale(0.11 -0.11)">
       <use xlink:href="#ArialMT-49"/>
       <use x="55.615234" xlink:href="#ArialMT-48"/>
      </g>
     </g>
    </g>
    <g id="ytick_15">
     <g id="line2d_16">
      <path clip-path="url(#p7bb783b9e5)" d="M 388.355 50.607273 
L 707.04 50.607273 
" style="fill:none;stroke:#ffffff;stroke-linecap:round;"/>
     </g>
     <g id="text_15">
      <!-- 12 -->
      <g style="fill:#262626;" transform="translate(366.620938 54.54407)scale(0.11 -0.11)">
       <use xlink:href="#ArialMT-49"/>
       <use x="55.615234" xlink:href="#ArialMT-50"/>
      </g>
     </g>
    </g>
   </g>
   <g id="line2d_17">
    <path clip-path="url(#p7bb783b9e5)" d="M 402.840682 264.352727 
L 424.233804 264.352727 
L 424.596399 50.607273 
L 430.760519 50.607273 
L 431.123114 264.352727 
L 461.581119 264.352727 
L 461.943714 50.607273 
L 468.107834 50.607273 
L 468.470429 264.352727 
L 498.928434 264.352727 
L 499.291029 50.607273 
L 505.092553 50.607273 
L 505.455149 264.352727 
L 536.275748 264.352727 
L 536.638344 50.607273 
L 542.802464 50.607273 
L 543.165059 264.352727 
L 573.260468 264.352727 
L 573.623063 50.607273 
L 579.787183 50.607273 
L 580.149778 264.352727 
L 610.245187 264.352727 
L 610.607783 50.607273 
L 617.134498 50.607273 
L 617.497093 264.352727 
L 647.955098 264.352727 
L 648.317693 50.607273 
L 654.481813 50.607273 
L 654.844408 264.352727 
L 684.939817 264.352727 
L 685.302412 50.607273 
L 691.466532 50.607273 
L 691.829128 264.352727 
L 692.554318 264.352727 
L 692.554318 264.352727 
" style="fill:none;stroke:#4c72b0;stroke-linecap:round;"/>
   </g>
   <g id="patch_8">
    <path d="M 388.355 275.04 
L 388.355 39.92 
" style="fill:none;stroke:#ffffff;stroke-linecap:square;stroke-linejoin:miter;stroke-width:1.25;"/>
   </g>
   <g id="patch_9">
    <path d="M 707.04 275.04 
L 707.04 39.92 
" style="fill:none;stroke:#ffffff;stroke-linecap:square;stroke-linejoin:miter;stroke-width:1.25;"/>
   </g>
   <g id="patch_10">
    <path d="M 388.355 275.04 
L 707.04 275.04 
" style="fill:none;stroke:#ffffff;stroke-linecap:square;stroke-linejoin:miter;stroke-width:1.25;"/>
   </g>
   <g id="patch_11">
    <path d="M 388.355 39.92 
L 707.04 39.92 
" style="fill:none;stroke:#ffffff;stroke-linecap:square;stroke-linejoin:miter;stroke-width:1.25;"/>
   </g>
  </g>
  <g id="text_16">
   <!-- Time -->
   <g style="fill:#262626;" transform="translate(346.892812 293.982188)scale(0.12 -0.12)">
    <defs>
     <path d="M 25.921875 0 
L 25.921875 63.140625 
L 2.34375 63.140625 
L 2.34375 71.578125 
L 59.078125 71.578125 
L 59.078125 63.140625 
L 35.40625 63.140625 
L 35.40625 0 
z
" id="ArialMT-84"/>
     <path d="M 6.640625 61.46875 
L 6.640625 71.578125 
L 15.4375 71.578125 
L 15.4375 61.46875 
z
M 6.640625 0 
L 6.640625 51.859375 
L 15.4375 51.859375 
L 15.4375 0 
z
" id="ArialMT-105"/>
     <path d="M 6.59375 0 
L 6.59375 51.859375 
L 14.453125 51.859375 
L 14.453125 44.578125 
Q 16.890625 48.390625 20.9375 50.703125 
Q 25 53.03125 30.171875 53.03125 
Q 35.9375 53.03125 39.625 50.640625 
Q 43.3125 48.25 44.828125 43.953125 
Q 50.984375 53.03125 60.84375 53.03125 
Q 68.5625 53.03125 72.703125 48.75 
Q 76.859375 44.484375 76.859375 35.59375 
L 76.859375 0 
L 68.109375 0 
L 68.109375 32.671875 
Q 68.109375 37.9375 67.25 40.25 
Q 66.40625 42.578125 64.15625 43.984375 
Q 61.921875 45.40625 58.890625 45.40625 
Q 53.421875 45.40625 49.796875 41.765625 
Q 46.1875 38.140625 46.1875 30.125 
L 46.1875 0 
L 37.40625 0 
L 37.40625 33.6875 
Q 37.40625 39.546875 35.25 42.46875 
Q 33.109375 45.40625 28.21875 45.40625 
Q 24.515625 45.40625 21.359375 43.453125 
Q 18.21875 41.5 16.796875 37.734375 
Q 15.375 33.984375 15.375 26.90625 
L 15.375 0 
z
" id="ArialMT-109"/>
     <path d="M 42.09375 16.703125 
L 51.171875 15.578125 
Q 49.03125 7.625 43.21875 3.21875 
Q 37.40625 -1.171875 28.375 -1.171875 
Q 17 -1.171875 10.328125 5.828125 
Q 3.65625 12.84375 3.65625 25.484375 
Q 3.65625 38.578125 10.390625 45.796875 
Q 17.140625 53.03125 27.875 53.03125 
Q 38.28125 53.03125 44.875 45.953125 
Q 51.46875 38.875 51.46875 26.03125 
Q 51.46875 25.25 51.421875 23.6875 
L 12.75 23.6875 
Q 13.234375 15.140625 17.578125 10.59375 
Q 21.921875 6.0625 28.421875 6.0625 
Q 33.25 6.0625 36.671875 8.59375 
Q 40.09375 11.140625 42.09375 16.703125 
z
M 13.234375 30.90625 
L 42.1875 30.90625 
Q 41.609375 37.453125 38.875 40.71875 
Q 34.671875 45.796875 27.984375 45.796875 
Q 21.921875 45.796875 17.796875 41.75 
Q 13.671875 37.703125 13.234375 30.90625 
z
" id="ArialMT-101"/>
    </defs>
    <use xlink:href="#ArialMT-84"/>
    <use x="57.333984" xlink:href="#ArialMT-105"/>
    <use x="79.550781" xlink:href="#ArialMT-109"/>
    <use x="162.851562" xlink:href="#ArialMT-101"/>
   </g>
  </g>
  <g id="text_17">
   <!-- Active Power in (W) -->
   <g style="fill:#262626;" transform="translate(3.105 196.674375)rotate(-90)scale(0.12 -0.12)">
    <defs>
     <path d="M -0.140625 0 
L 27.34375 71.578125 
L 37.546875 71.578125 
L 66.84375 0 
L 56.0625 0 
L 47.703125 21.6875 
L 17.78125 21.6875 
L 9.90625 0 
z
M 20.515625 29.390625 
L 44.78125 29.390625 
L 37.3125 49.21875 
Q 33.890625 58.25 32.234375 64.0625 
Q 30.859375 57.171875 28.375 50.390625 
z
" id="ArialMT-65"/>
     <path d="M 40.4375 19 
L 49.078125 17.875 
Q 47.65625 8.9375 41.8125 3.875 
Q 35.984375 -1.171875 27.484375 -1.171875 
Q 16.84375 -1.171875 10.375 5.78125 
Q 3.90625 12.75 3.90625 25.734375 
Q 3.90625 34.125 6.6875 40.421875 
Q 9.46875 46.734375 15.15625 49.875 
Q 20.84375 53.03125 27.546875 53.03125 
Q 35.984375 53.03125 41.359375 48.75 
Q 46.734375 44.484375 48.25 36.625 
L 39.703125 35.296875 
Q 38.484375 40.53125 35.375 43.15625 
Q 32.28125 45.796875 27.875 45.796875 
Q 21.234375 45.796875 17.078125 41.03125 
Q 12.9375 36.28125 12.9375 25.984375 
Q 12.9375 15.53125 16.9375 10.796875 
Q 20.953125 6.0625 27.390625 6.0625 
Q 32.5625 6.0625 36.03125 9.234375 
Q 39.5 12.40625 40.4375 19 
z
" id="ArialMT-99"/>
     <path d="M 25.78125 7.859375 
L 27.046875 0.09375 
Q 23.34375 -0.6875 20.40625 -0.6875 
Q 15.625 -0.6875 12.984375 0.828125 
Q 10.359375 2.34375 9.28125 4.8125 
Q 8.203125 7.28125 8.203125 15.1875 
L 8.203125 45.015625 
L 1.765625 45.015625 
L 1.765625 51.859375 
L 8.203125 51.859375 
L 8.203125 64.703125 
L 16.9375 69.96875 
L 16.9375 51.859375 
L 25.78125 51.859375 
L 25.78125 45.015625 
L 16.9375 45.015625 
L 16.9375 14.703125 
Q 16.9375 10.9375 17.40625 9.859375 
Q 17.875 8.796875 18.921875 8.15625 
Q 19.96875 7.515625 21.921875 7.515625 
Q 23.390625 7.515625 25.78125 7.859375 
z
" id="ArialMT-116"/>
     <path d="M 21 0 
L 1.265625 51.859375 
L 10.546875 51.859375 
L 21.6875 20.796875 
Q 23.484375 15.765625 25 10.359375 
Q 26.171875 14.453125 28.265625 20.21875 
L 39.796875 51.859375 
L 48.828125 51.859375 
L 29.203125 0 
z
" id="ArialMT-118"/>
     <path id="ArialMT-32"/>
     <path d="M 7.71875 0 
L 7.71875 71.578125 
L 34.71875 71.578125 
Q 41.84375 71.578125 45.609375 70.90625 
Q 50.875 70.015625 54.4375 67.546875 
Q 58.015625 65.09375 60.1875 60.640625 
Q 62.359375 56.203125 62.359375 50.875 
Q 62.359375 41.75 56.546875 35.421875 
Q 50.734375 29.109375 35.546875 29.109375 
L 17.1875 29.109375 
L 17.1875 0 
z
M 17.1875 37.546875 
L 35.6875 37.546875 
Q 44.875 37.546875 48.734375 40.96875 
Q 52.59375 44.390625 52.59375 50.59375 
Q 52.59375 55.078125 50.3125 58.265625 
Q 48.046875 61.46875 44.34375 62.5 
Q 41.9375 63.140625 35.5 63.140625 
L 17.1875 63.140625 
z
" id="ArialMT-80"/>
     <path d="M 3.328125 25.921875 
Q 3.328125 40.328125 11.328125 47.265625 
Q 18.015625 53.03125 27.640625 53.03125 
Q 38.328125 53.03125 45.109375 46.015625 
Q 51.90625 39.015625 51.90625 26.65625 
Q 51.90625 16.65625 48.90625 10.90625 
Q 45.90625 5.171875 40.15625 2 
Q 34.421875 -1.171875 27.640625 -1.171875 
Q 16.75 -1.171875 10.03125 5.8125 
Q 3.328125 12.796875 3.328125 25.921875 
z
M 12.359375 25.921875 
Q 12.359375 15.96875 16.703125 11.015625 
Q 21.046875 6.0625 27.640625 6.0625 
Q 34.1875 6.0625 38.53125 11.03125 
Q 42.875 16.015625 42.875 26.21875 
Q 42.875 35.84375 38.5 40.796875 
Q 34.125 45.75 27.640625 45.75 
Q 21.046875 45.75 16.703125 40.8125 
Q 12.359375 35.890625 12.359375 25.921875 
z
" id="ArialMT-111"/>
     <path d="M 16.15625 0 
L 0.296875 51.859375 
L 9.375 51.859375 
L 17.625 21.921875 
L 20.703125 10.796875 
Q 20.90625 11.625 23.390625 21.484375 
L 31.640625 51.859375 
L 40.671875 51.859375 
L 48.4375 21.78125 
L 51.03125 11.859375 
L 54 21.875 
L 62.890625 51.859375 
L 71.4375 51.859375 
L 55.21875 0 
L 46.09375 0 
L 37.84375 31.0625 
L 35.84375 39.890625 
L 25.34375 0 
z
" id="ArialMT-119"/>
     <path d="M 6.5 0 
L 6.5 51.859375 
L 14.40625 51.859375 
L 14.40625 44 
Q 17.4375 49.515625 20 51.265625 
Q 22.5625 53.03125 25.640625 53.03125 
Q 30.078125 53.03125 34.671875 50.203125 
L 31.640625 42.046875 
Q 28.421875 43.953125 25.203125 43.953125 
Q 22.3125 43.953125 20.015625 42.21875 
Q 17.71875 40.484375 16.75 37.40625 
Q 15.28125 32.71875 15.28125 27.15625 
L 15.28125 0 
z
" id="ArialMT-114"/>
     <path d="M 6.59375 0 
L 6.59375 51.859375 
L 14.5 51.859375 
L 14.5 44.484375 
Q 20.21875 53.03125 31 53.03125 
Q 35.6875 53.03125 39.625 51.34375 
Q 43.5625 49.65625 45.515625 46.921875 
Q 47.46875 44.1875 48.25 40.4375 
Q 48.734375 37.984375 48.734375 31.890625 
L 48.734375 0 
L 39.9375 0 
L 39.9375 31.546875 
Q 39.9375 36.921875 38.90625 39.578125 
Q 37.890625 42.234375 35.28125 43.8125 
Q 32.671875 45.40625 29.15625 45.40625 
Q 23.53125 45.40625 19.453125 41.84375 
Q 15.375 38.28125 15.375 28.328125 
L 15.375 0 
z
" id="ArialMT-110"/>
     <path d="M 23.390625 -21.046875 
Q 16.109375 -11.859375 11.078125 0.4375 
Q 6.0625 12.75 6.0625 25.921875 
Q 6.0625 37.546875 9.8125 48.1875 
Q 14.203125 60.546875 23.390625 72.796875 
L 29.6875 72.796875 
Q 23.78125 62.640625 21.875 58.296875 
Q 18.890625 51.5625 17.1875 44.234375 
Q 15.09375 35.109375 15.09375 25.875 
Q 15.09375 2.390625 29.6875 -21.046875 
z
" id="ArialMT-40"/>
     <path d="M 20.21875 0 
L 1.21875 71.578125 
L 10.9375 71.578125 
L 21.828125 24.65625 
Q 23.578125 17.28125 24.859375 10.015625 
Q 27.59375 21.484375 28.078125 23.25 
L 41.703125 71.578125 
L 53.125 71.578125 
L 63.375 35.359375 
Q 67.234375 21.875 68.953125 10.015625 
Q 70.3125 16.796875 72.515625 25.59375 
L 83.734375 71.578125 
L 93.265625 71.578125 
L 73.640625 0 
L 64.5 0 
L 49.421875 54.546875 
Q 47.515625 61.375 47.171875 62.9375 
Q 46.046875 58.015625 45.0625 54.546875 
L 29.890625 0 
z
" id="ArialMT-87"/>
     <path d="M 12.359375 -21.046875 
L 6.0625 -21.046875 
Q 20.65625 2.390625 20.65625 25.875 
Q 20.65625 35.0625 18.5625 44.09375 
Q 16.890625 51.421875 13.921875 58.15625 
Q 12.015625 62.546875 6.0625 72.796875 
L 12.359375 72.796875 
Q 21.53125 60.546875 25.921875 48.1875 
Q 29.6875 37.546875 29.6875 25.921875 
Q 29.6875 12.75 24.625 0.4375 
Q 19.578125 -11.859375 12.359375 -21.046875 
z
" id="ArialMT-41"/>
    </defs>
    <use xlink:href="#ArialMT-65"/>
    <use x="66.699219" xlink:href="#ArialMT-99"/>
    <use x="116.699219" xlink:href="#ArialMT-116"/>
    <use x="144.482422" xlink:href="#ArialMT-105"/>
    <use x="166.699219" xlink:href="#ArialMT-118"/>
    <use x="216.699219" xlink:href="#ArialMT-101"/>
    <use x="272.314453" xlink:href="#ArialMT-32"/>
    <use x="300.097656" xlink:href="#ArialMT-80"/>
    <use x="366.796875" xlink:href="#ArialMT-111"/>
    <use x="422.412109" xlink:href="#ArialMT-119"/>
    <use x="494.628906" xlink:href="#ArialMT-101"/>
    <use x="550.244141" xlink:href="#ArialMT-114"/>
    <use x="583.544922" xlink:href="#ArialMT-32"/>
    <use x="611.328125" xlink:href="#ArialMT-105"/>
    <use x="633.544922" xlink:href="#ArialMT-110"/>
    <use x="689.160156" xlink:href="#ArialMT-32"/>
    <use x="716.943359" xlink:href="#ArialMT-40"/>
    <use x="750.244141" xlink:href="#ArialMT-87"/>
    <use x="844.628906" xlink:href="#ArialMT-41"/>
   </g>
  </g>
  <g id="text_18">
   <!-- Battery charger power consumption over time -->
   <g style="fill:#262626;" transform="translate(214.7445 16.06725)scale(0.144 -0.144)">
    <defs>
     <path d="M 7.328125 0 
L 7.328125 71.578125 
L 34.1875 71.578125 
Q 42.390625 71.578125 47.34375 69.40625 
Q 52.296875 67.234375 55.09375 62.71875 
Q 57.90625 58.203125 57.90625 53.265625 
Q 57.90625 48.6875 55.421875 44.625 
Q 52.9375 40.578125 47.90625 38.09375 
Q 54.390625 36.1875 57.875 31.59375 
Q 61.375 27 61.375 20.75 
Q 61.375 15.71875 59.25 11.390625 
Q 57.125 7.078125 54 4.734375 
Q 50.875 2.390625 46.15625 1.1875 
Q 41.453125 0 34.625 0 
z
M 16.796875 41.5 
L 32.28125 41.5 
Q 38.578125 41.5 41.3125 42.328125 
Q 44.921875 43.40625 46.75 45.890625 
Q 48.578125 48.390625 48.578125 52.15625 
Q 48.578125 55.71875 46.875 58.421875 
Q 45.171875 61.140625 41.984375 62.140625 
Q 38.8125 63.140625 31.109375 63.140625 
L 16.796875 63.140625 
z
M 16.796875 8.453125 
L 34.625 8.453125 
Q 39.203125 8.453125 41.0625 8.796875 
Q 44.34375 9.375 46.53125 10.734375 
Q 48.734375 12.109375 50.140625 14.71875 
Q 51.5625 17.328125 51.5625 20.75 
Q 51.5625 24.75 49.515625 27.703125 
Q 47.46875 30.671875 43.828125 31.859375 
Q 40.1875 33.0625 33.34375 33.0625 
L 16.796875 33.0625 
z
" id="ArialMT-66"/>
     <path d="M 40.4375 6.390625 
Q 35.546875 2.25 31.03125 0.53125 
Q 26.515625 -1.171875 21.34375 -1.171875 
Q 12.796875 -1.171875 8.203125 3 
Q 3.609375 7.171875 3.609375 13.671875 
Q 3.609375 17.484375 5.34375 20.625 
Q 7.078125 23.78125 9.890625 25.6875 
Q 12.703125 27.59375 16.21875 28.5625 
Q 18.796875 29.25 24.03125 29.890625 
Q 34.671875 31.15625 39.703125 32.90625 
Q 39.75 34.71875 39.75 35.203125 
Q 39.75 40.578125 37.25 42.78125 
Q 33.890625 45.75 27.25 45.75 
Q 21.046875 45.75 18.09375 43.578125 
Q 15.140625 41.40625 13.71875 35.890625 
L 5.125 37.0625 
Q 6.296875 42.578125 8.984375 45.96875 
Q 11.671875 49.359375 16.75 51.1875 
Q 21.828125 53.03125 28.515625 53.03125 
Q 35.15625 53.03125 39.296875 51.46875 
Q 43.453125 49.90625 45.40625 47.53125 
Q 47.359375 45.171875 48.140625 41.546875 
Q 48.578125 39.3125 48.578125 33.453125 
L 48.578125 21.734375 
Q 48.578125 9.46875 49.140625 6.21875 
Q 49.703125 2.984375 51.375 0 
L 42.1875 0 
Q 40.828125 2.734375 40.4375 6.390625 
z
M 39.703125 26.03125 
Q 34.90625 24.078125 25.34375 22.703125 
Q 19.921875 21.921875 17.671875 20.9375 
Q 15.4375 19.96875 14.203125 18.09375 
Q 12.984375 16.21875 12.984375 13.921875 
Q 12.984375 10.40625 15.640625 8.0625 
Q 18.3125 5.71875 23.4375 5.71875 
Q 28.515625 5.71875 32.46875 7.9375 
Q 36.421875 10.15625 38.28125 14.015625 
Q 39.703125 17 39.703125 22.796875 
z
" id="ArialMT-97"/>
     <path d="M 6.203125 -19.96875 
L 5.21875 -11.71875 
Q 8.109375 -12.5 10.25 -12.5 
Q 13.1875 -12.5 14.9375 -11.515625 
Q 16.703125 -10.546875 17.828125 -8.796875 
Q 18.65625 -7.46875 20.515625 -2.25 
Q 20.75 -1.515625 21.296875 -0.09375 
L 1.609375 51.859375 
L 11.078125 51.859375 
L 21.875 21.828125 
Q 23.96875 16.109375 25.640625 9.8125 
Q 27.15625 15.875 29.25 21.625 
L 40.328125 51.859375 
L 49.125 51.859375 
L 29.390625 -0.875 
Q 26.21875 -9.421875 24.46875 -12.640625 
Q 22.125 -17 19.09375 -19.015625 
Q 16.0625 -21.046875 11.859375 -21.046875 
Q 9.328125 -21.046875 6.203125 -19.96875 
z
" id="ArialMT-121"/>
     <path d="M 6.59375 0 
L 6.59375 71.578125 
L 15.375 71.578125 
L 15.375 45.90625 
Q 21.53125 53.03125 30.90625 53.03125 
Q 36.671875 53.03125 40.921875 50.75 
Q 45.171875 48.484375 47 44.484375 
Q 48.828125 40.484375 48.828125 32.859375 
L 48.828125 0 
L 40.046875 0 
L 40.046875 32.859375 
Q 40.046875 39.453125 37.1875 42.453125 
Q 34.328125 45.453125 29.109375 45.453125 
Q 25.203125 45.453125 21.75 43.421875 
Q 18.3125 41.40625 16.84375 37.9375 
Q 15.375 34.46875 15.375 28.375 
L 15.375 0 
z
" id="ArialMT-104"/>
     <path d="M 4.984375 -4.296875 
L 13.53125 -5.5625 
Q 14.0625 -9.515625 16.5 -11.328125 
Q 19.78125 -13.765625 25.4375 -13.765625 
Q 31.546875 -13.765625 34.859375 -11.328125 
Q 38.1875 -8.890625 39.359375 -4.5 
Q 40.046875 -1.8125 39.984375 6.78125 
Q 34.234375 0 25.640625 0 
Q 14.9375 0 9.078125 7.71875 
Q 3.21875 15.4375 3.21875 26.21875 
Q 3.21875 33.640625 5.90625 39.90625 
Q 8.59375 46.1875 13.6875 49.609375 
Q 18.796875 53.03125 25.6875 53.03125 
Q 34.859375 53.03125 40.828125 45.609375 
L 40.828125 51.859375 
L 48.921875 51.859375 
L 48.921875 7.03125 
Q 48.921875 -5.078125 46.453125 -10.125 
Q 44 -15.1875 38.640625 -18.109375 
Q 33.296875 -21.046875 25.484375 -21.046875 
Q 16.21875 -21.046875 10.5 -16.875 
Q 4.78125 -12.703125 4.984375 -4.296875 
z
M 12.25 26.859375 
Q 12.25 16.65625 16.296875 11.96875 
Q 20.359375 7.28125 26.46875 7.28125 
Q 32.515625 7.28125 36.609375 11.9375 
Q 40.71875 16.609375 40.71875 26.5625 
Q 40.71875 36.078125 36.5 40.90625 
Q 32.28125 45.75 26.3125 45.75 
Q 20.453125 45.75 16.34375 40.984375 
Q 12.25 36.234375 12.25 26.859375 
z
" id="ArialMT-103"/>
     <path d="M 6.59375 -19.875 
L 6.59375 51.859375 
L 14.59375 51.859375 
L 14.59375 45.125 
Q 17.4375 49.078125 21 51.046875 
Q 24.5625 53.03125 29.640625 53.03125 
Q 36.28125 53.03125 41.359375 49.609375 
Q 46.4375 46.1875 49.015625 39.953125 
Q 51.609375 33.734375 51.609375 26.3125 
Q 51.609375 18.359375 48.75 11.984375 
Q 45.90625 5.609375 40.453125 2.21875 
Q 35.015625 -1.171875 29 -1.171875 
Q 24.609375 -1.171875 21.109375 0.6875 
Q 17.625 2.546875 15.375 5.375 
L 15.375 -19.875 
z
M 14.546875 25.640625 
Q 14.546875 15.625 18.59375 10.84375 
Q 22.65625 6.0625 28.421875 6.0625 
Q 34.28125 6.0625 38.453125 11.015625 
Q 42.625 15.96875 42.625 26.375 
Q 42.625 36.28125 38.546875 41.203125 
Q 34.46875 46.140625 28.8125 46.140625 
Q 23.1875 46.140625 18.859375 40.890625 
Q 14.546875 35.640625 14.546875 25.640625 
z
" id="ArialMT-112"/>
     <path d="M 3.078125 15.484375 
L 11.765625 16.84375 
Q 12.5 11.625 15.84375 8.84375 
Q 19.1875 6.0625 25.203125 6.0625 
Q 31.25 6.0625 34.171875 8.515625 
Q 37.109375 10.984375 37.109375 14.3125 
Q 37.109375 17.28125 34.515625 19 
Q 32.71875 20.171875 25.53125 21.96875 
Q 15.875 24.421875 12.140625 26.203125 
Q 8.40625 27.984375 6.46875 31.125 
Q 4.546875 34.28125 4.546875 38.09375 
Q 4.546875 41.546875 6.125 44.5 
Q 7.71875 47.46875 10.453125 49.421875 
Q 12.5 50.921875 16.03125 51.96875 
Q 19.578125 53.03125 23.640625 53.03125 
Q 29.734375 53.03125 34.34375 51.265625 
Q 38.96875 49.515625 41.15625 46.5 
Q 43.359375 43.5 44.1875 38.484375 
L 35.59375 37.3125 
Q 35.015625 41.3125 32.203125 43.546875 
Q 29.390625 45.796875 24.265625 45.796875 
Q 18.21875 45.796875 15.625 43.796875 
Q 13.03125 41.796875 13.03125 39.109375 
Q 13.03125 37.40625 14.109375 36.03125 
Q 15.1875 34.625 17.484375 33.6875 
Q 18.796875 33.203125 25.25 31.453125 
Q 34.578125 28.953125 38.25 27.359375 
Q 41.9375 25.78125 44.03125 22.75 
Q 46.140625 19.734375 46.140625 15.234375 
Q 46.140625 10.84375 43.578125 6.953125 
Q 41.015625 3.078125 36.171875 0.953125 
Q 31.34375 -1.171875 25.25 -1.171875 
Q 15.140625 -1.171875 9.84375 3.03125 
Q 4.546875 7.234375 3.078125 15.484375 
z
" id="ArialMT-115"/>
     <path d="M 40.578125 0 
L 40.578125 7.625 
Q 34.515625 -1.171875 24.125 -1.171875 
Q 19.53125 -1.171875 15.546875 0.578125 
Q 11.578125 2.34375 9.640625 5 
Q 7.71875 7.671875 6.9375 11.53125 
Q 6.390625 14.109375 6.390625 19.734375 
L 6.390625 51.859375 
L 15.1875 51.859375 
L 15.1875 23.09375 
Q 15.1875 16.21875 15.71875 13.8125 
Q 16.546875 10.359375 19.234375 8.375 
Q 21.921875 6.390625 25.875 6.390625 
Q 29.828125 6.390625 33.296875 8.421875 
Q 36.765625 10.453125 38.203125 13.9375 
Q 39.65625 17.4375 39.65625 24.078125 
L 39.65625 51.859375 
L 48.4375 51.859375 
L 48.4375 0 
z
" id="ArialMT-117"/>
    </defs>
    <use xlink:href="#ArialMT-66"/>
    <use x="66.699219" xlink:href="#ArialMT-97"/>
    <use x="122.314453" xlink:href="#ArialMT-116"/>
    <use x="150.097656" xlink:href="#ArialMT-116"/>
    <use x="177.880859" xlink:href="#ArialMT-101"/>
    <use x="233.496094" xlink:href="#ArialMT-114"/>
    <use x="266.796875" xlink:href="#ArialMT-121"/>
    <use x="316.796875" xlink:href="#ArialMT-32"/>
    <use x="344.580078" xlink:href="#ArialMT-99"/>
    <use x="394.580078" xlink:href="#ArialMT-104"/>
    <use x="450.195312" xlink:href="#ArialMT-97"/>
    <use x="505.810547" xlink:href="#ArialMT-114"/>
    <use x="539.111328" xlink:href="#ArialMT-103"/>
    <use x="594.726562" xlink:href="#ArialMT-101"/>
    <use x="650.341797" xlink:href="#ArialMT-114"/>
    <use x="683.642578" xlink:href="#ArialMT-32"/>
    <use x="711.425781" xlink:href="#ArialMT-112"/>
    <use x="767.041016" xlink:href="#ArialMT-111"/>
    <use x="822.65625" xlink:href="#ArialMT-119"/>
    <use x="894.873047" xlink:href="#ArialMT-101"/>
    <use x="950.488281" xlink:href="#ArialMT-114"/>
    <use x="983.789062" xlink:href="#ArialMT-32"/>
    <use x="1011.572266" xlink:href="#ArialMT-99"/>
    <use x="1061.572266" xlink:href="#ArialMT-111"/>
    <use x="1117.1875" xlink:href="#ArialMT-110"/>
    <use x="1172.802734" xlink:href="#ArialMT-115"/>
    <use x="1222.802734" xlink:href="#ArialMT-117"/>
    <use x="1278.417969" xlink:href="#ArialMT-109"/>
    <use x="1361.71875" xlink:href="#ArialMT-112"/>
    <use x="1417.333984" xlink:href="#ArialMT-116"/>
    <use x="1445.117188" xlink:href="#ArialMT-105"/>
    <use x="1467.333984" xlink:href="#ArialMT-111"/>
    <use x="1522.949219" xlink:href="#ArialMT-110"/>
    <use x="1578.564453" xlink:href="#ArialMT-32"/>
    <use x="1606.347656" xlink:href="#ArialMT-111"/>
    <use x="1661.962891" xlink:href="#ArialMT-118"/>
    <use x="1711.962891" xlink:href="#ArialMT-101"/>
    <use x="1767.578125" xlink:href="#ArialMT-114"/>
    <use x="1800.878906" xlink:href="#ArialMT-32"/>
    <use x="1828.662109" xlink:href="#ArialMT-116"/>
    <use x="1856.445312" xlink:href="#ArialMT-105"/>
    <use x="1878.662109" xlink:href="#ArialMT-109"/>
    <use x="1961.962891" xlink:href="#ArialMT-101"/>
   </g>
  </g>
 </g>
 <defs>
  <clipPath id="p2faf5e8cb7">
   <rect height="235.12" width="318.685" x="34.96" y="39.92"/>
  </clipPath>
  <clipPath id="p7bb783b9e5">
   <rect height="235.12" width="318.685" x="388.355" y="39.92"/>
  </clipPath>
 </defs>
</svg>
