<?xml version="1.0" encoding="utf-8" standalone="no"?>
<!DOCTYPE svg PUBLIC "-//W3C//DTD SVG 1.1//EN"
  "http://www.w3.org/Graphics/SVG/1.1/DTD/svg11.dtd">
<svg height="288pt" version="1.1" viewBox="0 0 720 288" width="720pt" xmlns="http://www.w3.org/2000/svg" xmlns:xlink="http://www.w3.org/1999/xlink">
 <metadata>
  <rdf:RDF xmlns:cc="http://creativecommons.org/ns#" xmlns:dc="http://purl.org/dc/elements/1.1/" xmlns:rdf="http://www.w3.org/1999/02/22-rdf-syntax-ns#">
   <cc:Work>
    <dc:type rdf:resource="http://purl.org/dc/dcmitype/StillImage"/>
    <dc:date>2021-10-12T10:27:12.937068</dc:date>
    <dc:format>image/svg+xml</dc:format>
    <dc:creator>
     <cc:Agent>
      <dc:title>Matplotlib v3.4.2, https://matplotlib.org/</dc:title>
     </cc:Agent>
    </dc:creator>
   </cc:Work>
  </rdf:RDF>
 </metadata>
 <defs>
  <style type="text/css">*{stroke-linecap:butt;stroke-linejoin:round;}</style>
 </defs>
 <g id="figure_1">
  <g id="patch_1">
   <path d="M 0 288 
L 720 288 
L 720 0 
L 0 0 
z
" style="fill:#ffffff;"/>
  </g>
  <g id="axes_1">
   <g id="patch_2">
    <path d="M 58.73625 240.60375 
L 707.04 240.60375 
L 707.04 12.96 
L 58.73625 12.96 
z
" style="fill:#eaeaf2;"/>
   </g>
   <g id="matplotlib.axis_1">
    <g id="xtick_1">
     <g id="line2d_1">
      <path clip-path="url(#pb99757bb40)" d="M 88.204602 240.60375 
L 88.204602 12.96 
" style="fill:none;stroke:#ffffff;stroke-linecap:round;"/>
     </g>
     <g id="text_1">
      <!-- 0 -->
      <g style="fill:#262626;" transform="translate(85.146087 257.977344)scale(0.11 -0.11)">
       <defs>
        <path d="M 266 2259 
Q 266 3072 433 3567 
Q 600 4063 929 4331 
Q 1259 4600 1759 4600 
Q 2128 4600 2406 4451 
Q 2684 4303 2865 4023 
Q 3047 3744 3150 3342 
Q 3253 2941 3253 2259 
Q 3253 1453 3087 958 
Q 2922 463 2592 192 
Q 2263 -78 1759 -78 
Q 1097 -78 719 397 
Q 266 969 266 2259 
z
M 844 2259 
Q 844 1131 1108 757 
Q 1372 384 1759 384 
Q 2147 384 2411 759 
Q 2675 1134 2675 2259 
Q 2675 3391 2411 3762 
Q 2147 4134 1753 4134 
Q 1366 4134 1134 3806 
Q 844 3388 844 2259 
z
" id="ArialMT-30" transform="scale(0.015625)"/>
       </defs>
       <use xlink:href="#ArialMT-30"/>
      </g>
     </g>
    </g>
    <g id="xtick_2">
     <g id="line2d_2">
      <path clip-path="url(#pb99757bb40)" d="M 207.268652 240.60375 
L 207.268652 12.96 
" style="fill:none;stroke:#ffffff;stroke-linecap:round;"/>
     </g>
     <g id="text_2">
      <!-- 20 -->
      <g style="fill:#262626;" transform="translate(201.151621 257.977344)scale(0.11 -0.11)">
       <defs>
        <path d="M 3222 541 
L 3222 0 
L 194 0 
Q 188 203 259 391 
Q 375 700 629 1000 
Q 884 1300 1366 1694 
Q 2113 2306 2375 2664 
Q 2638 3022 2638 3341 
Q 2638 3675 2398 3904 
Q 2159 4134 1775 4134 
Q 1369 4134 1125 3890 
Q 881 3647 878 3216 
L 300 3275 
Q 359 3922 746 4261 
Q 1134 4600 1788 4600 
Q 2447 4600 2831 4234 
Q 3216 3869 3216 3328 
Q 3216 3053 3103 2787 
Q 2991 2522 2730 2228 
Q 2469 1934 1863 1422 
Q 1356 997 1212 845 
Q 1069 694 975 541 
L 3222 541 
z
" id="ArialMT-32" transform="scale(0.015625)"/>
       </defs>
       <use xlink:href="#ArialMT-32"/>
       <use x="55.615234" xlink:href="#ArialMT-30"/>
      </g>
     </g>
    </g>
    <g id="xtick_3">
     <g id="line2d_3">
      <path clip-path="url(#pb99757bb40)" d="M 326.332701 240.60375 
L 326.332701 12.96 
" style="fill:none;stroke:#ffffff;stroke-linecap:round;"/>
     </g>
     <g id="text_3">
      <!-- 40 -->
      <g style="fill:#262626;" transform="translate(320.21567 257.977344)scale(0.11 -0.11)">
       <defs>
        <path d="M 2069 0 
L 2069 1097 
L 81 1097 
L 81 1613 
L 2172 4581 
L 2631 4581 
L 2631 1613 
L 3250 1613 
L 3250 1097 
L 2631 1097 
L 2631 0 
L 2069 0 
z
M 2069 1613 
L 2069 3678 
L 634 1613 
L 2069 1613 
z
" id="ArialMT-34" transform="scale(0.015625)"/>
       </defs>
       <use xlink:href="#ArialMT-34"/>
       <use x="55.615234" xlink:href="#ArialMT-30"/>
      </g>
     </g>
    </g>
    <g id="xtick_4">
     <g id="line2d_4">
      <path clip-path="url(#pb99757bb40)" d="M 445.396751 240.60375 
L 445.396751 12.96 
" style="fill:none;stroke:#ffffff;stroke-linecap:round;"/>
     </g>
     <g id="text_4">
      <!-- 60 -->
      <g style="fill:#262626;" transform="translate(439.27972 257.977344)scale(0.11 -0.11)">
       <defs>
        <path d="M 3184 3459 
L 2625 3416 
Q 2550 3747 2413 3897 
Q 2184 4138 1850 4138 
Q 1581 4138 1378 3988 
Q 1113 3794 959 3422 
Q 806 3050 800 2363 
Q 1003 2672 1297 2822 
Q 1591 2972 1913 2972 
Q 2475 2972 2870 2558 
Q 3266 2144 3266 1488 
Q 3266 1056 3080 686 
Q 2894 316 2569 119 
Q 2244 -78 1831 -78 
Q 1128 -78 684 439 
Q 241 956 241 2144 
Q 241 3472 731 4075 
Q 1159 4600 1884 4600 
Q 2425 4600 2770 4297 
Q 3116 3994 3184 3459 
z
M 888 1484 
Q 888 1194 1011 928 
Q 1134 663 1356 523 
Q 1578 384 1822 384 
Q 2178 384 2434 671 
Q 2691 959 2691 1453 
Q 2691 1928 2437 2201 
Q 2184 2475 1800 2475 
Q 1419 2475 1153 2201 
Q 888 1928 888 1484 
z
" id="ArialMT-36" transform="scale(0.015625)"/>
       </defs>
       <use xlink:href="#ArialMT-36"/>
       <use x="55.615234" xlink:href="#ArialMT-30"/>
      </g>
     </g>
    </g>
    <g id="xtick_5">
     <g id="line2d_5">
      <path clip-path="url(#pb99757bb40)" d="M 564.460801 240.60375 
L 564.460801 12.96 
" style="fill:none;stroke:#ffffff;stroke-linecap:round;"/>
     </g>
     <g id="text_5">
      <!-- 80 -->
      <g style="fill:#262626;" transform="translate(558.343769 257.977344)scale(0.11 -0.11)">
       <defs>
        <path d="M 1131 2484 
Q 781 2613 612 2850 
Q 444 3088 444 3419 
Q 444 3919 803 4259 
Q 1163 4600 1759 4600 
Q 2359 4600 2725 4251 
Q 3091 3903 3091 3403 
Q 3091 3084 2923 2848 
Q 2756 2613 2416 2484 
Q 2838 2347 3058 2040 
Q 3278 1734 3278 1309 
Q 3278 722 2862 322 
Q 2447 -78 1769 -78 
Q 1091 -78 675 323 
Q 259 725 259 1325 
Q 259 1772 486 2073 
Q 713 2375 1131 2484 
z
M 1019 3438 
Q 1019 3113 1228 2906 
Q 1438 2700 1772 2700 
Q 2097 2700 2305 2904 
Q 2513 3109 2513 3406 
Q 2513 3716 2298 3927 
Q 2084 4138 1766 4138 
Q 1444 4138 1231 3931 
Q 1019 3725 1019 3438 
z
M 838 1322 
Q 838 1081 952 856 
Q 1066 631 1291 507 
Q 1516 384 1775 384 
Q 2178 384 2440 643 
Q 2703 903 2703 1303 
Q 2703 1709 2433 1975 
Q 2163 2241 1756 2241 
Q 1359 2241 1098 1978 
Q 838 1716 838 1322 
z
" id="ArialMT-38" transform="scale(0.015625)"/>
       </defs>
       <use xlink:href="#ArialMT-38"/>
       <use x="55.615234" xlink:href="#ArialMT-30"/>
      </g>
     </g>
    </g>
    <g id="xtick_6">
     <g id="line2d_6">
      <path clip-path="url(#pb99757bb40)" d="M 683.52485 240.60375 
L 683.52485 12.96 
" style="fill:none;stroke:#ffffff;stroke-linecap:round;"/>
     </g>
     <g id="text_6">
      <!-- 100 -->
      <g style="fill:#262626;" transform="translate(674.349303 257.977344)scale(0.11 -0.11)">
       <defs>
        <path d="M 2384 0 
L 1822 0 
L 1822 3584 
Q 1619 3391 1289 3197 
Q 959 3003 697 2906 
L 697 3450 
Q 1169 3672 1522 3987 
Q 1875 4303 2022 4600 
L 2384 4600 
L 2384 0 
z
" id="ArialMT-31" transform="scale(0.015625)"/>
       </defs>
       <use xlink:href="#ArialMT-31"/>
       <use x="55.615234" xlink:href="#ArialMT-30"/>
       <use x="111.230469" xlink:href="#ArialMT-30"/>
      </g>
     </g>
    </g>
    <g id="text_7">
     <!-- Aggregation Steps -->
     <g style="fill:#262626;" transform="translate(333.523125 272.899219)scale(0.12 -0.12)">
      <defs>
       <path d="M -9 0 
L 1750 4581 
L 2403 4581 
L 4278 0 
L 3588 0 
L 3053 1388 
L 1138 1388 
L 634 0 
L -9 0 
z
M 1313 1881 
L 2866 1881 
L 2388 3150 
Q 2169 3728 2063 4100 
Q 1975 3659 1816 3225 
L 1313 1881 
z
" id="ArialMT-41" transform="scale(0.015625)"/>
       <path d="M 319 -275 
L 866 -356 
Q 900 -609 1056 -725 
Q 1266 -881 1628 -881 
Q 2019 -881 2231 -725 
Q 2444 -569 2519 -288 
Q 2563 -116 2559 434 
Q 2191 0 1641 0 
Q 956 0 581 494 
Q 206 988 206 1678 
Q 206 2153 378 2554 
Q 550 2956 876 3175 
Q 1203 3394 1644 3394 
Q 2231 3394 2613 2919 
L 2613 3319 
L 3131 3319 
L 3131 450 
Q 3131 -325 2973 -648 
Q 2816 -972 2473 -1159 
Q 2131 -1347 1631 -1347 
Q 1038 -1347 672 -1080 
Q 306 -813 319 -275 
z
M 784 1719 
Q 784 1066 1043 766 
Q 1303 466 1694 466 
Q 2081 466 2343 764 
Q 2606 1063 2606 1700 
Q 2606 2309 2336 2618 
Q 2066 2928 1684 2928 
Q 1309 2928 1046 2623 
Q 784 2319 784 1719 
z
" id="ArialMT-67" transform="scale(0.015625)"/>
       <path d="M 416 0 
L 416 3319 
L 922 3319 
L 922 2816 
Q 1116 3169 1280 3281 
Q 1444 3394 1641 3394 
Q 1925 3394 2219 3213 
L 2025 2691 
Q 1819 2813 1613 2813 
Q 1428 2813 1281 2702 
Q 1134 2591 1072 2394 
Q 978 2094 978 1738 
L 978 0 
L 416 0 
z
" id="ArialMT-72" transform="scale(0.015625)"/>
       <path d="M 2694 1069 
L 3275 997 
Q 3138 488 2766 206 
Q 2394 -75 1816 -75 
Q 1088 -75 661 373 
Q 234 822 234 1631 
Q 234 2469 665 2931 
Q 1097 3394 1784 3394 
Q 2450 3394 2872 2941 
Q 3294 2488 3294 1666 
Q 3294 1616 3291 1516 
L 816 1516 
Q 847 969 1125 678 
Q 1403 388 1819 388 
Q 2128 388 2347 550 
Q 2566 713 2694 1069 
z
M 847 1978 
L 2700 1978 
Q 2663 2397 2488 2606 
Q 2219 2931 1791 2931 
Q 1403 2931 1139 2672 
Q 875 2413 847 1978 
z
" id="ArialMT-65" transform="scale(0.015625)"/>
       <path d="M 2588 409 
Q 2275 144 1986 34 
Q 1697 -75 1366 -75 
Q 819 -75 525 192 
Q 231 459 231 875 
Q 231 1119 342 1320 
Q 453 1522 633 1644 
Q 813 1766 1038 1828 
Q 1203 1872 1538 1913 
Q 2219 1994 2541 2106 
Q 2544 2222 2544 2253 
Q 2544 2597 2384 2738 
Q 2169 2928 1744 2928 
Q 1347 2928 1158 2789 
Q 969 2650 878 2297 
L 328 2372 
Q 403 2725 575 2942 
Q 747 3159 1072 3276 
Q 1397 3394 1825 3394 
Q 2250 3394 2515 3294 
Q 2781 3194 2906 3042 
Q 3031 2891 3081 2659 
Q 3109 2516 3109 2141 
L 3109 1391 
Q 3109 606 3145 398 
Q 3181 191 3288 0 
L 2700 0 
Q 2613 175 2588 409 
z
M 2541 1666 
Q 2234 1541 1622 1453 
Q 1275 1403 1131 1340 
Q 988 1278 909 1158 
Q 831 1038 831 891 
Q 831 666 1001 516 
Q 1172 366 1500 366 
Q 1825 366 2078 508 
Q 2331 650 2450 897 
Q 2541 1088 2541 1459 
L 2541 1666 
z
" id="ArialMT-61" transform="scale(0.015625)"/>
       <path d="M 1650 503 
L 1731 6 
Q 1494 -44 1306 -44 
Q 1000 -44 831 53 
Q 663 150 594 308 
Q 525 466 525 972 
L 525 2881 
L 113 2881 
L 113 3319 
L 525 3319 
L 525 4141 
L 1084 4478 
L 1084 3319 
L 1650 3319 
L 1650 2881 
L 1084 2881 
L 1084 941 
Q 1084 700 1114 631 
Q 1144 563 1211 522 
Q 1278 481 1403 481 
Q 1497 481 1650 503 
z
" id="ArialMT-74" transform="scale(0.015625)"/>
       <path d="M 425 3934 
L 425 4581 
L 988 4581 
L 988 3934 
L 425 3934 
z
M 425 0 
L 425 3319 
L 988 3319 
L 988 0 
L 425 0 
z
" id="ArialMT-69" transform="scale(0.015625)"/>
       <path d="M 213 1659 
Q 213 2581 725 3025 
Q 1153 3394 1769 3394 
Q 2453 3394 2887 2945 
Q 3322 2497 3322 1706 
Q 3322 1066 3130 698 
Q 2938 331 2570 128 
Q 2203 -75 1769 -75 
Q 1072 -75 642 372 
Q 213 819 213 1659 
z
M 791 1659 
Q 791 1022 1069 705 
Q 1347 388 1769 388 
Q 2188 388 2466 706 
Q 2744 1025 2744 1678 
Q 2744 2294 2464 2611 
Q 2184 2928 1769 2928 
Q 1347 2928 1069 2612 
Q 791 2297 791 1659 
z
" id="ArialMT-6f" transform="scale(0.015625)"/>
       <path d="M 422 0 
L 422 3319 
L 928 3319 
L 928 2847 
Q 1294 3394 1984 3394 
Q 2284 3394 2536 3286 
Q 2788 3178 2913 3003 
Q 3038 2828 3088 2588 
Q 3119 2431 3119 2041 
L 3119 0 
L 2556 0 
L 2556 2019 
Q 2556 2363 2490 2533 
Q 2425 2703 2258 2804 
Q 2091 2906 1866 2906 
Q 1506 2906 1245 2678 
Q 984 2450 984 1813 
L 984 0 
L 422 0 
z
" id="ArialMT-6e" transform="scale(0.015625)"/>
       <path id="ArialMT-20" transform="scale(0.015625)"/>
       <path d="M 288 1472 
L 859 1522 
Q 900 1178 1048 958 
Q 1197 738 1509 602 
Q 1822 466 2213 466 
Q 2559 466 2825 569 
Q 3091 672 3220 851 
Q 3350 1031 3350 1244 
Q 3350 1459 3225 1620 
Q 3100 1781 2813 1891 
Q 2628 1963 1997 2114 
Q 1366 2266 1113 2400 
Q 784 2572 623 2826 
Q 463 3081 463 3397 
Q 463 3744 659 4045 
Q 856 4347 1234 4503 
Q 1613 4659 2075 4659 
Q 2584 4659 2973 4495 
Q 3363 4331 3572 4012 
Q 3781 3694 3797 3291 
L 3216 3247 
Q 3169 3681 2898 3903 
Q 2628 4125 2100 4125 
Q 1550 4125 1298 3923 
Q 1047 3722 1047 3438 
Q 1047 3191 1225 3031 
Q 1400 2872 2139 2705 
Q 2878 2538 3153 2413 
Q 3553 2228 3743 1945 
Q 3934 1663 3934 1294 
Q 3934 928 3725 604 
Q 3516 281 3123 101 
Q 2731 -78 2241 -78 
Q 1619 -78 1198 103 
Q 778 284 539 648 
Q 300 1013 288 1472 
z
" id="ArialMT-53" transform="scale(0.015625)"/>
       <path d="M 422 -1272 
L 422 3319 
L 934 3319 
L 934 2888 
Q 1116 3141 1344 3267 
Q 1572 3394 1897 3394 
Q 2322 3394 2647 3175 
Q 2972 2956 3137 2557 
Q 3303 2159 3303 1684 
Q 3303 1175 3120 767 
Q 2938 359 2589 142 
Q 2241 -75 1856 -75 
Q 1575 -75 1351 44 
Q 1128 163 984 344 
L 984 -1272 
L 422 -1272 
z
M 931 1641 
Q 931 1000 1190 694 
Q 1450 388 1819 388 
Q 2194 388 2461 705 
Q 2728 1022 2728 1688 
Q 2728 2322 2467 2637 
Q 2206 2953 1844 2953 
Q 1484 2953 1207 2617 
Q 931 2281 931 1641 
z
" id="ArialMT-70" transform="scale(0.015625)"/>
       <path d="M 197 991 
L 753 1078 
Q 800 744 1014 566 
Q 1228 388 1613 388 
Q 2000 388 2187 545 
Q 2375 703 2375 916 
Q 2375 1106 2209 1216 
Q 2094 1291 1634 1406 
Q 1016 1563 777 1677 
Q 538 1791 414 1992 
Q 291 2194 291 2438 
Q 291 2659 392 2848 
Q 494 3038 669 3163 
Q 800 3259 1026 3326 
Q 1253 3394 1513 3394 
Q 1903 3394 2198 3281 
Q 2494 3169 2634 2976 
Q 2775 2784 2828 2463 
L 2278 2388 
Q 2241 2644 2061 2787 
Q 1881 2931 1553 2931 
Q 1166 2931 1000 2803 
Q 834 2675 834 2503 
Q 834 2394 903 2306 
Q 972 2216 1119 2156 
Q 1203 2125 1616 2013 
Q 2213 1853 2448 1751 
Q 2684 1650 2818 1456 
Q 2953 1263 2953 975 
Q 2953 694 2789 445 
Q 2625 197 2315 61 
Q 2006 -75 1616 -75 
Q 969 -75 630 194 
Q 291 463 197 991 
z
" id="ArialMT-73" transform="scale(0.015625)"/>
      </defs>
      <use xlink:href="#ArialMT-41"/>
      <use x="66.699219" xlink:href="#ArialMT-67"/>
      <use x="122.314453" xlink:href="#ArialMT-67"/>
      <use x="177.929688" xlink:href="#ArialMT-72"/>
      <use x="211.230469" xlink:href="#ArialMT-65"/>
      <use x="266.845703" xlink:href="#ArialMT-67"/>
      <use x="322.460938" xlink:href="#ArialMT-61"/>
      <use x="378.076172" xlink:href="#ArialMT-74"/>
      <use x="405.859375" xlink:href="#ArialMT-69"/>
      <use x="428.076172" xlink:href="#ArialMT-6f"/>
      <use x="483.691406" xlink:href="#ArialMT-6e"/>
      <use x="539.306641" xlink:href="#ArialMT-20"/>
      <use x="567.089844" xlink:href="#ArialMT-53"/>
      <use x="633.789062" xlink:href="#ArialMT-74"/>
      <use x="661.572266" xlink:href="#ArialMT-65"/>
      <use x="717.1875" xlink:href="#ArialMT-70"/>
      <use x="772.802734" xlink:href="#ArialMT-73"/>
     </g>
    </g>
   </g>
   <g id="matplotlib.axis_2">
    <g id="ytick_1">
     <g id="line2d_7">
      <path clip-path="url(#pb99757bb40)" d="M 58.73625 230.256307 
L 707.04 230.256307 
" style="fill:none;stroke:#ffffff;stroke-linecap:round;"/>
     </g>
     <g id="text_8">
      <!-- 0.00 -->
      <g style="fill:#262626;" transform="translate(27.829219 234.193104)scale(0.11 -0.11)">
       <defs>
        <path d="M 581 0 
L 581 641 
L 1222 641 
L 1222 0 
L 581 0 
z
" id="ArialMT-2e" transform="scale(0.015625)"/>
       </defs>
       <use xlink:href="#ArialMT-30"/>
       <use x="55.615234" xlink:href="#ArialMT-2e"/>
       <use x="83.398438" xlink:href="#ArialMT-30"/>
       <use x="139.013672" xlink:href="#ArialMT-30"/>
      </g>
     </g>
    </g>
    <g id="ytick_2">
     <g id="line2d_8">
      <path clip-path="url(#pb99757bb40)" d="M 58.73625 202.656316 
L 707.04 202.656316 
" style="fill:none;stroke:#ffffff;stroke-linecap:round;"/>
     </g>
     <g id="text_9">
      <!-- 0.01 -->
      <g style="fill:#262626;" transform="translate(27.829219 206.593112)scale(0.11 -0.11)">
       <use xlink:href="#ArialMT-30"/>
       <use x="55.615234" xlink:href="#ArialMT-2e"/>
       <use x="83.398438" xlink:href="#ArialMT-30"/>
       <use x="139.013672" xlink:href="#ArialMT-31"/>
      </g>
     </g>
    </g>
    <g id="ytick_3">
     <g id="line2d_9">
      <path clip-path="url(#pb99757bb40)" d="M 58.73625 175.056324 
L 707.04 175.056324 
" style="fill:none;stroke:#ffffff;stroke-linecap:round;"/>
     </g>
     <g id="text_10">
      <!-- 0.02 -->
      <g style="fill:#262626;" transform="translate(27.829219 178.993121)scale(0.11 -0.11)">
       <use xlink:href="#ArialMT-30"/>
       <use x="55.615234" xlink:href="#ArialMT-2e"/>
       <use x="83.398438" xlink:href="#ArialMT-30"/>
       <use x="139.013672" xlink:href="#ArialMT-32"/>
      </g>
     </g>
    </g>
    <g id="ytick_4">
     <g id="line2d_10">
      <path clip-path="url(#pb99757bb40)" d="M 58.73625 147.456333 
L 707.04 147.456333 
" style="fill:none;stroke:#ffffff;stroke-linecap:round;"/>
     </g>
     <g id="text_11">
      <!-- 0.03 -->
      <g style="fill:#262626;" transform="translate(27.829219 151.39313)scale(0.11 -0.11)">
       <defs>
        <path d="M 269 1209 
L 831 1284 
Q 928 806 1161 595 
Q 1394 384 1728 384 
Q 2125 384 2398 659 
Q 2672 934 2672 1341 
Q 2672 1728 2419 1979 
Q 2166 2231 1775 2231 
Q 1616 2231 1378 2169 
L 1441 2663 
Q 1497 2656 1531 2656 
Q 1891 2656 2178 2843 
Q 2466 3031 2466 3422 
Q 2466 3731 2256 3934 
Q 2047 4138 1716 4138 
Q 1388 4138 1169 3931 
Q 950 3725 888 3313 
L 325 3413 
Q 428 3978 793 4289 
Q 1159 4600 1703 4600 
Q 2078 4600 2393 4439 
Q 2709 4278 2876 4000 
Q 3044 3722 3044 3409 
Q 3044 3113 2884 2869 
Q 2725 2625 2413 2481 
Q 2819 2388 3044 2092 
Q 3269 1797 3269 1353 
Q 3269 753 2831 336 
Q 2394 -81 1725 -81 
Q 1122 -81 723 278 
Q 325 638 269 1209 
z
" id="ArialMT-33" transform="scale(0.015625)"/>
       </defs>
       <use xlink:href="#ArialMT-30"/>
       <use x="55.615234" xlink:href="#ArialMT-2e"/>
       <use x="83.398438" xlink:href="#ArialMT-30"/>
       <use x="139.013672" xlink:href="#ArialMT-33"/>
      </g>
     </g>
    </g>
    <g id="ytick_5">
     <g id="line2d_11">
      <path clip-path="url(#pb99757bb40)" d="M 58.73625 119.856342 
L 707.04 119.856342 
" style="fill:none;stroke:#ffffff;stroke-linecap:round;"/>
     </g>
     <g id="text_12">
      <!-- 0.04 -->
      <g style="fill:#262626;" transform="translate(27.829219 123.793139)scale(0.11 -0.11)">
       <use xlink:href="#ArialMT-30"/>
       <use x="55.615234" xlink:href="#ArialMT-2e"/>
       <use x="83.398438" xlink:href="#ArialMT-30"/>
       <use x="139.013672" xlink:href="#ArialMT-34"/>
      </g>
     </g>
    </g>
    <g id="ytick_6">
     <g id="line2d_12">
      <path clip-path="url(#pb99757bb40)" d="M 58.73625 92.25635 
L 707.04 92.25635 
" style="fill:none;stroke:#ffffff;stroke-linecap:round;"/>
     </g>
     <g id="text_13">
      <!-- 0.05 -->
      <g style="fill:#262626;" transform="translate(27.829219 96.193147)scale(0.11 -0.11)">
       <defs>
        <path d="M 266 1200 
L 856 1250 
Q 922 819 1161 601 
Q 1400 384 1738 384 
Q 2144 384 2425 690 
Q 2706 997 2706 1503 
Q 2706 1984 2436 2262 
Q 2166 2541 1728 2541 
Q 1456 2541 1237 2417 
Q 1019 2294 894 2097 
L 366 2166 
L 809 4519 
L 3088 4519 
L 3088 3981 
L 1259 3981 
L 1013 2750 
Q 1425 3038 1878 3038 
Q 2478 3038 2890 2622 
Q 3303 2206 3303 1553 
Q 3303 931 2941 478 
Q 2500 -78 1738 -78 
Q 1113 -78 717 272 
Q 322 622 266 1200 
z
" id="ArialMT-35" transform="scale(0.015625)"/>
       </defs>
       <use xlink:href="#ArialMT-30"/>
       <use x="55.615234" xlink:href="#ArialMT-2e"/>
       <use x="83.398438" xlink:href="#ArialMT-30"/>
       <use x="139.013672" xlink:href="#ArialMT-35"/>
      </g>
     </g>
    </g>
    <g id="ytick_7">
     <g id="line2d_13">
      <path clip-path="url(#pb99757bb40)" d="M 58.73625 64.656359 
L 707.04 64.656359 
" style="fill:none;stroke:#ffffff;stroke-linecap:round;"/>
     </g>
     <g id="text_14">
      <!-- 0.06 -->
      <g style="fill:#262626;" transform="translate(27.829219 68.593156)scale(0.11 -0.11)">
       <use xlink:href="#ArialMT-30"/>
       <use x="55.615234" xlink:href="#ArialMT-2e"/>
       <use x="83.398438" xlink:href="#ArialMT-30"/>
       <use x="139.013672" xlink:href="#ArialMT-36"/>
      </g>
     </g>
    </g>
    <g id="ytick_8">
     <g id="line2d_14">
      <path clip-path="url(#pb99757bb40)" d="M 58.73625 37.056368 
L 707.04 37.056368 
" style="fill:none;stroke:#ffffff;stroke-linecap:round;"/>
     </g>
     <g id="text_15">
      <!-- 0.07 -->
      <g style="fill:#262626;" transform="translate(27.829219 40.993165)scale(0.11 -0.11)">
       <defs>
        <path d="M 303 3981 
L 303 4522 
L 3269 4522 
L 3269 4084 
Q 2831 3619 2401 2847 
Q 1972 2075 1738 1259 
Q 1569 684 1522 0 
L 944 0 
Q 953 541 1156 1306 
Q 1359 2072 1739 2783 
Q 2119 3494 2547 3981 
L 303 3981 
z
" id="ArialMT-37" transform="scale(0.015625)"/>
       </defs>
       <use xlink:href="#ArialMT-30"/>
       <use x="55.615234" xlink:href="#ArialMT-2e"/>
       <use x="83.398438" xlink:href="#ArialMT-30"/>
       <use x="139.013672" xlink:href="#ArialMT-37"/>
      </g>
     </g>
    </g>
    <g id="text_16">
     <!-- Learning Rate -->
     <g style="fill:#262626;" transform="translate(21.303594 164.472188)rotate(-90)scale(0.12 -0.12)">
      <defs>
       <path d="M 469 0 
L 469 4581 
L 1075 4581 
L 1075 541 
L 3331 541 
L 3331 0 
L 469 0 
z
" id="ArialMT-4c" transform="scale(0.015625)"/>
       <path d="M 503 0 
L 503 4581 
L 2534 4581 
Q 3147 4581 3465 4457 
Q 3784 4334 3975 4021 
Q 4166 3709 4166 3331 
Q 4166 2844 3850 2509 
Q 3534 2175 2875 2084 
Q 3116 1969 3241 1856 
Q 3506 1613 3744 1247 
L 4541 0 
L 3778 0 
L 3172 953 
Q 2906 1366 2734 1584 
Q 2563 1803 2427 1890 
Q 2291 1978 2150 2013 
Q 2047 2034 1813 2034 
L 1109 2034 
L 1109 0 
L 503 0 
z
M 1109 2559 
L 2413 2559 
Q 2828 2559 3062 2645 
Q 3297 2731 3419 2920 
Q 3541 3109 3541 3331 
Q 3541 3656 3305 3865 
Q 3069 4075 2559 4075 
L 1109 4075 
L 1109 2559 
z
" id="ArialMT-52" transform="scale(0.015625)"/>
      </defs>
      <use xlink:href="#ArialMT-4c"/>
      <use x="55.615234" xlink:href="#ArialMT-65"/>
      <use x="111.230469" xlink:href="#ArialMT-61"/>
      <use x="166.845703" xlink:href="#ArialMT-72"/>
      <use x="200.146484" xlink:href="#ArialMT-6e"/>
      <use x="255.761719" xlink:href="#ArialMT-69"/>
      <use x="277.978516" xlink:href="#ArialMT-6e"/>
      <use x="333.59375" xlink:href="#ArialMT-67"/>
      <use x="389.208984" xlink:href="#ArialMT-20"/>
      <use x="416.992188" xlink:href="#ArialMT-52"/>
      <use x="489.208984" xlink:href="#ArialMT-61"/>
      <use x="544.824219" xlink:href="#ArialMT-74"/>
      <use x="572.607422" xlink:href="#ArialMT-65"/>
     </g>
    </g>
   </g>
   <g id="line2d_15">
    <path clip-path="url(#pb99757bb40)" d="M 88.204602 78.493807 
L 94.157805 78.606126 
L 100.111007 78.793202 
L 106.06421 79.054849 
L 112.017412 79.390809 
L 117.970615 79.800752 
L 123.923817 80.284272 
L 129.87702 80.840892 
L 135.830222 81.470063 
L 141.783425 82.171164 
L 147.736627 82.943503 
L 153.68983 83.786318 
L 159.643032 84.698777 
L 165.596235 85.679979 
L 171.549437 86.728957 
L 177.502639 87.844675 
L 183.455842 89.026032 
L 189.409044 90.271861 
L 195.362247 91.580935 
L 201.315449 92.95196 
L 207.268652 94.383584 
L 213.221854 95.874394 
L 219.175057 97.422919 
L 225.128259 99.027629 
L 231.081462 100.686943 
L 237.034664 102.399222 
L 242.987867 104.162776 
L 248.941069 105.975865 
L 254.894272 107.8367 
L 260.847474 109.743444 
L 266.800677 111.694216 
L 272.753879 113.68709 
L 278.707082 115.7201 
L 284.660284 117.791238 
L 290.613487 119.898463 
L 296.566689 122.039693 
L 302.519892 124.212815 
L 308.473094 126.415686 
L 314.426296 128.646131 
L 320.379499 130.901948 
L 326.332701 133.180913 
L 332.285904 135.480774 
L 338.239106 137.799264 
L 344.192309 140.134094 
L 350.145511 142.482959 
L 356.098714 144.843541 
L 362.051916 147.213512 
L 368.005119 149.590532 
L 373.958321 151.972255 
L 379.911524 154.356331 
L 385.864726 156.740407 
L 391.817929 159.12213 
L 397.771131 161.49915 
L 403.724334 163.86912 
L 409.677536 166.229703 
L 415.630739 168.578568 
L 421.583941 170.913398 
L 427.537144 173.231887 
L 433.490346 175.531749 
L 439.443549 177.810713 
L 445.396751 180.066531 
L 451.349954 182.296976 
L 457.303156 184.499846 
L 463.256358 186.672969 
L 469.209561 188.814199 
L 475.162763 190.921423 
L 481.115966 192.992562 
L 487.069168 195.025572 
L 493.022371 197.018446 
L 498.975573 198.969217 
L 504.928776 200.875961 
L 510.881978 202.736796 
L 516.835181 204.549886 
L 522.788383 206.31344 
L 528.741586 208.025719 
L 534.694788 209.685032 
L 540.647991 211.289743 
L 546.601193 212.838267 
L 552.554396 214.329077 
L 558.507598 215.760701 
L 564.460801 217.131727 
L 570.414003 218.4408 
L 576.367206 219.68663 
L 582.320408 220.867987 
L 588.273611 221.983705 
L 594.226813 223.032682 
L 600.180015 224.013885 
L 606.133218 224.926344 
L 612.08642 225.769159 
L 618.039623 226.541498 
L 623.992825 227.242599 
L 629.946028 227.87177 
L 635.89923 228.42839 
L 641.852433 228.91191 
L 647.805635 229.321852 
L 653.758838 229.657813 
L 659.71204 229.91946 
L 665.665243 230.106536 
L 671.618445 230.218855 
L 677.571648 230.256307 
" style="fill:none;stroke:#4c72b0;stroke-linecap:round;stroke-width:1.5;"/>
   </g>
   <g id="line2d_16">
    <path clip-path="url(#pb99757bb40)" d="M 88.204602 106.086989 
L 94.157805 106.178886 
L 100.111007 106.331948 
L 106.06421 106.546023 
L 112.017412 106.8209 
L 117.970615 107.156307 
L 123.923817 107.551915 
L 129.87702 108.007331 
L 135.830222 108.522107 
L 141.783425 109.095735 
L 147.736627 109.727649 
L 153.68983 110.417225 
L 159.643032 111.163782 
L 165.596235 111.966584 
L 171.549437 112.824839 
L 177.502639 113.737699 
L 183.455842 114.704263 
L 189.409044 115.723579 
L 195.362247 116.794639 
L 201.315449 117.916387 
L 207.268652 119.087716 
L 213.221854 120.307469 
L 219.175057 121.574444 
L 225.128259 122.887389 
L 231.081462 124.245009 
L 237.034664 125.645965 
L 242.987867 127.088873 
L 248.941069 128.572309 
L 254.894272 130.09481 
L 260.847474 131.654874 
L 266.800677 133.25096 
L 272.753879 134.881493 
L 278.707082 136.544864 
L 284.660284 138.239433 
L 290.613487 139.963525 
L 296.566689 141.715441 
L 302.519892 143.49345 
L 308.473094 145.295799 
L 314.426296 147.120708 
L 320.379499 148.966377 
L 326.332701 150.830984 
L 332.285904 152.712689 
L 338.239106 154.609635 
L 344.192309 156.51995 
L 350.145511 158.441749 
L 356.098714 160.373135 
L 362.051916 162.312202 
L 368.005119 164.257036 
L 373.958321 166.205719 
L 379.911524 168.156326 
L 385.864726 170.106934 
L 391.817929 172.055616 
L 397.771131 174.000451 
L 403.724334 175.939518 
L 409.677536 177.870904 
L 415.630739 179.792702 
L 421.583941 181.703017 
L 427.537144 183.599964 
L 433.490346 185.481669 
L 439.443549 187.346276 
L 445.396751 189.191945 
L 451.349954 191.016854 
L 457.303156 192.819203 
L 463.256358 194.597212 
L 469.209561 196.349128 
L 475.162763 198.07322 
L 481.115966 199.767788 
L 487.069168 201.43116 
L 493.022371 203.061693 
L 498.975573 204.657779 
L 504.928776 206.217842 
L 510.881978 207.740344 
L 516.835181 209.22378 
L 522.788383 210.666688 
L 528.741586 212.067644 
L 534.694788 213.425264 
L 540.647991 214.738209 
L 546.601193 216.005184 
L 552.554396 217.224937 
L 558.507598 218.396266 
L 564.460801 219.518014 
L 570.414003 220.589074 
L 576.367206 221.608389 
L 582.320408 222.574954 
L 588.273611 223.487814 
L 594.226813 224.346069 
L 600.180015 225.148871 
L 606.133218 225.895428 
L 612.08642 226.585004 
L 618.039623 227.216917 
L 623.992825 227.790545 
L 629.946028 228.305322 
L 635.89923 228.760738 
L 641.852433 229.156345 
L 647.805635 229.491753 
L 653.758838 229.76663 
L 659.71204 229.980705 
L 665.665243 230.133767 
L 671.618445 230.225664 
L 677.571648 230.256307 
" style="fill:none;stroke:#dd8452;stroke-linecap:round;stroke-width:1.5;"/>
   </g>
   <g id="line2d_17">
    <path clip-path="url(#pb99757bb40)" d="M 88.204602 86.771761 
L 94.157805 86.877954 
L 100.111007 87.054825 
L 106.06421 87.302201 
L 112.017412 87.619837 
L 117.970615 88.007419 
L 123.923817 88.464565 
L 129.87702 88.990824 
L 135.830222 89.585676 
L 141.783425 90.248535 
L 147.736627 90.978747 
L 153.68983 91.77559 
L 159.643032 92.638278 
L 165.596235 93.565961 
L 171.549437 94.557722 
L 177.502639 95.612582 
L 183.455842 96.729501 
L 189.409044 97.907377 
L 195.362247 99.145046 
L 201.315449 100.441288 
L 207.268652 101.794824 
L 213.221854 103.204317 
L 219.175057 104.668376 
L 225.128259 106.185557 
L 231.081462 107.754363 
L 237.034664 109.373245 
L 242.987867 111.040605 
L 248.941069 112.754798 
L 254.894272 114.514133 
L 260.847474 116.316873 
L 266.800677 118.161239 
L 272.753879 120.045411 
L 278.707082 121.967529 
L 284.660284 123.925697 
L 290.613487 125.917982 
L 296.566689 127.942417 
L 302.519892 129.997006 
L 308.473094 132.07972 
L 314.426296 134.188504 
L 320.379499 136.321277 
L 326.332701 138.475934 
L 332.285904 140.650349 
L 338.239106 142.842375 
L 344.192309 145.049851 
L 350.145511 147.270596 
L 356.098714 149.502419 
L 362.051916 151.743119 
L 368.005119 153.990483 
L 373.958321 156.242294 
L 379.911524 158.496329 
L 385.864726 160.750365 
L 391.817929 163.002176 
L 397.771131 165.24954 
L 403.724334 167.490239 
L 409.677536 169.722063 
L 415.630739 171.942808 
L 421.583941 174.150284 
L 427.537144 176.34231 
L 433.490346 178.516725 
L 439.443549 180.671382 
L 445.396751 182.804155 
L 451.349954 184.912939 
L 457.303156 186.995653 
L 463.256358 189.050242 
L 469.209561 191.074677 
L 475.162763 193.066962 
L 481.115966 195.02513 
L 487.069168 196.947248 
L 493.022371 198.83142 
L 498.975573 200.675786 
L 504.928776 202.478526 
L 510.881978 204.237861 
L 516.835181 205.952054 
L 522.788383 207.619414 
L 528.741586 209.238296 
L 534.694788 210.807102 
L 540.647991 212.324283 
L 546.601193 213.788342 
L 552.554396 215.197835 
L 558.507598 216.551371 
L 564.460801 217.847613 
L 570.414003 219.085282 
L 576.367206 220.263158 
L 582.320408 221.380077 
L 588.273611 222.434937 
L 594.226813 223.426698 
L 600.180015 224.354381 
L 606.133218 225.217069 
L 612.08642 226.013912 
L 618.039623 226.744124 
L 623.992825 227.406983 
L 629.946028 228.001835 
L 635.89923 228.528094 
L 641.852433 228.98524 
L 647.805635 229.372822 
L 653.758838 229.690458 
L 659.71204 229.937833 
L 665.665243 230.114705 
L 671.618445 230.220898 
L 677.571648 230.256307 
" style="fill:none;stroke:#55a868;stroke-linecap:round;stroke-width:1.5;"/>
   </g>
   <g id="line2d_18">
    <path clip-path="url(#pb99757bb40)" d="M 88.204602 23.307443 
L 94.157805 23.460606 
L 100.111007 23.715709 
L 106.06421 24.0725 
L 112.017412 24.530629 
L 117.970615 25.089641 
L 123.923817 25.748987 
L 129.87702 26.508014 
L 135.830222 27.365974 
L 141.783425 28.322021 
L 147.736627 29.375211 
L 153.68983 30.524504 
L 159.643032 31.768766 
L 165.596235 33.106769 
L 171.549437 34.537193 
L 177.502639 36.058627 
L 183.455842 37.669568 
L 189.409044 39.368427 
L 195.362247 41.153527 
L 201.315449 43.023107 
L 207.268652 44.975322 
L 213.221854 47.008244 
L 219.175057 49.119868 
L 225.128259 51.30811 
L 231.081462 53.570811 
L 237.034664 55.905736 
L 242.987867 58.310583 
L 248.941069 60.782977 
L 254.894272 63.320479 
L 260.847474 65.920585 
L 266.800677 68.580728 
L 272.753879 71.298284 
L 278.707082 74.07057 
L 284.660284 76.89485 
L 290.613487 79.768338 
L 296.566689 82.688197 
L 302.519892 85.651546 
L 308.473094 88.65546 
L 314.426296 91.696976 
L 320.379499 94.773091 
L 326.332701 97.880769 
L 332.285904 101.016944 
L 338.239106 104.178521 
L 344.192309 107.36238 
L 350.145511 110.565377 
L 356.098714 113.784354 
L 362.051916 117.016132 
L 368.005119 120.257523 
L 373.958321 123.505327 
L 379.911524 126.75634 
L 385.864726 130.007352 
L 391.817929 133.255156 
L 397.771131 136.496547 
L 403.724334 139.728325 
L 409.677536 142.947302 
L 415.630739 146.150299 
L 421.583941 149.334158 
L 427.537144 152.495735 
L 433.490346 155.63191 
L 439.443549 158.739588 
L 445.396751 161.815703 
L 451.349954 164.857219 
L 457.303156 167.861133 
L 463.256358 170.824482 
L 469.209561 173.744341 
L 475.162763 176.617829 
L 481.115966 179.442109 
L 487.069168 182.214395 
L 493.022371 184.931951 
L 498.975573 187.592094 
L 504.928776 190.1922 
L 510.881978 192.729702 
L 516.835181 195.202096 
L 522.788383 197.606943 
L 528.741586 199.941868 
L 534.694788 202.204569 
L 540.647991 204.392811 
L 546.601193 206.504435 
L 552.554396 208.537357 
L 558.507598 210.489572 
L 564.460801 212.359152 
L 570.414003 214.144252 
L 576.367206 215.843111 
L 582.320408 217.454052 
L 588.273611 218.975486 
L 594.226813 220.40591 
L 600.180015 221.743913 
L 606.133218 222.988175 
L 612.08642 224.137468 
L 618.039623 225.190658 
L 623.992825 226.146705 
L 629.946028 227.004665 
L 635.89923 227.763692 
L 641.852433 228.423038 
L 647.805635 228.98205 
L 653.758838 229.440179 
L 659.71204 229.79697 
L 665.665243 230.052073 
L 671.618445 230.205236 
L 677.571648 230.256307 
" style="fill:none;stroke:#c44e52;stroke-linecap:round;stroke-width:1.5;"/>
   </g>
   <g id="patch_3">
    <path d="M 58.73625 240.60375 
L 58.73625 12.96 
" style="fill:none;stroke:#ffffff;stroke-linecap:square;stroke-linejoin:miter;stroke-width:1.25;"/>
   </g>
   <g id="patch_4">
    <path d="M 707.04 240.60375 
L 707.04 12.96 
" style="fill:none;stroke:#ffffff;stroke-linecap:square;stroke-linejoin:miter;stroke-width:1.25;"/>
   </g>
   <g id="patch_5">
    <path d="M 58.73625 240.60375 
L 707.04 240.60375 
" style="fill:none;stroke:#ffffff;stroke-linecap:square;stroke-linejoin:miter;stroke-width:1.25;"/>
   </g>
   <g id="patch_6">
    <path d="M 58.73625 12.96 
L 707.04 12.96 
" style="fill:none;stroke:#ffffff;stroke-linecap:square;stroke-linejoin:miter;stroke-width:1.25;"/>
   </g>
   <g id="legend_1">
    <g id="patch_7">
     <path d="M 615.227813 83.999375 
L 699.34 83.999375 
Q 701.54 83.999375 701.54 81.799375 
L 701.54 20.66 
Q 701.54 18.46 699.34 18.46 
L 615.227813 18.46 
Q 613.027812 18.46 613.027812 20.66 
L 613.027812 81.799375 
Q 613.027812 83.999375 615.227813 83.999375 
z
" style="fill:#eaeaf2;opacity:0.8;stroke:#cccccc;stroke-linejoin:miter;"/>
    </g>
    <g id="line2d_19">
     <path d="M 617.427812 26.883594 
L 639.427812 26.883594 
" style="fill:none;stroke:#4c72b0;stroke-linecap:round;stroke-width:1.5;"/>
    </g>
    <g id="line2d_20"/>
    <g id="text_17">
     <!-- CNN -->
     <g style="fill:#262626;" transform="translate(648.227812 30.733594)scale(0.11 -0.11)">
      <defs>
       <path d="M 3763 1606 
L 4369 1453 
Q 4178 706 3683 314 
Q 3188 -78 2472 -78 
Q 1731 -78 1267 223 
Q 803 525 561 1097 
Q 319 1669 319 2325 
Q 319 3041 592 3573 
Q 866 4106 1370 4382 
Q 1875 4659 2481 4659 
Q 3169 4659 3637 4309 
Q 4106 3959 4291 3325 
L 3694 3184 
Q 3534 3684 3231 3912 
Q 2928 4141 2469 4141 
Q 1941 4141 1586 3887 
Q 1231 3634 1087 3207 
Q 944 2781 944 2328 
Q 944 1744 1114 1308 
Q 1284 872 1643 656 
Q 2003 441 2422 441 
Q 2931 441 3284 734 
Q 3638 1028 3763 1606 
z
" id="ArialMT-43" transform="scale(0.015625)"/>
       <path d="M 488 0 
L 488 4581 
L 1109 4581 
L 3516 984 
L 3516 4581 
L 4097 4581 
L 4097 0 
L 3475 0 
L 1069 3600 
L 1069 0 
L 488 0 
z
" id="ArialMT-4e" transform="scale(0.015625)"/>
      </defs>
      <use xlink:href="#ArialMT-43"/>
      <use x="72.216797" xlink:href="#ArialMT-4e"/>
      <use x="144.433594" xlink:href="#ArialMT-4e"/>
     </g>
    </g>
    <g id="line2d_21">
     <path d="M 617.427812 42.443438 
L 639.427812 42.443438 
" style="fill:none;stroke:#dd8452;stroke-linecap:round;stroke-width:1.5;"/>
    </g>
    <g id="line2d_22"/>
    <g id="text_18">
     <!-- DenseNet -->
     <g style="fill:#262626;" transform="translate(648.227812 46.293438)scale(0.11 -0.11)">
      <defs>
       <path d="M 494 0 
L 494 4581 
L 2072 4581 
Q 2606 4581 2888 4516 
Q 3281 4425 3559 4188 
Q 3922 3881 4101 3404 
Q 4281 2928 4281 2316 
Q 4281 1794 4159 1391 
Q 4038 988 3847 723 
Q 3656 459 3429 307 
Q 3203 156 2883 78 
Q 2563 0 2147 0 
L 494 0 
z
M 1100 541 
L 2078 541 
Q 2531 541 2789 625 
Q 3047 709 3200 863 
Q 3416 1078 3536 1442 
Q 3656 1806 3656 2325 
Q 3656 3044 3420 3430 
Q 3184 3816 2847 3947 
Q 2603 4041 2063 4041 
L 1100 4041 
L 1100 541 
z
" id="ArialMT-44" transform="scale(0.015625)"/>
      </defs>
      <use xlink:href="#ArialMT-44"/>
      <use x="72.216797" xlink:href="#ArialMT-65"/>
      <use x="127.832031" xlink:href="#ArialMT-6e"/>
      <use x="183.447266" xlink:href="#ArialMT-73"/>
      <use x="233.447266" xlink:href="#ArialMT-65"/>
      <use x="289.0625" xlink:href="#ArialMT-4e"/>
      <use x="361.279297" xlink:href="#ArialMT-65"/>
      <use x="416.894531" xlink:href="#ArialMT-74"/>
     </g>
    </g>
    <g id="line2d_23">
     <path d="M 617.427812 58.003281 
L 639.427812 58.003281 
" style="fill:none;stroke:#55a868;stroke-linecap:round;stroke-width:1.5;"/>
    </g>
    <g id="line2d_24"/>
    <g id="text_19">
     <!-- LSTM -->
     <g style="fill:#262626;" transform="translate(648.227812 61.853281)scale(0.11 -0.11)">
      <defs>
       <path d="M 1659 0 
L 1659 4041 
L 150 4041 
L 150 4581 
L 3781 4581 
L 3781 4041 
L 2266 4041 
L 2266 0 
L 1659 0 
z
" id="ArialMT-54" transform="scale(0.015625)"/>
       <path d="M 475 0 
L 475 4581 
L 1388 4581 
L 2472 1338 
Q 2622 884 2691 659 
Q 2769 909 2934 1394 
L 4031 4581 
L 4847 4581 
L 4847 0 
L 4263 0 
L 4263 3834 
L 2931 0 
L 2384 0 
L 1059 3900 
L 1059 0 
L 475 0 
z
" id="ArialMT-4d" transform="scale(0.015625)"/>
      </defs>
      <use xlink:href="#ArialMT-4c"/>
      <use x="55.615234" xlink:href="#ArialMT-53"/>
      <use x="122.314453" xlink:href="#ArialMT-54"/>
      <use x="183.398438" xlink:href="#ArialMT-4d"/>
     </g>
    </g>
    <g id="line2d_25">
     <path d="M 617.427812 73.563125 
L 639.427812 73.563125 
" style="fill:none;stroke:#c44e52;stroke-linecap:round;stroke-width:1.5;"/>
    </g>
    <g id="line2d_26"/>
    <g id="text_20">
     <!-- ResNet -->
     <g style="fill:#262626;" transform="translate(648.227812 77.413125)scale(0.11 -0.11)">
      <use xlink:href="#ArialMT-52"/>
      <use x="72.216797" xlink:href="#ArialMT-65"/>
      <use x="127.832031" xlink:href="#ArialMT-73"/>
      <use x="177.832031" xlink:href="#ArialMT-4e"/>
      <use x="250.048828" xlink:href="#ArialMT-65"/>
      <use x="305.664062" xlink:href="#ArialMT-74"/>
     </g>
    </g>
   </g>
  </g>
 </g>
 <defs>
  <clipPath id="pb99757bb40">
   <rect height="227.64375" width="648.30375" x="58.73625" y="12.96"/>
  </clipPath>
 </defs>
</svg>
