<?xml version="1.0" encoding="utf-8" standalone="no"?>
<!DOCTYPE svg PUBLIC "-//W3C//DTD SVG 1.1//EN"
  "http://www.w3.org/Graphics/SVG/1.1/DTD/svg11.dtd">
<svg height="289.467578pt" version="1.1" viewBox="0 0 721.175611 289.467578" width="721.175611pt" xmlns="http://www.w3.org/2000/svg" xmlns:xlink="http://www.w3.org/1999/xlink">
 <metadata>
  <rdf:RDF xmlns:cc="http://creativecommons.org/ns#" xmlns:dc="http://purl.org/dc/elements/1.1/" xmlns:rdf="http://www.w3.org/1999/02/22-rdf-syntax-ns#">
   <cc:Work>
    <dc:type rdf:resource="http://purl.org/dc/dcmitype/StillImage"/>
    <dc:date>2021-10-15T15:08:27.504449</dc:date>
    <dc:format>image/svg+xml</dc:format>
    <dc:creator>
     <cc:Agent>
      <dc:title>Matplotlib v3.4.2, https://matplotlib.org/</dc:title>
     </cc:Agent>
    </dc:creator>
   </cc:Work>
  </rdf:RDF>
 </metadata>
 <defs>
  <style type="text/css">*{stroke-linecap:butt;stroke-linejoin:round;}</style>
 </defs>
 <g id="figure_1">
  <g id="patch_1">
   <path d="M 0 289.467578 
L 721.175611 289.467578 
L 721.175611 0 
L 0 0 
z
" style="fill:#ffffff;"/>
  </g>
  <g id="axes_1">
   <g id="patch_2">
    <path d="M 59.641736 249.649375 
L 345.909456 249.649375 
L 345.909456 21.789375 
L 59.641736 21.789375 
z
" style="fill:#eaeaf2;"/>
   </g>
   <g id="matplotlib.axis_1">
    <g id="xtick_1">
     <g id="line2d_1">
      <path clip-path="url(#p1ab2d20192)" d="M 72.653905 249.649375 
L 72.653905 21.789375 
" style="fill:none;stroke:#ffffff;stroke-linecap:round;"/>
     </g>
     <g id="text_1">
      <!-- 0 -->
      <g style="fill:#262626;" transform="translate(69.59539 267.022969)scale(0.11 -0.11)">
       <defs>
        <path d="M 266 2259 
Q 266 3072 433 3567 
Q 600 4063 929 4331 
Q 1259 4600 1759 4600 
Q 2128 4600 2406 4451 
Q 2684 4303 2865 4023 
Q 3047 3744 3150 3342 
Q 3253 2941 3253 2259 
Q 3253 1453 3087 958 
Q 2922 463 2592 192 
Q 2263 -78 1759 -78 
Q 1097 -78 719 397 
Q 266 969 266 2259 
z
M 844 2259 
Q 844 1131 1108 757 
Q 1372 384 1759 384 
Q 2147 384 2411 759 
Q 2675 1134 2675 2259 
Q 2675 3391 2411 3762 
Q 2147 4134 1753 4134 
Q 1366 4134 1134 3806 
Q 844 3388 844 2259 
z
" id="ArialMT-30" transform="scale(0.015625)"/>
       </defs>
       <use xlink:href="#ArialMT-30"/>
      </g>
     </g>
    </g>
    <g id="xtick_2">
     <g id="line2d_2">
      <path clip-path="url(#p1ab2d20192)" d="M 140.780445 249.649375 
L 140.780445 21.789375 
" style="fill:none;stroke:#ffffff;stroke-linecap:round;"/>
     </g>
     <g id="text_2">
      <!-- 50 -->
      <g style="fill:#262626;" transform="translate(134.663414 267.022969)scale(0.11 -0.11)">
       <defs>
        <path d="M 266 1200 
L 856 1250 
Q 922 819 1161 601 
Q 1400 384 1738 384 
Q 2144 384 2425 690 
Q 2706 997 2706 1503 
Q 2706 1984 2436 2262 
Q 2166 2541 1728 2541 
Q 1456 2541 1237 2417 
Q 1019 2294 894 2097 
L 366 2166 
L 809 4519 
L 3088 4519 
L 3088 3981 
L 1259 3981 
L 1013 2750 
Q 1425 3038 1878 3038 
Q 2478 3038 2890 2622 
Q 3303 2206 3303 1553 
Q 3303 931 2941 478 
Q 2500 -78 1738 -78 
Q 1113 -78 717 272 
Q 322 622 266 1200 
z
" id="ArialMT-35" transform="scale(0.015625)"/>
       </defs>
       <use xlink:href="#ArialMT-35"/>
       <use x="55.615234" xlink:href="#ArialMT-30"/>
      </g>
     </g>
    </g>
    <g id="xtick_3">
     <g id="line2d_3">
      <path clip-path="url(#p1ab2d20192)" d="M 208.906984 249.649375 
L 208.906984 21.789375 
" style="fill:none;stroke:#ffffff;stroke-linecap:round;"/>
     </g>
     <g id="text_3">
      <!-- 100 -->
      <g style="fill:#262626;" transform="translate(199.731438 267.022969)scale(0.11 -0.11)">
       <defs>
        <path d="M 2384 0 
L 1822 0 
L 1822 3584 
Q 1619 3391 1289 3197 
Q 959 3003 697 2906 
L 697 3450 
Q 1169 3672 1522 3987 
Q 1875 4303 2022 4600 
L 2384 4600 
L 2384 0 
z
" id="ArialMT-31" transform="scale(0.015625)"/>
       </defs>
       <use xlink:href="#ArialMT-31"/>
       <use x="55.615234" xlink:href="#ArialMT-30"/>
       <use x="111.230469" xlink:href="#ArialMT-30"/>
      </g>
     </g>
    </g>
    <g id="xtick_4">
     <g id="line2d_4">
      <path clip-path="url(#p1ab2d20192)" d="M 277.033524 249.649375 
L 277.033524 21.789375 
" style="fill:none;stroke:#ffffff;stroke-linecap:round;"/>
     </g>
     <g id="text_4">
      <!-- 150 -->
      <g style="fill:#262626;" transform="translate(267.857977 267.022969)scale(0.11 -0.11)">
       <use xlink:href="#ArialMT-31"/>
       <use x="55.615234" xlink:href="#ArialMT-35"/>
       <use x="111.230469" xlink:href="#ArialMT-30"/>
      </g>
     </g>
    </g>
    <g id="xtick_5">
     <g id="line2d_5">
      <path clip-path="url(#p1ab2d20192)" d="M 345.160064 249.649375 
L 345.160064 21.789375 
" style="fill:none;stroke:#ffffff;stroke-linecap:round;"/>
     </g>
     <g id="text_5">
      <!-- 200 -->
      <g style="fill:#262626;" transform="translate(335.984517 267.022969)scale(0.11 -0.11)">
       <defs>
        <path d="M 3222 541 
L 3222 0 
L 194 0 
Q 188 203 259 391 
Q 375 700 629 1000 
Q 884 1300 1366 1694 
Q 2113 2306 2375 2664 
Q 2638 3022 2638 3341 
Q 2638 3675 2398 3904 
Q 2159 4134 1775 4134 
Q 1369 4134 1125 3890 
Q 881 3647 878 3216 
L 300 3275 
Q 359 3922 746 4261 
Q 1134 4600 1788 4600 
Q 2447 4600 2831 4234 
Q 3216 3869 3216 3328 
Q 3216 3053 3103 2787 
Q 2991 2522 2730 2228 
Q 2469 1934 1863 1422 
Q 1356 997 1212 845 
Q 1069 694 975 541 
L 3222 541 
z
" id="ArialMT-32" transform="scale(0.015625)"/>
       </defs>
       <use xlink:href="#ArialMT-32"/>
       <use x="55.615234" xlink:href="#ArialMT-30"/>
       <use x="111.230469" xlink:href="#ArialMT-30"/>
      </g>
     </g>
    </g>
   </g>
   <g id="matplotlib.axis_2">
    <g id="ytick_1">
     <g id="line2d_6">
      <path clip-path="url(#p1ab2d20192)" d="M 59.641736 242.912165 
L 345.909456 242.912165 
" style="fill:none;stroke:#ffffff;stroke-linecap:round;"/>
     </g>
     <g id="text_6">
      <!-- 0.0 -->
      <g style="fill:#262626;" transform="translate(34.851736 246.848961)scale(0.11 -0.11)">
       <defs>
        <path d="M 581 0 
L 581 641 
L 1222 641 
L 1222 0 
L 581 0 
z
" id="ArialMT-2e" transform="scale(0.015625)"/>
       </defs>
       <use xlink:href="#ArialMT-30"/>
       <use x="55.615234" xlink:href="#ArialMT-2e"/>
       <use x="83.398438" xlink:href="#ArialMT-30"/>
      </g>
     </g>
    </g>
    <g id="ytick_2">
     <g id="line2d_7">
      <path clip-path="url(#p1ab2d20192)" d="M 59.641736 200.212983 
L 345.909456 200.212983 
" style="fill:none;stroke:#ffffff;stroke-linecap:round;"/>
     </g>
     <g id="text_7">
      <!-- 0.2 -->
      <g style="fill:#262626;" transform="translate(34.851736 204.14978)scale(0.11 -0.11)">
       <use xlink:href="#ArialMT-30"/>
       <use x="55.615234" xlink:href="#ArialMT-2e"/>
       <use x="83.398438" xlink:href="#ArialMT-32"/>
      </g>
     </g>
    </g>
    <g id="ytick_3">
     <g id="line2d_8">
      <path clip-path="url(#p1ab2d20192)" d="M 59.641736 157.513802 
L 345.909456 157.513802 
" style="fill:none;stroke:#ffffff;stroke-linecap:round;"/>
     </g>
     <g id="text_8">
      <!-- 0.4 -->
      <g style="fill:#262626;" transform="translate(34.851736 161.450599)scale(0.11 -0.11)">
       <defs>
        <path d="M 2069 0 
L 2069 1097 
L 81 1097 
L 81 1613 
L 2172 4581 
L 2631 4581 
L 2631 1613 
L 3250 1613 
L 3250 1097 
L 2631 1097 
L 2631 0 
L 2069 0 
z
M 2069 1613 
L 2069 3678 
L 634 1613 
L 2069 1613 
z
" id="ArialMT-34" transform="scale(0.015625)"/>
       </defs>
       <use xlink:href="#ArialMT-30"/>
       <use x="55.615234" xlink:href="#ArialMT-2e"/>
       <use x="83.398438" xlink:href="#ArialMT-34"/>
      </g>
     </g>
    </g>
    <g id="ytick_4">
     <g id="line2d_9">
      <path clip-path="url(#p1ab2d20192)" d="M 59.641736 114.814621 
L 345.909456 114.814621 
" style="fill:none;stroke:#ffffff;stroke-linecap:round;"/>
     </g>
     <g id="text_9">
      <!-- 0.6 -->
      <g style="fill:#262626;" transform="translate(34.851736 118.751418)scale(0.11 -0.11)">
       <defs>
        <path d="M 3184 3459 
L 2625 3416 
Q 2550 3747 2413 3897 
Q 2184 4138 1850 4138 
Q 1581 4138 1378 3988 
Q 1113 3794 959 3422 
Q 806 3050 800 2363 
Q 1003 2672 1297 2822 
Q 1591 2972 1913 2972 
Q 2475 2972 2870 2558 
Q 3266 2144 3266 1488 
Q 3266 1056 3080 686 
Q 2894 316 2569 119 
Q 2244 -78 1831 -78 
Q 1128 -78 684 439 
Q 241 956 241 2144 
Q 241 3472 731 4075 
Q 1159 4600 1884 4600 
Q 2425 4600 2770 4297 
Q 3116 3994 3184 3459 
z
M 888 1484 
Q 888 1194 1011 928 
Q 1134 663 1356 523 
Q 1578 384 1822 384 
Q 2178 384 2434 671 
Q 2691 959 2691 1453 
Q 2691 1928 2437 2201 
Q 2184 2475 1800 2475 
Q 1419 2475 1153 2201 
Q 888 1928 888 1484 
z
" id="ArialMT-36" transform="scale(0.015625)"/>
       </defs>
       <use xlink:href="#ArialMT-30"/>
       <use x="55.615234" xlink:href="#ArialMT-2e"/>
       <use x="83.398438" xlink:href="#ArialMT-36"/>
      </g>
     </g>
    </g>
    <g id="ytick_5">
     <g id="line2d_10">
      <path clip-path="url(#p1ab2d20192)" d="M 59.641736 72.11544 
L 345.909456 72.11544 
" style="fill:none;stroke:#ffffff;stroke-linecap:round;"/>
     </g>
     <g id="text_10">
      <!-- 0.8 -->
      <g style="fill:#262626;" transform="translate(34.851736 76.052237)scale(0.11 -0.11)">
       <defs>
        <path d="M 1131 2484 
Q 781 2613 612 2850 
Q 444 3088 444 3419 
Q 444 3919 803 4259 
Q 1163 4600 1759 4600 
Q 2359 4600 2725 4251 
Q 3091 3903 3091 3403 
Q 3091 3084 2923 2848 
Q 2756 2613 2416 2484 
Q 2838 2347 3058 2040 
Q 3278 1734 3278 1309 
Q 3278 722 2862 322 
Q 2447 -78 1769 -78 
Q 1091 -78 675 323 
Q 259 725 259 1325 
Q 259 1772 486 2073 
Q 713 2375 1131 2484 
z
M 1019 3438 
Q 1019 3113 1228 2906 
Q 1438 2700 1772 2700 
Q 2097 2700 2305 2904 
Q 2513 3109 2513 3406 
Q 2513 3716 2298 3927 
Q 2084 4138 1766 4138 
Q 1444 4138 1231 3931 
Q 1019 3725 1019 3438 
z
M 838 1322 
Q 838 1081 952 856 
Q 1066 631 1291 507 
Q 1516 384 1775 384 
Q 2178 384 2440 643 
Q 2703 903 2703 1303 
Q 2703 1709 2433 1975 
Q 2163 2241 1756 2241 
Q 1359 2241 1098 1978 
Q 838 1716 838 1322 
z
" id="ArialMT-38" transform="scale(0.015625)"/>
       </defs>
       <use xlink:href="#ArialMT-30"/>
       <use x="55.615234" xlink:href="#ArialMT-2e"/>
       <use x="83.398438" xlink:href="#ArialMT-38"/>
      </g>
     </g>
    </g>
    <g id="ytick_6">
     <g id="line2d_11">
      <path clip-path="url(#p1ab2d20192)" d="M 59.641736 29.416259 
L 345.909456 29.416259 
" style="fill:none;stroke:#ffffff;stroke-linecap:round;"/>
     </g>
     <g id="text_11">
      <!-- 1.0 -->
      <g style="fill:#262626;" transform="translate(34.851736 33.353056)scale(0.11 -0.11)">
       <use xlink:href="#ArialMT-31"/>
       <use x="55.615234" xlink:href="#ArialMT-2e"/>
       <use x="83.398438" xlink:href="#ArialMT-30"/>
      </g>
     </g>
    </g>
    <g id="text_12">
     <!-- Current in (A) -->
     <g style="fill:#262626;" transform="translate(28.326111 171.725938)rotate(-90)scale(0.12 -0.12)">
      <defs>
       <path d="M 3763 1606 
L 4369 1453 
Q 4178 706 3683 314 
Q 3188 -78 2472 -78 
Q 1731 -78 1267 223 
Q 803 525 561 1097 
Q 319 1669 319 2325 
Q 319 3041 592 3573 
Q 866 4106 1370 4382 
Q 1875 4659 2481 4659 
Q 3169 4659 3637 4309 
Q 4106 3959 4291 3325 
L 3694 3184 
Q 3534 3684 3231 3912 
Q 2928 4141 2469 4141 
Q 1941 4141 1586 3887 
Q 1231 3634 1087 3207 
Q 944 2781 944 2328 
Q 944 1744 1114 1308 
Q 1284 872 1643 656 
Q 2003 441 2422 441 
Q 2931 441 3284 734 
Q 3638 1028 3763 1606 
z
" id="ArialMT-43" transform="scale(0.015625)"/>
       <path d="M 2597 0 
L 2597 488 
Q 2209 -75 1544 -75 
Q 1250 -75 995 37 
Q 741 150 617 320 
Q 494 491 444 738 
Q 409 903 409 1263 
L 409 3319 
L 972 3319 
L 972 1478 
Q 972 1038 1006 884 
Q 1059 663 1231 536 
Q 1403 409 1656 409 
Q 1909 409 2131 539 
Q 2353 669 2445 892 
Q 2538 1116 2538 1541 
L 2538 3319 
L 3100 3319 
L 3100 0 
L 2597 0 
z
" id="ArialMT-75" transform="scale(0.015625)"/>
       <path d="M 416 0 
L 416 3319 
L 922 3319 
L 922 2816 
Q 1116 3169 1280 3281 
Q 1444 3394 1641 3394 
Q 1925 3394 2219 3213 
L 2025 2691 
Q 1819 2813 1613 2813 
Q 1428 2813 1281 2702 
Q 1134 2591 1072 2394 
Q 978 2094 978 1738 
L 978 0 
L 416 0 
z
" id="ArialMT-72" transform="scale(0.015625)"/>
       <path d="M 2694 1069 
L 3275 997 
Q 3138 488 2766 206 
Q 2394 -75 1816 -75 
Q 1088 -75 661 373 
Q 234 822 234 1631 
Q 234 2469 665 2931 
Q 1097 3394 1784 3394 
Q 2450 3394 2872 2941 
Q 3294 2488 3294 1666 
Q 3294 1616 3291 1516 
L 816 1516 
Q 847 969 1125 678 
Q 1403 388 1819 388 
Q 2128 388 2347 550 
Q 2566 713 2694 1069 
z
M 847 1978 
L 2700 1978 
Q 2663 2397 2488 2606 
Q 2219 2931 1791 2931 
Q 1403 2931 1139 2672 
Q 875 2413 847 1978 
z
" id="ArialMT-65" transform="scale(0.015625)"/>
       <path d="M 422 0 
L 422 3319 
L 928 3319 
L 928 2847 
Q 1294 3394 1984 3394 
Q 2284 3394 2536 3286 
Q 2788 3178 2913 3003 
Q 3038 2828 3088 2588 
Q 3119 2431 3119 2041 
L 3119 0 
L 2556 0 
L 2556 2019 
Q 2556 2363 2490 2533 
Q 2425 2703 2258 2804 
Q 2091 2906 1866 2906 
Q 1506 2906 1245 2678 
Q 984 2450 984 1813 
L 984 0 
L 422 0 
z
" id="ArialMT-6e" transform="scale(0.015625)"/>
       <path d="M 1650 503 
L 1731 6 
Q 1494 -44 1306 -44 
Q 1000 -44 831 53 
Q 663 150 594 308 
Q 525 466 525 972 
L 525 2881 
L 113 2881 
L 113 3319 
L 525 3319 
L 525 4141 
L 1084 4478 
L 1084 3319 
L 1650 3319 
L 1650 2881 
L 1084 2881 
L 1084 941 
Q 1084 700 1114 631 
Q 1144 563 1211 522 
Q 1278 481 1403 481 
Q 1497 481 1650 503 
z
" id="ArialMT-74" transform="scale(0.015625)"/>
       <path id="ArialMT-20" transform="scale(0.015625)"/>
       <path d="M 425 3934 
L 425 4581 
L 988 4581 
L 988 3934 
L 425 3934 
z
M 425 0 
L 425 3319 
L 988 3319 
L 988 0 
L 425 0 
z
" id="ArialMT-69" transform="scale(0.015625)"/>
       <path d="M 1497 -1347 
Q 1031 -759 709 28 
Q 388 816 388 1659 
Q 388 2403 628 3084 
Q 909 3875 1497 4659 
L 1900 4659 
Q 1522 4009 1400 3731 
Q 1209 3300 1100 2831 
Q 966 2247 966 1656 
Q 966 153 1900 -1347 
L 1497 -1347 
z
" id="ArialMT-28" transform="scale(0.015625)"/>
       <path d="M -9 0 
L 1750 4581 
L 2403 4581 
L 4278 0 
L 3588 0 
L 3053 1388 
L 1138 1388 
L 634 0 
L -9 0 
z
M 1313 1881 
L 2866 1881 
L 2388 3150 
Q 2169 3728 2063 4100 
Q 1975 3659 1816 3225 
L 1313 1881 
z
" id="ArialMT-41" transform="scale(0.015625)"/>
       <path d="M 791 -1347 
L 388 -1347 
Q 1322 153 1322 1656 
Q 1322 2244 1188 2822 
Q 1081 3291 891 3722 
Q 769 4003 388 4659 
L 791 4659 
Q 1378 3875 1659 3084 
Q 1900 2403 1900 1659 
Q 1900 816 1576 28 
Q 1253 -759 791 -1347 
z
" id="ArialMT-29" transform="scale(0.015625)"/>
      </defs>
      <use xlink:href="#ArialMT-43"/>
      <use x="72.216797" xlink:href="#ArialMT-75"/>
      <use x="127.832031" xlink:href="#ArialMT-72"/>
      <use x="161.132812" xlink:href="#ArialMT-72"/>
      <use x="194.433594" xlink:href="#ArialMT-65"/>
      <use x="250.048828" xlink:href="#ArialMT-6e"/>
      <use x="305.664062" xlink:href="#ArialMT-74"/>
      <use x="333.447266" xlink:href="#ArialMT-20"/>
      <use x="361.230469" xlink:href="#ArialMT-69"/>
      <use x="383.447266" xlink:href="#ArialMT-6e"/>
      <use x="439.0625" xlink:href="#ArialMT-20"/>
      <use x="466.845703" xlink:href="#ArialMT-28"/>
      <use x="500.146484" xlink:href="#ArialMT-41"/>
      <use x="566.845703" xlink:href="#ArialMT-29"/>
     </g>
    </g>
   </g>
   <g id="line2d_12">
    <path clip-path="url(#p1ab2d20192)" d="M 72.653905 237.749902 
L 74.016436 236.645774 
L 75.378967 235.86269 
L 76.741498 237.385851 
L 78.104028 238.296971 
L 79.466559 237.76268 
L 80.82909 237.700592 
L 82.191621 238.085952 
L 83.554152 237.960058 
L 84.916682 237.051184 
L 86.279213 237.513916 
L 87.641744 236.829432 
L 89.004275 238.602792 
L 90.366805 237.991091 
L 91.729336 238.454846 
L 93.091867 238.339812 
L 94.454398 237.447201 
L 95.816929 237.430419 
L 97.179459 236.817695 
L 98.54199 235.929548 
L 99.904521 236.864196 
L 101.267052 237.611863 
L 102.629583 236.413966 
L 103.992113 237.9859 
L 105.354644 237.889924 
L 106.717175 239.292102 
L 108.079706 238.010538 
L 109.442237 238.171094 
L 110.804767 237.438932 
L 112.167298 237.124346 
L 113.529829 236.935594 
L 114.89236 237.824627 
L 117.617421 236.285831 
L 118.979952 237.758664 
L 120.342483 237.571026 
L 121.705014 238.669189 
L 123.067545 237.411521 
L 124.430075 237.659259 
L 125.792606 237.756464 
L 127.155137 239.131082 
L 128.517668 237.449712 
L 131.242729 238.46118 
L 132.60526 236.856856 
L 133.967791 238.165322 
L 135.330322 238.04111 
L 136.692852 238.698838 
L 138.055383 237.066717 
L 139.417914 238.192175 
L 140.780445 237.178855 
L 142.142976 238.661863 
L 143.505506 237.180388 
L 144.868037 237.940264 
L 146.230568 238.096955 
L 147.593099 236.815896 
L 148.95563 237.417549 
L 150.31816 236.981915 
L 151.680691 237.051024 
L 153.043222 238.292393 
L 154.405753 237.028131 
L 155.768284 238.467133 
L 157.130814 237.877288 
L 158.493345 236.890731 
L 159.855876 237.660985 
L 161.218407 238.202232 
L 163.943468 237.521869 
L 165.305999 238.095557 
L 166.66853 237.423249 
L 168.031061 237.678447 
L 169.393591 237.025179 
L 170.756122 232.010895 
L 172.118653 238.135127 
L 173.481184 235.791334 
L 176.206245 235.718947 
L 177.568776 236.785441 
L 178.931307 231.355643 
L 180.293838 234.070273 
L 181.656369 234.795696 
L 183.018899 233.299269 
L 184.38143 231.34779 
L 185.743961 233.09737 
L 187.106492 233.278206 
L 188.469023 228.490697 
L 189.831553 231.959184 
L 191.194084 229.032735 
L 192.556615 231.927991 
L 193.919146 233.231432 
L 195.281677 229.086595 
L 196.644207 231.380391 
L 198.006738 230.630287 
L 199.369269 234.718996 
L 200.7318 233.968417 
L 202.09433 235.20462 
L 203.456861 233.506925 
L 204.819392 234.37731 
L 206.181923 235.741423 
L 207.544454 233.542321 
L 208.906984 225.505486 
L 210.269515 32.146648 
L 211.632046 119.536814 
L 212.994577 179.829677 
L 214.357108 185.633403 
L 215.719638 206.493095 
L 217.082169 213.572476 
L 218.4447 203.701672 
L 219.807231 186.471634 
L 221.169762 181.652138 
L 222.532292 188.287738 
L 223.894823 194.011313 
L 225.257354 193.475439 
L 226.619885 190.122784 
L 227.982416 191.07087 
L 229.344946 190.407043 
L 230.707477 191.335742 
L 232.070008 190.558898 
L 233.432539 191.116491 
L 234.79507 192.155124 
L 236.1576 191.526991 
L 237.520131 190.161781 
L 238.882662 189.139484 
L 240.245193 190.674718 
L 241.607723 190.674514 
L 242.970254 191.166813 
L 245.695316 190.886413 
L 247.057847 191.249095 
L 248.420377 190.839234 
L 249.782908 191.212481 
L 251.145439 190.626228 
L 253.870501 191.855506 
L 255.233031 192.236353 
L 256.595562 193.439649 
L 257.958093 193.198386 
L 259.320624 190.974104 
L 260.683155 191.388705 
L 262.045685 191.097301 
L 263.408216 191.99872 
L 264.770747 191.239831 
L 266.133278 191.109263 
L 267.495809 191.373648 
L 268.858339 191.239497 
L 270.22087 190.087506 
L 271.583401 190.517766 
L 272.945932 191.554233 
L 274.308462 190.95061 
L 275.670993 191.004043 
L 277.033524 191.64165 
L 278.396055 190.302384 
L 279.758586 189.914346 
L 281.121116 191.324872 
L 282.483647 191.358486 
L 283.846178 190.762134 
L 285.208709 190.674816 
L 286.57124 190.762064 
L 287.93377 192.428662 
L 289.296301 190.99763 
L 290.658832 191.250839 
L 292.021363 190.706913 
L 293.383894 193.17179 
L 294.746424 191.429903 
L 296.108955 190.421187 
L 297.471486 190.606551 
L 298.834017 189.772427 
L 300.196548 192.024607 
L 301.559078 191.771891 
L 302.921609 190.311285 
L 304.28414 191.604053 
L 305.646671 189.147927 
L 307.009202 192.217587 
L 308.371732 191.107679 
L 311.096794 191.478161 
L 312.459325 193.431588 
L 313.821855 190.372926 
L 315.184386 192.023534 
L 316.546917 192.50488 
L 317.909448 191.193158 
L 319.271979 192.631119 
L 320.634509 191.002141 
L 321.99704 191.416103 
L 323.359571 192.011773 
L 324.722102 191.888538 
L 326.084633 192.039759 
L 327.447163 193.135953 
L 328.809694 191.257246 
L 330.172225 190.009923 
L 331.534756 190.594901 
L 332.897287 191.799991 
L 332.897287 191.799991 
" style="fill:none;stroke:#4c72b0;stroke-linecap:round;stroke-width:1.5;"/>
   </g>
   <g id="patch_3">
    <path d="M 59.641736 249.649375 
L 59.641736 21.789375 
" style="fill:none;stroke:#ffffff;stroke-linecap:square;stroke-linejoin:miter;stroke-width:1.25;"/>
   </g>
   <g id="patch_4">
    <path d="M 345.909456 249.649375 
L 345.909456 21.789375 
" style="fill:none;stroke:#ffffff;stroke-linecap:square;stroke-linejoin:miter;stroke-width:1.25;"/>
   </g>
   <g id="patch_5">
    <path d="M 59.641736 249.649375 
L 345.909456 249.649375 
" style="fill:none;stroke:#ffffff;stroke-linecap:square;stroke-linejoin:miter;stroke-width:1.25;"/>
   </g>
   <g id="patch_6">
    <path d="M 59.641736 21.789375 
L 345.909456 21.789375 
" style="fill:none;stroke:#ffffff;stroke-linecap:square;stroke-linejoin:miter;stroke-width:1.25;"/>
   </g>
   <g id="text_13">
    <!-- Current Over Time -->
    <g style="fill:#262626;" transform="translate(153.433096 15.789375)scale(0.12 -0.12)">
     <defs>
      <path d="M 309 2231 
Q 309 3372 921 4017 
Q 1534 4663 2503 4663 
Q 3138 4663 3647 4359 
Q 4156 4056 4423 3514 
Q 4691 2972 4691 2284 
Q 4691 1588 4409 1038 
Q 4128 488 3612 205 
Q 3097 -78 2500 -78 
Q 1853 -78 1343 234 
Q 834 547 571 1087 
Q 309 1628 309 2231 
z
M 934 2222 
Q 934 1394 1379 917 
Q 1825 441 2497 441 
Q 3181 441 3623 922 
Q 4066 1403 4066 2288 
Q 4066 2847 3877 3264 
Q 3688 3681 3323 3911 
Q 2959 4141 2506 4141 
Q 1863 4141 1398 3698 
Q 934 3256 934 2222 
z
" id="ArialMT-4f" transform="scale(0.015625)"/>
      <path d="M 1344 0 
L 81 3319 
L 675 3319 
L 1388 1331 
Q 1503 1009 1600 663 
Q 1675 925 1809 1294 
L 2547 3319 
L 3125 3319 
L 1869 0 
L 1344 0 
z
" id="ArialMT-76" transform="scale(0.015625)"/>
      <path d="M 1659 0 
L 1659 4041 
L 150 4041 
L 150 4581 
L 3781 4581 
L 3781 4041 
L 2266 4041 
L 2266 0 
L 1659 0 
z
" id="ArialMT-54" transform="scale(0.015625)"/>
      <path d="M 422 0 
L 422 3319 
L 925 3319 
L 925 2853 
Q 1081 3097 1340 3245 
Q 1600 3394 1931 3394 
Q 2300 3394 2536 3241 
Q 2772 3088 2869 2813 
Q 3263 3394 3894 3394 
Q 4388 3394 4653 3120 
Q 4919 2847 4919 2278 
L 4919 0 
L 4359 0 
L 4359 2091 
Q 4359 2428 4304 2576 
Q 4250 2725 4106 2815 
Q 3963 2906 3769 2906 
Q 3419 2906 3187 2673 
Q 2956 2441 2956 1928 
L 2956 0 
L 2394 0 
L 2394 2156 
Q 2394 2531 2256 2718 
Q 2119 2906 1806 2906 
Q 1569 2906 1367 2781 
Q 1166 2656 1075 2415 
Q 984 2175 984 1722 
L 984 0 
L 422 0 
z
" id="ArialMT-6d" transform="scale(0.015625)"/>
     </defs>
     <use xlink:href="#ArialMT-43"/>
     <use x="72.216797" xlink:href="#ArialMT-75"/>
     <use x="127.832031" xlink:href="#ArialMT-72"/>
     <use x="161.132812" xlink:href="#ArialMT-72"/>
     <use x="194.433594" xlink:href="#ArialMT-65"/>
     <use x="250.048828" xlink:href="#ArialMT-6e"/>
     <use x="305.664062" xlink:href="#ArialMT-74"/>
     <use x="333.447266" xlink:href="#ArialMT-20"/>
     <use x="361.230469" xlink:href="#ArialMT-4f"/>
     <use x="439.013672" xlink:href="#ArialMT-76"/>
     <use x="489.013672" xlink:href="#ArialMT-65"/>
     <use x="544.628906" xlink:href="#ArialMT-72"/>
     <use x="577.929688" xlink:href="#ArialMT-20"/>
     <use x="603.962891" xlink:href="#ArialMT-54"/>
     <use x="661.296875" xlink:href="#ArialMT-69"/>
     <use x="683.513672" xlink:href="#ArialMT-6d"/>
     <use x="766.814453" xlink:href="#ArialMT-65"/>
    </g>
   </g>
  </g>
  <g id="axes_2">
   <g id="patch_7">
    <path d="M 419.281736 249.649375 
L 705.549456 249.649375 
L 705.549456 21.789375 
L 419.281736 21.789375 
z
" style="fill:#eaeaf2;"/>
   </g>
   <g id="matplotlib.axis_3">
    <g id="xtick_6">
     <g id="line2d_13">
      <path clip-path="url(#p6f6c9ec2e6)" d="M 432.293905 249.649375 
L 432.293905 21.789375 
" style="fill:none;stroke:#ffffff;stroke-linecap:round;"/>
     </g>
     <g id="text_14">
      <!-- 0 -->
      <g style="fill:#262626;" transform="translate(429.23539 267.022969)scale(0.11 -0.11)">
       <use xlink:href="#ArialMT-30"/>
      </g>
     </g>
    </g>
    <g id="xtick_7">
     <g id="line2d_14">
      <path clip-path="url(#p6f6c9ec2e6)" d="M 500.420445 249.649375 
L 500.420445 21.789375 
" style="fill:none;stroke:#ffffff;stroke-linecap:round;"/>
     </g>
     <g id="text_15">
      <!-- 50 -->
      <g style="fill:#262626;" transform="translate(494.303414 267.022969)scale(0.11 -0.11)">
       <use xlink:href="#ArialMT-35"/>
       <use x="55.615234" xlink:href="#ArialMT-30"/>
      </g>
     </g>
    </g>
    <g id="xtick_8">
     <g id="line2d_15">
      <path clip-path="url(#p6f6c9ec2e6)" d="M 568.546984 249.649375 
L 568.546984 21.789375 
" style="fill:none;stroke:#ffffff;stroke-linecap:round;"/>
     </g>
     <g id="text_16">
      <!-- 100 -->
      <g style="fill:#262626;" transform="translate(559.371438 267.022969)scale(0.11 -0.11)">
       <use xlink:href="#ArialMT-31"/>
       <use x="55.615234" xlink:href="#ArialMT-30"/>
       <use x="111.230469" xlink:href="#ArialMT-30"/>
      </g>
     </g>
    </g>
    <g id="xtick_9">
     <g id="line2d_16">
      <path clip-path="url(#p6f6c9ec2e6)" d="M 636.673524 249.649375 
L 636.673524 21.789375 
" style="fill:none;stroke:#ffffff;stroke-linecap:round;"/>
     </g>
     <g id="text_17">
      <!-- 150 -->
      <g style="fill:#262626;" transform="translate(627.497977 267.022969)scale(0.11 -0.11)">
       <use xlink:href="#ArialMT-31"/>
       <use x="55.615234" xlink:href="#ArialMT-35"/>
       <use x="111.230469" xlink:href="#ArialMT-30"/>
      </g>
     </g>
    </g>
    <g id="xtick_10">
     <g id="line2d_17">
      <path clip-path="url(#p6f6c9ec2e6)" d="M 704.800064 249.649375 
L 704.800064 21.789375 
" style="fill:none;stroke:#ffffff;stroke-linecap:round;"/>
     </g>
     <g id="text_18">
      <!-- 200 -->
      <g style="fill:#262626;" transform="translate(695.624517 267.022969)scale(0.11 -0.11)">
       <use xlink:href="#ArialMT-32"/>
       <use x="55.615234" xlink:href="#ArialMT-30"/>
       <use x="111.230469" xlink:href="#ArialMT-30"/>
      </g>
     </g>
    </g>
   </g>
   <g id="matplotlib.axis_4">
    <g id="ytick_7">
     <g id="line2d_18">
      <path clip-path="url(#p6f6c9ec2e6)" d="M 419.281736 242.900111 
L 705.549456 242.900111 
" style="fill:none;stroke:#ffffff;stroke-linecap:round;"/>
     </g>
     <g id="text_19">
      <!-- 0.000 -->
      <g style="fill:#262626;" transform="translate(382.257674 246.836908)scale(0.11 -0.11)">
       <use xlink:href="#ArialMT-30"/>
       <use x="55.615234" xlink:href="#ArialMT-2e"/>
       <use x="83.398438" xlink:href="#ArialMT-30"/>
       <use x="139.013672" xlink:href="#ArialMT-30"/>
       <use x="194.628906" xlink:href="#ArialMT-30"/>
      </g>
     </g>
    </g>
    <g id="ytick_8">
     <g id="line2d_19">
      <path clip-path="url(#p6f6c9ec2e6)" d="M 419.281736 194.739005 
L 705.549456 194.739005 
" style="fill:none;stroke:#ffffff;stroke-linecap:round;"/>
     </g>
     <g id="text_20">
      <!-- 0.001 -->
      <g style="fill:#262626;" transform="translate(382.257674 198.675801)scale(0.11 -0.11)">
       <use xlink:href="#ArialMT-30"/>
       <use x="55.615234" xlink:href="#ArialMT-2e"/>
       <use x="83.398438" xlink:href="#ArialMT-30"/>
       <use x="139.013672" xlink:href="#ArialMT-30"/>
       <use x="194.628906" xlink:href="#ArialMT-31"/>
      </g>
     </g>
    </g>
    <g id="ytick_9">
     <g id="line2d_20">
      <path clip-path="url(#p6f6c9ec2e6)" d="M 419.281736 146.577898 
L 705.549456 146.577898 
" style="fill:none;stroke:#ffffff;stroke-linecap:round;"/>
     </g>
     <g id="text_21">
      <!-- 0.002 -->
      <g style="fill:#262626;" transform="translate(382.257674 150.514695)scale(0.11 -0.11)">
       <use xlink:href="#ArialMT-30"/>
       <use x="55.615234" xlink:href="#ArialMT-2e"/>
       <use x="83.398438" xlink:href="#ArialMT-30"/>
       <use x="139.013672" xlink:href="#ArialMT-30"/>
       <use x="194.628906" xlink:href="#ArialMT-32"/>
      </g>
     </g>
    </g>
    <g id="ytick_10">
     <g id="line2d_21">
      <path clip-path="url(#p6f6c9ec2e6)" d="M 419.281736 98.416791 
L 705.549456 98.416791 
" style="fill:none;stroke:#ffffff;stroke-linecap:round;"/>
     </g>
     <g id="text_22">
      <!-- 0.003 -->
      <g style="fill:#262626;" transform="translate(382.257674 102.353588)scale(0.11 -0.11)">
       <defs>
        <path d="M 269 1209 
L 831 1284 
Q 928 806 1161 595 
Q 1394 384 1728 384 
Q 2125 384 2398 659 
Q 2672 934 2672 1341 
Q 2672 1728 2419 1979 
Q 2166 2231 1775 2231 
Q 1616 2231 1378 2169 
L 1441 2663 
Q 1497 2656 1531 2656 
Q 1891 2656 2178 2843 
Q 2466 3031 2466 3422 
Q 2466 3731 2256 3934 
Q 2047 4138 1716 4138 
Q 1388 4138 1169 3931 
Q 950 3725 888 3313 
L 325 3413 
Q 428 3978 793 4289 
Q 1159 4600 1703 4600 
Q 2078 4600 2393 4439 
Q 2709 4278 2876 4000 
Q 3044 3722 3044 3409 
Q 3044 3113 2884 2869 
Q 2725 2625 2413 2481 
Q 2819 2388 3044 2092 
Q 3269 1797 3269 1353 
Q 3269 753 2831 336 
Q 2394 -81 1725 -81 
Q 1122 -81 723 278 
Q 325 638 269 1209 
z
" id="ArialMT-33" transform="scale(0.015625)"/>
       </defs>
       <use xlink:href="#ArialMT-30"/>
       <use x="55.615234" xlink:href="#ArialMT-2e"/>
       <use x="83.398438" xlink:href="#ArialMT-30"/>
       <use x="139.013672" xlink:href="#ArialMT-30"/>
       <use x="194.628906" xlink:href="#ArialMT-33"/>
      </g>
     </g>
    </g>
    <g id="ytick_11">
     <g id="line2d_22">
      <path clip-path="url(#p6f6c9ec2e6)" d="M 419.281736 50.255685 
L 705.549456 50.255685 
" style="fill:none;stroke:#ffffff;stroke-linecap:round;"/>
     </g>
     <g id="text_23">
      <!-- 0.004 -->
      <g style="fill:#262626;" transform="translate(382.257674 54.192482)scale(0.11 -0.11)">
       <use xlink:href="#ArialMT-30"/>
       <use x="55.615234" xlink:href="#ArialMT-2e"/>
       <use x="83.398438" xlink:href="#ArialMT-30"/>
       <use x="139.013672" xlink:href="#ArialMT-30"/>
       <use x="194.628906" xlink:href="#ArialMT-34"/>
      </g>
     </g>
    </g>
    <g id="text_24">
     <!-- Current in (A/V) -->
     <g style="fill:#262626;" transform="translate(375.732049 177.395)rotate(-90)scale(0.12 -0.12)">
      <defs>
       <path d="M 0 -78 
L 1328 4659 
L 1778 4659 
L 453 -78 
L 0 -78 
z
" id="ArialMT-2f" transform="scale(0.015625)"/>
       <path d="M 1803 0 
L 28 4581 
L 684 4581 
L 1875 1253 
Q 2019 853 2116 503 
Q 2222 878 2363 1253 
L 3600 4581 
L 4219 4581 
L 2425 0 
L 1803 0 
z
" id="ArialMT-56" transform="scale(0.015625)"/>
      </defs>
      <use xlink:href="#ArialMT-43"/>
      <use x="72.216797" xlink:href="#ArialMT-75"/>
      <use x="127.832031" xlink:href="#ArialMT-72"/>
      <use x="161.132812" xlink:href="#ArialMT-72"/>
      <use x="194.433594" xlink:href="#ArialMT-65"/>
      <use x="250.048828" xlink:href="#ArialMT-6e"/>
      <use x="305.664062" xlink:href="#ArialMT-74"/>
      <use x="333.447266" xlink:href="#ArialMT-20"/>
      <use x="361.230469" xlink:href="#ArialMT-69"/>
      <use x="383.447266" xlink:href="#ArialMT-6e"/>
      <use x="439.0625" xlink:href="#ArialMT-20"/>
      <use x="466.845703" xlink:href="#ArialMT-28"/>
      <use x="500.146484" xlink:href="#ArialMT-41"/>
      <use x="566.845703" xlink:href="#ArialMT-2f"/>
      <use x="594.628906" xlink:href="#ArialMT-56"/>
      <use x="661.328125" xlink:href="#ArialMT-29"/>
     </g>
    </g>
   </g>
   <g id="line2d_23">
    <path clip-path="url(#p6f6c9ec2e6)" d="M 432.293905 237.756037 
L 433.656436 236.653937 
L 435.018967 235.876626 
L 436.381498 237.389721 
L 437.744028 238.300157 
L 439.106559 237.760009 
L 440.46909 237.702048 
L 441.831621 238.090478 
L 443.194152 237.959874 
L 444.556682 237.056838 
L 445.919213 237.518297 
L 447.281744 236.836034 
L 448.644275 238.601626 
L 450.006805 237.993421 
L 451.369336 238.456115 
L 452.731867 238.342686 
L 454.094398 237.443066 
L 455.456929 237.427072 
L 456.819459 236.82502 
L 458.18199 235.935666 
L 459.544521 236.863394 
L 460.907052 237.619121 
L 462.269583 236.421244 
L 463.632113 237.986975 
L 464.994644 237.892154 
L 466.357175 239.292102 
L 467.719706 238.010691 
L 469.082237 238.175422 
L 470.444767 237.441176 
L 471.807298 237.132526 
L 473.169829 236.945253 
L 474.53236 237.824885 
L 477.257421 236.293401 
L 478.619952 237.763505 
L 479.982483 237.574711 
L 481.345014 238.66383 
L 482.707545 237.419474 
L 484.070075 237.663751 
L 485.432606 237.75844 
L 486.795137 239.132094 
L 488.157668 237.453255 
L 490.882729 238.464109 
L 492.24526 236.860154 
L 493.607791 238.16631 
L 494.970322 238.041291 
L 496.332852 238.696827 
L 497.695383 237.075143 
L 499.057914 238.193769 
L 500.420445 237.187365 
L 501.782976 238.662222 
L 503.145506 237.186008 
L 504.508037 237.943236 
L 505.870568 238.096511 
L 507.233099 236.821977 
L 508.59563 237.421004 
L 509.95816 236.99003 
L 511.320691 237.04952 
L 512.683222 238.293344 
L 514.045753 237.031396 
L 515.408284 238.466466 
L 516.770814 237.883436 
L 518.133345 236.894305 
L 519.495876 237.668162 
L 520.858407 238.200284 
L 523.583468 237.524299 
L 524.945999 238.094316 
L 526.30853 237.428105 
L 527.671061 237.678339 
L 529.033591 237.028674 
L 530.396122 232.028551 
L 531.758653 238.136157 
L 533.121184 235.802554 
L 535.846245 235.730801 
L 537.208776 236.788968 
L 538.571307 231.37088 
L 539.933838 234.085013 
L 541.296369 234.802333 
L 542.658899 233.311591 
L 544.02143 231.367894 
L 545.383961 233.112737 
L 546.746492 233.287679 
L 548.109023 228.517004 
L 549.471553 231.96637 
L 550.834084 229.056773 
L 552.196615 231.938034 
L 553.559146 233.240555 
L 554.921677 229.114554 
L 556.284207 231.395905 
L 557.646738 230.654886 
L 559.009269 234.725771 
L 560.3718 233.976259 
L 561.73433 235.218194 
L 563.096861 233.519907 
L 564.459392 234.387609 
L 565.821923 235.747408 
L 567.184454 233.556583 
L 568.546984 225.533382 
L 569.909515 32.146648 
L 571.272046 119.828563 
L 572.634577 179.99636 
L 573.997108 185.671587 
L 575.359638 206.575755 
L 576.722169 213.635235 
L 578.0847 203.806964 
L 579.447231 186.576446 
L 580.809762 181.797712 
L 582.172292 188.396658 
L 583.534823 194.110358 
L 584.897354 193.594649 
L 586.259885 190.255842 
L 587.622416 191.209383 
L 588.984946 190.471985 
L 590.347477 191.459111 
L 591.710008 190.67797 
L 593.072539 191.247015 
L 594.43507 192.260907 
L 595.7976 191.651527 
L 597.160131 190.273834 
L 598.522662 189.249357 
L 599.885193 190.779456 
L 601.247723 190.803616 
L 602.610254 191.288684 
L 605.335316 190.977272 
L 606.697847 191.374607 
L 608.060377 190.966989 
L 609.422908 191.286161 
L 610.785439 190.735786 
L 613.510501 191.948833 
L 614.873031 192.365567 
L 616.235562 193.550535 
L 617.598093 193.294618 
L 618.960624 191.097586 
L 620.323155 191.473626 
L 621.685685 191.187668 
L 623.048216 192.004485 
L 624.410747 191.337726 
L 625.773278 191.217815 
L 627.135809 191.433937 
L 628.498339 191.324415 
L 629.86087 190.156559 
L 631.223401 190.614171 
L 632.585932 191.66274 
L 633.948462 191.08298 
L 635.310993 191.096879 
L 636.673524 191.742187 
L 638.036055 190.407318 
L 639.398586 190.014597 
L 640.761116 191.406761 
L 642.123647 191.460103 
L 643.486178 190.834991 
L 644.848709 190.782394 
L 646.21124 190.869051 
L 647.57377 192.546837 
L 648.936301 191.064865 
L 650.298832 191.347913 
L 651.661363 190.778683 
L 653.023894 193.312391 
L 654.386424 191.546031 
L 655.748955 190.469126 
L 657.111486 190.696892 
L 658.474017 189.932134 
L 659.836548 192.113961 
L 661.199078 191.864676 
L 662.561609 190.429907 
L 663.92414 191.731243 
L 665.286671 189.258462 
L 666.649202 192.320523 
L 668.011732 191.232163 
L 670.736794 191.56256 
L 672.099325 193.528299 
L 673.461855 190.481506 
L 674.824386 192.093838 
L 676.186917 192.613197 
L 677.549448 191.310786 
L 678.911979 192.730809 
L 680.274509 191.063833 
L 681.63704 191.510087 
L 682.999571 192.108421 
L 684.362102 191.99908 
L 685.724633 192.144517 
L 687.087163 193.204866 
L 688.449694 191.346298 
L 689.812225 190.088095 
L 691.174756 190.673838 
L 692.537287 191.895855 
L 692.537287 191.895855 
" style="fill:none;stroke:#4c72b0;stroke-linecap:round;stroke-width:1.5;"/>
   </g>
   <g id="patch_8">
    <path d="M 419.281736 249.649375 
L 419.281736 21.789375 
" style="fill:none;stroke:#ffffff;stroke-linecap:square;stroke-linejoin:miter;stroke-width:1.25;"/>
   </g>
   <g id="patch_9">
    <path d="M 705.549456 249.649375 
L 705.549456 21.789375 
" style="fill:none;stroke:#ffffff;stroke-linecap:square;stroke-linejoin:miter;stroke-width:1.25;"/>
   </g>
   <g id="patch_10">
    <path d="M 419.281736 249.649375 
L 705.549456 249.649375 
" style="fill:none;stroke:#ffffff;stroke-linecap:square;stroke-linejoin:miter;stroke-width:1.25;"/>
   </g>
   <g id="patch_11">
    <path d="M 419.281736 21.789375 
L 705.549456 21.789375 
" style="fill:none;stroke:#ffffff;stroke-linecap:square;stroke-linejoin:miter;stroke-width:1.25;"/>
   </g>
   <g id="text_25">
    <!-- Admittance Over Time -->
    <g style="fill:#262626;" transform="translate(503.065283 15.789375)scale(0.12 -0.12)">
     <defs>
      <path d="M 2575 0 
L 2575 419 
Q 2259 -75 1647 -75 
Q 1250 -75 917 144 
Q 584 363 401 755 
Q 219 1147 219 1656 
Q 219 2153 384 2558 
Q 550 2963 881 3178 
Q 1213 3394 1622 3394 
Q 1922 3394 2156 3267 
Q 2391 3141 2538 2938 
L 2538 4581 
L 3097 4581 
L 3097 0 
L 2575 0 
z
M 797 1656 
Q 797 1019 1065 703 
Q 1334 388 1700 388 
Q 2069 388 2326 689 
Q 2584 991 2584 1609 
Q 2584 2291 2321 2609 
Q 2059 2928 1675 2928 
Q 1300 2928 1048 2622 
Q 797 2316 797 1656 
z
" id="ArialMT-64" transform="scale(0.015625)"/>
      <path d="M 2588 409 
Q 2275 144 1986 34 
Q 1697 -75 1366 -75 
Q 819 -75 525 192 
Q 231 459 231 875 
Q 231 1119 342 1320 
Q 453 1522 633 1644 
Q 813 1766 1038 1828 
Q 1203 1872 1538 1913 
Q 2219 1994 2541 2106 
Q 2544 2222 2544 2253 
Q 2544 2597 2384 2738 
Q 2169 2928 1744 2928 
Q 1347 2928 1158 2789 
Q 969 2650 878 2297 
L 328 2372 
Q 403 2725 575 2942 
Q 747 3159 1072 3276 
Q 1397 3394 1825 3394 
Q 2250 3394 2515 3294 
Q 2781 3194 2906 3042 
Q 3031 2891 3081 2659 
Q 3109 2516 3109 2141 
L 3109 1391 
Q 3109 606 3145 398 
Q 3181 191 3288 0 
L 2700 0 
Q 2613 175 2588 409 
z
M 2541 1666 
Q 2234 1541 1622 1453 
Q 1275 1403 1131 1340 
Q 988 1278 909 1158 
Q 831 1038 831 891 
Q 831 666 1001 516 
Q 1172 366 1500 366 
Q 1825 366 2078 508 
Q 2331 650 2450 897 
Q 2541 1088 2541 1459 
L 2541 1666 
z
" id="ArialMT-61" transform="scale(0.015625)"/>
      <path d="M 2588 1216 
L 3141 1144 
Q 3050 572 2676 248 
Q 2303 -75 1759 -75 
Q 1078 -75 664 370 
Q 250 816 250 1647 
Q 250 2184 428 2587 
Q 606 2991 970 3192 
Q 1334 3394 1763 3394 
Q 2303 3394 2647 3120 
Q 2991 2847 3088 2344 
L 2541 2259 
Q 2463 2594 2264 2762 
Q 2066 2931 1784 2931 
Q 1359 2931 1093 2626 
Q 828 2322 828 1663 
Q 828 994 1084 691 
Q 1341 388 1753 388 
Q 2084 388 2306 591 
Q 2528 794 2588 1216 
z
" id="ArialMT-63" transform="scale(0.015625)"/>
     </defs>
     <use xlink:href="#ArialMT-41"/>
     <use x="66.699219" xlink:href="#ArialMT-64"/>
     <use x="122.314453" xlink:href="#ArialMT-6d"/>
     <use x="205.615234" xlink:href="#ArialMT-69"/>
     <use x="227.832031" xlink:href="#ArialMT-74"/>
     <use x="255.615234" xlink:href="#ArialMT-74"/>
     <use x="283.398438" xlink:href="#ArialMT-61"/>
     <use x="339.013672" xlink:href="#ArialMT-6e"/>
     <use x="394.628906" xlink:href="#ArialMT-63"/>
     <use x="444.628906" xlink:href="#ArialMT-65"/>
     <use x="500.244141" xlink:href="#ArialMT-20"/>
     <use x="528.027344" xlink:href="#ArialMT-4f"/>
     <use x="605.810547" xlink:href="#ArialMT-76"/>
     <use x="655.810547" xlink:href="#ArialMT-65"/>
     <use x="711.425781" xlink:href="#ArialMT-72"/>
     <use x="744.726562" xlink:href="#ArialMT-20"/>
     <use x="770.759766" xlink:href="#ArialMT-54"/>
     <use x="828.09375" xlink:href="#ArialMT-69"/>
     <use x="850.310547" xlink:href="#ArialMT-6d"/>
     <use x="933.611328" xlink:href="#ArialMT-65"/>
    </g>
   </g>
  </g>
  <g id="text_26">
   <!-- Number of cycles -->
   <g style="fill:#262626;" transform="translate(320.680174 285.294375)scale(0.12 -0.12)">
    <defs>
     <path d="M 488 0 
L 488 4581 
L 1109 4581 
L 3516 984 
L 3516 4581 
L 4097 4581 
L 4097 0 
L 3475 0 
L 1069 3600 
L 1069 0 
L 488 0 
z
" id="ArialMT-4e" transform="scale(0.015625)"/>
     <path d="M 941 0 
L 419 0 
L 419 4581 
L 981 4581 
L 981 2947 
Q 1338 3394 1891 3394 
Q 2197 3394 2470 3270 
Q 2744 3147 2920 2923 
Q 3097 2700 3197 2384 
Q 3297 2069 3297 1709 
Q 3297 856 2875 390 
Q 2453 -75 1863 -75 
Q 1275 -75 941 416 
L 941 0 
z
M 934 1684 
Q 934 1088 1097 822 
Q 1363 388 1816 388 
Q 2184 388 2453 708 
Q 2722 1028 2722 1663 
Q 2722 2313 2464 2622 
Q 2206 2931 1841 2931 
Q 1472 2931 1203 2611 
Q 934 2291 934 1684 
z
" id="ArialMT-62" transform="scale(0.015625)"/>
     <path d="M 213 1659 
Q 213 2581 725 3025 
Q 1153 3394 1769 3394 
Q 2453 3394 2887 2945 
Q 3322 2497 3322 1706 
Q 3322 1066 3130 698 
Q 2938 331 2570 128 
Q 2203 -75 1769 -75 
Q 1072 -75 642 372 
Q 213 819 213 1659 
z
M 791 1659 
Q 791 1022 1069 705 
Q 1347 388 1769 388 
Q 2188 388 2466 706 
Q 2744 1025 2744 1678 
Q 2744 2294 2464 2611 
Q 2184 2928 1769 2928 
Q 1347 2928 1069 2612 
Q 791 2297 791 1659 
z
" id="ArialMT-6f" transform="scale(0.015625)"/>
     <path d="M 556 0 
L 556 2881 
L 59 2881 
L 59 3319 
L 556 3319 
L 556 3672 
Q 556 4006 616 4169 
Q 697 4388 901 4523 
Q 1106 4659 1475 4659 
Q 1713 4659 2000 4603 
L 1916 4113 
Q 1741 4144 1584 4144 
Q 1328 4144 1222 4034 
Q 1116 3925 1116 3625 
L 1116 3319 
L 1763 3319 
L 1763 2881 
L 1116 2881 
L 1116 0 
L 556 0 
z
" id="ArialMT-66" transform="scale(0.015625)"/>
     <path d="M 397 -1278 
L 334 -750 
Q 519 -800 656 -800 
Q 844 -800 956 -737 
Q 1069 -675 1141 -563 
Q 1194 -478 1313 -144 
Q 1328 -97 1363 -6 
L 103 3319 
L 709 3319 
L 1400 1397 
Q 1534 1031 1641 628 
Q 1738 1016 1872 1384 
L 2581 3319 
L 3144 3319 
L 1881 -56 
Q 1678 -603 1566 -809 
Q 1416 -1088 1222 -1217 
Q 1028 -1347 759 -1347 
Q 597 -1347 397 -1278 
z
" id="ArialMT-79" transform="scale(0.015625)"/>
     <path d="M 409 0 
L 409 4581 
L 972 4581 
L 972 0 
L 409 0 
z
" id="ArialMT-6c" transform="scale(0.015625)"/>
     <path d="M 197 991 
L 753 1078 
Q 800 744 1014 566 
Q 1228 388 1613 388 
Q 2000 388 2187 545 
Q 2375 703 2375 916 
Q 2375 1106 2209 1216 
Q 2094 1291 1634 1406 
Q 1016 1563 777 1677 
Q 538 1791 414 1992 
Q 291 2194 291 2438 
Q 291 2659 392 2848 
Q 494 3038 669 3163 
Q 800 3259 1026 3326 
Q 1253 3394 1513 3394 
Q 1903 3394 2198 3281 
Q 2494 3169 2634 2976 
Q 2775 2784 2828 2463 
L 2278 2388 
Q 2241 2644 2061 2787 
Q 1881 2931 1553 2931 
Q 1166 2931 1000 2803 
Q 834 2675 834 2503 
Q 834 2394 903 2306 
Q 972 2216 1119 2156 
Q 1203 2125 1616 2013 
Q 2213 1853 2448 1751 
Q 2684 1650 2818 1456 
Q 2953 1263 2953 975 
Q 2953 694 2789 445 
Q 2625 197 2315 61 
Q 2006 -75 1616 -75 
Q 969 -75 630 194 
Q 291 463 197 991 
z
" id="ArialMT-73" transform="scale(0.015625)"/>
    </defs>
    <use xlink:href="#ArialMT-4e"/>
    <use x="72.216797" xlink:href="#ArialMT-75"/>
    <use x="127.832031" xlink:href="#ArialMT-6d"/>
    <use x="211.132812" xlink:href="#ArialMT-62"/>
    <use x="266.748047" xlink:href="#ArialMT-65"/>
    <use x="322.363281" xlink:href="#ArialMT-72"/>
    <use x="355.664062" xlink:href="#ArialMT-20"/>
    <use x="383.447266" xlink:href="#ArialMT-6f"/>
    <use x="439.0625" xlink:href="#ArialMT-66"/>
    <use x="466.845703" xlink:href="#ArialMT-20"/>
    <use x="494.628906" xlink:href="#ArialMT-63"/>
    <use x="544.628906" xlink:href="#ArialMT-79"/>
    <use x="594.628906" xlink:href="#ArialMT-63"/>
    <use x="644.628906" xlink:href="#ArialMT-6c"/>
    <use x="666.845703" xlink:href="#ArialMT-65"/>
    <use x="722.460938" xlink:href="#ArialMT-73"/>
   </g>
  </g>
 </g>
 <defs>
  <clipPath id="p1ab2d20192">
   <rect height="227.86" width="286.26772" x="59.641736" y="21.789375"/>
  </clipPath>
  <clipPath id="p6f6c9ec2e6">
   <rect height="227.86" width="286.26772" x="419.281736" y="21.789375"/>
  </clipPath>
 </defs>
</svg>
