<?xml version="1.0" encoding="utf-8" standalone="no"?>
<!DOCTYPE svg PUBLIC "-//W3C//DTD SVG 1.1//EN"
  "http://www.w3.org/Graphics/SVG/1.1/DTD/svg11.dtd">
<!-- Created with matplotlib (https://matplotlib.org/) -->
<svg height="360pt" version="1.1" viewBox="0 0 936 360" width="936pt" xmlns="http://www.w3.org/2000/svg" xmlns:xlink="http://www.w3.org/1999/xlink">
 <metadata>
  <rdf:RDF xmlns:cc="http://creativecommons.org/ns#" xmlns:dc="http://purl.org/dc/elements/1.1/" xmlns:rdf="http://www.w3.org/1999/02/22-rdf-syntax-ns#">
   <cc:Work>
    <dc:type rdf:resource="http://purl.org/dc/dcmitype/StillImage"/>
    <dc:date>2021-08-17T17:59:31.995984</dc:date>
    <dc:format>image/svg+xml</dc:format>
    <dc:creator>
     <cc:Agent>
      <dc:title>Matplotlib v3.3.4, https://matplotlib.org/</dc:title>
     </cc:Agent>
    </dc:creator>
   </cc:Work>
  </rdf:RDF>
 </metadata>
 <defs>
  <style type="text/css">*{stroke-linecap:butt;stroke-linejoin:round;}</style>
 </defs>
 <g id="figure_1">
  <g id="patch_1">
   <path d="M 0 360 
L 936 360 
L 936 0 
L 0 0 
z
" style="fill:#ffffff;"/>
  </g>
  <g id="axes_1">
   <g id="patch_2">
    <path d="M 64.335 313.54 
L 468.52 313.54 
L 468.52 13.044662 
L 64.335 13.044662 
z
" style="fill:#eaeaf2;"/>
   </g>
   <g id="matplotlib.axis_1">
    <g id="xtick_1">
     <g id="line2d_1">
      <path clip-path="url(#p2242d396e2)" d="M 82.707045 313.54 
L 82.707045 13.044662 
" style="fill:none;stroke:#ffffff;stroke-linecap:round;"/>
     </g>
     <g id="text_1">
      <!-- 0 -->
      <g style="fill:#262626;" transform="translate(79.64853 330.913594)scale(0.11 -0.11)">
       <defs>
        <path d="M 4.15625 35.296875 
Q 4.15625 48 6.765625 55.734375 
Q 9.375 63.484375 14.515625 67.671875 
Q 19.671875 71.875 27.484375 71.875 
Q 33.25 71.875 37.59375 69.546875 
Q 41.9375 67.234375 44.765625 62.859375 
Q 47.609375 58.5 49.21875 52.21875 
Q 50.828125 45.953125 50.828125 35.296875 
Q 50.828125 22.703125 48.234375 14.96875 
Q 45.65625 7.234375 40.5 3 
Q 35.359375 -1.21875 27.484375 -1.21875 
Q 17.140625 -1.21875 11.234375 6.203125 
Q 4.15625 15.140625 4.15625 35.296875 
z
M 13.1875 35.296875 
Q 13.1875 17.671875 17.3125 11.828125 
Q 21.4375 6 27.484375 6 
Q 33.546875 6 37.671875 11.859375 
Q 41.796875 17.71875 41.796875 35.296875 
Q 41.796875 52.984375 37.671875 58.78125 
Q 33.546875 64.59375 27.390625 64.59375 
Q 21.34375 64.59375 17.71875 59.46875 
Q 13.1875 52.9375 13.1875 35.296875 
z
" id="ArialMT-48"/>
       </defs>
       <use xlink:href="#ArialMT-48"/>
      </g>
     </g>
    </g>
    <g id="xtick_2">
     <g id="line2d_2">
      <path clip-path="url(#p2242d396e2)" d="M 164.542437 313.54 
L 164.542437 13.044662 
" style="fill:none;stroke:#ffffff;stroke-linecap:round;"/>
     </g>
     <g id="text_2">
      <!-- 100 -->
      <g style="fill:#262626;" transform="translate(155.36689 330.913594)scale(0.11 -0.11)">
       <defs>
        <path d="M 37.25 0 
L 28.46875 0 
L 28.46875 56 
Q 25.296875 52.984375 20.140625 49.953125 
Q 14.984375 46.921875 10.890625 45.40625 
L 10.890625 53.90625 
Q 18.265625 57.375 23.78125 62.296875 
Q 29.296875 67.234375 31.59375 71.875 
L 37.25 71.875 
z
" id="ArialMT-49"/>
       </defs>
       <use xlink:href="#ArialMT-49"/>
       <use x="55.615234" xlink:href="#ArialMT-48"/>
       <use x="111.230469" xlink:href="#ArialMT-48"/>
      </g>
     </g>
    </g>
    <g id="xtick_3">
     <g id="line2d_3">
      <path clip-path="url(#p2242d396e2)" d="M 246.377829 313.54 
L 246.377829 13.044662 
" style="fill:none;stroke:#ffffff;stroke-linecap:round;"/>
     </g>
     <g id="text_3">
      <!-- 200 -->
      <g style="fill:#262626;" transform="translate(237.202282 330.913594)scale(0.11 -0.11)">
       <defs>
        <path d="M 50.34375 8.453125 
L 50.34375 0 
L 3.03125 0 
Q 2.9375 3.171875 4.046875 6.109375 
Q 5.859375 10.9375 9.828125 15.625 
Q 13.8125 20.3125 21.34375 26.46875 
Q 33.015625 36.03125 37.109375 41.625 
Q 41.21875 47.21875 41.21875 52.203125 
Q 41.21875 57.421875 37.46875 61 
Q 33.734375 64.59375 27.734375 64.59375 
Q 21.390625 64.59375 17.578125 60.78125 
Q 13.765625 56.984375 13.71875 50.25 
L 4.6875 51.171875 
Q 5.609375 61.28125 11.65625 66.578125 
Q 17.71875 71.875 27.9375 71.875 
Q 38.234375 71.875 44.234375 66.15625 
Q 50.25 60.453125 50.25 52 
Q 50.25 47.703125 48.484375 43.546875 
Q 46.734375 39.40625 42.65625 34.8125 
Q 38.578125 30.21875 29.109375 22.21875 
Q 21.1875 15.578125 18.9375 13.203125 
Q 16.703125 10.84375 15.234375 8.453125 
z
" id="ArialMT-50"/>
       </defs>
       <use xlink:href="#ArialMT-50"/>
       <use x="55.615234" xlink:href="#ArialMT-48"/>
       <use x="111.230469" xlink:href="#ArialMT-48"/>
      </g>
     </g>
    </g>
    <g id="xtick_4">
     <g id="line2d_4">
      <path clip-path="url(#p2242d396e2)" d="M 328.213221 313.54 
L 328.213221 13.044662 
" style="fill:none;stroke:#ffffff;stroke-linecap:round;"/>
     </g>
     <g id="text_4">
      <!-- 300 -->
      <g style="fill:#262626;" transform="translate(319.037674 330.913594)scale(0.11 -0.11)">
       <defs>
        <path d="M 4.203125 18.890625 
L 12.984375 20.0625 
Q 14.5 12.59375 18.140625 9.296875 
Q 21.78125 6 27 6 
Q 33.203125 6 37.46875 10.296875 
Q 41.75 14.59375 41.75 20.953125 
Q 41.75 27 37.796875 30.921875 
Q 33.84375 34.859375 27.734375 34.859375 
Q 25.25 34.859375 21.53125 33.890625 
L 22.515625 41.609375 
Q 23.390625 41.5 23.921875 41.5 
Q 29.546875 41.5 34.03125 44.421875 
Q 38.53125 47.359375 38.53125 53.46875 
Q 38.53125 58.296875 35.25 61.46875 
Q 31.984375 64.65625 26.8125 64.65625 
Q 21.6875 64.65625 18.265625 61.421875 
Q 14.84375 58.203125 13.875 51.765625 
L 5.078125 53.328125 
Q 6.6875 62.15625 12.390625 67.015625 
Q 18.109375 71.875 26.609375 71.875 
Q 32.46875 71.875 37.390625 69.359375 
Q 42.328125 66.84375 44.9375 62.5 
Q 47.5625 58.15625 47.5625 53.265625 
Q 47.5625 48.640625 45.0625 44.828125 
Q 42.578125 41.015625 37.703125 38.765625 
Q 44.046875 37.3125 47.5625 32.6875 
Q 51.078125 28.078125 51.078125 21.140625 
Q 51.078125 11.765625 44.234375 5.25 
Q 37.40625 -1.265625 26.953125 -1.265625 
Q 17.53125 -1.265625 11.296875 4.34375 
Q 5.078125 9.96875 4.203125 18.890625 
z
" id="ArialMT-51"/>
       </defs>
       <use xlink:href="#ArialMT-51"/>
       <use x="55.615234" xlink:href="#ArialMT-48"/>
       <use x="111.230469" xlink:href="#ArialMT-48"/>
      </g>
     </g>
    </g>
    <g id="xtick_5">
     <g id="line2d_5">
      <path clip-path="url(#p2242d396e2)" d="M 410.048613 313.54 
L 410.048613 13.044662 
" style="fill:none;stroke:#ffffff;stroke-linecap:round;"/>
     </g>
     <g id="text_5">
      <!-- 400 -->
      <g style="fill:#262626;" transform="translate(400.873066 330.913594)scale(0.11 -0.11)">
       <defs>
        <path d="M 32.328125 0 
L 32.328125 17.140625 
L 1.265625 17.140625 
L 1.265625 25.203125 
L 33.9375 71.578125 
L 41.109375 71.578125 
L 41.109375 25.203125 
L 50.78125 25.203125 
L 50.78125 17.140625 
L 41.109375 17.140625 
L 41.109375 0 
z
M 32.328125 25.203125 
L 32.328125 57.46875 
L 9.90625 25.203125 
z
" id="ArialMT-52"/>
       </defs>
       <use xlink:href="#ArialMT-52"/>
       <use x="55.615234" xlink:href="#ArialMT-48"/>
       <use x="111.230469" xlink:href="#ArialMT-48"/>
      </g>
     </g>
    </g>
    <g id="text_6">
     <!-- Samples -->
     <g style="fill:#262626;" transform="translate(243.084688 345.835469)scale(0.12 -0.12)">
      <defs>
       <path d="M 4.5 23 
L 13.421875 23.78125 
Q 14.0625 18.40625 16.375 14.96875 
Q 18.703125 11.53125 23.578125 9.40625 
Q 28.46875 7.28125 34.578125 7.28125 
Q 39.984375 7.28125 44.140625 8.890625 
Q 48.296875 10.5 50.3125 13.296875 
Q 52.34375 16.109375 52.34375 19.4375 
Q 52.34375 22.796875 50.390625 25.3125 
Q 48.4375 27.828125 43.953125 29.546875 
Q 41.0625 30.671875 31.203125 33.03125 
Q 21.34375 35.40625 17.390625 37.5 
Q 12.25 40.1875 9.734375 44.15625 
Q 7.234375 48.140625 7.234375 53.078125 
Q 7.234375 58.5 10.296875 63.203125 
Q 13.375 67.921875 19.28125 70.359375 
Q 25.203125 72.796875 32.421875 72.796875 
Q 40.375 72.796875 46.453125 70.234375 
Q 52.546875 67.671875 55.8125 62.6875 
Q 59.078125 57.71875 59.328125 51.421875 
L 50.25 50.734375 
Q 49.515625 57.515625 45.28125 60.984375 
Q 41.0625 64.453125 32.8125 64.453125 
Q 24.21875 64.453125 20.28125 61.296875 
Q 16.359375 58.15625 16.359375 53.71875 
Q 16.359375 49.859375 19.140625 47.359375 
Q 21.875 44.875 33.421875 42.265625 
Q 44.96875 39.65625 49.265625 37.703125 
Q 55.515625 34.8125 58.484375 30.390625 
Q 61.46875 25.984375 61.46875 20.21875 
Q 61.46875 14.5 58.203125 9.4375 
Q 54.9375 4.390625 48.796875 1.578125 
Q 42.671875 -1.21875 35.015625 -1.21875 
Q 25.296875 -1.21875 18.71875 1.609375 
Q 12.15625 4.4375 8.421875 10.125 
Q 4.6875 15.828125 4.5 23 
z
" id="ArialMT-83"/>
       <path d="M 40.4375 6.390625 
Q 35.546875 2.25 31.03125 0.53125 
Q 26.515625 -1.171875 21.34375 -1.171875 
Q 12.796875 -1.171875 8.203125 3 
Q 3.609375 7.171875 3.609375 13.671875 
Q 3.609375 17.484375 5.34375 20.625 
Q 7.078125 23.78125 9.890625 25.6875 
Q 12.703125 27.59375 16.21875 28.5625 
Q 18.796875 29.25 24.03125 29.890625 
Q 34.671875 31.15625 39.703125 32.90625 
Q 39.75 34.71875 39.75 35.203125 
Q 39.75 40.578125 37.25 42.78125 
Q 33.890625 45.75 27.25 45.75 
Q 21.046875 45.75 18.09375 43.578125 
Q 15.140625 41.40625 13.71875 35.890625 
L 5.125 37.0625 
Q 6.296875 42.578125 8.984375 45.96875 
Q 11.671875 49.359375 16.75 51.1875 
Q 21.828125 53.03125 28.515625 53.03125 
Q 35.15625 53.03125 39.296875 51.46875 
Q 43.453125 49.90625 45.40625 47.53125 
Q 47.359375 45.171875 48.140625 41.546875 
Q 48.578125 39.3125 48.578125 33.453125 
L 48.578125 21.734375 
Q 48.578125 9.46875 49.140625 6.21875 
Q 49.703125 2.984375 51.375 0 
L 42.1875 0 
Q 40.828125 2.734375 40.4375 6.390625 
z
M 39.703125 26.03125 
Q 34.90625 24.078125 25.34375 22.703125 
Q 19.921875 21.921875 17.671875 20.9375 
Q 15.4375 19.96875 14.203125 18.09375 
Q 12.984375 16.21875 12.984375 13.921875 
Q 12.984375 10.40625 15.640625 8.0625 
Q 18.3125 5.71875 23.4375 5.71875 
Q 28.515625 5.71875 32.46875 7.9375 
Q 36.421875 10.15625 38.28125 14.015625 
Q 39.703125 17 39.703125 22.796875 
z
" id="ArialMT-97"/>
       <path d="M 6.59375 0 
L 6.59375 51.859375 
L 14.453125 51.859375 
L 14.453125 44.578125 
Q 16.890625 48.390625 20.9375 50.703125 
Q 25 53.03125 30.171875 53.03125 
Q 35.9375 53.03125 39.625 50.640625 
Q 43.3125 48.25 44.828125 43.953125 
Q 50.984375 53.03125 60.84375 53.03125 
Q 68.5625 53.03125 72.703125 48.75 
Q 76.859375 44.484375 76.859375 35.59375 
L 76.859375 0 
L 68.109375 0 
L 68.109375 32.671875 
Q 68.109375 37.9375 67.25 40.25 
Q 66.40625 42.578125 64.15625 43.984375 
Q 61.921875 45.40625 58.890625 45.40625 
Q 53.421875 45.40625 49.796875 41.765625 
Q 46.1875 38.140625 46.1875 30.125 
L 46.1875 0 
L 37.40625 0 
L 37.40625 33.6875 
Q 37.40625 39.546875 35.25 42.46875 
Q 33.109375 45.40625 28.21875 45.40625 
Q 24.515625 45.40625 21.359375 43.453125 
Q 18.21875 41.5 16.796875 37.734375 
Q 15.375 33.984375 15.375 26.90625 
L 15.375 0 
z
" id="ArialMT-109"/>
       <path d="M 6.59375 -19.875 
L 6.59375 51.859375 
L 14.59375 51.859375 
L 14.59375 45.125 
Q 17.4375 49.078125 21 51.046875 
Q 24.5625 53.03125 29.640625 53.03125 
Q 36.28125 53.03125 41.359375 49.609375 
Q 46.4375 46.1875 49.015625 39.953125 
Q 51.609375 33.734375 51.609375 26.3125 
Q 51.609375 18.359375 48.75 11.984375 
Q 45.90625 5.609375 40.453125 2.21875 
Q 35.015625 -1.171875 29 -1.171875 
Q 24.609375 -1.171875 21.109375 0.6875 
Q 17.625 2.546875 15.375 5.375 
L 15.375 -19.875 
z
M 14.546875 25.640625 
Q 14.546875 15.625 18.59375 10.84375 
Q 22.65625 6.0625 28.421875 6.0625 
Q 34.28125 6.0625 38.453125 11.015625 
Q 42.625 15.96875 42.625 26.375 
Q 42.625 36.28125 38.546875 41.203125 
Q 34.46875 46.140625 28.8125 46.140625 
Q 23.1875 46.140625 18.859375 40.890625 
Q 14.546875 35.640625 14.546875 25.640625 
z
" id="ArialMT-112"/>
       <path d="M 6.390625 0 
L 6.390625 71.578125 
L 15.1875 71.578125 
L 15.1875 0 
z
" id="ArialMT-108"/>
       <path d="M 42.09375 16.703125 
L 51.171875 15.578125 
Q 49.03125 7.625 43.21875 3.21875 
Q 37.40625 -1.171875 28.375 -1.171875 
Q 17 -1.171875 10.328125 5.828125 
Q 3.65625 12.84375 3.65625 25.484375 
Q 3.65625 38.578125 10.390625 45.796875 
Q 17.140625 53.03125 27.875 53.03125 
Q 38.28125 53.03125 44.875 45.953125 
Q 51.46875 38.875 51.46875 26.03125 
Q 51.46875 25.25 51.421875 23.6875 
L 12.75 23.6875 
Q 13.234375 15.140625 17.578125 10.59375 
Q 21.921875 6.0625 28.421875 6.0625 
Q 33.25 6.0625 36.671875 8.59375 
Q 40.09375 11.140625 42.09375 16.703125 
z
M 13.234375 30.90625 
L 42.1875 30.90625 
Q 41.609375 37.453125 38.875 40.71875 
Q 34.671875 45.796875 27.984375 45.796875 
Q 21.921875 45.796875 17.796875 41.75 
Q 13.671875 37.703125 13.234375 30.90625 
z
" id="ArialMT-101"/>
       <path d="M 3.078125 15.484375 
L 11.765625 16.84375 
Q 12.5 11.625 15.84375 8.84375 
Q 19.1875 6.0625 25.203125 6.0625 
Q 31.25 6.0625 34.171875 8.515625 
Q 37.109375 10.984375 37.109375 14.3125 
Q 37.109375 17.28125 34.515625 19 
Q 32.71875 20.171875 25.53125 21.96875 
Q 15.875 24.421875 12.140625 26.203125 
Q 8.40625 27.984375 6.46875 31.125 
Q 4.546875 34.28125 4.546875 38.09375 
Q 4.546875 41.546875 6.125 44.5 
Q 7.71875 47.46875 10.453125 49.421875 
Q 12.5 50.921875 16.03125 51.96875 
Q 19.578125 53.03125 23.640625 53.03125 
Q 29.734375 53.03125 34.34375 51.265625 
Q 38.96875 49.515625 41.15625 46.5 
Q 43.359375 43.5 44.1875 38.484375 
L 35.59375 37.3125 
Q 35.015625 41.3125 32.203125 43.546875 
Q 29.390625 45.796875 24.265625 45.796875 
Q 18.21875 45.796875 15.625 43.796875 
Q 13.03125 41.796875 13.03125 39.109375 
Q 13.03125 37.40625 14.109375 36.03125 
Q 15.1875 34.625 17.484375 33.6875 
Q 18.796875 33.203125 25.25 31.453125 
Q 34.578125 28.953125 38.25 27.359375 
Q 41.9375 25.78125 44.03125 22.75 
Q 46.140625 19.734375 46.140625 15.234375 
Q 46.140625 10.84375 43.578125 6.953125 
Q 41.015625 3.078125 36.171875 0.953125 
Q 31.34375 -1.171875 25.25 -1.171875 
Q 15.140625 -1.171875 9.84375 3.03125 
Q 4.546875 7.234375 3.078125 15.484375 
z
" id="ArialMT-115"/>
      </defs>
      <use xlink:href="#ArialMT-83"/>
      <use x="66.699219" xlink:href="#ArialMT-97"/>
      <use x="122.314453" xlink:href="#ArialMT-109"/>
      <use x="205.615234" xlink:href="#ArialMT-112"/>
      <use x="261.230469" xlink:href="#ArialMT-108"/>
      <use x="283.447266" xlink:href="#ArialMT-101"/>
      <use x="339.0625" xlink:href="#ArialMT-115"/>
     </g>
    </g>
   </g>
   <g id="matplotlib.axis_2">
    <g id="ytick_1">
     <g id="line2d_6">
      <path clip-path="url(#p2242d396e2)" d="M 64.335 308.150894 
L 468.52 308.150894 
" style="fill:none;stroke:#ffffff;stroke-linecap:round;"/>
     </g>
     <g id="text_7">
      <!-- −1.00 -->
      <g style="fill:#262626;" transform="translate(27.003281 312.087691)scale(0.11 -0.11)">
       <defs>
        <path d="M 52.828125 31.203125 
L 5.5625 31.203125 
L 5.5625 39.40625 
L 52.828125 39.40625 
z
" id="ArialMT-8722"/>
        <path d="M 9.078125 0 
L 9.078125 10.015625 
L 19.09375 10.015625 
L 19.09375 0 
z
" id="ArialMT-46"/>
       </defs>
       <use xlink:href="#ArialMT-8722"/>
       <use x="58.398438" xlink:href="#ArialMT-49"/>
       <use x="114.013672" xlink:href="#ArialMT-46"/>
       <use x="141.796875" xlink:href="#ArialMT-48"/>
       <use x="197.412109" xlink:href="#ArialMT-48"/>
      </g>
     </g>
    </g>
    <g id="ytick_2">
     <g id="line2d_7">
      <path clip-path="url(#p2242d396e2)" d="M 64.335 271.803703 
L 468.52 271.803703 
" style="fill:none;stroke:#ffffff;stroke-linecap:round;"/>
     </g>
     <g id="text_8">
      <!-- −0.75 -->
      <g style="fill:#262626;" transform="translate(27.003281 275.7405)scale(0.11 -0.11)">
       <defs>
        <path d="M 4.734375 62.203125 
L 4.734375 70.65625 
L 51.078125 70.65625 
L 51.078125 63.8125 
Q 44.234375 56.546875 37.515625 44.484375 
Q 30.8125 32.421875 27.15625 19.671875 
Q 24.515625 10.6875 23.78125 0 
L 14.75 0 
Q 14.890625 8.453125 18.0625 20.40625 
Q 21.234375 32.375 27.171875 43.484375 
Q 33.109375 54.59375 39.796875 62.203125 
z
" id="ArialMT-55"/>
        <path d="M 4.15625 18.75 
L 13.375 19.53125 
Q 14.40625 12.796875 18.140625 9.390625 
Q 21.875 6 27.15625 6 
Q 33.5 6 37.890625 10.78125 
Q 42.28125 15.578125 42.28125 23.484375 
Q 42.28125 31 38.0625 35.34375 
Q 33.84375 39.703125 27 39.703125 
Q 22.75 39.703125 19.328125 37.765625 
Q 15.921875 35.84375 13.96875 32.765625 
L 5.71875 33.84375 
L 12.640625 70.609375 
L 48.25 70.609375 
L 48.25 62.203125 
L 19.671875 62.203125 
L 15.828125 42.96875 
Q 22.265625 47.46875 29.34375 47.46875 
Q 38.71875 47.46875 45.15625 40.96875 
Q 51.609375 34.46875 51.609375 24.265625 
Q 51.609375 14.546875 45.953125 7.46875 
Q 39.0625 -1.21875 27.15625 -1.21875 
Q 17.390625 -1.21875 11.203125 4.25 
Q 5.03125 9.71875 4.15625 18.75 
z
" id="ArialMT-53"/>
       </defs>
       <use xlink:href="#ArialMT-8722"/>
       <use x="58.398438" xlink:href="#ArialMT-48"/>
       <use x="114.013672" xlink:href="#ArialMT-46"/>
       <use x="141.796875" xlink:href="#ArialMT-55"/>
       <use x="197.412109" xlink:href="#ArialMT-53"/>
      </g>
     </g>
    </g>
    <g id="ytick_3">
     <g id="line2d_8">
      <path clip-path="url(#p2242d396e2)" d="M 64.335 235.456511 
L 468.52 235.456511 
" style="fill:none;stroke:#ffffff;stroke-linecap:round;"/>
     </g>
     <g id="text_9">
      <!-- −0.50 -->
      <g style="fill:#262626;" transform="translate(27.003281 239.393308)scale(0.11 -0.11)">
       <use xlink:href="#ArialMT-8722"/>
       <use x="58.398438" xlink:href="#ArialMT-48"/>
       <use x="114.013672" xlink:href="#ArialMT-46"/>
       <use x="141.796875" xlink:href="#ArialMT-53"/>
       <use x="197.412109" xlink:href="#ArialMT-48"/>
      </g>
     </g>
    </g>
    <g id="ytick_4">
     <g id="line2d_9">
      <path clip-path="url(#p2242d396e2)" d="M 64.335 199.10932 
L 468.52 199.10932 
" style="fill:none;stroke:#ffffff;stroke-linecap:round;"/>
     </g>
     <g id="text_10">
      <!-- −0.25 -->
      <g style="fill:#262626;" transform="translate(27.003281 203.046117)scale(0.11 -0.11)">
       <use xlink:href="#ArialMT-8722"/>
       <use x="58.398438" xlink:href="#ArialMT-48"/>
       <use x="114.013672" xlink:href="#ArialMT-46"/>
       <use x="141.796875" xlink:href="#ArialMT-50"/>
       <use x="197.412109" xlink:href="#ArialMT-53"/>
      </g>
     </g>
    </g>
    <g id="ytick_5">
     <g id="line2d_10">
      <path clip-path="url(#p2242d396e2)" d="M 64.335 162.762128 
L 468.52 162.762128 
" style="fill:none;stroke:#ffffff;stroke-linecap:round;"/>
     </g>
     <g id="text_11">
      <!-- 0.00 -->
      <g style="fill:#262626;" transform="translate(33.427969 166.698925)scale(0.11 -0.11)">
       <use xlink:href="#ArialMT-48"/>
       <use x="55.615234" xlink:href="#ArialMT-46"/>
       <use x="83.398438" xlink:href="#ArialMT-48"/>
       <use x="139.013672" xlink:href="#ArialMT-48"/>
      </g>
     </g>
    </g>
    <g id="ytick_6">
     <g id="line2d_11">
      <path clip-path="url(#p2242d396e2)" d="M 64.335 126.414937 
L 468.52 126.414937 
" style="fill:none;stroke:#ffffff;stroke-linecap:round;"/>
     </g>
     <g id="text_12">
      <!-- 0.25 -->
      <g style="fill:#262626;" transform="translate(33.427969 130.351734)scale(0.11 -0.11)">
       <use xlink:href="#ArialMT-48"/>
       <use x="55.615234" xlink:href="#ArialMT-46"/>
       <use x="83.398438" xlink:href="#ArialMT-50"/>
       <use x="139.013672" xlink:href="#ArialMT-53"/>
      </g>
     </g>
    </g>
    <g id="ytick_7">
     <g id="line2d_12">
      <path clip-path="url(#p2242d396e2)" d="M 64.335 90.067746 
L 468.52 90.067746 
" style="fill:none;stroke:#ffffff;stroke-linecap:round;"/>
     </g>
     <g id="text_13">
      <!-- 0.50 -->
      <g style="fill:#262626;" transform="translate(33.427969 94.004542)scale(0.11 -0.11)">
       <use xlink:href="#ArialMT-48"/>
       <use x="55.615234" xlink:href="#ArialMT-46"/>
       <use x="83.398438" xlink:href="#ArialMT-53"/>
       <use x="139.013672" xlink:href="#ArialMT-48"/>
      </g>
     </g>
    </g>
    <g id="ytick_8">
     <g id="line2d_13">
      <path clip-path="url(#p2242d396e2)" d="M 64.335 53.720554 
L 468.52 53.720554 
" style="fill:none;stroke:#ffffff;stroke-linecap:round;"/>
     </g>
     <g id="text_14">
      <!-- 0.75 -->
      <g style="fill:#262626;" transform="translate(33.427969 57.657351)scale(0.11 -0.11)">
       <use xlink:href="#ArialMT-48"/>
       <use x="55.615234" xlink:href="#ArialMT-46"/>
       <use x="83.398438" xlink:href="#ArialMT-55"/>
       <use x="139.013672" xlink:href="#ArialMT-53"/>
      </g>
     </g>
    </g>
    <g id="ytick_9">
     <g id="line2d_14">
      <path clip-path="url(#p2242d396e2)" d="M 64.335 17.373363 
L 468.52 17.373363 
" style="fill:none;stroke:#ffffff;stroke-linecap:round;"/>
     </g>
     <g id="text_15">
      <!-- 1.00 -->
      <g style="fill:#262626;" transform="translate(33.427969 21.310159)scale(0.11 -0.11)">
       <use xlink:href="#ArialMT-49"/>
       <use x="55.615234" xlink:href="#ArialMT-46"/>
       <use x="83.398438" xlink:href="#ArialMT-48"/>
       <use x="139.013672" xlink:href="#ArialMT-48"/>
      </g>
     </g>
    </g>
    <g id="text_16">
     <!-- Current -->
     <g style="fill:#262626;" transform="translate(20.618281 183.297643)rotate(-90)scale(0.12 -0.12)">
      <defs>
       <path d="M 58.796875 25.09375 
L 68.265625 22.703125 
Q 65.28125 11.03125 57.546875 4.90625 
Q 49.8125 -1.21875 38.625 -1.21875 
Q 27.046875 -1.21875 19.796875 3.484375 
Q 12.546875 8.203125 8.765625 17.140625 
Q 4.984375 26.078125 4.984375 36.328125 
Q 4.984375 47.515625 9.25 55.828125 
Q 13.53125 64.15625 21.40625 68.46875 
Q 29.296875 72.796875 38.765625 72.796875 
Q 49.515625 72.796875 56.828125 67.328125 
Q 64.15625 61.859375 67.046875 51.953125 
L 57.71875 49.75 
Q 55.21875 57.5625 50.484375 61.125 
Q 45.75 64.703125 38.578125 64.703125 
Q 30.328125 64.703125 24.78125 60.734375 
Q 19.234375 56.78125 16.984375 50.109375 
Q 14.75 43.453125 14.75 36.375 
Q 14.75 27.25 17.40625 20.4375 
Q 20.0625 13.625 25.671875 10.25 
Q 31.296875 6.890625 37.84375 6.890625 
Q 45.796875 6.890625 51.3125 11.46875 
Q 56.84375 16.0625 58.796875 25.09375 
z
" id="ArialMT-67"/>
       <path d="M 40.578125 0 
L 40.578125 7.625 
Q 34.515625 -1.171875 24.125 -1.171875 
Q 19.53125 -1.171875 15.546875 0.578125 
Q 11.578125 2.34375 9.640625 5 
Q 7.71875 7.671875 6.9375 11.53125 
Q 6.390625 14.109375 6.390625 19.734375 
L 6.390625 51.859375 
L 15.1875 51.859375 
L 15.1875 23.09375 
Q 15.1875 16.21875 15.71875 13.8125 
Q 16.546875 10.359375 19.234375 8.375 
Q 21.921875 6.390625 25.875 6.390625 
Q 29.828125 6.390625 33.296875 8.421875 
Q 36.765625 10.453125 38.203125 13.9375 
Q 39.65625 17.4375 39.65625 24.078125 
L 39.65625 51.859375 
L 48.4375 51.859375 
L 48.4375 0 
z
" id="ArialMT-117"/>
       <path d="M 6.5 0 
L 6.5 51.859375 
L 14.40625 51.859375 
L 14.40625 44 
Q 17.4375 49.515625 20 51.265625 
Q 22.5625 53.03125 25.640625 53.03125 
Q 30.078125 53.03125 34.671875 50.203125 
L 31.640625 42.046875 
Q 28.421875 43.953125 25.203125 43.953125 
Q 22.3125 43.953125 20.015625 42.21875 
Q 17.71875 40.484375 16.75 37.40625 
Q 15.28125 32.71875 15.28125 27.15625 
L 15.28125 0 
z
" id="ArialMT-114"/>
       <path d="M 6.59375 0 
L 6.59375 51.859375 
L 14.5 51.859375 
L 14.5 44.484375 
Q 20.21875 53.03125 31 53.03125 
Q 35.6875 53.03125 39.625 51.34375 
Q 43.5625 49.65625 45.515625 46.921875 
Q 47.46875 44.1875 48.25 40.4375 
Q 48.734375 37.984375 48.734375 31.890625 
L 48.734375 0 
L 39.9375 0 
L 39.9375 31.546875 
Q 39.9375 36.921875 38.90625 39.578125 
Q 37.890625 42.234375 35.28125 43.8125 
Q 32.671875 45.40625 29.15625 45.40625 
Q 23.53125 45.40625 19.453125 41.84375 
Q 15.375 38.28125 15.375 28.328125 
L 15.375 0 
z
" id="ArialMT-110"/>
       <path d="M 25.78125 7.859375 
L 27.046875 0.09375 
Q 23.34375 -0.6875 20.40625 -0.6875 
Q 15.625 -0.6875 12.984375 0.828125 
Q 10.359375 2.34375 9.28125 4.8125 
Q 8.203125 7.28125 8.203125 15.1875 
L 8.203125 45.015625 
L 1.765625 45.015625 
L 1.765625 51.859375 
L 8.203125 51.859375 
L 8.203125 64.703125 
L 16.9375 69.96875 
L 16.9375 51.859375 
L 25.78125 51.859375 
L 25.78125 45.015625 
L 16.9375 45.015625 
L 16.9375 14.703125 
Q 16.9375 10.9375 17.40625 9.859375 
Q 17.875 8.796875 18.921875 8.15625 
Q 19.96875 7.515625 21.921875 7.515625 
Q 23.390625 7.515625 25.78125 7.859375 
z
" id="ArialMT-116"/>
      </defs>
      <use xlink:href="#ArialMT-67"/>
      <use x="72.216797" xlink:href="#ArialMT-117"/>
      <use x="127.832031" xlink:href="#ArialMT-114"/>
      <use x="161.132812" xlink:href="#ArialMT-114"/>
      <use x="194.433594" xlink:href="#ArialMT-101"/>
      <use x="250.048828" xlink:href="#ArialMT-110"/>
      <use x="305.664062" xlink:href="#ArialMT-116"/>
     </g>
    </g>
   </g>
   <g id="line2d_15">
    <path clip-path="url(#p2242d396e2)" d="M 82.707045 164.13512 
L 83.525399 162.553982 
L 84.343753 162.553982 
L 85.162107 159.447913 
L 86.798815 159.37297 
L 87.617169 157.127728 
L 88.435523 156.257532 
L 89.253877 156.257532 
L 90.072231 154.779441 
L 90.890585 150.821911 
L 91.708939 149.998555 
L 92.527292 144.572302 
L 93.345646 143.795785 
L 94.164 139.885095 
L 94.982354 134.412003 
L 95.800708 132.802759 
L 96.619062 129.677955 
L 97.437416 128.134288 
L 98.25577 128.115553 
L 99.074124 121.865944 
L 99.892478 112.444688 
L 101.529186 109.282413 
L 102.347539 98.317492 
L 103.165893 92.03978 
L 103.984247 88.914971 
L 104.802601 81.046756 
L 106.439309 71.653603 
L 107.257663 68.500691 
L 108.076017 55.19685 
L 108.894371 54.392235 
L 109.712725 54.3735 
L 110.531079 52.8111 
L 111.349433 46.542747 
L 112.167786 34.043529 
L 118.714618 34.062265 
L 119.532972 54.504648 
L 120.351326 71.803488 
L 121.16968 85.968159 
L 122.806387 107.205794 
L 123.624741 107.963575 
L 125.261449 122.156345 
L 126.079803 124.532737 
L 127.716511 134.76798 
L 128.534865 137.902155 
L 129.353219 151.290306 
L 130.171573 152.066823 
L 130.989927 153.657328 
L 132.626634 153.74164 
L 133.444988 158.438215 
L 134.263342 161.534916 
L 135.081696 161.534916 
L 135.90005 163.18163 
L 136.718404 163.18163 
L 137.536758 163.948779 
L 138.355112 163.948779 
L 139.173466 166.268963 
L 139.99182 166.268963 
L 140.810174 167.94378 
L 142.446881 167.94378 
L 143.265235 169.496815 
L 144.083589 172.62162 
L 144.901943 184.475473 
L 145.720297 186.842495 
L 147.357005 189.967301 
L 148.175359 193.167048 
L 148.993713 193.934198 
L 149.812067 196.319957 
L 150.630421 201.044637 
L 151.448775 204.160074 
L 152.267128 209.717476 
L 153.085482 221.487016 
L 153.903836 223.09626 
L 154.72219 227.783468 
L 155.540544 229.373972 
L 156.358898 239.618587 
L 157.995606 256.917426 
L 158.81396 258.498562 
L 159.632314 267.171401 
L 160.450668 269.510321 
L 161.269022 273.449113 
L 162.087375 278.192528 
L 162.905729 287.613784 
L 163.724083 292.347832 
L 164.542437 292.3572 
L 165.360791 297.100615 
L 171.089269 297.100615 
L 171.907622 268.874326 
L 172.725976 264.149647 
L 173.54433 242.163599 
L 175.181038 229.60817 
L 175.999392 228.812919 
L 176.817746 213.123318 
L 177.6361 210.77503 
L 178.454454 204.506686 
L 179.272808 200.56789 
L 180.091162 193.51366 
L 180.909516 191.151504 
L 181.72787 179.354229 
L 182.546223 177.786958 
L 183.364577 171.486379 
L 184.182931 169.133223 
L 185.001285 162.033261 
L 185.819639 160.479488 
L 189.093055 160.425496 
L 189.911409 158.081338 
L 190.729763 157.31345 
L 191.548117 157.290954 
L 193.184824 154.129417 
L 194.003178 154.129417 
L 194.821532 153.370527 
L 195.639886 151.017371 
L 196.45824 150.990375 
L 197.276594 143.894912 
L 198.094948 141.550755 
L 198.913302 141.541756 
L 200.55001 138.402716 
L 201.368364 128.168211 
L 202.186717 127.386825 
L 203.823425 117.929207 
L 204.641779 116.366434 
L 205.460133 112.419011 
L 206.278487 106.922317 
L 207.096841 103.787772 
L 207.915195 83.33226 
L 208.733549 81.76499 
L 209.551903 81.755995 
L 210.370257 72.320873 
L 211.188611 67.601064 
L 212.825318 55.013403 
L 213.643672 51.874356 
L 214.462026 44.787896 
L 215.28038 43.220625 
L 216.098734 43.21163 
L 216.917088 26.703541 
L 222.645565 26.703541 
L 223.463919 33.740511 
L 224.282273 52.597252 
L 225.100627 75.383427 
L 225.918981 87.162703 
L 227.555689 95.017057 
L 228.374043 116.226957 
L 229.192397 116.231459 
L 230.010751 117.008343 
L 230.829105 119.361502 
L 231.647458 131.922164 
L 233.284166 133.502934 
L 234.10252 153.132065 
L 234.920874 153.92245 
L 235.739228 157.047994 
L 236.557582 157.052493 
L 237.375936 159.40115 
L 238.19429 160.15554 
L 239.830998 160.169038 
L 240.649352 161.772303 
L 241.467706 166.469617 
L 242.286059 166.469617 
L 243.104413 168.02339 
L 244.741121 169.568165 
L 245.559475 171.148934 
L 247.196183 171.148934 
L 248.014537 175.055863 
L 248.832891 177.40452 
L 249.651245 178.217401 
L 250.469599 182.124329 
L 252.106306 185.276869 
L 252.92466 195.461883 
L 253.743014 195.47088 
L 254.561368 196.243267 
L 255.379722 199.404804 
L 256.198076 207.236661 
L 257.01643 216.653784 
L 257.834784 216.671783 
L 259.471492 222.949867 
L 260.289846 232.36699 
L 261.1082 239.430954 
L 261.926553 241.784113 
L 262.744907 246.50842 
L 263.563261 256.711431 
L 264.381615 259.850477 
L 265.199969 266.918939 
L 266.018323 269.2676 
L 266.836677 274.759796 
L 267.655031 276.336061 
L 268.473385 282.632145 
L 269.291739 295.9472 
L 270.110093 299.881121 
L 275.020216 299.881121 
L 275.83857 295.9472 
L 276.656924 258.997099 
L 277.475278 254.27729 
L 278.293632 243.261397 
L 279.111986 235.407047 
L 279.93034 234.62566 
L 280.748694 213.393264 
L 283.203755 208.673454 
L 284.022109 196.871679 
L 284.840463 196.081294 
L 285.658817 196.080254 
L 286.477171 178.789739 
L 287.295525 174.072346 
L 288.932233 170.927764 
L 289.750587 163.846471 
L 290.568941 161.495061 
L 291.387294 159.92225 
L 293.024002 159.912882 
L 293.842356 159.132201 
L 294.66071 159.129078 
L 295.479064 158.347357 
L 296.297418 158.347357 
L 297.115772 155.205898 
L 297.934126 155.195489 
L 298.75248 152.057153 
L 300.389188 152.052989 
L 302.025895 142.617163 
L 302.844249 142.616121 
L 303.662603 139.474663 
L 304.480957 137.903933 
L 305.299311 133.182378 
L 306.117665 131.609566 
L 306.936019 126.896338 
L 307.754373 126.111494 
L 308.572727 115.890822 
L 309.391081 115.889782 
L 310.209435 103.313538 
L 311.846142 95.453642 
L 312.664496 93.094946 
L 313.48285 82.090471 
L 314.301204 74.230583 
L 315.119558 71.871887 
L 315.937912 70.303239 
L 317.57462 46.72148 
L 318.392974 46.717311 
L 319.211328 45.146584 
L 320.029682 39.647472 
L 320.848036 36.499768 
L 328.213221 36.496648 
L 329.031575 59.281072 
L 329.849929 65.567112 
L 330.668283 85.999079 
L 331.486636 100.142935 
L 332.30499 100.143975 
L 333.123344 117.430327 
L 333.941698 122.146679 
L 334.760052 124.501211 
L 335.578406 125.288134 
L 336.39676 131.573136 
L 337.215114 142.573446 
L 338.033468 144.146258 
L 338.851822 153.573757 
L 339.670176 155.143445 
L 340.48853 155.932453 
L 341.306883 159.852511 
L 342.125237 162.999174 
L 343.761945 162.999174 
L 344.580299 164.569904 
L 345.398653 164.575108 
L 346.217007 166.133347 
L 350.308777 166.134388 
L 351.12713 167.709281 
L 351.945484 167.709281 
L 352.763838 168.486839 
L 353.582192 168.486839 
L 354.400546 169.275847 
L 355.2189 184.199338 
L 356.037254 184.989386 
L 356.855608 191.273346 
L 357.673962 192.843034 
L 358.492316 192.847198 
L 359.31067 193.632042 
L 360.129024 196.771418 
L 360.947378 211.701153 
L 361.765731 212.485997 
L 362.584085 214.842613 
L 363.402439 214.845737 
L 364.220793 232.131045 
L 365.039147 235.273545 
L 365.857501 239.200893 
L 366.675855 247.844589 
L 367.494209 247.846669 
L 368.312563 259.631821 
L 369.130917 269.061405 
L 369.949271 269.845204 
L 370.767625 277.701981 
L 371.585978 282.416244 
L 372.404332 283.99218 
L 373.222686 291.848948 
L 374.04104 294.989372 
L 374.859394 296.552812 
L 380.587872 296.552812 
L 381.406225 262.758709 
L 382.224579 252.541166 
L 383.042933 240.751846 
L 383.861287 237.606222 
L 384.679641 232.106066 
L 385.497995 210.098158 
L 386.316349 210.097118 
L 387.134703 205.383886 
L 387.953057 203.808994 
L 389.589765 197.520873 
L 390.408119 181.808173 
L 391.226472 177.874214 
L 392.044826 174.732184 
L 392.86318 172.379062 
L 393.681534 166.101046 
L 394.499888 166.101046 
L 395.318242 162.955995 
L 396.95495 162.951462 
L 397.773304 161.394801 
L 398.591658 162.182197 
L 399.410012 161.394801 
L 400.228366 159.826052 
L 401.046719 159.826052 
L 401.865073 159.025058 
L 402.683427 159.025058 
L 403.501781 156.684023 
L 404.320135 156.674957 
L 405.138489 153.528395 
L 405.956843 151.973245 
L 406.775197 151.961157 
L 408.411905 142.541112 
L 409.230259 140.975386 
L 410.048613 140.972364 
L 410.866966 137.830334 
L 411.68532 125.259195 
L 412.503674 117.403363 
L 413.322028 115.830083 
L 414.140382 112.689563 
L 414.958736 106.403991 
L 417.413798 96.976392 
L 418.232152 85.978532 
L 419.050506 76.5464 
L 419.86886 74.193277 
L 420.687214 74.191769 
L 421.505567 52.975889 
L 422.323921 46.69485 
L 423.142275 46.693342 
L 423.960629 40.403238 
L 424.778983 37.26121 
L 425.597337 35.693974 
L 426.415691 30.204863 
L 427.234045 29.414443 
L 432.144168 29.414443 
L 432.962522 30.204863 
L 433.780876 67.144486 
L 434.59923 69.50365 
L 435.417584 87.583542 
L 436.235938 90.724062 
L 437.054292 101.727966 
L 437.872646 108.806978 
L 438.691 113.519266 
L 439.509354 119.810878 
L 440.327708 128.457128 
L 441.146061 130.024366 
L 441.964415 134.74572 
L 442.782769 140.248428 
L 443.601123 147.322905 
L 445.237831 153.614519 
L 446.056185 158.334362 
L 446.874539 161.476392 
L 448.511247 161.483947 
L 449.329601 163.04363 
L 450.147955 166.194725 
L 450.147955 166.194725 
" style="fill:none;stroke:#4c72b0;stroke-linecap:round;stroke-width:1.5;"/>
   </g>
   <g id="line2d_16">
    <path clip-path="url(#p2242d396e2)" d="M 82.707045 313.54 
L 82.707045 13.044662 
" style="fill:none;stroke:#ff0000;stroke-dasharray:5.55,2.4;stroke-dashoffset:0;stroke-width:1.5;"/>
   </g>
   <g id="line2d_17">
    <path clip-path="url(#p2242d396e2)" d="M 187.456347 313.54 
L 187.456347 13.044662 
" style="fill:none;stroke:#ff0000;stroke-dasharray:5.55,2.4;stroke-dashoffset:0;stroke-width:1.5;"/>
   </g>
   <g id="line2d_18">
    <path clip-path="url(#p2242d396e2)" d="M 292.205648 313.54 
L 292.205648 13.044662 
" style="fill:none;stroke:#ff0000;stroke-dasharray:5.55,2.4;stroke-dashoffset:0;stroke-width:1.5;"/>
   </g>
   <g id="line2d_19">
    <path clip-path="url(#p2242d396e2)" d="M 396.95495 313.54 
L 396.95495 13.044662 
" style="fill:none;stroke:#ff0000;stroke-dasharray:5.55,2.4;stroke-dashoffset:0;stroke-width:1.5;"/>
   </g>
   <g id="patch_3">
    <path d="M 64.335 313.54 
L 64.335 13.044662 
" style="fill:none;stroke:#ffffff;stroke-linecap:square;stroke-linejoin:miter;stroke-width:1.25;"/>
   </g>
   <g id="patch_4">
    <path d="M 468.52 313.54 
L 468.52 13.044662 
" style="fill:none;stroke:#ffffff;stroke-linecap:square;stroke-linejoin:miter;stroke-width:1.25;"/>
   </g>
   <g id="patch_5">
    <path d="M 64.335 313.54 
L 468.52 313.54 
" style="fill:none;stroke:#ffffff;stroke-linecap:square;stroke-linejoin:miter;stroke-width:1.25;"/>
   </g>
   <g id="patch_6">
    <path d="M 64.335 13.044662 
L 468.52 13.044662 
" style="fill:none;stroke:#ffffff;stroke-linecap:square;stroke-linejoin:miter;stroke-width:1.25;"/>
   </g>
  </g>
  <g id="axes_2">
   <g id="patch_7">
    <path d="M 518.855 313.54 
L 923.04 313.54 
L 923.04 13.044662 
L 518.855 13.044662 
z
" style="fill:#eaeaf2;"/>
   </g>
   <g id="matplotlib.axis_3">
    <g id="xtick_6">
     <g id="line2d_20">
      <path clip-path="url(#p596c95b68a)" d="M 537.227045 313.54 
L 537.227045 13.044662 
" style="fill:none;stroke:#ffffff;stroke-linecap:round;"/>
     </g>
     <g id="text_17">
      <!-- 0 -->
      <g style="fill:#262626;" transform="translate(534.16853 330.913594)scale(0.11 -0.11)">
       <use xlink:href="#ArialMT-48"/>
      </g>
     </g>
    </g>
    <g id="xtick_7">
     <g id="line2d_21">
      <path clip-path="url(#p596c95b68a)" d="M 595.091756 313.54 
L 595.091756 13.044662 
" style="fill:none;stroke:#ffffff;stroke-linecap:round;"/>
     </g>
     <g id="text_18">
      <!-- 20 -->
      <g style="fill:#262626;" transform="translate(588.974724 330.913594)scale(0.11 -0.11)">
       <use xlink:href="#ArialMT-50"/>
       <use x="55.615234" xlink:href="#ArialMT-48"/>
      </g>
     </g>
    </g>
    <g id="xtick_8">
     <g id="line2d_22">
      <path clip-path="url(#p596c95b68a)" d="M 652.956466 313.54 
L 652.956466 13.044662 
" style="fill:none;stroke:#ffffff;stroke-linecap:round;"/>
     </g>
     <g id="text_19">
      <!-- 40 -->
      <g style="fill:#262626;" transform="translate(646.839434 330.913594)scale(0.11 -0.11)">
       <use xlink:href="#ArialMT-52"/>
       <use x="55.615234" xlink:href="#ArialMT-48"/>
      </g>
     </g>
    </g>
    <g id="xtick_9">
     <g id="line2d_23">
      <path clip-path="url(#p596c95b68a)" d="M 710.821176 313.54 
L 710.821176 13.044662 
" style="fill:none;stroke:#ffffff;stroke-linecap:round;"/>
     </g>
     <g id="text_20">
      <!-- 60 -->
      <g style="fill:#262626;" transform="translate(704.704144 330.913594)scale(0.11 -0.11)">
       <defs>
        <path d="M 49.75 54.046875 
L 41.015625 53.375 
Q 39.84375 58.546875 37.703125 60.890625 
Q 34.125 64.65625 28.90625 64.65625 
Q 24.703125 64.65625 21.53125 62.3125 
Q 17.390625 59.28125 14.984375 53.46875 
Q 12.59375 47.65625 12.5 36.921875 
Q 15.671875 41.75 20.265625 44.09375 
Q 24.859375 46.4375 29.890625 46.4375 
Q 38.671875 46.4375 44.84375 39.96875 
Q 51.03125 33.5 51.03125 23.25 
Q 51.03125 16.5 48.125 10.71875 
Q 45.21875 4.9375 40.140625 1.859375 
Q 35.0625 -1.21875 28.609375 -1.21875 
Q 17.625 -1.21875 10.6875 6.859375 
Q 3.765625 14.9375 3.765625 33.5 
Q 3.765625 54.25 11.421875 63.671875 
Q 18.109375 71.875 29.4375 71.875 
Q 37.890625 71.875 43.28125 67.140625 
Q 48.6875 62.40625 49.75 54.046875 
z
M 13.875 23.1875 
Q 13.875 18.65625 15.796875 14.5 
Q 17.71875 10.359375 21.1875 8.171875 
Q 24.65625 6 28.46875 6 
Q 34.03125 6 38.03125 10.484375 
Q 42.046875 14.984375 42.046875 22.703125 
Q 42.046875 30.125 38.078125 34.390625 
Q 34.125 38.671875 28.125 38.671875 
Q 22.171875 38.671875 18.015625 34.390625 
Q 13.875 30.125 13.875 23.1875 
z
" id="ArialMT-54"/>
       </defs>
       <use xlink:href="#ArialMT-54"/>
       <use x="55.615234" xlink:href="#ArialMT-48"/>
      </g>
     </g>
    </g>
    <g id="xtick_10">
     <g id="line2d_24">
      <path clip-path="url(#p596c95b68a)" d="M 768.685886 313.54 
L 768.685886 13.044662 
" style="fill:none;stroke:#ffffff;stroke-linecap:round;"/>
     </g>
     <g id="text_21">
      <!-- 80 -->
      <g style="fill:#262626;" transform="translate(762.568855 330.913594)scale(0.11 -0.11)">
       <defs>
        <path d="M 17.671875 38.8125 
Q 12.203125 40.828125 9.5625 44.53125 
Q 6.9375 48.25 6.9375 53.421875 
Q 6.9375 61.234375 12.546875 66.546875 
Q 18.171875 71.875 27.484375 71.875 
Q 36.859375 71.875 42.578125 66.421875 
Q 48.296875 60.984375 48.296875 53.171875 
Q 48.296875 48.1875 45.671875 44.5 
Q 43.0625 40.828125 37.75 38.8125 
Q 44.34375 36.671875 47.78125 31.875 
Q 51.21875 27.09375 51.21875 20.453125 
Q 51.21875 11.28125 44.71875 5.03125 
Q 38.234375 -1.21875 27.640625 -1.21875 
Q 17.046875 -1.21875 10.546875 5.046875 
Q 4.046875 11.328125 4.046875 20.703125 
Q 4.046875 27.6875 7.59375 32.390625 
Q 11.140625 37.109375 17.671875 38.8125 
z
M 15.921875 53.71875 
Q 15.921875 48.640625 19.1875 45.40625 
Q 22.46875 42.1875 27.6875 42.1875 
Q 32.765625 42.1875 36.015625 45.375 
Q 39.265625 48.578125 39.265625 53.21875 
Q 39.265625 58.0625 35.90625 61.359375 
Q 32.5625 64.65625 27.59375 64.65625 
Q 22.5625 64.65625 19.234375 61.421875 
Q 15.921875 58.203125 15.921875 53.71875 
z
M 13.09375 20.65625 
Q 13.09375 16.890625 14.875 13.375 
Q 16.65625 9.859375 20.171875 7.921875 
Q 23.6875 6 27.734375 6 
Q 34.03125 6 38.125 10.046875 
Q 42.234375 14.109375 42.234375 20.359375 
Q 42.234375 26.703125 38.015625 30.859375 
Q 33.796875 35.015625 27.4375 35.015625 
Q 21.234375 35.015625 17.15625 30.90625 
Q 13.09375 26.8125 13.09375 20.65625 
z
" id="ArialMT-56"/>
       </defs>
       <use xlink:href="#ArialMT-56"/>
       <use x="55.615234" xlink:href="#ArialMT-48"/>
      </g>
     </g>
    </g>
    <g id="xtick_11">
     <g id="line2d_25">
      <path clip-path="url(#p596c95b68a)" d="M 826.550596 313.54 
L 826.550596 13.044662 
" style="fill:none;stroke:#ffffff;stroke-linecap:round;"/>
     </g>
     <g id="text_22">
      <!-- 100 -->
      <g style="fill:#262626;" transform="translate(817.375049 330.913594)scale(0.11 -0.11)">
       <use xlink:href="#ArialMT-49"/>
       <use x="55.615234" xlink:href="#ArialMT-48"/>
       <use x="111.230469" xlink:href="#ArialMT-48"/>
      </g>
     </g>
    </g>
    <g id="xtick_12">
     <g id="line2d_26">
      <path clip-path="url(#p596c95b68a)" d="M 884.415306 313.54 
L 884.415306 13.044662 
" style="fill:none;stroke:#ffffff;stroke-linecap:round;"/>
     </g>
     <g id="text_23">
      <!-- 120 -->
      <g style="fill:#262626;" transform="translate(875.239759 330.913594)scale(0.11 -0.11)">
       <use xlink:href="#ArialMT-49"/>
       <use x="55.615234" xlink:href="#ArialMT-50"/>
       <use x="111.230469" xlink:href="#ArialMT-48"/>
      </g>
     </g>
    </g>
    <g id="text_24">
     <!-- Samples -->
     <g style="fill:#262626;" transform="translate(697.604687 345.835469)scale(0.12 -0.12)">
      <use xlink:href="#ArialMT-83"/>
      <use x="66.699219" xlink:href="#ArialMT-97"/>
      <use x="122.314453" xlink:href="#ArialMT-109"/>
      <use x="205.615234" xlink:href="#ArialMT-112"/>
      <use x="261.230469" xlink:href="#ArialMT-108"/>
      <use x="283.447266" xlink:href="#ArialMT-101"/>
      <use x="339.0625" xlink:href="#ArialMT-115"/>
     </g>
    </g>
   </g>
   <g id="matplotlib.axis_4">
    <g id="ytick_10">
     <g id="line2d_27">
      <path clip-path="url(#p596c95b68a)" d="M 518.855 299.891605 
L 923.04 299.891605 
" style="fill:none;stroke:#ffffff;stroke-linecap:round;"/>
     </g>
     <g id="text_25">
      <!-- −1.00 -->
      <g style="fill:#262626;" transform="translate(481.523281 303.828402)scale(0.11 -0.11)">
       <use xlink:href="#ArialMT-8722"/>
       <use x="58.398438" xlink:href="#ArialMT-49"/>
       <use x="114.013672" xlink:href="#ArialMT-46"/>
       <use x="141.796875" xlink:href="#ArialMT-48"/>
       <use x="197.412109" xlink:href="#ArialMT-48"/>
      </g>
     </g>
    </g>
    <g id="ytick_11">
     <g id="line2d_28">
      <path clip-path="url(#p596c95b68a)" d="M 518.855 265.739404 
L 923.04 265.739404 
" style="fill:none;stroke:#ffffff;stroke-linecap:round;"/>
     </g>
     <g id="text_26">
      <!-- −0.75 -->
      <g style="fill:#262626;" transform="translate(481.523281 269.676201)scale(0.11 -0.11)">
       <use xlink:href="#ArialMT-8722"/>
       <use x="58.398438" xlink:href="#ArialMT-48"/>
       <use x="114.013672" xlink:href="#ArialMT-46"/>
       <use x="141.796875" xlink:href="#ArialMT-55"/>
       <use x="197.412109" xlink:href="#ArialMT-53"/>
      </g>
     </g>
    </g>
    <g id="ytick_12">
     <g id="line2d_29">
      <path clip-path="url(#p596c95b68a)" d="M 518.855 231.587204 
L 923.04 231.587204 
" style="fill:none;stroke:#ffffff;stroke-linecap:round;"/>
     </g>
     <g id="text_27">
      <!-- −0.50 -->
      <g style="fill:#262626;" transform="translate(481.523281 235.524001)scale(0.11 -0.11)">
       <use xlink:href="#ArialMT-8722"/>
       <use x="58.398438" xlink:href="#ArialMT-48"/>
       <use x="114.013672" xlink:href="#ArialMT-46"/>
       <use x="141.796875" xlink:href="#ArialMT-53"/>
       <use x="197.412109" xlink:href="#ArialMT-48"/>
      </g>
     </g>
    </g>
    <g id="ytick_13">
     <g id="line2d_30">
      <path clip-path="url(#p596c95b68a)" d="M 518.855 197.435003 
L 923.04 197.435003 
" style="fill:none;stroke:#ffffff;stroke-linecap:round;"/>
     </g>
     <g id="text_28">
      <!-- −0.25 -->
      <g style="fill:#262626;" transform="translate(481.523281 201.3718)scale(0.11 -0.11)">
       <use xlink:href="#ArialMT-8722"/>
       <use x="58.398438" xlink:href="#ArialMT-48"/>
       <use x="114.013672" xlink:href="#ArialMT-46"/>
       <use x="141.796875" xlink:href="#ArialMT-50"/>
       <use x="197.412109" xlink:href="#ArialMT-53"/>
      </g>
     </g>
    </g>
    <g id="ytick_14">
     <g id="line2d_31">
      <path clip-path="url(#p596c95b68a)" d="M 518.855 163.282803 
L 923.04 163.282803 
" style="fill:none;stroke:#ffffff;stroke-linecap:round;"/>
     </g>
     <g id="text_29">
      <!-- 0.00 -->
      <g style="fill:#262626;" transform="translate(487.947969 167.2196)scale(0.11 -0.11)">
       <use xlink:href="#ArialMT-48"/>
       <use x="55.615234" xlink:href="#ArialMT-46"/>
       <use x="83.398438" xlink:href="#ArialMT-48"/>
       <use x="139.013672" xlink:href="#ArialMT-48"/>
      </g>
     </g>
    </g>
    <g id="ytick_15">
     <g id="line2d_32">
      <path clip-path="url(#p596c95b68a)" d="M 518.855 129.130602 
L 923.04 129.130602 
" style="fill:none;stroke:#ffffff;stroke-linecap:round;"/>
     </g>
     <g id="text_30">
      <!-- 0.25 -->
      <g style="fill:#262626;" transform="translate(487.947969 133.067399)scale(0.11 -0.11)">
       <use xlink:href="#ArialMT-48"/>
       <use x="55.615234" xlink:href="#ArialMT-46"/>
       <use x="83.398438" xlink:href="#ArialMT-50"/>
       <use x="139.013672" xlink:href="#ArialMT-53"/>
      </g>
     </g>
    </g>
    <g id="ytick_16">
     <g id="line2d_33">
      <path clip-path="url(#p596c95b68a)" d="M 518.855 94.978402 
L 923.04 94.978402 
" style="fill:none;stroke:#ffffff;stroke-linecap:round;"/>
     </g>
     <g id="text_31">
      <!-- 0.50 -->
      <g style="fill:#262626;" transform="translate(487.947969 98.915199)scale(0.11 -0.11)">
       <use xlink:href="#ArialMT-48"/>
       <use x="55.615234" xlink:href="#ArialMT-46"/>
       <use x="83.398438" xlink:href="#ArialMT-53"/>
       <use x="139.013672" xlink:href="#ArialMT-48"/>
      </g>
     </g>
    </g>
    <g id="ytick_17">
     <g id="line2d_34">
      <path clip-path="url(#p596c95b68a)" d="M 518.855 60.826201 
L 923.04 60.826201 
" style="fill:none;stroke:#ffffff;stroke-linecap:round;"/>
     </g>
     <g id="text_32">
      <!-- 0.75 -->
      <g style="fill:#262626;" transform="translate(487.947969 64.762998)scale(0.11 -0.11)">
       <use xlink:href="#ArialMT-48"/>
       <use x="55.615234" xlink:href="#ArialMT-46"/>
       <use x="83.398438" xlink:href="#ArialMT-55"/>
       <use x="139.013672" xlink:href="#ArialMT-53"/>
      </g>
     </g>
    </g>
    <g id="ytick_18">
     <g id="line2d_35">
      <path clip-path="url(#p596c95b68a)" d="M 518.855 26.674001 
L 923.04 26.674001 
" style="fill:none;stroke:#ffffff;stroke-linecap:round;"/>
     </g>
     <g id="text_33">
      <!-- 1.00 -->
      <g style="fill:#262626;" transform="translate(487.947969 30.610798)scale(0.11 -0.11)">
       <use xlink:href="#ArialMT-49"/>
       <use x="55.615234" xlink:href="#ArialMT-46"/>
       <use x="83.398438" xlink:href="#ArialMT-48"/>
       <use x="139.013672" xlink:href="#ArialMT-48"/>
      </g>
     </g>
    </g>
   </g>
   <g id="line2d_36">
    <path clip-path="url(#p596c95b68a)" d="M 537.227045 164.57288 
L 540.120281 163.087226 
L 543.013516 163.087226 
L 545.906752 160.168731 
L 551.693223 160.098314 
L 554.586458 157.988662 
L 557.479694 157.171016 
L 560.372929 157.171016 
L 563.266165 155.782187 
L 566.159401 152.06365 
L 569.052636 151.290016 
L 571.945872 146.191452 
L 574.839107 145.461829 
L 577.732343 141.787304 
L 580.625578 136.644729 
L 583.518814 135.132667 
L 586.412049 132.196568 
L 589.305285 130.746123 
L 592.19852 130.728519 
L 595.091756 124.856321 
L 597.984991 116.004011 
L 603.771462 113.032704 
L 606.664698 102.72995 
L 609.557933 96.831346 
L 612.451169 93.895243 
L 615.344404 86.502186 
L 621.130875 77.676282 
L 624.024111 74.713773 
L 626.917346 62.213345 
L 629.810582 61.45732 
L 632.703817 61.439716 
L 635.597053 59.971669 
L 638.490288 54.081859 
L 641.383524 42.337464 
L 664.529408 42.355068 
L 667.422643 61.562945 
L 670.315879 77.817115 
L 673.209114 91.126388 
L 676.10235 101.473152 
L 678.995585 111.081491 
L 681.888821 111.79351 
L 687.675292 125.129185 
L 690.568527 127.362068 
L 693.461763 132.522249 
L 696.354998 136.979209 
L 699.248234 139.924112 
L 702.141469 152.503758 
L 705.034705 153.233382 
L 707.92794 154.727838 
L 713.714411 154.807058 
L 716.607647 159.220009 
L 719.500882 162.129702 
L 722.394118 162.129702 
L 725.287353 163.676971 
L 728.180589 163.676971 
L 731.073824 164.397792 
L 733.96706 164.397792 
L 736.860295 166.577861 
L 739.753531 166.577861 
L 742.646766 168.151537 
L 748.433237 168.151537 
L 751.326473 169.610784 
L 754.219708 172.546884 
L 757.112944 183.684888 
L 760.006179 185.908966 
L 765.79265 188.845067 
L 768.685886 191.851582 
L 771.579121 192.572405 
L 774.472357 194.814089 
L 777.365592 199.253448 
L 780.258828 202.180744 
L 783.152063 207.402538 
L 786.045299 218.46132 
L 788.938534 219.973382 
L 791.83177 224.377532 
L 794.725005 225.871986 
L 797.618241 235.497934 
L 803.404712 251.752103 
L 806.297947 253.237755 
L 809.191183 261.386845 
L 812.084418 263.584519 
L 814.977654 267.285449 
L 817.870889 271.742411 
L 820.764125 280.594722 
L 823.65736 285.042882 
L 826.550596 285.051684 
L 829.443831 289.508647 
L 849.69648 289.508647 
L 852.589715 262.986931 
L 855.482951 258.547573 
L 858.376186 237.889253 
L 864.162657 226.092042 
L 867.055893 225.344815 
L 869.949128 210.602703 
L 872.842364 208.396226 
L 875.735599 202.506425 
L 878.628835 198.805491 
L 881.522071 192.177263 
L 884.415306 189.957757 
L 887.308542 178.872914 
L 890.201777 177.400289 
L 893.095013 171.480199 
L 895.988248 169.26915 
L 898.881484 162.597951 
L 901.774719 161.13801 
L 904.667955 161.133782 
L 904.667955 161.133782 
" style="fill:none;stroke:#4c72b0;stroke-linecap:round;stroke-width:1.5;"/>
   </g>
   <g id="line2d_37">
    <path clip-path="url(#p596c95b68a)" d="M 537.227045 163.282803 
L 540.120281 156.455208 
L 543.013516 149.644679 
L 545.906752 142.868239 
L 548.799987 136.142824 
L 551.693223 129.485244 
L 554.586458 122.912142 
L 557.479694 116.439944 
L 560.372929 110.08483 
L 563.266165 103.862682 
L 566.159401 97.789054 
L 569.052636 91.879127 
L 571.945872 86.147671 
L 574.839107 80.609013 
L 577.732343 75.276996 
L 580.625578 70.164949 
L 583.518814 65.285647 
L 586.412049 60.651287 
L 589.305285 56.273452 
L 592.19852 52.163085 
L 595.091756 48.33046 
L 597.984991 44.785155 
L 600.878227 41.536033 
L 603.771462 38.591215 
L 606.664698 35.95806 
L 609.557933 33.643151 
L 612.451169 31.652274 
L 615.344404 29.990404 
L 618.23764 28.661696 
L 621.130875 27.669471 
L 624.024111 27.016208 
L 626.917346 26.703541 
L 629.810582 26.732251 
L 632.703817 27.102266 
L 635.597053 27.812661 
L 638.490288 28.861662 
L 641.383524 30.246645 
L 644.276759 31.964149 
L 647.169995 34.009882 
L 650.06323 36.378729 
L 652.956466 39.064771 
L 655.849701 42.061293 
L 658.742937 45.360806 
L 661.636172 48.955062 
L 664.529408 52.835078 
L 667.422643 56.991156 
L 670.315879 61.412907 
L 673.209114 66.089281 
L 676.10235 71.008587 
L 678.995585 76.158531 
L 681.888821 81.52624 
L 684.782056 87.098298 
L 687.675292 92.860778 
L 690.568527 98.799276 
L 693.461763 104.898949 
L 696.354998 111.144552 
L 699.248234 117.520473 
L 702.141469 124.010776 
L 705.034705 130.599239 
L 707.92794 137.269393 
L 710.821176 144.004568 
L 713.714411 150.787928 
L 716.607647 157.602518 
L 719.500882 164.431307 
L 722.394118 171.257225 
L 725.287353 178.063211 
L 728.180589 184.832253 
L 731.073824 191.547433 
L 733.96706 198.191967 
L 736.860295 204.749245 
L 739.753531 211.202879 
L 742.646766 217.536738 
L 745.540002 223.73499 
L 748.433237 229.782144 
L 751.326473 235.663083 
L 754.219708 241.36311 
L 757.112944 246.867976 
L 760.006179 252.163923 
L 762.899415 257.237714 
L 765.79265 262.076666 
L 768.685886 266.668685 
L 771.579121 271.002293 
L 774.472357 275.066659 
L 777.365592 278.851623 
L 780.258828 282.347725 
L 783.152063 285.546227 
L 786.045299 288.439134 
L 788.938534 291.019215 
L 791.83177 293.280022 
L 794.725005 295.215904 
L 797.618241 296.822021 
L 800.511476 298.09436 
L 803.404712 299.02974 
L 806.297947 299.625824 
L 809.191183 299.881121 
L 812.084418 299.794993 
L 814.977654 299.367656 
L 817.870889 298.600178 
L 820.764125 297.494477 
L 823.65736 296.053317 
L 826.550596 294.280299 
L 829.443831 292.179856 
L 832.337067 289.757237 
L 835.230302 287.018498 
L 838.123538 283.970485 
L 841.016773 280.620815 
L 843.910009 276.977861 
L 846.803244 273.050729 
L 849.69648 268.849234 
L 852.589715 264.383877 
L 855.482951 259.665821 
L 858.376186 254.706858 
L 861.269422 249.519382 
L 864.162657 244.116359 
L 867.055893 238.511295 
L 869.949128 232.718199 
L 872.842364 226.75155 
L 875.735599 220.626262 
L 878.628835 214.357646 
L 881.522071 207.961369 
L 884.415306 201.453419 
L 887.308542 194.850063 
L 890.201777 188.167804 
L 893.095013 181.423346 
L 895.988248 174.633547 
L 898.881484 167.815376 
" style="fill:none;stroke:#dd8452;stroke-linecap:round;stroke-width:1.5;"/>
   </g>
   <g id="patch_8">
    <path d="M 518.855 313.54 
L 518.855 13.044662 
" style="fill:none;stroke:#ffffff;stroke-linecap:square;stroke-linejoin:miter;stroke-width:1.25;"/>
   </g>
   <g id="patch_9">
    <path d="M 923.04 313.54 
L 923.04 13.044662 
" style="fill:none;stroke:#ffffff;stroke-linecap:square;stroke-linejoin:miter;stroke-width:1.25;"/>
   </g>
   <g id="patch_10">
    <path d="M 518.855 313.54 
L 923.04 313.54 
" style="fill:none;stroke:#ffffff;stroke-linecap:square;stroke-linejoin:miter;stroke-width:1.25;"/>
   </g>
   <g id="patch_11">
    <path d="M 518.855 13.044662 
L 923.04 13.044662 
" style="fill:none;stroke:#ffffff;stroke-linecap:square;stroke-linejoin:miter;stroke-width:1.25;"/>
   </g>
  </g>
 </g>
 <defs>
  <clipPath id="p2242d396e2">
   <rect height="300.495338" width="404.185" x="64.335" y="13.044662"/>
  </clipPath>
  <clipPath id="p596c95b68a">
   <rect height="300.495338" width="404.185" x="518.855" y="13.044662"/>
  </clipPath>
 </defs>
</svg>
