<?xml version="1.0" encoding="utf-8" standalone="no"?>
<!DOCTYPE svg PUBLIC "-//W3C//DTD SVG 1.1//EN"
  "http://www.w3.org/Graphics/SVG/1.1/DTD/svg11.dtd">
<svg height="360pt" version="1.1" viewBox="0 0 936 360" width="936pt" xmlns="http://www.w3.org/2000/svg" xmlns:xlink="http://www.w3.org/1999/xlink">
 <metadata>
  <rdf:RDF xmlns:cc="http://creativecommons.org/ns#" xmlns:dc="http://purl.org/dc/elements/1.1/" xmlns:rdf="http://www.w3.org/1999/02/22-rdf-syntax-ns#">
   <cc:Work>
    <dc:type rdf:resource="http://purl.org/dc/dcmitype/StillImage"/>
    <dc:date>2021-10-07T11:03:53.552552</dc:date>
    <dc:format>image/svg+xml</dc:format>
    <dc:creator>
     <cc:Agent>
      <dc:title>Matplotlib v3.4.2, https://matplotlib.org/</dc:title>
     </cc:Agent>
    </dc:creator>
   </cc:Work>
  </rdf:RDF>
 </metadata>
 <defs>
  <style type="text/css">*{stroke-linecap:butt;stroke-linejoin:round;}</style>
 </defs>
 <g id="figure_1">
  <g id="patch_1">
   <path d="M 0 360 
L 936 360 
L 936 0 
L 0 0 
z
" style="fill:#ffffff;"/>
  </g>
  <g id="axes_1">
   <g id="patch_2">
    <path d="M 65.07 312.66 
L 468.92 312.66 
L 468.92 12.96 
L 65.07 12.96 
z
" style="fill:#eaeaf2;"/>
   </g>
   <g id="matplotlib.axis_1">
    <g id="xtick_1">
     <g id="line2d_1">
      <path clip-path="url(#pa6d264766e)" d="M 83.426818 312.66 
L 83.426818 12.96 
" style="fill:none;stroke:#ffffff;stroke-linecap:round;"/>
     </g>
     <g id="text_1">
      <!-- 0 -->
      <g style="fill:#262626;" transform="translate(80.368303 330.033594)scale(0.11 -0.11)">
       <defs>
        <path d="M 266 2259 
Q 266 3072 433 3567 
Q 600 4063 929 4331 
Q 1259 4600 1759 4600 
Q 2128 4600 2406 4451 
Q 2684 4303 2865 4023 
Q 3047 3744 3150 3342 
Q 3253 2941 3253 2259 
Q 3253 1453 3087 958 
Q 2922 463 2592 192 
Q 2263 -78 1759 -78 
Q 1097 -78 719 397 
Q 266 969 266 2259 
z
M 844 2259 
Q 844 1131 1108 757 
Q 1372 384 1759 384 
Q 2147 384 2411 759 
Q 2675 1134 2675 2259 
Q 2675 3391 2411 3762 
Q 2147 4134 1753 4134 
Q 1366 4134 1134 3806 
Q 844 3388 844 2259 
z
" id="ArialMT-30" transform="scale(0.015625)"/>
       </defs>
       <use xlink:href="#ArialMT-30"/>
      </g>
     </g>
    </g>
    <g id="xtick_2">
     <g id="line2d_2">
      <path clip-path="url(#pa6d264766e)" d="M 165.194382 312.66 
L 165.194382 12.96 
" style="fill:none;stroke:#ffffff;stroke-linecap:round;"/>
     </g>
     <g id="text_2">
      <!-- 100 -->
      <g style="fill:#262626;" transform="translate(156.018836 330.033594)scale(0.11 -0.11)">
       <defs>
        <path d="M 2384 0 
L 1822 0 
L 1822 3584 
Q 1619 3391 1289 3197 
Q 959 3003 697 2906 
L 697 3450 
Q 1169 3672 1522 3987 
Q 1875 4303 2022 4600 
L 2384 4600 
L 2384 0 
z
" id="ArialMT-31" transform="scale(0.015625)"/>
       </defs>
       <use xlink:href="#ArialMT-31"/>
       <use x="55.615234" xlink:href="#ArialMT-30"/>
       <use x="111.230469" xlink:href="#ArialMT-30"/>
      </g>
     </g>
    </g>
    <g id="xtick_3">
     <g id="line2d_3">
      <path clip-path="url(#pa6d264766e)" d="M 246.961947 312.66 
L 246.961947 12.96 
" style="fill:none;stroke:#ffffff;stroke-linecap:round;"/>
     </g>
     <g id="text_3">
      <!-- 200 -->
      <g style="fill:#262626;" transform="translate(237.7864 330.033594)scale(0.11 -0.11)">
       <defs>
        <path d="M 3222 541 
L 3222 0 
L 194 0 
Q 188 203 259 391 
Q 375 700 629 1000 
Q 884 1300 1366 1694 
Q 2113 2306 2375 2664 
Q 2638 3022 2638 3341 
Q 2638 3675 2398 3904 
Q 2159 4134 1775 4134 
Q 1369 4134 1125 3890 
Q 881 3647 878 3216 
L 300 3275 
Q 359 3922 746 4261 
Q 1134 4600 1788 4600 
Q 2447 4600 2831 4234 
Q 3216 3869 3216 3328 
Q 3216 3053 3103 2787 
Q 2991 2522 2730 2228 
Q 2469 1934 1863 1422 
Q 1356 997 1212 845 
Q 1069 694 975 541 
L 3222 541 
z
" id="ArialMT-32" transform="scale(0.015625)"/>
       </defs>
       <use xlink:href="#ArialMT-32"/>
       <use x="55.615234" xlink:href="#ArialMT-30"/>
       <use x="111.230469" xlink:href="#ArialMT-30"/>
      </g>
     </g>
    </g>
    <g id="xtick_4">
     <g id="line2d_4">
      <path clip-path="url(#pa6d264766e)" d="M 328.729511 312.66 
L 328.729511 12.96 
" style="fill:none;stroke:#ffffff;stroke-linecap:round;"/>
     </g>
     <g id="text_4">
      <!-- 300 -->
      <g style="fill:#262626;" transform="translate(319.553964 330.033594)scale(0.11 -0.11)">
       <defs>
        <path d="M 269 1209 
L 831 1284 
Q 928 806 1161 595 
Q 1394 384 1728 384 
Q 2125 384 2398 659 
Q 2672 934 2672 1341 
Q 2672 1728 2419 1979 
Q 2166 2231 1775 2231 
Q 1616 2231 1378 2169 
L 1441 2663 
Q 1497 2656 1531 2656 
Q 1891 2656 2178 2843 
Q 2466 3031 2466 3422 
Q 2466 3731 2256 3934 
Q 2047 4138 1716 4138 
Q 1388 4138 1169 3931 
Q 950 3725 888 3313 
L 325 3413 
Q 428 3978 793 4289 
Q 1159 4600 1703 4600 
Q 2078 4600 2393 4439 
Q 2709 4278 2876 4000 
Q 3044 3722 3044 3409 
Q 3044 3113 2884 2869 
Q 2725 2625 2413 2481 
Q 2819 2388 3044 2092 
Q 3269 1797 3269 1353 
Q 3269 753 2831 336 
Q 2394 -81 1725 -81 
Q 1122 -81 723 278 
Q 325 638 269 1209 
z
" id="ArialMT-33" transform="scale(0.015625)"/>
       </defs>
       <use xlink:href="#ArialMT-33"/>
       <use x="55.615234" xlink:href="#ArialMT-30"/>
       <use x="111.230469" xlink:href="#ArialMT-30"/>
      </g>
     </g>
    </g>
    <g id="xtick_5">
     <g id="line2d_5">
      <path clip-path="url(#pa6d264766e)" d="M 410.497075 312.66 
L 410.497075 12.96 
" style="fill:none;stroke:#ffffff;stroke-linecap:round;"/>
     </g>
     <g id="text_5">
      <!-- 400 -->
      <g style="fill:#262626;" transform="translate(401.321528 330.033594)scale(0.11 -0.11)">
       <defs>
        <path d="M 2069 0 
L 2069 1097 
L 81 1097 
L 81 1613 
L 2172 4581 
L 2631 4581 
L 2631 1613 
L 3250 1613 
L 3250 1097 
L 2631 1097 
L 2631 0 
L 2069 0 
z
M 2069 1613 
L 2069 3678 
L 634 1613 
L 2069 1613 
z
" id="ArialMT-34" transform="scale(0.015625)"/>
       </defs>
       <use xlink:href="#ArialMT-34"/>
       <use x="55.615234" xlink:href="#ArialMT-30"/>
       <use x="111.230469" xlink:href="#ArialMT-30"/>
      </g>
     </g>
    </g>
    <g id="text_6">
     <!-- Samples -->
     <g style="fill:#262626;" transform="translate(243.652188 344.955469)scale(0.12 -0.12)">
      <defs>
       <path d="M 288 1472 
L 859 1522 
Q 900 1178 1048 958 
Q 1197 738 1509 602 
Q 1822 466 2213 466 
Q 2559 466 2825 569 
Q 3091 672 3220 851 
Q 3350 1031 3350 1244 
Q 3350 1459 3225 1620 
Q 3100 1781 2813 1891 
Q 2628 1963 1997 2114 
Q 1366 2266 1113 2400 
Q 784 2572 623 2826 
Q 463 3081 463 3397 
Q 463 3744 659 4045 
Q 856 4347 1234 4503 
Q 1613 4659 2075 4659 
Q 2584 4659 2973 4495 
Q 3363 4331 3572 4012 
Q 3781 3694 3797 3291 
L 3216 3247 
Q 3169 3681 2898 3903 
Q 2628 4125 2100 4125 
Q 1550 4125 1298 3923 
Q 1047 3722 1047 3438 
Q 1047 3191 1225 3031 
Q 1400 2872 2139 2705 
Q 2878 2538 3153 2413 
Q 3553 2228 3743 1945 
Q 3934 1663 3934 1294 
Q 3934 928 3725 604 
Q 3516 281 3123 101 
Q 2731 -78 2241 -78 
Q 1619 -78 1198 103 
Q 778 284 539 648 
Q 300 1013 288 1472 
z
" id="ArialMT-53" transform="scale(0.015625)"/>
       <path d="M 2588 409 
Q 2275 144 1986 34 
Q 1697 -75 1366 -75 
Q 819 -75 525 192 
Q 231 459 231 875 
Q 231 1119 342 1320 
Q 453 1522 633 1644 
Q 813 1766 1038 1828 
Q 1203 1872 1538 1913 
Q 2219 1994 2541 2106 
Q 2544 2222 2544 2253 
Q 2544 2597 2384 2738 
Q 2169 2928 1744 2928 
Q 1347 2928 1158 2789 
Q 969 2650 878 2297 
L 328 2372 
Q 403 2725 575 2942 
Q 747 3159 1072 3276 
Q 1397 3394 1825 3394 
Q 2250 3394 2515 3294 
Q 2781 3194 2906 3042 
Q 3031 2891 3081 2659 
Q 3109 2516 3109 2141 
L 3109 1391 
Q 3109 606 3145 398 
Q 3181 191 3288 0 
L 2700 0 
Q 2613 175 2588 409 
z
M 2541 1666 
Q 2234 1541 1622 1453 
Q 1275 1403 1131 1340 
Q 988 1278 909 1158 
Q 831 1038 831 891 
Q 831 666 1001 516 
Q 1172 366 1500 366 
Q 1825 366 2078 508 
Q 2331 650 2450 897 
Q 2541 1088 2541 1459 
L 2541 1666 
z
" id="ArialMT-61" transform="scale(0.015625)"/>
       <path d="M 422 0 
L 422 3319 
L 925 3319 
L 925 2853 
Q 1081 3097 1340 3245 
Q 1600 3394 1931 3394 
Q 2300 3394 2536 3241 
Q 2772 3088 2869 2813 
Q 3263 3394 3894 3394 
Q 4388 3394 4653 3120 
Q 4919 2847 4919 2278 
L 4919 0 
L 4359 0 
L 4359 2091 
Q 4359 2428 4304 2576 
Q 4250 2725 4106 2815 
Q 3963 2906 3769 2906 
Q 3419 2906 3187 2673 
Q 2956 2441 2956 1928 
L 2956 0 
L 2394 0 
L 2394 2156 
Q 2394 2531 2256 2718 
Q 2119 2906 1806 2906 
Q 1569 2906 1367 2781 
Q 1166 2656 1075 2415 
Q 984 2175 984 1722 
L 984 0 
L 422 0 
z
" id="ArialMT-6d" transform="scale(0.015625)"/>
       <path d="M 422 -1272 
L 422 3319 
L 934 3319 
L 934 2888 
Q 1116 3141 1344 3267 
Q 1572 3394 1897 3394 
Q 2322 3394 2647 3175 
Q 2972 2956 3137 2557 
Q 3303 2159 3303 1684 
Q 3303 1175 3120 767 
Q 2938 359 2589 142 
Q 2241 -75 1856 -75 
Q 1575 -75 1351 44 
Q 1128 163 984 344 
L 984 -1272 
L 422 -1272 
z
M 931 1641 
Q 931 1000 1190 694 
Q 1450 388 1819 388 
Q 2194 388 2461 705 
Q 2728 1022 2728 1688 
Q 2728 2322 2467 2637 
Q 2206 2953 1844 2953 
Q 1484 2953 1207 2617 
Q 931 2281 931 1641 
z
" id="ArialMT-70" transform="scale(0.015625)"/>
       <path d="M 409 0 
L 409 4581 
L 972 4581 
L 972 0 
L 409 0 
z
" id="ArialMT-6c" transform="scale(0.015625)"/>
       <path d="M 2694 1069 
L 3275 997 
Q 3138 488 2766 206 
Q 2394 -75 1816 -75 
Q 1088 -75 661 373 
Q 234 822 234 1631 
Q 234 2469 665 2931 
Q 1097 3394 1784 3394 
Q 2450 3394 2872 2941 
Q 3294 2488 3294 1666 
Q 3294 1616 3291 1516 
L 816 1516 
Q 847 969 1125 678 
Q 1403 388 1819 388 
Q 2128 388 2347 550 
Q 2566 713 2694 1069 
z
M 847 1978 
L 2700 1978 
Q 2663 2397 2488 2606 
Q 2219 2931 1791 2931 
Q 1403 2931 1139 2672 
Q 875 2413 847 1978 
z
" id="ArialMT-65" transform="scale(0.015625)"/>
       <path d="M 197 991 
L 753 1078 
Q 800 744 1014 566 
Q 1228 388 1613 388 
Q 2000 388 2187 545 
Q 2375 703 2375 916 
Q 2375 1106 2209 1216 
Q 2094 1291 1634 1406 
Q 1016 1563 777 1677 
Q 538 1791 414 1992 
Q 291 2194 291 2438 
Q 291 2659 392 2848 
Q 494 3038 669 3163 
Q 800 3259 1026 3326 
Q 1253 3394 1513 3394 
Q 1903 3394 2198 3281 
Q 2494 3169 2634 2976 
Q 2775 2784 2828 2463 
L 2278 2388 
Q 2241 2644 2061 2787 
Q 1881 2931 1553 2931 
Q 1166 2931 1000 2803 
Q 834 2675 834 2503 
Q 834 2394 903 2306 
Q 972 2216 1119 2156 
Q 1203 2125 1616 2013 
Q 2213 1853 2448 1751 
Q 2684 1650 2818 1456 
Q 2953 1263 2953 975 
Q 2953 694 2789 445 
Q 2625 197 2315 61 
Q 2006 -75 1616 -75 
Q 969 -75 630 194 
Q 291 463 197 991 
z
" id="ArialMT-73" transform="scale(0.015625)"/>
      </defs>
      <use xlink:href="#ArialMT-53"/>
      <use x="66.699219" xlink:href="#ArialMT-61"/>
      <use x="122.314453" xlink:href="#ArialMT-6d"/>
      <use x="205.615234" xlink:href="#ArialMT-70"/>
      <use x="261.230469" xlink:href="#ArialMT-6c"/>
      <use x="283.447266" xlink:href="#ArialMT-65"/>
      <use x="339.0625" xlink:href="#ArialMT-73"/>
     </g>
    </g>
   </g>
   <g id="matplotlib.axis_2">
    <g id="ytick_1">
     <g id="line2d_6">
      <path clip-path="url(#pa6d264766e)" d="M 65.07 307.285158 
L 468.92 307.285158 
" style="fill:none;stroke:#ffffff;stroke-linecap:round;"/>
     </g>
     <g id="text_7">
      <!-- −1.00 -->
      <g style="fill:#262626;" transform="translate(27.738281 311.221955)scale(0.11 -0.11)">
       <defs>
        <path d="M 3381 1997 
L 356 1997 
L 356 2522 
L 3381 2522 
L 3381 1997 
z
" id="ArialMT-2212" transform="scale(0.015625)"/>
        <path d="M 581 0 
L 581 641 
L 1222 641 
L 1222 0 
L 581 0 
z
" id="ArialMT-2e" transform="scale(0.015625)"/>
       </defs>
       <use xlink:href="#ArialMT-2212"/>
       <use x="58.398438" xlink:href="#ArialMT-31"/>
       <use x="114.013672" xlink:href="#ArialMT-2e"/>
       <use x="141.796875" xlink:href="#ArialMT-30"/>
       <use x="197.412109" xlink:href="#ArialMT-30"/>
      </g>
     </g>
    </g>
    <g id="ytick_2">
     <g id="line2d_7">
      <path clip-path="url(#pa6d264766e)" d="M 65.07 271.034169 
L 468.92 271.034169 
" style="fill:none;stroke:#ffffff;stroke-linecap:round;"/>
     </g>
     <g id="text_8">
      <!-- −0.75 -->
      <g style="fill:#262626;" transform="translate(27.738281 274.970966)scale(0.11 -0.11)">
       <defs>
        <path d="M 303 3981 
L 303 4522 
L 3269 4522 
L 3269 4084 
Q 2831 3619 2401 2847 
Q 1972 2075 1738 1259 
Q 1569 684 1522 0 
L 944 0 
Q 953 541 1156 1306 
Q 1359 2072 1739 2783 
Q 2119 3494 2547 3981 
L 303 3981 
z
" id="ArialMT-37" transform="scale(0.015625)"/>
        <path d="M 266 1200 
L 856 1250 
Q 922 819 1161 601 
Q 1400 384 1738 384 
Q 2144 384 2425 690 
Q 2706 997 2706 1503 
Q 2706 1984 2436 2262 
Q 2166 2541 1728 2541 
Q 1456 2541 1237 2417 
Q 1019 2294 894 2097 
L 366 2166 
L 809 4519 
L 3088 4519 
L 3088 3981 
L 1259 3981 
L 1013 2750 
Q 1425 3038 1878 3038 
Q 2478 3038 2890 2622 
Q 3303 2206 3303 1553 
Q 3303 931 2941 478 
Q 2500 -78 1738 -78 
Q 1113 -78 717 272 
Q 322 622 266 1200 
z
" id="ArialMT-35" transform="scale(0.015625)"/>
       </defs>
       <use xlink:href="#ArialMT-2212"/>
       <use x="58.398438" xlink:href="#ArialMT-30"/>
       <use x="114.013672" xlink:href="#ArialMT-2e"/>
       <use x="141.796875" xlink:href="#ArialMT-37"/>
       <use x="197.412109" xlink:href="#ArialMT-35"/>
      </g>
     </g>
    </g>
    <g id="ytick_3">
     <g id="line2d_8">
      <path clip-path="url(#pa6d264766e)" d="M 65.07 234.783179 
L 468.92 234.783179 
" style="fill:none;stroke:#ffffff;stroke-linecap:round;"/>
     </g>
     <g id="text_9">
      <!-- −0.50 -->
      <g style="fill:#262626;" transform="translate(27.738281 238.719976)scale(0.11 -0.11)">
       <use xlink:href="#ArialMT-2212"/>
       <use x="58.398438" xlink:href="#ArialMT-30"/>
       <use x="114.013672" xlink:href="#ArialMT-2e"/>
       <use x="141.796875" xlink:href="#ArialMT-35"/>
       <use x="197.412109" xlink:href="#ArialMT-30"/>
      </g>
     </g>
    </g>
    <g id="ytick_4">
     <g id="line2d_9">
      <path clip-path="url(#pa6d264766e)" d="M 65.07 198.53219 
L 468.92 198.53219 
" style="fill:none;stroke:#ffffff;stroke-linecap:round;"/>
     </g>
     <g id="text_10">
      <!-- −0.25 -->
      <g style="fill:#262626;" transform="translate(27.738281 202.468987)scale(0.11 -0.11)">
       <use xlink:href="#ArialMT-2212"/>
       <use x="58.398438" xlink:href="#ArialMT-30"/>
       <use x="114.013672" xlink:href="#ArialMT-2e"/>
       <use x="141.796875" xlink:href="#ArialMT-32"/>
       <use x="197.412109" xlink:href="#ArialMT-35"/>
      </g>
     </g>
    </g>
    <g id="ytick_5">
     <g id="line2d_10">
      <path clip-path="url(#pa6d264766e)" d="M 65.07 162.281201 
L 468.92 162.281201 
" style="fill:none;stroke:#ffffff;stroke-linecap:round;"/>
     </g>
     <g id="text_11">
      <!-- 0.00 -->
      <g style="fill:#262626;" transform="translate(34.162969 166.217998)scale(0.11 -0.11)">
       <use xlink:href="#ArialMT-30"/>
       <use x="55.615234" xlink:href="#ArialMT-2e"/>
       <use x="83.398438" xlink:href="#ArialMT-30"/>
       <use x="139.013672" xlink:href="#ArialMT-30"/>
      </g>
     </g>
    </g>
    <g id="ytick_6">
     <g id="line2d_11">
      <path clip-path="url(#pa6d264766e)" d="M 65.07 126.030212 
L 468.92 126.030212 
" style="fill:none;stroke:#ffffff;stroke-linecap:round;"/>
     </g>
     <g id="text_12">
      <!-- 0.25 -->
      <g style="fill:#262626;" transform="translate(34.162969 129.967008)scale(0.11 -0.11)">
       <use xlink:href="#ArialMT-30"/>
       <use x="55.615234" xlink:href="#ArialMT-2e"/>
       <use x="83.398438" xlink:href="#ArialMT-32"/>
       <use x="139.013672" xlink:href="#ArialMT-35"/>
      </g>
     </g>
    </g>
    <g id="ytick_7">
     <g id="line2d_12">
      <path clip-path="url(#pa6d264766e)" d="M 65.07 89.779222 
L 468.92 89.779222 
" style="fill:none;stroke:#ffffff;stroke-linecap:round;"/>
     </g>
     <g id="text_13">
      <!-- 0.50 -->
      <g style="fill:#262626;" transform="translate(34.162969 93.716019)scale(0.11 -0.11)">
       <use xlink:href="#ArialMT-30"/>
       <use x="55.615234" xlink:href="#ArialMT-2e"/>
       <use x="83.398438" xlink:href="#ArialMT-35"/>
       <use x="139.013672" xlink:href="#ArialMT-30"/>
      </g>
     </g>
    </g>
    <g id="ytick_8">
     <g id="line2d_13">
      <path clip-path="url(#pa6d264766e)" d="M 65.07 53.528233 
L 468.92 53.528233 
" style="fill:none;stroke:#ffffff;stroke-linecap:round;"/>
     </g>
     <g id="text_14">
      <!-- 0.75 -->
      <g style="fill:#262626;" transform="translate(34.162969 57.46503)scale(0.11 -0.11)">
       <use xlink:href="#ArialMT-30"/>
       <use x="55.615234" xlink:href="#ArialMT-2e"/>
       <use x="83.398438" xlink:href="#ArialMT-37"/>
       <use x="139.013672" xlink:href="#ArialMT-35"/>
      </g>
     </g>
    </g>
    <g id="ytick_9">
     <g id="line2d_14">
      <path clip-path="url(#pa6d264766e)" d="M 65.07 17.277244 
L 468.92 17.277244 
" style="fill:none;stroke:#ffffff;stroke-linecap:round;"/>
     </g>
     <g id="text_15">
      <!-- 1.00 -->
      <g style="fill:#262626;" transform="translate(34.162969 21.214041)scale(0.11 -0.11)">
       <use xlink:href="#ArialMT-31"/>
       <use x="55.615234" xlink:href="#ArialMT-2e"/>
       <use x="83.398438" xlink:href="#ArialMT-30"/>
       <use x="139.013672" xlink:href="#ArialMT-30"/>
      </g>
     </g>
    </g>
    <g id="text_16">
     <!-- Current -->
     <g style="fill:#262626;" transform="translate(21.353281 182.815313)rotate(-90)scale(0.12 -0.12)">
      <defs>
       <path d="M 3763 1606 
L 4369 1453 
Q 4178 706 3683 314 
Q 3188 -78 2472 -78 
Q 1731 -78 1267 223 
Q 803 525 561 1097 
Q 319 1669 319 2325 
Q 319 3041 592 3573 
Q 866 4106 1370 4382 
Q 1875 4659 2481 4659 
Q 3169 4659 3637 4309 
Q 4106 3959 4291 3325 
L 3694 3184 
Q 3534 3684 3231 3912 
Q 2928 4141 2469 4141 
Q 1941 4141 1586 3887 
Q 1231 3634 1087 3207 
Q 944 2781 944 2328 
Q 944 1744 1114 1308 
Q 1284 872 1643 656 
Q 2003 441 2422 441 
Q 2931 441 3284 734 
Q 3638 1028 3763 1606 
z
" id="ArialMT-43" transform="scale(0.015625)"/>
       <path d="M 2597 0 
L 2597 488 
Q 2209 -75 1544 -75 
Q 1250 -75 995 37 
Q 741 150 617 320 
Q 494 491 444 738 
Q 409 903 409 1263 
L 409 3319 
L 972 3319 
L 972 1478 
Q 972 1038 1006 884 
Q 1059 663 1231 536 
Q 1403 409 1656 409 
Q 1909 409 2131 539 
Q 2353 669 2445 892 
Q 2538 1116 2538 1541 
L 2538 3319 
L 3100 3319 
L 3100 0 
L 2597 0 
z
" id="ArialMT-75" transform="scale(0.015625)"/>
       <path d="M 416 0 
L 416 3319 
L 922 3319 
L 922 2816 
Q 1116 3169 1280 3281 
Q 1444 3394 1641 3394 
Q 1925 3394 2219 3213 
L 2025 2691 
Q 1819 2813 1613 2813 
Q 1428 2813 1281 2702 
Q 1134 2591 1072 2394 
Q 978 2094 978 1738 
L 978 0 
L 416 0 
z
" id="ArialMT-72" transform="scale(0.015625)"/>
       <path d="M 422 0 
L 422 3319 
L 928 3319 
L 928 2847 
Q 1294 3394 1984 3394 
Q 2284 3394 2536 3286 
Q 2788 3178 2913 3003 
Q 3038 2828 3088 2588 
Q 3119 2431 3119 2041 
L 3119 0 
L 2556 0 
L 2556 2019 
Q 2556 2363 2490 2533 
Q 2425 2703 2258 2804 
Q 2091 2906 1866 2906 
Q 1506 2906 1245 2678 
Q 984 2450 984 1813 
L 984 0 
L 422 0 
z
" id="ArialMT-6e" transform="scale(0.015625)"/>
       <path d="M 1650 503 
L 1731 6 
Q 1494 -44 1306 -44 
Q 1000 -44 831 53 
Q 663 150 594 308 
Q 525 466 525 972 
L 525 2881 
L 113 2881 
L 113 3319 
L 525 3319 
L 525 4141 
L 1084 4478 
L 1084 3319 
L 1650 3319 
L 1650 2881 
L 1084 2881 
L 1084 941 
Q 1084 700 1114 631 
Q 1144 563 1211 522 
Q 1278 481 1403 481 
Q 1497 481 1650 503 
z
" id="ArialMT-74" transform="scale(0.015625)"/>
      </defs>
      <use xlink:href="#ArialMT-43"/>
      <use x="72.216797" xlink:href="#ArialMT-75"/>
      <use x="127.832031" xlink:href="#ArialMT-72"/>
      <use x="161.132812" xlink:href="#ArialMT-72"/>
      <use x="194.433594" xlink:href="#ArialMT-65"/>
      <use x="250.048828" xlink:href="#ArialMT-6e"/>
      <use x="305.664062" xlink:href="#ArialMT-74"/>
     </g>
    </g>
   </g>
   <g id="line2d_15">
    <path clip-path="url(#pa6d264766e)" d="M 83.426818 163.650558 
L 84.244494 162.073605 
L 85.062169 162.073605 
L 85.879845 158.975757 
L 87.515196 158.901012 
L 88.332872 156.661714 
L 89.150548 155.793821 
L 89.968223 155.793821 
L 90.785899 154.319642 
L 91.603575 150.372587 
L 92.42125 149.55141 
L 93.238926 144.139518 
L 94.056602 143.365057 
L 94.874277 139.464718 
L 95.691953 134.006111 
L 96.509628 132.401127 
L 97.327304 129.284593 
L 98.14498 127.745012 
L 98.962655 127.726326 
L 99.780331 121.493259 
L 100.598007 112.096939 
L 102.233358 108.943033 
L 103.051034 98.007134 
L 103.868709 91.746037 
L 104.686385 88.629499 
L 105.504061 80.782109 
L 107.139412 71.413818 
L 107.957087 68.269251 
L 108.774763 55.000622 
L 109.592439 54.198136 
L 110.410114 54.17945 
L 111.22779 52.621186 
L 112.045466 46.369424 
L 112.863141 33.903289 
L 119.404546 33.921975 
L 120.222222 54.310252 
L 121.039898 71.563306 
L 121.857573 85.690487 
L 123.492925 106.871911 
L 124.3106 107.627686 
L 125.945952 121.782892 
L 126.763627 124.152993 
L 128.398979 134.361147 
L 129.216654 137.487025 
L 130.03433 150.839741 
L 130.852005 151.614203 
L 131.669681 153.200499 
L 133.305032 153.284587 
L 134.122708 157.968732 
L 134.940384 161.057237 
L 135.758059 161.057237 
L 136.575735 162.699592 
L 137.393411 162.699592 
L 138.211086 163.464711 
L 139.028762 163.464711 
L 139.846438 165.778754 
L 140.664113 165.778754 
L 141.481789 167.449138 
L 143.11714 167.449138 
L 143.934816 168.998062 
L 144.752491 172.114596 
L 145.570167 183.937075 
L 146.387843 186.297832 
L 148.023194 189.414368 
L 148.84087 192.605646 
L 149.658545 193.370766 
L 150.476221 195.75021 
L 151.293897 200.462385 
L 152.111572 203.569576 
L 152.929248 209.112269 
L 153.746923 220.850658 
L 154.564599 222.455642 
L 155.382275 227.130445 
L 156.19995 228.716739 
L 157.017626 238.934239 
L 158.652977 256.187293 
L 159.470653 257.764243 
L 160.288329 266.414127 
L 161.106004 268.746857 
L 161.92368 272.675224 
L 162.741356 277.406084 
L 163.559031 286.802405 
L 164.376707 291.523922 
L 165.194382 291.533265 
L 166.012058 296.264126 
L 171.735788 296.264126 
L 172.553463 268.112546 
L 173.371139 263.400371 
L 174.188815 241.472515 
L 175.824166 228.950318 
L 176.641841 228.157171 
L 177.459517 212.509097 
L 178.277193 210.167024 
L 179.094868 203.915271 
L 179.912544 199.9869 
L 180.73022 192.95134 
L 181.547895 190.595437 
L 182.365571 178.829386 
L 183.183247 177.266263 
L 184.000922 170.98236 
L 184.818598 168.635433 
L 185.636274 161.554262 
L 186.453949 160.004602 
L 189.724652 159.950753 
L 190.542327 157.6128 
L 191.360003 156.846944 
L 192.177679 156.824508 
L 193.81303 153.671338 
L 194.630706 153.671338 
L 195.448381 152.914457 
L 196.266057 150.567528 
L 197.083733 150.540605 
L 197.901408 143.463921 
L 198.719084 141.125969 
L 199.536759 141.116993 
L 201.172111 137.986261 
L 201.989786 127.778845 
L 202.807462 126.999527 
L 204.442813 117.566941 
L 205.260489 116.008304 
L 206.078165 112.07133 
L 206.89584 106.589184 
L 207.713516 103.462936 
L 208.531192 83.061564 
L 209.348867 81.498442 
L 210.166543 81.489471 
L 210.984218 72.079322 
L 211.801894 67.372005 
L 213.437245 54.81766 
L 214.254921 51.686922 
L 215.072597 44.619217 
L 215.890272 43.056095 
L 216.707948 43.047124 
L 217.525624 26.582727 
L 223.249353 26.582727 
L 224.067029 33.601072 
L 224.884704 52.407905 
L 225.70238 75.133769 
L 226.520056 86.881869 
L 228.155407 94.715434 
L 228.973083 115.869197 
L 229.790758 115.873687 
L 230.608434 116.648515 
L 231.42611 118.995445 
L 232.243785 131.522863 
L 233.879136 133.099448 
L 234.696812 152.676626 
L 235.514488 153.464919 
L 236.332163 156.58219 
L 237.149839 156.586677 
L 237.967515 158.929118 
L 238.78519 159.681512 
L 240.420542 159.694974 
L 241.238217 161.293995 
L 242.055893 165.978877 
L 242.873569 165.978877 
L 243.691244 167.528537 
L 245.326595 169.069224 
L 246.144271 170.645809 
L 247.779622 170.645809 
L 248.597298 174.542397 
L 249.414974 176.884837 
L 250.232649 177.695567 
L 251.050325 181.592155 
L 252.685676 184.73635 
L 253.503352 194.894407 
L 254.321028 194.90338 
L 255.138703 195.673723 
L 255.956379 198.826892 
L 256.774054 206.63802 
L 257.59173 216.030218 
L 258.409406 216.04817 
L 260.044757 222.309638 
L 260.862433 231.701835 
L 261.680108 238.747103 
L 262.497784 241.094033 
L 263.31546 245.805836 
L 264.133135 255.981842 
L 264.950811 259.11258 
L 265.768487 266.162334 
L 266.586162 268.504778 
L 267.403838 273.982438 
L 268.221513 275.554531 
L 269.039189 281.833951 
L 269.856865 295.113764 
L 270.67454 299.037273 
L 275.580594 299.037273 
L 276.39827 295.113764 
L 277.215946 258.261461 
L 278.033621 253.554144 
L 278.851297 242.567407 
L 279.668972 234.733846 
L 280.486648 233.954527 
L 281.304324 212.778328 
L 283.757351 208.071011 
L 284.575026 196.300472 
L 285.392702 195.512178 
L 286.210378 195.511141 
L 287.028053 178.26639 
L 287.845729 173.561483 
L 289.48108 170.425224 
L 290.298756 163.362673 
L 291.116431 161.017487 
L 291.934107 159.448838 
L 293.569458 159.439495 
L 294.387134 158.660881 
L 295.20481 158.657766 
L 296.022485 157.878114 
L 296.840161 157.878114 
L 297.657837 154.74497 
L 298.475512 154.734588 
L 299.293188 151.604559 
L 300.928539 151.600406 
L 302.56389 142.189555 
L 303.381566 142.188515 
L 304.199242 139.055372 
L 305.016917 137.488799 
L 305.834593 132.77974 
L 306.652269 131.211091 
L 307.469944 126.510338 
L 308.28762 125.727572 
L 309.105296 115.533951 
L 309.922971 115.532914 
L 310.740647 102.989957 
L 312.375998 95.150864 
L 313.193674 92.798411 
L 314.011349 81.823061 
L 314.829025 73.983977 
L 315.646701 71.631524 
L 316.464376 70.067028 
L 318.099728 46.547684 
L 318.917403 46.543526 
L 319.735079 44.976956 
L 320.552755 39.492399 
L 321.37043 36.353026 
L 328.729511 36.349915 
L 329.547187 59.074034 
L 330.364862 65.343436 
L 331.182538 85.721325 
L 332.000214 99.827745 
L 332.817889 99.828782 
L 333.635565 117.069381 
L 334.453241 121.77325 
L 335.270916 124.12155 
L 336.088592 124.906391 
L 336.906267 131.174759 
L 337.723943 142.145953 
L 338.541619 143.714602 
L 339.359294 153.117149 
L 340.17697 154.682682 
L 340.994646 155.469602 
L 341.812321 159.379284 
L 342.629997 162.517619 
L 344.265348 162.517619 
L 345.083024 164.084191 
L 345.9007 164.089382 
L 346.718375 165.643497 
L 350.806753 165.644535 
L 351.624429 167.21526 
L 352.442105 167.21526 
L 353.25978 167.99076 
L 354.077456 167.99076 
L 354.895132 168.777679 
L 355.712807 183.661671 
L 356.530483 184.449628 
L 357.348159 190.716956 
L 358.165834 192.282489 
L 358.98351 192.286642 
L 359.801185 193.069409 
L 360.618861 196.200476 
L 361.436537 211.090696 
L 362.254212 211.873463 
L 363.071888 214.223841 
L 363.889564 214.226957 
L 364.707239 231.466515 
L 365.524915 234.600697 
L 366.342591 238.517651 
L 367.160266 247.138469 
L 367.977942 247.140543 
L 368.795618 258.894502 
L 369.613293 268.299129 
L 370.430969 269.080854 
L 371.248644 276.916835 
L 372.06632 281.618621 
L 372.883996 283.190386 
L 373.701671 291.026359 
L 374.519347 294.158471 
L 375.337023 295.717773 
L 381.060752 295.717773 
L 381.878428 262.013115 
L 382.696103 251.822615 
L 383.513779 240.064498 
L 384.331455 236.9272 
L 385.14913 231.441602 
L 385.966806 209.491944 
L 386.784482 209.490907 
L 387.602157 204.790149 
L 388.419833 203.219426 
L 390.055184 196.947947 
L 390.87286 181.276836 
L 391.690536 177.353289 
L 392.508211 174.219575 
L 393.325887 171.87268 
L 394.143562 165.611281 
L 394.961238 165.611281 
L 395.778914 162.474554 
L 397.414265 162.470033 
L 398.231941 160.917492 
L 399.049616 161.702804 
L 399.867292 160.917492 
L 400.684968 159.352896 
L 401.502643 159.352896 
L 402.320319 158.554022 
L 403.137995 158.554022 
L 403.95567 156.219183 
L 404.773346 156.210141 
L 405.591021 153.071907 
L 406.408697 151.520873 
L 407.226373 151.508817 
L 408.861724 142.113704 
L 409.6794 140.552123 
L 410.497075 140.549109 
L 411.314751 137.415395 
L 412.132427 124.877528 
L 412.950102 117.042489 
L 413.767778 115.473373 
L 414.585454 112.341166 
L 415.403129 106.07223 
L 417.856156 96.669583 
L 418.673832 85.700832 
L 419.491507 76.293665 
L 420.309183 73.946769 
L 421.126859 73.945266 
L 421.944534 52.785539 
L 422.76221 46.521124 
L 423.579886 46.51962 
L 424.397561 40.246164 
L 425.215237 37.112453 
L 426.032913 35.549365 
L 426.850588 30.074782 
L 427.668264 29.286454 
L 432.574318 29.286454 
L 433.391993 30.074782 
L 434.209669 66.916636 
L 435.027345 69.269555 
L 435.84502 87.301594 
L 436.662696 90.433802 
L 437.480372 101.408581 
L 438.298047 108.468857 
L 439.115723 113.168672 
L 439.933398 119.443632 
L 440.751074 128.066997 
L 441.56875 129.630087 
L 442.386425 134.338945 
L 443.204101 139.827089 
L 444.021777 146.882841 
L 445.657128 153.157803 
L 446.474804 157.865154 
L 447.292479 160.998868 
L 448.927831 161.006402 
L 449.745506 162.561957 
L 450.563182 165.704712 
L 450.563182 165.704712 
" style="fill:none;stroke:#4c72b0;stroke-linecap:round;stroke-width:1.5;"/>
   </g>
   <g id="line2d_16">
    <path clip-path="url(#pa6d264766e)" d="M 83.426818 312.66 
L 83.426818 12.96 
" style="fill:none;stroke:#ff0000;stroke-dasharray:5.55,2.4;stroke-dashoffset:0;stroke-width:1.5;"/>
   </g>
   <g id="line2d_17">
    <path clip-path="url(#pa6d264766e)" d="M 188.0893 312.66 
L 188.0893 12.96 
" style="fill:none;stroke:#ff0000;stroke-dasharray:5.55,2.4;stroke-dashoffset:0;stroke-width:1.5;"/>
   </g>
   <g id="line2d_18">
    <path clip-path="url(#pa6d264766e)" d="M 292.751783 312.66 
L 292.751783 12.96 
" style="fill:none;stroke:#ff0000;stroke-dasharray:5.55,2.4;stroke-dashoffset:0;stroke-width:1.5;"/>
   </g>
   <g id="line2d_19">
    <path clip-path="url(#pa6d264766e)" d="M 397.414265 312.66 
L 397.414265 12.96 
" style="fill:none;stroke:#ff0000;stroke-dasharray:5.55,2.4;stroke-dashoffset:0;stroke-width:1.5;"/>
   </g>
   <g id="patch_3">
    <path d="M 65.07 312.66 
L 65.07 12.96 
" style="fill:none;stroke:#ffffff;stroke-linecap:square;stroke-linejoin:miter;stroke-width:1.25;"/>
   </g>
   <g id="patch_4">
    <path d="M 468.92 312.66 
L 468.92 12.96 
" style="fill:none;stroke:#ffffff;stroke-linecap:square;stroke-linejoin:miter;stroke-width:1.25;"/>
   </g>
   <g id="patch_5">
    <path d="M 65.07 312.66 
L 468.92 312.66 
" style="fill:none;stroke:#ffffff;stroke-linecap:square;stroke-linejoin:miter;stroke-width:1.25;"/>
   </g>
   <g id="patch_6">
    <path d="M 65.07 12.96 
L 468.92 12.96 
" style="fill:none;stroke:#ffffff;stroke-linecap:square;stroke-linejoin:miter;stroke-width:1.25;"/>
   </g>
  </g>
  <g id="axes_2">
   <g id="patch_7">
    <path d="M 519.19 312.66 
L 923.04 312.66 
L 923.04 12.96 
L 519.19 12.96 
z
" style="fill:#eaeaf2;"/>
   </g>
   <g id="matplotlib.axis_3">
    <g id="xtick_6">
     <g id="line2d_20">
      <path clip-path="url(#p074ef43b04)" d="M 537.546818 312.66 
L 537.546818 12.96 
" style="fill:none;stroke:#ffffff;stroke-linecap:round;"/>
     </g>
     <g id="text_17">
      <!-- 0 -->
      <g style="fill:#262626;" transform="translate(534.488303 330.033594)scale(0.11 -0.11)">
       <use xlink:href="#ArialMT-30"/>
      </g>
     </g>
    </g>
    <g id="xtick_7">
     <g id="line2d_21">
      <path clip-path="url(#p074ef43b04)" d="M 595.363568 312.66 
L 595.363568 12.96 
" style="fill:none;stroke:#ffffff;stroke-linecap:round;"/>
     </g>
     <g id="text_18">
      <!-- 20 -->
      <g style="fill:#262626;" transform="translate(589.246537 330.033594)scale(0.11 -0.11)">
       <use xlink:href="#ArialMT-32"/>
       <use x="55.615234" xlink:href="#ArialMT-30"/>
      </g>
     </g>
    </g>
    <g id="xtick_8">
     <g id="line2d_22">
      <path clip-path="url(#p074ef43b04)" d="M 653.180319 312.66 
L 653.180319 12.96 
" style="fill:none;stroke:#ffffff;stroke-linecap:round;"/>
     </g>
     <g id="text_19">
      <!-- 40 -->
      <g style="fill:#262626;" transform="translate(647.063287 330.033594)scale(0.11 -0.11)">
       <use xlink:href="#ArialMT-34"/>
       <use x="55.615234" xlink:href="#ArialMT-30"/>
      </g>
     </g>
    </g>
    <g id="xtick_9">
     <g id="line2d_23">
      <path clip-path="url(#p074ef43b04)" d="M 710.997069 312.66 
L 710.997069 12.96 
" style="fill:none;stroke:#ffffff;stroke-linecap:round;"/>
     </g>
     <g id="text_20">
      <!-- 60 -->
      <g style="fill:#262626;" transform="translate(704.880037 330.033594)scale(0.11 -0.11)">
       <defs>
        <path d="M 3184 3459 
L 2625 3416 
Q 2550 3747 2413 3897 
Q 2184 4138 1850 4138 
Q 1581 4138 1378 3988 
Q 1113 3794 959 3422 
Q 806 3050 800 2363 
Q 1003 2672 1297 2822 
Q 1591 2972 1913 2972 
Q 2475 2972 2870 2558 
Q 3266 2144 3266 1488 
Q 3266 1056 3080 686 
Q 2894 316 2569 119 
Q 2244 -78 1831 -78 
Q 1128 -78 684 439 
Q 241 956 241 2144 
Q 241 3472 731 4075 
Q 1159 4600 1884 4600 
Q 2425 4600 2770 4297 
Q 3116 3994 3184 3459 
z
M 888 1484 
Q 888 1194 1011 928 
Q 1134 663 1356 523 
Q 1578 384 1822 384 
Q 2178 384 2434 671 
Q 2691 959 2691 1453 
Q 2691 1928 2437 2201 
Q 2184 2475 1800 2475 
Q 1419 2475 1153 2201 
Q 888 1928 888 1484 
z
" id="ArialMT-36" transform="scale(0.015625)"/>
       </defs>
       <use xlink:href="#ArialMT-36"/>
       <use x="55.615234" xlink:href="#ArialMT-30"/>
      </g>
     </g>
    </g>
    <g id="xtick_10">
     <g id="line2d_24">
      <path clip-path="url(#p074ef43b04)" d="M 768.813819 312.66 
L 768.813819 12.96 
" style="fill:none;stroke:#ffffff;stroke-linecap:round;"/>
     </g>
     <g id="text_21">
      <!-- 80 -->
      <g style="fill:#262626;" transform="translate(762.696788 330.033594)scale(0.11 -0.11)">
       <defs>
        <path d="M 1131 2484 
Q 781 2613 612 2850 
Q 444 3088 444 3419 
Q 444 3919 803 4259 
Q 1163 4600 1759 4600 
Q 2359 4600 2725 4251 
Q 3091 3903 3091 3403 
Q 3091 3084 2923 2848 
Q 2756 2613 2416 2484 
Q 2838 2347 3058 2040 
Q 3278 1734 3278 1309 
Q 3278 722 2862 322 
Q 2447 -78 1769 -78 
Q 1091 -78 675 323 
Q 259 725 259 1325 
Q 259 1772 486 2073 
Q 713 2375 1131 2484 
z
M 1019 3438 
Q 1019 3113 1228 2906 
Q 1438 2700 1772 2700 
Q 2097 2700 2305 2904 
Q 2513 3109 2513 3406 
Q 2513 3716 2298 3927 
Q 2084 4138 1766 4138 
Q 1444 4138 1231 3931 
Q 1019 3725 1019 3438 
z
M 838 1322 
Q 838 1081 952 856 
Q 1066 631 1291 507 
Q 1516 384 1775 384 
Q 2178 384 2440 643 
Q 2703 903 2703 1303 
Q 2703 1709 2433 1975 
Q 2163 2241 1756 2241 
Q 1359 2241 1098 1978 
Q 838 1716 838 1322 
z
" id="ArialMT-38" transform="scale(0.015625)"/>
       </defs>
       <use xlink:href="#ArialMT-38"/>
       <use x="55.615234" xlink:href="#ArialMT-30"/>
      </g>
     </g>
    </g>
    <g id="xtick_11">
     <g id="line2d_25">
      <path clip-path="url(#p074ef43b04)" d="M 826.630569 312.66 
L 826.630569 12.96 
" style="fill:none;stroke:#ffffff;stroke-linecap:round;"/>
     </g>
     <g id="text_22">
      <!-- 100 -->
      <g style="fill:#262626;" transform="translate(817.455022 330.033594)scale(0.11 -0.11)">
       <use xlink:href="#ArialMT-31"/>
       <use x="55.615234" xlink:href="#ArialMT-30"/>
       <use x="111.230469" xlink:href="#ArialMT-30"/>
      </g>
     </g>
    </g>
    <g id="xtick_12">
     <g id="line2d_26">
      <path clip-path="url(#p074ef43b04)" d="M 884.447319 312.66 
L 884.447319 12.96 
" style="fill:none;stroke:#ffffff;stroke-linecap:round;"/>
     </g>
     <g id="text_23">
      <!-- 120 -->
      <g style="fill:#262626;" transform="translate(875.271772 330.033594)scale(0.11 -0.11)">
       <use xlink:href="#ArialMT-31"/>
       <use x="55.615234" xlink:href="#ArialMT-32"/>
       <use x="111.230469" xlink:href="#ArialMT-30"/>
      </g>
     </g>
    </g>
    <g id="text_24">
     <!-- Samples -->
     <g style="fill:#262626;" transform="translate(697.772187 344.955469)scale(0.12 -0.12)">
      <use xlink:href="#ArialMT-53"/>
      <use x="66.699219" xlink:href="#ArialMT-61"/>
      <use x="122.314453" xlink:href="#ArialMT-6d"/>
      <use x="205.615234" xlink:href="#ArialMT-70"/>
      <use x="261.230469" xlink:href="#ArialMT-6c"/>
      <use x="283.447266" xlink:href="#ArialMT-65"/>
      <use x="339.0625" xlink:href="#ArialMT-73"/>
     </g>
    </g>
   </g>
   <g id="matplotlib.axis_4">
    <g id="ytick_10">
     <g id="line2d_27">
      <path clip-path="url(#p074ef43b04)" d="M 519.19 299.047729 
L 923.04 299.047729 
" style="fill:none;stroke:#ffffff;stroke-linecap:round;"/>
     </g>
     <g id="text_25">
      <!-- −1.00 -->
      <g style="fill:#262626;" transform="translate(481.858281 302.984526)scale(0.11 -0.11)">
       <use xlink:href="#ArialMT-2212"/>
       <use x="58.398438" xlink:href="#ArialMT-31"/>
       <use x="114.013672" xlink:href="#ArialMT-2e"/>
       <use x="141.796875" xlink:href="#ArialMT-30"/>
       <use x="197.412109" xlink:href="#ArialMT-30"/>
      </g>
     </g>
    </g>
    <g id="ytick_11">
     <g id="line2d_28">
      <path clip-path="url(#p074ef43b04)" d="M 519.19 264.985921 
L 923.04 264.985921 
" style="fill:none;stroke:#ffffff;stroke-linecap:round;"/>
     </g>
     <g id="text_26">
      <!-- −0.75 -->
      <g style="fill:#262626;" transform="translate(481.858281 268.922718)scale(0.11 -0.11)">
       <use xlink:href="#ArialMT-2212"/>
       <use x="58.398438" xlink:href="#ArialMT-30"/>
       <use x="114.013672" xlink:href="#ArialMT-2e"/>
       <use x="141.796875" xlink:href="#ArialMT-37"/>
       <use x="197.412109" xlink:href="#ArialMT-35"/>
      </g>
     </g>
    </g>
    <g id="ytick_12">
     <g id="line2d_29">
      <path clip-path="url(#p074ef43b04)" d="M 519.19 230.924113 
L 923.04 230.924113 
" style="fill:none;stroke:#ffffff;stroke-linecap:round;"/>
     </g>
     <g id="text_27">
      <!-- −0.50 -->
      <g style="fill:#262626;" transform="translate(481.858281 234.86091)scale(0.11 -0.11)">
       <use xlink:href="#ArialMT-2212"/>
       <use x="58.398438" xlink:href="#ArialMT-30"/>
       <use x="114.013672" xlink:href="#ArialMT-2e"/>
       <use x="141.796875" xlink:href="#ArialMT-35"/>
       <use x="197.412109" xlink:href="#ArialMT-30"/>
      </g>
     </g>
    </g>
    <g id="ytick_13">
     <g id="line2d_30">
      <path clip-path="url(#p074ef43b04)" d="M 519.19 196.862305 
L 923.04 196.862305 
" style="fill:none;stroke:#ffffff;stroke-linecap:round;"/>
     </g>
     <g id="text_28">
      <!-- −0.25 -->
      <g style="fill:#262626;" transform="translate(481.858281 200.799102)scale(0.11 -0.11)">
       <use xlink:href="#ArialMT-2212"/>
       <use x="58.398438" xlink:href="#ArialMT-30"/>
       <use x="114.013672" xlink:href="#ArialMT-2e"/>
       <use x="141.796875" xlink:href="#ArialMT-32"/>
       <use x="197.412109" xlink:href="#ArialMT-35"/>
      </g>
     </g>
    </g>
    <g id="ytick_14">
     <g id="line2d_31">
      <path clip-path="url(#p074ef43b04)" d="M 519.19 162.800497 
L 923.04 162.800497 
" style="fill:none;stroke:#ffffff;stroke-linecap:round;"/>
     </g>
     <g id="text_29">
      <!-- 0.00 -->
      <g style="fill:#262626;" transform="translate(488.282969 166.737294)scale(0.11 -0.11)">
       <use xlink:href="#ArialMT-30"/>
       <use x="55.615234" xlink:href="#ArialMT-2e"/>
       <use x="83.398438" xlink:href="#ArialMT-30"/>
       <use x="139.013672" xlink:href="#ArialMT-30"/>
      </g>
     </g>
    </g>
    <g id="ytick_15">
     <g id="line2d_32">
      <path clip-path="url(#p074ef43b04)" d="M 519.19 128.738689 
L 923.04 128.738689 
" style="fill:none;stroke:#ffffff;stroke-linecap:round;"/>
     </g>
     <g id="text_30">
      <!-- 0.25 -->
      <g style="fill:#262626;" transform="translate(488.282969 132.675486)scale(0.11 -0.11)">
       <use xlink:href="#ArialMT-30"/>
       <use x="55.615234" xlink:href="#ArialMT-2e"/>
       <use x="83.398438" xlink:href="#ArialMT-32"/>
       <use x="139.013672" xlink:href="#ArialMT-35"/>
      </g>
     </g>
    </g>
    <g id="ytick_16">
     <g id="line2d_33">
      <path clip-path="url(#p074ef43b04)" d="M 519.19 94.676881 
L 923.04 94.676881 
" style="fill:none;stroke:#ffffff;stroke-linecap:round;"/>
     </g>
     <g id="text_31">
      <!-- 0.50 -->
      <g style="fill:#262626;" transform="translate(488.282969 98.613678)scale(0.11 -0.11)">
       <use xlink:href="#ArialMT-30"/>
       <use x="55.615234" xlink:href="#ArialMT-2e"/>
       <use x="83.398438" xlink:href="#ArialMT-35"/>
       <use x="139.013672" xlink:href="#ArialMT-30"/>
      </g>
     </g>
    </g>
    <g id="ytick_17">
     <g id="line2d_34">
      <path clip-path="url(#p074ef43b04)" d="M 519.19 60.615074 
L 923.04 60.615074 
" style="fill:none;stroke:#ffffff;stroke-linecap:round;"/>
     </g>
     <g id="text_32">
      <!-- 0.75 -->
      <g style="fill:#262626;" transform="translate(488.282969 64.55187)scale(0.11 -0.11)">
       <use xlink:href="#ArialMT-30"/>
       <use x="55.615234" xlink:href="#ArialMT-2e"/>
       <use x="83.398438" xlink:href="#ArialMT-37"/>
       <use x="139.013672" xlink:href="#ArialMT-35"/>
      </g>
     </g>
    </g>
    <g id="ytick_18">
     <g id="line2d_35">
      <path clip-path="url(#p074ef43b04)" d="M 519.19 26.553266 
L 923.04 26.553266 
" style="fill:none;stroke:#ffffff;stroke-linecap:round;"/>
     </g>
     <g id="text_33">
      <!-- 1.00 -->
      <g style="fill:#262626;" transform="translate(488.282969 30.490063)scale(0.11 -0.11)">
       <use xlink:href="#ArialMT-31"/>
       <use x="55.615234" xlink:href="#ArialMT-2e"/>
       <use x="83.398438" xlink:href="#ArialMT-30"/>
       <use x="139.013672" xlink:href="#ArialMT-30"/>
      </g>
     </g>
    </g>
   </g>
   <g id="line2d_36">
    <path clip-path="url(#p074ef43b04)" d="M 537.546818 164.08716 
L 540.437656 162.605438 
L 543.328493 162.605438 
L 546.219331 159.694668 
L 552.001006 159.624437 
L 554.891843 157.520368 
L 557.782681 156.704887 
L 560.673518 156.704887 
L 563.564356 155.319733 
L 566.455193 151.611039 
L 569.346031 150.839453 
L 572.236868 145.754383 
L 575.127706 145.026691 
L 578.018543 141.361891 
L 580.909381 136.232928 
L 583.800218 134.724868 
L 586.691056 131.79654 
L 589.581893 130.349934 
L 592.472731 130.332376 
L 595.363568 124.475721 
L 598.254406 115.646841 
L 604.036081 112.683398 
L 606.926918 102.407913 
L 609.817756 96.524921 
L 612.708593 93.59659 
L 615.599431 86.2231 
L 621.381106 77.420556 
L 624.271943 74.465888 
L 627.162781 61.998545 
L 630.053618 61.244522 
L 632.944456 61.226964 
L 635.835293 59.762802 
L 638.726131 53.888582 
L 641.616969 42.175271 
L 664.743669 42.192829 
L 667.634506 61.349867 
L 670.525344 77.561016 
L 673.416181 90.835063 
L 676.307019 101.154442 
L 679.197856 110.73735 
L 682.088694 111.447484 
L 687.870369 124.747863 
L 690.761206 126.974835 
L 693.652044 132.121359 
L 696.542881 136.566523 
L 699.433719 139.503631 
L 702.324556 152.049982 
L 705.215394 152.777675 
L 708.106231 154.268175 
L 713.887906 154.347185 
L 716.778744 158.748456 
L 719.669581 161.650448 
L 722.560419 161.650448 
L 725.451256 163.193622 
L 728.342094 163.193622 
L 731.232931 163.912535 
L 734.123769 163.912535 
L 737.014606 166.086834 
L 739.905444 166.086834 
L 742.796281 167.656345 
L 748.577956 167.656345 
L 751.468794 169.11173 
L 754.359631 172.040058 
L 757.250469 183.148583 
L 760.141306 185.366775 
L 765.922981 188.295104 
L 768.813819 191.293662 
L 771.704656 192.012577 
L 774.595494 194.248328 
L 777.486331 198.675936 
L 780.377169 201.595485 
L 783.268006 206.803458 
L 786.158844 217.832971 
L 789.049681 219.34103 
L 791.940519 223.733524 
L 794.831356 225.224022 
L 797.722194 234.824492 
L 803.503869 251.035641 
L 806.394707 252.51736 
L 809.285544 260.644882 
L 812.176382 262.836739 
L 815.067219 266.527873 
L 817.958057 270.973039 
L 820.848894 279.80192 
L 823.739732 284.238307 
L 826.630569 284.247086 
L 829.521407 288.692252 
L 849.757269 288.692252 
L 852.648107 262.240733 
L 855.538944 257.813125 
L 858.429782 237.209482 
L 864.211457 225.443495 
L 867.102294 224.698246 
L 869.993132 209.995153 
L 872.883969 207.794516 
L 875.774807 201.920304 
L 878.665644 198.229165 
L 881.556482 191.61848 
L 884.447319 189.404849 
L 887.338157 178.349345 
L 890.228994 176.880618 
L 893.119832 170.976197 
L 896.010669 168.771 
L 898.901507 162.117458 
L 901.792344 160.661381 
L 904.683182 160.657164 
L 904.683182 160.657164 
" style="fill:none;stroke:#4c72b0;stroke-linecap:round;stroke-width:1.5;"/>
   </g>
   <g id="line2d_37">
    <path clip-path="url(#p074ef43b04)" d="M 537.546818 162.800497 
L 540.437656 155.990974 
L 543.328493 149.198471 
L 546.219331 142.439965 
L 549.110168 135.732351 
L 552.001006 129.092393 
L 554.891843 122.536687 
L 557.782681 116.08162 
L 560.673518 109.743326 
L 563.564356 103.537647 
L 566.455193 97.480095 
L 569.346031 91.585809 
L 572.236868 85.869523 
L 575.127706 80.345525 
L 578.018543 75.027621 
L 580.909381 69.929103 
L 583.800218 65.062716 
L 586.691056 60.440622 
L 589.581893 56.074374 
L 592.472731 51.974887 
L 595.363568 48.152405 
L 598.254406 44.616484 
L 601.145243 41.375962 
L 604.036081 38.438937 
L 606.926918 35.812752 
L 609.817756 33.50397 
L 612.708593 31.518362 
L 615.599431 29.860891 
L 618.490268 28.5357 
L 621.381106 27.546101 
L 624.271943 26.894567 
L 627.162781 26.582727 
L 630.053618 26.611361 
L 632.944456 26.980397 
L 635.835293 27.688912 
L 638.726131 28.735136 
L 641.616969 30.116454 
L 644.507806 31.829412 
L 647.398644 33.86973 
L 650.289481 36.232308 
L 653.180319 38.91124 
L 656.071156 41.899831 
L 658.961994 45.190611 
L 661.852831 48.775354 
L 664.743669 52.645101 
L 667.634506 56.790178 
L 670.525344 61.200227 
L 673.416181 65.864223 
L 676.307019 70.770509 
L 679.197856 75.906822 
L 682.088694 81.260324 
L 684.979531 86.817635 
L 687.870369 92.564862 
L 690.761206 98.487643 
L 693.652044 104.571172 
L 696.542881 110.800244 
L 699.433719 117.159289 
L 702.324556 123.632414 
L 705.215394 130.203438 
L 708.106231 136.855939 
L 710.997069 143.573287 
L 713.887906 150.338693 
L 716.778744 157.135247 
L 719.669581 163.945961 
L 722.560419 170.753813 
L 725.451256 177.541785 
L 728.342094 184.292911 
L 731.232931 190.990318 
L 734.123769 197.617265 
L 737.014606 204.157188 
L 739.905444 210.593741 
L 742.796281 216.910835 
L 745.687119 223.092682 
L 748.577956 229.12383 
L 751.468794 234.989205 
L 754.359631 240.674144 
L 757.250469 246.164441 
L 760.141306 251.446371 
L 763.032144 256.506732 
L 765.922981 261.332877 
L 768.813819 265.912742 
L 771.704656 270.23488 
L 774.595494 274.288488 
L 777.486331 278.063434 
L 780.377169 281.550283 
L 783.268006 284.740319 
L 786.158844 287.62557 
L 789.049681 290.198822 
L 791.940519 292.453645 
L 794.831356 294.384403 
L 797.722194 295.986269 
L 800.613031 297.255241 
L 803.503869 298.188145 
L 806.394707 298.782651 
L 809.285544 299.037273 
L 812.176382 298.951373 
L 815.067219 298.525167 
L 817.958057 297.75972 
L 820.848894 296.656946 
L 823.739732 295.2196 
L 826.630569 293.451275 
L 829.521407 291.356391 
L 832.412244 288.940185 
L 835.303082 286.208694 
L 838.193919 283.168748 
L 841.084757 279.827944 
L 843.975594 276.194632 
L 846.866432 272.277894 
L 849.757269 268.087519 
L 852.648107 263.633982 
L 855.538944 258.928413 
L 858.429782 253.982575 
L 861.320619 248.808829 
L 864.211457 243.420107 
L 867.102294 237.829878 
L 869.993132 232.052114 
L 872.883969 226.101258 
L 875.774807 219.992183 
L 878.665644 213.740158 
L 881.556482 207.36081 
L 884.447319 200.870085 
L 887.338157 194.284206 
L 890.228994 187.619634 
L 893.119832 180.893027 
L 896.010669 174.121198 
L 898.901507 167.321074 
" style="fill:none;stroke:#dd8452;stroke-linecap:round;stroke-width:1.5;"/>
   </g>
   <g id="patch_8">
    <path d="M 519.19 312.66 
L 519.19 12.96 
" style="fill:none;stroke:#ffffff;stroke-linecap:square;stroke-linejoin:miter;stroke-width:1.25;"/>
   </g>
   <g id="patch_9">
    <path d="M 923.04 312.66 
L 923.04 12.96 
" style="fill:none;stroke:#ffffff;stroke-linecap:square;stroke-linejoin:miter;stroke-width:1.25;"/>
   </g>
   <g id="patch_10">
    <path d="M 519.19 312.66 
L 923.04 312.66 
" style="fill:none;stroke:#ffffff;stroke-linecap:square;stroke-linejoin:miter;stroke-width:1.25;"/>
   </g>
   <g id="patch_11">
    <path d="M 519.19 12.96 
L 923.04 12.96 
" style="fill:none;stroke:#ffffff;stroke-linecap:square;stroke-linejoin:miter;stroke-width:1.25;"/>
   </g>
  </g>
 </g>
 <defs>
  <clipPath id="pa6d264766e">
   <rect height="299.7" width="403.85" x="65.07" y="12.96"/>
  </clipPath>
  <clipPath id="p074ef43b04">
   <rect height="299.7" width="403.85" x="519.19" y="12.96"/>
  </clipPath>
 </defs>
</svg>
