<?xml version="1.0" encoding="utf-8" standalone="no"?>
<!DOCTYPE svg PUBLIC "-//W3C//DTD SVG 1.1//EN"
  "http://www.w3.org/Graphics/SVG/1.1/DTD/svg11.dtd">
<svg height="288pt" version="1.1" viewBox="0 0 720 288" width="720pt" xmlns="http://www.w3.org/2000/svg" xmlns:xlink="http://www.w3.org/1999/xlink">
 <metadata>
  <rdf:RDF xmlns:cc="http://creativecommons.org/ns#" xmlns:dc="http://purl.org/dc/elements/1.1/" xmlns:rdf="http://www.w3.org/1999/02/22-rdf-syntax-ns#">
   <cc:Work>
    <dc:type rdf:resource="http://purl.org/dc/dcmitype/StillImage"/>
    <dc:date>2021-10-15T15:08:23.213447</dc:date>
    <dc:format>image/svg+xml</dc:format>
    <dc:creator>
     <cc:Agent>
      <dc:title>Matplotlib v3.4.2, https://matplotlib.org/</dc:title>
     </cc:Agent>
    </dc:creator>
   </cc:Work>
  </rdf:RDF>
 </metadata>
 <defs>
  <style type="text/css">*{stroke-linecap:butt;stroke-linejoin:round;}</style>
 </defs>
 <g id="figure_1">
  <g id="patch_1">
   <path d="M 0 288 
L 720 288 
L 720 0 
L 0 0 
z
" style="fill:#ffffff;"/>
  </g>
  <g id="axes_1">
   <g id="patch_2">
    <path d="M 65.12625 240.66 
L 360.948125 240.66 
L 360.948125 13.725499 
L 65.12625 13.725499 
z
" style="fill:#eaeaf2;"/>
   </g>
   <g id="matplotlib.axis_1">
    <g id="xtick_1">
     <g id="line2d_1">
      <path clip-path="url(#pb49a62b814)" d="M 78.572699 240.66 
L 78.572699 13.725499 
" style="fill:none;stroke:#ffffff;stroke-linecap:round;"/>
     </g>
     <g id="text_1">
      <!-- 0 -->
      <g style="fill:#262626;" transform="translate(75.514183 258.033594)scale(0.11 -0.11)">
       <defs>
        <path d="M 266 2259 
Q 266 3072 433 3567 
Q 600 4063 929 4331 
Q 1259 4600 1759 4600 
Q 2128 4600 2406 4451 
Q 2684 4303 2865 4023 
Q 3047 3744 3150 3342 
Q 3253 2941 3253 2259 
Q 3253 1453 3087 958 
Q 2922 463 2592 192 
Q 2263 -78 1759 -78 
Q 1097 -78 719 397 
Q 266 969 266 2259 
z
M 844 2259 
Q 844 1131 1108 757 
Q 1372 384 1759 384 
Q 2147 384 2411 759 
Q 2675 1134 2675 2259 
Q 2675 3391 2411 3762 
Q 2147 4134 1753 4134 
Q 1366 4134 1134 3806 
Q 844 3388 844 2259 
z
" id="ArialMT-30" transform="scale(0.015625)"/>
       </defs>
       <use xlink:href="#ArialMT-30"/>
      </g>
     </g>
    </g>
    <g id="xtick_2">
     <g id="line2d_2">
      <path clip-path="url(#pb49a62b814)" d="M 138.467794 240.66 
L 138.467794 13.725499 
" style="fill:none;stroke:#ffffff;stroke-linecap:round;"/>
     </g>
     <g id="text_2">
      <!-- 100 -->
      <g style="fill:#262626;" transform="translate(129.292247 258.033594)scale(0.11 -0.11)">
       <defs>
        <path d="M 2384 0 
L 1822 0 
L 1822 3584 
Q 1619 3391 1289 3197 
Q 959 3003 697 2906 
L 697 3450 
Q 1169 3672 1522 3987 
Q 1875 4303 2022 4600 
L 2384 4600 
L 2384 0 
z
" id="ArialMT-31" transform="scale(0.015625)"/>
       </defs>
       <use xlink:href="#ArialMT-31"/>
       <use x="55.615234" xlink:href="#ArialMT-30"/>
       <use x="111.230469" xlink:href="#ArialMT-30"/>
      </g>
     </g>
    </g>
    <g id="xtick_3">
     <g id="line2d_3">
      <path clip-path="url(#pb49a62b814)" d="M 198.362889 240.66 
L 198.362889 13.725499 
" style="fill:none;stroke:#ffffff;stroke-linecap:round;"/>
     </g>
     <g id="text_3">
      <!-- 200 -->
      <g style="fill:#262626;" transform="translate(189.187342 258.033594)scale(0.11 -0.11)">
       <defs>
        <path d="M 3222 541 
L 3222 0 
L 194 0 
Q 188 203 259 391 
Q 375 700 629 1000 
Q 884 1300 1366 1694 
Q 2113 2306 2375 2664 
Q 2638 3022 2638 3341 
Q 2638 3675 2398 3904 
Q 2159 4134 1775 4134 
Q 1369 4134 1125 3890 
Q 881 3647 878 3216 
L 300 3275 
Q 359 3922 746 4261 
Q 1134 4600 1788 4600 
Q 2447 4600 2831 4234 
Q 3216 3869 3216 3328 
Q 3216 3053 3103 2787 
Q 2991 2522 2730 2228 
Q 2469 1934 1863 1422 
Q 1356 997 1212 845 
Q 1069 694 975 541 
L 3222 541 
z
" id="ArialMT-32" transform="scale(0.015625)"/>
       </defs>
       <use xlink:href="#ArialMT-32"/>
       <use x="55.615234" xlink:href="#ArialMT-30"/>
       <use x="111.230469" xlink:href="#ArialMT-30"/>
      </g>
     </g>
    </g>
    <g id="xtick_4">
     <g id="line2d_4">
      <path clip-path="url(#pb49a62b814)" d="M 258.257984 240.66 
L 258.257984 13.725499 
" style="fill:none;stroke:#ffffff;stroke-linecap:round;"/>
     </g>
     <g id="text_4">
      <!-- 300 -->
      <g style="fill:#262626;" transform="translate(249.082437 258.033594)scale(0.11 -0.11)">
       <defs>
        <path d="M 269 1209 
L 831 1284 
Q 928 806 1161 595 
Q 1394 384 1728 384 
Q 2125 384 2398 659 
Q 2672 934 2672 1341 
Q 2672 1728 2419 1979 
Q 2166 2231 1775 2231 
Q 1616 2231 1378 2169 
L 1441 2663 
Q 1497 2656 1531 2656 
Q 1891 2656 2178 2843 
Q 2466 3031 2466 3422 
Q 2466 3731 2256 3934 
Q 2047 4138 1716 4138 
Q 1388 4138 1169 3931 
Q 950 3725 888 3313 
L 325 3413 
Q 428 3978 793 4289 
Q 1159 4600 1703 4600 
Q 2078 4600 2393 4439 
Q 2709 4278 2876 4000 
Q 3044 3722 3044 3409 
Q 3044 3113 2884 2869 
Q 2725 2625 2413 2481 
Q 2819 2388 3044 2092 
Q 3269 1797 3269 1353 
Q 3269 753 2831 336 
Q 2394 -81 1725 -81 
Q 1122 -81 723 278 
Q 325 638 269 1209 
z
" id="ArialMT-33" transform="scale(0.015625)"/>
       </defs>
       <use xlink:href="#ArialMT-33"/>
       <use x="55.615234" xlink:href="#ArialMT-30"/>
       <use x="111.230469" xlink:href="#ArialMT-30"/>
      </g>
     </g>
    </g>
    <g id="xtick_5">
     <g id="line2d_5">
      <path clip-path="url(#pb49a62b814)" d="M 318.15308 240.66 
L 318.15308 13.725499 
" style="fill:none;stroke:#ffffff;stroke-linecap:round;"/>
     </g>
     <g id="text_5">
      <!-- 400 -->
      <g style="fill:#262626;" transform="translate(308.977533 258.033594)scale(0.11 -0.11)">
       <defs>
        <path d="M 2069 0 
L 2069 1097 
L 81 1097 
L 81 1613 
L 2172 4581 
L 2631 4581 
L 2631 1613 
L 3250 1613 
L 3250 1097 
L 2631 1097 
L 2631 0 
L 2069 0 
z
M 2069 1613 
L 2069 3678 
L 634 1613 
L 2069 1613 
z
" id="ArialMT-34" transform="scale(0.015625)"/>
       </defs>
       <use xlink:href="#ArialMT-34"/>
       <use x="55.615234" xlink:href="#ArialMT-30"/>
       <use x="111.230469" xlink:href="#ArialMT-30"/>
      </g>
     </g>
    </g>
    <g id="text_6">
     <!-- Samples -->
     <g style="fill:#262626;" transform="translate(189.694375 272.955469)scale(0.12 -0.12)">
      <defs>
       <path d="M 288 1472 
L 859 1522 
Q 900 1178 1048 958 
Q 1197 738 1509 602 
Q 1822 466 2213 466 
Q 2559 466 2825 569 
Q 3091 672 3220 851 
Q 3350 1031 3350 1244 
Q 3350 1459 3225 1620 
Q 3100 1781 2813 1891 
Q 2628 1963 1997 2114 
Q 1366 2266 1113 2400 
Q 784 2572 623 2826 
Q 463 3081 463 3397 
Q 463 3744 659 4045 
Q 856 4347 1234 4503 
Q 1613 4659 2075 4659 
Q 2584 4659 2973 4495 
Q 3363 4331 3572 4012 
Q 3781 3694 3797 3291 
L 3216 3247 
Q 3169 3681 2898 3903 
Q 2628 4125 2100 4125 
Q 1550 4125 1298 3923 
Q 1047 3722 1047 3438 
Q 1047 3191 1225 3031 
Q 1400 2872 2139 2705 
Q 2878 2538 3153 2413 
Q 3553 2228 3743 1945 
Q 3934 1663 3934 1294 
Q 3934 928 3725 604 
Q 3516 281 3123 101 
Q 2731 -78 2241 -78 
Q 1619 -78 1198 103 
Q 778 284 539 648 
Q 300 1013 288 1472 
z
" id="ArialMT-53" transform="scale(0.015625)"/>
       <path d="M 2588 409 
Q 2275 144 1986 34 
Q 1697 -75 1366 -75 
Q 819 -75 525 192 
Q 231 459 231 875 
Q 231 1119 342 1320 
Q 453 1522 633 1644 
Q 813 1766 1038 1828 
Q 1203 1872 1538 1913 
Q 2219 1994 2541 2106 
Q 2544 2222 2544 2253 
Q 2544 2597 2384 2738 
Q 2169 2928 1744 2928 
Q 1347 2928 1158 2789 
Q 969 2650 878 2297 
L 328 2372 
Q 403 2725 575 2942 
Q 747 3159 1072 3276 
Q 1397 3394 1825 3394 
Q 2250 3394 2515 3294 
Q 2781 3194 2906 3042 
Q 3031 2891 3081 2659 
Q 3109 2516 3109 2141 
L 3109 1391 
Q 3109 606 3145 398 
Q 3181 191 3288 0 
L 2700 0 
Q 2613 175 2588 409 
z
M 2541 1666 
Q 2234 1541 1622 1453 
Q 1275 1403 1131 1340 
Q 988 1278 909 1158 
Q 831 1038 831 891 
Q 831 666 1001 516 
Q 1172 366 1500 366 
Q 1825 366 2078 508 
Q 2331 650 2450 897 
Q 2541 1088 2541 1459 
L 2541 1666 
z
" id="ArialMT-61" transform="scale(0.015625)"/>
       <path d="M 422 0 
L 422 3319 
L 925 3319 
L 925 2853 
Q 1081 3097 1340 3245 
Q 1600 3394 1931 3394 
Q 2300 3394 2536 3241 
Q 2772 3088 2869 2813 
Q 3263 3394 3894 3394 
Q 4388 3394 4653 3120 
Q 4919 2847 4919 2278 
L 4919 0 
L 4359 0 
L 4359 2091 
Q 4359 2428 4304 2576 
Q 4250 2725 4106 2815 
Q 3963 2906 3769 2906 
Q 3419 2906 3187 2673 
Q 2956 2441 2956 1928 
L 2956 0 
L 2394 0 
L 2394 2156 
Q 2394 2531 2256 2718 
Q 2119 2906 1806 2906 
Q 1569 2906 1367 2781 
Q 1166 2656 1075 2415 
Q 984 2175 984 1722 
L 984 0 
L 422 0 
z
" id="ArialMT-6d" transform="scale(0.015625)"/>
       <path d="M 422 -1272 
L 422 3319 
L 934 3319 
L 934 2888 
Q 1116 3141 1344 3267 
Q 1572 3394 1897 3394 
Q 2322 3394 2647 3175 
Q 2972 2956 3137 2557 
Q 3303 2159 3303 1684 
Q 3303 1175 3120 767 
Q 2938 359 2589 142 
Q 2241 -75 1856 -75 
Q 1575 -75 1351 44 
Q 1128 163 984 344 
L 984 -1272 
L 422 -1272 
z
M 931 1641 
Q 931 1000 1190 694 
Q 1450 388 1819 388 
Q 2194 388 2461 705 
Q 2728 1022 2728 1688 
Q 2728 2322 2467 2637 
Q 2206 2953 1844 2953 
Q 1484 2953 1207 2617 
Q 931 2281 931 1641 
z
" id="ArialMT-70" transform="scale(0.015625)"/>
       <path d="M 409 0 
L 409 4581 
L 972 4581 
L 972 0 
L 409 0 
z
" id="ArialMT-6c" transform="scale(0.015625)"/>
       <path d="M 2694 1069 
L 3275 997 
Q 3138 488 2766 206 
Q 2394 -75 1816 -75 
Q 1088 -75 661 373 
Q 234 822 234 1631 
Q 234 2469 665 2931 
Q 1097 3394 1784 3394 
Q 2450 3394 2872 2941 
Q 3294 2488 3294 1666 
Q 3294 1616 3291 1516 
L 816 1516 
Q 847 969 1125 678 
Q 1403 388 1819 388 
Q 2128 388 2347 550 
Q 2566 713 2694 1069 
z
M 847 1978 
L 2700 1978 
Q 2663 2397 2488 2606 
Q 2219 2931 1791 2931 
Q 1403 2931 1139 2672 
Q 875 2413 847 1978 
z
" id="ArialMT-65" transform="scale(0.015625)"/>
       <path d="M 197 991 
L 753 1078 
Q 800 744 1014 566 
Q 1228 388 1613 388 
Q 2000 388 2187 545 
Q 2375 703 2375 916 
Q 2375 1106 2209 1216 
Q 2094 1291 1634 1406 
Q 1016 1563 777 1677 
Q 538 1791 414 1992 
Q 291 2194 291 2438 
Q 291 2659 392 2848 
Q 494 3038 669 3163 
Q 800 3259 1026 3326 
Q 1253 3394 1513 3394 
Q 1903 3394 2198 3281 
Q 2494 3169 2634 2976 
Q 2775 2784 2828 2463 
L 2278 2388 
Q 2241 2644 2061 2787 
Q 1881 2931 1553 2931 
Q 1166 2931 1000 2803 
Q 834 2675 834 2503 
Q 834 2394 903 2306 
Q 972 2216 1119 2156 
Q 1203 2125 1616 2013 
Q 2213 1853 2448 1751 
Q 2684 1650 2818 1456 
Q 2953 1263 2953 975 
Q 2953 694 2789 445 
Q 2625 197 2315 61 
Q 2006 -75 1616 -75 
Q 969 -75 630 194 
Q 291 463 197 991 
z
" id="ArialMT-73" transform="scale(0.015625)"/>
      </defs>
      <use xlink:href="#ArialMT-53"/>
      <use x="66.699219" xlink:href="#ArialMT-61"/>
      <use x="122.314453" xlink:href="#ArialMT-6d"/>
      <use x="205.615234" xlink:href="#ArialMT-70"/>
      <use x="261.230469" xlink:href="#ArialMT-6c"/>
      <use x="283.447266" xlink:href="#ArialMT-65"/>
      <use x="339.0625" xlink:href="#ArialMT-73"/>
     </g>
    </g>
   </g>
   <g id="matplotlib.axis_2">
    <g id="ytick_1">
     <g id="line2d_6">
      <path clip-path="url(#pb49a62b814)" d="M 65.12625 236.59014 
L 360.948125 236.59014 
" style="fill:none;stroke:#ffffff;stroke-linecap:round;"/>
     </g>
     <g id="text_7">
      <!-- −1.00 -->
      <g style="fill:#262626;" transform="translate(27.794531 240.526937)scale(0.11 -0.11)">
       <defs>
        <path d="M 3381 1997 
L 356 1997 
L 356 2522 
L 3381 2522 
L 3381 1997 
z
" id="ArialMT-2212" transform="scale(0.015625)"/>
        <path d="M 581 0 
L 581 641 
L 1222 641 
L 1222 0 
L 581 0 
z
" id="ArialMT-2e" transform="scale(0.015625)"/>
       </defs>
       <use xlink:href="#ArialMT-2212"/>
       <use x="58.398438" xlink:href="#ArialMT-31"/>
       <use x="114.013672" xlink:href="#ArialMT-2e"/>
       <use x="141.796875" xlink:href="#ArialMT-30"/>
       <use x="197.412109" xlink:href="#ArialMT-30"/>
      </g>
     </g>
    </g>
    <g id="ytick_2">
     <g id="line2d_7">
      <path clip-path="url(#pb49a62b814)" d="M 65.12625 209.14069 
L 360.948125 209.14069 
" style="fill:none;stroke:#ffffff;stroke-linecap:round;"/>
     </g>
     <g id="text_8">
      <!-- −0.75 -->
      <g style="fill:#262626;" transform="translate(27.794531 213.077487)scale(0.11 -0.11)">
       <defs>
        <path d="M 303 3981 
L 303 4522 
L 3269 4522 
L 3269 4084 
Q 2831 3619 2401 2847 
Q 1972 2075 1738 1259 
Q 1569 684 1522 0 
L 944 0 
Q 953 541 1156 1306 
Q 1359 2072 1739 2783 
Q 2119 3494 2547 3981 
L 303 3981 
z
" id="ArialMT-37" transform="scale(0.015625)"/>
        <path d="M 266 1200 
L 856 1250 
Q 922 819 1161 601 
Q 1400 384 1738 384 
Q 2144 384 2425 690 
Q 2706 997 2706 1503 
Q 2706 1984 2436 2262 
Q 2166 2541 1728 2541 
Q 1456 2541 1237 2417 
Q 1019 2294 894 2097 
L 366 2166 
L 809 4519 
L 3088 4519 
L 3088 3981 
L 1259 3981 
L 1013 2750 
Q 1425 3038 1878 3038 
Q 2478 3038 2890 2622 
Q 3303 2206 3303 1553 
Q 3303 931 2941 478 
Q 2500 -78 1738 -78 
Q 1113 -78 717 272 
Q 322 622 266 1200 
z
" id="ArialMT-35" transform="scale(0.015625)"/>
       </defs>
       <use xlink:href="#ArialMT-2212"/>
       <use x="58.398438" xlink:href="#ArialMT-30"/>
       <use x="114.013672" xlink:href="#ArialMT-2e"/>
       <use x="141.796875" xlink:href="#ArialMT-37"/>
       <use x="197.412109" xlink:href="#ArialMT-35"/>
      </g>
     </g>
    </g>
    <g id="ytick_3">
     <g id="line2d_8">
      <path clip-path="url(#pb49a62b814)" d="M 65.12625 181.69124 
L 360.948125 181.69124 
" style="fill:none;stroke:#ffffff;stroke-linecap:round;"/>
     </g>
     <g id="text_9">
      <!-- −0.50 -->
      <g style="fill:#262626;" transform="translate(27.794531 185.628037)scale(0.11 -0.11)">
       <use xlink:href="#ArialMT-2212"/>
       <use x="58.398438" xlink:href="#ArialMT-30"/>
       <use x="114.013672" xlink:href="#ArialMT-2e"/>
       <use x="141.796875" xlink:href="#ArialMT-35"/>
       <use x="197.412109" xlink:href="#ArialMT-30"/>
      </g>
     </g>
    </g>
    <g id="ytick_4">
     <g id="line2d_9">
      <path clip-path="url(#pb49a62b814)" d="M 65.12625 154.24179 
L 360.948125 154.24179 
" style="fill:none;stroke:#ffffff;stroke-linecap:round;"/>
     </g>
     <g id="text_10">
      <!-- −0.25 -->
      <g style="fill:#262626;" transform="translate(27.794531 158.178587)scale(0.11 -0.11)">
       <use xlink:href="#ArialMT-2212"/>
       <use x="58.398438" xlink:href="#ArialMT-30"/>
       <use x="114.013672" xlink:href="#ArialMT-2e"/>
       <use x="141.796875" xlink:href="#ArialMT-32"/>
       <use x="197.412109" xlink:href="#ArialMT-35"/>
      </g>
     </g>
    </g>
    <g id="ytick_5">
     <g id="line2d_10">
      <path clip-path="url(#pb49a62b814)" d="M 65.12625 126.79234 
L 360.948125 126.79234 
" style="fill:none;stroke:#ffffff;stroke-linecap:round;"/>
     </g>
     <g id="text_11">
      <!-- 0.00 -->
      <g style="fill:#262626;" transform="translate(34.219219 130.729137)scale(0.11 -0.11)">
       <use xlink:href="#ArialMT-30"/>
       <use x="55.615234" xlink:href="#ArialMT-2e"/>
       <use x="83.398438" xlink:href="#ArialMT-30"/>
       <use x="139.013672" xlink:href="#ArialMT-30"/>
      </g>
     </g>
    </g>
    <g id="ytick_6">
     <g id="line2d_11">
      <path clip-path="url(#pb49a62b814)" d="M 65.12625 99.34289 
L 360.948125 99.34289 
" style="fill:none;stroke:#ffffff;stroke-linecap:round;"/>
     </g>
     <g id="text_12">
      <!-- 0.25 -->
      <g style="fill:#262626;" transform="translate(34.219219 103.279687)scale(0.11 -0.11)">
       <use xlink:href="#ArialMT-30"/>
       <use x="55.615234" xlink:href="#ArialMT-2e"/>
       <use x="83.398438" xlink:href="#ArialMT-32"/>
       <use x="139.013672" xlink:href="#ArialMT-35"/>
      </g>
     </g>
    </g>
    <g id="ytick_7">
     <g id="line2d_12">
      <path clip-path="url(#pb49a62b814)" d="M 65.12625 71.89344 
L 360.948125 71.89344 
" style="fill:none;stroke:#ffffff;stroke-linecap:round;"/>
     </g>
     <g id="text_13">
      <!-- 0.50 -->
      <g style="fill:#262626;" transform="translate(34.219219 75.830237)scale(0.11 -0.11)">
       <use xlink:href="#ArialMT-30"/>
       <use x="55.615234" xlink:href="#ArialMT-2e"/>
       <use x="83.398438" xlink:href="#ArialMT-35"/>
       <use x="139.013672" xlink:href="#ArialMT-30"/>
      </g>
     </g>
    </g>
    <g id="ytick_8">
     <g id="line2d_13">
      <path clip-path="url(#pb49a62b814)" d="M 65.12625 44.44399 
L 360.948125 44.44399 
" style="fill:none;stroke:#ffffff;stroke-linecap:round;"/>
     </g>
     <g id="text_14">
      <!-- 0.75 -->
      <g style="fill:#262626;" transform="translate(34.219219 48.380787)scale(0.11 -0.11)">
       <use xlink:href="#ArialMT-30"/>
       <use x="55.615234" xlink:href="#ArialMT-2e"/>
       <use x="83.398438" xlink:href="#ArialMT-37"/>
       <use x="139.013672" xlink:href="#ArialMT-35"/>
      </g>
     </g>
    </g>
    <g id="ytick_9">
     <g id="line2d_14">
      <path clip-path="url(#pb49a62b814)" d="M 65.12625 16.99454 
L 360.948125 16.99454 
" style="fill:none;stroke:#ffffff;stroke-linecap:round;"/>
     </g>
     <g id="text_15">
      <!-- 1.00 -->
      <g style="fill:#262626;" transform="translate(34.219219 20.931337)scale(0.11 -0.11)">
       <use xlink:href="#ArialMT-31"/>
       <use x="55.615234" xlink:href="#ArialMT-2e"/>
       <use x="83.398438" xlink:href="#ArialMT-30"/>
       <use x="139.013672" xlink:href="#ArialMT-30"/>
      </g>
     </g>
    </g>
    <g id="text_16">
     <!-- Current in (A) -->
     <g style="fill:#262626;" transform="translate(21.268906 163.199312)rotate(-90)scale(0.12 -0.12)">
      <defs>
       <path d="M 3763 1606 
L 4369 1453 
Q 4178 706 3683 314 
Q 3188 -78 2472 -78 
Q 1731 -78 1267 223 
Q 803 525 561 1097 
Q 319 1669 319 2325 
Q 319 3041 592 3573 
Q 866 4106 1370 4382 
Q 1875 4659 2481 4659 
Q 3169 4659 3637 4309 
Q 4106 3959 4291 3325 
L 3694 3184 
Q 3534 3684 3231 3912 
Q 2928 4141 2469 4141 
Q 1941 4141 1586 3887 
Q 1231 3634 1087 3207 
Q 944 2781 944 2328 
Q 944 1744 1114 1308 
Q 1284 872 1643 656 
Q 2003 441 2422 441 
Q 2931 441 3284 734 
Q 3638 1028 3763 1606 
z
" id="ArialMT-43" transform="scale(0.015625)"/>
       <path d="M 2597 0 
L 2597 488 
Q 2209 -75 1544 -75 
Q 1250 -75 995 37 
Q 741 150 617 320 
Q 494 491 444 738 
Q 409 903 409 1263 
L 409 3319 
L 972 3319 
L 972 1478 
Q 972 1038 1006 884 
Q 1059 663 1231 536 
Q 1403 409 1656 409 
Q 1909 409 2131 539 
Q 2353 669 2445 892 
Q 2538 1116 2538 1541 
L 2538 3319 
L 3100 3319 
L 3100 0 
L 2597 0 
z
" id="ArialMT-75" transform="scale(0.015625)"/>
       <path d="M 416 0 
L 416 3319 
L 922 3319 
L 922 2816 
Q 1116 3169 1280 3281 
Q 1444 3394 1641 3394 
Q 1925 3394 2219 3213 
L 2025 2691 
Q 1819 2813 1613 2813 
Q 1428 2813 1281 2702 
Q 1134 2591 1072 2394 
Q 978 2094 978 1738 
L 978 0 
L 416 0 
z
" id="ArialMT-72" transform="scale(0.015625)"/>
       <path d="M 422 0 
L 422 3319 
L 928 3319 
L 928 2847 
Q 1294 3394 1984 3394 
Q 2284 3394 2536 3286 
Q 2788 3178 2913 3003 
Q 3038 2828 3088 2588 
Q 3119 2431 3119 2041 
L 3119 0 
L 2556 0 
L 2556 2019 
Q 2556 2363 2490 2533 
Q 2425 2703 2258 2804 
Q 2091 2906 1866 2906 
Q 1506 2906 1245 2678 
Q 984 2450 984 1813 
L 984 0 
L 422 0 
z
" id="ArialMT-6e" transform="scale(0.015625)"/>
       <path d="M 1650 503 
L 1731 6 
Q 1494 -44 1306 -44 
Q 1000 -44 831 53 
Q 663 150 594 308 
Q 525 466 525 972 
L 525 2881 
L 113 2881 
L 113 3319 
L 525 3319 
L 525 4141 
L 1084 4478 
L 1084 3319 
L 1650 3319 
L 1650 2881 
L 1084 2881 
L 1084 941 
Q 1084 700 1114 631 
Q 1144 563 1211 522 
Q 1278 481 1403 481 
Q 1497 481 1650 503 
z
" id="ArialMT-74" transform="scale(0.015625)"/>
       <path id="ArialMT-20" transform="scale(0.015625)"/>
       <path d="M 425 3934 
L 425 4581 
L 988 4581 
L 988 3934 
L 425 3934 
z
M 425 0 
L 425 3319 
L 988 3319 
L 988 0 
L 425 0 
z
" id="ArialMT-69" transform="scale(0.015625)"/>
       <path d="M 1497 -1347 
Q 1031 -759 709 28 
Q 388 816 388 1659 
Q 388 2403 628 3084 
Q 909 3875 1497 4659 
L 1900 4659 
Q 1522 4009 1400 3731 
Q 1209 3300 1100 2831 
Q 966 2247 966 1656 
Q 966 153 1900 -1347 
L 1497 -1347 
z
" id="ArialMT-28" transform="scale(0.015625)"/>
       <path d="M -9 0 
L 1750 4581 
L 2403 4581 
L 4278 0 
L 3588 0 
L 3053 1388 
L 1138 1388 
L 634 0 
L -9 0 
z
M 1313 1881 
L 2866 1881 
L 2388 3150 
Q 2169 3728 2063 4100 
Q 1975 3659 1816 3225 
L 1313 1881 
z
" id="ArialMT-41" transform="scale(0.015625)"/>
       <path d="M 791 -1347 
L 388 -1347 
Q 1322 153 1322 1656 
Q 1322 2244 1188 2822 
Q 1081 3291 891 3722 
Q 769 4003 388 4659 
L 791 4659 
Q 1378 3875 1659 3084 
Q 1900 2403 1900 1659 
Q 1900 816 1576 28 
Q 1253 -759 791 -1347 
z
" id="ArialMT-29" transform="scale(0.015625)"/>
      </defs>
      <use xlink:href="#ArialMT-43"/>
      <use x="72.216797" xlink:href="#ArialMT-75"/>
      <use x="127.832031" xlink:href="#ArialMT-72"/>
      <use x="161.132812" xlink:href="#ArialMT-72"/>
      <use x="194.433594" xlink:href="#ArialMT-65"/>
      <use x="250.048828" xlink:href="#ArialMT-6e"/>
      <use x="305.664062" xlink:href="#ArialMT-74"/>
      <use x="333.447266" xlink:href="#ArialMT-20"/>
      <use x="361.230469" xlink:href="#ArialMT-69"/>
      <use x="383.447266" xlink:href="#ArialMT-6e"/>
      <use x="439.0625" xlink:href="#ArialMT-20"/>
      <use x="466.845703" xlink:href="#ArialMT-28"/>
      <use x="500.146484" xlink:href="#ArialMT-41"/>
      <use x="566.845703" xlink:href="#ArialMT-29"/>
     </g>
    </g>
   </g>
   <g id="line2d_15">
    <path clip-path="url(#pb49a62b814)" d="M 78.572699 127.829225 
L 79.17165 126.635147 
L 79.770601 126.635147 
L 80.369552 124.289439 
L 81.567454 124.232842 
L 82.166405 122.537233 
L 82.765356 121.88006 
L 83.364306 121.88006 
L 83.963257 120.763803 
L 84.562208 117.775071 
L 85.161159 117.153271 
L 85.76011 113.055357 
L 86.359061 112.468931 
L 86.958012 109.515572 
L 87.556963 105.382285 
L 88.155914 104.166982 
L 88.754865 101.807126 
L 89.353816 100.641346 
L 89.952767 100.627197 
L 90.551718 95.907484 
L 91.150669 88.792538 
L 92.348571 86.404383 
L 92.947522 78.12366 
L 93.546473 73.382723 
L 94.145424 71.022863 
L 94.744375 65.080776 
L 95.942276 57.987054 
L 96.541227 55.60597 
L 97.140178 45.558891 
L 97.739129 44.951244 
L 98.33808 44.937095 
L 98.937031 43.757168 
L 99.535982 39.0233 
L 100.134933 29.583873 
L 104.926541 29.598022 
L 106.124443 58.100247 
L 106.723394 68.797426 
L 107.921295 84.836118 
L 108.520246 85.408395 
L 109.718148 96.126795 
L 110.317099 97.92145 
L 111.515001 105.65112 
L 112.113952 108.018053 
L 112.712903 118.128803 
L 113.311854 118.71523 
L 113.910805 119.916382 
L 115.108707 119.980054 
L 115.707658 123.526914 
L 116.306609 125.865547 
L 116.90556 125.865547 
L 117.504511 127.109148 
L 118.103462 127.109148 
L 118.702413 127.6885 
L 119.301364 127.6885 
L 119.900315 129.440706 
L 120.499265 129.440706 
L 121.098216 130.70553 
L 122.296118 130.70553 
L 122.895069 131.878384 
L 123.49402 134.238241 
L 124.092971 143.190288 
L 124.691922 144.977866 
L 125.889824 147.337724 
L 126.488775 149.754177 
L 127.087726 150.333531 
L 127.686677 152.135259 
L 128.285628 155.703344 
L 128.884579 158.056126 
L 129.48353 162.253084 
L 130.082481 171.141458 
L 130.681432 172.35676 
L 131.280383 175.896547 
L 131.879334 177.097697 
L 133.077235 191.355887 
L 133.676186 197.898553 
L 134.275137 199.092629 
L 134.874088 205.642369 
L 135.473039 207.408725 
L 136.07199 210.383306 
L 136.670941 213.96554 
L 137.269892 221.080486 
L 137.868843 224.655645 
L 138.467794 224.66272 
L 139.066745 228.244953 
L 143.259402 228.244953 
L 143.858353 206.928421 
L 144.457304 203.360336 
L 145.056254 186.756442 
L 146.254156 177.274564 
L 146.853107 176.673989 
L 147.452058 164.825181 
L 148.051009 163.051751 
L 148.64996 158.317888 
L 149.248911 155.343304 
L 149.847862 150.015939 
L 150.446813 148.232036 
L 151.045764 139.322717 
L 151.644715 138.139112 
L 152.243666 133.380906 
L 152.842617 131.603799 
L 153.441568 126.241898 
L 154.040519 125.068486 
L 156.436323 125.027712 
L 157.035274 123.257401 
L 157.634224 122.67749 
L 158.233175 122.660501 
L 159.431077 120.272904 
L 160.030028 120.272904 
L 160.628979 119.699789 
L 161.22793 117.922682 
L 161.826881 117.902295 
L 162.425832 112.543791 
L 163.024783 110.773481 
L 163.623734 110.766685 
L 164.821636 108.396077 
L 165.420587 100.666965 
L 166.019538 100.076861 
L 167.21744 92.934454 
L 167.816391 91.754246 
L 168.415342 88.773147 
L 169.014293 84.622036 
L 169.613244 82.254823 
L 170.212194 66.806792 
L 170.811145 65.623187 
L 171.410096 65.616394 
L 172.009047 58.490977 
L 172.607998 54.92657 
L 173.8059 45.420351 
L 174.404851 43.049739 
L 175.003802 37.698034 
L 175.602753 36.514429 
L 176.201704 36.507636 
L 176.800655 24.040703 
L 180.993312 24.040703 
L 181.592263 29.355033 
L 182.191213 43.595671 
L 182.790164 60.803822 
L 183.389115 69.699547 
L 184.587017 75.631167 
L 185.185968 91.648913 
L 185.784919 91.652313 
L 186.38387 92.239017 
L 186.982821 94.016126 
L 187.581772 103.501956 
L 188.779674 104.695755 
L 189.378625 119.519703 
L 189.977576 120.116602 
L 190.576527 122.477017 
L 191.175478 122.480415 
L 191.774429 124.254124 
L 192.37338 124.823841 
L 193.571282 124.834034 
L 194.170233 126.044822 
L 194.769183 129.59224 
L 195.368134 129.59224 
L 195.967085 130.765652 
L 197.164987 131.932268 
L 197.763938 133.126067 
L 198.96184 133.126067 
L 199.560791 136.076586 
L 200.159742 137.850294 
L 200.758693 138.464183 
L 201.357644 141.414701 
L 202.555546 143.795503 
L 203.154497 151.48724 
L 203.753448 151.494035 
L 204.352399 152.077343 
L 204.95135 154.464939 
L 205.550301 160.379569 
L 206.149252 167.491394 
L 206.748203 167.504986 
L 207.946104 172.246205 
L 208.545055 179.358029 
L 209.144006 184.692745 
L 209.742957 186.469853 
L 210.341908 190.037656 
L 210.940859 197.742985 
L 211.53981 200.113597 
L 212.138761 205.451709 
L 212.737712 207.225421 
L 213.336663 211.373136 
L 213.935614 212.563533 
L 214.534565 217.318345 
L 215.133516 227.373892 
L 215.732467 230.344795 
L 219.326172 230.344795 
L 219.925123 227.373892 
L 220.524074 199.469125 
L 221.123025 195.904718 
L 221.721976 187.5855 
L 222.320927 181.653884 
L 222.919878 181.06378 
L 223.518829 165.029044 
L 225.315682 161.464637 
L 225.914633 152.551921 
L 226.513584 151.95502 
L 227.112535 151.954235 
L 227.711486 138.896414 
L 228.310437 135.333832 
L 229.508339 132.959039 
L 230.10729 127.611237 
L 230.706241 125.835448 
L 231.305192 124.647659 
L 232.503093 124.640585 
L 233.102044 124.051013 
L 233.700995 124.048655 
L 234.299946 123.458298 
L 234.898897 123.458298 
L 235.497848 121.085864 
L 236.096799 121.078003 
L 236.69575 118.707927 
L 237.893652 118.704783 
L 239.091554 111.578834 
L 239.690505 111.578047 
L 240.289456 109.205613 
L 240.888407 108.019396 
L 241.487358 104.45367 
L 242.086309 103.265881 
L 242.68526 99.706444 
L 243.284211 99.113729 
L 243.883162 91.395063 
L 244.482112 91.394278 
L 245.081063 81.896681 
L 246.278965 75.960877 
L 246.877916 74.179586 
L 247.476867 65.868991 
L 248.075818 59.933193 
L 248.674769 58.151902 
L 249.27372 56.967257 
L 250.471622 39.158279 
L 251.070573 39.155131 
L 251.669524 37.968915 
L 252.268475 33.815978 
L 252.867426 31.438828 
L 258.257984 31.436472 
L 258.856935 48.643301 
L 259.455886 53.390527 
L 260.054837 68.820777 
L 260.653788 79.502237 
L 261.252739 79.503022 
L 261.85169 92.5577 
L 262.450641 96.119495 
L 263.049592 97.897641 
L 263.648543 98.491927 
L 264.247494 103.238369 
L 264.846445 111.545819 
L 265.445396 112.733609 
L 266.044347 119.853269 
L 266.643298 121.038699 
L 267.242249 121.634559 
L 267.8412 124.594993 
L 268.440151 126.971357 
L 269.638052 126.971357 
L 270.237003 128.157574 
L 270.835954 128.161505 
L 271.434905 129.338289 
L 274.42966 129.339075 
L 275.028611 130.528436 
L 275.627562 130.528436 
L 276.226513 131.115649 
L 276.825464 131.115649 
L 277.424415 131.711509 
L 278.023366 142.981751 
L 278.622317 143.578396 
L 279.221268 148.324051 
L 279.820219 149.509482 
L 280.41917 149.512626 
L 281.018121 150.105342 
L 281.617071 152.476203 
L 282.216022 163.75116 
L 282.814973 164.343875 
L 283.413924 166.123595 
L 284.012875 166.125954 
L 284.611826 179.179843 
L 285.210777 181.553063 
L 285.809728 184.519002 
L 286.408679 191.046734 
L 287.00763 191.048304 
L 287.606581 199.948467 
L 288.205532 207.069702 
L 288.804483 207.661629 
L 289.403434 213.595078 
L 290.002385 217.155296 
L 290.601336 218.345445 
L 291.200287 224.278887 
L 291.799238 226.65054 
L 292.398189 227.831252 
L 296.590845 227.831252 
L 297.189796 202.309898 
L 298.387698 185.690284 
L 298.986649 183.314704 
L 299.5856 179.160979 
L 300.184551 162.540576 
L 300.783502 162.539791 
L 301.382453 158.980351 
L 301.981404 157.790991 
L 303.179306 153.042192 
L 303.778257 141.17594 
L 304.377208 138.205008 
L 304.976159 135.832143 
L 305.57511 134.055061 
L 306.17406 129.313895 
L 306.773011 129.313895 
L 307.371962 126.938748 
L 308.569864 126.935325 
L 309.168815 125.759732 
L 309.767766 126.354375 
L 310.366717 125.759732 
L 310.965668 124.575011 
L 311.564619 124.575011 
L 312.16357 123.970099 
L 312.762521 123.970099 
L 313.361472 122.202146 
L 313.960423 122.1953 
L 314.559374 119.819011 
L 315.158325 118.64456 
L 315.757276 118.635431 
L 316.955178 111.5214 
L 317.554129 110.338962 
L 318.15308 110.336679 
L 318.75203 107.963814 
L 319.350981 98.470072 
L 319.949932 92.537336 
L 320.548883 91.349193 
L 321.147834 88.977468 
L 321.746785 84.230596 
L 323.543638 77.110859 
L 324.74154 61.682101 
L 325.340491 59.905019 
L 325.939442 59.90388 
L 326.538393 43.881618 
L 327.137344 39.138168 
L 327.736295 39.137029 
L 328.335246 34.386734 
L 328.934197 32.01387 
L 329.533148 30.830292 
L 330.132099 26.684907 
L 330.731049 26.08798 
L 334.324755 26.08798 
L 334.923706 26.684907 
L 335.522657 54.581762 
L 336.121608 56.363406 
L 336.720559 70.017366 
L 337.31951 72.389091 
L 337.918461 80.699255 
L 338.517412 86.045335 
L 339.116363 89.604061 
L 339.715314 94.355495 
L 340.314265 100.885155 
L 340.913216 102.068735 
L 342.111118 109.789962 
L 342.710069 115.132617 
L 343.90797 119.884052 
L 344.506921 123.448485 
L 345.105872 125.82135 
L 346.303774 125.827055 
L 346.902725 127.00493 
L 347.501676 129.384642 
L 347.501676 129.384642 
" style="fill:none;stroke:#4c72b0;stroke-linecap:round;stroke-width:1.5;"/>
   </g>
   <g id="line2d_16">
    <path clip-path="url(#pb49a62b814)" d="M 78.572699 240.66 
L 78.572699 13.725499 
" style="fill:none;stroke:#ff0000;stroke-dasharray:5.55,2.4;stroke-dashoffset:0;stroke-width:1.5;"/>
   </g>
   <g id="line2d_17">
    <path clip-path="url(#pb49a62b814)" d="M 155.238421 240.66 
L 155.238421 13.725499 
" style="fill:none;stroke:#ff0000;stroke-dasharray:5.55,2.4;stroke-dashoffset:0;stroke-width:1.5;"/>
   </g>
   <g id="line2d_18">
    <path clip-path="url(#pb49a62b814)" d="M 231.904142 240.66 
L 231.904142 13.725499 
" style="fill:none;stroke:#ff0000;stroke-dasharray:5.55,2.4;stroke-dashoffset:0;stroke-width:1.5;"/>
   </g>
   <g id="line2d_19">
    <path clip-path="url(#pb49a62b814)" d="M 308.569864 240.66 
L 308.569864 13.725499 
" style="fill:none;stroke:#ff0000;stroke-dasharray:5.55,2.4;stroke-dashoffset:0;stroke-width:1.5;"/>
   </g>
   <g id="patch_3">
    <path d="M 65.12625 240.66 
L 65.12625 13.725499 
" style="fill:none;stroke:#ffffff;stroke-linecap:square;stroke-linejoin:miter;stroke-width:1.25;"/>
   </g>
   <g id="patch_4">
    <path d="M 360.948125 240.66 
L 360.948125 13.725499 
" style="fill:none;stroke:#ffffff;stroke-linecap:square;stroke-linejoin:miter;stroke-width:1.25;"/>
   </g>
   <g id="patch_5">
    <path d="M 65.12625 240.66 
L 360.948125 240.66 
" style="fill:none;stroke:#ffffff;stroke-linecap:square;stroke-linejoin:miter;stroke-width:1.25;"/>
   </g>
   <g id="patch_6">
    <path d="M 65.12625 13.725499 
L 360.948125 13.725499 
" style="fill:none;stroke:#ffffff;stroke-linecap:square;stroke-linejoin:miter;stroke-width:1.25;"/>
   </g>
  </g>
  <g id="axes_2">
   <g id="patch_7">
    <path d="M 411.218125 240.66 
L 707.04 240.66 
L 707.04 13.725499 
L 411.218125 13.725499 
z
" style="fill:#eaeaf2;"/>
   </g>
   <g id="matplotlib.axis_3">
    <g id="xtick_6">
     <g id="line2d_20">
      <path clip-path="url(#p335057b6f6)" d="M 424.664574 240.66 
L 424.664574 13.725499 
" style="fill:none;stroke:#ffffff;stroke-linecap:round;"/>
     </g>
     <g id="text_17">
      <!-- 0 -->
      <g style="fill:#262626;" transform="translate(421.606058 258.033594)scale(0.11 -0.11)">
       <use xlink:href="#ArialMT-30"/>
      </g>
     </g>
    </g>
    <g id="xtick_7">
     <g id="line2d_21">
      <path clip-path="url(#p335057b6f6)" d="M 467.015594 240.66 
L 467.015594 13.725499 
" style="fill:none;stroke:#ffffff;stroke-linecap:round;"/>
     </g>
     <g id="text_18">
      <!-- 20 -->
      <g style="fill:#262626;" transform="translate(460.898563 258.033594)scale(0.11 -0.11)">
       <use xlink:href="#ArialMT-32"/>
       <use x="55.615234" xlink:href="#ArialMT-30"/>
      </g>
     </g>
    </g>
    <g id="xtick_8">
     <g id="line2d_22">
      <path clip-path="url(#p335057b6f6)" d="M 509.366614 240.66 
L 509.366614 13.725499 
" style="fill:none;stroke:#ffffff;stroke-linecap:round;"/>
     </g>
     <g id="text_19">
      <!-- 40 -->
      <g style="fill:#262626;" transform="translate(503.249583 258.033594)scale(0.11 -0.11)">
       <use xlink:href="#ArialMT-34"/>
       <use x="55.615234" xlink:href="#ArialMT-30"/>
      </g>
     </g>
    </g>
    <g id="xtick_9">
     <g id="line2d_23">
      <path clip-path="url(#p335057b6f6)" d="M 551.717634 240.66 
L 551.717634 13.725499 
" style="fill:none;stroke:#ffffff;stroke-linecap:round;"/>
     </g>
     <g id="text_20">
      <!-- 60 -->
      <g style="fill:#262626;" transform="translate(545.600603 258.033594)scale(0.11 -0.11)">
       <defs>
        <path d="M 3184 3459 
L 2625 3416 
Q 2550 3747 2413 3897 
Q 2184 4138 1850 4138 
Q 1581 4138 1378 3988 
Q 1113 3794 959 3422 
Q 806 3050 800 2363 
Q 1003 2672 1297 2822 
Q 1591 2972 1913 2972 
Q 2475 2972 2870 2558 
Q 3266 2144 3266 1488 
Q 3266 1056 3080 686 
Q 2894 316 2569 119 
Q 2244 -78 1831 -78 
Q 1128 -78 684 439 
Q 241 956 241 2144 
Q 241 3472 731 4075 
Q 1159 4600 1884 4600 
Q 2425 4600 2770 4297 
Q 3116 3994 3184 3459 
z
M 888 1484 
Q 888 1194 1011 928 
Q 1134 663 1356 523 
Q 1578 384 1822 384 
Q 2178 384 2434 671 
Q 2691 959 2691 1453 
Q 2691 1928 2437 2201 
Q 2184 2475 1800 2475 
Q 1419 2475 1153 2201 
Q 888 1928 888 1484 
z
" id="ArialMT-36" transform="scale(0.015625)"/>
       </defs>
       <use xlink:href="#ArialMT-36"/>
       <use x="55.615234" xlink:href="#ArialMT-30"/>
      </g>
     </g>
    </g>
    <g id="xtick_10">
     <g id="line2d_24">
      <path clip-path="url(#p335057b6f6)" d="M 594.068654 240.66 
L 594.068654 13.725499 
" style="fill:none;stroke:#ffffff;stroke-linecap:round;"/>
     </g>
     <g id="text_21">
      <!-- 80 -->
      <g style="fill:#262626;" transform="translate(587.951623 258.033594)scale(0.11 -0.11)">
       <defs>
        <path d="M 1131 2484 
Q 781 2613 612 2850 
Q 444 3088 444 3419 
Q 444 3919 803 4259 
Q 1163 4600 1759 4600 
Q 2359 4600 2725 4251 
Q 3091 3903 3091 3403 
Q 3091 3084 2923 2848 
Q 2756 2613 2416 2484 
Q 2838 2347 3058 2040 
Q 3278 1734 3278 1309 
Q 3278 722 2862 322 
Q 2447 -78 1769 -78 
Q 1091 -78 675 323 
Q 259 725 259 1325 
Q 259 1772 486 2073 
Q 713 2375 1131 2484 
z
M 1019 3438 
Q 1019 3113 1228 2906 
Q 1438 2700 1772 2700 
Q 2097 2700 2305 2904 
Q 2513 3109 2513 3406 
Q 2513 3716 2298 3927 
Q 2084 4138 1766 4138 
Q 1444 4138 1231 3931 
Q 1019 3725 1019 3438 
z
M 838 1322 
Q 838 1081 952 856 
Q 1066 631 1291 507 
Q 1516 384 1775 384 
Q 2178 384 2440 643 
Q 2703 903 2703 1303 
Q 2703 1709 2433 1975 
Q 2163 2241 1756 2241 
Q 1359 2241 1098 1978 
Q 838 1716 838 1322 
z
" id="ArialMT-38" transform="scale(0.015625)"/>
       </defs>
       <use xlink:href="#ArialMT-38"/>
       <use x="55.615234" xlink:href="#ArialMT-30"/>
      </g>
     </g>
    </g>
    <g id="xtick_11">
     <g id="line2d_25">
      <path clip-path="url(#p335057b6f6)" d="M 636.419674 240.66 
L 636.419674 13.725499 
" style="fill:none;stroke:#ffffff;stroke-linecap:round;"/>
     </g>
     <g id="text_22">
      <!-- 100 -->
      <g style="fill:#262626;" transform="translate(627.244127 258.033594)scale(0.11 -0.11)">
       <use xlink:href="#ArialMT-31"/>
       <use x="55.615234" xlink:href="#ArialMT-30"/>
       <use x="111.230469" xlink:href="#ArialMT-30"/>
      </g>
     </g>
    </g>
    <g id="xtick_12">
     <g id="line2d_26">
      <path clip-path="url(#p335057b6f6)" d="M 678.770694 240.66 
L 678.770694 13.725499 
" style="fill:none;stroke:#ffffff;stroke-linecap:round;"/>
     </g>
     <g id="text_23">
      <!-- 120 -->
      <g style="fill:#262626;" transform="translate(669.595147 258.033594)scale(0.11 -0.11)">
       <use xlink:href="#ArialMT-31"/>
       <use x="55.615234" xlink:href="#ArialMT-32"/>
       <use x="111.230469" xlink:href="#ArialMT-30"/>
      </g>
     </g>
    </g>
    <g id="text_24">
     <!-- Samples -->
     <g style="fill:#262626;" transform="translate(535.78625 272.955469)scale(0.12 -0.12)">
      <use xlink:href="#ArialMT-53"/>
      <use x="66.699219" xlink:href="#ArialMT-61"/>
      <use x="122.314453" xlink:href="#ArialMT-6d"/>
      <use x="205.615234" xlink:href="#ArialMT-70"/>
      <use x="261.230469" xlink:href="#ArialMT-6c"/>
      <use x="283.447266" xlink:href="#ArialMT-65"/>
      <use x="339.0625" xlink:href="#ArialMT-73"/>
     </g>
    </g>
   </g>
   <g id="matplotlib.axis_4">
    <g id="ytick_10">
     <g id="line2d_27">
      <path clip-path="url(#p335057b6f6)" d="M 411.218125 230.352713 
L 707.04 230.352713 
" style="fill:none;stroke:#ffffff;stroke-linecap:round;"/>
     </g>
     <g id="text_25">
      <!-- −1.00 -->
      <g style="fill:#262626;" transform="translate(373.886406 234.28951)scale(0.11 -0.11)">
       <use xlink:href="#ArialMT-2212"/>
       <use x="58.398438" xlink:href="#ArialMT-31"/>
       <use x="114.013672" xlink:href="#ArialMT-2e"/>
       <use x="141.796875" xlink:href="#ArialMT-30"/>
       <use x="197.412109" xlink:href="#ArialMT-30"/>
      </g>
     </g>
    </g>
    <g id="ytick_11">
     <g id="line2d_28">
      <path clip-path="url(#p335057b6f6)" d="M 411.218125 204.560923 
L 707.04 204.560923 
" style="fill:none;stroke:#ffffff;stroke-linecap:round;"/>
     </g>
     <g id="text_26">
      <!-- −0.75 -->
      <g style="fill:#262626;" transform="translate(373.886406 208.49772)scale(0.11 -0.11)">
       <use xlink:href="#ArialMT-2212"/>
       <use x="58.398438" xlink:href="#ArialMT-30"/>
       <use x="114.013672" xlink:href="#ArialMT-2e"/>
       <use x="141.796875" xlink:href="#ArialMT-37"/>
       <use x="197.412109" xlink:href="#ArialMT-35"/>
      </g>
     </g>
    </g>
    <g id="ytick_12">
     <g id="line2d_29">
      <path clip-path="url(#p335057b6f6)" d="M 411.218125 178.769133 
L 707.04 178.769133 
" style="fill:none;stroke:#ffffff;stroke-linecap:round;"/>
     </g>
     <g id="text_27">
      <!-- −0.50 -->
      <g style="fill:#262626;" transform="translate(373.886406 182.70593)scale(0.11 -0.11)">
       <use xlink:href="#ArialMT-2212"/>
       <use x="58.398438" xlink:href="#ArialMT-30"/>
       <use x="114.013672" xlink:href="#ArialMT-2e"/>
       <use x="141.796875" xlink:href="#ArialMT-35"/>
       <use x="197.412109" xlink:href="#ArialMT-30"/>
      </g>
     </g>
    </g>
    <g id="ytick_13">
     <g id="line2d_30">
      <path clip-path="url(#p335057b6f6)" d="M 411.218125 152.977344 
L 707.04 152.977344 
" style="fill:none;stroke:#ffffff;stroke-linecap:round;"/>
     </g>
     <g id="text_28">
      <!-- −0.25 -->
      <g style="fill:#262626;" transform="translate(373.886406 156.91414)scale(0.11 -0.11)">
       <use xlink:href="#ArialMT-2212"/>
       <use x="58.398438" xlink:href="#ArialMT-30"/>
       <use x="114.013672" xlink:href="#ArialMT-2e"/>
       <use x="141.796875" xlink:href="#ArialMT-32"/>
       <use x="197.412109" xlink:href="#ArialMT-35"/>
      </g>
     </g>
    </g>
    <g id="ytick_14">
     <g id="line2d_31">
      <path clip-path="url(#p335057b6f6)" d="M 411.218125 127.185554 
L 707.04 127.185554 
" style="fill:none;stroke:#ffffff;stroke-linecap:round;"/>
     </g>
     <g id="text_29">
      <!-- 0.00 -->
      <g style="fill:#262626;" transform="translate(380.311094 131.122351)scale(0.11 -0.11)">
       <use xlink:href="#ArialMT-30"/>
       <use x="55.615234" xlink:href="#ArialMT-2e"/>
       <use x="83.398438" xlink:href="#ArialMT-30"/>
       <use x="139.013672" xlink:href="#ArialMT-30"/>
      </g>
     </g>
    </g>
    <g id="ytick_15">
     <g id="line2d_32">
      <path clip-path="url(#p335057b6f6)" d="M 411.218125 101.393764 
L 707.04 101.393764 
" style="fill:none;stroke:#ffffff;stroke-linecap:round;"/>
     </g>
     <g id="text_30">
      <!-- 0.25 -->
      <g style="fill:#262626;" transform="translate(380.311094 105.330561)scale(0.11 -0.11)">
       <use xlink:href="#ArialMT-30"/>
       <use x="55.615234" xlink:href="#ArialMT-2e"/>
       <use x="83.398438" xlink:href="#ArialMT-32"/>
       <use x="139.013672" xlink:href="#ArialMT-35"/>
      </g>
     </g>
    </g>
    <g id="ytick_16">
     <g id="line2d_33">
      <path clip-path="url(#p335057b6f6)" d="M 411.218125 75.601974 
L 707.04 75.601974 
" style="fill:none;stroke:#ffffff;stroke-linecap:round;"/>
     </g>
     <g id="text_31">
      <!-- 0.50 -->
      <g style="fill:#262626;" transform="translate(380.311094 79.538771)scale(0.11 -0.11)">
       <use xlink:href="#ArialMT-30"/>
       <use x="55.615234" xlink:href="#ArialMT-2e"/>
       <use x="83.398438" xlink:href="#ArialMT-35"/>
       <use x="139.013672" xlink:href="#ArialMT-30"/>
      </g>
     </g>
    </g>
    <g id="ytick_17">
     <g id="line2d_34">
      <path clip-path="url(#p335057b6f6)" d="M 411.218125 49.810185 
L 707.04 49.810185 
" style="fill:none;stroke:#ffffff;stroke-linecap:round;"/>
     </g>
     <g id="text_32">
      <!-- 0.75 -->
      <g style="fill:#262626;" transform="translate(380.311094 53.746982)scale(0.11 -0.11)">
       <use xlink:href="#ArialMT-30"/>
       <use x="55.615234" xlink:href="#ArialMT-2e"/>
       <use x="83.398438" xlink:href="#ArialMT-37"/>
       <use x="139.013672" xlink:href="#ArialMT-35"/>
      </g>
     </g>
    </g>
    <g id="ytick_18">
     <g id="line2d_35">
      <path clip-path="url(#p335057b6f6)" d="M 411.218125 24.018395 
L 707.04 24.018395 
" style="fill:none;stroke:#ffffff;stroke-linecap:round;"/>
     </g>
     <g id="text_33">
      <!-- 1.00 -->
      <g style="fill:#262626;" transform="translate(380.311094 27.955192)scale(0.11 -0.11)">
       <use xlink:href="#ArialMT-31"/>
       <use x="55.615234" xlink:href="#ArialMT-2e"/>
       <use x="83.398438" xlink:href="#ArialMT-30"/>
       <use x="139.013672" xlink:href="#ArialMT-30"/>
      </g>
     </g>
    </g>
   </g>
   <g id="line2d_36">
    <path clip-path="url(#p335057b6f6)" d="M 424.664574 128.159822 
L 426.782125 127.037854 
L 428.899676 127.037854 
L 431.017227 124.833802 
L 435.252329 124.780623 
L 437.36988 123.187411 
L 439.487431 122.569924 
L 441.604982 122.569924 
L 443.722533 121.521078 
L 445.840084 118.712834 
L 447.957635 118.128585 
L 450.075186 114.278141 
L 452.192737 113.727129 
L 454.310288 110.952123 
L 456.427839 107.068443 
L 458.54539 105.926532 
L 460.662941 103.709186 
L 462.780492 102.613808 
L 464.898043 102.600513 
L 467.015594 98.165821 
L 469.133145 91.480544 
L 473.368247 89.236608 
L 475.485798 81.455954 
L 477.603349 77.001321 
L 479.7209 74.783972 
L 481.838451 69.200724 
L 486.073553 62.535389 
L 488.191104 60.298098 
L 490.308655 50.857757 
L 492.426206 50.286806 
L 494.543757 50.273512 
L 496.661308 49.16484 
L 498.778859 44.716848 
L 500.89641 35.847464 
L 517.836818 35.860759 
L 519.954369 50.366574 
L 522.07192 62.641746 
L 524.189471 72.692928 
L 526.307022 80.506819 
L 528.424573 87.76305 
L 530.542124 88.300768 
L 534.777226 98.371888 
L 536.894777 100.058164 
L 539.012328 103.95514 
L 541.129879 107.321043 
L 543.24743 109.545038 
L 545.364981 119.045204 
L 547.482532 119.596217 
L 549.600083 120.724832 
L 553.835185 120.784659 
L 555.952736 124.117326 
L 558.070287 126.31473 
L 560.187838 126.31473 
L 562.305389 127.48323 
L 564.42294 127.48323 
L 566.540491 128.027595 
L 568.658042 128.027595 
L 570.775593 129.673987 
L 572.893144 129.673987 
L 575.010695 130.862428 
L 579.245797 130.862428 
L 581.363348 131.964454 
L 583.480899 134.181801 
L 585.59845 142.593237 
L 587.716001 144.272864 
L 591.951103 146.490212 
L 594.068654 148.760736 
L 596.186205 149.305102 
L 598.303756 150.998026 
L 600.421307 154.350635 
L 602.538858 156.561334 
L 604.656409 160.50484 
L 606.77396 168.856448 
L 608.891511 169.998359 
L 611.009062 173.324379 
L 613.126613 174.452993 
L 615.244164 181.722522 
L 619.479266 193.997694 
L 621.596817 195.11966 
L 623.714368 201.273864 
L 625.831919 202.933551 
L 627.94947 205.728498 
L 630.067021 209.094402 
L 632.184572 215.77968 
L 634.302123 219.138937 
L 636.419674 219.145584 
L 638.537225 222.511489 
L 653.360082 222.511489 
L 655.477633 202.482252 
L 657.595184 199.129642 
L 659.712735 183.52845 
L 663.947837 174.619179 
L 666.065388 174.054872 
L 668.182939 162.921608 
L 670.30049 161.255275 
L 672.418041 156.807288 
L 674.535592 154.012338 
L 676.653143 149.00669 
L 678.770694 147.330516 
L 680.888245 138.959227 
L 683.005796 137.847099 
L 685.123347 133.376239 
L 687.240898 131.706451 
L 689.358449 126.668353 
L 691.476 125.565803 
L 693.593551 125.56261 
L 693.593551 125.56261 
" style="fill:none;stroke:#4c72b0;stroke-linecap:round;stroke-width:1.5;"/>
   </g>
   <g id="line2d_37">
    <path clip-path="url(#p335057b6f6)" d="M 424.664574 127.185554 
L 426.782125 122.029345 
L 428.899676 116.886024 
L 431.017227 111.768446 
L 433.134778 106.689403 
L 435.252329 101.66159 
L 437.36988 96.697574 
L 439.487431 91.809761 
L 441.604982 87.01037 
L 443.722533 82.311396 
L 445.840084 77.724583 
L 447.957635 73.261397 
L 450.075186 68.932994 
L 452.192737 64.750192 
L 454.310288 60.723445 
L 456.427839 56.86282 
L 458.54539 53.177964 
L 460.662941 49.678089 
L 462.780492 46.371942 
L 464.898043 43.267787 
L 467.015594 40.373383 
L 469.133145 37.695964 
L 471.250696 35.242223 
L 473.368247 33.018291 
L 475.485798 31.029729 
L 477.603349 29.281507 
L 479.7209 27.777993 
L 481.838451 26.522947 
L 483.956002 25.519505 
L 486.073553 24.770175 
L 488.191104 24.27683 
L 490.308655 24.040703 
L 492.426206 24.062385 
L 494.543757 24.341821 
L 496.661308 24.878313 
L 498.778859 25.670519 
L 500.89641 26.716461 
L 503.013961 28.013522 
L 505.131512 29.558462 
L 507.249063 31.347419 
L 509.366614 33.375922 
L 511.484165 35.638899 
L 513.601716 38.130696 
L 515.719267 40.845083 
L 517.836818 43.775277 
L 519.954369 46.913953 
L 522.07192 50.253266 
L 524.189471 53.784869 
L 526.307022 57.499937 
L 528.424573 61.389182 
L 530.542124 65.442883 
L 532.659675 69.650909 
L 534.777226 74.002742 
L 536.894777 78.487504 
L 539.012328 83.093986 
L 541.129879 87.810674 
L 543.24743 92.625778 
L 545.364981 97.527264 
L 547.482532 102.50288 
L 549.600083 107.54019 
L 551.717634 112.626604 
L 553.835185 117.749407 
L 555.952736 122.895795 
L 558.070287 128.052906 
L 560.187838 133.207848 
L 562.305389 138.347738 
L 564.42294 143.459729 
L 566.540491 148.531042 
L 568.658042 153.549003 
L 570.775593 158.501069 
L 572.893144 163.374863 
L 575.010695 168.158202 
L 577.128246 172.839131 
L 579.245797 177.405949 
L 581.363348 181.847243 
L 583.480899 186.151911 
L 585.59845 190.309194 
L 587.716001 194.308701 
L 589.833552 198.140434 
L 591.951103 201.794818 
L 594.068654 205.262717 
L 596.186205 208.535464 
L 598.303756 211.604879 
L 600.421307 214.463289 
L 602.538858 217.10355 
L 604.656409 219.519063 
L 606.77396 221.703791 
L 608.891511 223.652272 
L 611.009062 225.359636 
L 613.126613 226.821617 
L 615.244164 228.034559 
L 617.361715 228.995431 
L 619.479266 229.701831 
L 621.596817 230.151995 
L 623.714368 230.344795 
L 625.831919 230.279752 
L 627.94947 229.957026 
L 630.067021 229.377426 
L 632.184572 228.542399 
L 634.302123 227.454032 
L 636.419674 226.115047 
L 638.537225 224.528789 
L 640.654776 222.699224 
L 642.772327 220.630925 
L 644.889878 218.329061 
L 647.007429 215.799385 
L 649.12498 213.048221 
L 651.242531 210.082445 
L 653.360082 206.90947 
L 655.477633 203.537227 
L 657.595184 199.974145 
L 659.712735 196.229129 
L 661.830286 192.311539 
L 663.947837 188.231169 
L 666.065388 183.998217 
L 668.182939 179.623262 
L 670.30049 175.117241 
L 672.418041 170.491415 
L 674.535592 165.757347 
L 676.653143 160.92687 
L 678.770694 156.012057 
L 680.888245 151.025193 
L 683.005796 145.978742 
L 685.123347 140.885318 
L 687.240898 135.757651 
L 689.358449 130.608559 
" style="fill:none;stroke:#dd8452;stroke-linecap:round;stroke-width:1.5;"/>
   </g>
   <g id="patch_8">
    <path d="M 411.218125 240.66 
L 411.218125 13.725499 
" style="fill:none;stroke:#ffffff;stroke-linecap:square;stroke-linejoin:miter;stroke-width:1.25;"/>
   </g>
   <g id="patch_9">
    <path d="M 707.04 240.66 
L 707.04 13.725499 
" style="fill:none;stroke:#ffffff;stroke-linecap:square;stroke-linejoin:miter;stroke-width:1.25;"/>
   </g>
   <g id="patch_10">
    <path d="M 411.218125 240.66 
L 707.04 240.66 
" style="fill:none;stroke:#ffffff;stroke-linecap:square;stroke-linejoin:miter;stroke-width:1.25;"/>
   </g>
   <g id="patch_11">
    <path d="M 411.218125 13.725499 
L 707.04 13.725499 
" style="fill:none;stroke:#ffffff;stroke-linecap:square;stroke-linejoin:miter;stroke-width:1.25;"/>
   </g>
  </g>
 </g>
 <defs>
  <clipPath id="pb49a62b814">
   <rect height="226.934501" width="295.821875" x="65.12625" y="13.725499"/>
  </clipPath>
  <clipPath id="p335057b6f6">
   <rect height="226.934501" width="295.821875" x="411.218125" y="13.725499"/>
  </clipPath>
 </defs>
</svg>
