<?xml version="1.0" encoding="utf-8" standalone="no"?>
<!DOCTYPE svg PUBLIC "-//W3C//DTD SVG 1.1//EN"
  "http://www.w3.org/Graphics/SVG/1.1/DTD/svg11.dtd">
<!-- Created with matplotlib (https://matplotlib.org/) -->
<svg height="360pt" version="1.1" viewBox="0 0 936 360" width="936pt" xmlns="http://www.w3.org/2000/svg" xmlns:xlink="http://www.w3.org/1999/xlink">
 <metadata>
  <rdf:RDF xmlns:cc="http://creativecommons.org/ns#" xmlns:dc="http://purl.org/dc/elements/1.1/" xmlns:rdf="http://www.w3.org/1999/02/22-rdf-syntax-ns#">
   <cc:Work>
    <dc:type rdf:resource="http://purl.org/dc/dcmitype/StillImage"/>
    <dc:date>2021-07-25T16:09:59.477082</dc:date>
    <dc:format>image/svg+xml</dc:format>
    <dc:creator>
     <cc:Agent>
      <dc:title>Matplotlib v3.3.4, https://matplotlib.org/</dc:title>
     </cc:Agent>
    </dc:creator>
   </cc:Work>
  </rdf:RDF>
 </metadata>
 <defs>
  <style type="text/css">*{stroke-linecap:butt;stroke-linejoin:round;}</style>
 </defs>
 <g id="figure_1">
  <g id="patch_1">
   <path d="M 0 360 
L 936 360 
L 936 0 
L 0 0 
z
" style="fill:#ffffff;"/>
  </g>
  <g id="axes_1">
   <g id="patch_2">
    <path d="M 70.46 313.54 
L 471.5825 313.54 
L 471.5825 39.997849 
L 70.46 39.997849 
z
" style="fill:#eaeaf2;"/>
   </g>
   <g id="matplotlib.axis_1">
    <g id="xtick_1">
     <g id="line2d_1">
      <path clip-path="url(#p7b0b66af95)" d="M 88.692841 313.54 
L 88.692841 39.997849 
" style="fill:none;stroke:#ffffff;stroke-linecap:round;"/>
     </g>
     <g id="text_1">
      <!-- 0 -->
      <g style="fill:#262626;" transform="translate(85.634325 330.913594)scale(0.11 -0.11)">
       <defs>
        <path d="M 4.15625 35.296875 
Q 4.15625 48 6.765625 55.734375 
Q 9.375 63.484375 14.515625 67.671875 
Q 19.671875 71.875 27.484375 71.875 
Q 33.25 71.875 37.59375 69.546875 
Q 41.9375 67.234375 44.765625 62.859375 
Q 47.609375 58.5 49.21875 52.21875 
Q 50.828125 45.953125 50.828125 35.296875 
Q 50.828125 22.703125 48.234375 14.96875 
Q 45.65625 7.234375 40.5 3 
Q 35.359375 -1.21875 27.484375 -1.21875 
Q 17.140625 -1.21875 11.234375 6.203125 
Q 4.15625 15.140625 4.15625 35.296875 
z
M 13.1875 35.296875 
Q 13.1875 17.671875 17.3125 11.828125 
Q 21.4375 6 27.484375 6 
Q 33.546875 6 37.671875 11.859375 
Q 41.796875 17.71875 41.796875 35.296875 
Q 41.796875 52.984375 37.671875 58.78125 
Q 33.546875 64.59375 27.390625 64.59375 
Q 21.34375 64.59375 17.71875 59.46875 
Q 13.1875 52.9375 13.1875 35.296875 
z
" id="ArialMT-48"/>
       </defs>
       <use xlink:href="#ArialMT-48"/>
      </g>
     </g>
    </g>
    <g id="xtick_2">
     <g id="line2d_2">
      <path clip-path="url(#p7b0b66af95)" d="M 169.908168 313.54 
L 169.908168 39.997849 
" style="fill:none;stroke:#ffffff;stroke-linecap:round;"/>
     </g>
     <g id="text_2">
      <!-- 100 -->
      <g style="fill:#262626;" transform="translate(160.732621 330.913594)scale(0.11 -0.11)">
       <defs>
        <path d="M 37.25 0 
L 28.46875 0 
L 28.46875 56 
Q 25.296875 52.984375 20.140625 49.953125 
Q 14.984375 46.921875 10.890625 45.40625 
L 10.890625 53.90625 
Q 18.265625 57.375 23.78125 62.296875 
Q 29.296875 67.234375 31.59375 71.875 
L 37.25 71.875 
z
" id="ArialMT-49"/>
       </defs>
       <use xlink:href="#ArialMT-49"/>
       <use x="55.615234" xlink:href="#ArialMT-48"/>
       <use x="111.230469" xlink:href="#ArialMT-48"/>
      </g>
     </g>
    </g>
    <g id="xtick_3">
     <g id="line2d_3">
      <path clip-path="url(#p7b0b66af95)" d="M 251.123495 313.54 
L 251.123495 39.997849 
" style="fill:none;stroke:#ffffff;stroke-linecap:round;"/>
     </g>
     <g id="text_3">
      <!-- 200 -->
      <g style="fill:#262626;" transform="translate(241.947948 330.913594)scale(0.11 -0.11)">
       <defs>
        <path d="M 50.34375 8.453125 
L 50.34375 0 
L 3.03125 0 
Q 2.9375 3.171875 4.046875 6.109375 
Q 5.859375 10.9375 9.828125 15.625 
Q 13.8125 20.3125 21.34375 26.46875 
Q 33.015625 36.03125 37.109375 41.625 
Q 41.21875 47.21875 41.21875 52.203125 
Q 41.21875 57.421875 37.46875 61 
Q 33.734375 64.59375 27.734375 64.59375 
Q 21.390625 64.59375 17.578125 60.78125 
Q 13.765625 56.984375 13.71875 50.25 
L 4.6875 51.171875 
Q 5.609375 61.28125 11.65625 66.578125 
Q 17.71875 71.875 27.9375 71.875 
Q 38.234375 71.875 44.234375 66.15625 
Q 50.25 60.453125 50.25 52 
Q 50.25 47.703125 48.484375 43.546875 
Q 46.734375 39.40625 42.65625 34.8125 
Q 38.578125 30.21875 29.109375 22.21875 
Q 21.1875 15.578125 18.9375 13.203125 
Q 16.703125 10.84375 15.234375 8.453125 
z
" id="ArialMT-50"/>
       </defs>
       <use xlink:href="#ArialMT-50"/>
       <use x="55.615234" xlink:href="#ArialMT-48"/>
       <use x="111.230469" xlink:href="#ArialMT-48"/>
      </g>
     </g>
    </g>
    <g id="xtick_4">
     <g id="line2d_4">
      <path clip-path="url(#p7b0b66af95)" d="M 332.338822 313.54 
L 332.338822 39.997849 
" style="fill:none;stroke:#ffffff;stroke-linecap:round;"/>
     </g>
     <g id="text_4">
      <!-- 300 -->
      <g style="fill:#262626;" transform="translate(323.163275 330.913594)scale(0.11 -0.11)">
       <defs>
        <path d="M 4.203125 18.890625 
L 12.984375 20.0625 
Q 14.5 12.59375 18.140625 9.296875 
Q 21.78125 6 27 6 
Q 33.203125 6 37.46875 10.296875 
Q 41.75 14.59375 41.75 20.953125 
Q 41.75 27 37.796875 30.921875 
Q 33.84375 34.859375 27.734375 34.859375 
Q 25.25 34.859375 21.53125 33.890625 
L 22.515625 41.609375 
Q 23.390625 41.5 23.921875 41.5 
Q 29.546875 41.5 34.03125 44.421875 
Q 38.53125 47.359375 38.53125 53.46875 
Q 38.53125 58.296875 35.25 61.46875 
Q 31.984375 64.65625 26.8125 64.65625 
Q 21.6875 64.65625 18.265625 61.421875 
Q 14.84375 58.203125 13.875 51.765625 
L 5.078125 53.328125 
Q 6.6875 62.15625 12.390625 67.015625 
Q 18.109375 71.875 26.609375 71.875 
Q 32.46875 71.875 37.390625 69.359375 
Q 42.328125 66.84375 44.9375 62.5 
Q 47.5625 58.15625 47.5625 53.265625 
Q 47.5625 48.640625 45.0625 44.828125 
Q 42.578125 41.015625 37.703125 38.765625 
Q 44.046875 37.3125 47.5625 32.6875 
Q 51.078125 28.078125 51.078125 21.140625 
Q 51.078125 11.765625 44.234375 5.25 
Q 37.40625 -1.265625 26.953125 -1.265625 
Q 17.53125 -1.265625 11.296875 4.34375 
Q 5.078125 9.96875 4.203125 18.890625 
z
" id="ArialMT-51"/>
       </defs>
       <use xlink:href="#ArialMT-51"/>
       <use x="55.615234" xlink:href="#ArialMT-48"/>
       <use x="111.230469" xlink:href="#ArialMT-48"/>
      </g>
     </g>
    </g>
    <g id="xtick_5">
     <g id="line2d_5">
      <path clip-path="url(#p7b0b66af95)" d="M 413.554149 313.54 
L 413.554149 39.997849 
" style="fill:none;stroke:#ffffff;stroke-linecap:round;"/>
     </g>
     <g id="text_5">
      <!-- 400 -->
      <g style="fill:#262626;" transform="translate(404.378602 330.913594)scale(0.11 -0.11)">
       <defs>
        <path d="M 32.328125 0 
L 32.328125 17.140625 
L 1.265625 17.140625 
L 1.265625 25.203125 
L 33.9375 71.578125 
L 41.109375 71.578125 
L 41.109375 25.203125 
L 50.78125 25.203125 
L 50.78125 17.140625 
L 41.109375 17.140625 
L 41.109375 0 
z
M 32.328125 25.203125 
L 32.328125 57.46875 
L 9.90625 25.203125 
z
" id="ArialMT-52"/>
       </defs>
       <use xlink:href="#ArialMT-52"/>
       <use x="55.615234" xlink:href="#ArialMT-48"/>
       <use x="111.230469" xlink:href="#ArialMT-48"/>
      </g>
     </g>
    </g>
    <g id="text_6">
     <!-- Samples -->
     <g style="fill:#262626;" transform="translate(247.678437 345.835469)scale(0.12 -0.12)">
      <defs>
       <path d="M 4.5 23 
L 13.421875 23.78125 
Q 14.0625 18.40625 16.375 14.96875 
Q 18.703125 11.53125 23.578125 9.40625 
Q 28.46875 7.28125 34.578125 7.28125 
Q 39.984375 7.28125 44.140625 8.890625 
Q 48.296875 10.5 50.3125 13.296875 
Q 52.34375 16.109375 52.34375 19.4375 
Q 52.34375 22.796875 50.390625 25.3125 
Q 48.4375 27.828125 43.953125 29.546875 
Q 41.0625 30.671875 31.203125 33.03125 
Q 21.34375 35.40625 17.390625 37.5 
Q 12.25 40.1875 9.734375 44.15625 
Q 7.234375 48.140625 7.234375 53.078125 
Q 7.234375 58.5 10.296875 63.203125 
Q 13.375 67.921875 19.28125 70.359375 
Q 25.203125 72.796875 32.421875 72.796875 
Q 40.375 72.796875 46.453125 70.234375 
Q 52.546875 67.671875 55.8125 62.6875 
Q 59.078125 57.71875 59.328125 51.421875 
L 50.25 50.734375 
Q 49.515625 57.515625 45.28125 60.984375 
Q 41.0625 64.453125 32.8125 64.453125 
Q 24.21875 64.453125 20.28125 61.296875 
Q 16.359375 58.15625 16.359375 53.71875 
Q 16.359375 49.859375 19.140625 47.359375 
Q 21.875 44.875 33.421875 42.265625 
Q 44.96875 39.65625 49.265625 37.703125 
Q 55.515625 34.8125 58.484375 30.390625 
Q 61.46875 25.984375 61.46875 20.21875 
Q 61.46875 14.5 58.203125 9.4375 
Q 54.9375 4.390625 48.796875 1.578125 
Q 42.671875 -1.21875 35.015625 -1.21875 
Q 25.296875 -1.21875 18.71875 1.609375 
Q 12.15625 4.4375 8.421875 10.125 
Q 4.6875 15.828125 4.5 23 
z
" id="ArialMT-83"/>
       <path d="M 40.4375 6.390625 
Q 35.546875 2.25 31.03125 0.53125 
Q 26.515625 -1.171875 21.34375 -1.171875 
Q 12.796875 -1.171875 8.203125 3 
Q 3.609375 7.171875 3.609375 13.671875 
Q 3.609375 17.484375 5.34375 20.625 
Q 7.078125 23.78125 9.890625 25.6875 
Q 12.703125 27.59375 16.21875 28.5625 
Q 18.796875 29.25 24.03125 29.890625 
Q 34.671875 31.15625 39.703125 32.90625 
Q 39.75 34.71875 39.75 35.203125 
Q 39.75 40.578125 37.25 42.78125 
Q 33.890625 45.75 27.25 45.75 
Q 21.046875 45.75 18.09375 43.578125 
Q 15.140625 41.40625 13.71875 35.890625 
L 5.125 37.0625 
Q 6.296875 42.578125 8.984375 45.96875 
Q 11.671875 49.359375 16.75 51.1875 
Q 21.828125 53.03125 28.515625 53.03125 
Q 35.15625 53.03125 39.296875 51.46875 
Q 43.453125 49.90625 45.40625 47.53125 
Q 47.359375 45.171875 48.140625 41.546875 
Q 48.578125 39.3125 48.578125 33.453125 
L 48.578125 21.734375 
Q 48.578125 9.46875 49.140625 6.21875 
Q 49.703125 2.984375 51.375 0 
L 42.1875 0 
Q 40.828125 2.734375 40.4375 6.390625 
z
M 39.703125 26.03125 
Q 34.90625 24.078125 25.34375 22.703125 
Q 19.921875 21.921875 17.671875 20.9375 
Q 15.4375 19.96875 14.203125 18.09375 
Q 12.984375 16.21875 12.984375 13.921875 
Q 12.984375 10.40625 15.640625 8.0625 
Q 18.3125 5.71875 23.4375 5.71875 
Q 28.515625 5.71875 32.46875 7.9375 
Q 36.421875 10.15625 38.28125 14.015625 
Q 39.703125 17 39.703125 22.796875 
z
" id="ArialMT-97"/>
       <path d="M 6.59375 0 
L 6.59375 51.859375 
L 14.453125 51.859375 
L 14.453125 44.578125 
Q 16.890625 48.390625 20.9375 50.703125 
Q 25 53.03125 30.171875 53.03125 
Q 35.9375 53.03125 39.625 50.640625 
Q 43.3125 48.25 44.828125 43.953125 
Q 50.984375 53.03125 60.84375 53.03125 
Q 68.5625 53.03125 72.703125 48.75 
Q 76.859375 44.484375 76.859375 35.59375 
L 76.859375 0 
L 68.109375 0 
L 68.109375 32.671875 
Q 68.109375 37.9375 67.25 40.25 
Q 66.40625 42.578125 64.15625 43.984375 
Q 61.921875 45.40625 58.890625 45.40625 
Q 53.421875 45.40625 49.796875 41.765625 
Q 46.1875 38.140625 46.1875 30.125 
L 46.1875 0 
L 37.40625 0 
L 37.40625 33.6875 
Q 37.40625 39.546875 35.25 42.46875 
Q 33.109375 45.40625 28.21875 45.40625 
Q 24.515625 45.40625 21.359375 43.453125 
Q 18.21875 41.5 16.796875 37.734375 
Q 15.375 33.984375 15.375 26.90625 
L 15.375 0 
z
" id="ArialMT-109"/>
       <path d="M 6.59375 -19.875 
L 6.59375 51.859375 
L 14.59375 51.859375 
L 14.59375 45.125 
Q 17.4375 49.078125 21 51.046875 
Q 24.5625 53.03125 29.640625 53.03125 
Q 36.28125 53.03125 41.359375 49.609375 
Q 46.4375 46.1875 49.015625 39.953125 
Q 51.609375 33.734375 51.609375 26.3125 
Q 51.609375 18.359375 48.75 11.984375 
Q 45.90625 5.609375 40.453125 2.21875 
Q 35.015625 -1.171875 29 -1.171875 
Q 24.609375 -1.171875 21.109375 0.6875 
Q 17.625 2.546875 15.375 5.375 
L 15.375 -19.875 
z
M 14.546875 25.640625 
Q 14.546875 15.625 18.59375 10.84375 
Q 22.65625 6.0625 28.421875 6.0625 
Q 34.28125 6.0625 38.453125 11.015625 
Q 42.625 15.96875 42.625 26.375 
Q 42.625 36.28125 38.546875 41.203125 
Q 34.46875 46.140625 28.8125 46.140625 
Q 23.1875 46.140625 18.859375 40.890625 
Q 14.546875 35.640625 14.546875 25.640625 
z
" id="ArialMT-112"/>
       <path d="M 6.390625 0 
L 6.390625 71.578125 
L 15.1875 71.578125 
L 15.1875 0 
z
" id="ArialMT-108"/>
       <path d="M 42.09375 16.703125 
L 51.171875 15.578125 
Q 49.03125 7.625 43.21875 3.21875 
Q 37.40625 -1.171875 28.375 -1.171875 
Q 17 -1.171875 10.328125 5.828125 
Q 3.65625 12.84375 3.65625 25.484375 
Q 3.65625 38.578125 10.390625 45.796875 
Q 17.140625 53.03125 27.875 53.03125 
Q 38.28125 53.03125 44.875 45.953125 
Q 51.46875 38.875 51.46875 26.03125 
Q 51.46875 25.25 51.421875 23.6875 
L 12.75 23.6875 
Q 13.234375 15.140625 17.578125 10.59375 
Q 21.921875 6.0625 28.421875 6.0625 
Q 33.25 6.0625 36.671875 8.59375 
Q 40.09375 11.140625 42.09375 16.703125 
z
M 13.234375 30.90625 
L 42.1875 30.90625 
Q 41.609375 37.453125 38.875 40.71875 
Q 34.671875 45.796875 27.984375 45.796875 
Q 21.921875 45.796875 17.796875 41.75 
Q 13.671875 37.703125 13.234375 30.90625 
z
" id="ArialMT-101"/>
       <path d="M 3.078125 15.484375 
L 11.765625 16.84375 
Q 12.5 11.625 15.84375 8.84375 
Q 19.1875 6.0625 25.203125 6.0625 
Q 31.25 6.0625 34.171875 8.515625 
Q 37.109375 10.984375 37.109375 14.3125 
Q 37.109375 17.28125 34.515625 19 
Q 32.71875 20.171875 25.53125 21.96875 
Q 15.875 24.421875 12.140625 26.203125 
Q 8.40625 27.984375 6.46875 31.125 
Q 4.546875 34.28125 4.546875 38.09375 
Q 4.546875 41.546875 6.125 44.5 
Q 7.71875 47.46875 10.453125 49.421875 
Q 12.5 50.921875 16.03125 51.96875 
Q 19.578125 53.03125 23.640625 53.03125 
Q 29.734375 53.03125 34.34375 51.265625 
Q 38.96875 49.515625 41.15625 46.5 
Q 43.359375 43.5 44.1875 38.484375 
L 35.59375 37.3125 
Q 35.015625 41.3125 32.203125 43.546875 
Q 29.390625 45.796875 24.265625 45.796875 
Q 18.21875 45.796875 15.625 43.796875 
Q 13.03125 41.796875 13.03125 39.109375 
Q 13.03125 37.40625 14.109375 36.03125 
Q 15.1875 34.625 17.484375 33.6875 
Q 18.796875 33.203125 25.25 31.453125 
Q 34.578125 28.953125 38.25 27.359375 
Q 41.9375 25.78125 44.03125 22.75 
Q 46.140625 19.734375 46.140625 15.234375 
Q 46.140625 10.84375 43.578125 6.953125 
Q 41.015625 3.078125 36.171875 0.953125 
Q 31.34375 -1.171875 25.25 -1.171875 
Q 15.140625 -1.171875 9.84375 3.03125 
Q 4.546875 7.234375 3.078125 15.484375 
z
" id="ArialMT-115"/>
      </defs>
      <use xlink:href="#ArialMT-83"/>
      <use x="66.699219" xlink:href="#ArialMT-97"/>
      <use x="122.314453" xlink:href="#ArialMT-109"/>
      <use x="205.615234" xlink:href="#ArialMT-112"/>
      <use x="261.230469" xlink:href="#ArialMT-108"/>
      <use x="283.447266" xlink:href="#ArialMT-101"/>
      <use x="339.0625" xlink:href="#ArialMT-115"/>
     </g>
    </g>
   </g>
   <g id="matplotlib.axis_2">
    <g id="ytick_1">
     <g id="line2d_6">
      <path clip-path="url(#p7b0b66af95)" d="M 70.46 294.67534 
L 471.5825 294.67534 
" style="fill:none;stroke:#ffffff;stroke-linecap:round;"/>
     </g>
     <g id="text_7">
      <!-- −0.075 -->
      <g style="fill:#262626;" transform="translate(27.01125 298.612137)scale(0.11 -0.11)">
       <defs>
        <path d="M 52.828125 31.203125 
L 5.5625 31.203125 
L 5.5625 39.40625 
L 52.828125 39.40625 
z
" id="ArialMT-8722"/>
        <path d="M 9.078125 0 
L 9.078125 10.015625 
L 19.09375 10.015625 
L 19.09375 0 
z
" id="ArialMT-46"/>
        <path d="M 4.734375 62.203125 
L 4.734375 70.65625 
L 51.078125 70.65625 
L 51.078125 63.8125 
Q 44.234375 56.546875 37.515625 44.484375 
Q 30.8125 32.421875 27.15625 19.671875 
Q 24.515625 10.6875 23.78125 0 
L 14.75 0 
Q 14.890625 8.453125 18.0625 20.40625 
Q 21.234375 32.375 27.171875 43.484375 
Q 33.109375 54.59375 39.796875 62.203125 
z
" id="ArialMT-55"/>
        <path d="M 4.15625 18.75 
L 13.375 19.53125 
Q 14.40625 12.796875 18.140625 9.390625 
Q 21.875 6 27.15625 6 
Q 33.5 6 37.890625 10.78125 
Q 42.28125 15.578125 42.28125 23.484375 
Q 42.28125 31 38.0625 35.34375 
Q 33.84375 39.703125 27 39.703125 
Q 22.75 39.703125 19.328125 37.765625 
Q 15.921875 35.84375 13.96875 32.765625 
L 5.71875 33.84375 
L 12.640625 70.609375 
L 48.25 70.609375 
L 48.25 62.203125 
L 19.671875 62.203125 
L 15.828125 42.96875 
Q 22.265625 47.46875 29.34375 47.46875 
Q 38.71875 47.46875 45.15625 40.96875 
Q 51.609375 34.46875 51.609375 24.265625 
Q 51.609375 14.546875 45.953125 7.46875 
Q 39.0625 -1.21875 27.15625 -1.21875 
Q 17.390625 -1.21875 11.203125 4.25 
Q 5.03125 9.71875 4.15625 18.75 
z
" id="ArialMT-53"/>
       </defs>
       <use xlink:href="#ArialMT-8722"/>
       <use x="58.398438" xlink:href="#ArialMT-48"/>
       <use x="114.013672" xlink:href="#ArialMT-46"/>
       <use x="141.796875" xlink:href="#ArialMT-48"/>
       <use x="197.412109" xlink:href="#ArialMT-55"/>
       <use x="253.027344" xlink:href="#ArialMT-53"/>
      </g>
     </g>
    </g>
    <g id="ytick_2">
     <g id="line2d_7">
      <path clip-path="url(#p7b0b66af95)" d="M 70.46 258.85674 
L 471.5825 258.85674 
" style="fill:none;stroke:#ffffff;stroke-linecap:round;"/>
     </g>
     <g id="text_8">
      <!-- −0.050 -->
      <g style="fill:#262626;" transform="translate(27.01125 262.793537)scale(0.11 -0.11)">
       <use xlink:href="#ArialMT-8722"/>
       <use x="58.398438" xlink:href="#ArialMT-48"/>
       <use x="114.013672" xlink:href="#ArialMT-46"/>
       <use x="141.796875" xlink:href="#ArialMT-48"/>
       <use x="197.412109" xlink:href="#ArialMT-53"/>
       <use x="253.027344" xlink:href="#ArialMT-48"/>
      </g>
     </g>
    </g>
    <g id="ytick_3">
     <g id="line2d_8">
      <path clip-path="url(#p7b0b66af95)" d="M 70.46 223.03814 
L 471.5825 223.03814 
" style="fill:none;stroke:#ffffff;stroke-linecap:round;"/>
     </g>
     <g id="text_9">
      <!-- −0.025 -->
      <g style="fill:#262626;" transform="translate(27.01125 226.974937)scale(0.11 -0.11)">
       <use xlink:href="#ArialMT-8722"/>
       <use x="58.398438" xlink:href="#ArialMT-48"/>
       <use x="114.013672" xlink:href="#ArialMT-46"/>
       <use x="141.796875" xlink:href="#ArialMT-48"/>
       <use x="197.412109" xlink:href="#ArialMT-50"/>
       <use x="253.027344" xlink:href="#ArialMT-53"/>
      </g>
     </g>
    </g>
    <g id="ytick_4">
     <g id="line2d_9">
      <path clip-path="url(#p7b0b66af95)" d="M 70.46 187.21954 
L 471.5825 187.21954 
" style="fill:none;stroke:#ffffff;stroke-linecap:round;"/>
     </g>
     <g id="text_10">
      <!-- 0.000 -->
      <g style="fill:#262626;" transform="translate(33.435937 191.156337)scale(0.11 -0.11)">
       <use xlink:href="#ArialMT-48"/>
       <use x="55.615234" xlink:href="#ArialMT-46"/>
       <use x="83.398438" xlink:href="#ArialMT-48"/>
       <use x="139.013672" xlink:href="#ArialMT-48"/>
       <use x="194.628906" xlink:href="#ArialMT-48"/>
      </g>
     </g>
    </g>
    <g id="ytick_5">
     <g id="line2d_10">
      <path clip-path="url(#p7b0b66af95)" d="M 70.46 151.40094 
L 471.5825 151.40094 
" style="fill:none;stroke:#ffffff;stroke-linecap:round;"/>
     </g>
     <g id="text_11">
      <!-- 0.025 -->
      <g style="fill:#262626;" transform="translate(33.435937 155.337737)scale(0.11 -0.11)">
       <use xlink:href="#ArialMT-48"/>
       <use x="55.615234" xlink:href="#ArialMT-46"/>
       <use x="83.398438" xlink:href="#ArialMT-48"/>
       <use x="139.013672" xlink:href="#ArialMT-50"/>
       <use x="194.628906" xlink:href="#ArialMT-53"/>
      </g>
     </g>
    </g>
    <g id="ytick_6">
     <g id="line2d_11">
      <path clip-path="url(#p7b0b66af95)" d="M 70.46 115.58234 
L 471.5825 115.58234 
" style="fill:none;stroke:#ffffff;stroke-linecap:round;"/>
     </g>
     <g id="text_12">
      <!-- 0.050 -->
      <g style="fill:#262626;" transform="translate(33.435937 119.519137)scale(0.11 -0.11)">
       <use xlink:href="#ArialMT-48"/>
       <use x="55.615234" xlink:href="#ArialMT-46"/>
       <use x="83.398438" xlink:href="#ArialMT-48"/>
       <use x="139.013672" xlink:href="#ArialMT-53"/>
       <use x="194.628906" xlink:href="#ArialMT-48"/>
      </g>
     </g>
    </g>
    <g id="ytick_7">
     <g id="line2d_12">
      <path clip-path="url(#p7b0b66af95)" d="M 70.46 79.76374 
L 471.5825 79.76374 
" style="fill:none;stroke:#ffffff;stroke-linecap:round;"/>
     </g>
     <g id="text_13">
      <!-- 0.075 -->
      <g style="fill:#262626;" transform="translate(33.435937 83.700537)scale(0.11 -0.11)">
       <use xlink:href="#ArialMT-48"/>
       <use x="55.615234" xlink:href="#ArialMT-46"/>
       <use x="83.398438" xlink:href="#ArialMT-48"/>
       <use x="139.013672" xlink:href="#ArialMT-55"/>
       <use x="194.628906" xlink:href="#ArialMT-53"/>
      </g>
     </g>
    </g>
    <g id="ytick_8">
     <g id="line2d_13">
      <path clip-path="url(#p7b0b66af95)" d="M 70.46 43.94514 
L 471.5825 43.94514 
" style="fill:none;stroke:#ffffff;stroke-linecap:round;"/>
     </g>
     <g id="text_14">
      <!-- 0.100 -->
      <g style="fill:#262626;" transform="translate(33.435937 47.881937)scale(0.11 -0.11)">
       <use xlink:href="#ArialMT-48"/>
       <use x="55.615234" xlink:href="#ArialMT-46"/>
       <use x="83.398438" xlink:href="#ArialMT-49"/>
       <use x="139.013672" xlink:href="#ArialMT-48"/>
       <use x="194.628906" xlink:href="#ArialMT-48"/>
      </g>
     </g>
    </g>
    <g id="text_15">
     <!-- Current -->
     <g style="fill:#262626;" transform="translate(20.62625 196.774237)rotate(-90)scale(0.12 -0.12)">
      <defs>
       <path d="M 58.796875 25.09375 
L 68.265625 22.703125 
Q 65.28125 11.03125 57.546875 4.90625 
Q 49.8125 -1.21875 38.625 -1.21875 
Q 27.046875 -1.21875 19.796875 3.484375 
Q 12.546875 8.203125 8.765625 17.140625 
Q 4.984375 26.078125 4.984375 36.328125 
Q 4.984375 47.515625 9.25 55.828125 
Q 13.53125 64.15625 21.40625 68.46875 
Q 29.296875 72.796875 38.765625 72.796875 
Q 49.515625 72.796875 56.828125 67.328125 
Q 64.15625 61.859375 67.046875 51.953125 
L 57.71875 49.75 
Q 55.21875 57.5625 50.484375 61.125 
Q 45.75 64.703125 38.578125 64.703125 
Q 30.328125 64.703125 24.78125 60.734375 
Q 19.234375 56.78125 16.984375 50.109375 
Q 14.75 43.453125 14.75 36.375 
Q 14.75 27.25 17.40625 20.4375 
Q 20.0625 13.625 25.671875 10.25 
Q 31.296875 6.890625 37.84375 6.890625 
Q 45.796875 6.890625 51.3125 11.46875 
Q 56.84375 16.0625 58.796875 25.09375 
z
" id="ArialMT-67"/>
       <path d="M 40.578125 0 
L 40.578125 7.625 
Q 34.515625 -1.171875 24.125 -1.171875 
Q 19.53125 -1.171875 15.546875 0.578125 
Q 11.578125 2.34375 9.640625 5 
Q 7.71875 7.671875 6.9375 11.53125 
Q 6.390625 14.109375 6.390625 19.734375 
L 6.390625 51.859375 
L 15.1875 51.859375 
L 15.1875 23.09375 
Q 15.1875 16.21875 15.71875 13.8125 
Q 16.546875 10.359375 19.234375 8.375 
Q 21.921875 6.390625 25.875 6.390625 
Q 29.828125 6.390625 33.296875 8.421875 
Q 36.765625 10.453125 38.203125 13.9375 
Q 39.65625 17.4375 39.65625 24.078125 
L 39.65625 51.859375 
L 48.4375 51.859375 
L 48.4375 0 
z
" id="ArialMT-117"/>
       <path d="M 6.5 0 
L 6.5 51.859375 
L 14.40625 51.859375 
L 14.40625 44 
Q 17.4375 49.515625 20 51.265625 
Q 22.5625 53.03125 25.640625 53.03125 
Q 30.078125 53.03125 34.671875 50.203125 
L 31.640625 42.046875 
Q 28.421875 43.953125 25.203125 43.953125 
Q 22.3125 43.953125 20.015625 42.21875 
Q 17.71875 40.484375 16.75 37.40625 
Q 15.28125 32.71875 15.28125 27.15625 
L 15.28125 0 
z
" id="ArialMT-114"/>
       <path d="M 6.59375 0 
L 6.59375 51.859375 
L 14.5 51.859375 
L 14.5 44.484375 
Q 20.21875 53.03125 31 53.03125 
Q 35.6875 53.03125 39.625 51.34375 
Q 43.5625 49.65625 45.515625 46.921875 
Q 47.46875 44.1875 48.25 40.4375 
Q 48.734375 37.984375 48.734375 31.890625 
L 48.734375 0 
L 39.9375 0 
L 39.9375 31.546875 
Q 39.9375 36.921875 38.90625 39.578125 
Q 37.890625 42.234375 35.28125 43.8125 
Q 32.671875 45.40625 29.15625 45.40625 
Q 23.53125 45.40625 19.453125 41.84375 
Q 15.375 38.28125 15.375 28.328125 
L 15.375 0 
z
" id="ArialMT-110"/>
       <path d="M 25.78125 7.859375 
L 27.046875 0.09375 
Q 23.34375 -0.6875 20.40625 -0.6875 
Q 15.625 -0.6875 12.984375 0.828125 
Q 10.359375 2.34375 9.28125 4.8125 
Q 8.203125 7.28125 8.203125 15.1875 
L 8.203125 45.015625 
L 1.765625 45.015625 
L 1.765625 51.859375 
L 8.203125 51.859375 
L 8.203125 64.703125 
L 16.9375 69.96875 
L 16.9375 51.859375 
L 25.78125 51.859375 
L 25.78125 45.015625 
L 16.9375 45.015625 
L 16.9375 14.703125 
Q 16.9375 10.9375 17.40625 9.859375 
Q 17.875 8.796875 18.921875 8.15625 
Q 19.96875 7.515625 21.921875 7.515625 
Q 23.390625 7.515625 25.78125 7.859375 
z
" id="ArialMT-116"/>
      </defs>
      <use xlink:href="#ArialMT-67"/>
      <use x="72.216797" xlink:href="#ArialMT-117"/>
      <use x="127.832031" xlink:href="#ArialMT-114"/>
      <use x="161.132812" xlink:href="#ArialMT-114"/>
      <use x="194.433594" xlink:href="#ArialMT-101"/>
      <use x="250.048828" xlink:href="#ArialMT-110"/>
      <use x="305.664062" xlink:href="#ArialMT-116"/>
     </g>
    </g>
   </g>
   <g id="line2d_14">
    <path clip-path="url(#p7b0b66af95)" d="M 88.692841 177.584385 
L 89.504994 193.08939 
L 90.317147 177.584385 
L 95.190067 177.584385 
L 96.00222 193.002037 
L 96.814374 177.584385 
L 103.3116 177.497031 
L 104.935906 177.481149 
L 105.74806 146.48702 
L 113.869592 146.399666 
L 115.493899 177.314384 
L 117.930359 177.346148 
L 118.742512 200.587775 
L 119.554665 177.346148 
L 120.366818 177.346148 
L 121.178972 200.587775 
L 125.239738 200.484539 
L 126.051891 231.510431 
L 126.864045 239.175584 
L 127.676198 239.175584 
L 129.300504 223.654694 
L 130.112658 231.383372 
L 130.924811 231.383372 
L 131.736964 239.119995 
L 133.361271 223.654694 
L 141.482803 223.591166 
L 142.294957 208.125864 
L 146.355723 207.990864 
L 147.167876 200.270127 
L 147.98003 200.270127 
L 148.792183 192.4938 
L 150.416489 192.4938 
L 151.228643 200.270127 
L 153.665103 200.270127 
L 154.477256 207.990864 
L 156.101562 238.89764 
L 156.913716 238.929402 
L 158.538022 269.891768 
L 162.598788 269.891768 
L 163.410942 238.89764 
L 164.223095 200.087479 
L 165.035248 238.786462 
L 165.847402 200.087479 
L 166.659555 192.350859 
L 167.471708 176.837912 
L 169.908168 176.798206 
L 170.720321 169.061585 
L 171.532474 169.061585 
L 172.344628 176.798206 
L 173.156781 176.798206 
L 173.968934 169.061585 
L 175.593241 169.061585 
L 176.405394 145.835843 
L 177.217547 145.835843 
L 178.029701 169.061585 
L 178.841854 169.061585 
L 179.654007 176.66883 
L 180.46616 145.796135 
L 188.587693 145.609516 
L 189.399846 137.830213 
L 191.836306 137.830213 
L 192.648459 145.50529 
L 194.272766 145.609516 
L 195.084919 145.609516 
L 195.897073 160.98283 
L 200.769992 161.017574 
L 201.582145 176.390888 
L 202.394299 161.017574 
L 203.206452 176.390888 
L 207.267218 176.390888 
L 208.079372 160.913346 
L 208.891525 137.64492 
L 209.703678 137.64492 
L 210.515831 52.431583 
L 213.764444 52.431583 
L 214.576598 145.192605 
L 217.013058 145.192605 
L 217.825211 160.646986 
L 218.637364 207.102774 
L 221.885977 207.137516 
L 222.69813 222.557154 
L 223.510284 222.557154 
L 224.322437 207.137516 
L 226.758897 207.137516 
L 227.57105 222.557154 
L 228.383203 207.102774 
L 232.44397 206.998545 
L 233.256123 230.220649 
L 235.692583 230.220649 
L 236.504736 237.895727 
L 238.129043 237.953632 
L 238.941196 261.059924 
L 243.814115 261.059924 
L 244.626269 230.000613 
L 245.438422 222.232889 
L 246.250575 230.000613 
L 247.062729 222.232889 
L 247.874882 206.732184 
L 258.432874 206.68586 
L 259.245028 222.047593 
L 261.681487 222.117078 
L 262.493641 237.559877 
L 265.742254 237.559877 
L 266.554407 222.047593 
L 267.36656 222.047593 
L 268.178714 175.557062 
L 268.990867 175.557062 
L 269.80302 221.850718 
L 270.615173 159.95213 
L 276.300246 159.95213 
L 277.1124 175.302281 
L 281.173166 175.244377 
L 281.985319 167.56136 
L 282.797472 175.244377 
L 285.233932 175.244377 
L 286.046085 167.56136 
L 286.858239 167.56136 
L 288.482545 152.17481 
L 289.294699 152.17481 
L 290.106852 167.56136 
L 291.731158 167.56136 
L 292.543312 190.856589 
L 294.979771 190.856589 
L 295.791925 175.613643 
L 296.604078 152.17481 
L 297.416231 160.206579 
L 299.040538 160.206579 
L 299.852691 175.613643 
L 300.664844 175.777761 
L 301.476998 175.777761 
L 302.289151 175.613643 
L 303.101304 175.777761 
L 303.913457 175.613643 
L 305.537764 175.613643 
L 306.349917 175.777761 
L 307.162071 160.452756 
L 307.974224 175.777761 
L 310.410684 175.777761 
L 312.03499 145.004662 
L 312.847143 137.280617 
L 313.659297 113.862296 
L 314.47145 98.414205 
L 315.283603 98.414205 
L 316.095756 83.089195 
L 316.90791 83.089195 
L 317.720063 137.280617 
L 318.532216 137.280617 
L 319.34437 106.548549 
L 321.780829 106.548549 
L 322.592983 137.588339 
L 323.405136 160.801509 
L 326.653749 222.696457 
L 327.465902 222.819545 
L 330.714515 222.840059 
L 331.526669 223.024693 
L 332.338822 223.024693 
L 333.150975 230.666678 
L 333.963128 230.830798 
L 334.775282 230.830798 
L 335.587435 238.390727 
L 338.023895 238.390727 
L 338.836048 230.892343 
L 345.333274 230.830798 
L 346.145427 223.393957 
L 349.394041 223.393957 
L 350.206194 230.994917 
L 351.8305 230.994917 
L 352.642654 223.393957 
L 353.454807 231.323153 
L 354.26696 223.393957 
L 355.891267 223.393957 
L 356.70342 231.323153 
L 358.327727 231.323153 
L 359.13988 223.681165 
L 359.952033 208.212557 
L 360.764186 208.212557 
L 361.57634 177.275339 
L 362.388493 177.275339 
L 363.200646 208.212557 
L 364.012799 223.681165 
L 365.637106 239.108744 
L 366.449259 301.106266 
L 368.073566 301.106266 
L 368.885719 285.904351 
L 372.134332 285.904351 
L 372.946485 262.732207 
L 373.758639 278.303389 
L 374.570792 262.732207 
L 375.382945 208.479249 
L 376.195098 208.479249 
L 377.819405 193.195273 
L 380.255865 193.133728 
L 381.068018 162.299086 
L 381.880171 170.084677 
L 382.692325 162.299086 
L 383.504478 162.114453 
L 385.128784 162.404969 
L 394.06247 162.500263 
L 394.874624 170.161442 
L 398.123237 170.209089 
L 398.93539 193.454686 
L 399.747543 201.270718 
L 400.559697 193.454686 
L 401.37185 193.454686 
L 402.184003 170.399678 
L 402.996156 170.399678 
L 403.80831 178.156151 
L 404.620463 178.168063 
L 405.432616 201.270718 
L 406.244769 178.168063 
L 409.493383 178.168063 
L 410.305536 193.728657 
L 411.117689 178.168063 
L 411.929842 178.168063 
L 412.741996 178.299093 
L 413.554149 193.728657 
L 415.990609 193.728657 
L 416.802762 178.299093 
L 417.614915 170.530708 
L 419.239222 170.530708 
L 420.051375 178.299093 
L 420.863528 170.530708 
L 421.675682 170.530708 
L 424.112141 147.463789 
L 426.548601 147.463789 
L 428.172908 163.000558 
L 428.985061 178.537329 
L 429.797214 178.54924 
L 430.609368 193.919246 
L 432.233674 193.919246 
L 433.045827 209.491751 
L 435.482287 209.491751 
L 436.29444 225.111905 
L 437.106594 225.111905 
L 437.918747 240.529556 
L 438.7309 225.111905 
L 439.543054 240.529556 
L 442.791667 240.529556 
L 444.415973 225.111905 
L 445.228126 225.111905 
L 446.04028 225.254845 
L 446.852433 225.254845 
L 447.664586 232.927937 
L 448.476739 232.927937 
L 449.288893 225.254845 
L 450.913199 225.254845 
L 451.725353 178.858947 
L 453.349659 178.858947 
L 453.349659 178.858947 
" style="fill:none;stroke:#4c72b0;stroke-linecap:round;stroke-width:1.5;"/>
   </g>
   <g id="line2d_15">
    <path clip-path="url(#p7b0b66af95)" d="M 88.692841 313.54 
L 88.692841 39.997849 
" style="fill:none;stroke:#ff0000;stroke-dasharray:5.55,2.4;stroke-dashoffset:0;stroke-width:1.5;"/>
   </g>
   <g id="line2d_16">
    <path clip-path="url(#p7b0b66af95)" d="M 192.648459 313.54 
L 192.648459 39.997849 
" style="fill:none;stroke:#ff0000;stroke-dasharray:5.55,2.4;stroke-dashoffset:0;stroke-width:1.5;"/>
   </g>
   <g id="line2d_17">
    <path clip-path="url(#p7b0b66af95)" d="M 296.604078 313.54 
L 296.604078 39.997849 
" style="fill:none;stroke:#ff0000;stroke-dasharray:5.55,2.4;stroke-dashoffset:0;stroke-width:1.5;"/>
   </g>
   <g id="line2d_18">
    <path clip-path="url(#p7b0b66af95)" d="M 400.559697 313.54 
L 400.559697 39.997849 
" style="fill:none;stroke:#ff0000;stroke-dasharray:5.55,2.4;stroke-dashoffset:0;stroke-width:1.5;"/>
   </g>
   <g id="patch_3">
    <path d="M 70.46 313.54 
L 70.46 39.997849 
" style="fill:none;stroke:#ffffff;stroke-linecap:square;stroke-linejoin:miter;stroke-width:1.25;"/>
   </g>
   <g id="patch_4">
    <path d="M 471.5825 313.54 
L 471.5825 39.997849 
" style="fill:none;stroke:#ffffff;stroke-linecap:square;stroke-linejoin:miter;stroke-width:1.25;"/>
   </g>
   <g id="patch_5">
    <path d="M 70.46 313.54 
L 471.5825 313.54 
" style="fill:none;stroke:#ffffff;stroke-linecap:square;stroke-linejoin:miter;stroke-width:1.25;"/>
   </g>
   <g id="patch_6">
    <path d="M 70.46 39.997849 
L 471.5825 39.997849 
" style="fill:none;stroke:#ffffff;stroke-linecap:square;stroke-linejoin:miter;stroke-width:1.25;"/>
   </g>
  </g>
  <g id="axes_2">
   <g id="patch_7">
    <path d="M 521.9175 313.54 
L 923.04 313.54 
L 923.04 39.997849 
L 521.9175 39.997849 
z
" style="fill:#eaeaf2;"/>
   </g>
   <g id="matplotlib.axis_3">
    <g id="xtick_6">
     <g id="line2d_19">
      <path clip-path="url(#p6d1a22a0c3)" d="M 540.150341 313.54 
L 540.150341 39.997849 
" style="fill:none;stroke:#ffffff;stroke-linecap:round;"/>
     </g>
     <g id="text_16">
      <!-- 0 -->
      <g style="fill:#262626;" transform="translate(537.091825 330.913594)scale(0.11 -0.11)">
       <use xlink:href="#ArialMT-48"/>
      </g>
     </g>
    </g>
    <g id="xtick_7">
     <g id="line2d_20">
      <path clip-path="url(#p6d1a22a0c3)" d="M 597.576611 313.54 
L 597.576611 39.997849 
" style="fill:none;stroke:#ffffff;stroke-linecap:round;"/>
     </g>
     <g id="text_17">
      <!-- 20 -->
      <g style="fill:#262626;" transform="translate(591.45958 330.913594)scale(0.11 -0.11)">
       <use xlink:href="#ArialMT-50"/>
       <use x="55.615234" xlink:href="#ArialMT-48"/>
      </g>
     </g>
    </g>
    <g id="xtick_8">
     <g id="line2d_21">
      <path clip-path="url(#p6d1a22a0c3)" d="M 655.002882 313.54 
L 655.002882 39.997849 
" style="fill:none;stroke:#ffffff;stroke-linecap:round;"/>
     </g>
     <g id="text_18">
      <!-- 40 -->
      <g style="fill:#262626;" transform="translate(648.885851 330.913594)scale(0.11 -0.11)">
       <use xlink:href="#ArialMT-52"/>
       <use x="55.615234" xlink:href="#ArialMT-48"/>
      </g>
     </g>
    </g>
    <g id="xtick_9">
     <g id="line2d_22">
      <path clip-path="url(#p6d1a22a0c3)" d="M 712.429153 313.54 
L 712.429153 39.997849 
" style="fill:none;stroke:#ffffff;stroke-linecap:round;"/>
     </g>
     <g id="text_19">
      <!-- 60 -->
      <g style="fill:#262626;" transform="translate(706.312121 330.913594)scale(0.11 -0.11)">
       <defs>
        <path d="M 49.75 54.046875 
L 41.015625 53.375 
Q 39.84375 58.546875 37.703125 60.890625 
Q 34.125 64.65625 28.90625 64.65625 
Q 24.703125 64.65625 21.53125 62.3125 
Q 17.390625 59.28125 14.984375 53.46875 
Q 12.59375 47.65625 12.5 36.921875 
Q 15.671875 41.75 20.265625 44.09375 
Q 24.859375 46.4375 29.890625 46.4375 
Q 38.671875 46.4375 44.84375 39.96875 
Q 51.03125 33.5 51.03125 23.25 
Q 51.03125 16.5 48.125 10.71875 
Q 45.21875 4.9375 40.140625 1.859375 
Q 35.0625 -1.21875 28.609375 -1.21875 
Q 17.625 -1.21875 10.6875 6.859375 
Q 3.765625 14.9375 3.765625 33.5 
Q 3.765625 54.25 11.421875 63.671875 
Q 18.109375 71.875 29.4375 71.875 
Q 37.890625 71.875 43.28125 67.140625 
Q 48.6875 62.40625 49.75 54.046875 
z
M 13.875 23.1875 
Q 13.875 18.65625 15.796875 14.5 
Q 17.71875 10.359375 21.1875 8.171875 
Q 24.65625 6 28.46875 6 
Q 34.03125 6 38.03125 10.484375 
Q 42.046875 14.984375 42.046875 22.703125 
Q 42.046875 30.125 38.078125 34.390625 
Q 34.125 38.671875 28.125 38.671875 
Q 22.171875 38.671875 18.015625 34.390625 
Q 13.875 30.125 13.875 23.1875 
z
" id="ArialMT-54"/>
       </defs>
       <use xlink:href="#ArialMT-54"/>
       <use x="55.615234" xlink:href="#ArialMT-48"/>
      </g>
     </g>
    </g>
    <g id="xtick_10">
     <g id="line2d_23">
      <path clip-path="url(#p6d1a22a0c3)" d="M 769.855423 313.54 
L 769.855423 39.997849 
" style="fill:none;stroke:#ffffff;stroke-linecap:round;"/>
     </g>
     <g id="text_20">
      <!-- 80 -->
      <g style="fill:#262626;" transform="translate(763.738392 330.913594)scale(0.11 -0.11)">
       <defs>
        <path d="M 17.671875 38.8125 
Q 12.203125 40.828125 9.5625 44.53125 
Q 6.9375 48.25 6.9375 53.421875 
Q 6.9375 61.234375 12.546875 66.546875 
Q 18.171875 71.875 27.484375 71.875 
Q 36.859375 71.875 42.578125 66.421875 
Q 48.296875 60.984375 48.296875 53.171875 
Q 48.296875 48.1875 45.671875 44.5 
Q 43.0625 40.828125 37.75 38.8125 
Q 44.34375 36.671875 47.78125 31.875 
Q 51.21875 27.09375 51.21875 20.453125 
Q 51.21875 11.28125 44.71875 5.03125 
Q 38.234375 -1.21875 27.640625 -1.21875 
Q 17.046875 -1.21875 10.546875 5.046875 
Q 4.046875 11.328125 4.046875 20.703125 
Q 4.046875 27.6875 7.59375 32.390625 
Q 11.140625 37.109375 17.671875 38.8125 
z
M 15.921875 53.71875 
Q 15.921875 48.640625 19.1875 45.40625 
Q 22.46875 42.1875 27.6875 42.1875 
Q 32.765625 42.1875 36.015625 45.375 
Q 39.265625 48.578125 39.265625 53.21875 
Q 39.265625 58.0625 35.90625 61.359375 
Q 32.5625 64.65625 27.59375 64.65625 
Q 22.5625 64.65625 19.234375 61.421875 
Q 15.921875 58.203125 15.921875 53.71875 
z
M 13.09375 20.65625 
Q 13.09375 16.890625 14.875 13.375 
Q 16.65625 9.859375 20.171875 7.921875 
Q 23.6875 6 27.734375 6 
Q 34.03125 6 38.125 10.046875 
Q 42.234375 14.109375 42.234375 20.359375 
Q 42.234375 26.703125 38.015625 30.859375 
Q 33.796875 35.015625 27.4375 35.015625 
Q 21.234375 35.015625 17.15625 30.90625 
Q 13.09375 26.8125 13.09375 20.65625 
z
" id="ArialMT-56"/>
       </defs>
       <use xlink:href="#ArialMT-56"/>
       <use x="55.615234" xlink:href="#ArialMT-48"/>
      </g>
     </g>
    </g>
    <g id="xtick_11">
     <g id="line2d_24">
      <path clip-path="url(#p6d1a22a0c3)" d="M 827.281694 313.54 
L 827.281694 39.997849 
" style="fill:none;stroke:#ffffff;stroke-linecap:round;"/>
     </g>
     <g id="text_21">
      <!-- 100 -->
      <g style="fill:#262626;" transform="translate(818.106147 330.913594)scale(0.11 -0.11)">
       <use xlink:href="#ArialMT-49"/>
       <use x="55.615234" xlink:href="#ArialMT-48"/>
       <use x="111.230469" xlink:href="#ArialMT-48"/>
      </g>
     </g>
    </g>
    <g id="xtick_12">
     <g id="line2d_25">
      <path clip-path="url(#p6d1a22a0c3)" d="M 884.707964 313.54 
L 884.707964 39.997849 
" style="fill:none;stroke:#ffffff;stroke-linecap:round;"/>
     </g>
     <g id="text_22">
      <!-- 120 -->
      <g style="fill:#262626;" transform="translate(875.532418 330.913594)scale(0.11 -0.11)">
       <use xlink:href="#ArialMT-49"/>
       <use x="55.615234" xlink:href="#ArialMT-50"/>
       <use x="111.230469" xlink:href="#ArialMT-48"/>
      </g>
     </g>
    </g>
    <g id="text_23">
     <!-- Samples -->
     <g style="fill:#262626;" transform="translate(699.135937 345.835469)scale(0.12 -0.12)">
      <use xlink:href="#ArialMT-83"/>
      <use x="66.699219" xlink:href="#ArialMT-97"/>
      <use x="122.314453" xlink:href="#ArialMT-109"/>
      <use x="205.615234" xlink:href="#ArialMT-112"/>
      <use x="261.230469" xlink:href="#ArialMT-108"/>
      <use x="283.447266" xlink:href="#ArialMT-101"/>
      <use x="339.0625" xlink:href="#ArialMT-115"/>
     </g>
    </g>
   </g>
   <g id="matplotlib.axis_4">
    <g id="ytick_9">
     <g id="line2d_26">
      <path clip-path="url(#p6d1a22a0c3)" d="M 521.9175 301.115809 
L 923.04 301.115809 
" style="fill:none;stroke:#ffffff;stroke-linecap:round;"/>
     </g>
     <g id="text_24">
      <!-- −1.00 -->
      <g style="fill:#262626;" transform="translate(484.585781 305.052606)scale(0.11 -0.11)">
       <use xlink:href="#ArialMT-8722"/>
       <use x="58.398438" xlink:href="#ArialMT-49"/>
       <use x="114.013672" xlink:href="#ArialMT-46"/>
       <use x="141.796875" xlink:href="#ArialMT-48"/>
       <use x="197.412109" xlink:href="#ArialMT-48"/>
      </g>
     </g>
    </g>
    <g id="ytick_10">
     <g id="line2d_27">
      <path clip-path="url(#p6d1a22a0c3)" d="M 521.9175 270.02692 
L 923.04 270.02692 
" style="fill:none;stroke:#ffffff;stroke-linecap:round;"/>
     </g>
     <g id="text_25">
      <!-- −0.75 -->
      <g style="fill:#262626;" transform="translate(484.585781 273.963717)scale(0.11 -0.11)">
       <use xlink:href="#ArialMT-8722"/>
       <use x="58.398438" xlink:href="#ArialMT-48"/>
       <use x="114.013672" xlink:href="#ArialMT-46"/>
       <use x="141.796875" xlink:href="#ArialMT-55"/>
       <use x="197.412109" xlink:href="#ArialMT-53"/>
      </g>
     </g>
    </g>
    <g id="ytick_11">
     <g id="line2d_28">
      <path clip-path="url(#p6d1a22a0c3)" d="M 521.9175 238.93803 
L 923.04 238.93803 
" style="fill:none;stroke:#ffffff;stroke-linecap:round;"/>
     </g>
     <g id="text_26">
      <!-- −0.50 -->
      <g style="fill:#262626;" transform="translate(484.585781 242.874827)scale(0.11 -0.11)">
       <use xlink:href="#ArialMT-8722"/>
       <use x="58.398438" xlink:href="#ArialMT-48"/>
       <use x="114.013672" xlink:href="#ArialMT-46"/>
       <use x="141.796875" xlink:href="#ArialMT-53"/>
       <use x="197.412109" xlink:href="#ArialMT-48"/>
      </g>
     </g>
    </g>
    <g id="ytick_12">
     <g id="line2d_29">
      <path clip-path="url(#p6d1a22a0c3)" d="M 521.9175 207.849141 
L 923.04 207.849141 
" style="fill:none;stroke:#ffffff;stroke-linecap:round;"/>
     </g>
     <g id="text_27">
      <!-- −0.25 -->
      <g style="fill:#262626;" transform="translate(484.585781 211.785938)scale(0.11 -0.11)">
       <use xlink:href="#ArialMT-8722"/>
       <use x="58.398438" xlink:href="#ArialMT-48"/>
       <use x="114.013672" xlink:href="#ArialMT-46"/>
       <use x="141.796875" xlink:href="#ArialMT-50"/>
       <use x="197.412109" xlink:href="#ArialMT-53"/>
      </g>
     </g>
    </g>
    <g id="ytick_13">
     <g id="line2d_30">
      <path clip-path="url(#p6d1a22a0c3)" d="M 521.9175 176.760251 
L 923.04 176.760251 
" style="fill:none;stroke:#ffffff;stroke-linecap:round;"/>
     </g>
     <g id="text_28">
      <!-- 0.00 -->
      <g style="fill:#262626;" transform="translate(491.010469 180.697048)scale(0.11 -0.11)">
       <use xlink:href="#ArialMT-48"/>
       <use x="55.615234" xlink:href="#ArialMT-46"/>
       <use x="83.398438" xlink:href="#ArialMT-48"/>
       <use x="139.013672" xlink:href="#ArialMT-48"/>
      </g>
     </g>
    </g>
    <g id="ytick_14">
     <g id="line2d_31">
      <path clip-path="url(#p6d1a22a0c3)" d="M 521.9175 145.671362 
L 923.04 145.671362 
" style="fill:none;stroke:#ffffff;stroke-linecap:round;"/>
     </g>
     <g id="text_29">
      <!-- 0.25 -->
      <g style="fill:#262626;" transform="translate(491.010469 149.608159)scale(0.11 -0.11)">
       <use xlink:href="#ArialMT-48"/>
       <use x="55.615234" xlink:href="#ArialMT-46"/>
       <use x="83.398438" xlink:href="#ArialMT-50"/>
       <use x="139.013672" xlink:href="#ArialMT-53"/>
      </g>
     </g>
    </g>
    <g id="ytick_15">
     <g id="line2d_32">
      <path clip-path="url(#p6d1a22a0c3)" d="M 521.9175 114.582472 
L 923.04 114.582472 
" style="fill:none;stroke:#ffffff;stroke-linecap:round;"/>
     </g>
     <g id="text_30">
      <!-- 0.50 -->
      <g style="fill:#262626;" transform="translate(491.010469 118.519269)scale(0.11 -0.11)">
       <use xlink:href="#ArialMT-48"/>
       <use x="55.615234" xlink:href="#ArialMT-46"/>
       <use x="83.398438" xlink:href="#ArialMT-53"/>
       <use x="139.013672" xlink:href="#ArialMT-48"/>
      </g>
     </g>
    </g>
    <g id="ytick_16">
     <g id="line2d_33">
      <path clip-path="url(#p6d1a22a0c3)" d="M 521.9175 83.493583 
L 923.04 83.493583 
" style="fill:none;stroke:#ffffff;stroke-linecap:round;"/>
     </g>
     <g id="text_31">
      <!-- 0.75 -->
      <g style="fill:#262626;" transform="translate(491.010469 87.43038)scale(0.11 -0.11)">
       <use xlink:href="#ArialMT-48"/>
       <use x="55.615234" xlink:href="#ArialMT-46"/>
       <use x="83.398438" xlink:href="#ArialMT-55"/>
       <use x="139.013672" xlink:href="#ArialMT-53"/>
      </g>
     </g>
    </g>
    <g id="ytick_17">
     <g id="line2d_34">
      <path clip-path="url(#p6d1a22a0c3)" d="M 521.9175 52.404693 
L 923.04 52.404693 
" style="fill:none;stroke:#ffffff;stroke-linecap:round;"/>
     </g>
     <g id="text_32">
      <!-- 1.00 -->
      <g style="fill:#262626;" transform="translate(491.010469 56.34149)scale(0.11 -0.11)">
       <use xlink:href="#ArialMT-49"/>
       <use x="55.615234" xlink:href="#ArialMT-46"/>
       <use x="83.398438" xlink:href="#ArialMT-48"/>
       <use x="139.013672" xlink:href="#ArialMT-48"/>
      </g>
     </g>
    </g>
   </g>
   <g id="line2d_35">
    <path clip-path="url(#p6d1a22a0c3)" d="M 540.150341 175.923964 
L 543.021654 177.269727 
L 545.892968 175.923964 
L 563.120849 175.923964 
L 565.992163 177.262145 
L 568.863476 175.923964 
L 597.576611 175.915004 
L 600.447925 173.224857 
L 629.16106 173.217275 
L 634.903687 175.900529 
L 643.517628 175.903287 
L 646.388941 177.920552 
L 649.260255 175.903287 
L 652.131569 175.903287 
L 655.002882 177.920552 
L 669.35945 177.911592 
L 672.230763 180.604496 
L 675.102077 181.269796 
L 677.97339 181.269796 
L 683.716017 179.922654 
L 686.587331 180.593468 
L 689.458644 180.593468 
L 692.329958 181.264971 
L 698.072585 179.922654 
L 726.78572 179.91714 
L 729.657034 178.574824 
L 744.013601 178.563106 
L 746.884915 177.892982 
L 749.756229 177.892982 
L 752.627542 177.218033 
L 758.370169 177.218033 
L 761.241483 177.892982 
L 769.855423 177.892982 
L 772.726737 178.563106 
L 778.469364 181.245672 
L 781.340677 181.248428 
L 787.083304 183.935819 
L 801.439872 183.935819 
L 804.311186 181.245672 
L 807.182499 177.877129 
L 810.053813 181.236022 
L 812.925126 177.877129 
L 815.79644 177.205626 
L 818.667753 175.859174 
L 827.281694 175.855728 
L 830.153007 175.184225 
L 833.024321 175.184225 
L 835.895634 175.855728 
L 838.766948 175.855728 
L 841.638261 175.184225 
L 847.380889 175.184225 
L 850.252202 173.168338 
L 853.123516 173.168338 
L 855.994829 175.184225 
L 858.866143 175.184225 
L 861.737456 175.844498 
L 864.60877 173.164891 
L 893.321905 173.148694 
L 896.193219 172.473486 
L 904.807159 172.473486 
L 904.807159 172.473486 
" style="fill:none;stroke:#4c72b0;stroke-linecap:round;stroke-width:1.5;"/>
   </g>
   <g id="line2d_36">
    <path clip-path="url(#p6d1a22a0c3)" d="M 540.150341 176.760251 
L 543.021654 170.545064 
L 545.892968 164.345411 
L 548.764281 158.176789 
L 551.635595 152.054616 
L 554.506909 145.994194 
L 557.378222 140.010671 
L 560.249536 134.119003 
L 563.120849 128.333916 
L 565.992163 122.66987 
L 568.863476 117.141021 
L 571.73479 111.761189 
L 574.606103 106.543821 
L 577.477417 101.501958 
L 580.34873 96.648201 
L 583.220044 91.994683 
L 586.091357 87.553034 
L 588.962671 83.334357 
L 591.833984 79.349196 
L 594.705298 75.607512 
L 597.576611 72.118657 
L 600.447925 68.891352 
L 603.319239 65.933663 
L 606.190552 63.252982 
L 609.061866 60.856011 
L 611.933179 58.748739 
L 614.804493 56.936435 
L 617.675806 55.423629 
L 620.54712 54.2141 
L 623.418433 53.310873 
L 626.289747 52.716206 
L 629.16106 52.431583 
L 632.032374 52.457718 
L 634.903687 52.794544 
L 637.775001 53.44122 
L 640.646314 54.39613 
L 643.517628 55.656886 
L 646.388941 57.220337 
L 649.260255 59.082576 
L 652.131569 61.238948 
L 655.002882 63.684062 
L 657.874196 66.411809 
L 660.745509 69.415369 
L 663.616823 72.687235 
L 666.488136 76.21923 
L 669.35945 80.002525 
L 672.230763 84.027664 
L 675.102077 88.284586 
L 677.97339 92.762651 
L 680.844704 97.450666 
L 683.716017 102.336914 
L 686.587331 107.409181 
L 689.458644 112.654791 
L 692.329958 118.06063 
L 695.201271 123.613188 
L 698.072585 129.298586 
L 700.943899 135.102613 
L 703.815212 141.010763 
L 706.686526 147.008267 
L 709.557839 153.080137 
L 712.429153 159.211194 
L 715.300466 165.386115 
L 718.17178 171.589465 
L 721.043093 177.805739 
L 723.914407 184.0194 
L 726.78572 190.214918 
L 729.657034 196.376805 
L 732.528347 202.489661 
L 735.399661 208.538208 
L 738.270974 214.507325 
L 741.142288 220.382095 
L 744.013601 226.147833 
L 746.884915 231.790128 
L 749.756229 237.294877 
L 752.627542 242.64832 
L 755.498856 247.837078 
L 758.370169 252.848181 
L 761.241483 257.669103 
L 764.112796 262.287796 
L 766.98411 266.692714 
L 769.855423 270.872848 
L 772.726737 274.817749 
L 775.59805 278.517558 
L 778.469364 281.963026 
L 781.340677 285.145543 
L 784.211991 288.057152 
L 787.083304 290.690578 
L 789.954618 293.039236 
L 792.825931 295.097258 
L 795.697245 296.859499 
L 798.568559 298.321554 
L 801.439872 299.47977 
L 804.311186 300.33125 
L 807.182499 300.873868 
L 810.053813 301.106266 
L 812.925126 301.027864 
L 815.79644 300.638857 
L 818.667753 299.940218 
L 821.539067 298.933694 
L 824.41038 297.6218 
L 827.281694 296.007814 
L 830.153007 294.095772 
L 833.024321 291.890453 
L 835.895634 289.397367 
L 838.766948 286.622748 
L 841.638261 283.573529 
L 844.509575 280.257333 
L 847.380889 276.682449 
L 850.252202 272.85781 
L 853.123516 268.792978 
L 855.994829 264.498112 
L 858.866143 259.983947 
L 861.737456 255.261766 
L 864.60877 250.343372 
L 867.480083 245.241059 
L 870.351397 239.96758 
L 873.22271 234.536115 
L 876.094024 228.96024 
L 878.965337 223.253893 
L 881.836651 217.431335 
L 884.707964 211.507121 
L 887.579278 205.496059 
L 890.450591 199.413171 
L 893.321905 193.273663 
L 896.193219 187.09288 
L 899.064532 180.886271 
" style="fill:none;stroke:#dd8452;stroke-linecap:round;stroke-width:1.5;"/>
   </g>
   <g id="patch_8">
    <path d="M 521.9175 313.54 
L 521.9175 39.997849 
" style="fill:none;stroke:#ffffff;stroke-linecap:square;stroke-linejoin:miter;stroke-width:1.25;"/>
   </g>
   <g id="patch_9">
    <path d="M 923.04 313.54 
L 923.04 39.997849 
" style="fill:none;stroke:#ffffff;stroke-linecap:square;stroke-linejoin:miter;stroke-width:1.25;"/>
   </g>
   <g id="patch_10">
    <path d="M 521.9175 313.54 
L 923.04 313.54 
" style="fill:none;stroke:#ffffff;stroke-linecap:square;stroke-linejoin:miter;stroke-width:1.25;"/>
   </g>
   <g id="patch_11">
    <path d="M 521.9175 39.997849 
L 923.04 39.997849 
" style="fill:none;stroke:#ffffff;stroke-linecap:square;stroke-linejoin:miter;stroke-width:1.25;"/>
   </g>
  </g>
  <g id="text_33">
   <!-- Visualization of current cycles on an monitor event -->
   <g style="fill:#262626;" transform="translate(307.654875 17.68275)scale(0.144 -0.144)">
    <defs>
     <path d="M 28.171875 0 
L 0.4375 71.578125 
L 10.6875 71.578125 
L 29.296875 19.578125 
Q 31.546875 13.328125 33.0625 7.859375 
Q 34.71875 13.71875 36.921875 19.578125 
L 56.25 71.578125 
L 65.921875 71.578125 
L 37.890625 0 
z
" id="ArialMT-86"/>
     <path d="M 6.640625 61.46875 
L 6.640625 71.578125 
L 15.4375 71.578125 
L 15.4375 61.46875 
z
M 6.640625 0 
L 6.640625 51.859375 
L 15.4375 51.859375 
L 15.4375 0 
z
" id="ArialMT-105"/>
     <path d="M 1.953125 0 
L 1.953125 7.125 
L 34.96875 45.015625 
Q 29.34375 44.734375 25.046875 44.734375 
L 3.90625 44.734375 
L 3.90625 51.859375 
L 46.296875 51.859375 
L 46.296875 46.046875 
L 18.21875 13.140625 
L 12.796875 7.125 
Q 18.703125 7.5625 23.875 7.5625 
L 47.859375 7.5625 
L 47.859375 0 
z
" id="ArialMT-122"/>
     <path d="M 3.328125 25.921875 
Q 3.328125 40.328125 11.328125 47.265625 
Q 18.015625 53.03125 27.640625 53.03125 
Q 38.328125 53.03125 45.109375 46.015625 
Q 51.90625 39.015625 51.90625 26.65625 
Q 51.90625 16.65625 48.90625 10.90625 
Q 45.90625 5.171875 40.15625 2 
Q 34.421875 -1.171875 27.640625 -1.171875 
Q 16.75 -1.171875 10.03125 5.8125 
Q 3.328125 12.796875 3.328125 25.921875 
z
M 12.359375 25.921875 
Q 12.359375 15.96875 16.703125 11.015625 
Q 21.046875 6.0625 27.640625 6.0625 
Q 34.1875 6.0625 38.53125 11.03125 
Q 42.875 16.015625 42.875 26.21875 
Q 42.875 35.84375 38.5 40.796875 
Q 34.125 45.75 27.640625 45.75 
Q 21.046875 45.75 16.703125 40.8125 
Q 12.359375 35.890625 12.359375 25.921875 
z
" id="ArialMT-111"/>
     <path id="ArialMT-32"/>
     <path d="M 8.6875 0 
L 8.6875 45.015625 
L 0.921875 45.015625 
L 0.921875 51.859375 
L 8.6875 51.859375 
L 8.6875 57.375 
Q 8.6875 62.59375 9.625 65.140625 
Q 10.890625 68.5625 14.078125 70.671875 
Q 17.28125 72.796875 23.046875 72.796875 
Q 26.765625 72.796875 31.25 71.921875 
L 29.9375 64.265625 
Q 27.203125 64.75 24.75 64.75 
Q 20.75 64.75 19.09375 63.03125 
Q 17.4375 61.328125 17.4375 56.640625 
L 17.4375 51.859375 
L 27.546875 51.859375 
L 27.546875 45.015625 
L 17.4375 45.015625 
L 17.4375 0 
z
" id="ArialMT-102"/>
     <path d="M 40.4375 19 
L 49.078125 17.875 
Q 47.65625 8.9375 41.8125 3.875 
Q 35.984375 -1.171875 27.484375 -1.171875 
Q 16.84375 -1.171875 10.375 5.78125 
Q 3.90625 12.75 3.90625 25.734375 
Q 3.90625 34.125 6.6875 40.421875 
Q 9.46875 46.734375 15.15625 49.875 
Q 20.84375 53.03125 27.546875 53.03125 
Q 35.984375 53.03125 41.359375 48.75 
Q 46.734375 44.484375 48.25 36.625 
L 39.703125 35.296875 
Q 38.484375 40.53125 35.375 43.15625 
Q 32.28125 45.796875 27.875 45.796875 
Q 21.234375 45.796875 17.078125 41.03125 
Q 12.9375 36.28125 12.9375 25.984375 
Q 12.9375 15.53125 16.9375 10.796875 
Q 20.953125 6.0625 27.390625 6.0625 
Q 32.5625 6.0625 36.03125 9.234375 
Q 39.5 12.40625 40.4375 19 
z
" id="ArialMT-99"/>
     <path d="M 6.203125 -19.96875 
L 5.21875 -11.71875 
Q 8.109375 -12.5 10.25 -12.5 
Q 13.1875 -12.5 14.9375 -11.515625 
Q 16.703125 -10.546875 17.828125 -8.796875 
Q 18.65625 -7.46875 20.515625 -2.25 
Q 20.75 -1.515625 21.296875 -0.09375 
L 1.609375 51.859375 
L 11.078125 51.859375 
L 21.875 21.828125 
Q 23.96875 16.109375 25.640625 9.8125 
Q 27.15625 15.875 29.25 21.625 
L 40.328125 51.859375 
L 49.125 51.859375 
L 29.390625 -0.875 
Q 26.21875 -9.421875 24.46875 -12.640625 
Q 22.125 -17 19.09375 -19.015625 
Q 16.0625 -21.046875 11.859375 -21.046875 
Q 9.328125 -21.046875 6.203125 -19.96875 
z
" id="ArialMT-121"/>
     <path d="M 21 0 
L 1.265625 51.859375 
L 10.546875 51.859375 
L 21.6875 20.796875 
Q 23.484375 15.765625 25 10.359375 
Q 26.171875 14.453125 28.265625 20.21875 
L 39.796875 51.859375 
L 48.828125 51.859375 
L 29.203125 0 
z
" id="ArialMT-118"/>
    </defs>
    <use xlink:href="#ArialMT-86"/>
    <use x="64.949219" xlink:href="#ArialMT-105"/>
    <use x="87.166016" xlink:href="#ArialMT-115"/>
    <use x="137.166016" xlink:href="#ArialMT-117"/>
    <use x="192.78125" xlink:href="#ArialMT-97"/>
    <use x="248.396484" xlink:href="#ArialMT-108"/>
    <use x="270.613281" xlink:href="#ArialMT-105"/>
    <use x="292.830078" xlink:href="#ArialMT-122"/>
    <use x="342.830078" xlink:href="#ArialMT-97"/>
    <use x="398.445312" xlink:href="#ArialMT-116"/>
    <use x="426.228516" xlink:href="#ArialMT-105"/>
    <use x="448.445312" xlink:href="#ArialMT-111"/>
    <use x="504.060547" xlink:href="#ArialMT-110"/>
    <use x="559.675781" xlink:href="#ArialMT-32"/>
    <use x="587.458984" xlink:href="#ArialMT-111"/>
    <use x="643.074219" xlink:href="#ArialMT-102"/>
    <use x="670.857422" xlink:href="#ArialMT-32"/>
    <use x="698.640625" xlink:href="#ArialMT-99"/>
    <use x="748.640625" xlink:href="#ArialMT-117"/>
    <use x="804.255859" xlink:href="#ArialMT-114"/>
    <use x="837.556641" xlink:href="#ArialMT-114"/>
    <use x="870.857422" xlink:href="#ArialMT-101"/>
    <use x="926.472656" xlink:href="#ArialMT-110"/>
    <use x="982.087891" xlink:href="#ArialMT-116"/>
    <use x="1009.871094" xlink:href="#ArialMT-32"/>
    <use x="1037.654297" xlink:href="#ArialMT-99"/>
    <use x="1087.654297" xlink:href="#ArialMT-121"/>
    <use x="1137.654297" xlink:href="#ArialMT-99"/>
    <use x="1187.654297" xlink:href="#ArialMT-108"/>
    <use x="1209.871094" xlink:href="#ArialMT-101"/>
    <use x="1265.486328" xlink:href="#ArialMT-115"/>
    <use x="1315.486328" xlink:href="#ArialMT-32"/>
    <use x="1343.269531" xlink:href="#ArialMT-111"/>
    <use x="1398.884766" xlink:href="#ArialMT-110"/>
    <use x="1454.5" xlink:href="#ArialMT-32"/>
    <use x="1482.283203" xlink:href="#ArialMT-97"/>
    <use x="1537.898438" xlink:href="#ArialMT-110"/>
    <use x="1593.513672" xlink:href="#ArialMT-32"/>
    <use x="1621.296875" xlink:href="#ArialMT-109"/>
    <use x="1704.597656" xlink:href="#ArialMT-111"/>
    <use x="1760.212891" xlink:href="#ArialMT-110"/>
    <use x="1815.828125" xlink:href="#ArialMT-105"/>
    <use x="1838.044922" xlink:href="#ArialMT-116"/>
    <use x="1865.828125" xlink:href="#ArialMT-111"/>
    <use x="1921.443359" xlink:href="#ArialMT-114"/>
    <use x="1954.744141" xlink:href="#ArialMT-32"/>
    <use x="1982.527344" xlink:href="#ArialMT-101"/>
    <use x="2038.142578" xlink:href="#ArialMT-118"/>
    <use x="2088.142578" xlink:href="#ArialMT-101"/>
    <use x="2143.757812" xlink:href="#ArialMT-110"/>
    <use x="2199.373047" xlink:href="#ArialMT-116"/>
   </g>
  </g>
 </g>
 <defs>
  <clipPath id="p7b0b66af95">
   <rect height="273.542151" width="401.1225" x="70.46" y="39.997849"/>
  </clipPath>
  <clipPath id="p6d1a22a0c3">
   <rect height="273.542151" width="401.1225" x="521.9175" y="39.997849"/>
  </clipPath>
 </defs>
</svg>
