<?xml version="1.0" encoding="utf-8" standalone="no"?>
<!DOCTYPE svg PUBLIC "-//W3C//DTD SVG 1.1//EN"
  "http://www.w3.org/Graphics/SVG/1.1/DTD/svg11.dtd">
<!-- Created with matplotlib (https://matplotlib.org/) -->
<svg height="288pt" version="1.1" viewBox="0 0 720 288" width="720pt" xmlns="http://www.w3.org/2000/svg" xmlns:xlink="http://www.w3.org/1999/xlink">
 <metadata>
  <rdf:RDF xmlns:cc="http://creativecommons.org/ns#" xmlns:dc="http://purl.org/dc/elements/1.1/" xmlns:rdf="http://www.w3.org/1999/02/22-rdf-syntax-ns#">
   <cc:Work>
    <dc:type rdf:resource="http://purl.org/dc/dcmitype/StillImage"/>
    <dc:date>2021-08-12T09:21:00.819223</dc:date>
    <dc:format>image/svg+xml</dc:format>
    <dc:creator>
     <cc:Agent>
      <dc:title>Matplotlib v3.3.4, https://matplotlib.org/</dc:title>
     </cc:Agent>
    </dc:creator>
   </cc:Work>
  </rdf:RDF>
 </metadata>
 <defs>
  <style type="text/css">*{stroke-linecap:butt;stroke-linejoin:round;}</style>
 </defs>
 <g id="figure_1">
  <g id="patch_1">
   <path d="M 0 288 
L 720 288 
L 720 0 
L 0 0 
z
" style="fill:#ffffff;"/>
  </g>
  <g id="axes_1">
   <g id="patch_2">
    <path d="M 51.835 241.493125 
L 707.04 241.493125 
L 707.04 12.96 
L 51.835 12.96 
z
" style="fill:#eaeaf2;"/>
   </g>
   <g id="matplotlib.axis_1">
    <g id="xtick_1">
     <g id="line2d_1">
      <path clip-path="url(#p76aa62b987)" d="M 81.617045 241.493125 
L 81.617045 12.96 
" style="fill:none;stroke:#ffffff;stroke-linecap:round;"/>
     </g>
     <g id="text_1">
      <!-- 0 -->
      <g style="fill:#262626;" transform="translate(78.55853 258.866719)scale(0.11 -0.11)">
       <defs>
        <path d="M 4.15625 35.296875 
Q 4.15625 48 6.765625 55.734375 
Q 9.375 63.484375 14.515625 67.671875 
Q 19.671875 71.875 27.484375 71.875 
Q 33.25 71.875 37.59375 69.546875 
Q 41.9375 67.234375 44.765625 62.859375 
Q 47.609375 58.5 49.21875 52.21875 
Q 50.828125 45.953125 50.828125 35.296875 
Q 50.828125 22.703125 48.234375 14.96875 
Q 45.65625 7.234375 40.5 3 
Q 35.359375 -1.21875 27.484375 -1.21875 
Q 17.140625 -1.21875 11.234375 6.203125 
Q 4.15625 15.140625 4.15625 35.296875 
z
M 13.1875 35.296875 
Q 13.1875 17.671875 17.3125 11.828125 
Q 21.4375 6 27.484375 6 
Q 33.546875 6 37.671875 11.859375 
Q 41.796875 17.71875 41.796875 35.296875 
Q 41.796875 52.984375 37.671875 58.78125 
Q 33.546875 64.59375 27.390625 64.59375 
Q 21.34375 64.59375 17.71875 59.46875 
Q 13.1875 52.9375 13.1875 35.296875 
z
" id="ArialMT-48"/>
       </defs>
       <use xlink:href="#ArialMT-48"/>
      </g>
     </g>
    </g>
    <g id="xtick_2">
     <g id="line2d_2">
      <path clip-path="url(#p76aa62b987)" d="M 201.948542 241.493125 
L 201.948542 12.96 
" style="fill:none;stroke:#ffffff;stroke-linecap:round;"/>
     </g>
     <g id="text_2">
      <!-- 20 -->
      <g style="fill:#262626;" transform="translate(195.831511 258.866719)scale(0.11 -0.11)">
       <defs>
        <path d="M 50.34375 8.453125 
L 50.34375 0 
L 3.03125 0 
Q 2.9375 3.171875 4.046875 6.109375 
Q 5.859375 10.9375 9.828125 15.625 
Q 13.8125 20.3125 21.34375 26.46875 
Q 33.015625 36.03125 37.109375 41.625 
Q 41.21875 47.21875 41.21875 52.203125 
Q 41.21875 57.421875 37.46875 61 
Q 33.734375 64.59375 27.734375 64.59375 
Q 21.390625 64.59375 17.578125 60.78125 
Q 13.765625 56.984375 13.71875 50.25 
L 4.6875 51.171875 
Q 5.609375 61.28125 11.65625 66.578125 
Q 17.71875 71.875 27.9375 71.875 
Q 38.234375 71.875 44.234375 66.15625 
Q 50.25 60.453125 50.25 52 
Q 50.25 47.703125 48.484375 43.546875 
Q 46.734375 39.40625 42.65625 34.8125 
Q 38.578125 30.21875 29.109375 22.21875 
Q 21.1875 15.578125 18.9375 13.203125 
Q 16.703125 10.84375 15.234375 8.453125 
z
" id="ArialMT-50"/>
       </defs>
       <use xlink:href="#ArialMT-50"/>
       <use x="55.615234" xlink:href="#ArialMT-48"/>
      </g>
     </g>
    </g>
    <g id="xtick_3">
     <g id="line2d_3">
      <path clip-path="url(#p76aa62b987)" d="M 322.280039 241.493125 
L 322.280039 12.96 
" style="fill:none;stroke:#ffffff;stroke-linecap:round;"/>
     </g>
     <g id="text_3">
      <!-- 40 -->
      <g style="fill:#262626;" transform="translate(316.163008 258.866719)scale(0.11 -0.11)">
       <defs>
        <path d="M 32.328125 0 
L 32.328125 17.140625 
L 1.265625 17.140625 
L 1.265625 25.203125 
L 33.9375 71.578125 
L 41.109375 71.578125 
L 41.109375 25.203125 
L 50.78125 25.203125 
L 50.78125 17.140625 
L 41.109375 17.140625 
L 41.109375 0 
z
M 32.328125 25.203125 
L 32.328125 57.46875 
L 9.90625 25.203125 
z
" id="ArialMT-52"/>
       </defs>
       <use xlink:href="#ArialMT-52"/>
       <use x="55.615234" xlink:href="#ArialMT-48"/>
      </g>
     </g>
    </g>
    <g id="xtick_4">
     <g id="line2d_4">
      <path clip-path="url(#p76aa62b987)" d="M 442.611536 241.493125 
L 442.611536 12.96 
" style="fill:none;stroke:#ffffff;stroke-linecap:round;"/>
     </g>
     <g id="text_4">
      <!-- 60 -->
      <g style="fill:#262626;" transform="translate(436.494505 258.866719)scale(0.11 -0.11)">
       <defs>
        <path d="M 49.75 54.046875 
L 41.015625 53.375 
Q 39.84375 58.546875 37.703125 60.890625 
Q 34.125 64.65625 28.90625 64.65625 
Q 24.703125 64.65625 21.53125 62.3125 
Q 17.390625 59.28125 14.984375 53.46875 
Q 12.59375 47.65625 12.5 36.921875 
Q 15.671875 41.75 20.265625 44.09375 
Q 24.859375 46.4375 29.890625 46.4375 
Q 38.671875 46.4375 44.84375 39.96875 
Q 51.03125 33.5 51.03125 23.25 
Q 51.03125 16.5 48.125 10.71875 
Q 45.21875 4.9375 40.140625 1.859375 
Q 35.0625 -1.21875 28.609375 -1.21875 
Q 17.625 -1.21875 10.6875 6.859375 
Q 3.765625 14.9375 3.765625 33.5 
Q 3.765625 54.25 11.421875 63.671875 
Q 18.109375 71.875 29.4375 71.875 
Q 37.890625 71.875 43.28125 67.140625 
Q 48.6875 62.40625 49.75 54.046875 
z
M 13.875 23.1875 
Q 13.875 18.65625 15.796875 14.5 
Q 17.71875 10.359375 21.1875 8.171875 
Q 24.65625 6 28.46875 6 
Q 34.03125 6 38.03125 10.484375 
Q 42.046875 14.984375 42.046875 22.703125 
Q 42.046875 30.125 38.078125 34.390625 
Q 34.125 38.671875 28.125 38.671875 
Q 22.171875 38.671875 18.015625 34.390625 
Q 13.875 30.125 13.875 23.1875 
z
" id="ArialMT-54"/>
       </defs>
       <use xlink:href="#ArialMT-54"/>
       <use x="55.615234" xlink:href="#ArialMT-48"/>
      </g>
     </g>
    </g>
    <g id="xtick_5">
     <g id="line2d_5">
      <path clip-path="url(#p76aa62b987)" d="M 562.943033 241.493125 
L 562.943033 12.96 
" style="fill:none;stroke:#ffffff;stroke-linecap:round;"/>
     </g>
     <g id="text_5">
      <!-- 80 -->
      <g style="fill:#262626;" transform="translate(556.826001 258.866719)scale(0.11 -0.11)">
       <defs>
        <path d="M 17.671875 38.8125 
Q 12.203125 40.828125 9.5625 44.53125 
Q 6.9375 48.25 6.9375 53.421875 
Q 6.9375 61.234375 12.546875 66.546875 
Q 18.171875 71.875 27.484375 71.875 
Q 36.859375 71.875 42.578125 66.421875 
Q 48.296875 60.984375 48.296875 53.171875 
Q 48.296875 48.1875 45.671875 44.5 
Q 43.0625 40.828125 37.75 38.8125 
Q 44.34375 36.671875 47.78125 31.875 
Q 51.21875 27.09375 51.21875 20.453125 
Q 51.21875 11.28125 44.71875 5.03125 
Q 38.234375 -1.21875 27.640625 -1.21875 
Q 17.046875 -1.21875 10.546875 5.046875 
Q 4.046875 11.328125 4.046875 20.703125 
Q 4.046875 27.6875 7.59375 32.390625 
Q 11.140625 37.109375 17.671875 38.8125 
z
M 15.921875 53.71875 
Q 15.921875 48.640625 19.1875 45.40625 
Q 22.46875 42.1875 27.6875 42.1875 
Q 32.765625 42.1875 36.015625 45.375 
Q 39.265625 48.578125 39.265625 53.21875 
Q 39.265625 58.0625 35.90625 61.359375 
Q 32.5625 64.65625 27.59375 64.65625 
Q 22.5625 64.65625 19.234375 61.421875 
Q 15.921875 58.203125 15.921875 53.71875 
z
M 13.09375 20.65625 
Q 13.09375 16.890625 14.875 13.375 
Q 16.65625 9.859375 20.171875 7.921875 
Q 23.6875 6 27.734375 6 
Q 34.03125 6 38.125 10.046875 
Q 42.234375 14.109375 42.234375 20.359375 
Q 42.234375 26.703125 38.015625 30.859375 
Q 33.796875 35.015625 27.4375 35.015625 
Q 21.234375 35.015625 17.15625 30.90625 
Q 13.09375 26.8125 13.09375 20.65625 
z
" id="ArialMT-56"/>
       </defs>
       <use xlink:href="#ArialMT-56"/>
       <use x="55.615234" xlink:href="#ArialMT-48"/>
      </g>
     </g>
    </g>
    <g id="xtick_6">
     <g id="line2d_6">
      <path clip-path="url(#p76aa62b987)" d="M 683.274529 241.493125 
L 683.274529 12.96 
" style="fill:none;stroke:#ffffff;stroke-linecap:round;"/>
     </g>
     <g id="text_6">
      <!-- 100 -->
      <g style="fill:#262626;" transform="translate(674.098983 258.866719)scale(0.11 -0.11)">
       <defs>
        <path d="M 37.25 0 
L 28.46875 0 
L 28.46875 56 
Q 25.296875 52.984375 20.140625 49.953125 
Q 14.984375 46.921875 10.890625 45.40625 
L 10.890625 53.90625 
Q 18.265625 57.375 23.78125 62.296875 
Q 29.296875 67.234375 31.59375 71.875 
L 37.25 71.875 
z
" id="ArialMT-49"/>
       </defs>
       <use xlink:href="#ArialMT-49"/>
       <use x="55.615234" xlink:href="#ArialMT-48"/>
       <use x="111.230469" xlink:href="#ArialMT-48"/>
      </g>
     </g>
    </g>
    <g id="text_7">
     <!-- Aggregation Steps -->
     <g style="fill:#262626;" transform="translate(330.0725 273.788594)scale(0.12 -0.12)">
      <defs>
       <path d="M -0.140625 0 
L 27.34375 71.578125 
L 37.546875 71.578125 
L 66.84375 0 
L 56.0625 0 
L 47.703125 21.6875 
L 17.78125 21.6875 
L 9.90625 0 
z
M 20.515625 29.390625 
L 44.78125 29.390625 
L 37.3125 49.21875 
Q 33.890625 58.25 32.234375 64.0625 
Q 30.859375 57.171875 28.375 50.390625 
z
" id="ArialMT-65"/>
       <path d="M 4.984375 -4.296875 
L 13.53125 -5.5625 
Q 14.0625 -9.515625 16.5 -11.328125 
Q 19.78125 -13.765625 25.4375 -13.765625 
Q 31.546875 -13.765625 34.859375 -11.328125 
Q 38.1875 -8.890625 39.359375 -4.5 
Q 40.046875 -1.8125 39.984375 6.78125 
Q 34.234375 0 25.640625 0 
Q 14.9375 0 9.078125 7.71875 
Q 3.21875 15.4375 3.21875 26.21875 
Q 3.21875 33.640625 5.90625 39.90625 
Q 8.59375 46.1875 13.6875 49.609375 
Q 18.796875 53.03125 25.6875 53.03125 
Q 34.859375 53.03125 40.828125 45.609375 
L 40.828125 51.859375 
L 48.921875 51.859375 
L 48.921875 7.03125 
Q 48.921875 -5.078125 46.453125 -10.125 
Q 44 -15.1875 38.640625 -18.109375 
Q 33.296875 -21.046875 25.484375 -21.046875 
Q 16.21875 -21.046875 10.5 -16.875 
Q 4.78125 -12.703125 4.984375 -4.296875 
z
M 12.25 26.859375 
Q 12.25 16.65625 16.296875 11.96875 
Q 20.359375 7.28125 26.46875 7.28125 
Q 32.515625 7.28125 36.609375 11.9375 
Q 40.71875 16.609375 40.71875 26.5625 
Q 40.71875 36.078125 36.5 40.90625 
Q 32.28125 45.75 26.3125 45.75 
Q 20.453125 45.75 16.34375 40.984375 
Q 12.25 36.234375 12.25 26.859375 
z
" id="ArialMT-103"/>
       <path d="M 6.5 0 
L 6.5 51.859375 
L 14.40625 51.859375 
L 14.40625 44 
Q 17.4375 49.515625 20 51.265625 
Q 22.5625 53.03125 25.640625 53.03125 
Q 30.078125 53.03125 34.671875 50.203125 
L 31.640625 42.046875 
Q 28.421875 43.953125 25.203125 43.953125 
Q 22.3125 43.953125 20.015625 42.21875 
Q 17.71875 40.484375 16.75 37.40625 
Q 15.28125 32.71875 15.28125 27.15625 
L 15.28125 0 
z
" id="ArialMT-114"/>
       <path d="M 42.09375 16.703125 
L 51.171875 15.578125 
Q 49.03125 7.625 43.21875 3.21875 
Q 37.40625 -1.171875 28.375 -1.171875 
Q 17 -1.171875 10.328125 5.828125 
Q 3.65625 12.84375 3.65625 25.484375 
Q 3.65625 38.578125 10.390625 45.796875 
Q 17.140625 53.03125 27.875 53.03125 
Q 38.28125 53.03125 44.875 45.953125 
Q 51.46875 38.875 51.46875 26.03125 
Q 51.46875 25.25 51.421875 23.6875 
L 12.75 23.6875 
Q 13.234375 15.140625 17.578125 10.59375 
Q 21.921875 6.0625 28.421875 6.0625 
Q 33.25 6.0625 36.671875 8.59375 
Q 40.09375 11.140625 42.09375 16.703125 
z
M 13.234375 30.90625 
L 42.1875 30.90625 
Q 41.609375 37.453125 38.875 40.71875 
Q 34.671875 45.796875 27.984375 45.796875 
Q 21.921875 45.796875 17.796875 41.75 
Q 13.671875 37.703125 13.234375 30.90625 
z
" id="ArialMT-101"/>
       <path d="M 40.4375 6.390625 
Q 35.546875 2.25 31.03125 0.53125 
Q 26.515625 -1.171875 21.34375 -1.171875 
Q 12.796875 -1.171875 8.203125 3 
Q 3.609375 7.171875 3.609375 13.671875 
Q 3.609375 17.484375 5.34375 20.625 
Q 7.078125 23.78125 9.890625 25.6875 
Q 12.703125 27.59375 16.21875 28.5625 
Q 18.796875 29.25 24.03125 29.890625 
Q 34.671875 31.15625 39.703125 32.90625 
Q 39.75 34.71875 39.75 35.203125 
Q 39.75 40.578125 37.25 42.78125 
Q 33.890625 45.75 27.25 45.75 
Q 21.046875 45.75 18.09375 43.578125 
Q 15.140625 41.40625 13.71875 35.890625 
L 5.125 37.0625 
Q 6.296875 42.578125 8.984375 45.96875 
Q 11.671875 49.359375 16.75 51.1875 
Q 21.828125 53.03125 28.515625 53.03125 
Q 35.15625 53.03125 39.296875 51.46875 
Q 43.453125 49.90625 45.40625 47.53125 
Q 47.359375 45.171875 48.140625 41.546875 
Q 48.578125 39.3125 48.578125 33.453125 
L 48.578125 21.734375 
Q 48.578125 9.46875 49.140625 6.21875 
Q 49.703125 2.984375 51.375 0 
L 42.1875 0 
Q 40.828125 2.734375 40.4375 6.390625 
z
M 39.703125 26.03125 
Q 34.90625 24.078125 25.34375 22.703125 
Q 19.921875 21.921875 17.671875 20.9375 
Q 15.4375 19.96875 14.203125 18.09375 
Q 12.984375 16.21875 12.984375 13.921875 
Q 12.984375 10.40625 15.640625 8.0625 
Q 18.3125 5.71875 23.4375 5.71875 
Q 28.515625 5.71875 32.46875 7.9375 
Q 36.421875 10.15625 38.28125 14.015625 
Q 39.703125 17 39.703125 22.796875 
z
" id="ArialMT-97"/>
       <path d="M 25.78125 7.859375 
L 27.046875 0.09375 
Q 23.34375 -0.6875 20.40625 -0.6875 
Q 15.625 -0.6875 12.984375 0.828125 
Q 10.359375 2.34375 9.28125 4.8125 
Q 8.203125 7.28125 8.203125 15.1875 
L 8.203125 45.015625 
L 1.765625 45.015625 
L 1.765625 51.859375 
L 8.203125 51.859375 
L 8.203125 64.703125 
L 16.9375 69.96875 
L 16.9375 51.859375 
L 25.78125 51.859375 
L 25.78125 45.015625 
L 16.9375 45.015625 
L 16.9375 14.703125 
Q 16.9375 10.9375 17.40625 9.859375 
Q 17.875 8.796875 18.921875 8.15625 
Q 19.96875 7.515625 21.921875 7.515625 
Q 23.390625 7.515625 25.78125 7.859375 
z
" id="ArialMT-116"/>
       <path d="M 6.640625 61.46875 
L 6.640625 71.578125 
L 15.4375 71.578125 
L 15.4375 61.46875 
z
M 6.640625 0 
L 6.640625 51.859375 
L 15.4375 51.859375 
L 15.4375 0 
z
" id="ArialMT-105"/>
       <path d="M 3.328125 25.921875 
Q 3.328125 40.328125 11.328125 47.265625 
Q 18.015625 53.03125 27.640625 53.03125 
Q 38.328125 53.03125 45.109375 46.015625 
Q 51.90625 39.015625 51.90625 26.65625 
Q 51.90625 16.65625 48.90625 10.90625 
Q 45.90625 5.171875 40.15625 2 
Q 34.421875 -1.171875 27.640625 -1.171875 
Q 16.75 -1.171875 10.03125 5.8125 
Q 3.328125 12.796875 3.328125 25.921875 
z
M 12.359375 25.921875 
Q 12.359375 15.96875 16.703125 11.015625 
Q 21.046875 6.0625 27.640625 6.0625 
Q 34.1875 6.0625 38.53125 11.03125 
Q 42.875 16.015625 42.875 26.21875 
Q 42.875 35.84375 38.5 40.796875 
Q 34.125 45.75 27.640625 45.75 
Q 21.046875 45.75 16.703125 40.8125 
Q 12.359375 35.890625 12.359375 25.921875 
z
" id="ArialMT-111"/>
       <path d="M 6.59375 0 
L 6.59375 51.859375 
L 14.5 51.859375 
L 14.5 44.484375 
Q 20.21875 53.03125 31 53.03125 
Q 35.6875 53.03125 39.625 51.34375 
Q 43.5625 49.65625 45.515625 46.921875 
Q 47.46875 44.1875 48.25 40.4375 
Q 48.734375 37.984375 48.734375 31.890625 
L 48.734375 0 
L 39.9375 0 
L 39.9375 31.546875 
Q 39.9375 36.921875 38.90625 39.578125 
Q 37.890625 42.234375 35.28125 43.8125 
Q 32.671875 45.40625 29.15625 45.40625 
Q 23.53125 45.40625 19.453125 41.84375 
Q 15.375 38.28125 15.375 28.328125 
L 15.375 0 
z
" id="ArialMT-110"/>
       <path id="ArialMT-32"/>
       <path d="M 4.5 23 
L 13.421875 23.78125 
Q 14.0625 18.40625 16.375 14.96875 
Q 18.703125 11.53125 23.578125 9.40625 
Q 28.46875 7.28125 34.578125 7.28125 
Q 39.984375 7.28125 44.140625 8.890625 
Q 48.296875 10.5 50.3125 13.296875 
Q 52.34375 16.109375 52.34375 19.4375 
Q 52.34375 22.796875 50.390625 25.3125 
Q 48.4375 27.828125 43.953125 29.546875 
Q 41.0625 30.671875 31.203125 33.03125 
Q 21.34375 35.40625 17.390625 37.5 
Q 12.25 40.1875 9.734375 44.15625 
Q 7.234375 48.140625 7.234375 53.078125 
Q 7.234375 58.5 10.296875 63.203125 
Q 13.375 67.921875 19.28125 70.359375 
Q 25.203125 72.796875 32.421875 72.796875 
Q 40.375 72.796875 46.453125 70.234375 
Q 52.546875 67.671875 55.8125 62.6875 
Q 59.078125 57.71875 59.328125 51.421875 
L 50.25 50.734375 
Q 49.515625 57.515625 45.28125 60.984375 
Q 41.0625 64.453125 32.8125 64.453125 
Q 24.21875 64.453125 20.28125 61.296875 
Q 16.359375 58.15625 16.359375 53.71875 
Q 16.359375 49.859375 19.140625 47.359375 
Q 21.875 44.875 33.421875 42.265625 
Q 44.96875 39.65625 49.265625 37.703125 
Q 55.515625 34.8125 58.484375 30.390625 
Q 61.46875 25.984375 61.46875 20.21875 
Q 61.46875 14.5 58.203125 9.4375 
Q 54.9375 4.390625 48.796875 1.578125 
Q 42.671875 -1.21875 35.015625 -1.21875 
Q 25.296875 -1.21875 18.71875 1.609375 
Q 12.15625 4.4375 8.421875 10.125 
Q 4.6875 15.828125 4.5 23 
z
" id="ArialMT-83"/>
       <path d="M 6.59375 -19.875 
L 6.59375 51.859375 
L 14.59375 51.859375 
L 14.59375 45.125 
Q 17.4375 49.078125 21 51.046875 
Q 24.5625 53.03125 29.640625 53.03125 
Q 36.28125 53.03125 41.359375 49.609375 
Q 46.4375 46.1875 49.015625 39.953125 
Q 51.609375 33.734375 51.609375 26.3125 
Q 51.609375 18.359375 48.75 11.984375 
Q 45.90625 5.609375 40.453125 2.21875 
Q 35.015625 -1.171875 29 -1.171875 
Q 24.609375 -1.171875 21.109375 0.6875 
Q 17.625 2.546875 15.375 5.375 
L 15.375 -19.875 
z
M 14.546875 25.640625 
Q 14.546875 15.625 18.59375 10.84375 
Q 22.65625 6.0625 28.421875 6.0625 
Q 34.28125 6.0625 38.453125 11.015625 
Q 42.625 15.96875 42.625 26.375 
Q 42.625 36.28125 38.546875 41.203125 
Q 34.46875 46.140625 28.8125 46.140625 
Q 23.1875 46.140625 18.859375 40.890625 
Q 14.546875 35.640625 14.546875 25.640625 
z
" id="ArialMT-112"/>
       <path d="M 3.078125 15.484375 
L 11.765625 16.84375 
Q 12.5 11.625 15.84375 8.84375 
Q 19.1875 6.0625 25.203125 6.0625 
Q 31.25 6.0625 34.171875 8.515625 
Q 37.109375 10.984375 37.109375 14.3125 
Q 37.109375 17.28125 34.515625 19 
Q 32.71875 20.171875 25.53125 21.96875 
Q 15.875 24.421875 12.140625 26.203125 
Q 8.40625 27.984375 6.46875 31.125 
Q 4.546875 34.28125 4.546875 38.09375 
Q 4.546875 41.546875 6.125 44.5 
Q 7.71875 47.46875 10.453125 49.421875 
Q 12.5 50.921875 16.03125 51.96875 
Q 19.578125 53.03125 23.640625 53.03125 
Q 29.734375 53.03125 34.34375 51.265625 
Q 38.96875 49.515625 41.15625 46.5 
Q 43.359375 43.5 44.1875 38.484375 
L 35.59375 37.3125 
Q 35.015625 41.3125 32.203125 43.546875 
Q 29.390625 45.796875 24.265625 45.796875 
Q 18.21875 45.796875 15.625 43.796875 
Q 13.03125 41.796875 13.03125 39.109375 
Q 13.03125 37.40625 14.109375 36.03125 
Q 15.1875 34.625 17.484375 33.6875 
Q 18.796875 33.203125 25.25 31.453125 
Q 34.578125 28.953125 38.25 27.359375 
Q 41.9375 25.78125 44.03125 22.75 
Q 46.140625 19.734375 46.140625 15.234375 
Q 46.140625 10.84375 43.578125 6.953125 
Q 41.015625 3.078125 36.171875 0.953125 
Q 31.34375 -1.171875 25.25 -1.171875 
Q 15.140625 -1.171875 9.84375 3.03125 
Q 4.546875 7.234375 3.078125 15.484375 
z
" id="ArialMT-115"/>
      </defs>
      <use xlink:href="#ArialMT-65"/>
      <use x="66.699219" xlink:href="#ArialMT-103"/>
      <use x="122.314453" xlink:href="#ArialMT-103"/>
      <use x="177.929688" xlink:href="#ArialMT-114"/>
      <use x="211.230469" xlink:href="#ArialMT-101"/>
      <use x="266.845703" xlink:href="#ArialMT-103"/>
      <use x="322.460938" xlink:href="#ArialMT-97"/>
      <use x="378.076172" xlink:href="#ArialMT-116"/>
      <use x="405.859375" xlink:href="#ArialMT-105"/>
      <use x="428.076172" xlink:href="#ArialMT-111"/>
      <use x="483.691406" xlink:href="#ArialMT-110"/>
      <use x="539.306641" xlink:href="#ArialMT-32"/>
      <use x="567.089844" xlink:href="#ArialMT-83"/>
      <use x="633.789062" xlink:href="#ArialMT-116"/>
      <use x="661.572266" xlink:href="#ArialMT-101"/>
      <use x="717.1875" xlink:href="#ArialMT-112"/>
      <use x="772.802734" xlink:href="#ArialMT-115"/>
     </g>
    </g>
   </g>
   <g id="matplotlib.axis_2">
    <g id="ytick_1">
     <g id="line2d_7">
      <path clip-path="url(#p76aa62b987)" d="M 51.835 212.846425 
L 707.04 212.846425 
" style="fill:none;stroke:#ffffff;stroke-linecap:round;"/>
     </g>
     <g id="text_8">
      <!-- 0.5 -->
      <g style="fill:#262626;" transform="translate(27.045 216.783222)scale(0.11 -0.11)">
       <defs>
        <path d="M 9.078125 0 
L 9.078125 10.015625 
L 19.09375 10.015625 
L 19.09375 0 
z
" id="ArialMT-46"/>
        <path d="M 4.15625 18.75 
L 13.375 19.53125 
Q 14.40625 12.796875 18.140625 9.390625 
Q 21.875 6 27.15625 6 
Q 33.5 6 37.890625 10.78125 
Q 42.28125 15.578125 42.28125 23.484375 
Q 42.28125 31 38.0625 35.34375 
Q 33.84375 39.703125 27 39.703125 
Q 22.75 39.703125 19.328125 37.765625 
Q 15.921875 35.84375 13.96875 32.765625 
L 5.71875 33.84375 
L 12.640625 70.609375 
L 48.25 70.609375 
L 48.25 62.203125 
L 19.671875 62.203125 
L 15.828125 42.96875 
Q 22.265625 47.46875 29.34375 47.46875 
Q 38.71875 47.46875 45.15625 40.96875 
Q 51.609375 34.46875 51.609375 24.265625 
Q 51.609375 14.546875 45.953125 7.46875 
Q 39.0625 -1.21875 27.15625 -1.21875 
Q 17.390625 -1.21875 11.203125 4.25 
Q 5.03125 9.71875 4.15625 18.75 
z
" id="ArialMT-53"/>
       </defs>
       <use xlink:href="#ArialMT-48"/>
       <use x="55.615234" xlink:href="#ArialMT-46"/>
       <use x="83.398438" xlink:href="#ArialMT-53"/>
      </g>
     </g>
    </g>
    <g id="ytick_2">
     <g id="line2d_8">
      <path clip-path="url(#p76aa62b987)" d="M 51.835 164.864697 
L 707.04 164.864697 
" style="fill:none;stroke:#ffffff;stroke-linecap:round;"/>
     </g>
     <g id="text_9">
      <!-- 1.0 -->
      <g style="fill:#262626;" transform="translate(27.045 168.801494)scale(0.11 -0.11)">
       <use xlink:href="#ArialMT-49"/>
       <use x="55.615234" xlink:href="#ArialMT-46"/>
       <use x="83.398438" xlink:href="#ArialMT-48"/>
      </g>
     </g>
    </g>
    <g id="ytick_3">
     <g id="line2d_9">
      <path clip-path="url(#p76aa62b987)" d="M 51.835 116.882968 
L 707.04 116.882968 
" style="fill:none;stroke:#ffffff;stroke-linecap:round;"/>
     </g>
     <g id="text_10">
      <!-- 1.5 -->
      <g style="fill:#262626;" transform="translate(27.045 120.819765)scale(0.11 -0.11)">
       <use xlink:href="#ArialMT-49"/>
       <use x="55.615234" xlink:href="#ArialMT-46"/>
       <use x="83.398438" xlink:href="#ArialMT-53"/>
      </g>
     </g>
    </g>
    <g id="ytick_4">
     <g id="line2d_10">
      <path clip-path="url(#p76aa62b987)" d="M 51.835 68.901239 
L 707.04 68.901239 
" style="fill:none;stroke:#ffffff;stroke-linecap:round;"/>
     </g>
     <g id="text_11">
      <!-- 2.0 -->
      <g style="fill:#262626;" transform="translate(27.045 72.838036)scale(0.11 -0.11)">
       <use xlink:href="#ArialMT-50"/>
       <use x="55.615234" xlink:href="#ArialMT-46"/>
       <use x="83.398438" xlink:href="#ArialMT-48"/>
      </g>
     </g>
    </g>
    <g id="ytick_5">
     <g id="line2d_11">
      <path clip-path="url(#p76aa62b987)" d="M 51.835 20.919511 
L 707.04 20.919511 
" style="fill:none;stroke:#ffffff;stroke-linecap:round;"/>
     </g>
     <g id="text_12">
      <!-- 2.5 -->
      <g style="fill:#262626;" transform="translate(27.045 24.856308)scale(0.11 -0.11)">
       <use xlink:href="#ArialMT-50"/>
       <use x="55.615234" xlink:href="#ArialMT-46"/>
       <use x="83.398438" xlink:href="#ArialMT-53"/>
      </g>
     </g>
    </g>
    <g id="text_13">
     <!-- Validation Loss -->
     <g style="fill:#262626;" transform="translate(20.66 167.475313)rotate(-90)scale(0.12 -0.12)">
      <defs>
       <path d="M 28.171875 0 
L 0.4375 71.578125 
L 10.6875 71.578125 
L 29.296875 19.578125 
Q 31.546875 13.328125 33.0625 7.859375 
Q 34.71875 13.71875 36.921875 19.578125 
L 56.25 71.578125 
L 65.921875 71.578125 
L 37.890625 0 
z
" id="ArialMT-86"/>
       <path d="M 6.390625 0 
L 6.390625 71.578125 
L 15.1875 71.578125 
L 15.1875 0 
z
" id="ArialMT-108"/>
       <path d="M 40.234375 0 
L 40.234375 6.546875 
Q 35.296875 -1.171875 25.734375 -1.171875 
Q 19.53125 -1.171875 14.328125 2.25 
Q 9.125 5.671875 6.265625 11.796875 
Q 3.421875 17.921875 3.421875 25.875 
Q 3.421875 33.640625 6 39.96875 
Q 8.59375 46.296875 13.765625 49.65625 
Q 18.953125 53.03125 25.34375 53.03125 
Q 30.03125 53.03125 33.6875 51.046875 
Q 37.359375 49.078125 39.65625 45.90625 
L 39.65625 71.578125 
L 48.390625 71.578125 
L 48.390625 0 
z
M 12.453125 25.875 
Q 12.453125 15.921875 16.640625 10.984375 
Q 20.84375 6.0625 26.5625 6.0625 
Q 32.328125 6.0625 36.34375 10.765625 
Q 40.375 15.484375 40.375 25.140625 
Q 40.375 35.796875 36.265625 40.765625 
Q 32.171875 45.75 26.171875 45.75 
Q 20.3125 45.75 16.375 40.96875 
Q 12.453125 36.1875 12.453125 25.875 
z
" id="ArialMT-100"/>
       <path d="M 7.328125 0 
L 7.328125 71.578125 
L 16.796875 71.578125 
L 16.796875 8.453125 
L 52.046875 8.453125 
L 52.046875 0 
z
" id="ArialMT-76"/>
      </defs>
      <use xlink:href="#ArialMT-86"/>
      <use x="59.324219" xlink:href="#ArialMT-97"/>
      <use x="114.939453" xlink:href="#ArialMT-108"/>
      <use x="137.15625" xlink:href="#ArialMT-105"/>
      <use x="159.373047" xlink:href="#ArialMT-100"/>
      <use x="214.988281" xlink:href="#ArialMT-97"/>
      <use x="270.603516" xlink:href="#ArialMT-116"/>
      <use x="298.386719" xlink:href="#ArialMT-105"/>
      <use x="320.603516" xlink:href="#ArialMT-111"/>
      <use x="376.21875" xlink:href="#ArialMT-110"/>
      <use x="431.833984" xlink:href="#ArialMT-32"/>
      <use x="459.617188" xlink:href="#ArialMT-76"/>
      <use x="515.232422" xlink:href="#ArialMT-111"/>
      <use x="570.847656" xlink:href="#ArialMT-115"/>
      <use x="620.847656" xlink:href="#ArialMT-115"/>
     </g>
    </g>
   </g>
   <g id="line2d_12">
    <path clip-path="url(#p76aa62b987)" d="M 81.617045 38.095519 
L 87.63362 50.283779 
L 93.650195 61.682743 
L 99.66677 80.733575 
L 105.683345 92.051157 
L 111.69992 111.753196 
L 117.716494 117.341301 
L 123.733069 127.270511 
L 129.749644 131.410654 
L 135.766219 132.916535 
L 141.782794 148.320311 
L 147.799369 142.559546 
L 153.815944 144.055475 
L 159.832518 137.103124 
L 165.849093 147.579599 
L 171.865668 136.409784 
L 177.882243 97.074974 
L 183.898818 142.311647 
L 189.915393 142.606609 
L 195.931967 122.419377 
L 201.948542 135.732987 
L 207.965117 145.674197 
L 213.981692 155.952525 
L 219.998267 153.450415 
L 226.014842 160.173181 
L 232.031416 152.992962 
L 238.047991 167.691112 
L 244.064566 161.044534 
L 250.081141 170.091203 
L 256.097716 172.433535 
L 262.114291 171.97833 
L 268.130865 175.470361 
L 274.14744 173.952937 
L 280.164015 171.599669 
L 286.18059 172.042719 
L 292.197165 174.051079 
L 298.21374 175.933911 
L 304.230315 171.862509 
L 310.246889 163.798799 
L 316.263464 174.645402 
L 322.280039 169.635232 
L 328.296614 171.597896 
L 334.313189 164.947349 
L 340.329764 164.952588 
L 346.346338 172.096228 
L 352.362913 169.050822 
L 358.379488 169.659753 
L 364.396063 167.642562 
L 370.412638 162.097127 
L 376.429213 169.85849 
L 382.445787 170.531307 
L 388.462362 176.756839 
L 394.478937 171.930426 
L 400.495512 161.769608 
L 406.512087 169.701497 
L 412.528662 164.019003 
L 418.545236 158.413876 
L 424.561811 173.77537 
L 430.578386 163.607493 
L 436.594961 170.712198 
L 442.611536 160.032301 
L 448.628111 156.329945 
L 454.644685 163.833141 
L 460.66126 170.047606 
L 466.677835 147.837051 
L 472.69441 166.533068 
L 478.710985 162.384837 
L 484.72756 166.967829 
L 490.744135 171.129885 
L 496.760709 163.441353 
L 502.777284 164.683663 
L 508.793859 160.266037 
L 514.810434 164.236346 
L 520.827009 164.357104 
L 526.843584 155.286332 
L 532.860158 155.264997 
L 538.876733 159.850867 
L 544.893308 161.219093 
L 550.909883 160.427269 
L 556.926458 158.206919 
L 562.943033 156.902481 
L 568.959607 162.268723 
L 574.976182 160.824971 
L 580.992757 154.95387 
L 587.009332 159.355515 
L 593.025907 158.663719 
L 599.042482 156.991322 
L 605.059056 158.224994 
L 611.075631 155.335511 
L 617.092206 160.671839 
L 623.108781 155.112254 
L 629.125356 162.052672 
L 635.141931 156.786184 
L 641.158506 161.524065 
L 647.17508 156.804511 
L 653.191655 164.490331 
L 659.20823 157.47743 
L 665.224805 149.436829 
L 671.24138 154.02644 
L 677.257955 153.898143 
" style="fill:none;stroke:#4c72b0;stroke-linecap:round;stroke-width:1.5;"/>
   </g>
   <g id="line2d_13">
    <path clip-path="url(#p76aa62b987)" d="M 81.617045 42.015207 
L 87.63362 57.390372 
L 93.650195 73.985699 
L 99.66677 93.36055 
L 105.683345 113.050451 
L 111.69992 129.250066 
L 117.716494 138.648358 
L 123.733069 148.283692 
L 129.749644 149.469078 
L 135.766219 152.696765 
L 141.782794 153.957938 
L 147.799369 153.453412 
L 153.815944 155.578938 
L 159.832518 157.415999 
L 165.849093 159.169916 
L 171.865668 157.619615 
L 177.882243 158.54088 
L 183.898818 157.102573 
L 189.915393 160.368171 
L 195.931967 163.014228 
L 201.948542 164.170293 
L 207.965117 162.648179 
L 213.981692 163.032303 
L 219.998267 162.343482 
L 226.014842 165.670603 
L 232.031416 165.201505 
L 238.047991 162.295424 
L 244.064566 164.98351 
L 250.081141 167.51772 
L 256.097716 162.830197 
L 262.114291 167.658778 
L 268.130865 167.405845 
L 274.14744 164.235786 
L 280.164015 165.885693 
L 286.18059 163.232613 
L 292.197165 166.745286 
L 298.21374 167.916258 
L 304.230315 167.145225 
L 310.246889 167.781612 
L 316.263464 165.332164 
L 322.280039 166.798464 
L 328.296614 167.452519 
L 334.313189 164.813744 
L 340.329764 168.797272 
L 346.346338 166.997664 
L 352.362913 164.915312 
L 358.379488 169.574945 
L 364.396063 166.288217 
L 370.412638 163.930963 
L 376.429213 166.118789 
L 382.445787 164.386573 
L 388.462362 166.704915 
L 394.478937 171.039563 
L 400.495512 166.410714 
L 406.512087 169.200328 
L 412.528662 167.808695 
L 418.545236 163.440804 
L 424.561811 164.374127 
L 430.578386 167.967285 
L 436.594961 166.134096 
L 442.611536 167.315872 
L 448.628111 161.175657 
L 454.644685 168.35889 
L 460.66126 157.581223 
L 466.677835 166.058324 
L 472.69441 164.522935 
L 478.710985 161.767034 
L 484.72756 169.658015 
L 490.744135 157.446612 
L 496.760709 164.365238 
L 502.777284 162.757692 
L 508.793859 162.174059 
L 514.810434 165.382614 
L 520.827009 165.699809 
L 526.843584 163.683487 
L 532.860158 156.965182 
L 538.876733 163.111386 
L 544.893308 164.089597 
L 550.909883 162.197339 
L 556.926458 160.128886 
L 562.943033 157.305594 
L 568.959607 158.03363 
L 574.976182 153.283863 
L 580.992757 163.935447 
L 587.009332 167.242257 
L 593.025907 160.538681 
L 599.042482 161.01264 
L 605.059056 162.837839 
L 611.075631 163.652279 
L 617.092206 169.767047 
L 623.108781 164.434974 
L 629.125356 163.093757 
L 635.141931 163.392494 
L 641.158506 166.102825 
L 647.17508 162.11066 
L 653.191655 169.056101 
L 659.20823 170.698676 
L 665.224805 166.675264 
L 671.24138 165.439807 
L 677.257955 166.867285 
" style="fill:none;stroke:#dd8452;stroke-linecap:round;stroke-width:1.5;"/>
   </g>
   <g id="line2d_14">
    <path clip-path="url(#p76aa62b987)" d="M 81.617045 111.497347 
L 87.63362 113.891912 
L 93.650195 133.333354 
L 99.66677 144.53981 
L 105.683345 134.024691 
L 111.69992 171.611412 
L 117.716494 166.680892 
L 123.733069 171.35336 
L 129.749644 176.964007 
L 135.766219 184.881517 
L 141.782794 184.358933 
L 147.799369 175.542849 
L 153.815944 192.778721 
L 159.832518 178.731304 
L 165.849093 191.8762 
L 171.865668 194.539045 
L 177.882243 197.601256 
L 183.898818 192.841331 
L 189.915393 200.369089 
L 195.931967 193.151645 
L 201.948542 201.304567 
L 207.965117 202.993209 
L 213.981692 202.588197 
L 219.998267 206.429449 
L 226.014842 200.696906 
L 232.031416 203.810659 
L 238.047991 201.275018 
L 244.064566 208.320889 
L 250.081141 207.253127 
L 256.097716 211.48973 
L 262.114291 205.904674 
L 268.130865 211.015215 
L 274.14744 211.610819 
L 280.164015 212.858082 
L 286.18059 208.634355 
L 292.197165 216.048648 
L 298.21374 211.923816 
L 304.230315 198.075891 
L 310.246889 210.962009 
L 316.263464 214.71337 
L 322.280039 210.3347 
L 328.296614 216.4688 
L 334.313189 214.739301 
L 340.329764 217.317423 
L 346.346338 217.477185 
L 352.362913 218.211973 
L 358.379488 217.305691 
L 364.396063 217.966345 
L 370.412638 212.863359 
L 376.429213 218.758575 
L 382.445787 217.442379 
L 388.462362 216.904717 
L 394.478937 213.826425 
L 400.495512 217.275634 
L 406.512087 216.234329 
L 412.528662 220.017681 
L 418.545236 217.705762 
L 424.561811 219.694557 
L 430.578386 217.575878 
L 436.594961 221.368719 
L 442.611536 222.057346 
L 448.628111 222.160564 
L 454.644685 217.894086 
L 460.66126 222.825392 
L 466.677835 221.970006 
L 472.69441 222.083966 
L 478.710985 218.578699 
L 484.72756 224.087601 
L 490.744135 221.411324 
L 496.760709 226.669215 
L 502.777284 224.165497 
L 508.793859 226.927948 
L 514.810434 218.64112 
L 520.827009 221.165907 
L 526.843584 215.811302 
L 532.860158 221.186316 
L 538.876733 227.018281 
L 544.893308 227.140752 
L 550.909883 227.345638 
L 556.926458 227.590088 
L 562.943033 226.386268 
L 568.959607 226.885838 
L 574.976182 217.661095 
L 580.992757 226.402483 
L 587.009332 226.245333 
L 593.025907 225.375452 
L 599.042482 228.152019 
L 605.059056 227.679761 
L 611.075631 227.187592 
L 617.092206 223.471154 
L 623.108781 229.030691 
L 629.125356 226.598758 
L 635.141931 224.963911 
L 641.158506 226.550914 
L 647.17508 227.254924 
L 653.191655 225.73347 
L 659.20823 231.105256 
L 665.224805 228.406593 
L 671.24138 229.211141 
L 677.257955 226.396432 
" style="fill:none;stroke:#55a868;stroke-linecap:round;stroke-width:1.5;"/>
   </g>
   <g id="line2d_15">
    <path clip-path="url(#p76aa62b987)" d="M 81.617045 23.347869 
L 87.63362 32.711705 
L 93.650195 49.810014 
L 99.66677 76.473761 
L 105.683345 102.035461 
L 111.69992 121.013365 
L 117.716494 140.447542 
L 123.733069 134.826033 
L 129.749644 146.561497 
L 135.766219 146.726996 
L 141.782794 145.117231 
L 147.799369 157.513591 
L 153.815944 140.577726 
L 159.832518 156.105474 
L 165.849093 147.654095 
L 171.865668 153.283829 
L 177.882243 154.453256 
L 183.898818 154.796357 
L 189.915393 158.222054 
L 195.931967 158.333454 
L 201.948542 158.837695 
L 207.965117 162.027082 
L 213.981692 150.962375 
L 219.998267 153.712236 
L 226.014842 153.525105 
L 232.031416 155.984785 
L 238.047991 152.518831 
L 244.064566 161.603617 
L 250.081141 154.737739 
L 256.097716 159.982035 
L 262.114291 158.743008 
L 268.130865 156.028885 
L 274.14744 149.010745 
L 280.164015 162.090595 
L 286.18059 157.465853 
L 292.197165 159.1879 
L 298.21374 158.092991 
L 304.230315 156.746477 
L 310.246889 155.983881 
L 316.263464 155.819801 
L 322.280039 149.839748 
L 328.296614 160.069732 
L 334.313189 155.819549 
L 340.329764 155.269069 
L 346.346338 150.930481 
L 352.362913 142.525845 
L 358.379488 155.961379 
L 364.396063 153.816852 
L 370.412638 153.917099 
L 376.429213 159.97119 
L 382.445787 145.630417 
L 388.462362 153.253628 
L 394.478937 154.504907 
L 400.495512 157.46694 
L 406.512087 144.234598 
L 412.528662 148.519111 
L 418.545236 148.850703 
L 424.561811 147.792173 
L 430.578386 154.251608 
L 436.594961 145.948808 
L 442.611536 151.706072 
L 448.628111 146.990659 
L 454.644685 138.797795 
L 460.66126 147.967121 
L 466.677835 144.509289 
L 472.69441 152.023227 
L 478.710985 138.737988 
L 484.72756 136.777263 
L 490.744135 147.840071 
L 496.760709 141.128675 
L 502.777284 144.493182 
L 508.793859 138.868298 
L 514.810434 144.13291 
L 520.827009 145.79094 
L 526.843584 139.725146 
L 532.860158 143.127735 
L 538.876733 135.966209 
L 544.893308 138.247555 
L 550.909883 134.668554 
L 556.926458 136.974027 
L 562.943033 132.07274 
L 568.959607 140.326098 
L 574.976182 144.525922 
L 580.992757 134.07442 
L 587.009332 141.447181 
L 593.025907 132.806771 
L 599.042482 137.828117 
L 605.059056 139.506052 
L 611.075631 139.278516 
L 617.092206 128.246778 
L 623.108781 139.151443 
L 629.125356 141.218466 
L 635.141931 135.591866 
L 641.158506 137.474824 
L 647.17508 137.949253 
L 653.191655 132.066357 
L 659.20823 129.592228 
L 665.224805 131.40323 
L 671.24138 127.789486 
L 677.257955 132.330192 
" style="fill:none;stroke:#c44e52;stroke-linecap:round;stroke-width:1.5;"/>
   </g>
   <g id="patch_3">
    <path d="M 51.835 241.493125 
L 51.835 12.96 
" style="fill:none;stroke:#ffffff;stroke-linecap:square;stroke-linejoin:miter;stroke-width:1.25;"/>
   </g>
   <g id="patch_4">
    <path d="M 707.04 241.493125 
L 707.04 12.96 
" style="fill:none;stroke:#ffffff;stroke-linecap:square;stroke-linejoin:miter;stroke-width:1.25;"/>
   </g>
   <g id="patch_5">
    <path d="M 51.835 241.493125 
L 707.04 241.493125 
" style="fill:none;stroke:#ffffff;stroke-linecap:square;stroke-linejoin:miter;stroke-width:1.25;"/>
   </g>
   <g id="patch_6">
    <path d="M 51.835 12.96 
L 707.04 12.96 
" style="fill:none;stroke:#ffffff;stroke-linecap:square;stroke-linejoin:miter;stroke-width:1.25;"/>
   </g>
   <g id="legend_1">
    <g id="patch_7">
     <path d="M 615.227813 83.999375 
L 699.34 83.999375 
Q 701.54 83.999375 701.54 81.799375 
L 701.54 20.66 
Q 701.54 18.46 699.34 18.46 
L 615.227813 18.46 
Q 613.027812 18.46 613.027812 20.66 
L 613.027812 81.799375 
Q 613.027812 83.999375 615.227813 83.999375 
z
" style="fill:#eaeaf2;opacity:0.8;stroke:#cccccc;stroke-linejoin:miter;"/>
    </g>
    <g id="line2d_16">
     <path d="M 617.427812 26.883594 
L 639.427812 26.883594 
" style="fill:none;stroke:#4c72b0;stroke-linecap:round;stroke-width:1.5;"/>
    </g>
    <g id="line2d_17"/>
    <g id="text_14">
     <!-- CNN -->
     <g style="fill:#262626;" transform="translate(648.227812 30.733594)scale(0.11 -0.11)">
      <defs>
       <path d="M 58.796875 25.09375 
L 68.265625 22.703125 
Q 65.28125 11.03125 57.546875 4.90625 
Q 49.8125 -1.21875 38.625 -1.21875 
Q 27.046875 -1.21875 19.796875 3.484375 
Q 12.546875 8.203125 8.765625 17.140625 
Q 4.984375 26.078125 4.984375 36.328125 
Q 4.984375 47.515625 9.25 55.828125 
Q 13.53125 64.15625 21.40625 68.46875 
Q 29.296875 72.796875 38.765625 72.796875 
Q 49.515625 72.796875 56.828125 67.328125 
Q 64.15625 61.859375 67.046875 51.953125 
L 57.71875 49.75 
Q 55.21875 57.5625 50.484375 61.125 
Q 45.75 64.703125 38.578125 64.703125 
Q 30.328125 64.703125 24.78125 60.734375 
Q 19.234375 56.78125 16.984375 50.109375 
Q 14.75 43.453125 14.75 36.375 
Q 14.75 27.25 17.40625 20.4375 
Q 20.0625 13.625 25.671875 10.25 
Q 31.296875 6.890625 37.84375 6.890625 
Q 45.796875 6.890625 51.3125 11.46875 
Q 56.84375 16.0625 58.796875 25.09375 
z
" id="ArialMT-67"/>
       <path d="M 7.625 0 
L 7.625 71.578125 
L 17.328125 71.578125 
L 54.9375 15.375 
L 54.9375 71.578125 
L 64.015625 71.578125 
L 64.015625 0 
L 54.296875 0 
L 16.703125 56.25 
L 16.703125 0 
z
" id="ArialMT-78"/>
      </defs>
      <use xlink:href="#ArialMT-67"/>
      <use x="72.216797" xlink:href="#ArialMT-78"/>
      <use x="144.433594" xlink:href="#ArialMT-78"/>
     </g>
    </g>
    <g id="line2d_18">
     <path d="M 617.427812 42.443438 
L 639.427812 42.443438 
" style="fill:none;stroke:#dd8452;stroke-linecap:round;stroke-width:1.5;"/>
    </g>
    <g id="line2d_19"/>
    <g id="text_15">
     <!-- DenseNet -->
     <g style="fill:#262626;" transform="translate(648.227812 46.293438)scale(0.11 -0.11)">
      <defs>
       <path d="M 7.71875 0 
L 7.71875 71.578125 
L 32.375 71.578125 
Q 40.71875 71.578125 45.125 70.5625 
Q 51.265625 69.140625 55.609375 65.4375 
Q 61.28125 60.640625 64.078125 53.1875 
Q 66.890625 45.75 66.890625 36.1875 
Q 66.890625 28.03125 64.984375 21.734375 
Q 63.09375 15.4375 60.109375 11.296875 
Q 57.125 7.171875 53.578125 4.796875 
Q 50.046875 2.4375 45.046875 1.21875 
Q 40.046875 0 33.546875 0 
z
M 17.1875 8.453125 
L 32.46875 8.453125 
Q 39.546875 8.453125 43.578125 9.765625 
Q 47.609375 11.078125 50 13.484375 
Q 53.375 16.84375 55.25 22.53125 
Q 57.125 28.21875 57.125 36.328125 
Q 57.125 47.5625 53.4375 53.59375 
Q 49.75 59.625 44.484375 61.671875 
Q 40.671875 63.140625 32.234375 63.140625 
L 17.1875 63.140625 
z
" id="ArialMT-68"/>
      </defs>
      <use xlink:href="#ArialMT-68"/>
      <use x="72.216797" xlink:href="#ArialMT-101"/>
      <use x="127.832031" xlink:href="#ArialMT-110"/>
      <use x="183.447266" xlink:href="#ArialMT-115"/>
      <use x="233.447266" xlink:href="#ArialMT-101"/>
      <use x="289.0625" xlink:href="#ArialMT-78"/>
      <use x="361.279297" xlink:href="#ArialMT-101"/>
      <use x="416.894531" xlink:href="#ArialMT-116"/>
     </g>
    </g>
    <g id="line2d_20">
     <path d="M 617.427812 58.003281 
L 639.427812 58.003281 
" style="fill:none;stroke:#55a868;stroke-linecap:round;stroke-width:1.5;"/>
    </g>
    <g id="line2d_21"/>
    <g id="text_16">
     <!-- LSTM -->
     <g style="fill:#262626;" transform="translate(648.227812 61.853281)scale(0.11 -0.11)">
      <defs>
       <path d="M 25.921875 0 
L 25.921875 63.140625 
L 2.34375 63.140625 
L 2.34375 71.578125 
L 59.078125 71.578125 
L 59.078125 63.140625 
L 35.40625 63.140625 
L 35.40625 0 
z
" id="ArialMT-84"/>
       <path d="M 7.421875 0 
L 7.421875 71.578125 
L 21.6875 71.578125 
L 38.625 20.90625 
Q 40.96875 13.8125 42.046875 10.296875 
Q 43.265625 14.203125 45.84375 21.78125 
L 62.984375 71.578125 
L 75.734375 71.578125 
L 75.734375 0 
L 66.609375 0 
L 66.609375 59.90625 
L 45.796875 0 
L 37.25 0 
L 16.546875 60.9375 
L 16.546875 0 
z
" id="ArialMT-77"/>
      </defs>
      <use xlink:href="#ArialMT-76"/>
      <use x="55.615234" xlink:href="#ArialMT-83"/>
      <use x="122.314453" xlink:href="#ArialMT-84"/>
      <use x="183.398438" xlink:href="#ArialMT-77"/>
     </g>
    </g>
    <g id="line2d_22">
     <path d="M 617.427812 73.563125 
L 639.427812 73.563125 
" style="fill:none;stroke:#c44e52;stroke-linecap:round;stroke-width:1.5;"/>
    </g>
    <g id="line2d_23"/>
    <g id="text_17">
     <!-- ResNet -->
     <g style="fill:#262626;" transform="translate(648.227812 77.413125)scale(0.11 -0.11)">
      <defs>
       <path d="M 7.859375 0 
L 7.859375 71.578125 
L 39.59375 71.578125 
Q 49.171875 71.578125 54.140625 69.640625 
Q 59.125 67.71875 62.109375 62.828125 
Q 65.09375 57.953125 65.09375 52.046875 
Q 65.09375 44.4375 60.15625 39.203125 
Q 55.21875 33.984375 44.921875 32.5625 
Q 48.6875 30.765625 50.640625 29 
Q 54.78125 25.203125 58.5 19.484375 
L 70.953125 0 
L 59.03125 0 
L 49.5625 14.890625 
Q 45.40625 21.34375 42.71875 24.75 
Q 40.046875 28.171875 37.921875 29.53125 
Q 35.796875 30.90625 33.59375 31.453125 
Q 31.984375 31.78125 28.328125 31.78125 
L 17.328125 31.78125 
L 17.328125 0 
z
M 17.328125 39.984375 
L 37.703125 39.984375 
Q 44.1875 39.984375 47.84375 41.328125 
Q 51.515625 42.671875 53.421875 45.625 
Q 55.328125 48.578125 55.328125 52.046875 
Q 55.328125 57.125 51.640625 60.390625 
Q 47.953125 63.671875 39.984375 63.671875 
L 17.328125 63.671875 
z
" id="ArialMT-82"/>
      </defs>
      <use xlink:href="#ArialMT-82"/>
      <use x="72.216797" xlink:href="#ArialMT-101"/>
      <use x="127.832031" xlink:href="#ArialMT-115"/>
      <use x="177.832031" xlink:href="#ArialMT-78"/>
      <use x="250.048828" xlink:href="#ArialMT-101"/>
      <use x="305.664062" xlink:href="#ArialMT-116"/>
     </g>
    </g>
   </g>
  </g>
 </g>
 <defs>
  <clipPath id="p76aa62b987">
   <rect height="228.533125" width="655.205" x="51.835" y="12.96"/>
  </clipPath>
 </defs>
</svg>
