<?xml version="1.0" encoding="utf-8" standalone="no"?>
<!DOCTYPE svg PUBLIC "-//W3C//DTD SVG 1.1//EN"
  "http://www.w3.org/Graphics/SVG/1.1/DTD/svg11.dtd">
<svg height="288pt" version="1.1" viewBox="0 0 720 288" width="720pt" xmlns="http://www.w3.org/2000/svg" xmlns:xlink="http://www.w3.org/1999/xlink">
 <metadata>
  <rdf:RDF xmlns:cc="http://creativecommons.org/ns#" xmlns:dc="http://purl.org/dc/elements/1.1/" xmlns:rdf="http://www.w3.org/1999/02/22-rdf-syntax-ns#">
   <cc:Work>
    <dc:type rdf:resource="http://purl.org/dc/dcmitype/StillImage"/>
    <dc:date>2021-10-07T14:41:05.458174</dc:date>
    <dc:format>image/svg+xml</dc:format>
    <dc:creator>
     <cc:Agent>
      <dc:title>Matplotlib v3.4.2, https://matplotlib.org/</dc:title>
     </cc:Agent>
    </dc:creator>
   </cc:Work>
  </rdf:RDF>
 </metadata>
 <defs>
  <style type="text/css">*{stroke-linecap:butt;stroke-linejoin:round;}</style>
 </defs>
 <g id="figure_1">
  <g id="patch_1">
   <path d="M 0 288 
L 720 288 
L 720 0 
L 0 0 
z
" style="fill:#ffffff;"/>
  </g>
  <g id="axes_1">
   <g id="patch_2">
    <path d="M 52.56 240.60375 
L 707.04 240.60375 
L 707.04 12.96 
L 52.56 12.96 
z
" style="fill:#eaeaf2;"/>
   </g>
   <g id="matplotlib.axis_1">
    <g id="xtick_1">
     <g id="line2d_1">
      <path clip-path="url(#pcaef5a2f7d)" d="M 82.309091 240.60375 
L 82.309091 12.96 
" style="fill:none;stroke:#ffffff;stroke-linecap:round;"/>
     </g>
     <g id="text_1">
      <!-- 0 -->
      <g style="fill:#262626;" transform="translate(79.250575 257.977344)scale(0.11 -0.11)">
       <defs>
        <path d="M 266 2259 
Q 266 3072 433 3567 
Q 600 4063 929 4331 
Q 1259 4600 1759 4600 
Q 2128 4600 2406 4451 
Q 2684 4303 2865 4023 
Q 3047 3744 3150 3342 
Q 3253 2941 3253 2259 
Q 3253 1453 3087 958 
Q 2922 463 2592 192 
Q 2263 -78 1759 -78 
Q 1097 -78 719 397 
Q 266 969 266 2259 
z
M 844 2259 
Q 844 1131 1108 757 
Q 1372 384 1759 384 
Q 2147 384 2411 759 
Q 2675 1134 2675 2259 
Q 2675 3391 2411 3762 
Q 2147 4134 1753 4134 
Q 1366 4134 1134 3806 
Q 844 3388 844 2259 
z
" id="ArialMT-30" transform="scale(0.015625)"/>
       </defs>
       <use xlink:href="#ArialMT-30"/>
      </g>
     </g>
    </g>
    <g id="xtick_2">
     <g id="line2d_2">
      <path clip-path="url(#pcaef5a2f7d)" d="M 202.507438 240.60375 
L 202.507438 12.96 
" style="fill:none;stroke:#ffffff;stroke-linecap:round;"/>
     </g>
     <g id="text_2">
      <!-- 20 -->
      <g style="fill:#262626;" transform="translate(196.390407 257.977344)scale(0.11 -0.11)">
       <defs>
        <path d="M 3222 541 
L 3222 0 
L 194 0 
Q 188 203 259 391 
Q 375 700 629 1000 
Q 884 1300 1366 1694 
Q 2113 2306 2375 2664 
Q 2638 3022 2638 3341 
Q 2638 3675 2398 3904 
Q 2159 4134 1775 4134 
Q 1369 4134 1125 3890 
Q 881 3647 878 3216 
L 300 3275 
Q 359 3922 746 4261 
Q 1134 4600 1788 4600 
Q 2447 4600 2831 4234 
Q 3216 3869 3216 3328 
Q 3216 3053 3103 2787 
Q 2991 2522 2730 2228 
Q 2469 1934 1863 1422 
Q 1356 997 1212 845 
Q 1069 694 975 541 
L 3222 541 
z
" id="ArialMT-32" transform="scale(0.015625)"/>
       </defs>
       <use xlink:href="#ArialMT-32"/>
       <use x="55.615234" xlink:href="#ArialMT-30"/>
      </g>
     </g>
    </g>
    <g id="xtick_3">
     <g id="line2d_3">
      <path clip-path="url(#pcaef5a2f7d)" d="M 322.705785 240.60375 
L 322.705785 12.96 
" style="fill:none;stroke:#ffffff;stroke-linecap:round;"/>
     </g>
     <g id="text_3">
      <!-- 40 -->
      <g style="fill:#262626;" transform="translate(316.588754 257.977344)scale(0.11 -0.11)">
       <defs>
        <path d="M 2069 0 
L 2069 1097 
L 81 1097 
L 81 1613 
L 2172 4581 
L 2631 4581 
L 2631 1613 
L 3250 1613 
L 3250 1097 
L 2631 1097 
L 2631 0 
L 2069 0 
z
M 2069 1613 
L 2069 3678 
L 634 1613 
L 2069 1613 
z
" id="ArialMT-34" transform="scale(0.015625)"/>
       </defs>
       <use xlink:href="#ArialMT-34"/>
       <use x="55.615234" xlink:href="#ArialMT-30"/>
      </g>
     </g>
    </g>
    <g id="xtick_4">
     <g id="line2d_4">
      <path clip-path="url(#pcaef5a2f7d)" d="M 442.904132 240.60375 
L 442.904132 12.96 
" style="fill:none;stroke:#ffffff;stroke-linecap:round;"/>
     </g>
     <g id="text_4">
      <!-- 60 -->
      <g style="fill:#262626;" transform="translate(436.787101 257.977344)scale(0.11 -0.11)">
       <defs>
        <path d="M 3184 3459 
L 2625 3416 
Q 2550 3747 2413 3897 
Q 2184 4138 1850 4138 
Q 1581 4138 1378 3988 
Q 1113 3794 959 3422 
Q 806 3050 800 2363 
Q 1003 2672 1297 2822 
Q 1591 2972 1913 2972 
Q 2475 2972 2870 2558 
Q 3266 2144 3266 1488 
Q 3266 1056 3080 686 
Q 2894 316 2569 119 
Q 2244 -78 1831 -78 
Q 1128 -78 684 439 
Q 241 956 241 2144 
Q 241 3472 731 4075 
Q 1159 4600 1884 4600 
Q 2425 4600 2770 4297 
Q 3116 3994 3184 3459 
z
M 888 1484 
Q 888 1194 1011 928 
Q 1134 663 1356 523 
Q 1578 384 1822 384 
Q 2178 384 2434 671 
Q 2691 959 2691 1453 
Q 2691 1928 2437 2201 
Q 2184 2475 1800 2475 
Q 1419 2475 1153 2201 
Q 888 1928 888 1484 
z
" id="ArialMT-36" transform="scale(0.015625)"/>
       </defs>
       <use xlink:href="#ArialMT-36"/>
       <use x="55.615234" xlink:href="#ArialMT-30"/>
      </g>
     </g>
    </g>
    <g id="xtick_5">
     <g id="line2d_5">
      <path clip-path="url(#pcaef5a2f7d)" d="M 563.102479 240.60375 
L 563.102479 12.96 
" style="fill:none;stroke:#ffffff;stroke-linecap:round;"/>
     </g>
     <g id="text_5">
      <!-- 80 -->
      <g style="fill:#262626;" transform="translate(556.985448 257.977344)scale(0.11 -0.11)">
       <defs>
        <path d="M 1131 2484 
Q 781 2613 612 2850 
Q 444 3088 444 3419 
Q 444 3919 803 4259 
Q 1163 4600 1759 4600 
Q 2359 4600 2725 4251 
Q 3091 3903 3091 3403 
Q 3091 3084 2923 2848 
Q 2756 2613 2416 2484 
Q 2838 2347 3058 2040 
Q 3278 1734 3278 1309 
Q 3278 722 2862 322 
Q 2447 -78 1769 -78 
Q 1091 -78 675 323 
Q 259 725 259 1325 
Q 259 1772 486 2073 
Q 713 2375 1131 2484 
z
M 1019 3438 
Q 1019 3113 1228 2906 
Q 1438 2700 1772 2700 
Q 2097 2700 2305 2904 
Q 2513 3109 2513 3406 
Q 2513 3716 2298 3927 
Q 2084 4138 1766 4138 
Q 1444 4138 1231 3931 
Q 1019 3725 1019 3438 
z
M 838 1322 
Q 838 1081 952 856 
Q 1066 631 1291 507 
Q 1516 384 1775 384 
Q 2178 384 2440 643 
Q 2703 903 2703 1303 
Q 2703 1709 2433 1975 
Q 2163 2241 1756 2241 
Q 1359 2241 1098 1978 
Q 838 1716 838 1322 
z
" id="ArialMT-38" transform="scale(0.015625)"/>
       </defs>
       <use xlink:href="#ArialMT-38"/>
       <use x="55.615234" xlink:href="#ArialMT-30"/>
      </g>
     </g>
    </g>
    <g id="xtick_6">
     <g id="line2d_6">
      <path clip-path="url(#pcaef5a2f7d)" d="M 683.300826 240.60375 
L 683.300826 12.96 
" style="fill:none;stroke:#ffffff;stroke-linecap:round;"/>
     </g>
     <g id="text_6">
      <!-- 100 -->
      <g style="fill:#262626;" transform="translate(674.12528 257.977344)scale(0.11 -0.11)">
       <defs>
        <path d="M 2384 0 
L 1822 0 
L 1822 3584 
Q 1619 3391 1289 3197 
Q 959 3003 697 2906 
L 697 3450 
Q 1169 3672 1522 3987 
Q 1875 4303 2022 4600 
L 2384 4600 
L 2384 0 
z
" id="ArialMT-31" transform="scale(0.015625)"/>
       </defs>
       <use xlink:href="#ArialMT-31"/>
       <use x="55.615234" xlink:href="#ArialMT-30"/>
       <use x="111.230469" xlink:href="#ArialMT-30"/>
      </g>
     </g>
    </g>
    <g id="text_7">
     <!-- Aggregation Steps -->
     <g style="fill:#262626;" transform="translate(330.435 272.899219)scale(0.12 -0.12)">
      <defs>
       <path d="M -9 0 
L 1750 4581 
L 2403 4581 
L 4278 0 
L 3588 0 
L 3053 1388 
L 1138 1388 
L 634 0 
L -9 0 
z
M 1313 1881 
L 2866 1881 
L 2388 3150 
Q 2169 3728 2063 4100 
Q 1975 3659 1816 3225 
L 1313 1881 
z
" id="ArialMT-41" transform="scale(0.015625)"/>
       <path d="M 319 -275 
L 866 -356 
Q 900 -609 1056 -725 
Q 1266 -881 1628 -881 
Q 2019 -881 2231 -725 
Q 2444 -569 2519 -288 
Q 2563 -116 2559 434 
Q 2191 0 1641 0 
Q 956 0 581 494 
Q 206 988 206 1678 
Q 206 2153 378 2554 
Q 550 2956 876 3175 
Q 1203 3394 1644 3394 
Q 2231 3394 2613 2919 
L 2613 3319 
L 3131 3319 
L 3131 450 
Q 3131 -325 2973 -648 
Q 2816 -972 2473 -1159 
Q 2131 -1347 1631 -1347 
Q 1038 -1347 672 -1080 
Q 306 -813 319 -275 
z
M 784 1719 
Q 784 1066 1043 766 
Q 1303 466 1694 466 
Q 2081 466 2343 764 
Q 2606 1063 2606 1700 
Q 2606 2309 2336 2618 
Q 2066 2928 1684 2928 
Q 1309 2928 1046 2623 
Q 784 2319 784 1719 
z
" id="ArialMT-67" transform="scale(0.015625)"/>
       <path d="M 416 0 
L 416 3319 
L 922 3319 
L 922 2816 
Q 1116 3169 1280 3281 
Q 1444 3394 1641 3394 
Q 1925 3394 2219 3213 
L 2025 2691 
Q 1819 2813 1613 2813 
Q 1428 2813 1281 2702 
Q 1134 2591 1072 2394 
Q 978 2094 978 1738 
L 978 0 
L 416 0 
z
" id="ArialMT-72" transform="scale(0.015625)"/>
       <path d="M 2694 1069 
L 3275 997 
Q 3138 488 2766 206 
Q 2394 -75 1816 -75 
Q 1088 -75 661 373 
Q 234 822 234 1631 
Q 234 2469 665 2931 
Q 1097 3394 1784 3394 
Q 2450 3394 2872 2941 
Q 3294 2488 3294 1666 
Q 3294 1616 3291 1516 
L 816 1516 
Q 847 969 1125 678 
Q 1403 388 1819 388 
Q 2128 388 2347 550 
Q 2566 713 2694 1069 
z
M 847 1978 
L 2700 1978 
Q 2663 2397 2488 2606 
Q 2219 2931 1791 2931 
Q 1403 2931 1139 2672 
Q 875 2413 847 1978 
z
" id="ArialMT-65" transform="scale(0.015625)"/>
       <path d="M 2588 409 
Q 2275 144 1986 34 
Q 1697 -75 1366 -75 
Q 819 -75 525 192 
Q 231 459 231 875 
Q 231 1119 342 1320 
Q 453 1522 633 1644 
Q 813 1766 1038 1828 
Q 1203 1872 1538 1913 
Q 2219 1994 2541 2106 
Q 2544 2222 2544 2253 
Q 2544 2597 2384 2738 
Q 2169 2928 1744 2928 
Q 1347 2928 1158 2789 
Q 969 2650 878 2297 
L 328 2372 
Q 403 2725 575 2942 
Q 747 3159 1072 3276 
Q 1397 3394 1825 3394 
Q 2250 3394 2515 3294 
Q 2781 3194 2906 3042 
Q 3031 2891 3081 2659 
Q 3109 2516 3109 2141 
L 3109 1391 
Q 3109 606 3145 398 
Q 3181 191 3288 0 
L 2700 0 
Q 2613 175 2588 409 
z
M 2541 1666 
Q 2234 1541 1622 1453 
Q 1275 1403 1131 1340 
Q 988 1278 909 1158 
Q 831 1038 831 891 
Q 831 666 1001 516 
Q 1172 366 1500 366 
Q 1825 366 2078 508 
Q 2331 650 2450 897 
Q 2541 1088 2541 1459 
L 2541 1666 
z
" id="ArialMT-61" transform="scale(0.015625)"/>
       <path d="M 1650 503 
L 1731 6 
Q 1494 -44 1306 -44 
Q 1000 -44 831 53 
Q 663 150 594 308 
Q 525 466 525 972 
L 525 2881 
L 113 2881 
L 113 3319 
L 525 3319 
L 525 4141 
L 1084 4478 
L 1084 3319 
L 1650 3319 
L 1650 2881 
L 1084 2881 
L 1084 941 
Q 1084 700 1114 631 
Q 1144 563 1211 522 
Q 1278 481 1403 481 
Q 1497 481 1650 503 
z
" id="ArialMT-74" transform="scale(0.015625)"/>
       <path d="M 425 3934 
L 425 4581 
L 988 4581 
L 988 3934 
L 425 3934 
z
M 425 0 
L 425 3319 
L 988 3319 
L 988 0 
L 425 0 
z
" id="ArialMT-69" transform="scale(0.015625)"/>
       <path d="M 213 1659 
Q 213 2581 725 3025 
Q 1153 3394 1769 3394 
Q 2453 3394 2887 2945 
Q 3322 2497 3322 1706 
Q 3322 1066 3130 698 
Q 2938 331 2570 128 
Q 2203 -75 1769 -75 
Q 1072 -75 642 372 
Q 213 819 213 1659 
z
M 791 1659 
Q 791 1022 1069 705 
Q 1347 388 1769 388 
Q 2188 388 2466 706 
Q 2744 1025 2744 1678 
Q 2744 2294 2464 2611 
Q 2184 2928 1769 2928 
Q 1347 2928 1069 2612 
Q 791 2297 791 1659 
z
" id="ArialMT-6f" transform="scale(0.015625)"/>
       <path d="M 422 0 
L 422 3319 
L 928 3319 
L 928 2847 
Q 1294 3394 1984 3394 
Q 2284 3394 2536 3286 
Q 2788 3178 2913 3003 
Q 3038 2828 3088 2588 
Q 3119 2431 3119 2041 
L 3119 0 
L 2556 0 
L 2556 2019 
Q 2556 2363 2490 2533 
Q 2425 2703 2258 2804 
Q 2091 2906 1866 2906 
Q 1506 2906 1245 2678 
Q 984 2450 984 1813 
L 984 0 
L 422 0 
z
" id="ArialMT-6e" transform="scale(0.015625)"/>
       <path id="ArialMT-20" transform="scale(0.015625)"/>
       <path d="M 288 1472 
L 859 1522 
Q 900 1178 1048 958 
Q 1197 738 1509 602 
Q 1822 466 2213 466 
Q 2559 466 2825 569 
Q 3091 672 3220 851 
Q 3350 1031 3350 1244 
Q 3350 1459 3225 1620 
Q 3100 1781 2813 1891 
Q 2628 1963 1997 2114 
Q 1366 2266 1113 2400 
Q 784 2572 623 2826 
Q 463 3081 463 3397 
Q 463 3744 659 4045 
Q 856 4347 1234 4503 
Q 1613 4659 2075 4659 
Q 2584 4659 2973 4495 
Q 3363 4331 3572 4012 
Q 3781 3694 3797 3291 
L 3216 3247 
Q 3169 3681 2898 3903 
Q 2628 4125 2100 4125 
Q 1550 4125 1298 3923 
Q 1047 3722 1047 3438 
Q 1047 3191 1225 3031 
Q 1400 2872 2139 2705 
Q 2878 2538 3153 2413 
Q 3553 2228 3743 1945 
Q 3934 1663 3934 1294 
Q 3934 928 3725 604 
Q 3516 281 3123 101 
Q 2731 -78 2241 -78 
Q 1619 -78 1198 103 
Q 778 284 539 648 
Q 300 1013 288 1472 
z
" id="ArialMT-53" transform="scale(0.015625)"/>
       <path d="M 422 -1272 
L 422 3319 
L 934 3319 
L 934 2888 
Q 1116 3141 1344 3267 
Q 1572 3394 1897 3394 
Q 2322 3394 2647 3175 
Q 2972 2956 3137 2557 
Q 3303 2159 3303 1684 
Q 3303 1175 3120 767 
Q 2938 359 2589 142 
Q 2241 -75 1856 -75 
Q 1575 -75 1351 44 
Q 1128 163 984 344 
L 984 -1272 
L 422 -1272 
z
M 931 1641 
Q 931 1000 1190 694 
Q 1450 388 1819 388 
Q 2194 388 2461 705 
Q 2728 1022 2728 1688 
Q 2728 2322 2467 2637 
Q 2206 2953 1844 2953 
Q 1484 2953 1207 2617 
Q 931 2281 931 1641 
z
" id="ArialMT-70" transform="scale(0.015625)"/>
       <path d="M 197 991 
L 753 1078 
Q 800 744 1014 566 
Q 1228 388 1613 388 
Q 2000 388 2187 545 
Q 2375 703 2375 916 
Q 2375 1106 2209 1216 
Q 2094 1291 1634 1406 
Q 1016 1563 777 1677 
Q 538 1791 414 1992 
Q 291 2194 291 2438 
Q 291 2659 392 2848 
Q 494 3038 669 3163 
Q 800 3259 1026 3326 
Q 1253 3394 1513 3394 
Q 1903 3394 2198 3281 
Q 2494 3169 2634 2976 
Q 2775 2784 2828 2463 
L 2278 2388 
Q 2241 2644 2061 2787 
Q 1881 2931 1553 2931 
Q 1166 2931 1000 2803 
Q 834 2675 834 2503 
Q 834 2394 903 2306 
Q 972 2216 1119 2156 
Q 1203 2125 1616 2013 
Q 2213 1853 2448 1751 
Q 2684 1650 2818 1456 
Q 2953 1263 2953 975 
Q 2953 694 2789 445 
Q 2625 197 2315 61 
Q 2006 -75 1616 -75 
Q 969 -75 630 194 
Q 291 463 197 991 
z
" id="ArialMT-73" transform="scale(0.015625)"/>
      </defs>
      <use xlink:href="#ArialMT-41"/>
      <use x="66.699219" xlink:href="#ArialMT-67"/>
      <use x="122.314453" xlink:href="#ArialMT-67"/>
      <use x="177.929688" xlink:href="#ArialMT-72"/>
      <use x="211.230469" xlink:href="#ArialMT-65"/>
      <use x="266.845703" xlink:href="#ArialMT-67"/>
      <use x="322.460938" xlink:href="#ArialMT-61"/>
      <use x="378.076172" xlink:href="#ArialMT-74"/>
      <use x="405.859375" xlink:href="#ArialMT-69"/>
      <use x="428.076172" xlink:href="#ArialMT-6f"/>
      <use x="483.691406" xlink:href="#ArialMT-6e"/>
      <use x="539.306641" xlink:href="#ArialMT-20"/>
      <use x="567.089844" xlink:href="#ArialMT-53"/>
      <use x="633.789062" xlink:href="#ArialMT-74"/>
      <use x="661.572266" xlink:href="#ArialMT-65"/>
      <use x="717.1875" xlink:href="#ArialMT-70"/>
      <use x="772.802734" xlink:href="#ArialMT-73"/>
     </g>
    </g>
   </g>
   <g id="matplotlib.axis_2">
    <g id="ytick_1">
     <g id="line2d_7">
      <path clip-path="url(#pcaef5a2f7d)" d="M 52.56 196.179749 
L 707.04 196.179749 
" style="fill:none;stroke:#ffffff;stroke-linecap:round;"/>
     </g>
     <g id="text_8">
      <!-- 1.0 -->
      <g style="fill:#262626;" transform="translate(27.77 200.116546)scale(0.11 -0.11)">
       <defs>
        <path d="M 581 0 
L 581 641 
L 1222 641 
L 1222 0 
L 581 0 
z
" id="ArialMT-2e" transform="scale(0.015625)"/>
       </defs>
       <use xlink:href="#ArialMT-31"/>
       <use x="55.615234" xlink:href="#ArialMT-2e"/>
       <use x="83.398438" xlink:href="#ArialMT-30"/>
      </g>
     </g>
    </g>
    <g id="ytick_2">
     <g id="line2d_8">
      <path clip-path="url(#pcaef5a2f7d)" d="M 52.56 148.547246 
L 707.04 148.547246 
" style="fill:none;stroke:#ffffff;stroke-linecap:round;"/>
     </g>
     <g id="text_9">
      <!-- 1.5 -->
      <g style="fill:#262626;" transform="translate(27.77 152.484043)scale(0.11 -0.11)">
       <defs>
        <path d="M 266 1200 
L 856 1250 
Q 922 819 1161 601 
Q 1400 384 1738 384 
Q 2144 384 2425 690 
Q 2706 997 2706 1503 
Q 2706 1984 2436 2262 
Q 2166 2541 1728 2541 
Q 1456 2541 1237 2417 
Q 1019 2294 894 2097 
L 366 2166 
L 809 4519 
L 3088 4519 
L 3088 3981 
L 1259 3981 
L 1013 2750 
Q 1425 3038 1878 3038 
Q 2478 3038 2890 2622 
Q 3303 2206 3303 1553 
Q 3303 931 2941 478 
Q 2500 -78 1738 -78 
Q 1113 -78 717 272 
Q 322 622 266 1200 
z
" id="ArialMT-35" transform="scale(0.015625)"/>
       </defs>
       <use xlink:href="#ArialMT-31"/>
       <use x="55.615234" xlink:href="#ArialMT-2e"/>
       <use x="83.398438" xlink:href="#ArialMT-35"/>
      </g>
     </g>
    </g>
    <g id="ytick_3">
     <g id="line2d_9">
      <path clip-path="url(#pcaef5a2f7d)" d="M 52.56 100.914744 
L 707.04 100.914744 
" style="fill:none;stroke:#ffffff;stroke-linecap:round;"/>
     </g>
     <g id="text_10">
      <!-- 2.0 -->
      <g style="fill:#262626;" transform="translate(27.77 104.851541)scale(0.11 -0.11)">
       <use xlink:href="#ArialMT-32"/>
       <use x="55.615234" xlink:href="#ArialMT-2e"/>
       <use x="83.398438" xlink:href="#ArialMT-30"/>
      </g>
     </g>
    </g>
    <g id="ytick_4">
     <g id="line2d_10">
      <path clip-path="url(#pcaef5a2f7d)" d="M 52.56 53.282242 
L 707.04 53.282242 
" style="fill:none;stroke:#ffffff;stroke-linecap:round;"/>
     </g>
     <g id="text_11">
      <!-- 2.5 -->
      <g style="fill:#262626;" transform="translate(27.77 57.219039)scale(0.11 -0.11)">
       <use xlink:href="#ArialMT-32"/>
       <use x="55.615234" xlink:href="#ArialMT-2e"/>
       <use x="83.398438" xlink:href="#ArialMT-35"/>
      </g>
     </g>
    </g>
    <g id="text_12">
     <!-- Validation Loss -->
     <g style="fill:#262626;" transform="translate(21.385 167.030625)rotate(-90)scale(0.12 -0.12)">
      <defs>
       <path d="M 1803 0 
L 28 4581 
L 684 4581 
L 1875 1253 
Q 2019 853 2116 503 
Q 2222 878 2363 1253 
L 3600 4581 
L 4219 4581 
L 2425 0 
L 1803 0 
z
" id="ArialMT-56" transform="scale(0.015625)"/>
       <path d="M 409 0 
L 409 4581 
L 972 4581 
L 972 0 
L 409 0 
z
" id="ArialMT-6c" transform="scale(0.015625)"/>
       <path d="M 2575 0 
L 2575 419 
Q 2259 -75 1647 -75 
Q 1250 -75 917 144 
Q 584 363 401 755 
Q 219 1147 219 1656 
Q 219 2153 384 2558 
Q 550 2963 881 3178 
Q 1213 3394 1622 3394 
Q 1922 3394 2156 3267 
Q 2391 3141 2538 2938 
L 2538 4581 
L 3097 4581 
L 3097 0 
L 2575 0 
z
M 797 1656 
Q 797 1019 1065 703 
Q 1334 388 1700 388 
Q 2069 388 2326 689 
Q 2584 991 2584 1609 
Q 2584 2291 2321 2609 
Q 2059 2928 1675 2928 
Q 1300 2928 1048 2622 
Q 797 2316 797 1656 
z
" id="ArialMT-64" transform="scale(0.015625)"/>
       <path d="M 469 0 
L 469 4581 
L 1075 4581 
L 1075 541 
L 3331 541 
L 3331 0 
L 469 0 
z
" id="ArialMT-4c" transform="scale(0.015625)"/>
      </defs>
      <use xlink:href="#ArialMT-56"/>
      <use x="59.324219" xlink:href="#ArialMT-61"/>
      <use x="114.939453" xlink:href="#ArialMT-6c"/>
      <use x="137.15625" xlink:href="#ArialMT-69"/>
      <use x="159.373047" xlink:href="#ArialMT-64"/>
      <use x="214.988281" xlink:href="#ArialMT-61"/>
      <use x="270.603516" xlink:href="#ArialMT-74"/>
      <use x="298.386719" xlink:href="#ArialMT-69"/>
      <use x="320.603516" xlink:href="#ArialMT-6f"/>
      <use x="376.21875" xlink:href="#ArialMT-6e"/>
      <use x="431.833984" xlink:href="#ArialMT-20"/>
      <use x="459.617188" xlink:href="#ArialMT-4c"/>
      <use x="515.232422" xlink:href="#ArialMT-6f"/>
      <use x="570.847656" xlink:href="#ArialMT-73"/>
      <use x="620.847656" xlink:href="#ArialMT-73"/>
     </g>
    </g>
   </g>
   <g id="line2d_11">
    <path clip-path="url(#pcaef5a2f7d)" d="M 82.309091 64.017357 
L 88.319008 69.090566 
L 94.328926 77.545325 
L 100.338843 89.630702 
L 106.34876 105.387378 
L 112.358678 96.286027 
L 118.368595 96.802383 
L 124.378512 149.509969 
L 130.38843 103.294107 
L 136.398347 155.092062 
L 142.408264 147.958504 
L 148.418182 182.013036 
L 154.428099 182.447387 
L 160.438017 190.916069 
L 166.447934 192.069114 
L 172.457851 184.645535 
L 178.467769 189.825915 
L 184.477686 163.105666 
L 190.487603 109.586036 
L 196.497521 199.397208 
L 202.507438 197.901379 
L 208.517355 155.665495 
L 214.527273 211.5951 
L 220.53719 186.084786 
L 226.547107 211.830576 
L 232.557025 181.988052 
L 238.566942 208.261475 
L 244.57686 199.815399 
L 250.586777 212.966842 
L 256.596694 204.814189 
L 262.606612 216.465454 
L 268.616529 183.368556 
L 274.626446 216.722161 
L 280.636364 179.655716 
L 286.646281 205.726977 
L 292.656198 208.473955 
L 298.666116 216.38555 
L 304.676033 202.058723 
L 310.68595 201.122677 
L 316.695868 211.637931 
L 322.705785 209.520664 
L 328.715702 213.819055 
L 334.72562 209.37772 
L 340.735537 204.404726 
L 346.745455 207.730651 
L 352.755372 203.263996 
L 358.765289 216.637096 
L 364.775207 211.442605 
L 370.785124 216.810679 
L 376.795041 215.214073 
L 382.804959 217.394902 
L 388.814876 211.002269 
L 394.824793 214.794088 
L 400.834711 211.48497 
L 406.844628 207.191917 
L 412.854545 217.194051 
L 418.864463 214.972907 
L 424.87438 216.758689 
L 430.884298 218.532412 
L 436.894215 215.587031 
L 442.904132 217.069437 
L 448.91405 216.894201 
L 454.923967 216.337813 
L 460.933884 215.487769 
L 466.943802 215.147302 
L 472.953719 219.378963 
L 478.963636 214.562501 
L 484.973554 218.904075 
L 490.983471 218.059301 
L 496.993388 216.012456 
L 503.003306 216.479945 
L 509.013223 210.215964 
L 515.02314 216.446466 
L 521.033058 217.946798 
L 527.042975 214.977058 
L 533.052893 212.555397 
L 539.06281 214.60942 
L 545.072727 211.959029 
L 551.082645 214.889681 
L 557.092562 217.538908 
L 563.102479 213.515105 
L 569.112397 210.342895 
L 575.122314 213.069687 
L 581.132231 213.771267 
L 587.142149 215.390876 
L 593.152066 213.753613 
L 599.161983 214.12614 
L 605.171901 217.070322 
L 611.181818 216.180645 
L 617.191736 215.719243 
L 623.201653 216.450952 
L 629.21157 215.022932 
L 635.221488 211.078346 
L 641.231405 217.970102 
L 647.241322 216.020439 
L 653.25124 215.765447 
L 659.261157 216.793934 
L 665.271074 215.422101 
L 671.280992 215.015204 
L 677.290909 217.287254 
" style="fill:none;stroke:#4c72b0;stroke-linecap:round;stroke-width:1.5;"/>
   </g>
   <g id="line2d_12">
    <path clip-path="url(#pcaef5a2f7d)" d="M 82.309091 73.152981 
L 88.319008 83.364563 
L 94.328926 92.580523 
L 100.338843 104.233832 
L 106.34876 116.546226 
L 112.358678 131.523132 
L 118.368595 142.641698 
L 124.378512 152.620166 
L 130.38843 158.456088 
L 136.398347 163.383446 
L 142.408264 163.982999 
L 148.418182 167.241603 
L 154.428099 170.276507 
L 160.438017 171.367342 
L 166.447934 171.264838 
L 172.457851 172.543123 
L 178.467769 171.184457 
L 184.477686 174.427321 
L 190.487603 172.365099 
L 196.497521 177.909011 
L 202.507438 178.881886 
L 208.517355 182.313267 
L 214.527273 179.881369 
L 220.53719 182.866487 
L 226.547107 184.277653 
L 232.557025 186.385653 
L 238.566942 190.326202 
L 244.57686 186.241744 
L 250.586777 184.60589 
L 256.596694 187.959717 
L 262.606612 188.596725 
L 268.616529 190.768253 
L 274.626446 189.781739 
L 280.636364 192.562326 
L 286.646281 191.451651 
L 292.656198 193.304914 
L 298.666116 195.136861 
L 304.676033 192.548244 
L 310.68595 195.003775 
L 316.695868 192.74906 
L 322.705785 193.955924 
L 328.715702 192.686861 
L 334.72562 196.510824 
L 340.735537 196.522998 
L 346.745455 194.290213 
L 352.755372 195.17838 
L 358.765289 196.056554 
L 364.775207 195.262316 
L 370.785124 193.040456 
L 376.795041 197.85894 
L 382.804959 197.502846 
L 388.814876 196.080039 
L 394.824793 197.955907 
L 400.834711 194.683795 
L 406.844628 195.23179 
L 412.854545 196.992083 
L 418.864463 194.608717 
L 424.87438 197.511102 
L 430.884298 194.291712 
L 436.894215 195.299508 
L 442.904132 196.178647 
L 448.91405 194.827692 
L 454.923967 194.973589 
L 460.933884 195.983463 
L 466.943802 192.895672 
L 472.953719 196.062902 
L 478.963636 195.367704 
L 484.973554 196.099027 
L 490.983471 195.743796 
L 496.993388 195.876826 
L 503.003306 194.859116 
L 509.013223 196.542531 
L 515.02314 194.983946 
L 521.033058 193.437001 
L 527.042975 196.538659 
L 533.052893 193.184933 
L 539.06281 194.621754 
L 545.072727 195.442907 
L 551.082645 194.293597 
L 557.092562 191.179982 
L 563.102479 196.204012 
L 569.112397 195.421636 
L 575.122314 195.755369 
L 581.132231 195.625189 
L 587.142149 195.680018 
L 593.152066 193.493329 
L 599.161983 193.865754 
L 605.171901 195.916926 
L 611.181818 193.474557 
L 617.191736 190.476789 
L 623.201653 195.132353 
L 629.21157 193.111377 
L 635.221488 194.272225 
L 641.231405 192.218452 
L 647.241322 194.753035 
L 653.25124 194.667543 
L 659.261157 192.304795 
L 665.271074 194.729243 
L 671.280992 194.721668 
L 677.290909 196.474392 
" style="fill:none;stroke:#dd8452;stroke-linecap:round;stroke-width:1.5;"/>
   </g>
   <g id="line2d_13">
    <path clip-path="url(#pcaef5a2f7d)" d="M 82.309091 23.307443 
L 88.319008 148.336584 
L 94.328926 135.404865 
L 100.338843 125.686075 
L 106.34876 158.713925 
L 112.358678 145.418969 
L 118.368595 146.347395 
L 124.378512 175.901516 
L 130.38843 166.126874 
L 136.398347 185.577992 
L 142.408264 191.656443 
L 148.418182 184.830634 
L 154.428099 202.749423 
L 160.438017 196.440488 
L 166.447934 175.226942 
L 172.457851 188.856288 
L 178.467769 195.949371 
L 184.477686 185.190157 
L 190.487603 190.436485 
L 196.497521 188.127827 
L 202.507438 210.514452 
L 208.517355 186.916205 
L 214.527273 208.729021 
L 220.53719 207.303397 
L 226.547107 217.77745 
L 232.557025 220.453126 
L 238.566942 213.460486 
L 244.57686 219.050749 
L 250.586777 219.684259 
L 256.596694 217.565079 
L 262.606612 220.84618 
L 268.616529 220.590511 
L 274.626446 207.89114 
L 280.636364 214.799385 
L 286.646281 212.996659 
L 292.656198 215.285329 
L 298.666116 218.372501 
L 304.676033 220.416314 
L 310.68595 221.763334 
L 316.695868 221.683504 
L 322.705785 188.28039 
L 328.715702 224.641451 
L 334.72562 220.80834 
L 340.735537 224.897516 
L 346.745455 225.387877 
L 352.755372 223.431424 
L 358.765289 226.100894 
L 364.775207 225.211052 
L 370.785124 226.278452 
L 376.795041 227.933283 
L 382.804959 225.3694 
L 388.814876 225.269236 
L 394.824793 224.791776 
L 400.834711 227.424934 
L 406.844628 195.998976 
L 412.854545 219.286305 
L 418.864463 217.865236 
L 424.87438 224.013006 
L 430.884298 220.777132 
L 436.894215 224.624143 
L 442.904132 218.327143 
L 448.91405 224.654039 
L 454.923967 220.839167 
L 460.933884 223.96444 
L 466.943802 220.72868 
L 472.953719 226.194857 
L 478.963636 225.314242 
L 484.973554 226.818316 
L 490.983471 222.398445 
L 496.993388 226.910792 
L 503.003306 223.191751 
L 509.013223 227.496235 
L 515.02314 222.310182 
L 521.033058 226.706126 
L 527.042975 225.062662 
L 533.052893 226.803257 
L 539.06281 225.556839 
L 545.072727 230.256307 
L 551.082645 225.06637 
L 557.092562 228.294811 
L 563.102479 227.068976 
L 569.112397 227.175034 
L 575.122314 226.550298 
L 581.132231 224.108815 
L 587.142149 227.137961 
L 593.152066 227.894172 
L 599.161983 225.83208 
L 605.171901 225.798857 
L 611.181818 226.187935 
L 617.191736 226.231226 
L 623.201653 226.048853 
L 629.21157 226.152776 
L 635.221488 226.365693 
L 641.231405 225.6337 
L 647.241322 224.767774 
L 653.25124 225.824233 
L 659.261157 226.815256 
L 665.271074 225.608403 
L 671.280992 226.747548 
L 677.290909 226.102745 
" style="fill:none;stroke:#55a868;stroke-linecap:round;stroke-width:1.5;"/>
   </g>
   <g id="line2d_14">
    <path clip-path="url(#pcaef5a2f7d)" d="M 82.309091 70.578764 
L 88.319008 82.244838 
L 94.328926 91.025232 
L 100.338843 106.590074 
L 106.34876 135.03645 
L 112.358678 145.726105 
L 118.368595 156.67696 
L 124.378512 162.913674 
L 130.38843 153.556598 
L 136.398347 169.01746 
L 142.408264 177.651639 
L 148.418182 185.728863 
L 154.428099 180.19231 
L 160.438017 183.004218 
L 166.447934 176.23995 
L 172.457851 184.712743 
L 178.467769 156.06388 
L 184.477686 191.397674 
L 190.487603 162.564224 
L 196.497521 188.640561 
L 202.507438 165.396346 
L 208.517355 196.896762 
L 214.527273 153.473798 
L 220.53719 188.356706 
L 226.547107 157.720994 
L 232.557025 182.848725 
L 238.566942 187.241625 
L 244.57686 191.201582 
L 250.586777 128.709452 
L 256.596694 170.369221 
L 262.606612 169.001186 
L 268.616529 194.635745 
L 274.626446 191.222603 
L 280.636364 196.975003 
L 286.646281 183.207113 
L 292.656198 200.459663 
L 298.666116 198.573404 
L 304.676033 189.595935 
L 310.68595 179.630471 
L 316.695868 190.24372 
L 322.705785 196.584715 
L 328.715702 200.372315 
L 334.72562 192.670894 
L 340.735537 175.949463 
L 346.745455 185.703197 
L 352.755372 197.969608 
L 358.765289 200.789881 
L 364.775207 200.6694 
L 370.785124 198.515497 
L 376.795041 196.874401 
L 382.804959 198.450845 
L 388.814876 196.605531 
L 394.824793 197.445751 
L 400.834711 195.788723 
L 406.844628 192.4516 
L 412.854545 195.809039 
L 418.864463 192.844511 
L 424.87438 197.660769 
L 430.884298 197.332113 
L 436.894215 184.157809 
L 442.904132 195.9368 
L 448.91405 194.18863 
L 454.923967 192.160761 
L 460.933884 194.022836 
L 466.943802 196.595197 
L 472.953719 194.903906 
L 478.963636 193.393881 
L 484.973554 189.753768 
L 490.983471 192.381156 
L 496.993388 193.296056 
L 503.003306 192.728198 
L 509.013223 191.540527 
L 515.02314 186.638607 
L 521.033058 193.150989 
L 527.042975 188.395306 
L 533.052893 191.703947 
L 539.06281 185.428643 
L 545.072727 190.096972 
L 551.082645 191.030133 
L 557.092562 189.039968 
L 563.102479 190.901975 
L 569.112397 193.038151 
L 575.122314 191.385261 
L 581.132231 191.236344 
L 587.142149 189.73721 
L 593.152066 187.501154 
L 599.161983 188.268829 
L 605.171901 188.91139 
L 611.181818 188.953125 
L 617.191736 186.554956 
L 623.201653 189.053437 
L 629.21157 186.89741 
L 635.221488 187.268029 
L 641.231405 182.047503 
L 647.241322 186.067252 
L 653.25124 186.339751 
L 659.261157 183.249302 
L 665.271074 187.039957 
L 671.280992 185.89854 
L 677.290909 186.376341 
" style="fill:none;stroke:#c44e52;stroke-linecap:round;stroke-width:1.5;"/>
   </g>
   <g id="patch_3">
    <path d="M 52.56 240.60375 
L 52.56 12.96 
" style="fill:none;stroke:#ffffff;stroke-linecap:square;stroke-linejoin:miter;stroke-width:1.25;"/>
   </g>
   <g id="patch_4">
    <path d="M 707.04 240.60375 
L 707.04 12.96 
" style="fill:none;stroke:#ffffff;stroke-linecap:square;stroke-linejoin:miter;stroke-width:1.25;"/>
   </g>
   <g id="patch_5">
    <path d="M 52.56 240.60375 
L 707.04 240.60375 
" style="fill:none;stroke:#ffffff;stroke-linecap:square;stroke-linejoin:miter;stroke-width:1.25;"/>
   </g>
   <g id="patch_6">
    <path d="M 52.56 12.96 
L 707.04 12.96 
" style="fill:none;stroke:#ffffff;stroke-linecap:square;stroke-linejoin:miter;stroke-width:1.25;"/>
   </g>
   <g id="legend_1">
    <g id="patch_7">
     <path d="M 615.227813 83.999375 
L 699.34 83.999375 
Q 701.54 83.999375 701.54 81.799375 
L 701.54 20.66 
Q 701.54 18.46 699.34 18.46 
L 615.227813 18.46 
Q 613.027812 18.46 613.027812 20.66 
L 613.027812 81.799375 
Q 613.027812 83.999375 615.227813 83.999375 
z
" style="fill:#eaeaf2;opacity:0.8;stroke:#cccccc;stroke-linejoin:miter;"/>
    </g>
    <g id="line2d_15">
     <path d="M 617.427812 26.883594 
L 639.427812 26.883594 
" style="fill:none;stroke:#4c72b0;stroke-linecap:round;stroke-width:1.5;"/>
    </g>
    <g id="line2d_16"/>
    <g id="text_13">
     <!-- CNN -->
     <g style="fill:#262626;" transform="translate(648.227812 30.733594)scale(0.11 -0.11)">
      <defs>
       <path d="M 3763 1606 
L 4369 1453 
Q 4178 706 3683 314 
Q 3188 -78 2472 -78 
Q 1731 -78 1267 223 
Q 803 525 561 1097 
Q 319 1669 319 2325 
Q 319 3041 592 3573 
Q 866 4106 1370 4382 
Q 1875 4659 2481 4659 
Q 3169 4659 3637 4309 
Q 4106 3959 4291 3325 
L 3694 3184 
Q 3534 3684 3231 3912 
Q 2928 4141 2469 4141 
Q 1941 4141 1586 3887 
Q 1231 3634 1087 3207 
Q 944 2781 944 2328 
Q 944 1744 1114 1308 
Q 1284 872 1643 656 
Q 2003 441 2422 441 
Q 2931 441 3284 734 
Q 3638 1028 3763 1606 
z
" id="ArialMT-43" transform="scale(0.015625)"/>
       <path d="M 488 0 
L 488 4581 
L 1109 4581 
L 3516 984 
L 3516 4581 
L 4097 4581 
L 4097 0 
L 3475 0 
L 1069 3600 
L 1069 0 
L 488 0 
z
" id="ArialMT-4e" transform="scale(0.015625)"/>
      </defs>
      <use xlink:href="#ArialMT-43"/>
      <use x="72.216797" xlink:href="#ArialMT-4e"/>
      <use x="144.433594" xlink:href="#ArialMT-4e"/>
     </g>
    </g>
    <g id="line2d_17">
     <path d="M 617.427812 42.443438 
L 639.427812 42.443438 
" style="fill:none;stroke:#dd8452;stroke-linecap:round;stroke-width:1.5;"/>
    </g>
    <g id="line2d_18"/>
    <g id="text_14">
     <!-- DenseNet -->
     <g style="fill:#262626;" transform="translate(648.227812 46.293438)scale(0.11 -0.11)">
      <defs>
       <path d="M 494 0 
L 494 4581 
L 2072 4581 
Q 2606 4581 2888 4516 
Q 3281 4425 3559 4188 
Q 3922 3881 4101 3404 
Q 4281 2928 4281 2316 
Q 4281 1794 4159 1391 
Q 4038 988 3847 723 
Q 3656 459 3429 307 
Q 3203 156 2883 78 
Q 2563 0 2147 0 
L 494 0 
z
M 1100 541 
L 2078 541 
Q 2531 541 2789 625 
Q 3047 709 3200 863 
Q 3416 1078 3536 1442 
Q 3656 1806 3656 2325 
Q 3656 3044 3420 3430 
Q 3184 3816 2847 3947 
Q 2603 4041 2063 4041 
L 1100 4041 
L 1100 541 
z
" id="ArialMT-44" transform="scale(0.015625)"/>
      </defs>
      <use xlink:href="#ArialMT-44"/>
      <use x="72.216797" xlink:href="#ArialMT-65"/>
      <use x="127.832031" xlink:href="#ArialMT-6e"/>
      <use x="183.447266" xlink:href="#ArialMT-73"/>
      <use x="233.447266" xlink:href="#ArialMT-65"/>
      <use x="289.0625" xlink:href="#ArialMT-4e"/>
      <use x="361.279297" xlink:href="#ArialMT-65"/>
      <use x="416.894531" xlink:href="#ArialMT-74"/>
     </g>
    </g>
    <g id="line2d_19">
     <path d="M 617.427812 58.003281 
L 639.427812 58.003281 
" style="fill:none;stroke:#55a868;stroke-linecap:round;stroke-width:1.5;"/>
    </g>
    <g id="line2d_20"/>
    <g id="text_15">
     <!-- LSTM -->
     <g style="fill:#262626;" transform="translate(648.227812 61.853281)scale(0.11 -0.11)">
      <defs>
       <path d="M 1659 0 
L 1659 4041 
L 150 4041 
L 150 4581 
L 3781 4581 
L 3781 4041 
L 2266 4041 
L 2266 0 
L 1659 0 
z
" id="ArialMT-54" transform="scale(0.015625)"/>
       <path d="M 475 0 
L 475 4581 
L 1388 4581 
L 2472 1338 
Q 2622 884 2691 659 
Q 2769 909 2934 1394 
L 4031 4581 
L 4847 4581 
L 4847 0 
L 4263 0 
L 4263 3834 
L 2931 0 
L 2384 0 
L 1059 3900 
L 1059 0 
L 475 0 
z
" id="ArialMT-4d" transform="scale(0.015625)"/>
      </defs>
      <use xlink:href="#ArialMT-4c"/>
      <use x="55.615234" xlink:href="#ArialMT-53"/>
      <use x="122.314453" xlink:href="#ArialMT-54"/>
      <use x="183.398438" xlink:href="#ArialMT-4d"/>
     </g>
    </g>
    <g id="line2d_21">
     <path d="M 617.427812 73.563125 
L 639.427812 73.563125 
" style="fill:none;stroke:#c44e52;stroke-linecap:round;stroke-width:1.5;"/>
    </g>
    <g id="line2d_22"/>
    <g id="text_16">
     <!-- ResNet -->
     <g style="fill:#262626;" transform="translate(648.227812 77.413125)scale(0.11 -0.11)">
      <defs>
       <path d="M 503 0 
L 503 4581 
L 2534 4581 
Q 3147 4581 3465 4457 
Q 3784 4334 3975 4021 
Q 4166 3709 4166 3331 
Q 4166 2844 3850 2509 
Q 3534 2175 2875 2084 
Q 3116 1969 3241 1856 
Q 3506 1613 3744 1247 
L 4541 0 
L 3778 0 
L 3172 953 
Q 2906 1366 2734 1584 
Q 2563 1803 2427 1890 
Q 2291 1978 2150 2013 
Q 2047 2034 1813 2034 
L 1109 2034 
L 1109 0 
L 503 0 
z
M 1109 2559 
L 2413 2559 
Q 2828 2559 3062 2645 
Q 3297 2731 3419 2920 
Q 3541 3109 3541 3331 
Q 3541 3656 3305 3865 
Q 3069 4075 2559 4075 
L 1109 4075 
L 1109 2559 
z
" id="ArialMT-52" transform="scale(0.015625)"/>
      </defs>
      <use xlink:href="#ArialMT-52"/>
      <use x="72.216797" xlink:href="#ArialMT-65"/>
      <use x="127.832031" xlink:href="#ArialMT-73"/>
      <use x="177.832031" xlink:href="#ArialMT-4e"/>
      <use x="250.048828" xlink:href="#ArialMT-65"/>
      <use x="305.664062" xlink:href="#ArialMT-74"/>
     </g>
    </g>
   </g>
  </g>
 </g>
 <defs>
  <clipPath id="pcaef5a2f7d">
   <rect height="227.64375" width="654.48" x="52.56" y="12.96"/>
  </clipPath>
 </defs>
</svg>
